<?xml version="1.0" encoding="utf-8" ?>
<svg baseProfile="full" height="740px" version="1.1" viewBox="0 0 870 740" width="870px" xmlns="http://www.w3.org/2000/svg" xmlns:ev="http://www.w3.org/2001/xml-events" xmlns:xlink="http://www.w3.org/1999/xlink"><defs><marker id="arrowhead" markerHeight="4" markerWidth="4" orient="auto" refX="4" refY="2.0"><polygon fill="#374151" points="0,0 4,2.0 0,4" /></marker><pattern height="6" id="hatch" patternUnits="userSpaceOnUse" width="6"><line stroke="#6B7280" stroke-width="0.8" x1="0" x2="6" y1="6" y2="0" /></pattern><marker id="arrowhead_333333" markerHeight="4" markerWidth="4" orient="auto" refX="4" refY="2.0"><polygon fill="#333333" points="0,0 4,2.0 0,4" /></marker><marker id="arrowhead_6B7280" markerHeight="4" markerWidth="4" orient="auto" refX="4" refY="2.0"><polygon fill="#6B7280" points="0,0 4,2.0 0,4" /></marker></defs><line stroke="#333333" stroke-width="1.5" x1="832.0" x2="832.0" y1="0" y2="30" /><line stroke="#333333" stroke-width="1.5" x1="832.0" x2="832.0" y1="46" y2="740" /><line stroke="#333333" stroke-width="1.5" x1="335.0" x2="832.0" y1="710.0" y2="710.0" /><line marker-end="url(#arrowhead_333333)" stroke="#333333" stroke-width="1.5" x1="335.0" x2="335.0" y1="710.0" y2="694.0" /><g><rect fill="#F3F4F6" height="10" stroke="none" width="80" x="295.0" y="654.0" /><line stroke="#1E40AF" stroke-width="1.5" x1="295.0" x2="375.0" y1="654.0" y2="654.0" /><line stroke="#1E40AF" stroke-width="1.5" x1="295.0" x2="375.0" y1="664.0" y2="664.0" /><line stroke="#F9A8D4" stroke-width="1.5" x1="295.0" x2="295.0" y1="654.0" y2="664.0" /><line stroke="#F9A8D4" stroke-width="1.5" x1="375.0" x2="375.0" y1="654.0" y2="664.0" /></g><g><rect fill="#EAECEF" height="30" stroke="none" width="80" x="295.0" y="664.0" /><line stroke="#1E40AF" stroke-width="1.5" x1="295.0" x2="375.0" y1="664.0" y2="664.0" /><line stroke="#1E40AF" stroke-width="1.5" x1="295.0" x2="375.0" y1="694.0" y2="694.0" /><line stroke="#DC2626" stroke-width="1.5" x1="295.0" x2="295.0" y1="664.0" y2="694.0" /><line stroke="#DC2626" stroke-width="1.5" x1="375.0" x2="375.0" y1="664.0" y2="694.0" /></g><rect fill="url(#hatch)" height="30" width="80" x="295.0" y="664.0" /><text dy="0.35em" fill="#1F2937" font-family="Inter, Segoe UI, Helvetica, Arial, sans-serif" font-size="11px" text-anchor="middle" x="335.0" y="674.0">X</text><text dy="0.35em" font-family="Inter, Segoe UI, Helvetica, Arial, sans-serif" font-size="11px" font-style="italic" text-anchor="start" x="381.0" y="659.0"><tspan fill="#6B7280">(</tspan><tspan fill="#F9A8D4">1</tspan><tspan fill="#6B7280">,</tspan><tspan fill="#6B7280"> </tspan><tspan fill="#1E40AF">D</tspan><tspan fill="#6B7280">)</tspan></text><text dy="0.35em" font-family="Inter, Segoe UI, Helvetica, Arial, sans-serif" font-size="11px" font-style="italic" text-anchor="start" x="381.0" y="679.0"><tspan fill="#6B7280">(</tspan><tspan fill="#DC2626">S</tspan><tspan fill="#6B7280">-</tspan><tspan fill="#F9A8D4">1</tspan><tspan fill="#6B7280">,</tspan><tspan fill="#6B7280"> </tspan><tspan fill="#1E40AF">D</tspan><tspan fill="#6B7280">)</tspan></text><line marker-end="url(#arrowhead_6B7280)" stroke="#6B7280" stroke-width="1.5" x1="295.0" x2="267.0" y1="679.0" y2="679.0" /><rect fill="none" height="12" rx="1" ry="1" stroke="#6B7280" stroke-width="1.2" width="12" x="253.0" y="675.0" /><line stroke="#6B7280" stroke-width="1.2" x1="252.0" x2="266.0" y1="675.0" y2="675.0" /><line stroke="#6B7280" stroke-width="1.2" x1="256.0" x2="256.0" y1="675.0" y2="673.0" /><line stroke="#6B7280" stroke-width="1.2" x1="256.0" x2="262.0" y1="673.0" y2="673.0" /><line stroke="#6B7280" stroke-width="1.2" x1="262.0" x2="262.0" y1="673.0" y2="675.0" /><line stroke="#6B7280" stroke-width="1.0" x1="256.0" x2="256.0" y1="678.0" y2="685.0" /><line stroke="#6B7280" stroke-width="1.0" x1="259.0" x2="259.0" y1="678.0" y2="685.0" /><line stroke="#6B7280" stroke-width="1.0" x1="262.0" x2="262.0" y1="678.0" y2="685.0" /><line stroke="#333333" stroke-width="1.5" x1="335.0" x2="335.0" y1="654.0" y2="638.0" /><line stroke="#333333" stroke-width="1.5" x1="70.0" x2="600.0" y1="638.0" y2="638.0" /><line marker-end="url(#arrowhead_333333)" stroke="#333333" stroke-width="1.5" x1="70.0" x2="70.0" y1="638.0" y2="593.0" /><line marker-end="url(#arrowhead_333333)" stroke="#333333" stroke-width="1.5" x1="335.0" x2="335.0" y1="638.0" y2="593.0" /><line marker-end="url(#arrowhead_333333)" stroke="#333333" stroke-width="1.5" x1="600.0" x2="600.0" y1="638.0" y2="593.0" /><rect fill="#F9FAFB" height="22" rx="6" ry="6" stroke="#333333" stroke-width="1.5" width="48" x="46.0" y="571.0" /><text dy="0.35em" fill="#1F2937" font-family="Inter, Segoe UI, Helvetica, Arial, sans-serif" font-size="9px" text-anchor="middle" x="70.0" y="582.0">MatMul</text><rect fill="#F9FAFB" height="22" rx="6" ry="6" stroke="#333333" stroke-width="1.5" width="48" x="311.0" y="571.0" /><text dy="0.35em" fill="#1F2937" font-family="Inter, Segoe UI, Helvetica, Arial, sans-serif" font-size="9px" text-anchor="middle" x="335.0" y="582.0">MatMul</text><rect fill="#F9FAFB" height="22" rx="6" ry="6" stroke="#333333" stroke-width="1.5" width="48" x="576.0" y="571.0" /><text dy="0.35em" fill="#1F2937" font-family="Inter, Segoe UI, Helvetica, Arial, sans-serif" font-size="9px" text-anchor="middle" x="600.0" y="582.0">MatMul</text><g><rect fill="#F3E8FF" height="80" stroke="none" width="80" x="154.0" y="542.0" /><line stroke="#1E40AF" stroke-width="1.5" x1="154.0" x2="234.0" y1="542.0" y2="542.0" /><line stroke="#1E40AF" stroke-width="1.5" x1="154.0" x2="234.0" y1="622.0" y2="622.0" /><line stroke="#1E40AF" stroke-width="1.5" x1="154.0" x2="154.0" y1="542.0" y2="622.0" /><line stroke="#1E40AF" stroke-width="1.5" x1="234.0" x2="234.0" y1="542.0" y2="622.0" /></g><text dy="0.35em" fill="#1F2937" font-family="Inter, Segoe UI, Helvetica, Arial, sans-serif" font-size="11px" text-anchor="middle" x="194.0" y="582.0">W<tspan baseline-shift="sub" font-size="8px">Q</tspan></text><text dy="0.35em" font-family="Inter, Segoe UI, Helvetica, Arial, sans-serif" font-size="11px" font-style="italic" text-anchor="start" x="240.0" y="582.0"><tspan fill="#6B7280">(</tspan><tspan fill="#1E40AF">D</tspan><tspan fill="#6B7280">,</tspan><tspan fill="#6B7280"> </tspan><tspan fill="#1E40AF">D</tspan><tspan fill="#6B7280">)</tspan></text><line marker-end="url(#arrowhead_333333)" stroke="#333333" stroke-width="1.5" x1="154.0" x2="94.0" y1="582.0" y2="582.0" /><line stroke="#60A5FA" stroke-dasharray="3,2" stroke-width="1.0" x1="174.0" x2="174.0" y1="544.0" y2="620.0" /><line stroke="#60A5FA" stroke-dasharray="3,2" stroke-width="1.0" x1="194.0" x2="194.0" y1="544.0" y2="620.0" /><line stroke="#60A5FA" stroke-dasharray="3,2" stroke-width="1.0" x1="214.0" x2="214.0" y1="544.0" y2="620.0" /><g><rect fill="#F3E8FF" height="80" stroke="none" width="80" x="419.0" y="542.0" /><line stroke="#1E40AF" stroke-width="1.5" x1="419.0" x2="499.0" y1="542.0" y2="542.0" /><line stroke="#1E40AF" stroke-width="1.5" x1="419.0" x2="499.0" y1="622.0" y2="622.0" /><line stroke="#1E40AF" stroke-width="1.5" x1="419.0" x2="419.0" y1="542.0" y2="622.0" /><line stroke="#1E40AF" stroke-width="1.5" x1="499.0" x2="499.0" y1="542.0" y2="622.0" /></g><text dy="0.35em" fill="#1F2937" font-family="Inter, Segoe UI, Helvetica, Arial, sans-serif" font-size="11px" text-anchor="middle" x="459.0" y="582.0">W<tspan baseline-shift="sub" font-size="8px">K</tspan></text><text dy="0.35em" font-family="Inter, Segoe UI, Helvetica, Arial, sans-serif" font-size="11px" font-style="italic" text-anchor="start" x="505.0" y="582.0"><tspan fill="#6B7280">(</tspan><tspan fill="#1E40AF">D</tspan><tspan fill="#6B7280">,</tspan><tspan fill="#6B7280"> </tspan><tspan fill="#1E40AF">D</tspan><tspan fill="#6B7280">)</tspan></text><line marker-end="url(#arrowhead_333333)" stroke="#333333" stroke-width="1.5" x1="419.0" x2="359.0" y1="582.0" y2="582.0" /><line stroke="#60A5FA" stroke-dasharray="3,2" stroke-width="1.0" x1="439.0" x2="439.0" y1="544.0" y2="620.0" /><line stroke="#60A5FA" stroke-dasharray="3,2" stroke-width="1.0" x1="459.0" x2="459.0" y1="544.0" y2="620.0" /><line stroke="#60A5FA" stroke-dasharray="3,2" stroke-width="1.0" x1="479.0" x2="479.0" y1="544.0" y2="620.0" /><g><rect fill="#F3E8FF" height="80" stroke="none" width="80" x="684.0" y="542.0" /><line stroke="#1E40AF" stroke-width="1.5" x1="684.0" x2="764.0" y1="542.0" y2="542.0" /><line stroke="#1E40AF" stroke-width="1.5" x1="684.0" x2="764.0" y1="622.0" y2="622.0" /><line stroke="#1E40AF" stroke-width="1.5" x1="684.0" x2="684.0" y1="542.0" y2="622.0" /><line stroke="#1E40AF" stroke-width="1.5" x1="764.0" x2="764.0" y1="542.0" y2="622.0" /></g><text dy="0.35em" fill="#1F2937" font-family="Inter, Segoe UI, Helvetica, Arial, sans-serif" font-size="11px" text-anchor="middle" x="724.0" y="582.0">W<tspan baseline-shift="sub" font-size="8px">V</tspan></text><text dy="0.35em" font-family="Inter, Segoe UI, Helvetica, Arial, sans-serif" font-size="11px" font-style="italic" text-anchor="start" x="770.0" y="582.0"><tspan fill="#6B7280">(</tspan><tspan fill="#1E40AF">D</tspan><tspan fill="#6B7280">,</tspan><tspan fill="#6B7280"> </tspan><tspan fill="#1E40AF">D</tspan><tspan fill="#6B7280">)</tspan></text><line marker-end="url(#arrowhead_333333)" stroke="#333333" stroke-width="1.5" x1="684.0" x2="624.0" y1="582.0" y2="582.0" /><line stroke="#60A5FA" stroke-dasharray="3,2" stroke-width="1.0" x1="704.0" x2="704.0" y1="544.0" y2="620.0" /><line stroke="#60A5FA" stroke-dasharray="3,2" stroke-width="1.0" x1="724.0" x2="724.0" y1="544.0" y2="620.0" /><line stroke="#60A5FA" stroke-dasharray="3,2" stroke-width="1.0" x1="744.0" x2="744.0" y1="544.0" y2="620.0" /><line marker-end="url(#arrowhead_333333)" stroke="#333333" stroke-width="1.5" x1="70.0" x2="70.0" y1="571.0" y2="505.0" /><g><rect fill="#EFF6FF" height="10" stroke="none" width="80" x="30.0" y="495.0" /><line stroke="#1E40AF" stroke-width="1.5" x1="30.0" x2="110.0" y1="495.0" y2="495.0" /><line stroke="#1E40AF" stroke-width="1.5" x1="30.0" x2="110.0" y1="505.0" y2="505.0" /><line stroke="#F9A8D4" stroke-width="1.5" x1="30.0" x2="30.0" y1="495.0" y2="505.0" /><line stroke="#F9A8D4" stroke-width="1.5" x1="110.0" x2="110.0" y1="495.0" y2="505.0" /><text dy="0.35em" fill="#1F2937" font-family="Inter, Segoe UI, Helvetica, Arial, sans-serif" font-size="8px" text-anchor="middle" x="70.0" y="500.0">Q</text></g><text dy="0.35em" font-family="Inter, Segoe UI, Helvetica, Arial, sans-serif" font-size="11px" font-style="italic" text-anchor="start" x="116.0" y="500.0"><tspan fill="#6B7280">(</tspan><tspan fill="#F9A8D4">1</tspan><tspan fill="#6B7280">,</tspan><tspan fill="#6B7280"> </tspan><tspan fill="#1E40AF">D</tspan><tspan fill="#6B7280">)</tspan></text><line stroke="#60A5FA" stroke-dasharray="3,2" stroke-width="1.0" x1="50.0" x2="50.0" y1="497.0" y2="503.0" /><line stroke="#60A5FA" stroke-dasharray="3,2" stroke-width="1.0" x1="70.0" x2="70.0" y1="497.0" y2="503.0" /><line stroke="#60A5FA" stroke-dasharray="3,2" stroke-width="1.0" x1="90.0" x2="90.0" y1="497.0" y2="503.0" /><line marker-end="url(#arrowhead_333333)" stroke="#333333" stroke-width="1.5" x1="335.0" x2="335.0" y1="571.0" y2="520.0" /><g><rect fill="#FFE082" height="30" stroke="none" width="80" x="295.0" y="480.0" /><line stroke="#1E40AF" stroke-width="1.5" x1="295.0" x2="375.0" y1="480.0" y2="480.0" /><line stroke="#1E40AF" stroke-width="1.5" x1="295.0" x2="375.0" y1="510.0" y2="510.0" /><line stroke="#DC2626" stroke-width="1.5" x1="295.0" x2="295.0" y1="480.0" y2="510.0" /><line stroke="#DC2626" stroke-width="1.5" x1="375.0" x2="375.0" y1="480.0" y2="510.0" /></g><g><rect fill="#FFF8E1" height="10" stroke="none" width="80" x="295.0" y="510.0" /><line stroke="#1E40AF" stroke-width="1.5" x1="295.0" x2="375.0" y1="510.0" y2="510.0" /><line stroke="#1E40AF" stroke-width="1.5" x1="295.0" x2="375.0" y1="520.0" y2="520.0" /><line stroke="#F9A8D4" stroke-width="1.5" x1="295.0" x2="295.0" y1="510.0" y2="520.0" /><line stroke="#F9A8D4" stroke-width="1.5" x1="375.0" x2="375.0" y1="510.0" y2="520.0" /></g><text dy="0.35em" fill="#1F2937" font-family="Inter, Segoe UI, Helvetica, Arial, sans-serif" font-size="11px" text-anchor="middle" x="335.0" y="500.0">K</text><text dy="0.35em" font-family="Inter, Segoe UI, Helvetica, Arial, sans-serif" font-size="11px" font-style="italic" text-anchor="end" x="289.0" y="495.0"><tspan fill="#6B7280">(</tspan><tspan fill="#DC2626">S</tspan><tspan fill="#6B7280">-</tspan><tspan fill="#F9A8D4">1</tspan><tspan fill="#6B7280">,</tspan><tspan fill="#6B7280"> </tspan><tspan fill="#1E40AF">D</tspan><tspan fill="#6B7280">)</tspan></text><text dy="0.35em" font-family="Inter, Segoe UI, Helvetica, Arial, sans-serif" font-size="11px" font-style="italic" text-anchor="end" x="289.0" y="515.0"><tspan fill="#6B7280">(</tspan><tspan fill="#F9A8D4">1</tspan><tspan fill="#6B7280">,</tspan><tspan fill="#6B7280"> </tspan><tspan fill="#1E40AF">D</tspan><tspan fill="#6B7280">)</tspan></text><line stroke="#60A5FA" stroke-dasharray="3,2" stroke-width="1.0" x1="315.0" x2="315.0" y1="482.0" y2="518.0" /><line stroke="#60A5FA" stroke-dasharray="3,2" stroke-width="1.0" x1="335.0" x2="335.0" y1="482.0" y2="518.0" /><line stroke="#60A5FA" stroke-dasharray="3,2" stroke-width="1.0" x1="355.0" x2="355.0" y1="482.0" y2="518.0" /><line marker-end="url(#arrowhead_333333)" stroke="#333333" stroke-width="1.5" x1="600.0" x2="600.0" y1="571.0" y2="520.0" /><g><rect fill="#EF9A9A" height="30" stroke="none" width="80" x="560.0" y="480.0" /><line stroke="#1E40AF" stroke-width="1.5" x1="560.0" x2="640.0" y1="480.0" y2="480.0" /><line stroke="#1E40AF" stroke-width="1.5" x1="560.0" x2="640.0" y1="510.0" y2="510.0" /><line stroke="#DC2626" stroke-width="1.5" x1="560.0" x2="560.0" y1="480.0" y2="510.0" /><line stroke="#DC2626" stroke-width="1.5" x1="640.0" x2="640.0" y1="480.0" y2="510.0" /></g><g><rect fill="#FEE2E2" height="10" stroke="none" width="80" x="560.0" y="510.0" /><line stroke="#1E40AF" stroke-width="1.5" x1="560.0" x2="640.0" y1="510.0" y2="510.0" /><line stroke="#1E40AF" stroke-width="1.5" x1="560.0" x2="640.0" y1="520.0" y2="520.0" /><line stroke="#F9A8D4" stroke-width="1.5" x1="560.0" x2="560.0" y1="510.0" y2="520.0" /><line stroke="#F9A8D4" stroke-width="1.5" x1="640.0" x2="640.0" y1="510.0" y2="520.0" /></g><text dy="0.35em" fill="#1F2937" font-family="Inter, Segoe UI, Helvetica, Arial, sans-serif" font-size="11px" text-anchor="middle" x="600.0" y="500.0">V</text><text dy="0.35em" font-family="Inter, Segoe UI, Helvetica, Arial, sans-serif" font-size="11px" font-style="italic" text-anchor="start" x="646.0" y="495.0"><tspan fill="#6B7280">(</tspan><tspan fill="#DC2626">S</tspan><tspan fill="#6B7280">-</tspan><tspan fill="#F9A8D4">1</tspan><tspan fill="#6B7280">,</tspan><tspan fill="#6B7280"> </tspan><tspan fill="#1E40AF">D</tspan><tspan fill="#6B7280">)</tspan></text><text dy="0.35em" font-family="Inter, Segoe UI, Helvetica, Arial, sans-serif" font-size="11px" font-style="italic" text-anchor="start" x="646.0" y="515.0"><tspan fill="#6B7280">(</tspan><tspan fill="#F9A8D4">1</tspan><tspan fill="#6B7280">,</tspan><tspan fill="#6B7280"> </tspan><tspan fill="#1E40AF">D</tspan><tspan fill="#6B7280">)</tspan></text><line stroke="#60A5FA" stroke-dasharray="3,2" stroke-width="1.0" x1="580.0" x2="580.0" y1="482.0" y2="518.0" /><line stroke="#60A5FA" stroke-dasharray="3,2" stroke-width="1.0" x1="600.0" x2="600.0" y1="482.0" y2="518.0" /><line stroke="#60A5FA" stroke-dasharray="3,2" stroke-width="1.0" x1="620.0" x2="620.0" y1="482.0" y2="518.0" /><g><rect fill="#FFE082" height="30" stroke="none" width="80" x="427.5" y="470.0" /><line stroke="#1E40AF" stroke-width="1.5" x1="427.5" x2="507.5" y1="470.0" y2="470.0" /><line stroke="#1E40AF" stroke-width="1.5" x1="427.5" x2="507.5" y1="500.0" y2="500.0" /><line stroke="#DC2626" stroke-width="1.5" x1="427.5" x2="427.5" y1="470.0" y2="500.0" /><line stroke="#DC2626" stroke-width="1.5" x1="507.5" x2="507.5" y1="470.0" y2="500.0" /><text dy="0.35em" fill="#1F2937" font-family="Inter, Segoe UI, Helvetica, Arial, sans-serif" font-size="9px" text-anchor="middle" x="467.5" y="485.0">K</text></g><line stroke="#60A5FA" stroke-dasharray="3,2" stroke-width="1.0" x1="447.5" x2="447.5" y1="472.0" y2="498.0" /><line stroke="#60A5FA" stroke-dasharray="3,2" stroke-width="1.0" x1="467.5" x2="467.5" y1="472.0" y2="498.0" /><line stroke="#60A5FA" stroke-dasharray="3,2" stroke-width="1.0" x1="487.5" x2="487.5" y1="472.0" y2="498.0" /><g><rect fill="#EF9A9A" height="30" stroke="none" width="80" x="427.5" y="500.0" /><line stroke="#1E40AF" stroke-width="1.5" x1="427.5" x2="507.5" y1="500.0" y2="500.0" /><line stroke="#1E40AF" stroke-width="1.5" x1="427.5" x2="507.5" y1="530.0" y2="530.0" /><line stroke="#DC2626" stroke-width="1.5" x1="427.5" x2="427.5" y1="500.0" y2="530.0" /><line stroke="#DC2626" stroke-width="1.5" x1="507.5" x2="507.5" y1="500.0" y2="530.0" /><text dy="0.35em" fill="#1F2937" font-family="Inter, Segoe UI, Helvetica, Arial, sans-serif" font-size="9px" text-anchor="middle" x="467.5" y="515.0">V</text></g><line stroke="#60A5FA" stroke-dasharray="3,2" stroke-width="1.0" x1="447.5" x2="447.5" y1="502.0" y2="528.0" /><line stroke="#60A5FA" stroke-dasharray="3,2" stroke-width="1.0" x1="467.5" x2="467.5" y1="502.0" y2="528.0" /><line stroke="#60A5FA" stroke-dasharray="3,2" stroke-width="1.0" x1="487.5" x2="487.5" y1="502.0" y2="528.0" /><text dy="0.35em" fill="#1F2937" font-family="Inter, Segoe UI, Helvetica, Arial, sans-serif" font-size="11px" text-anchor="middle" x="467.5" y="462.0">KV Cache</text><line stroke="#333333" stroke-width="1.5" x1="427.5" x2="401.25" y1="485.0" y2="485.0" /><line stroke="#333333" stroke-width="1.5" x1="401.25" x2="401.25" y1="485.0" y2="495.0" /><line marker-end="url(#arrowhead_333333)" stroke="#333333" stroke-width="1.5" x1="401.25" x2="375.0" y1="495.0" y2="495.0" /><line stroke="#333333" stroke-width="1.5" x1="507.5" x2="533.75" y1="515.0" y2="515.0" /><line stroke="#333333" stroke-width="1.5" x1="533.75" x2="533.75" y1="515.0" y2="495.0" /><line marker-end="url(#arrowhead_333333)" stroke="#333333" stroke-width="1.5" x1="533.75" x2="560.0" y1="495.0" y2="495.0" /><line marker-end="url(#arrowhead_333333)" stroke="#333333" stroke-dasharray="2,1" stroke-width="1.5" x1="70.0" x2="70.0" y1="495.0" y2="429.0" /><g><rect fill="#EFF6FF" height="10" stroke="none" width="20" x="75.0" y="404.0" /><line stroke="#93C5FD" stroke-width="1.5" x1="75.0" x2="95.0" y1="404.0" y2="404.0" /><line stroke="#93C5FD" stroke-width="1.5" x1="75.0" x2="95.0" y1="414.0" y2="414.0" /><line stroke="#F9A8D4" stroke-width="1.5" x1="75.0" x2="75.0" y1="404.0" y2="414.0" /><line stroke="#F9A8D4" stroke-width="1.5" x1="95.0" x2="95.0" y1="404.0" y2="414.0" /></g><g><rect fill="#EFF6FF" height="10" stroke="none" width="20" x="70.0" y="409.0" /><line stroke="#93C5FD" stroke-width="1.5" x1="70.0" x2="90.0" y1="409.0" y2="409.0" /><line stroke="#93C5FD" stroke-width="1.5" x1="70.0" x2="90.0" y1="419.0" y2="419.0" /><line stroke="#F9A8D4" stroke-width="1.5" x1="70.0" x2="70.0" y1="409.0" y2="419.0" /><line stroke="#F9A8D4" stroke-width="1.5" x1="90.0" x2="90.0" y1="409.0" y2="419.0" /></g><g><rect fill="#EFF6FF" height="10" stroke="none" width="20" x="65.0" y="414.0" /><line stroke="#93C5FD" stroke-width="1.5" x1="65.0" x2="85.0" y1="414.0" y2="414.0" /><line stroke="#93C5FD" stroke-width="1.5" x1="65.0" x2="85.0" y1="424.0" y2="424.0" /><line stroke="#F9A8D4" stroke-width="1.5" x1="65.0" x2="65.0" y1="414.0" y2="424.0" /><line stroke="#F9A8D4" stroke-width="1.5" x1="85.0" x2="85.0" y1="414.0" y2="424.0" /></g><g><rect fill="#EFF6FF" height="10" stroke="none" width="20" x="60.0" y="419.0" /><line stroke="#93C5FD" stroke-width="1.5" x1="60.0" x2="80.0" y1="419.0" y2="419.0" /><line stroke="#93C5FD" stroke-width="1.5" x1="60.0" x2="80.0" y1="429.0" y2="429.0" /><line stroke="#F9A8D4" stroke-width="1.5" x1="60.0" x2="60.0" y1="419.0" y2="429.0" /><line stroke="#F9A8D4" stroke-width="1.5" x1="80.0" x2="80.0" y1="419.0" y2="429.0" /><text dy="0.35em" fill="#1F2937" font-family="Inter, Segoe UI, Helvetica, Arial, sans-serif" font-size="8px" text-anchor="middle" x="70.0" y="424.0">Q</text></g><line stroke="#A855F7" stroke-width="1.5" x1="60.0" x2="75.0" y1="419.0" y2="404.0" /><line stroke="#A855F7" stroke-width="1.5" x1="80.0" x2="95.0" y1="419.0" y2="404.0" /><line stroke="#A855F7" stroke-width="1.5" x1="80.0" x2="95.0" y1="429.0" y2="414.0" /><text dy="0.35em" font-family="Inter, Segoe UI, Helvetica, Arial, sans-serif" font-size="11px" font-style="italic" text-anchor="start" x="101.0" y="424.0"><tspan fill="#6B7280">(</tspan><tspan fill="#A855F7">H</tspan><tspan fill="#6B7280">,</tspan><tspan fill="#6B7280"> </tspan><tspan fill="#F9A8D4">1</tspan><tspan fill="#6B7280">,</tspan><tspan fill="#6B7280"> </tspan><tspan fill="#60A5FA">d</tspan><tspan baseline-shift="sub" fill="#60A5FA" font-size="8px">K</tspan><tspan fill="#6B7280">)</tspan></text><line marker-end="url(#arrowhead_333333)" stroke="#333333" stroke-dasharray="2,1" stroke-width="1.5" x1="335.0" x2="335.0" y1="480.0" y2="444.0" /><g><rect fill="#FFF8E1" height="40" stroke="none" width="20" x="340.0" y="389.0" /><line stroke="#93C5FD" stroke-width="1.5" x1="340.0" x2="360.0" y1="389.0" y2="389.0" /><line stroke="#93C5FD" stroke-width="1.5" x1="340.0" x2="360.0" y1="429.0" y2="429.0" /><line stroke="#DC2626" stroke-width="1.5" x1="340.0" x2="340.0" y1="389.0" y2="429.0" /><line stroke="#DC2626" stroke-width="1.5" x1="360.0" x2="360.0" y1="389.0" y2="429.0" /></g><g><rect fill="#FFF8E1" height="40" stroke="none" width="20" x="335.0" y="394.0" /><line stroke="#93C5FD" stroke-width="1.5" x1="335.0" x2="355.0" y1="394.0" y2="394.0" /><line stroke="#93C5FD" stroke-width="1.5" x1="335.0" x2="355.0" y1="434.0" y2="434.0" /><line stroke="#DC2626" stroke-width="1.5" x1="335.0" x2="335.0" y1="394.0" y2="434.0" /><line stroke="#DC2626" stroke-width="1.5" x1="355.0" x2="355.0" y1="394.0" y2="434.0" /></g><g><rect fill="#FFF8E1" height="40" stroke="none" width="20" x="330.0" y="399.0" /><line stroke="#93C5FD" stroke-width="1.5" x1="330.0" x2="350.0" y1="399.0" y2="399.0" /><line stroke="#93C5FD" stroke-width="1.5" x1="330.0" x2="350.0" y1="439.0" y2="439.0" /><line stroke="#DC2626" stroke-width="1.5" x1="330.0" x2="330.0" y1="399.0" y2="439.0" /><line stroke="#DC2626" stroke-width="1.5" x1="350.0" x2="350.0" y1="399.0" y2="439.0" /></g><g><rect fill="#FFF8E1" height="40" stroke="none" width="20" x="325.0" y="404.0" /><line stroke="#93C5FD" stroke-width="1.5" x1="325.0" x2="345.0" y1="404.0" y2="404.0" /><line stroke="#93C5FD" stroke-width="1.5" x1="325.0" x2="345.0" y1="444.0" y2="444.0" /><line stroke="#DC2626" stroke-width="1.5" x1="325.0" x2="325.0" y1="404.0" y2="444.0" /><line stroke="#DC2626" stroke-width="1.5" x1="345.0" x2="345.0" y1="404.0" y2="444.0" /><text dy="0.35em" fill="#1F2937" font-family="Inter, Segoe UI, Helvetica, Arial, sans-serif" font-size="11px" text-anchor="middle" x="335.0" y="424.0">K</text></g><line stroke="#A855F7" stroke-width="1.5" x1="325.0" x2="340.0" y1="404.0" y2="389.0" /><line stroke="#A855F7" stroke-width="1.5" x1="345.0" x2="360.0" y1="404.0" y2="389.0" /><line stroke="#A855F7" stroke-width="1.5" x1="345.0" x2="360.0" y1="444.0" y2="429.0" /><text dy="0.35em" font-family="Inter, Segoe UI, Helvetica, Arial, sans-serif" font-size="11px" font-style="italic" text-anchor="start" x="366.0" y="424.0"><tspan fill="#6B7280">(</tspan><tspan fill="#A855F7">H</tspan><tspan fill="#6B7280">,</tspan><tspan fill="#6B7280"> </tspan><tspan fill="#DC2626">S</tspan><tspan fill="#6B7280">,</tspan><tspan fill="#6B7280"> </tspan><tspan fill="#60A5FA">d</tspan><tspan baseline-shift="sub" fill="#60A5FA" font-size="8px">K</tspan><tspan fill="#6B7280">)</tspan></text><line marker-end="url(#arrowhead_333333)" stroke="#333333" stroke-dasharray="2,1" stroke-width="1.5" x1="600.0" x2="600.0" y1="480.0" y2="444.0" /><g><rect fill="#FEE2E2" height="40" stroke="none" width="20" x="605.0" y="389.0" /><line stroke="#93C5FD" stroke-width="1.5" x1="605.0" x2="625.0" y1="389.0" y2="389.0" /><line stroke="#93C5FD" stroke-width="1.5" x1="605.0" x2="625.0" y1="429.0" y2="429.0" /><line stroke="#DC2626" stroke-width="1.5" x1="605.0" x2="605.0" y1="389.0" y2="429.0" /><line stroke="#DC2626" stroke-width="1.5" x1="625.0" x2="625.0" y1="389.0" y2="429.0" /></g><g><rect fill="#FEE2E2" height="40" stroke="none" width="20" x="600.0" y="394.0" /><line stroke="#93C5FD" stroke-width="1.5" x1="600.0" x2="620.0" y1="394.0" y2="394.0" /><line stroke="#93C5FD" stroke-width="1.5" x1="600.0" x2="620.0" y1="434.0" y2="434.0" /><line stroke="#DC2626" stroke-width="1.5" x1="600.0" x2="600.0" y1="394.0" y2="434.0" /><line stroke="#DC2626" stroke-width="1.5" x1="620.0" x2="620.0" y1="394.0" y2="434.0" /></g><g><rect fill="#FEE2E2" height="40" stroke="none" width="20" x="595.0" y="399.0" /><line stroke="#93C5FD" stroke-width="1.5" x1="595.0" x2="615.0" y1="399.0" y2="399.0" /><line stroke="#93C5FD" stroke-width="1.5" x1="595.0" x2="615.0" y1="439.0" y2="439.0" /><line stroke="#DC2626" stroke-width="1.5" x1="595.0" x2="595.0" y1="399.0" y2="439.0" /><line stroke="#DC2626" stroke-width="1.5" x1="615.0" x2="615.0" y1="399.0" y2="439.0" /></g><g><rect fill="#FEE2E2" height="40" stroke="none" width="20" x="590.0" y="404.0" /><line stroke="#93C5FD" stroke-width="1.5" x1="590.0" x2="610.0" y1="404.0" y2="404.0" /><line stroke="#93C5FD" stroke-width="1.5" x1="590.0" x2="610.0" y1="444.0" y2="444.0" /><line stroke="#DC2626" stroke-width="1.5" x1="590.0" x2="590.0" y1="404.0" y2="444.0" /><line stroke="#DC2626" stroke-width="1.5" x1="610.0" x2="610.0" y1="404.0" y2="444.0" /><text dy="0.35em" fill="#1F2937" font-family="Inter, Segoe UI, Helvetica, Arial, sans-serif" font-size="11px" text-anchor="middle" x="600.0" y="424.0">V</text></g><line stroke="#A855F7" stroke-width="1.5" x1="590.0" x2="605.0" y1="404.0" y2="389.0" /><line stroke="#A855F7" stroke-width="1.5" x1="610.0" x2="625.0" y1="404.0" y2="389.0" /><line stroke="#A855F7" stroke-width="1.5" x1="610.0" x2="625.0" y1="444.0" y2="429.0" /><text dy="0.35em" font-family="Inter, Segoe UI, Helvetica, Arial, sans-serif" font-size="11px" font-style="italic" text-anchor="start" x="631.0" y="424.0"><tspan fill="#6B7280">(</tspan><tspan fill="#A855F7">H</tspan><tspan fill="#6B7280">,</tspan><tspan fill="#6B7280"> </tspan><tspan fill="#DC2626">S</tspan><tspan fill="#6B7280">,</tspan><tspan fill="#6B7280"> </tspan><tspan fill="#60A5FA">d</tspan><tspan baseline-shift="sub" fill="#60A5FA" font-size="8px">K</tspan><tspan fill="#6B7280">)</tspan></text><line marker-end="url(#arrowhead_333333)" stroke="#333333" stroke-width="1.5" x1="70.0" x2="70.0" y1="419.0" y2="373.0" /><line marker-end="url(#arrowhead_333333)" stroke="#333333" stroke-dasharray="2,1" stroke-width="1.5" x1="335.0" x2="335.0" y1="404.0" y2="370.0" /><circle cx="335.0" cy="362.0" fill="white" r="8" stroke="#333333" stroke-dasharray="2,1" stroke-width="1.5" /><text dy="0.35em" fill="#333333" font-family="Inter, Segoe UI, Helvetica, Arial, sans-serif" font-size="11px" text-anchor="middle" x="335.0" y="362.0">T</text><g><rect fill="#FFF8E1" height="20" stroke="none" width="40" x="205.0" y="337.0" /><line stroke="#DC2626" stroke-width="1.5" x1="205.0" x2="245.0" y1="337.0" y2="337.0" /><line stroke="#DC2626" stroke-width="1.5" x1="205.0" x2="245.0" y1="357.0" y2="357.0" /><line stroke="#93C5FD" stroke-width="1.5" x1="205.0" x2="205.0" y1="337.0" y2="357.0" /><line stroke="#93C5FD" stroke-width="1.5" x1="245.0" x2="245.0" y1="337.0" y2="357.0" /></g><g><rect fill="#FFF8E1" height="20" stroke="none" width="40" x="200.0" y="342.0" /><line stroke="#DC2626" stroke-width="1.5" x1="200.0" x2="240.0" y1="342.0" y2="342.0" /><line stroke="#DC2626" stroke-width="1.5" x1="200.0" x2="240.0" y1="362.0" y2="362.0" /><line stroke="#93C5FD" stroke-width="1.5" x1="200.0" x2="200.0" y1="342.0" y2="362.0" /><line stroke="#93C5FD" stroke-width="1.5" x1="240.0" x2="240.0" y1="342.0" y2="362.0" /></g><g><rect fill="#FFF8E1" height="20" stroke="none" width="40" x="195.0" y="347.0" /><line stroke="#DC2626" stroke-width="1.5" x1="195.0" x2="235.0" y1="347.0" y2="347.0" /><line stroke="#DC2626" stroke-width="1.5" x1="195.0" x2="235.0" y1="367.0" y2="367.0" /><line stroke="#93C5FD" stroke-width="1.5" x1="195.0" x2="195.0" y1="347.0" y2="367.0" /><line stroke="#93C5FD" stroke-width="1.5" x1="235.0" x2="235.0" y1="347.0" y2="367.0" /></g><g><rect fill="#FFF8E1" height="20" stroke="none" width="40" x="190.0" y="352.0" /><line stroke="#DC2626" stroke-width="1.5" x1="190.0" x2="230.0" y1="352.0" y2="352.0" /><line stroke="#DC2626" stroke-width="1.5" x1="190.0" x2="230.0" y1="372.0" y2="372.0" /><line stroke="#93C5FD" stroke-width="1.5" x1="190.0" x2="190.0" y1="352.0" y2="372.0" /><line stroke="#93C5FD" stroke-width="1.5" x1="230.0" x2="230.0" y1="352.0" y2="372.0" /></g><line stroke="#A855F7" stroke-width="1.5" x1="190.0" x2="205.0" y1="352.0" y2="337.0" /><line stroke="#A855F7" stroke-width="1.5" x1="230.0" x2="245.0" y1="352.0" y2="337.0" /><line stroke="#A855F7" stroke-width="1.5" x1="230.0" x2="245.0" y1="372.0" y2="357.0" /><text dy="0.35em" fill="#1F2937" font-family="Inter, Segoe UI, Helvetica, Arial, sans-serif" font-size="11px" text-anchor="middle" x="210.0" y="362.0">K<tspan baseline-shift="super" font-size="8px">T</tspan></text><text dy="0.35em" font-family="Inter, Segoe UI, Helvetica, Arial, sans-serif" font-size="11px" font-style="italic" text-anchor="middle" x="210.0" y="384.0"><tspan fill="#6B7280">(</tspan><tspan fill="#A855F7">H</tspan><tspan fill="#6B7280">,</tspan><tspan fill="#6B7280"> </tspan><tspan fill="#60A5FA">d</tspan><tspan baseline-shift="sub" fill="#60A5FA" font-size="8px">K</tspan><tspan fill="#6B7280">,</tspan><tspan fill="#6B7280"> </tspan><tspan fill="#DC2626">S</tspan><tspan fill="#6B7280">)</tspan></text><line marker-end="url(#arrowhead_333333)" stroke="#333333" stroke-dasharray="2,1" stroke-width="1.5" x1="327.0" x2="230.0" y1="362.0" y2="362.0" /><line marker-end="url(#arrowhead_333333)" stroke="#333333" stroke-width="1.5" x1="190.0" x2="94.0" y1="362.0" y2="362.0" /><rect fill="#F9FAFB" height="22" rx="6" ry="6" stroke="#333333" stroke-width="1.5" width="48" x="46.0" y="351.0" /><text dy="0.35em" fill="#1F2937" font-family="Inter, Segoe UI, Helvetica, Arial, sans-serif" font-size="9px" text-anchor="middle" x="70.0" y="362.0">MatMul</text><line marker-end="url(#arrowhead_333333)" stroke="#333333" stroke-width="1.5" x1="70.0" x2="70.0" y1="351.0" y2="335.0" /><g><rect fill="#D1FAE5" height="10" stroke="none" width="40" x="65.0" y="310.0" /><line stroke="#DC2626" stroke-width="1.5" x1="65.0" x2="105.0" y1="310.0" y2="310.0" /><line stroke="#DC2626" stroke-width="1.5" x1="65.0" x2="105.0" y1="320.0" y2="320.0" /><line stroke="#F9A8D4" stroke-width="1.5" x1="65.0" x2="65.0" y1="310.0" y2="320.0" /><line stroke="#F9A8D4" stroke-width="1.5" x1="105.0" x2="105.0" y1="310.0" y2="320.0" /></g><g><rect fill="#D1FAE5" height="10" stroke="none" width="40" x="60.0" y="315.0" /><line stroke="#DC2626" stroke-width="1.5" x1="60.0" x2="100.0" y1="315.0" y2="315.0" /><line stroke="#DC2626" stroke-width="1.5" x1="60.0" x2="100.0" y1="325.0" y2="325.0" /><line stroke="#F9A8D4" stroke-width="1.5" x1="60.0" x2="60.0" y1="315.0" y2="325.0" /><line stroke="#F9A8D4" stroke-width="1.5" x1="100.0" x2="100.0" y1="315.0" y2="325.0" /></g><g><rect fill="#D1FAE5" height="10" stroke="none" width="40" x="55.0" y="320.0" /><line stroke="#DC2626" stroke-width="1.5" x1="55.0" x2="95.0" y1="320.0" y2="320.0" /><line stroke="#DC2626" stroke-width="1.5" x1="55.0" x2="95.0" y1="330.0" y2="330.0" /><line stroke="#F9A8D4" stroke-width="1.5" x1="55.0" x2="55.0" y1="320.0" y2="330.0" /><line stroke="#F9A8D4" stroke-width="1.5" x1="95.0" x2="95.0" y1="320.0" y2="330.0" /></g><g><rect fill="#D1FAE5" height="10" stroke="none" width="40" x="50.0" y="325.0" /><line stroke="#DC2626" stroke-width="1.5" x1="50.0" x2="90.0" y1="325.0" y2="325.0" /><line stroke="#DC2626" stroke-width="1.5" x1="50.0" x2="90.0" y1="335.0" y2="335.0" /><line stroke="#F9A8D4" stroke-width="1.5" x1="50.0" x2="50.0" y1="325.0" y2="335.0" /><line stroke="#F9A8D4" stroke-width="1.5" x1="90.0" x2="90.0" y1="325.0" y2="335.0" /><text dy="0.35em" fill="#1F2937" font-family="Inter, Segoe UI, Helvetica, Arial, sans-serif" font-size="8px" text-anchor="middle" x="70.0" y="330.0">Scores</text></g><line stroke="#A855F7" stroke-width="1.5" x1="50.0" x2="65.0" y1="325.0" y2="310.0" /><line stroke="#A855F7" stroke-width="1.5" x1="90.0" x2="105.0" y1="325.0" y2="310.0" /><line stroke="#A855F7" stroke-width="1.5" x1="90.0" x2="105.0" y1="335.0" y2="320.0" /><text dy="0.35em" font-family="Inter, Segoe UI, Helvetica, Arial, sans-serif" font-size="11px" font-style="italic" text-anchor="start" x="111.0" y="330.0"><tspan fill="#6B7280">(</tspan><tspan fill="#A855F7">H</tspan><tspan fill="#6B7280">,</tspan><tspan fill="#6B7280"> </tspan><tspan fill="#F9A8D4">1</tspan><tspan fill="#6B7280">,</tspan><tspan fill="#6B7280"> </tspan><tspan fill="#DC2626">S</tspan><tspan fill="#6B7280">)</tspan></text><line marker-end="url(#arrowhead_333333)" stroke="#333333" stroke-width="1.5" x1="70.0" x2="70.0" y1="325.0" y2="294.0" /><rect fill="#F9FAFB" height="22" rx="6" ry="6" stroke="#333333" stroke-width="1.5" width="110" x="15.0" y="272.0" /><text dy="0.35em" fill="#1F2937" font-family="Inter, Segoe UI, Helvetica, Arial, sans-serif" font-size="9px" text-anchor="middle" x="70.0" y="283.0">Scale + Mask + Softmax</text><line marker-end="url(#arrowhead_333333)" stroke="#333333" stroke-width="1.5" x1="70.0" x2="70.0" y1="272.0" y2="256.0" /><g><rect fill="#D1FAE5" height="10" stroke="none" width="40" x="65.0" y="231.0" /><line stroke="#DC2626" stroke-width="1.5" x1="65.0" x2="105.0" y1="231.0" y2="231.0" /><line stroke="#DC2626" stroke-width="1.5" x1="65.0" x2="105.0" y1="241.0" y2="241.0" /><line stroke="#F9A8D4" stroke-width="1.5" x1="65.0" x2="65.0" y1="231.0" y2="241.0" /><line stroke="#F9A8D4" stroke-width="1.5" x1="105.0" x2="105.0" y1="231.0" y2="241.0" /></g><g><rect fill="#D1FAE5" height="10" stroke="none" width="40" x="60.0" y="236.0" /><line stroke="#DC2626" stroke-width="1.5" x1="60.0" x2="100.0" y1="236.0" y2="236.0" /><line stroke="#DC2626" stroke-width="1.5" x1="60.0" x2="100.0" y1="246.0" y2="246.0" /><line stroke="#F9A8D4" stroke-width="1.5" x1="60.0" x2="60.0" y1="236.0" y2="246.0" /><line stroke="#F9A8D4" stroke-width="1.5" x1="100.0" x2="100.0" y1="236.0" y2="246.0" /></g><g><rect fill="#D1FAE5" height="10" stroke="none" width="40" x="55.0" y="241.0" /><line stroke="#DC2626" stroke-width="1.5" x1="55.0" x2="95.0" y1="241.0" y2="241.0" /><line stroke="#DC2626" stroke-width="1.5" x1="55.0" x2="95.0" y1="251.0" y2="251.0" /><line stroke="#F9A8D4" stroke-width="1.5" x1="55.0" x2="55.0" y1="241.0" y2="251.0" /><line stroke="#F9A8D4" stroke-width="1.5" x1="95.0" x2="95.0" y1="241.0" y2="251.0" /></g><g><rect fill="#D1FAE5" height="10" stroke="none" width="40" x="50.0" y="246.0" /><line stroke="#DC2626" stroke-width="1.5" x1="50.0" x2="90.0" y1="246.0" y2="246.0" /><line stroke="#DC2626" stroke-width="1.5" x1="50.0" x2="90.0" y1="256.0" y2="256.0" /><line stroke="#F9A8D4" stroke-width="1.5" x1="50.0" x2="50.0" y1="246.0" y2="256.0" /><line stroke="#F9A8D4" stroke-width="1.5" x1="90.0" x2="90.0" y1="246.0" y2="256.0" /><text dy="0.35em" fill="#1F2937" font-family="Inter, Segoe UI, Helvetica, Arial, sans-serif" font-size="8px" text-anchor="middle" x="70.0" y="251.0">Attn</text></g><line stroke="#A855F7" stroke-width="1.5" x1="50.0" x2="65.0" y1="246.0" y2="231.0" /><line stroke="#A855F7" stroke-width="1.5" x1="90.0" x2="105.0" y1="246.0" y2="231.0" /><line stroke="#A855F7" stroke-width="1.5" x1="90.0" x2="105.0" y1="256.0" y2="241.0" /><text dy="0.35em" font-family="Inter, Segoe UI, Helvetica, Arial, sans-serif" font-size="11px" font-style="italic" text-anchor="start" x="111.0" y="251.0"><tspan fill="#6B7280">(</tspan><tspan fill="#A855F7">H</tspan><tspan fill="#6B7280">,</tspan><tspan fill="#6B7280"> </tspan><tspan fill="#F9A8D4">1</tspan><tspan fill="#6B7280">,</tspan><tspan fill="#6B7280"> </tspan><tspan fill="#DC2626">S</tspan><tspan fill="#6B7280">)</tspan></text><line marker-end="url(#arrowhead_333333)" stroke="#333333" stroke-width="1.5" x1="70.0" x2="70.0" y1="246.0" y2="215.0" /><line stroke="#333333" stroke-width="1.5" x1="600.0" x2="600.0" y1="404.0" y2="204.0" /><line marker-end="url(#arrowhead_333333)" stroke="#333333" stroke-width="1.5" x1="600.0" x2="94.0" y1="204.0" y2="204.0" /><rect fill="#F9FAFB" height="22" rx="6" ry="6" stroke="#333333" stroke-width="1.5" width="48" x="46.0" y="193.0" /><text dy="0.35em" fill="#1F2937" font-family="Inter, Segoe UI, Helvetica, Arial, sans-serif" font-size="9px" text-anchor="middle" x="70.0" y="204.0">MatMul</text><line marker-end="url(#arrowhead_333333)" stroke="#333333" stroke-width="1.5" x1="70.0" x2="70.0" y1="193.0" y2="177.0" /><g><rect fill="#E8DCCF" height="10" stroke="none" width="20" x="75.0" y="152.0" /><line stroke="#93C5FD" stroke-width="1.5" x1="75.0" x2="95.0" y1="152.0" y2="152.0" /><line stroke="#93C5FD" stroke-width="1.5" x1="75.0" x2="95.0" y1="162.0" y2="162.0" /><line stroke="#F9A8D4" stroke-width="1.5" x1="75.0" x2="75.0" y1="152.0" y2="162.0" /><line stroke="#F9A8D4" stroke-width="1.5" x1="95.0" x2="95.0" y1="152.0" y2="162.0" /></g><g><rect fill="#E8DCCF" height="10" stroke="none" width="20" x="70.0" y="157.0" /><line stroke="#93C5FD" stroke-width="1.5" x1="70.0" x2="90.0" y1="157.0" y2="157.0" /><line stroke="#93C5FD" stroke-width="1.5" x1="70.0" x2="90.0" y1="167.0" y2="167.0" /><line stroke="#F9A8D4" stroke-width="1.5" x1="70.0" x2="70.0" y1="157.0" y2="167.0" /><line stroke="#F9A8D4" stroke-width="1.5" x1="90.0" x2="90.0" y1="157.0" y2="167.0" /></g><g><rect fill="#E8DCCF" height="10" stroke="none" width="20" x="65.0" y="162.0" /><line stroke="#93C5FD" stroke-width="1.5" x1="65.0" x2="85.0" y1="162.0" y2="162.0" /><line stroke="#93C5FD" stroke-width="1.5" x1="65.0" x2="85.0" y1="172.0" y2="172.0" /><line stroke="#F9A8D4" stroke-width="1.5" x1="65.0" x2="65.0" y1="162.0" y2="172.0" /><line stroke="#F9A8D4" stroke-width="1.5" x1="85.0" x2="85.0" y1="162.0" y2="172.0" /></g><g><rect fill="#E8DCCF" height="10" stroke="none" width="20" x="60.0" y="167.0" /><line stroke="#93C5FD" stroke-width="1.5" x1="60.0" x2="80.0" y1="167.0" y2="167.0" /><line stroke="#93C5FD" stroke-width="1.5" x1="60.0" x2="80.0" y1="177.0" y2="177.0" /><line stroke="#F9A8D4" stroke-width="1.5" x1="60.0" x2="60.0" y1="167.0" y2="177.0" /><line stroke="#F9A8D4" stroke-width="1.5" x1="80.0" x2="80.0" y1="167.0" y2="177.0" /><text dy="0.35em" fill="#1F2937" font-family="Inter, Segoe UI, Helvetica, Arial, sans-serif" font-size="8px" text-anchor="middle" x="70.0" y="172.0">WV</text></g><line stroke="#A855F7" stroke-width="1.5" x1="60.0" x2="75.0" y1="167.0" y2="152.0" /><line stroke="#A855F7" stroke-width="1.5" x1="80.0" x2="95.0" y1="167.0" y2="152.0" /><line stroke="#A855F7" stroke-width="1.5" x1="80.0" x2="95.0" y1="177.0" y2="162.0" /><text dy="0.35em" font-family="Inter, Segoe UI, Helvetica, Arial, sans-serif" font-size="11px" font-style="italic" text-anchor="start" x="101.0" y="172.0"><tspan fill="#6B7280">(</tspan><tspan fill="#A855F7">H</tspan><tspan fill="#6B7280">,</tspan><tspan fill="#6B7280"> </tspan><tspan fill="#F9A8D4">1</tspan><tspan fill="#6B7280">,</tspan><tspan fill="#6B7280"> </tspan><tspan fill="#60A5FA">d</tspan><tspan baseline-shift="sub" fill="#60A5FA" font-size="8px">K</tspan><tspan fill="#6B7280">)</tspan></text><line marker-end="url(#arrowhead_333333)" stroke="#333333" stroke-dasharray="2,1" stroke-width="1.5" x1="70.0" x2="70.0" y1="167.0" y2="136.0" /><g><rect fill="#E8DCCF" height="10" stroke="none" width="80" x="30.0" y="126.0" /><line stroke="#1E40AF" stroke-width="1.5" x1="30.0" x2="110.0" y1="126.0" y2="126.0" /><line stroke="#1E40AF" stroke-width="1.5" x1="30.0" x2="110.0" y1="136.0" y2="136.0" /><line stroke="#F9A8D4" stroke-width="1.5" x1="30.0" x2="30.0" y1="126.0" y2="136.0" /><line stroke="#F9A8D4" stroke-width="1.5" x1="110.0" x2="110.0" y1="126.0" y2="136.0" /><text dy="0.35em" fill="#1F2937" font-family="Inter, Segoe UI, Helvetica, Arial, sans-serif" font-size="8px" text-anchor="middle" x="70.0" y="131.0">Weighted V</text></g><text dy="0.35em" font-family="Inter, Segoe UI, Helvetica, Arial, sans-serif" font-size="11px" font-style="italic" text-anchor="start" x="116.0" y="131.0"><tspan fill="#6B7280">(</tspan><tspan fill="#F9A8D4">1</tspan><tspan fill="#6B7280">,</tspan><tspan fill="#6B7280"> </tspan><tspan fill="#1E40AF">D</tspan><tspan fill="#6B7280">)</tspan></text><line stroke="#60A5FA" stroke-dasharray="3,2" stroke-width="1.0" x1="50.0" x2="50.0" y1="128.0" y2="134.0" /><line stroke="#60A5FA" stroke-dasharray="3,2" stroke-width="1.0" x1="70.0" x2="70.0" y1="128.0" y2="134.0" /><line stroke="#60A5FA" stroke-dasharray="3,2" stroke-width="1.0" x1="90.0" x2="90.0" y1="128.0" y2="134.0" /><line marker-end="url(#arrowhead_333333)" stroke="#333333" stroke-width="1.5" x1="70.0" x2="70.0" y1="126.0" y2="110.0" /><g><rect fill="#F3E8FF" height="80" stroke="none" width="80" x="154.0" y="59.0" /><line stroke="#1E40AF" stroke-width="1.5" x1="154.0" x2="234.0" y1="59.0" y2="59.0" /><line stroke="#1E40AF" stroke-width="1.5" x1="154.0" x2="234.0" y1="139.0" y2="139.0" /><line stroke="#1E40AF" stroke-width="1.5" x1="154.0" x2="154.0" y1="59.0" y2="139.0" /><line stroke="#1E40AF" stroke-width="1.5" x1="234.0" x2="234.0" y1="59.0" y2="139.0" /></g><text dy="0.35em" fill="#1F2937" font-family="Inter, Segoe UI, Helvetica, Arial, sans-serif" font-size="11px" text-anchor="middle" x="194.0" y="99.0">W<tspan baseline-shift="sub" font-size="8px">O</tspan></text><text dy="0.35em" font-family="Inter, Segoe UI, Helvetica, Arial, sans-serif" font-size="11px" font-style="italic" text-anchor="start" x="240.0" y="99.0"><tspan fill="#6B7280">(</tspan><tspan fill="#1E40AF">D</tspan><tspan fill="#6B7280">,</tspan><tspan fill="#6B7280"> </tspan><tspan fill="#1E40AF">D</tspan><tspan fill="#6B7280">)</tspan></text><line stroke="#93C5FD" stroke-dasharray="3,2" stroke-width="1.0" x1="156.0" x2="232.0" y1="79.0" y2="79.0" /><line stroke="#93C5FD" stroke-dasharray="3,2" stroke-width="1.0" x1="156.0" x2="232.0" y1="99.0" y2="99.0" /><line stroke="#93C5FD" stroke-dasharray="3,2" stroke-width="1.0" x1="156.0" x2="232.0" y1="119.0" y2="119.0" /><line marker-end="url(#arrowhead_333333)" stroke="#333333" stroke-width="1.5" x1="154.0" x2="94.0" y1="99.0" y2="99.0" /><rect fill="#F9FAFB" height="22" rx="6" ry="6" stroke="#333333" stroke-width="1.5" width="48" x="46.0" y="88.0" /><text dy="0.35em" fill="#1F2937" font-family="Inter, Segoe UI, Helvetica, Arial, sans-serif" font-size="9px" text-anchor="middle" x="70.0" y="99.0">MatMul</text><line marker-end="url(#arrowhead_333333)" stroke="#333333" stroke-width="1.5" x1="70.0" x2="70.0" y1="88.0" y2="72.0" /><g><rect fill="#F3F4F6" height="10" stroke="none" width="80" x="30.0" y="62.0" /><line stroke="#1E40AF" stroke-width="1.5" x1="30.0" x2="110.0" y1="62.0" y2="62.0" /><line stroke="#1E40AF" stroke-width="1.5" x1="30.0" x2="110.0" y1="72.0" y2="72.0" /><line stroke="#F9A8D4" stroke-width="1.5" x1="30.0" x2="30.0" y1="62.0" y2="72.0" /><line stroke="#F9A8D4" stroke-width="1.5" x1="110.0" x2="110.0" y1="62.0" y2="72.0" /><text dy="0.35em" fill="#1F2937" font-family="Inter, Segoe UI, Helvetica, Arial, sans-serif" font-size="8px" text-anchor="middle" x="70.0" y="67.0">Output</text></g><text dy="0.35em" font-family="Inter, Segoe UI, Helvetica, Arial, sans-serif" font-size="11px" font-style="italic" text-anchor="start" x="116.0" y="67.0"><tspan fill="#6B7280">(</tspan><tspan fill="#F9A8D4">1</tspan><tspan fill="#6B7280">,</tspan><tspan fill="#6B7280"> </tspan><tspan fill="#1E40AF">D</tspan><tspan fill="#6B7280">)</tspan></text><line stroke="#333333" stroke-width="1.5" x1="70.0" x2="70.0" y1="62.0" y2="38" /><line marker-end="url(#arrowhead_333333)" stroke="#333333" stroke-width="1.5" x1="70.0" x2="824.0" y1="38" y2="38" /><circle cx="832.0" cy="38" fill="white" r="8" stroke="#333333" stroke-width="1.5" /><text dy="0.3em" fill="#333333" font-family="Inter, Segoe UI, Helvetica, Arial, sans-serif" font-size="14px" text-anchor="middle" x="832.0" y="38">+</text></svg>