<?xml version="1.0" encoding="utf-8" ?>
<svg baseProfile="full" height="820px" version="1.1" viewBox="0 0 743 820" width="743px" xmlns="http://www.w3.org/2000/svg" xmlns:ev="http://www.w3.org/2001/xml-events" xmlns:xlink="http://www.w3.org/1999/xlink"><defs><marker id="arrowhead" markerHeight="4" markerWidth="4" orient="auto" refX="4" refY="2.0"><polygon fill="#374151" points="0,0 4,2.0 0,4" /></marker><marker id="arrowhead_333333" markerHeight="4" markerWidth="4" orient="auto" refX="4" refY="2.0"><polygon fill="#333333" points="0,0 4,2.0 0,4" /></marker></defs><line stroke="#333333" stroke-width="1.5" x1="715.0" x2="715.0" y1="0" y2="20" /><line stroke="#333333" stroke-width="1.5" x1="715.0" x2="715.0" y1="36" y2="820" /><line stroke="#333333" stroke-width="1.5" x1="310.0" x2="715.0" y1="800.0" y2="800.0" /><line marker-end="url(#arrowhead_333333)" stroke="#333333" stroke-width="1.5" x1="310.0" x2="310.0" y1="800.0" y2="784.0" /><g><rect fill="#F3F4F6" height="40" stroke="none" width="80" x="270.0" y="744.0" /><line stroke="#1E40AF" stroke-width="1.5" x1="270.0" x2="350.0" y1="744.0" y2="744.0" /><line stroke="#1E40AF" stroke-width="1.5" x1="270.0" x2="350.0" y1="784.0" y2="784.0" /><line stroke="#DC2626" stroke-width="1.5" x1="270.0" x2="270.0" y1="744.0" y2="784.0" /><line stroke="#DC2626" stroke-width="1.5" x1="350.0" x2="350.0" y1="744.0" y2="784.0" /><text dy="0.35em" fill="#1F2937" font-family="Inter, Segoe UI, Helvetica, Arial, sans-serif" font-size="11px" text-anchor="middle" x="310.0" y="764.0">X</text></g><text dy="0.35em" font-family="Inter, Segoe UI, Helvetica, Arial, sans-serif" font-size="11px" font-style="italic" text-anchor="start" x="356.0" y="764.0"><tspan fill="#6B7280">(</tspan><tspan fill="#6B7280">B</tspan><tspan fill="#6B7280">,</tspan><tspan fill="#6B7280"> </tspan><tspan fill="#DC2626">S</tspan><tspan fill="#6B7280">,</tspan><tspan fill="#6B7280"> </tspan><tspan fill="#1E40AF">D</tspan><tspan fill="#6B7280">)</tspan></text><line marker-end="url(#arrowhead_333333)" stroke="#333333" stroke-width="1.5" x1="310.0" x2="310.0" y1="744.0" y2="728.0" /><rect fill="#F9FAFB" height="22" rx="6" ry="6" stroke="#333333" stroke-width="1.5" width="74" x="273.0" y="706.0" /><text dy="0.35em" fill="#1F2937" font-family="Inter, Segoe UI, Helvetica, Arial, sans-serif" font-size="9px" text-anchor="middle" x="310.0" y="717.0">MatMul</text><g><rect fill="#F3E8FF" height="80" stroke="none" width="80" x="407.0" y="677.0" /><line stroke="#1E40AF" stroke-width="1.5" x1="407.0" x2="487.0" y1="677.0" y2="677.0" /><line stroke="#1E40AF" stroke-width="1.5" x1="407.0" x2="487.0" y1="757.0" y2="757.0" /><line stroke="#1E40AF" stroke-width="1.5" x1="407.0" x2="407.0" y1="677.0" y2="757.0" /><line stroke="#1E40AF" stroke-width="1.5" x1="487.0" x2="487.0" y1="677.0" y2="757.0" /></g><text dy="0.35em" fill="#1F2937" font-family="Inter, Segoe UI, Helvetica, Arial, sans-serif" font-size="11px" text-anchor="middle" x="447.0" y="717.0">W<tspan baseline-shift="sub" font-size="9px">Q</tspan></text><line stroke="#60A5FA" stroke-dasharray="3,2" stroke-width="1.0" x1="427.0" x2="427.0" y1="679.0" y2="755.0" /><line stroke="#60A5FA" stroke-dasharray="3,2" stroke-width="1.0" x1="447.0" x2="447.0" y1="679.0" y2="755.0" /><line stroke="#60A5FA" stroke-dasharray="3,2" stroke-width="1.0" x1="467.0" x2="467.0" y1="679.0" y2="755.0" /><g><rect fill="#F3E8FF" height="80" stroke="none" width="80" x="487.0" y="677.0" /><line stroke="#1E40AF" stroke-width="1.5" x1="487.0" x2="567.0" y1="677.0" y2="677.0" /><line stroke="#1E40AF" stroke-width="1.5" x1="487.0" x2="567.0" y1="757.0" y2="757.0" /><line stroke="#1E40AF" stroke-width="1.5" x1="487.0" x2="487.0" y1="677.0" y2="757.0" /><line stroke="#1E40AF" stroke-width="1.5" x1="567.0" x2="567.0" y1="677.0" y2="757.0" /></g><text dy="0.35em" fill="#1F2937" font-family="Inter, Segoe UI, Helvetica, Arial, sans-serif" font-size="11px" text-anchor="middle" x="527.0" y="717.0">W<tspan baseline-shift="sub" font-size="9px">K</tspan></text><line stroke="#60A5FA" stroke-dasharray="3,2" stroke-width="1.0" x1="507.0" x2="507.0" y1="679.0" y2="755.0" /><line stroke="#60A5FA" stroke-dasharray="3,2" stroke-width="1.0" x1="527.0" x2="527.0" y1="679.0" y2="755.0" /><line stroke="#60A5FA" stroke-dasharray="3,2" stroke-width="1.0" x1="547.0" x2="547.0" y1="679.0" y2="755.0" /><g><rect fill="#F3E8FF" height="80" stroke="none" width="80" x="567.0" y="677.0" /><line stroke="#1E40AF" stroke-width="1.5" x1="567.0" x2="647.0" y1="677.0" y2="677.0" /><line stroke="#1E40AF" stroke-width="1.5" x1="567.0" x2="647.0" y1="757.0" y2="757.0" /><line stroke="#1E40AF" stroke-width="1.5" x1="567.0" x2="567.0" y1="677.0" y2="757.0" /><line stroke="#1E40AF" stroke-width="1.5" x1="647.0" x2="647.0" y1="677.0" y2="757.0" /></g><text dy="0.35em" fill="#1F2937" font-family="Inter, Segoe UI, Helvetica, Arial, sans-serif" font-size="11px" text-anchor="middle" x="607.0" y="717.0">W<tspan baseline-shift="sub" font-size="9px">V</tspan></text><line stroke="#60A5FA" stroke-dasharray="3,2" stroke-width="1.0" x1="587.0" x2="587.0" y1="679.0" y2="755.0" /><line stroke="#60A5FA" stroke-dasharray="3,2" stroke-width="1.0" x1="607.0" x2="607.0" y1="679.0" y2="755.0" /><line stroke="#60A5FA" stroke-dasharray="3,2" stroke-width="1.0" x1="627.0" x2="627.0" y1="679.0" y2="755.0" /><text dy="0.35em" font-family="Inter, Segoe UI, Helvetica, Arial, sans-serif" font-size="11px" font-style="italic" text-anchor="start" x="653.0" y="717.0"><tspan fill="#6B7280">(</tspan><tspan fill="#1E40AF">D</tspan><tspan fill="#6B7280">,</tspan><tspan fill="#6B7280"> </tspan><tspan fill="#6B7280">3</tspan><tspan fill="#1E40AF">D</tspan><tspan fill="#6B7280">)</tspan></text><line marker-end="url(#arrowhead_333333)" stroke="#333333" stroke-width="1.5" x1="407.0" x2="347.0" y1="717.0" y2="717.0" /><line marker-end="url(#arrowhead_333333)" stroke="#333333" stroke-width="1.5" x1="310.0" x2="310.0" y1="706.0" y2="661.0" /><g><rect fill="#EFF6FF" height="40" stroke="none" width="80" x="190.0" y="621.0" /><line stroke="#1E40AF" stroke-width="1.5" x1="190.0" x2="270.0" y1="621.0" y2="621.0" /><line stroke="#1E40AF" stroke-width="1.5" x1="190.0" x2="270.0" y1="661.0" y2="661.0" /><line stroke="#DC2626" stroke-width="1.5" x1="190.0" x2="190.0" y1="621.0" y2="661.0" /><line stroke="#DC2626" stroke-width="1.5" x1="270.0" x2="270.0" y1="621.0" y2="661.0" /><text dy="0.35em" fill="#1F2937" font-family="Inter, Segoe UI, Helvetica, Arial, sans-serif" font-size="11px" text-anchor="middle" x="230.0" y="641.0">Q</text></g><g><rect fill="#FFF8E1" height="40" stroke="none" width="80" x="270.0" y="621.0" /><line stroke="#1E40AF" stroke-width="1.5" x1="270.0" x2="350.0" y1="621.0" y2="621.0" /><line stroke="#1E40AF" stroke-width="1.5" x1="270.0" x2="350.0" y1="661.0" y2="661.0" /><line stroke="#DC2626" stroke-width="1.5" x1="270.0" x2="270.0" y1="621.0" y2="661.0" /><line stroke="#DC2626" stroke-width="1.5" x1="350.0" x2="350.0" y1="621.0" y2="661.0" /><text dy="0.35em" fill="#1F2937" font-family="Inter, Segoe UI, Helvetica, Arial, sans-serif" font-size="11px" text-anchor="middle" x="310.0" y="641.0">K</text></g><g><rect fill="#FEE2E2" height="40" stroke="none" width="80" x="350.0" y="621.0" /><line stroke="#1E40AF" stroke-width="1.5" x1="350.0" x2="430.0" y1="621.0" y2="621.0" /><line stroke="#1E40AF" stroke-width="1.5" x1="350.0" x2="430.0" y1="661.0" y2="661.0" /><line stroke="#DC2626" stroke-width="1.5" x1="350.0" x2="350.0" y1="621.0" y2="661.0" /><line stroke="#DC2626" stroke-width="1.5" x1="430.0" x2="430.0" y1="621.0" y2="661.0" /><text dy="0.35em" fill="#1F2937" font-family="Inter, Segoe UI, Helvetica, Arial, sans-serif" font-size="11px" text-anchor="middle" x="390.0" y="641.0">V</text></g><line stroke="#60A5FA" stroke-dasharray="3,2" stroke-width="1.0" x1="210.0" x2="210.0" y1="623.0" y2="659.0" /><line stroke="#60A5FA" stroke-dasharray="3,2" stroke-width="1.0" x1="230.0" x2="230.0" y1="623.0" y2="659.0" /><line stroke="#60A5FA" stroke-dasharray="3,2" stroke-width="1.0" x1="250.0" x2="250.0" y1="623.0" y2="659.0" /><line stroke="#60A5FA" stroke-dasharray="3,2" stroke-width="1.0" x1="290.0" x2="290.0" y1="623.0" y2="659.0" /><line stroke="#60A5FA" stroke-dasharray="3,2" stroke-width="1.0" x1="310.0" x2="310.0" y1="623.0" y2="659.0" /><line stroke="#60A5FA" stroke-dasharray="3,2" stroke-width="1.0" x1="330.0" x2="330.0" y1="623.0" y2="659.0" /><line stroke="#60A5FA" stroke-dasharray="3,2" stroke-width="1.0" x1="370.0" x2="370.0" y1="623.0" y2="659.0" /><line stroke="#60A5FA" stroke-dasharray="3,2" stroke-width="1.0" x1="390.0" x2="390.0" y1="623.0" y2="659.0" /><line stroke="#60A5FA" stroke-dasharray="3,2" stroke-width="1.0" x1="410.0" x2="410.0" y1="623.0" y2="659.0" /><text dy="0.35em" font-family="Inter, Segoe UI, Helvetica, Arial, sans-serif" font-size="11px" font-style="italic" text-anchor="start" x="436.0" y="641.0"><tspan fill="#6B7280">(</tspan><tspan fill="#6B7280">B</tspan><tspan fill="#6B7280">,</tspan><tspan fill="#6B7280"> </tspan><tspan fill="#DC2626">S</tspan><tspan fill="#6B7280">,</tspan><tspan fill="#6B7280"> </tspan><tspan fill="#6B7280">3</tspan><tspan fill="#1E40AF">D</tspan><tspan fill="#6B7280">)</tspan></text><polyline fill="none" marker-end="url(#arrowhead)" points="230.0,621.0 230.0,600.0 60.0,600.0 60.0,584.0" stroke="#374151" stroke-dasharray="2,1" stroke-width="1.5" /><line marker-end="url(#arrowhead_333333)" stroke="#333333" stroke-dasharray="2,1" stroke-width="1.5" x1="310.0" x2="310.0" y1="621.0" y2="584.0" /><polyline fill="none" marker-end="url(#arrowhead)" points="390.0,621.0 390.0,600.0 560.0,600.0 560.0,584.0" stroke="#374151" stroke-dasharray="2,1" stroke-width="1.5" /><g><rect fill="#EFF6FF" height="40" stroke="none" width="20" x="65.0" y="529.0" /><line stroke="#93C5FD" stroke-width="1.5" x1="65.0" x2="85.0" y1="529.0" y2="529.0" /><line stroke="#93C5FD" stroke-width="1.5" x1="65.0" x2="85.0" y1="569.0" y2="569.0" /><line stroke="#DC2626" stroke-width="1.5" x1="65.0" x2="65.0" y1="529.0" y2="569.0" /><line stroke="#DC2626" stroke-width="1.5" x1="85.0" x2="85.0" y1="529.0" y2="569.0" /></g><g><rect fill="#EFF6FF" height="40" stroke="none" width="20" x="60.0" y="534.0" /><line stroke="#93C5FD" stroke-width="1.5" x1="60.0" x2="80.0" y1="534.0" y2="534.0" /><line stroke="#93C5FD" stroke-width="1.5" x1="60.0" x2="80.0" y1="574.0" y2="574.0" /><line stroke="#DC2626" stroke-width="1.5" x1="60.0" x2="60.0" y1="534.0" y2="574.0" /><line stroke="#DC2626" stroke-width="1.5" x1="80.0" x2="80.0" y1="534.0" y2="574.0" /></g><g><rect fill="#EFF6FF" height="40" stroke="none" width="20" x="55.0" y="539.0" /><line stroke="#93C5FD" stroke-width="1.5" x1="55.0" x2="75.0" y1="539.0" y2="539.0" /><line stroke="#93C5FD" stroke-width="1.5" x1="55.0" x2="75.0" y1="579.0" y2="579.0" /><line stroke="#DC2626" stroke-width="1.5" x1="55.0" x2="55.0" y1="539.0" y2="579.0" /><line stroke="#DC2626" stroke-width="1.5" x1="75.0" x2="75.0" y1="539.0" y2="579.0" /></g><g><rect fill="#EFF6FF" height="40" stroke="none" width="20" x="50.0" y="544.0" /><line stroke="#93C5FD" stroke-width="1.5" x1="50.0" x2="70.0" y1="544.0" y2="544.0" /><line stroke="#93C5FD" stroke-width="1.5" x1="50.0" x2="70.0" y1="584.0" y2="584.0" /><line stroke="#DC2626" stroke-width="1.5" x1="50.0" x2="50.0" y1="544.0" y2="584.0" /><line stroke="#DC2626" stroke-width="1.5" x1="70.0" x2="70.0" y1="544.0" y2="584.0" /><text dy="0.35em" fill="#1F2937" font-family="Inter, Segoe UI, Helvetica, Arial, sans-serif" font-size="11px" text-anchor="middle" x="60.0" y="564.0">Q</text></g><line stroke="#A855F7" stroke-width="1.5" x1="50.0" x2="65.0" y1="544.0" y2="529.0" /><line stroke="#A855F7" stroke-width="1.5" x1="70.0" x2="85.0" y1="544.0" y2="529.0" /><line stroke="#A855F7" stroke-width="1.5" x1="70.0" x2="85.0" y1="584.0" y2="569.0" /><text dy="0.35em" font-family="Inter, Segoe UI, Helvetica, Arial, sans-serif" font-size="11px" font-style="italic" text-anchor="start" x="91.0" y="564.0"><tspan fill="#6B7280">(</tspan><tspan fill="#6B7280">B</tspan><tspan fill="#6B7280">,</tspan><tspan fill="#6B7280"> </tspan><tspan fill="#A855F7">H</tspan><tspan fill="#6B7280">,</tspan><tspan fill="#6B7280"> </tspan><tspan fill="#DC2626">S</tspan><tspan fill="#6B7280">,</tspan><tspan fill="#6B7280"> </tspan><tspan fill="#60A5FA">d</tspan><tspan baseline-shift="sub" fill="#60A5FA" font-size="8px">K</tspan><tspan fill="#6B7280">)</tspan></text><g><rect fill="#FFF8E1" height="40" stroke="none" width="20" x="315.0" y="529.0" /><line stroke="#93C5FD" stroke-width="1.5" x1="315.0" x2="335.0" y1="529.0" y2="529.0" /><line stroke="#93C5FD" stroke-width="1.5" x1="315.0" x2="335.0" y1="569.0" y2="569.0" /><line stroke="#DC2626" stroke-width="1.5" x1="315.0" x2="315.0" y1="529.0" y2="569.0" /><line stroke="#DC2626" stroke-width="1.5" x1="335.0" x2="335.0" y1="529.0" y2="569.0" /></g><g><rect fill="#FFF8E1" height="40" stroke="none" width="20" x="310.0" y="534.0" /><line stroke="#93C5FD" stroke-width="1.5" x1="310.0" x2="330.0" y1="534.0" y2="534.0" /><line stroke="#93C5FD" stroke-width="1.5" x1="310.0" x2="330.0" y1="574.0" y2="574.0" /><line stroke="#DC2626" stroke-width="1.5" x1="310.0" x2="310.0" y1="534.0" y2="574.0" /><line stroke="#DC2626" stroke-width="1.5" x1="330.0" x2="330.0" y1="534.0" y2="574.0" /></g><g><rect fill="#FFF8E1" height="40" stroke="none" width="20" x="305.0" y="539.0" /><line stroke="#93C5FD" stroke-width="1.5" x1="305.0" x2="325.0" y1="539.0" y2="539.0" /><line stroke="#93C5FD" stroke-width="1.5" x1="305.0" x2="325.0" y1="579.0" y2="579.0" /><line stroke="#DC2626" stroke-width="1.5" x1="305.0" x2="305.0" y1="539.0" y2="579.0" /><line stroke="#DC2626" stroke-width="1.5" x1="325.0" x2="325.0" y1="539.0" y2="579.0" /></g><g><rect fill="#FFF8E1" height="40" stroke="none" width="20" x="300.0" y="544.0" /><line stroke="#93C5FD" stroke-width="1.5" x1="300.0" x2="320.0" y1="544.0" y2="544.0" /><line stroke="#93C5FD" stroke-width="1.5" x1="300.0" x2="320.0" y1="584.0" y2="584.0" /><line stroke="#DC2626" stroke-width="1.5" x1="300.0" x2="300.0" y1="544.0" y2="584.0" /><line stroke="#DC2626" stroke-width="1.5" x1="320.0" x2="320.0" y1="544.0" y2="584.0" /><text dy="0.35em" fill="#1F2937" font-family="Inter, Segoe UI, Helvetica, Arial, sans-serif" font-size="11px" text-anchor="middle" x="310.0" y="564.0">K</text></g><line stroke="#A855F7" stroke-width="1.5" x1="300.0" x2="315.0" y1="544.0" y2="529.0" /><line stroke="#A855F7" stroke-width="1.5" x1="320.0" x2="335.0" y1="544.0" y2="529.0" /><line stroke="#A855F7" stroke-width="1.5" x1="320.0" x2="335.0" y1="584.0" y2="569.0" /><text dy="0.35em" font-family="Inter, Segoe UI, Helvetica, Arial, sans-serif" font-size="11px" font-style="italic" text-anchor="start" x="341.0" y="564.0"><tspan fill="#6B7280">(</tspan><tspan fill="#6B7280">B</tspan><tspan fill="#6B7280">,</tspan><tspan fill="#6B7280"> </tspan><tspan fill="#A855F7">H</tspan><tspan fill="#6B7280">,</tspan><tspan fill="#6B7280"> </tspan><tspan fill="#DC2626">S</tspan><tspan fill="#6B7280">,</tspan><tspan fill="#6B7280"> </tspan><tspan fill="#60A5FA">d</tspan><tspan baseline-shift="sub" fill="#60A5FA" font-size="8px">K</tspan><tspan fill="#6B7280">)</tspan></text><g><rect fill="#FEE2E2" height="40" stroke="none" width="20" x="565.0" y="529.0" /><line stroke="#93C5FD" stroke-width="1.5" x1="565.0" x2="585.0" y1="529.0" y2="529.0" /><line stroke="#93C5FD" stroke-width="1.5" x1="565.0" x2="585.0" y1="569.0" y2="569.0" /><line stroke="#DC2626" stroke-width="1.5" x1="565.0" x2="565.0" y1="529.0" y2="569.0" /><line stroke="#DC2626" stroke-width="1.5" x1="585.0" x2="585.0" y1="529.0" y2="569.0" /></g><g><rect fill="#FEE2E2" height="40" stroke="none" width="20" x="560.0" y="534.0" /><line stroke="#93C5FD" stroke-width="1.5" x1="560.0" x2="580.0" y1="534.0" y2="534.0" /><line stroke="#93C5FD" stroke-width="1.5" x1="560.0" x2="580.0" y1="574.0" y2="574.0" /><line stroke="#DC2626" stroke-width="1.5" x1="560.0" x2="560.0" y1="534.0" y2="574.0" /><line stroke="#DC2626" stroke-width="1.5" x1="580.0" x2="580.0" y1="534.0" y2="574.0" /></g><g><rect fill="#FEE2E2" height="40" stroke="none" width="20" x="555.0" y="539.0" /><line stroke="#93C5FD" stroke-width="1.5" x1="555.0" x2="575.0" y1="539.0" y2="539.0" /><line stroke="#93C5FD" stroke-width="1.5" x1="555.0" x2="575.0" y1="579.0" y2="579.0" /><line stroke="#DC2626" stroke-width="1.5" x1="555.0" x2="555.0" y1="539.0" y2="579.0" /><line stroke="#DC2626" stroke-width="1.5" x1="575.0" x2="575.0" y1="539.0" y2="579.0" /></g><g><rect fill="#FEE2E2" height="40" stroke="none" width="20" x="550.0" y="544.0" /><line stroke="#93C5FD" stroke-width="1.5" x1="550.0" x2="570.0" y1="544.0" y2="544.0" /><line stroke="#93C5FD" stroke-width="1.5" x1="550.0" x2="570.0" y1="584.0" y2="584.0" /><line stroke="#DC2626" stroke-width="1.5" x1="550.0" x2="550.0" y1="544.0" y2="584.0" /><line stroke="#DC2626" stroke-width="1.5" x1="570.0" x2="570.0" y1="544.0" y2="584.0" /><text dy="0.35em" fill="#1F2937" font-family="Inter, Segoe UI, Helvetica, Arial, sans-serif" font-size="11px" text-anchor="middle" x="560.0" y="564.0">V</text></g><line stroke="#A855F7" stroke-width="1.5" x1="550.0" x2="565.0" y1="544.0" y2="529.0" /><line stroke="#A855F7" stroke-width="1.5" x1="570.0" x2="585.0" y1="544.0" y2="529.0" /><line stroke="#A855F7" stroke-width="1.5" x1="570.0" x2="585.0" y1="584.0" y2="569.0" /><text dy="0.35em" font-family="Inter, Segoe UI, Helvetica, Arial, sans-serif" font-size="11px" font-style="italic" text-anchor="start" x="591.0" y="564.0"><tspan fill="#6B7280">(</tspan><tspan fill="#6B7280">B</tspan><tspan fill="#6B7280">,</tspan><tspan fill="#6B7280"> </tspan><tspan fill="#A855F7">H</tspan><tspan fill="#6B7280">,</tspan><tspan fill="#6B7280"> </tspan><tspan fill="#DC2626">S</tspan><tspan fill="#6B7280">,</tspan><tspan fill="#6B7280"> </tspan><tspan fill="#60A5FA">d</tspan><tspan baseline-shift="sub" fill="#60A5FA" font-size="8px">K</tspan><tspan fill="#6B7280">)</tspan></text><line marker-end="url(#arrowhead_333333)" stroke="#333333" stroke-width="1.5" x1="60.0" x2="60.0" y1="544.0" y2="513.0" /><line marker-end="url(#arrowhead_333333)" stroke="#333333" stroke-dasharray="2,1" stroke-width="1.5" x1="310.0" x2="310.0" y1="544.0" y2="510.0" /><circle cx="310.0" cy="502.0" fill="white" r="8" stroke="#333333" stroke-dasharray="2,1" stroke-width="1.5" /><text dy="0.35em" fill="#333333" font-family="Inter, Segoe UI, Helvetica, Arial, sans-serif" font-size="11px" text-anchor="middle" x="310.0" y="502.0">T</text><g><rect fill="#FFF8E1" height="20" stroke="none" width="40" x="194.0" y="477.0" /><line stroke="#DC2626" stroke-width="1.5" x1="194.0" x2="234.0" y1="477.0" y2="477.0" /><line stroke="#DC2626" stroke-width="1.5" x1="194.0" x2="234.0" y1="497.0" y2="497.0" /><line stroke="#93C5FD" stroke-width="1.5" x1="194.0" x2="194.0" y1="477.0" y2="497.0" /><line stroke="#93C5FD" stroke-width="1.5" x1="234.0" x2="234.0" y1="477.0" y2="497.0" /></g><g><rect fill="#FFF8E1" height="20" stroke="none" width="40" x="189.0" y="482.0" /><line stroke="#DC2626" stroke-width="1.5" x1="189.0" x2="229.0" y1="482.0" y2="482.0" /><line stroke="#DC2626" stroke-width="1.5" x1="189.0" x2="229.0" y1="502.0" y2="502.0" /><line stroke="#93C5FD" stroke-width="1.5" x1="189.0" x2="189.0" y1="482.0" y2="502.0" /><line stroke="#93C5FD" stroke-width="1.5" x1="229.0" x2="229.0" y1="482.0" y2="502.0" /></g><g><rect fill="#FFF8E1" height="20" stroke="none" width="40" x="184.0" y="487.0" /><line stroke="#DC2626" stroke-width="1.5" x1="184.0" x2="224.0" y1="487.0" y2="487.0" /><line stroke="#DC2626" stroke-width="1.5" x1="184.0" x2="224.0" y1="507.0" y2="507.0" /><line stroke="#93C5FD" stroke-width="1.5" x1="184.0" x2="184.0" y1="487.0" y2="507.0" /><line stroke="#93C5FD" stroke-width="1.5" x1="224.0" x2="224.0" y1="487.0" y2="507.0" /></g><g><rect fill="#FFF8E1" height="20" stroke="none" width="40" x="179.0" y="492.0" /><line stroke="#DC2626" stroke-width="1.5" x1="179.0" x2="219.0" y1="492.0" y2="492.0" /><line stroke="#DC2626" stroke-width="1.5" x1="179.0" x2="219.0" y1="512.0" y2="512.0" /><line stroke="#93C5FD" stroke-width="1.5" x1="179.0" x2="179.0" y1="492.0" y2="512.0" /><line stroke="#93C5FD" stroke-width="1.5" x1="219.0" x2="219.0" y1="492.0" y2="512.0" /></g><line stroke="#A855F7" stroke-width="1.5" x1="179.0" x2="194.0" y1="492.0" y2="477.0" /><line stroke="#A855F7" stroke-width="1.5" x1="219.0" x2="234.0" y1="492.0" y2="477.0" /><line stroke="#A855F7" stroke-width="1.5" x1="219.0" x2="234.0" y1="512.0" y2="497.0" /><text dy="0.35em" fill="#1F2937" font-family="Inter, Segoe UI, Helvetica, Arial, sans-serif" font-size="11px" text-anchor="middle" x="199.0" y="502.0">K<tspan baseline-shift="super" font-size="8px">T</tspan></text><text dy="0.35em" font-family="Inter, Segoe UI, Helvetica, Arial, sans-serif" font-size="11px" font-style="italic" text-anchor="middle" x="199.0" y="524.0"><tspan fill="#6B7280">(</tspan><tspan fill="#6B7280">B</tspan><tspan fill="#6B7280">,</tspan><tspan fill="#6B7280"> </tspan><tspan fill="#A855F7">H</tspan><tspan fill="#6B7280">,</tspan><tspan fill="#6B7280"> </tspan><tspan fill="#60A5FA">d</tspan><tspan baseline-shift="sub" fill="#60A5FA" font-size="8px">K</tspan><tspan fill="#6B7280">,</tspan><tspan fill="#6B7280"> </tspan><tspan fill="#DC2626">S</tspan><tspan fill="#6B7280">)</tspan></text><line marker-end="url(#arrowhead_333333)" stroke="#333333" stroke-dasharray="2,1" stroke-width="1.5" x1="302.0" x2="219.0" y1="502.0" y2="502.0" /><line marker-end="url(#arrowhead_333333)" stroke="#333333" stroke-width="1.5" x1="179.0" x2="97.0" y1="502.0" y2="502.0" /><rect fill="#F9FAFB" height="22" rx="6" ry="6" stroke="#333333" stroke-width="1.5" width="74" x="23.0" y="491.0" /><text dy="0.35em" fill="#1F2937" font-family="Inter, Segoe UI, Helvetica, Arial, sans-serif" font-size="9px" text-anchor="middle" x="60.0" y="502.0">MatMul + Scale</text><line marker-end="url(#arrowhead_333333)" stroke="#333333" stroke-width="1.5" x1="60.0" x2="60.0" y1="491.0" y2="475.0" /><g><rect fill="#D1FAE5" height="40" stroke="none" width="40" x="55.0" y="420.0" /><line stroke="#DC2626" stroke-width="1.5" x1="55.0" x2="95.0" y1="420.0" y2="420.0" /><line stroke="#DC2626" stroke-width="1.5" x1="55.0" x2="95.0" y1="460.0" y2="460.0" /><line stroke="#DC2626" stroke-width="1.5" x1="55.0" x2="55.0" y1="420.0" y2="460.0" /><line stroke="#DC2626" stroke-width="1.5" x1="95.0" x2="95.0" y1="420.0" y2="460.0" /></g><g><rect fill="#D1FAE5" height="40" stroke="none" width="40" x="50.0" y="425.0" /><line stroke="#DC2626" stroke-width="1.5" x1="50.0" x2="90.0" y1="425.0" y2="425.0" /><line stroke="#DC2626" stroke-width="1.5" x1="50.0" x2="90.0" y1="465.0" y2="465.0" /><line stroke="#DC2626" stroke-width="1.5" x1="50.0" x2="50.0" y1="425.0" y2="465.0" /><line stroke="#DC2626" stroke-width="1.5" x1="90.0" x2="90.0" y1="425.0" y2="465.0" /></g><g><rect fill="#D1FAE5" height="40" stroke="none" width="40" x="45.0" y="430.0" /><line stroke="#DC2626" stroke-width="1.5" x1="45.0" x2="85.0" y1="430.0" y2="430.0" /><line stroke="#DC2626" stroke-width="1.5" x1="45.0" x2="85.0" y1="470.0" y2="470.0" /><line stroke="#DC2626" stroke-width="1.5" x1="45.0" x2="45.0" y1="430.0" y2="470.0" /><line stroke="#DC2626" stroke-width="1.5" x1="85.0" x2="85.0" y1="430.0" y2="470.0" /></g><g><rect fill="#D1FAE5" height="40" stroke="none" width="40" x="40.0" y="435.0" /><line stroke="#DC2626" stroke-width="1.5" x1="40.0" x2="80.0" y1="435.0" y2="435.0" /><line stroke="#DC2626" stroke-width="1.5" x1="40.0" x2="80.0" y1="475.0" y2="475.0" /><line stroke="#DC2626" stroke-width="1.5" x1="40.0" x2="40.0" y1="435.0" y2="475.0" /><line stroke="#DC2626" stroke-width="1.5" x1="80.0" x2="80.0" y1="435.0" y2="475.0" /><text dy="0.35em" fill="#1F2937" font-family="Inter, Segoe UI, Helvetica, Arial, sans-serif" font-size="11px" text-anchor="middle" x="60.0" y="455.0">Scores</text></g><line stroke="#A855F7" stroke-width="1.5" x1="40.0" x2="55.0" y1="435.0" y2="420.0" /><line stroke="#A855F7" stroke-width="1.5" x1="80.0" x2="95.0" y1="435.0" y2="420.0" /><line stroke="#A855F7" stroke-width="1.5" x1="80.0" x2="95.0" y1="475.0" y2="460.0" /><text dy="0.35em" font-family="Inter, Segoe UI, Helvetica, Arial, sans-serif" font-size="11px" font-style="italic" text-anchor="start" x="101.0" y="455.0"><tspan fill="#6B7280">(</tspan><tspan fill="#6B7280">B</tspan><tspan fill="#6B7280">,</tspan><tspan fill="#6B7280"> </tspan><tspan fill="#A855F7">H</tspan><tspan fill="#6B7280">,</tspan><tspan fill="#6B7280"> </tspan><tspan fill="#DC2626">S</tspan><tspan fill="#6B7280">,</tspan><tspan fill="#6B7280"> </tspan><tspan fill="#DC2626">S</tspan><tspan fill="#6B7280">)</tspan></text><line marker-end="url(#arrowhead_333333)" stroke="#333333" stroke-width="1.5" x1="60.0" x2="60.0" y1="435.0" y2="404.0" /><rect fill="#F9FAFB" height="22" rx="6" ry="6" stroke="#333333" stroke-width="1.5" width="74" x="23.0" y="382.0" /><text dy="0.35em" fill="#1F2937" font-family="Inter, Segoe UI, Helvetica, Arial, sans-serif" font-size="9px" text-anchor="middle" x="60.0" y="393.0">Mask + Softmax</text><g><rect fill="#EAECEF" height="40" stroke="none" width="40" x="172.0" y="358.0" /><line stroke="#DC2626" stroke-width="1.5" x1="172.0" x2="212.0" y1="358.0" y2="358.0" /><line stroke="#DC2626" stroke-width="1.5" x1="172.0" x2="212.0" y1="398.0" y2="398.0" /><line stroke="#DC2626" stroke-width="1.5" x1="172.0" x2="172.0" y1="358.0" y2="398.0" /><line stroke="#DC2626" stroke-width="1.5" x1="212.0" x2="212.0" y1="358.0" y2="398.0" /></g><g><rect fill="#EAECEF" height="40" stroke="none" width="40" x="167.0" y="363.0" /><line stroke="#DC2626" stroke-width="1.5" x1="167.0" x2="207.0" y1="363.0" y2="363.0" /><line stroke="#DC2626" stroke-width="1.5" x1="167.0" x2="207.0" y1="403.0" y2="403.0" /><line stroke="#DC2626" stroke-width="1.5" x1="167.0" x2="167.0" y1="363.0" y2="403.0" /><line stroke="#DC2626" stroke-width="1.5" x1="207.0" x2="207.0" y1="363.0" y2="403.0" /></g><g><rect fill="#EAECEF" height="40" stroke="none" width="40" x="162.0" y="368.0" /><line stroke="#DC2626" stroke-width="1.5" x1="162.0" x2="202.0" y1="368.0" y2="368.0" /><line stroke="#DC2626" stroke-width="1.5" x1="162.0" x2="202.0" y1="408.0" y2="408.0" /><line stroke="#DC2626" stroke-width="1.5" x1="162.0" x2="162.0" y1="368.0" y2="408.0" /><line stroke="#DC2626" stroke-width="1.5" x1="202.0" x2="202.0" y1="368.0" y2="408.0" /></g><g><rect fill="#EAECEF" height="40" stroke="none" width="40" x="157.0" y="373.0" /><line stroke="#DC2626" stroke-width="1.5" x1="157.0" x2="197.0" y1="373.0" y2="373.0" /><line stroke="#DC2626" stroke-width="1.5" x1="157.0" x2="197.0" y1="413.0" y2="413.0" /><line stroke="#DC2626" stroke-width="1.5" x1="157.0" x2="157.0" y1="373.0" y2="413.0" /><line stroke="#DC2626" stroke-width="1.5" x1="197.0" x2="197.0" y1="373.0" y2="413.0" /><text dy="0.35em" fill="#1F2937" font-family="Inter, Segoe UI, Helvetica, Arial, sans-serif" font-size="11px" text-anchor="middle" x="177.0" y="393.0">Mask</text></g><line stroke="#A855F7" stroke-width="1.5" x1="157.0" x2="172.0" y1="373.0" y2="358.0" /><line stroke="#A855F7" stroke-width="1.5" x1="197.0" x2="212.0" y1="373.0" y2="358.0" /><line stroke="#A855F7" stroke-width="1.5" x1="197.0" x2="212.0" y1="413.0" y2="398.0" /><text dy="0.35em" font-family="Inter, Segoe UI, Helvetica, Arial, sans-serif" font-size="11px" font-style="italic" text-anchor="start" x="218.0" y="393.0"><tspan fill="#6B7280">(</tspan><tspan fill="#6B7280">B</tspan><tspan fill="#6B7280">,</tspan><tspan fill="#6B7280"> </tspan><tspan fill="#A855F7">H</tspan><tspan fill="#6B7280">,</tspan><tspan fill="#6B7280"> </tspan><tspan fill="#DC2626">S</tspan><tspan fill="#6B7280">,</tspan><tspan fill="#6B7280"> </tspan><tspan fill="#DC2626">S</tspan><tspan fill="#6B7280">)</tspan></text><line marker-end="url(#arrowhead_333333)" stroke="#333333" stroke-width="1.5" x1="157.0" x2="97.0" y1="393.0" y2="393.0" /><line marker-end="url(#arrowhead_333333)" stroke="#333333" stroke-width="1.5" x1="60.0" x2="60.0" y1="382.0" y2="366.0" /><g><rect fill="#D1FAE5" height="40" stroke="none" width="40" x="55.0" y="311.0" /><line stroke="#DC2626" stroke-width="1.5" x1="55.0" x2="95.0" y1="311.0" y2="311.0" /><line stroke="#DC2626" stroke-width="1.5" x1="55.0" x2="95.0" y1="351.0" y2="351.0" /><line stroke="#DC2626" stroke-width="1.5" x1="55.0" x2="55.0" y1="311.0" y2="351.0" /><line stroke="#DC2626" stroke-width="1.5" x1="95.0" x2="95.0" y1="311.0" y2="351.0" /></g><g><rect fill="#D1FAE5" height="40" stroke="none" width="40" x="50.0" y="316.0" /><line stroke="#DC2626" stroke-width="1.5" x1="50.0" x2="90.0" y1="316.0" y2="316.0" /><line stroke="#DC2626" stroke-width="1.5" x1="50.0" x2="90.0" y1="356.0" y2="356.0" /><line stroke="#DC2626" stroke-width="1.5" x1="50.0" x2="50.0" y1="316.0" y2="356.0" /><line stroke="#DC2626" stroke-width="1.5" x1="90.0" x2="90.0" y1="316.0" y2="356.0" /></g><g><rect fill="#D1FAE5" height="40" stroke="none" width="40" x="45.0" y="321.0" /><line stroke="#DC2626" stroke-width="1.5" x1="45.0" x2="85.0" y1="321.0" y2="321.0" /><line stroke="#DC2626" stroke-width="1.5" x1="45.0" x2="85.0" y1="361.0" y2="361.0" /><line stroke="#DC2626" stroke-width="1.5" x1="45.0" x2="45.0" y1="321.0" y2="361.0" /><line stroke="#DC2626" stroke-width="1.5" x1="85.0" x2="85.0" y1="321.0" y2="361.0" /></g><g><rect fill="#D1FAE5" height="40" stroke="none" width="40" x="40.0" y="326.0" /><line stroke="#DC2626" stroke-width="1.5" x1="40.0" x2="80.0" y1="326.0" y2="326.0" /><line stroke="#DC2626" stroke-width="1.5" x1="40.0" x2="80.0" y1="366.0" y2="366.0" /><line stroke="#DC2626" stroke-width="1.5" x1="40.0" x2="40.0" y1="326.0" y2="366.0" /><line stroke="#DC2626" stroke-width="1.5" x1="80.0" x2="80.0" y1="326.0" y2="366.0" /><text dy="0.35em" fill="#1F2937" font-family="Inter, Segoe UI, Helvetica, Arial, sans-serif" font-size="11px" text-anchor="middle" x="60.0" y="346.0">Attn</text></g><line stroke="#A855F7" stroke-width="1.5" x1="40.0" x2="55.0" y1="326.0" y2="311.0" /><line stroke="#A855F7" stroke-width="1.5" x1="80.0" x2="95.0" y1="326.0" y2="311.0" /><line stroke="#A855F7" stroke-width="1.5" x1="80.0" x2="95.0" y1="366.0" y2="351.0" /><text dy="0.35em" font-family="Inter, Segoe UI, Helvetica, Arial, sans-serif" font-size="11px" font-style="italic" text-anchor="start" x="101.0" y="346.0"><tspan fill="#6B7280">(</tspan><tspan fill="#6B7280">B</tspan><tspan fill="#6B7280">,</tspan><tspan fill="#6B7280"> </tspan><tspan fill="#A855F7">H</tspan><tspan fill="#6B7280">,</tspan><tspan fill="#6B7280"> </tspan><tspan fill="#DC2626">S</tspan><tspan fill="#6B7280">,</tspan><tspan fill="#6B7280"> </tspan><tspan fill="#DC2626">S</tspan><tspan fill="#6B7280">)</tspan></text><line marker-end="url(#arrowhead_333333)" stroke="#333333" stroke-width="1.5" x1="60.0" x2="60.0" y1="326.0" y2="295.0" /><line stroke="#333333" stroke-width="1.5" x1="560.0" x2="560.0" y1="544.0" y2="284.0" /><line marker-end="url(#arrowhead_333333)" stroke="#333333" stroke-width="1.5" x1="560.0" x2="97.0" y1="284.0" y2="284.0" /><rect fill="#F9FAFB" height="22" rx="6" ry="6" stroke="#333333" stroke-width="1.5" width="74" x="23.0" y="273.0" /><text dy="0.35em" fill="#1F2937" font-family="Inter, Segoe UI, Helvetica, Arial, sans-serif" font-size="9px" text-anchor="middle" x="60.0" y="284.0">MatMul</text><line marker-end="url(#arrowhead_333333)" stroke="#333333" stroke-width="1.5" x1="60.0" x2="60.0" y1="273.0" y2="257.0" /><g><rect fill="#E8DCCF" height="40" stroke="none" width="20" x="65.0" y="202.0" /><line stroke="#93C5FD" stroke-width="1.5" x1="65.0" x2="85.0" y1="202.0" y2="202.0" /><line stroke="#93C5FD" stroke-width="1.5" x1="65.0" x2="85.0" y1="242.0" y2="242.0" /><line stroke="#DC2626" stroke-width="1.5" x1="65.0" x2="65.0" y1="202.0" y2="242.0" /><line stroke="#DC2626" stroke-width="1.5" x1="85.0" x2="85.0" y1="202.0" y2="242.0" /></g><g><rect fill="#E8DCCF" height="40" stroke="none" width="20" x="60.0" y="207.0" /><line stroke="#93C5FD" stroke-width="1.5" x1="60.0" x2="80.0" y1="207.0" y2="207.0" /><line stroke="#93C5FD" stroke-width="1.5" x1="60.0" x2="80.0" y1="247.0" y2="247.0" /><line stroke="#DC2626" stroke-width="1.5" x1="60.0" x2="60.0" y1="207.0" y2="247.0" /><line stroke="#DC2626" stroke-width="1.5" x1="80.0" x2="80.0" y1="207.0" y2="247.0" /></g><g><rect fill="#E8DCCF" height="40" stroke="none" width="20" x="55.0" y="212.0" /><line stroke="#93C5FD" stroke-width="1.5" x1="55.0" x2="75.0" y1="212.0" y2="212.0" /><line stroke="#93C5FD" stroke-width="1.5" x1="55.0" x2="75.0" y1="252.0" y2="252.0" /><line stroke="#DC2626" stroke-width="1.5" x1="55.0" x2="55.0" y1="212.0" y2="252.0" /><line stroke="#DC2626" stroke-width="1.5" x1="75.0" x2="75.0" y1="212.0" y2="252.0" /></g><g><rect fill="#E8DCCF" height="40" stroke="none" width="20" x="50.0" y="217.0" /><line stroke="#93C5FD" stroke-width="1.5" x1="50.0" x2="70.0" y1="217.0" y2="217.0" /><line stroke="#93C5FD" stroke-width="1.5" x1="50.0" x2="70.0" y1="257.0" y2="257.0" /><line stroke="#DC2626" stroke-width="1.5" x1="50.0" x2="50.0" y1="217.0" y2="257.0" /><line stroke="#DC2626" stroke-width="1.5" x1="70.0" x2="70.0" y1="217.0" y2="257.0" /><text dy="0.35em" fill="#1F2937" font-family="Inter, Segoe UI, Helvetica, Arial, sans-serif" font-size="11px" text-anchor="middle" x="60.0" y="237.0">WV</text></g><line stroke="#A855F7" stroke-width="1.5" x1="50.0" x2="65.0" y1="217.0" y2="202.0" /><line stroke="#A855F7" stroke-width="1.5" x1="70.0" x2="85.0" y1="217.0" y2="202.0" /><line stroke="#A855F7" stroke-width="1.5" x1="70.0" x2="85.0" y1="257.0" y2="242.0" /><text dy="0.35em" font-family="Inter, Segoe UI, Helvetica, Arial, sans-serif" font-size="11px" font-style="italic" text-anchor="start" x="91.0" y="237.0"><tspan fill="#6B7280">(</tspan><tspan fill="#6B7280">B</tspan><tspan fill="#6B7280">,</tspan><tspan fill="#6B7280"> </tspan><tspan fill="#A855F7">H</tspan><tspan fill="#6B7280">,</tspan><tspan fill="#6B7280"> </tspan><tspan fill="#DC2626">S</tspan><tspan fill="#6B7280">,</tspan><tspan fill="#6B7280"> </tspan><tspan fill="#60A5FA">d</tspan><tspan baseline-shift="sub" fill="#60A5FA" font-size="8px">K</tspan><tspan fill="#6B7280">)</tspan></text><line marker-end="url(#arrowhead_333333)" stroke="#333333" stroke-width="1.5" x1="60.0" x2="60.0" y1="217.0" y2="186.0" /><g><rect fill="#E8DCCF" height="40" stroke="none" width="80" x="20.0" y="146.0" /><line stroke="#1E40AF" stroke-width="1.5" x1="20.0" x2="100.0" y1="146.0" y2="146.0" /><line stroke="#1E40AF" stroke-width="1.5" x1="20.0" x2="100.0" y1="186.0" y2="186.0" /><line stroke="#DC2626" stroke-width="1.5" x1="20.0" x2="20.0" y1="146.0" y2="186.0" /><line stroke="#DC2626" stroke-width="1.5" x1="100.0" x2="100.0" y1="146.0" y2="186.0" /><text dy="0.35em" fill="#1F2937" font-family="Inter, Segoe UI, Helvetica, Arial, sans-serif" font-size="11px" text-anchor="middle" x="60.0" y="166.0">Weighted V</text></g><text dy="0.35em" font-family="Inter, Segoe UI, Helvetica, Arial, sans-serif" font-size="11px" font-style="italic" text-anchor="start" x="106.0" y="166.0"><tspan fill="#6B7280">(</tspan><tspan fill="#6B7280">B</tspan><tspan fill="#6B7280">,</tspan><tspan fill="#6B7280"> </tspan><tspan fill="#DC2626">S</tspan><tspan fill="#6B7280">,</tspan><tspan fill="#6B7280"> </tspan><tspan fill="#1E40AF">D</tspan><tspan fill="#6B7280">)</tspan></text><line stroke="#60A5FA" stroke-dasharray="3,2" stroke-width="1.0" x1="40.0" x2="40.0" y1="148.0" y2="184.0" /><line stroke="#60A5FA" stroke-dasharray="3,2" stroke-width="1.0" x1="60.0" x2="60.0" y1="148.0" y2="184.0" /><line stroke="#60A5FA" stroke-dasharray="3,2" stroke-width="1.0" x1="80.0" x2="80.0" y1="148.0" y2="184.0" /><line marker-end="url(#arrowhead_333333)" stroke="#333333" stroke-width="1.5" x1="60.0" x2="60.0" y1="146.0" y2="130.0" /><g><rect fill="#F3E8FF" height="80" stroke="none" width="80" x="157.0" y="79.0" /><line stroke="#1E40AF" stroke-width="1.5" x1="157.0" x2="237.0" y1="79.0" y2="79.0" /><line stroke="#1E40AF" stroke-width="1.5" x1="157.0" x2="237.0" y1="159.0" y2="159.0" /><line stroke="#1E40AF" stroke-width="1.5" x1="157.0" x2="157.0" y1="79.0" y2="159.0" /><line stroke="#1E40AF" stroke-width="1.5" x1="237.0" x2="237.0" y1="79.0" y2="159.0" /></g><text dy="0.35em" fill="#1F2937" font-family="Inter, Segoe UI, Helvetica, Arial, sans-serif" font-size="11px" text-anchor="middle" x="197.0" y="119.0">W<tspan baseline-shift="sub" font-size="9px">O</tspan></text><text dy="0.35em" font-family="Inter, Segoe UI, Helvetica, Arial, sans-serif" font-size="11px" font-style="italic" text-anchor="start" x="243.0" y="119.0"><tspan fill="#6B7280">(</tspan><tspan fill="#1E40AF">D</tspan><tspan fill="#6B7280">,</tspan><tspan fill="#6B7280"> </tspan><tspan fill="#1E40AF">D</tspan><tspan fill="#6B7280">)</tspan></text><line stroke="#93C5FD" stroke-dasharray="3,2" stroke-width="1.0" x1="159.0" x2="235.0" y1="99.0" y2="99.0" /><line stroke="#93C5FD" stroke-dasharray="3,2" stroke-width="1.0" x1="159.0" x2="235.0" y1="119.0" y2="119.0" /><line stroke="#93C5FD" stroke-dasharray="3,2" stroke-width="1.0" x1="159.0" x2="235.0" y1="139.0" y2="139.0" /><line marker-end="url(#arrowhead_333333)" stroke="#333333" stroke-width="1.5" x1="157.0" x2="97.0" y1="119.0" y2="119.0" /><rect fill="#F9FAFB" height="22" rx="6" ry="6" stroke="#333333" stroke-width="1.5" width="74" x="23.0" y="108.0" /><text dy="0.35em" fill="#1F2937" font-family="Inter, Segoe UI, Helvetica, Arial, sans-serif" font-size="9px" text-anchor="middle" x="60.0" y="119.0">MatMul</text><line marker-end="url(#arrowhead_333333)" stroke="#333333" stroke-width="1.5" x1="60.0" x2="60.0" y1="108.0" y2="92.0" /><g><rect fill="#F3F4F6" height="40" stroke="none" width="80" x="20.0" y="52.0" /><line stroke="#1E40AF" stroke-width="1.5" x1="20.0" x2="100.0" y1="52.0" y2="52.0" /><line stroke="#1E40AF" stroke-width="1.5" x1="20.0" x2="100.0" y1="92.0" y2="92.0" /><line stroke="#DC2626" stroke-width="1.5" x1="20.0" x2="20.0" y1="52.0" y2="92.0" /><line stroke="#DC2626" stroke-width="1.5" x1="100.0" x2="100.0" y1="52.0" y2="92.0" /><text dy="0.35em" fill="#1F2937" font-family="Inter, Segoe UI, Helvetica, Arial, sans-serif" font-size="11px" text-anchor="middle" x="60.0" y="72.0">Output</text></g><text dy="0.35em" font-family="Inter, Segoe UI, Helvetica, Arial, sans-serif" font-size="11px" font-style="italic" text-anchor="start" x="106.0" y="72.0"><tspan fill="#6B7280">(</tspan><tspan fill="#6B7280">B</tspan><tspan fill="#6B7280">,</tspan><tspan fill="#6B7280"> </tspan><tspan fill="#DC2626">S</tspan><tspan fill="#6B7280">,</tspan><tspan fill="#6B7280"> </tspan><tspan fill="#1E40AF">D</tspan><tspan fill="#6B7280">)</tspan></text><line stroke="#333333" stroke-width="1.5" x1="60.0" x2="60.0" y1="52.0" y2="28" /><line marker-end="url(#arrowhead_333333)" stroke="#333333" stroke-width="1.5" x1="60.0" x2="707.0" y1="28" y2="28" /><circle cx="715.0" cy="28" fill="white" r="8" stroke="#333333" stroke-width="1.5" /><text dy="0.3em" fill="#333333" font-family="Inter, Segoe UI, Helvetica, Arial, sans-serif" font-size="14px" text-anchor="middle" x="715.0" y="28">+</text></svg>