<?xml version="1.0" encoding="utf-8" ?>
<svg baseProfile="full" height="302px" version="1.1" viewBox="0 0 536 302" width="536px" xmlns="http://www.w3.org/2000/svg" xmlns:ev="http://www.w3.org/2001/xml-events" xmlns:xlink="http://www.w3.org/1999/xlink"><defs><marker id="arrowhead" markerHeight="4" markerWidth="4" orient="auto" refX="4" refY="2.0"><polygon fill="#374151" points="0,0 4,2.0 0,4" /></marker></defs><text dy="0.35em" fill="#059669" font-family="Inter, Segoe UI, Helvetica, Arial, sans-serif" font-size="9px" text-anchor="end" x="59" y="13.0">Arrivals</text><text dy="0.35em" fill="#059669" font-family="Inter, Segoe UI, Helvetica, Arial, sans-serif" font-size="9px" text-anchor="middle" x="83.0" y="13.0">A</text><text dy="0.35em" fill="#059669" font-family="Inter, Segoe UI, Helvetica, Arial, sans-serif" font-size="9px" text-anchor="middle" x="125.0" y="13.0">B,C</text><text dy="0.35em" fill="#059669" font-family="Inter, Segoe UI, Helvetica, Arial, sans-serif" font-size="9px" text-anchor="middle" x="251.0" y="13.0">D</text><text dy="0.35em" fill="#059669" font-family="Inter, Segoe UI, Helvetica, Arial, sans-serif" font-size="9px" text-anchor="middle" x="293.0" y="13.0">E</text><text dy="0.35em" fill="#6B7280" font-family="Inter, Segoe UI, Helvetica, Arial, sans-serif" font-size="9px" text-anchor="end" x="59" y="29.0">Time step</text><text dy="0.35em" fill="#6B7280" font-family="Inter, Segoe UI, Helvetica, Arial, sans-serif" font-size="9px" text-anchor="middle" x="83.0" y="29.0">0</text><text dy="0.35em" fill="#6B7280" font-family="Inter, Segoe UI, Helvetica, Arial, sans-serif" font-size="9px" text-anchor="middle" x="125.0" y="29.0">1</text><text dy="0.35em" fill="#6B7280" font-family="Inter, Segoe UI, Helvetica, Arial, sans-serif" font-size="9px" text-anchor="middle" x="167.0" y="29.0">2</text><text dy="0.35em" fill="#6B7280" font-family="Inter, Segoe UI, Helvetica, Arial, sans-serif" font-size="9px" text-anchor="middle" x="209.0" y="29.0">3</text><text dy="0.35em" fill="#6B7280" font-family="Inter, Segoe UI, Helvetica, Arial, sans-serif" font-size="9px" text-anchor="middle" x="251.0" y="29.0">4</text><text dy="0.35em" fill="#6B7280" font-family="Inter, Segoe UI, Helvetica, Arial, sans-serif" font-size="9px" text-anchor="middle" x="293.0" y="29.0">5</text><text dy="0.35em" fill="#6B7280" font-family="Inter, Segoe UI, Helvetica, Arial, sans-serif" font-size="9px" text-anchor="middle" x="335.0" y="29.0">6</text><text dy="0.35em" fill="#6B7280" font-family="Inter, Segoe UI, Helvetica, Arial, sans-serif" font-size="9px" text-anchor="middle" x="377.0" y="29.0">7</text><text dy="0.35em" fill="#6B7280" font-family="Inter, Segoe UI, Helvetica, Arial, sans-serif" font-size="9px" text-anchor="middle" x="419.0" y="29.0">8</text><text dy="0.35em" fill="#6B7280" font-family="Inter, Segoe UI, Helvetica, Arial, sans-serif" font-size="9px" text-anchor="middle" x="461.0" y="29.0">9</text><text dy="0.35em" fill="#6B7280" font-family="Inter, Segoe UI, Helvetica, Arial, sans-serif" font-size="9px" text-anchor="middle" x="503.0" y="29.0">10</text><text dy="0.35em" fill="#6B7280" font-family="Inter, Segoe UI, Helvetica, Arial, sans-serif" font-size="11px" text-anchor="end" x="59" y="59.0">Slot 0</text><rect fill="#FECACA" height="32" rx="3" ry="3" stroke="#EF4444" stroke-width="1.0" width="36" x="65" y="43" /><text dy="0.35em" fill="#1F2937" font-family="Inter, Segoe UI, Helvetica, Arial, sans-serif" font-size="11px" text-anchor="middle" x="83.0" y="59.0">A</text><rect fill="#FECACA" height="32" rx="3" ry="3" stroke="#EF4444" stroke-width="1.0" width="36" x="107" y="43" /><text dy="0.35em" fill="#1F2937" font-family="Inter, Segoe UI, Helvetica, Arial, sans-serif" font-size="11px" text-anchor="middle" x="125.0" y="59.0">A</text><rect fill="#DBEAFE" height="32" rx="3" ry="3" stroke="#3B82F6" stroke-width="1.0" width="36" x="149" y="43" /><text dy="0.35em" fill="#1F2937" font-family="Inter, Segoe UI, Helvetica, Arial, sans-serif" font-size="11px" text-anchor="middle" x="167.0" y="59.0">A</text><rect fill="#DBEAFE" height="32" rx="3" ry="3" stroke="#3B82F6" stroke-width="1.0" width="36" x="191" y="43" /><text dy="0.35em" fill="#1F2937" font-family="Inter, Segoe UI, Helvetica, Arial, sans-serif" font-size="11px" text-anchor="middle" x="209.0" y="59.0">A</text><rect fill="#DBEAFE" height="32" rx="3" ry="3" stroke="#3B82F6" stroke-width="1.0" width="36" x="233" y="43" /><text dy="0.35em" fill="#1F2937" font-family="Inter, Segoe UI, Helvetica, Arial, sans-serif" font-size="11px" text-anchor="middle" x="251.0" y="59.0">A</text><rect fill="#DBEAFE" height="32" rx="3" ry="3" stroke="#3B82F6" stroke-width="1.0" width="36" x="275" y="43" /><text dy="0.35em" fill="#1F2937" font-family="Inter, Segoe UI, Helvetica, Arial, sans-serif" font-size="11px" text-anchor="middle" x="293.0" y="59.0">A</text><rect fill="#FECACA" height="32" rx="3" ry="3" stroke="#EF4444" stroke-width="1.0" width="36" x="317" y="43" /><text dy="0.35em" fill="#1F2937" font-family="Inter, Segoe UI, Helvetica, Arial, sans-serif" font-size="11px" text-anchor="middle" x="335.0" y="59.0">E</text><rect fill="#FECACA" height="32" rx="3" ry="3" stroke="#EF4444" stroke-width="1.0" width="36" x="359" y="43" /><text dy="0.35em" fill="#1F2937" font-family="Inter, Segoe UI, Helvetica, Arial, sans-serif" font-size="11px" text-anchor="middle" x="377.0" y="59.0">E</text><rect fill="#DBEAFE" height="32" rx="3" ry="3" stroke="#3B82F6" stroke-width="1.0" width="36" x="401" y="43" /><text dy="0.35em" fill="#1F2937" font-family="Inter, Segoe UI, Helvetica, Arial, sans-serif" font-size="11px" text-anchor="middle" x="419.0" y="59.0">E</text><rect fill="#DBEAFE" height="32" rx="3" ry="3" stroke="#3B82F6" stroke-width="1.0" width="36" x="443" y="43" /><text dy="0.35em" fill="#1F2937" font-family="Inter, Segoe UI, Helvetica, Arial, sans-serif" font-size="11px" text-anchor="middle" x="461.0" y="59.0">E</text><rect fill="#DBEAFE" height="32" rx="3" ry="3" stroke="#3B82F6" stroke-width="1.0" width="36" x="485" y="43" /><text dy="0.35em" fill="#1F2937" font-family="Inter, Segoe UI, Helvetica, Arial, sans-serif" font-size="11px" text-anchor="middle" x="503.0" y="59.0">E</text><text dy="0.35em" fill="#6B7280" font-family="Inter, Segoe UI, Helvetica, Arial, sans-serif" font-size="11px" text-anchor="end" x="59" y="94.0">Slot 1</text><rect fill="#F3F4F6" height="32" rx="3" ry="3" stroke="#6B7280" stroke-width="1.0" width="36" x="65" y="78" /><rect fill="#FECACA" height="32" rx="3" ry="3" stroke="#EF4444" stroke-width="1.0" width="36" x="107" y="78" /><text dy="0.35em" fill="#1F2937" font-family="Inter, Segoe UI, Helvetica, Arial, sans-serif" font-size="11px" text-anchor="middle" x="125.0" y="94.0">B</text><rect fill="#FECACA" height="32" rx="3" ry="3" stroke="#EF4444" stroke-width="1.0" width="36" x="149" y="78" /><text dy="0.35em" fill="#1F2937" font-family="Inter, Segoe UI, Helvetica, Arial, sans-serif" font-size="11px" text-anchor="middle" x="167.0" y="94.0">B</text><rect fill="#DBEAFE" height="32" rx="3" ry="3" stroke="#3B82F6" stroke-width="1.0" width="36" x="191" y="78" /><text dy="0.35em" fill="#1F2937" font-family="Inter, Segoe UI, Helvetica, Arial, sans-serif" font-size="11px" text-anchor="middle" x="209.0" y="94.0">B</text><rect fill="#DBEAFE" height="32" rx="3" ry="3" stroke="#3B82F6" stroke-width="1.0" width="36" x="233" y="78" /><text dy="0.35em" fill="#1F2937" font-family="Inter, Segoe UI, Helvetica, Arial, sans-serif" font-size="11px" text-anchor="middle" x="251.0" y="94.0">B</text><rect fill="#DBEAFE" height="32" rx="3" ry="3" stroke="#3B82F6" stroke-width="1.0" width="36" x="275" y="78" /><text dy="0.35em" fill="#1F2937" font-family="Inter, Segoe UI, Helvetica, Arial, sans-serif" font-size="11px" text-anchor="middle" x="293.0" y="94.0">B</text><rect fill="#DBEAFE" height="32" rx="3" ry="3" stroke="#3B82F6" stroke-width="1.0" width="36" x="317" y="78" /><text dy="0.35em" fill="#1F2937" font-family="Inter, Segoe UI, Helvetica, Arial, sans-serif" font-size="11px" text-anchor="middle" x="335.0" y="94.0">B</text><rect fill="#DBEAFE" height="32" rx="3" ry="3" stroke="#3B82F6" stroke-width="1.0" width="36" x="359" y="78" /><text dy="0.35em" fill="#1F2937" font-family="Inter, Segoe UI, Helvetica, Arial, sans-serif" font-size="11px" text-anchor="middle" x="377.0" y="94.0">B</text><rect fill="#DBEAFE" height="32" rx="3" ry="3" stroke="#3B82F6" stroke-width="1.0" width="36" x="401" y="78" /><text dy="0.35em" fill="#1F2937" font-family="Inter, Segoe UI, Helvetica, Arial, sans-serif" font-size="11px" text-anchor="middle" x="419.0" y="94.0">B</text><rect fill="#F3F4F6" height="32" rx="3" ry="3" stroke="#6B7280" stroke-width="1.0" width="36" x="443" y="78" /><rect fill="#F3F4F6" height="32" rx="3" ry="3" stroke="#6B7280" stroke-width="1.0" width="36" x="485" y="78" /><text dy="0.35em" fill="#6B7280" font-family="Inter, Segoe UI, Helvetica, Arial, sans-serif" font-size="11px" text-anchor="end" x="59" y="129.0">Slot 2</text><rect fill="#F3F4F6" height="32" rx="3" ry="3" stroke="#6B7280" stroke-width="1.0" width="36" x="65" y="113" /><rect fill="#FECACA" height="32" rx="3" ry="3" stroke="#EF4444" stroke-width="1.0" width="36" x="107" y="113" /><text dy="0.35em" fill="#1F2937" font-family="Inter, Segoe UI, Helvetica, Arial, sans-serif" font-size="11px" text-anchor="middle" x="125.0" y="129.0">C</text><rect fill="#FECACA" height="32" rx="3" ry="3" stroke="#EF4444" stroke-width="1.0" width="36" x="149" y="113" /><text dy="0.35em" fill="#1F2937" font-family="Inter, Segoe UI, Helvetica, Arial, sans-serif" font-size="11px" text-anchor="middle" x="167.0" y="129.0">C</text><rect fill="#DBEAFE" height="32" rx="3" ry="3" stroke="#3B82F6" stroke-width="1.0" width="36" x="191" y="113" /><text dy="0.35em" fill="#1F2937" font-family="Inter, Segoe UI, Helvetica, Arial, sans-serif" font-size="11px" text-anchor="middle" x="209.0" y="129.0">C</text><rect fill="#DBEAFE" height="32" rx="3" ry="3" stroke="#3B82F6" stroke-width="1.0" width="36" x="233" y="113" /><text dy="0.35em" fill="#1F2937" font-family="Inter, Segoe UI, Helvetica, Arial, sans-serif" font-size="11px" text-anchor="middle" x="251.0" y="129.0">C</text><rect fill="#DBEAFE" height="32" rx="3" ry="3" stroke="#3B82F6" stroke-width="1.0" width="36" x="275" y="113" /><text dy="0.35em" fill="#1F2937" font-family="Inter, Segoe UI, Helvetica, Arial, sans-serif" font-size="11px" text-anchor="middle" x="293.0" y="129.0">C</text><rect fill="#F3F4F6" height="32" rx="3" ry="3" stroke="#6B7280" stroke-width="1.0" width="36" x="317" y="113" /><rect fill="#F3F4F6" height="32" rx="3" ry="3" stroke="#6B7280" stroke-width="1.0" width="36" x="359" y="113" /><rect fill="#F3F4F6" height="32" rx="3" ry="3" stroke="#6B7280" stroke-width="1.0" width="36" x="401" y="113" /><rect fill="#F3F4F6" height="32" rx="3" ry="3" stroke="#6B7280" stroke-width="1.0" width="36" x="443" y="113" /><rect fill="#F3F4F6" height="32" rx="3" ry="3" stroke="#6B7280" stroke-width="1.0" width="36" x="485" y="113" /><text dy="0.35em" fill="#6B7280" font-family="Inter, Segoe UI, Helvetica, Arial, sans-serif" font-size="11px" text-anchor="end" x="59" y="164.0">Slot 3</text><rect fill="#F3F4F6" height="32" rx="3" ry="3" stroke="#6B7280" stroke-width="1.0" width="36" x="65" y="148" /><rect fill="#F3F4F6" height="32" rx="3" ry="3" stroke="#6B7280" stroke-width="1.0" width="36" x="107" y="148" /><rect fill="#F3F4F6" height="32" rx="3" ry="3" stroke="#6B7280" stroke-width="1.0" width="36" x="149" y="148" /><rect fill="#F3F4F6" height="32" rx="3" ry="3" stroke="#6B7280" stroke-width="1.0" width="36" x="191" y="148" /><rect fill="#FECACA" height="32" rx="3" ry="3" stroke="#EF4444" stroke-width="1.0" width="36" x="233" y="148" /><text dy="0.35em" fill="#1F2937" font-family="Inter, Segoe UI, Helvetica, Arial, sans-serif" font-size="11px" text-anchor="middle" x="251.0" y="164.0">D</text><rect fill="#FECACA" height="32" rx="3" ry="3" stroke="#EF4444" stroke-width="1.0" width="36" x="275" y="148" /><text dy="0.35em" fill="#1F2937" font-family="Inter, Segoe UI, Helvetica, Arial, sans-serif" font-size="11px" text-anchor="middle" x="293.0" y="164.0">D</text><rect fill="#DBEAFE" height="32" rx="3" ry="3" stroke="#3B82F6" stroke-width="1.0" width="36" x="317" y="148" /><text dy="0.35em" fill="#1F2937" font-family="Inter, Segoe UI, Helvetica, Arial, sans-serif" font-size="11px" text-anchor="middle" x="335.0" y="164.0">D</text><rect fill="#DBEAFE" height="32" rx="3" ry="3" stroke="#3B82F6" stroke-width="1.0" width="36" x="359" y="148" /><text dy="0.35em" fill="#1F2937" font-family="Inter, Segoe UI, Helvetica, Arial, sans-serif" font-size="11px" text-anchor="middle" x="377.0" y="164.0">D</text><rect fill="#DBEAFE" height="32" rx="3" ry="3" stroke="#3B82F6" stroke-width="1.0" width="36" x="401" y="148" /><text dy="0.35em" fill="#1F2937" font-family="Inter, Segoe UI, Helvetica, Arial, sans-serif" font-size="11px" text-anchor="middle" x="419.0" y="164.0">D</text><rect fill="#DBEAFE" height="32" rx="3" ry="3" stroke="#3B82F6" stroke-width="1.0" width="36" x="443" y="148" /><text dy="0.35em" fill="#1F2937" font-family="Inter, Segoe UI, Helvetica, Arial, sans-serif" font-size="11px" text-anchor="middle" x="461.0" y="164.0">D</text><rect fill="#F3F4F6" height="32" rx="3" ry="3" stroke="#6B7280" stroke-width="1.0" width="36" x="485" y="148" /><line stroke="#6B7280" stroke-dasharray="4,3" stroke-width="1.0" x1="65" x2="521" y1="190.0" y2="190.0" /><text dy="0.35em" fill="#6B7280" font-family="Inter, Segoe UI, Helvetica, Arial, sans-serif" font-size="11px" text-anchor="end" x="59" y="213.0">Queue</text><rect fill="#F3F4F6" height="32" rx="3" ry="3" stroke="#6B7280" stroke-width="1.0" width="36" x="65" y="197.0" /><rect fill="#F3F4F6" height="32" rx="3" ry="3" stroke="#6B7280" stroke-width="1.0" width="36" x="107" y="197.0" /><rect fill="#F3F4F6" height="32" rx="3" ry="3" stroke="#6B7280" stroke-width="1.0" width="36" x="149" y="197.0" /><rect fill="#F3F4F6" height="32" rx="3" ry="3" stroke="#6B7280" stroke-width="1.0" width="36" x="191" y="197.0" /><rect fill="#F3F4F6" height="32" rx="3" ry="3" stroke="#6B7280" stroke-width="1.0" width="36" x="233" y="197.0" /><rect fill="#F3F4F6" height="32" rx="3" ry="3" stroke="#6B7280" stroke-dasharray="4,2" stroke-width="1.0" width="36" x="275" y="197.0" /><text dy="0.35em" fill="#1F2937" font-family="Inter, Segoe UI, Helvetica, Arial, sans-serif" font-size="11px" text-anchor="middle" x="293.0" y="213.0">E</text><rect fill="#F3F4F6" height="32" rx="3" ry="3" stroke="#6B7280" stroke-width="1.0" width="36" x="317" y="197.0" /><rect fill="#F3F4F6" height="32" rx="3" ry="3" stroke="#6B7280" stroke-width="1.0" width="36" x="359" y="197.0" /><rect fill="#F3F4F6" height="32" rx="3" ry="3" stroke="#6B7280" stroke-width="1.0" width="36" x="401" y="197.0" /><rect fill="#F3F4F6" height="32" rx="3" ry="3" stroke="#6B7280" stroke-width="1.0" width="36" x="443" y="197.0" /><rect fill="#F3F4F6" height="32" rx="3" ry="3" stroke="#6B7280" stroke-width="1.0" width="36" x="485" y="197.0" /><line stroke="#059669" stroke-width="4.0" x1="63" x2="63" y1="42" y2="76" /><line stroke="#059669" stroke-width="4.0" x1="104.0" x2="104.0" y1="77" y2="111" /><line stroke="#059669" stroke-width="4.0" x1="104.0" x2="104.0" y1="112" y2="146" /><line stroke="#059669" stroke-width="4.0" x1="230.0" x2="230.0" y1="147" y2="181" /><line stroke="#059669" stroke-width="4.0" x1="272.0" x2="272.0" y1="196.0" y2="230.0" /><line stroke="#EF4444" stroke-width="4.0" x1="314.0" x2="314.0" y1="42" y2="76" /><line stroke="#EF4444" stroke-width="4.0" x1="440.0" x2="440.0" y1="77" y2="111" /><line stroke="#EF4444" stroke-width="4.0" x1="314.0" x2="314.0" y1="112" y2="146" /><line stroke="#EF4444" stroke-width="4.0" x1="482.0" x2="482.0" y1="147" y2="181" /><line stroke="#EF4444" stroke-width="4.0" x1="524.0" x2="524.0" y1="42" y2="76" /><rect fill="#F3F4F6" height="14" rx="2" ry="2" stroke="#6B7280" stroke-width="1.0" width="14" x="65" y="274.0" /><text dy="0.35em" fill="#6B7280" font-family="Inter, Segoe UI, Helvetica, Arial, sans-serif" font-size="11px" text-anchor="start" x="87" y="281.0">Idle</text><rect fill="#F3F4F6" height="14" rx="2" ry="2" stroke="#6B7280" stroke-dasharray="4,2" stroke-width="1.0" width="14" x="131.0" y="274.0" /><text dy="0.35em" fill="#6B7280" font-family="Inter, Segoe UI, Helvetica, Arial, sans-serif" font-size="11px" text-anchor="start" x="153.0" y="281.0">Queued</text><rect fill="#FECACA" height="14" rx="2" ry="2" stroke="#EF4444" stroke-width="1.0" width="14" x="210.0" y="274.0" /><text dy="0.35em" fill="#6B7280" font-family="Inter, Segoe UI, Helvetica, Arial, sans-serif" font-size="11px" text-anchor="start" x="232.0" y="281.0">Prefill</text><rect fill="#DBEAFE" height="14" rx="2" ry="2" stroke="#3B82F6" stroke-width="1.0" width="14" x="295.5" y="274.0" /><text dy="0.35em" fill="#6B7280" font-family="Inter, Segoe UI, Helvetica, Arial, sans-serif" font-size="11px" text-anchor="start" x="317.5" y="281.0">Decode</text><line stroke="#059669" stroke-width="4.0" x1="375" x2="375" y1="274.0" y2="288.0" /><text dy="0.35em" fill="#6B7280" font-family="Inter, Segoe UI, Helvetica, Arial, sans-serif" font-size="11px" text-anchor="start" x="383" y="281.0">Arrival</text><line stroke="#EF4444" stroke-width="4.0" x1="446.5" x2="446.5" y1="274.0" y2="288.0" /><text dy="0.35em" fill="#6B7280" font-family="Inter, Segoe UI, Helvetica, Arial, sans-serif" font-size="11px" text-anchor="start" x="454.5" y="281.0">Completion</text></svg>