<?xml version="1.0" encoding="utf-8" ?>
<svg baseProfile="full" height="576px" version="1.1" viewBox="0 0 304 576" width="304px" xmlns="http://www.w3.org/2000/svg" xmlns:ev="http://www.w3.org/2001/xml-events" xmlns:xlink="http://www.w3.org/1999/xlink"><defs><marker id="arrowhead" markerHeight="4" markerWidth="4" orient="auto" refX="4" refY="2.0"><polygon fill="#374151" points="0,0 4,2.0 0,4" /></marker><marker id="arrowhead_333333" markerHeight="4" markerWidth="4" orient="auto" refX="4" refY="2.0"><polygon fill="#333333" points="0,0 4,2.0 0,4" /></marker></defs><line stroke="#333333" stroke-width="1.5" x1="216.0" x2="216.0" y1="0" y2="30" /><line stroke="#333333" stroke-width="1.5" x1="216.0" x2="216.0" y1="46" y2="286" /><line stroke="#333333" stroke-width="1.5" x1="216.0" x2="216.0" y1="302" y2="576" /><line stroke="#333333" stroke-width="1.5" x1="86" x2="216.0" y1="546" y2="546" /><line marker-end="url(#arrowhead_333333)" stroke="#333333" stroke-width="1.5" x1="86" x2="86" y1="546" y2="522.0" /><line stroke="#333333" stroke-width="1.5" x1="86" x2="216.0" y1="276.0" y2="276.0" /><line marker-end="url(#arrowhead_333333)" stroke="#333333" stroke-width="1.5" x1="86" x2="86" y1="276.0" y2="258.0" /><g><rect fill="#F3F4F6" height="30" stroke="none" width="80" x="46.0" y="492.0" /><line stroke="#1E40AF" stroke-width="1.5" x1="46.0" x2="126.0" y1="492.0" y2="492.0" /><line stroke="#1E40AF" stroke-width="1.5" x1="46.0" x2="126.0" y1="522.0" y2="522.0" /><line stroke="#DC2626" stroke-width="1.5" x1="46.0" x2="46.0" y1="492.0" y2="522.0" /><line stroke="#DC2626" stroke-width="1.5" x1="126.0" x2="126.0" y1="492.0" y2="522.0" /><text dy="0.35em" fill="#1F2937" font-family="Inter, Segoe UI, Helvetica, Arial, sans-serif" font-size="11px" text-anchor="middle" x="86.0" y="507.0">x</text></g><text dy="0.35em" font-family="Inter, Segoe UI, Helvetica, Arial, sans-serif" font-size="11px" font-style="italic" text-anchor="start" x="132.0" y="507.0"><tspan fill="#6B7280">(</tspan><tspan fill="#DC2626">S</tspan><tspan fill="#6B7280">,</tspan><tspan fill="#6B7280"> </tspan><tspan fill="#1E40AF">D</tspan><tspan fill="#6B7280">)</tspan></text><line marker-end="url(#arrowhead_333333)" stroke="#333333" stroke-width="1.5" x1="86" x2="86" y1="492.0" y2="478.0" /><rect fill="#f2f4c1" height="22" rx="5" ry="5" stroke="#333333" stroke-width="1.5" width="100" x="36.0" y="456.0" /><text dy="0.35em" fill="#1F2937" font-family="Inter, Segoe UI, Helvetica, Arial, sans-serif" font-size="11px" text-anchor="middle" x="86.0" y="467.0">Norm</text><line marker-end="url(#arrowhead_333333)" stroke="#333333" stroke-width="1.5" x1="86" x2="86" y1="456.0" y2="442.0" /><g><rect fill="#F3F4F6" height="30" stroke="none" width="80" x="46.0" y="412.0" /><line stroke="#1E40AF" stroke-width="1.5" x1="46.0" x2="126.0" y1="412.0" y2="412.0" /><line stroke="#1E40AF" stroke-width="1.5" x1="46.0" x2="126.0" y1="442.0" y2="442.0" /><line stroke="#DC2626" stroke-width="1.5" x1="46.0" x2="46.0" y1="412.0" y2="442.0" /><line stroke="#DC2626" stroke-width="1.5" x1="126.0" x2="126.0" y1="412.0" y2="442.0" /><text dy="0.35em" fill="#1F2937" font-family="Inter, Segoe UI, Helvetica, Arial, sans-serif" font-size="11px" text-anchor="middle" x="86.0" y="427.0">x_norm</text></g><text dy="0.35em" font-family="Inter, Segoe UI, Helvetica, Arial, sans-serif" font-size="11px" font-style="italic" text-anchor="start" x="132.0" y="427.0"><tspan fill="#6B7280">(</tspan><tspan fill="#DC2626">S</tspan><tspan fill="#6B7280">,</tspan><tspan fill="#6B7280"> </tspan><tspan fill="#1E40AF">D</tspan><tspan fill="#6B7280">)</tspan></text><line marker-end="url(#arrowhead_333333)" stroke="#333333" stroke-width="1.5" x1="86" x2="86" y1="412.0" y2="398.0" /><rect fill="#ffe2bb" height="38" rx="5" ry="5" stroke="#333333" stroke-width="1.5" width="100" x="36.0" y="360.0" /><text dy="0.35em" fill="#1F2937" font-family="Inter, Segoe UI, Helvetica, Arial, sans-serif" font-size="11px" text-anchor="middle" x="86" y="366.0">Masked</text><text dy="0.35em" fill="#1F2937" font-family="Inter, Segoe UI, Helvetica, Arial, sans-serif" font-size="11px" text-anchor="middle" x="86" y="379.0">Multi-Head</text><text dy="0.35em" fill="#1F2937" font-family="Inter, Segoe UI, Helvetica, Arial, sans-serif" font-size="11px" text-anchor="middle" x="86" y="392.0">Attention</text><line marker-end="url(#arrowhead_333333)" stroke="#333333" stroke-width="1.5" x1="86" x2="86" y1="360.0" y2="346.0" /><g><rect fill="#F3F4F6" height="30" stroke="none" width="80" x="46.0" y="316.0" /><line stroke="#1E40AF" stroke-width="1.5" x1="46.0" x2="126.0" y1="316.0" y2="316.0" /><line stroke="#1E40AF" stroke-width="1.5" x1="46.0" x2="126.0" y1="346.0" y2="346.0" /><line stroke="#DC2626" stroke-width="1.5" x1="46.0" x2="46.0" y1="316.0" y2="346.0" /><line stroke="#DC2626" stroke-width="1.5" x1="126.0" x2="126.0" y1="316.0" y2="346.0" /><text dy="0.35em" fill="#1F2937" font-family="Inter, Segoe UI, Helvetica, Arial, sans-serif" font-size="11px" text-anchor="middle" x="86.0" y="331.0">Output</text></g><text dy="0.35em" font-family="Inter, Segoe UI, Helvetica, Arial, sans-serif" font-size="11px" font-style="italic" text-anchor="start" x="132.0" y="331.0"><tspan fill="#6B7280">(</tspan><tspan fill="#DC2626">S</tspan><tspan fill="#6B7280">,</tspan><tspan fill="#6B7280"> </tspan><tspan fill="#1E40AF">D</tspan><tspan fill="#6B7280">)</tspan></text><line stroke="#333333" stroke-width="1.5" x1="86" x2="86" y1="316.0" y2="294" /><line marker-end="url(#arrowhead_333333)" stroke="#333333" stroke-width="1.5" x1="86" x2="208.0" y1="294" y2="294" /><circle cx="216.0" cy="294" fill="white" r="8" stroke="#333333" stroke-width="1.5" /><text dy="0.3em" fill="#333333" font-family="Inter, Segoe UI, Helvetica, Arial, sans-serif" font-size="14px" text-anchor="middle" x="216.0" y="294">+</text><g><rect fill="#F3F4F6" height="30" stroke="none" width="80" x="46.0" y="228.0" /><line stroke="#1E40AF" stroke-width="1.5" x1="46.0" x2="126.0" y1="228.0" y2="228.0" /><line stroke="#1E40AF" stroke-width="1.5" x1="46.0" x2="126.0" y1="258.0" y2="258.0" /><line stroke="#DC2626" stroke-width="1.5" x1="46.0" x2="46.0" y1="228.0" y2="258.0" /><line stroke="#DC2626" stroke-width="1.5" x1="126.0" x2="126.0" y1="228.0" y2="258.0" /><text dy="0.35em" fill="#1F2937" font-family="Inter, Segoe UI, Helvetica, Arial, sans-serif" font-size="11px" text-anchor="middle" x="86.0" y="243.0">x</text></g><text dy="0.35em" font-family="Inter, Segoe UI, Helvetica, Arial, sans-serif" font-size="11px" font-style="italic" text-anchor="start" x="132.0" y="243.0"><tspan fill="#6B7280">(</tspan><tspan fill="#DC2626">S</tspan><tspan fill="#6B7280">,</tspan><tspan fill="#6B7280"> </tspan><tspan fill="#1E40AF">D</tspan><tspan fill="#6B7280">)</tspan></text><line marker-end="url(#arrowhead_333333)" stroke="#333333" stroke-width="1.5" x1="86" x2="86" y1="228.0" y2="214.0" /><rect fill="#f2f4c1" height="22" rx="5" ry="5" stroke="#333333" stroke-width="1.5" width="100" x="36.0" y="192.0" /><text dy="0.35em" fill="#1F2937" font-family="Inter, Segoe UI, Helvetica, Arial, sans-serif" font-size="11px" text-anchor="middle" x="86.0" y="203.0">Norm</text><line marker-end="url(#arrowhead_333333)" stroke="#333333" stroke-width="1.5" x1="86" x2="86" y1="192.0" y2="178.0" /><g><rect fill="#F3F4F6" height="30" stroke="none" width="80" x="46.0" y="148.0" /><line stroke="#1E40AF" stroke-width="1.5" x1="46.0" x2="126.0" y1="148.0" y2="148.0" /><line stroke="#1E40AF" stroke-width="1.5" x1="46.0" x2="126.0" y1="178.0" y2="178.0" /><line stroke="#DC2626" stroke-width="1.5" x1="46.0" x2="46.0" y1="148.0" y2="178.0" /><line stroke="#DC2626" stroke-width="1.5" x1="126.0" x2="126.0" y1="148.0" y2="178.0" /><text dy="0.35em" fill="#1F2937" font-family="Inter, Segoe UI, Helvetica, Arial, sans-serif" font-size="11px" text-anchor="middle" x="86.0" y="163.0">x_norm</text></g><text dy="0.35em" font-family="Inter, Segoe UI, Helvetica, Arial, sans-serif" font-size="11px" font-style="italic" text-anchor="start" x="132.0" y="163.0"><tspan fill="#6B7280">(</tspan><tspan fill="#DC2626">S</tspan><tspan fill="#6B7280">,</tspan><tspan fill="#6B7280"> </tspan><tspan fill="#1E40AF">D</tspan><tspan fill="#6B7280">)</tspan></text><line marker-end="url(#arrowhead_333333)" stroke="#333333" stroke-width="1.5" x1="86" x2="86" y1="148.0" y2="134.0" /><rect fill="#c2e8f7" height="30" rx="5" ry="5" stroke="#333333" stroke-width="1.5" width="100" x="36.0" y="104.0" /><text dy="0.35em" fill="#1F2937" font-family="Inter, Segoe UI, Helvetica, Arial, sans-serif" font-size="11px" text-anchor="middle" x="86" y="112.5">Feed</text><text dy="0.35em" fill="#1F2937" font-family="Inter, Segoe UI, Helvetica, Arial, sans-serif" font-size="11px" text-anchor="middle" x="86" y="125.5">Forward</text><line marker-end="url(#arrowhead_333333)" stroke="#333333" stroke-width="1.5" x1="86" x2="86" y1="104.0" y2="90.0" /><g><rect fill="#F3F4F6" height="30" stroke="none" width="80" x="46.0" y="60.0" /><line stroke="#1E40AF" stroke-width="1.5" x1="46.0" x2="126.0" y1="60.0" y2="60.0" /><line stroke="#1E40AF" stroke-width="1.5" x1="46.0" x2="126.0" y1="90.0" y2="90.0" /><line stroke="#DC2626" stroke-width="1.5" x1="46.0" x2="46.0" y1="60.0" y2="90.0" /><line stroke="#DC2626" stroke-width="1.5" x1="126.0" x2="126.0" y1="60.0" y2="90.0" /><text dy="0.35em" fill="#1F2937" font-family="Inter, Segoe UI, Helvetica, Arial, sans-serif" font-size="11px" text-anchor="middle" x="86.0" y="75.0">Output</text></g><text dy="0.35em" font-family="Inter, Segoe UI, Helvetica, Arial, sans-serif" font-size="11px" font-style="italic" text-anchor="start" x="132.0" y="75.0"><tspan fill="#6B7280">(</tspan><tspan fill="#DC2626">S</tspan><tspan fill="#6B7280">,</tspan><tspan fill="#6B7280"> </tspan><tspan fill="#1E40AF">D</tspan><tspan fill="#6B7280">)</tspan></text><line stroke="#333333" stroke-width="1.5" x1="86" x2="86" y1="60.0" y2="38" /><line marker-end="url(#arrowhead_333333)" stroke="#333333" stroke-width="1.5" x1="86" x2="208.0" y1="38" y2="38" /><circle cx="216.0" cy="38" fill="white" r="8" stroke="#333333" stroke-width="1.5" /><text dy="0.3em" fill="#333333" font-family="Inter, Segoe UI, Helvetica, Arial, sans-serif" font-size="14px" text-anchor="middle" x="216.0" y="38">+</text><rect fill="none" height="485.0" rx="40" ry="40" stroke="#999999" stroke-dasharray="16,6" stroke-width="2" width="220.0" x="20.0" y="49.0" /><text dy="0.35em" fill="#666666" font-family="Inter, Segoe UI, Helvetica, Arial, sans-serif" font-size="11px" text-anchor="start" x="246.0" y="291.5">Layer</text></svg>