<?xml version="1.0" encoding="utf-8" ?>
<svg baseProfile="full" height="478px" version="1.1" viewBox="0 0 383 478" width="383px" xmlns="http://www.w3.org/2000/svg" xmlns:ev="http://www.w3.org/2001/xml-events" xmlns:xlink="http://www.w3.org/1999/xlink"><defs><marker id="arrowhead" markerHeight="4" markerWidth="4" orient="auto" refX="4" refY="2.0"><polygon fill="#374151" points="0,0 4,2.0 0,4" /></marker><marker id="arrowhead_333333" markerHeight="4" markerWidth="4" orient="auto" refX="4" refY="2.0"><polygon fill="#333333" points="0,0 4,2.0 0,4" /></marker></defs><line stroke="#333333" stroke-width="1.5" x1="345.0" x2="345.0" y1="0" y2="30" /><line stroke="#333333" stroke-width="1.5" x1="345.0" x2="345.0" y1="46" y2="268.0" /><line stroke="#333333" stroke-width="1.5" x1="345.0" x2="345.0" y1="284.0" y2="478" /><g><rect fill="#F3F4F6" height="30" stroke="none" width="80" x="160.0" y="418.0" /><line stroke="#1E40AF" stroke-width="1.5" x1="160.0" x2="240.0" y1="418.0" y2="418.0" /><line stroke="#1E40AF" stroke-width="1.5" x1="160.0" x2="240.0" y1="448.0" y2="448.0" /><line stroke="#DC2626" stroke-width="1.5" x1="160.0" x2="160.0" y1="418.0" y2="448.0" /><line stroke="#DC2626" stroke-width="1.5" x1="240.0" x2="240.0" y1="418.0" y2="448.0" /><text dominant-baseline="central" fill="#1F2937" font-family="Inter, Segoe UI, Helvetica, Arial, sans-serif" font-size="11px" text-anchor="middle" x="200.0" y="433.0">x</text></g><text dominant-baseline="central" fill="#6B7280" font-family="Inter, Segoe UI, Helvetica, Arial, sans-serif" font-size="11px" font-style="italic" text-anchor="start" x="246.0" y="433.0">(S, D)</text><line stroke="#333333" stroke-width="1.5" x1="240.0" x2="345.0" y1="433.0" y2="433.0" /><line marker-end="url(#arrowhead_333333)" stroke="#333333" stroke-width="1.5" x1="200" x2="200" y1="418.0" y2="404.0" /><rect fill="#f2f4c1" height="22" rx="6" ry="6" stroke="#333333" stroke-width="1.5" width="60" x="170.0" y="382.0" /><text dominant-baseline="central" fill="#1F2937" font-family="Inter, Segoe UI, Helvetica, Arial, sans-serif" font-size="9px" text-anchor="middle" x="200.0" y="393.0">Norm</text><line marker-end="url(#arrowhead_333333)" stroke="#333333" stroke-width="1.5" x1="200" x2="200" y1="382.0" y2="368.0" /><rect fill="#DBEAFE" height="70" rx="6" ry="6" stroke="#333333" stroke-width="1.5" width="130" x="135.0" y="298.0" /><text dominant-baseline="central" fill="#1F2937" font-family="Inter, Segoe UI, Helvetica, Arial, sans-serif" font-size="11px" font-weight="bold" text-anchor="middle" x="200" y="316.0">Self-Attention</text><text dominant-baseline="central" fill="#6B7280" font-family="Inter, Segoe UI, Helvetica, Arial, sans-serif" font-size="9px" text-anchor="middle" x="200" y="332.0">Wq, Wk, Wv, Wo</text><text dominant-baseline="central" fill="#6B7280" font-family="Inter, Segoe UI, Helvetica, Arial, sans-serif" font-size="9px" text-anchor="middle" x="200" y="345.0">Multi-head, causal</text><rect fill="#FFF8E1" height="28" rx="4" ry="4" stroke="#333333" stroke-width="1.0" width="50" x="40.0" y="319.0" /><text dominant-baseline="central" fill="#1F2937" font-family="Inter, Segoe UI, Helvetica, Arial, sans-serif" font-size="8px" text-anchor="middle" x="65.0" y="333.0">KV cache</text><line marker-end="url(#arrowhead_333333)" stroke="#333333" stroke-width="1.5" x1="90.0" x2="135.0" y1="333.0" y2="333.0" /><line marker-end="url(#arrowhead_333333)" stroke="#333333" stroke-width="1.5" x1="135.0" x2="90.0" y1="325.0" y2="325.0" /><text fill="#6B7280" font-family="Inter, Segoe UI, Helvetica, Arial, sans-serif" font-size="7px" text-anchor="start" x="94.0" y="343.0">read</text><text fill="#6B7280" font-family="Inter, Segoe UI, Helvetica, Arial, sans-serif" font-size="7px" text-anchor="start" x="94.0" y="319.0">write</text><line marker-end="url(#arrowhead_333333)" stroke="#333333" stroke-width="1.5" x1="200" x2="200" y1="298.0" y2="284.0" /><circle cx="345.0" cy="276.0" fill="white" r="8" stroke="#333333" stroke-width="1.5" /><text dominant-baseline="central" fill="#333333" font-family="Inter, Segoe UI, Helvetica, Arial, sans-serif" font-size="14px" text-anchor="middle" x="345.0" y="275.0">+</text><line marker-end="url(#arrowhead_333333)" stroke="#333333" stroke-width="1.5" x1="200" x2="337.0" y1="276.0" y2="276.0" /><line stroke="#333333" stroke-width="1.5" x1="345.0" x2="345.0" y1="268.0" y2="239.0" /><line stroke="#333333" stroke-width="1.5" x1="200" x2="345.0" y1="239.0" y2="239.0" /><text dominant-baseline="central" fill="#6B7280" font-family="Inter, Segoe UI, Helvetica, Arial, sans-serif" font-size="11px" font-style="italic" text-anchor="start" x="246.0" y="239.0">x̂: (S, D)</text><line marker-end="url(#arrowhead_333333)" stroke="#333333" stroke-width="1.5" x1="200" x2="200" y1="239.0" y2="210.0" /><rect fill="#f2f4c1" height="22" rx="6" ry="6" stroke="#333333" stroke-width="1.5" width="60" x="170.0" y="188.0" /><text dominant-baseline="central" fill="#1F2937" font-family="Inter, Segoe UI, Helvetica, Arial, sans-serif" font-size="9px" text-anchor="middle" x="200.0" y="199.0">Norm</text><line marker-end="url(#arrowhead_333333)" stroke="#333333" stroke-width="1.5" x1="200" x2="200" y1="188.0" y2="174.0" /><rect fill="#D1FAE5" height="70" rx="6" ry="6" stroke="#333333" stroke-width="1.5" width="130" x="135.0" y="104.0" /><text dominant-baseline="central" fill="#1F2937" font-family="Inter, Segoe UI, Helvetica, Arial, sans-serif" font-size="11px" font-weight="bold" text-anchor="middle" x="200" y="122.0">Feed-Forward</text><text dominant-baseline="central" fill="#6B7280" font-family="Inter, Segoe UI, Helvetica, Arial, sans-serif" font-size="9px" text-anchor="middle" x="200" y="138.0">SwiGLU MLP</text><text dominant-baseline="central" fill="#6B7280" font-family="Inter, Segoe UI, Helvetica, Arial, sans-serif" font-size="9px" text-anchor="middle" x="200" y="151.0">Wgate, Wup, Wdown</text><line marker-end="url(#arrowhead_333333)" stroke="#333333" stroke-width="1.5" x1="200" x2="200" y1="104.0" y2="46" /><circle cx="345.0" cy="38" fill="white" r="8" stroke="#333333" stroke-width="1.5" /><text dominant-baseline="central" fill="#333333" font-family="Inter, Segoe UI, Helvetica, Arial, sans-serif" font-size="14px" text-anchor="middle" x="345.0" y="37">+</text><line marker-end="url(#arrowhead_333333)" stroke="#333333" stroke-width="1.5" x1="200" x2="337.0" y1="38" y2="38" /><line stroke="#333333" stroke-width="1.5" x1="345.0" x2="345.0" y1="30" y2="75.0" /><line stroke="#333333" stroke-width="1.5" x1="240.0" x2="345.0" y1="75.0" y2="75.0" /><g><rect fill="#F3F4F6" height="30" stroke="none" width="80" x="160.0" y="60.0" /><line stroke="#1E40AF" stroke-width="1.5" x1="160.0" x2="240.0" y1="60.0" y2="60.0" /><line stroke="#1E40AF" stroke-width="1.5" x1="160.0" x2="240.0" y1="90.0" y2="90.0" /><line stroke="#DC2626" stroke-width="1.5" x1="160.0" x2="160.0" y1="60.0" y2="90.0" /><line stroke="#DC2626" stroke-width="1.5" x1="240.0" x2="240.0" y1="60.0" y2="90.0" /><text dominant-baseline="central" fill="#1F2937" font-family="Inter, Segoe UI, Helvetica, Arial, sans-serif" font-size="11px" text-anchor="middle" x="200.0" y="75.0">y</text></g><text dominant-baseline="central" fill="#6B7280" font-family="Inter, Segoe UI, Helvetica, Arial, sans-serif" font-size="11px" font-style="italic" text-anchor="start" x="246.0" y="75.0">(S, D)</text><text dominant-baseline="central" fill="#1F2937" font-family="Inter, Segoe UI, Helvetica, Arial, sans-serif" font-size="11px" font-style="italic" text-anchor="start" x="363.0" y="239.0">× N layers</text></svg>