<?xml version="1.0" encoding="utf-8" ?>
<svg baseProfile="full" height="716px" version="1.1" viewBox="0 0 938 716" width="938px" xmlns="http://www.w3.org/2000/svg" xmlns:ev="http://www.w3.org/2001/xml-events" xmlns:xlink="http://www.w3.org/1999/xlink"><defs><marker id="arrowhead" markerHeight="4" markerWidth="4" orient="auto" refX="4" refY="2.0"><polygon fill="#374151" points="0,0 4,2.0 0,4" /></marker><marker id="arrowhead_333333" markerHeight="4" markerWidth="4" orient="auto" refX="4" refY="2.0"><polygon fill="#333333" points="0,0 4,2.0 0,4" /></marker><marker id="arrowhead_C8C8C8" markerHeight="4" markerWidth="4" orient="auto" refX="4" refY="2.0"><polygon fill="#C8C8C8" points="0,0 4,2.0 0,4" /></marker></defs><line stroke="#333333" stroke-width="1.5" x1="900" x2="900" y1="0" y2="30" /><line stroke="#333333" stroke-width="1.5" x1="900" x2="900" y1="46" y2="716" /><line stroke="#333333" stroke-width="1.5" x1="507.5" x2="900" y1="686" y2="686" /><line marker-end="url(#arrowhead_333333)" stroke="#333333" stroke-width="1.5" x1="507.5" x2="507.5" y1="686" y2="670.0" /><g><rect fill="#F3F4F6" height="40" stroke="none" width="80" x="467.5" y="630.0" /><line stroke="#1E40AF" stroke-width="1.5" x1="467.5" x2="547.5" y1="630.0" y2="630.0" /><line stroke="#1E40AF" stroke-width="1.5" x1="467.5" x2="547.5" y1="670.0" y2="670.0" /><line stroke="#DC2626" stroke-width="1.5" x1="467.5" x2="467.5" y1="630.0" y2="670.0" /><line stroke="#DC2626" stroke-width="1.5" x1="547.5" x2="547.5" y1="630.0" y2="670.0" /><text dy="0.35em" fill="#1F2937" font-family="Inter, Segoe UI, Helvetica, Arial, sans-serif" font-size="11px" text-anchor="middle" x="507.5" y="650.0">X</text></g><text dy="0.35em" font-family="Inter, Segoe UI, Helvetica, Arial, sans-serif" font-size="11px" font-style="italic" text-anchor="start" x="553.5" y="650.0"><tspan fill="#6B7280">(</tspan><tspan fill="#DC2626">S</tspan><tspan fill="#6B7280">,</tspan><tspan fill="#6B7280"> </tspan><tspan fill="#1E40AF">D</tspan><tspan fill="#6B7280">)</tspan></text><line stroke="#333333" stroke-width="1.5" x1="507.5" x2="507.5" y1="630.0" y2="614" /><line stroke="#333333" stroke-width="1.5" x1="90" x2="507.5" y1="614" y2="614" /><line marker-end="url(#arrowhead_333333)" stroke="#333333" stroke-width="1.5" x1="507.5" x2="507.5" y1="614" y2="443.0" /><line marker-end="url(#arrowhead_333333)" stroke="#333333" stroke-width="1.5" x1="90" x2="90" y1="614" y2="582.0" /><rect fill="#F9FAFB" height="22" rx="6" ry="6" stroke="#333333" stroke-width="1.5" width="48" x="66.0" y="560.0" /><text dy="0.35em" fill="#1F2937" font-family="Inter, Segoe UI, Helvetica, Arial, sans-serif" font-size="9px" text-anchor="middle" x="90.0" y="571.0">MatMul</text><g><rect fill="#F3E8FF" height="50" stroke="none" width="35" x="130.0" y="546.0" /><line stroke="#A855F7" stroke-width="1.5" x1="130.0" x2="165.0" y1="546.0" y2="546.0" /><line stroke="#A855F7" stroke-width="1.5" x1="130.0" x2="165.0" y1="596.0" y2="596.0" /><line stroke="#1E40AF" stroke-width="1.5" x1="130.0" x2="130.0" y1="546.0" y2="596.0" /><line stroke="#1E40AF" stroke-width="1.5" x1="165.0" x2="165.0" y1="546.0" y2="596.0" /></g><text dy="0.35em" fill="#1F2937" font-family="Inter, Segoe UI, Helvetica, Arial, sans-serif" font-size="11px" text-anchor="middle" x="147.5" y="571.0">W<tspan baseline-shift="sub" font-size="9px">R</tspan></text><text dy="0.35em" font-family="Inter, Segoe UI, Helvetica, Arial, sans-serif" font-size="11px" font-style="italic" text-anchor="start" x="171.0" y="571.0"><tspan fill="#6B7280">(</tspan><tspan fill="#1E40AF">D</tspan><tspan fill="#6B7280">,</tspan><tspan fill="#6B7280"> </tspan><tspan fill="#A855F7">E</tspan><tspan fill="#6B7280">)</tspan></text><line marker-end="url(#arrowhead_333333)" stroke="#333333" stroke-width="1.5" x1="130.0" x2="114.0" y1="571.0" y2="571.0" /><line marker-end="url(#arrowhead_333333)" stroke="#333333" stroke-width="1.5" x1="90" x2="90" y1="560.0" y2="544.0" /><g><rect fill="#DBEAFE" height="40" stroke="none" width="50" x="65.0" y="504.0" /><line stroke="#A855F7" stroke-width="1.5" x1="65.0" x2="115.0" y1="504.0" y2="504.0" /><line stroke="#A855F7" stroke-width="1.5" x1="65.0" x2="115.0" y1="544.0" y2="544.0" /><line stroke="#DC2626" stroke-width="1.5" x1="65.0" x2="65.0" y1="504.0" y2="544.0" /><line stroke="#DC2626" stroke-width="1.5" x1="115.0" x2="115.0" y1="504.0" y2="544.0" /><text dy="0.35em" fill="#1F2937" font-family="Inter, Segoe UI, Helvetica, Arial, sans-serif" font-size="11px" text-anchor="middle" x="90.0" y="524.0">Scores</text></g><text dy="0.35em" font-family="Inter, Segoe UI, Helvetica, Arial, sans-serif" font-size="11px" font-style="italic" text-anchor="start" x="121.0" y="524.0"><tspan fill="#6B7280">(</tspan><tspan fill="#DC2626">S</tspan><tspan fill="#6B7280">,</tspan><tspan fill="#6B7280"> </tspan><tspan fill="#A855F7">E</tspan><tspan fill="#6B7280">)</tspan></text><line marker-end="url(#arrowhead_333333)" stroke="#333333" stroke-width="1.5" x1="90" x2="90" y1="504.0" y2="488.0" /><rect fill="#F9FAFB" height="22" rx="6" ry="6" stroke="#333333" stroke-width="1.5" width="48" x="66.0" y="466.0" /><text dy="0.35em" fill="#1F2937" font-family="Inter, Segoe UI, Helvetica, Arial, sans-serif" font-size="9px" text-anchor="middle" x="90.0" y="477.0">Select</text><line marker-end="url(#arrowhead_333333)" stroke="#333333" stroke-width="1.5" x1="90" x2="90" y1="466.0" y2="450.0" /><g><rect fill="#DBEAFE" height="40" stroke="none" width="50" x="65.0" y="410.0" /><line stroke="#A855F7" stroke-width="1.5" x1="65.0" x2="115.0" y1="410.0" y2="410.0" /><line stroke="#A855F7" stroke-width="1.5" x1="65.0" x2="115.0" y1="450.0" y2="450.0" /><line stroke="#DC2626" stroke-width="1.5" x1="65.0" x2="65.0" y1="410.0" y2="450.0" /><line stroke="#DC2626" stroke-width="1.5" x1="115.0" x2="115.0" y1="410.0" y2="450.0" /><text dy="0.35em" fill="#1F2937" font-family="Inter, Segoe UI, Helvetica, Arial, sans-serif" font-size="11px" text-anchor="middle" x="90.0" y="430.0">Select</text></g><text dy="0.35em" font-family="Inter, Segoe UI, Helvetica, Arial, sans-serif" font-size="11px" font-style="italic" text-anchor="end" x="59.0" y="430.0"><tspan fill="#6B7280">(</tspan><tspan fill="#DC2626">S</tspan><tspan fill="#6B7280">,</tspan><tspan fill="#6B7280"> </tspan><tspan fill="#A855F7">E</tspan><tspan fill="#6B7280">)</tspan></text><line marker-end="url(#arrowhead_333333)" stroke="#333333" stroke-width="1.5" x1="115.0" x2="190" y1="430.0" y2="430.0" /><line marker-end="url(#arrowhead_333333)" stroke="#333333" stroke-width="1.5" x1="90" x2="90" y1="410.0" y2="323.0" /><rect fill="#F9FAFB" height="22" rx="6" ry="6" stroke="#333333" stroke-width="1.5" width="48" x="66.0" y="301.0" /><text dy="0.35em" fill="#1F2937" font-family="Inter, Segoe UI, Helvetica, Arial, sans-serif" font-size="9px" text-anchor="middle" x="90.0" y="312.0">SoftMax</text><line marker-end="url(#arrowhead_333333)" stroke="#333333" stroke-width="1.5" x1="90" x2="90" y1="301.0" y2="280.0" /><g><rect fill="#D1FAE5" height="40" stroke="none" width="50" x="65.0" y="240.0" /><line stroke="#A855F7" stroke-width="1.5" x1="65.0" x2="115.0" y1="240.0" y2="240.0" /><line stroke="#A855F7" stroke-width="1.5" x1="65.0" x2="115.0" y1="280.0" y2="280.0" /><line stroke="#DC2626" stroke-width="1.5" x1="65.0" x2="65.0" y1="240.0" y2="280.0" /><line stroke="#DC2626" stroke-width="1.5" x1="115.0" x2="115.0" y1="240.0" y2="280.0" /><text dy="0.35em" fill="#1F2937" font-family="Inter, Segoe UI, Helvetica, Arial, sans-serif" font-size="11px" text-anchor="middle" x="90.0" y="260.0">Weights</text></g><text dy="0.35em" font-family="Inter, Segoe UI, Helvetica, Arial, sans-serif" font-size="11px" font-style="italic" text-anchor="start" x="121.0" y="260.0"><tspan fill="#6B7280">(</tspan><tspan fill="#DC2626">S</tspan><tspan fill="#6B7280">,</tspan><tspan fill="#6B7280"> </tspan><tspan fill="#A855F7">E</tspan><tspan fill="#6B7280">)</tspan></text><line stroke="#333333" stroke-width="1.5" x1="90" x2="90" y1="240.0" y2="129.0" /><line marker-end="url(#arrowhead_333333)" stroke="#333333" stroke-width="1.5" x1="90" x2="462.5" y1="129.0" y2="129.0" /><rect fill="#FFEDD5" height="26" rx="6" ry="6" stroke="#F97316" stroke-width="1.5" width="635" x="190" y="417.0" /><text dy="0.35em" fill="#1F2937" font-family="Inter, Segoe UI, Helvetica, Arial, sans-serif" font-size="11px" text-anchor="middle" x="507.5" y="430.0">All-to-All Dispatch</text><rect fill="#E5E7EB" height="164" rx="8" ry="8" stroke="#333333" stroke-width="1.5" width="219.0" x="168.0" y="230" /><text dy="0.35em" fill="#1F2937" font-family="Inter, Segoe UI, Helvetica, Arial, sans-serif" font-size="11px" text-anchor="start" x="168.0" y="220">GPU 0</text><rect fill="#E5E7EB" height="164" rx="8" ry="8" stroke="#333333" stroke-width="1.5" width="219.0" x="398.0" y="230" /><text dy="0.35em" fill="#1F2937" font-family="Inter, Segoe UI, Helvetica, Arial, sans-serif" font-size="11px" text-anchor="start" x="398.0" y="220">GPU 1</text><rect fill="#E5E7EB" height="164" rx="8" ry="8" stroke="#333333" stroke-width="1.5" width="219.0" x="628.0" y="230" /><text dy="0.35em" fill="#1F2937" font-family="Inter, Segoe UI, Helvetica, Arial, sans-serif" font-size="11px" text-anchor="start" x="628.0" y="220">GPU 2</text><line marker-end="url(#arrowhead_333333)" stroke="#333333" stroke-width="1.5" x1="220" x2="220" y1="417.0" y2="384.0" /><line marker-end="url(#arrowhead_333333)" stroke="#333333" stroke-width="1.5" x1="335" x2="335" y1="417.0" y2="384.0" /><line marker-end="url(#arrowhead_333333)" stroke="#333333" stroke-width="1.5" x1="450" x2="450" y1="417.0" y2="384.0" /><line marker-end="url(#arrowhead_C8C8C8)" stroke="#C8C8C8" stroke-dasharray="4,3" stroke-width="1.5" x1="565" x2="565" y1="417.0" y2="384.0" /><line marker-end="url(#arrowhead_333333)" stroke="#333333" stroke-width="1.5" x1="680" x2="680" y1="417.0" y2="384.0" /><line marker-end="url(#arrowhead_333333)" stroke="#333333" stroke-width="1.5" x1="795" x2="795" y1="417.0" y2="384.0" /><g><rect fill="#F3F4F6" height="40" stroke="none" width="80" x="180.0" y="344.0" /><line stroke="#1E40AF" stroke-width="1.5" x1="180.0" x2="260.0" y1="344.0" y2="344.0" /><line stroke="#1E40AF" stroke-width="1.5" x1="180.0" x2="260.0" y1="384.0" y2="384.0" /><line stroke="#DC2626" stroke-width="1.5" x1="180.0" x2="180.0" y1="344.0" y2="384.0" /><line stroke="#DC2626" stroke-width="1.5" x1="260.0" x2="260.0" y1="344.0" y2="384.0" /></g><text dy="0.35em" fill="#1F2937" font-family="Inter, Segoe UI, Helvetica, Arial, sans-serif" font-size="8px" text-anchor="middle" x="220" y="364.0">t1</text><g><rect fill="#F3F4F6" height="40" stroke="none" width="80" x="295.0" y="344.0" /><line stroke="#1E40AF" stroke-width="1.5" x1="295.0" x2="375.0" y1="344.0" y2="344.0" /><line stroke="#1E40AF" stroke-width="1.5" x1="295.0" x2="375.0" y1="384.0" y2="384.0" /><line stroke="#DC2626" stroke-width="1.5" x1="295.0" x2="295.0" y1="344.0" y2="384.0" /><line stroke="#DC2626" stroke-width="1.5" x1="375.0" x2="375.0" y1="344.0" y2="384.0" /></g><text dy="0.35em" fill="#1F2937" font-family="Inter, Segoe UI, Helvetica, Arial, sans-serif" font-size="8px" text-anchor="middle" x="335" y="364.0">t0,t2,t3</text><g><rect fill="#F3F4F6" height="40" stroke="none" width="80" x="410.0" y="344.0" /><line stroke="#1E40AF" stroke-width="1.5" x1="410.0" x2="490.0" y1="344.0" y2="344.0" /><line stroke="#1E40AF" stroke-width="1.5" x1="410.0" x2="490.0" y1="384.0" y2="384.0" /><line stroke="#DC2626" stroke-width="1.5" x1="410.0" x2="410.0" y1="344.0" y2="384.0" /><line stroke="#DC2626" stroke-width="1.5" x1="490.0" x2="490.0" y1="344.0" y2="384.0" /></g><text dy="0.35em" fill="#1F2937" font-family="Inter, Segoe UI, Helvetica, Arial, sans-serif" font-size="8px" text-anchor="middle" x="450" y="364.0">t1</text><g><rect fill="#F3F4F6" height="40" stroke="none" width="80" x="525.0" y="344.0" /><line stroke="#1E40AF" stroke-width="1.5" x1="525.0" x2="605.0" y1="344.0" y2="344.0" /><line stroke="#1E40AF" stroke-width="1.5" x1="525.0" x2="605.0" y1="384.0" y2="384.0" /><line stroke="#DC2626" stroke-width="1.5" x1="525.0" x2="525.0" y1="344.0" y2="384.0" /><line stroke="#DC2626" stroke-width="1.5" x1="605.0" x2="605.0" y1="344.0" y2="384.0" /></g><rect fill="white" fill-opacity="0.7" height="40" width="80" x="525.0" y="344.0" /><g><rect fill="#F3F4F6" height="40" stroke="none" width="80" x="640.0" y="344.0" /><line stroke="#1E40AF" stroke-width="1.5" x1="640.0" x2="720.0" y1="344.0" y2="344.0" /><line stroke="#1E40AF" stroke-width="1.5" x1="640.0" x2="720.0" y1="384.0" y2="384.0" /><line stroke="#DC2626" stroke-width="1.5" x1="640.0" x2="640.0" y1="344.0" y2="384.0" /><line stroke="#DC2626" stroke-width="1.5" x1="720.0" x2="720.0" y1="344.0" y2="384.0" /></g><text dy="0.35em" fill="#1F2937" font-family="Inter, Segoe UI, Helvetica, Arial, sans-serif" font-size="8px" text-anchor="middle" x="680" y="364.0">t0,t3</text><g><rect fill="#F3F4F6" height="40" stroke="none" width="80" x="755.0" y="344.0" /><line stroke="#1E40AF" stroke-width="1.5" x1="755.0" x2="835.0" y1="344.0" y2="344.0" /><line stroke="#1E40AF" stroke-width="1.5" x1="755.0" x2="835.0" y1="384.0" y2="384.0" /><line stroke="#DC2626" stroke-width="1.5" x1="755.0" x2="755.0" y1="344.0" y2="384.0" /><line stroke="#DC2626" stroke-width="1.5" x1="835.0" x2="835.0" y1="344.0" y2="384.0" /></g><text dy="0.35em" fill="#1F2937" font-family="Inter, Segoe UI, Helvetica, Arial, sans-serif" font-size="8px" text-anchor="middle" x="795" y="364.0">t2</text><text dy="0.35em" font-family="Inter, Segoe UI, Helvetica, Arial, sans-serif" font-size="11px" font-style="italic" text-anchor="start" x="853.0" y="364.0"><tspan fill="#6B7280">(</tspan><tspan fill="#6B7280">v</tspan><tspan fill="#6B7280">a</tspan><tspan fill="#6B7280">r</tspan><tspan fill="#6B7280">,</tspan><tspan fill="#6B7280"> </tspan><tspan fill="#1E40AF">D</tspan><tspan fill="#6B7280">)</tspan></text><line marker-end="url(#arrowhead_333333)" stroke="#333333" stroke-width="1.5" x1="220" x2="220" y1="344.0" y2="328.0" /><line marker-end="url(#arrowhead_333333)" stroke="#333333" stroke-width="1.5" x1="335" x2="335" y1="344.0" y2="328.0" /><line marker-end="url(#arrowhead_333333)" stroke="#333333" stroke-width="1.5" x1="450" x2="450" y1="344.0" y2="328.0" /><line marker-end="url(#arrowhead_C8C8C8)" stroke="#C8C8C8" stroke-dasharray="4,3" stroke-width="1.5" x1="565" x2="565" y1="344.0" y2="328.0" /><line marker-end="url(#arrowhead_333333)" stroke="#333333" stroke-width="1.5" x1="680" x2="680" y1="344.0" y2="328.0" /><line marker-end="url(#arrowhead_333333)" stroke="#333333" stroke-width="1.5" x1="795" x2="795" y1="344.0" y2="328.0" /><rect fill="#c2e8f7" height="32" rx="6" ry="6" stroke="#333333" stroke-width="1.5" width="80" x="180.0" y="296.0" /><text dy="0.35em" fill="#1F2937" font-family="Inter, Segoe UI, Helvetica, Arial, sans-serif" font-size="11px" text-anchor="middle" x="220.0" y="312.0">Expert 0</text><rect fill="#c2e8f7" height="32" rx="6" ry="6" stroke="#333333" stroke-width="1.5" width="80" x="295.0" y="296.0" /><text dy="0.35em" fill="#1F2937" font-family="Inter, Segoe UI, Helvetica, Arial, sans-serif" font-size="11px" text-anchor="middle" x="335.0" y="312.0">Expert 1</text><rect fill="#c2e8f7" height="32" rx="6" ry="6" stroke="#333333" stroke-width="1.5" width="80" x="410.0" y="296.0" /><text dy="0.35em" fill="#1F2937" font-family="Inter, Segoe UI, Helvetica, Arial, sans-serif" font-size="11px" text-anchor="middle" x="450.0" y="312.0">Expert 2</text><rect fill="#c2e8f7" height="32" rx="6" ry="6" stroke="#333333" stroke-width="1.5" width="80" x="525.0" y="296.0" /><text dy="0.35em" fill="#1F2937" font-family="Inter, Segoe UI, Helvetica, Arial, sans-serif" font-size="11px" text-anchor="middle" x="565.0" y="312.0">Expert 3</text><rect fill="white" fill-opacity="0.7" height="32" width="80" x="525.0" y="296.0" /><rect fill="#c2e8f7" height="32" rx="6" ry="6" stroke="#333333" stroke-width="1.5" width="80" x="640.0" y="296.0" /><text dy="0.35em" fill="#1F2937" font-family="Inter, Segoe UI, Helvetica, Arial, sans-serif" font-size="11px" text-anchor="middle" x="680.0" y="312.0">Expert 4</text><rect fill="#c2e8f7" height="32" rx="6" ry="6" stroke="#333333" stroke-width="1.5" width="80" x="755.0" y="296.0" /><text dy="0.35em" fill="#1F2937" font-family="Inter, Segoe UI, Helvetica, Arial, sans-serif" font-size="11px" text-anchor="middle" x="795.0" y="312.0">Expert 5</text><line marker-end="url(#arrowhead_333333)" stroke="#333333" stroke-width="1.5" x1="220" x2="220" y1="296.0" y2="280.0" /><g><rect fill="#F3F4F6" height="40" stroke="none" width="80" x="180.0" y="240.0" /><line stroke="#1E40AF" stroke-width="1.5" x1="180.0" x2="260.0" y1="240.0" y2="240.0" /><line stroke="#1E40AF" stroke-width="1.5" x1="180.0" x2="260.0" y1="280.0" y2="280.0" /><line stroke="#DC2626" stroke-width="1.5" x1="180.0" x2="180.0" y1="240.0" y2="280.0" /><line stroke="#DC2626" stroke-width="1.5" x1="260.0" x2="260.0" y1="240.0" y2="280.0" /></g><text dy="0.35em" fill="#1F2937" font-family="Inter, Segoe UI, Helvetica, Arial, sans-serif" font-size="8px" text-anchor="middle" x="220" y="260.0">t1</text><line marker-end="url(#arrowhead_333333)" stroke="#333333" stroke-width="1.5" x1="335" x2="335" y1="296.0" y2="280.0" /><g><rect fill="#F3F4F6" height="40" stroke="none" width="80" x="295.0" y="240.0" /><line stroke="#1E40AF" stroke-width="1.5" x1="295.0" x2="375.0" y1="240.0" y2="240.0" /><line stroke="#1E40AF" stroke-width="1.5" x1="295.0" x2="375.0" y1="280.0" y2="280.0" /><line stroke="#DC2626" stroke-width="1.5" x1="295.0" x2="295.0" y1="240.0" y2="280.0" /><line stroke="#DC2626" stroke-width="1.5" x1="375.0" x2="375.0" y1="240.0" y2="280.0" /></g><text dy="0.35em" fill="#1F2937" font-family="Inter, Segoe UI, Helvetica, Arial, sans-serif" font-size="8px" text-anchor="middle" x="335" y="260.0">t0,t2,t3</text><line marker-end="url(#arrowhead_333333)" stroke="#333333" stroke-width="1.5" x1="450" x2="450" y1="296.0" y2="280.0" /><g><rect fill="#F3F4F6" height="40" stroke="none" width="80" x="410.0" y="240.0" /><line stroke="#1E40AF" stroke-width="1.5" x1="410.0" x2="490.0" y1="240.0" y2="240.0" /><line stroke="#1E40AF" stroke-width="1.5" x1="410.0" x2="490.0" y1="280.0" y2="280.0" /><line stroke="#DC2626" stroke-width="1.5" x1="410.0" x2="410.0" y1="240.0" y2="280.0" /><line stroke="#DC2626" stroke-width="1.5" x1="490.0" x2="490.0" y1="240.0" y2="280.0" /></g><text dy="0.35em" fill="#1F2937" font-family="Inter, Segoe UI, Helvetica, Arial, sans-serif" font-size="8px" text-anchor="middle" x="450" y="260.0">t1</text><line marker-end="url(#arrowhead_333333)" stroke="#333333" stroke-width="1.5" x1="565" x2="565" y1="296.0" y2="280.0" /><g><rect fill="#F3F4F6" height="40" stroke="none" width="80" x="525.0" y="240.0" /><line stroke="#1E40AF" stroke-width="1.5" x1="525.0" x2="605.0" y1="240.0" y2="240.0" /><line stroke="#1E40AF" stroke-width="1.5" x1="525.0" x2="605.0" y1="280.0" y2="280.0" /><line stroke="#DC2626" stroke-width="1.5" x1="525.0" x2="525.0" y1="240.0" y2="280.0" /><line stroke="#DC2626" stroke-width="1.5" x1="605.0" x2="605.0" y1="240.0" y2="280.0" /></g><rect fill="white" fill-opacity="0.7" height="40" width="80" x="525.0" y="240.0" /><line marker-end="url(#arrowhead_333333)" stroke="#333333" stroke-width="1.5" x1="680" x2="680" y1="296.0" y2="280.0" /><g><rect fill="#F3F4F6" height="40" stroke="none" width="80" x="640.0" y="240.0" /><line stroke="#1E40AF" stroke-width="1.5" x1="640.0" x2="720.0" y1="240.0" y2="240.0" /><line stroke="#1E40AF" stroke-width="1.5" x1="640.0" x2="720.0" y1="280.0" y2="280.0" /><line stroke="#DC2626" stroke-width="1.5" x1="640.0" x2="640.0" y1="240.0" y2="280.0" /><line stroke="#DC2626" stroke-width="1.5" x1="720.0" x2="720.0" y1="240.0" y2="280.0" /></g><text dy="0.35em" fill="#1F2937" font-family="Inter, Segoe UI, Helvetica, Arial, sans-serif" font-size="8px" text-anchor="middle" x="680" y="260.0">t0,t3</text><line marker-end="url(#arrowhead_333333)" stroke="#333333" stroke-width="1.5" x1="795" x2="795" y1="296.0" y2="280.0" /><g><rect fill="#F3F4F6" height="40" stroke="none" width="80" x="755.0" y="240.0" /><line stroke="#1E40AF" stroke-width="1.5" x1="755.0" x2="835.0" y1="240.0" y2="240.0" /><line stroke="#1E40AF" stroke-width="1.5" x1="755.0" x2="835.0" y1="280.0" y2="280.0" /><line stroke="#DC2626" stroke-width="1.5" x1="755.0" x2="755.0" y1="240.0" y2="280.0" /><line stroke="#DC2626" stroke-width="1.5" x1="835.0" x2="835.0" y1="240.0" y2="280.0" /></g><text dy="0.35em" fill="#1F2937" font-family="Inter, Segoe UI, Helvetica, Arial, sans-serif" font-size="8px" text-anchor="middle" x="795" y="260.0">t2</text><text dy="0.35em" font-family="Inter, Segoe UI, Helvetica, Arial, sans-serif" font-size="11px" font-style="italic" text-anchor="start" x="853.0" y="260.0"><tspan fill="#6B7280">(</tspan><tspan fill="#6B7280">v</tspan><tspan fill="#6B7280">a</tspan><tspan fill="#6B7280">r</tspan><tspan fill="#6B7280">,</tspan><tspan fill="#6B7280"> </tspan><tspan fill="#1E40AF">D</tspan><tspan fill="#6B7280">)</tspan></text><line stroke="#333333" stroke-width="1.5" x1="220" x2="220" y1="240.0" y2="230" /><line marker-end="url(#arrowhead_333333)" stroke="#333333" stroke-width="1.5" x1="220" x2="220" y1="230" y2="194.0" /><line stroke="#333333" stroke-width="1.5" x1="335" x2="335" y1="240.0" y2="230" /><line marker-end="url(#arrowhead_333333)" stroke="#333333" stroke-width="1.5" x1="335" x2="335" y1="230" y2="194.0" /><line stroke="#333333" stroke-width="1.5" x1="450" x2="450" y1="240.0" y2="230" /><line marker-end="url(#arrowhead_333333)" stroke="#333333" stroke-width="1.5" x1="450" x2="450" y1="230" y2="194.0" /><line stroke="#333333" stroke-width="1.5" x1="565" x2="565" y1="240.0" y2="230" /><line marker-end="url(#arrowhead_333333)" stroke="#333333" stroke-width="1.5" x1="565" x2="565" y1="230" y2="194.0" /><line stroke="#333333" stroke-width="1.5" x1="680" x2="680" y1="240.0" y2="230" /><line marker-end="url(#arrowhead_333333)" stroke="#333333" stroke-width="1.5" x1="680" x2="680" y1="230" y2="194.0" /><line stroke="#333333" stroke-width="1.5" x1="795" x2="795" y1="240.0" y2="230" /><line marker-end="url(#arrowhead_333333)" stroke="#333333" stroke-width="1.5" x1="795" x2="795" y1="230" y2="194.0" /><rect fill="#FFEDD5" height="26" rx="6" ry="6" stroke="#F97316" stroke-width="1.5" width="635" x="190" y="168.0" /><text dy="0.35em" fill="#1F2937" font-family="Inter, Segoe UI, Helvetica, Arial, sans-serif" font-size="11px" text-anchor="middle" x="507.5" y="181.0">All-to-All Combine</text><line marker-end="url(#arrowhead_333333)" stroke="#333333" stroke-width="1.5" x1="507.5" x2="507.5" y1="168.0" y2="140.0" /><rect fill="#F9FAFB" height="22" rx="6" ry="6" stroke="#333333" stroke-width="1.5" width="90" x="462.5" y="118.0" /><text dy="0.35em" fill="#1F2937" font-family="Inter, Segoe UI, Helvetica, Arial, sans-serif" font-size="9px" text-anchor="middle" x="507.5" y="129.0">Weighted Sum</text><line marker-end="url(#arrowhead_333333)" stroke="#333333" stroke-width="1.5" x1="507.5" x2="507.5" y1="118.0" y2="102.0" /><g><rect fill="#F3F4F6" height="40" stroke="none" width="80" x="467.5" y="62.0" /><line stroke="#1E40AF" stroke-width="1.5" x1="467.5" x2="547.5" y1="62.0" y2="62.0" /><line stroke="#1E40AF" stroke-width="1.5" x1="467.5" x2="547.5" y1="102.0" y2="102.0" /><line stroke="#DC2626" stroke-width="1.5" x1="467.5" x2="467.5" y1="62.0" y2="102.0" /><line stroke="#DC2626" stroke-width="1.5" x1="547.5" x2="547.5" y1="62.0" y2="102.0" /><text dy="0.35em" fill="#1F2937" font-family="Inter, Segoe UI, Helvetica, Arial, sans-serif" font-size="11px" text-anchor="middle" x="507.5" y="82.0">Output</text></g><text dy="0.35em" font-family="Inter, Segoe UI, Helvetica, Arial, sans-serif" font-size="11px" font-style="italic" text-anchor="start" x="553.5" y="82.0"><tspan fill="#6B7280">(</tspan><tspan fill="#DC2626">S</tspan><tspan fill="#6B7280">,</tspan><tspan fill="#6B7280"> </tspan><tspan fill="#1E40AF">D</tspan><tspan fill="#6B7280">)</tspan></text><line stroke="#333333" stroke-width="1.5" x1="507.5" x2="507.5" y1="62.0" y2="38" /><line marker-end="url(#arrowhead_333333)" stroke="#333333" stroke-width="1.5" x1="507.5" x2="892" y1="38" y2="38" /><circle cx="900" cy="38" fill="white" r="8" stroke="#333333" stroke-width="1.5" /><text dy="0.3em" fill="#333333" font-family="Inter, Segoe UI, Helvetica, Arial, sans-serif" font-size="14px" text-anchor="middle" x="900" y="38">+</text></svg>