<?xml version="1.0" encoding="utf-8" ?>
<svg baseProfile="full" height="482px" version="1.1" viewBox="0 0 540 482" width="540px" xmlns="http://www.w3.org/2000/svg" xmlns:ev="http://www.w3.org/2001/xml-events" xmlns:xlink="http://www.w3.org/1999/xlink"><defs><marker id="arrowhead" markerHeight="4" markerWidth="4" orient="auto" refX="4" refY="2.0"><polygon fill="#374151" points="0,0 4,2.0 0,4" /></marker><marker id="arrowhead_333333" markerHeight="4" markerWidth="4" orient="auto" refX="4" refY="2.0"><polygon fill="#333333" points="0,0 4,2.0 0,4" /></marker><marker id="arrowhead_3B82F6" markerHeight="4" markerWidth="4" orient="auto" refX="4" refY="2.0"><polygon fill="#3B82F6" points="0,0 4,2.0 0,4" /></marker><marker id="arrowhead_EF4444" markerHeight="4" markerWidth="4" orient="auto" refX="4" refY="2.0"><polygon fill="#EF4444" points="0,0 4,2.0 0,4" /></marker><marker id="arrowhead_6B7280" markerHeight="4" markerWidth="4" orient="auto" refX="4" refY="2.0"><polygon fill="#6B7280" points="0,0 4,2.0 0,4" /></marker></defs><rect fill="#F8F9FA" height="442" rx="6" ry="6" stroke="#6B7280" stroke-width="1.0" width="500" x="20" y="20" /><rect fill="#FEF3C7" height="362" rx="6" ry="6" stroke="#6B7280" stroke-width="1.0" width="160" x="50" y="50" /><rect fill="#E9D5FF" height="362" rx="6" ry="6" stroke="#6B7280" stroke-width="1.0" width="160" x="330" y="50" /><text dy="0.35em" fill="#1F2937" font-family="Inter, Segoe UI, Helvetica, Arial, sans-serif" font-size="13px" text-anchor="middle" x="130.0" y="39.0">On-chip (SRAM)</text><text dy="0.35em" fill="#1F2937" font-family="Inter, Segoe UI, Helvetica, Arial, sans-serif" font-size="13px" text-anchor="middle" x="410.0" y="39.0">HBM</text><g><rect fill="#EFF6FF" height="28" stroke="none" width="14" x="378.0" y="78.0" /><line stroke="#93C5FD" stroke-width="1.5" x1="378.0" x2="392.0" y1="78.0" y2="78.0" /><line stroke="#93C5FD" stroke-width="1.5" x1="378.0" x2="392.0" y1="106.0" y2="106.0" /><line stroke="#DC2626" stroke-width="1.5" x1="378.0" x2="378.0" y1="78.0" y2="106.0" /><line stroke="#DC2626" stroke-width="1.5" x1="392.0" x2="392.0" y1="78.0" y2="106.0" /></g><g><rect fill="#EFF6FF" height="28" stroke="none" width="14" x="374.0" y="82.0" /><line stroke="#93C5FD" stroke-width="1.5" x1="374.0" x2="388.0" y1="82.0" y2="82.0" /><line stroke="#93C5FD" stroke-width="1.5" x1="374.0" x2="388.0" y1="110.0" y2="110.0" /><line stroke="#DC2626" stroke-width="1.5" x1="374.0" x2="374.0" y1="82.0" y2="110.0" /><line stroke="#DC2626" stroke-width="1.5" x1="388.0" x2="388.0" y1="82.0" y2="110.0" /></g><g><rect fill="#EFF6FF" height="28" stroke="none" width="14" x="370.0" y="86.0" /><line stroke="#93C5FD" stroke-width="1.5" x1="370.0" x2="384.0" y1="86.0" y2="86.0" /><line stroke="#93C5FD" stroke-width="1.5" x1="370.0" x2="384.0" y1="114.0" y2="114.0" /><line stroke="#DC2626" stroke-width="1.5" x1="370.0" x2="370.0" y1="86.0" y2="114.0" /><line stroke="#DC2626" stroke-width="1.5" x1="384.0" x2="384.0" y1="86.0" y2="114.0" /></g><g><rect fill="#EFF6FF" height="28" stroke="none" width="14" x="366.0" y="90.0" /><line stroke="#93C5FD" stroke-width="1.5" x1="366.0" x2="380.0" y1="90.0" y2="90.0" /><line stroke="#93C5FD" stroke-width="1.5" x1="366.0" x2="380.0" y1="118.0" y2="118.0" /><line stroke="#DC2626" stroke-width="1.5" x1="366.0" x2="366.0" y1="90.0" y2="118.0" /><line stroke="#DC2626" stroke-width="1.5" x1="380.0" x2="380.0" y1="90.0" y2="118.0" /><text dy="0.35em" fill="#1F2937" font-family="Inter, Segoe UI, Helvetica, Arial, sans-serif" font-size="9px" text-anchor="middle" x="373.0" y="104.0">Q</text></g><line stroke="#A855F7" stroke-width="1.5" x1="366.0" x2="378.0" y1="90.0" y2="78.0" /><line stroke="#A855F7" stroke-width="1.5" x1="380.0" x2="392.0" y1="90.0" y2="78.0" /><line stroke="#A855F7" stroke-width="1.5" x1="380.0" x2="392.0" y1="118.0" y2="106.0" /><g><rect fill="#FFF8E1" height="28" stroke="none" width="14" x="412.0" y="78.0" /><line stroke="#93C5FD" stroke-width="1.5" x1="412.0" x2="426.0" y1="78.0" y2="78.0" /><line stroke="#93C5FD" stroke-width="1.5" x1="412.0" x2="426.0" y1="106.0" y2="106.0" /><line stroke="#DC2626" stroke-width="1.5" x1="412.0" x2="412.0" y1="78.0" y2="106.0" /><line stroke="#DC2626" stroke-width="1.5" x1="426.0" x2="426.0" y1="78.0" y2="106.0" /></g><g><rect fill="#FFF8E1" height="28" stroke="none" width="14" x="408.0" y="82.0" /><line stroke="#93C5FD" stroke-width="1.5" x1="408.0" x2="422.0" y1="82.0" y2="82.0" /><line stroke="#93C5FD" stroke-width="1.5" x1="408.0" x2="422.0" y1="110.0" y2="110.0" /><line stroke="#DC2626" stroke-width="1.5" x1="408.0" x2="408.0" y1="82.0" y2="110.0" /><line stroke="#DC2626" stroke-width="1.5" x1="422.0" x2="422.0" y1="82.0" y2="110.0" /></g><g><rect fill="#FFF8E1" height="28" stroke="none" width="14" x="404.0" y="86.0" /><line stroke="#93C5FD" stroke-width="1.5" x1="404.0" x2="418.0" y1="86.0" y2="86.0" /><line stroke="#93C5FD" stroke-width="1.5" x1="404.0" x2="418.0" y1="114.0" y2="114.0" /><line stroke="#DC2626" stroke-width="1.5" x1="404.0" x2="404.0" y1="86.0" y2="114.0" /><line stroke="#DC2626" stroke-width="1.5" x1="418.0" x2="418.0" y1="86.0" y2="114.0" /></g><g><rect fill="#FFF8E1" height="28" stroke="none" width="14" x="400.0" y="90.0" /><line stroke="#93C5FD" stroke-width="1.5" x1="400.0" x2="414.0" y1="90.0" y2="90.0" /><line stroke="#93C5FD" stroke-width="1.5" x1="400.0" x2="414.0" y1="118.0" y2="118.0" /><line stroke="#DC2626" stroke-width="1.5" x1="400.0" x2="400.0" y1="90.0" y2="118.0" /><line stroke="#DC2626" stroke-width="1.5" x1="414.0" x2="414.0" y1="90.0" y2="118.0" /><text dy="0.35em" fill="#1F2937" font-family="Inter, Segoe UI, Helvetica, Arial, sans-serif" font-size="9px" text-anchor="middle" x="407.0" y="104.0">K</text></g><line stroke="#A855F7" stroke-width="1.5" x1="400.0" x2="412.0" y1="90.0" y2="78.0" /><line stroke="#A855F7" stroke-width="1.5" x1="414.0" x2="426.0" y1="90.0" y2="78.0" /><line stroke="#A855F7" stroke-width="1.5" x1="414.0" x2="426.0" y1="118.0" y2="106.0" /><text dy="0.35em" font-family="Inter, Segoe UI, Helvetica, Arial, sans-serif" font-size="11px" font-style="italic" text-anchor="start" x="430.0" y="104.0"><tspan fill="#6B7280">(</tspan><tspan fill="#A855F7">H</tspan><tspan fill="#6B7280">,</tspan><tspan fill="#6B7280"> </tspan><tspan fill="#DC2626">S</tspan><tspan fill="#6B7280">,</tspan><tspan fill="#6B7280"> </tspan><tspan fill="#60A5FA">d</tspan><tspan baseline-shift="sub" fill="#60A5FA" font-size="8px">K</tspan><tspan fill="#6B7280">)</tspan></text><g><rect fill="#FEE2E2" height="28" stroke="none" width="14" x="395.0" y="120.0" /><line stroke="#93C5FD" stroke-width="1.5" x1="395.0" x2="409.0" y1="120.0" y2="120.0" /><line stroke="#93C5FD" stroke-width="1.5" x1="395.0" x2="409.0" y1="148.0" y2="148.0" /><line stroke="#DC2626" stroke-width="1.5" x1="395.0" x2="395.0" y1="120.0" y2="148.0" /><line stroke="#DC2626" stroke-width="1.5" x1="409.0" x2="409.0" y1="120.0" y2="148.0" /></g><g><rect fill="#FEE2E2" height="28" stroke="none" width="14" x="391.0" y="124.0" /><line stroke="#93C5FD" stroke-width="1.5" x1="391.0" x2="405.0" y1="124.0" y2="124.0" /><line stroke="#93C5FD" stroke-width="1.5" x1="391.0" x2="405.0" y1="152.0" y2="152.0" /><line stroke="#DC2626" stroke-width="1.5" x1="391.0" x2="391.0" y1="124.0" y2="152.0" /><line stroke="#DC2626" stroke-width="1.5" x1="405.0" x2="405.0" y1="124.0" y2="152.0" /></g><g><rect fill="#FEE2E2" height="28" stroke="none" width="14" x="387.0" y="128.0" /><line stroke="#93C5FD" stroke-width="1.5" x1="387.0" x2="401.0" y1="128.0" y2="128.0" /><line stroke="#93C5FD" stroke-width="1.5" x1="387.0" x2="401.0" y1="156.0" y2="156.0" /><line stroke="#DC2626" stroke-width="1.5" x1="387.0" x2="387.0" y1="128.0" y2="156.0" /><line stroke="#DC2626" stroke-width="1.5" x1="401.0" x2="401.0" y1="128.0" y2="156.0" /></g><g><rect fill="#FEE2E2" height="28" stroke="none" width="14" x="383.0" y="132.0" /><line stroke="#93C5FD" stroke-width="1.5" x1="383.0" x2="397.0" y1="132.0" y2="132.0" /><line stroke="#93C5FD" stroke-width="1.5" x1="383.0" x2="397.0" y1="160.0" y2="160.0" /><line stroke="#DC2626" stroke-width="1.5" x1="383.0" x2="383.0" y1="132.0" y2="160.0" /><line stroke="#DC2626" stroke-width="1.5" x1="397.0" x2="397.0" y1="132.0" y2="160.0" /><text dy="0.35em" fill="#1F2937" font-family="Inter, Segoe UI, Helvetica, Arial, sans-serif" font-size="9px" text-anchor="middle" x="390.0" y="146.0">V</text></g><line stroke="#A855F7" stroke-width="1.5" x1="383.0" x2="395.0" y1="132.0" y2="120.0" /><line stroke="#A855F7" stroke-width="1.5" x1="397.0" x2="409.0" y1="132.0" y2="120.0" /><line stroke="#A855F7" stroke-width="1.5" x1="397.0" x2="409.0" y1="160.0" y2="148.0" /><text dy="0.35em" font-family="Inter, Segoe UI, Helvetica, Arial, sans-serif" font-size="11px" font-style="italic" text-anchor="start" x="413.0" y="146.0"><tspan fill="#6B7280">(</tspan><tspan fill="#A855F7">H</tspan><tspan fill="#6B7280">,</tspan><tspan fill="#6B7280"> </tspan><tspan fill="#DC2626">S</tspan><tspan fill="#6B7280">,</tspan><tspan fill="#6B7280"> </tspan><tspan fill="#60A5FA">d</tspan><tspan baseline-shift="sub" fill="#60A5FA" font-size="8px">K</tspan><tspan fill="#6B7280">)</tspan></text><g><rect fill="#E8DCCF" height="28" stroke="none" width="14" x="395.0" y="332.0" /><line stroke="#93C5FD" stroke-width="1.5" x1="395.0" x2="409.0" y1="332.0" y2="332.0" /><line stroke="#93C5FD" stroke-width="1.5" x1="395.0" x2="409.0" y1="360.0" y2="360.0" /><line stroke="#DC2626" stroke-width="1.5" x1="395.0" x2="395.0" y1="332.0" y2="360.0" /><line stroke="#DC2626" stroke-width="1.5" x1="409.0" x2="409.0" y1="332.0" y2="360.0" /></g><g><rect fill="#E8DCCF" height="28" stroke="none" width="14" x="391.0" y="336.0" /><line stroke="#93C5FD" stroke-width="1.5" x1="391.0" x2="405.0" y1="336.0" y2="336.0" /><line stroke="#93C5FD" stroke-width="1.5" x1="391.0" x2="405.0" y1="364.0" y2="364.0" /><line stroke="#DC2626" stroke-width="1.5" x1="391.0" x2="391.0" y1="336.0" y2="364.0" /><line stroke="#DC2626" stroke-width="1.5" x1="405.0" x2="405.0" y1="336.0" y2="364.0" /></g><g><rect fill="#E8DCCF" height="28" stroke="none" width="14" x="387.0" y="340.0" /><line stroke="#93C5FD" stroke-width="1.5" x1="387.0" x2="401.0" y1="340.0" y2="340.0" /><line stroke="#93C5FD" stroke-width="1.5" x1="387.0" x2="401.0" y1="368.0" y2="368.0" /><line stroke="#DC2626" stroke-width="1.5" x1="387.0" x2="387.0" y1="340.0" y2="368.0" /><line stroke="#DC2626" stroke-width="1.5" x1="401.0" x2="401.0" y1="340.0" y2="368.0" /></g><g><rect fill="#E8DCCF" height="28" stroke="none" width="14" x="383.0" y="344.0" /><line stroke="#93C5FD" stroke-width="1.5" x1="383.0" x2="397.0" y1="344.0" y2="344.0" /><line stroke="#93C5FD" stroke-width="1.5" x1="383.0" x2="397.0" y1="372.0" y2="372.0" /><line stroke="#DC2626" stroke-width="1.5" x1="383.0" x2="383.0" y1="344.0" y2="372.0" /><line stroke="#DC2626" stroke-width="1.5" x1="397.0" x2="397.0" y1="344.0" y2="372.0" /><text dy="0.35em" fill="#1F2937" font-family="Inter, Segoe UI, Helvetica, Arial, sans-serif" font-size="9px" text-anchor="middle" x="390.0" y="358.0">O</text></g><line stroke="#A855F7" stroke-width="1.5" x1="383.0" x2="395.0" y1="344.0" y2="332.0" /><line stroke="#A855F7" stroke-width="1.5" x1="397.0" x2="409.0" y1="344.0" y2="332.0" /><line stroke="#A855F7" stroke-width="1.5" x1="397.0" x2="409.0" y1="372.0" y2="360.0" /><text dy="0.35em" font-family="Inter, Segoe UI, Helvetica, Arial, sans-serif" font-size="11px" font-style="italic" text-anchor="start" x="413.0" y="358.0"><tspan fill="#6B7280">(</tspan><tspan fill="#A855F7">H</tspan><tspan fill="#6B7280">,</tspan><tspan fill="#6B7280"> </tspan><tspan fill="#DC2626">S</tspan><tspan fill="#6B7280">,</tspan><tspan fill="#6B7280"> </tspan><tspan fill="#60A5FA">d</tspan><tspan baseline-shift="sub" fill="#60A5FA" font-size="8px">K</tspan><tspan fill="#6B7280">)</tspan></text><rect fill="none" height="242" rx="6" ry="6" stroke="#6B7280" stroke-dasharray="6,4" stroke-width="1.5" width="136" x="62" y="131.0" /><text dy="0.35em" fill="#6B7280" font-family="Inter, Segoe UI, Helvetica, Arial, sans-serif" font-size="9px" text-anchor="middle" x="130.0" y="143.0">for each tile (i, j)</text><g><rect fill="#EFF6FF" height="14" stroke="none" width="14" x="112.0" y="155.0" /><line stroke="#9CA3AF" stroke-width="1.5" x1="112.0" x2="126.0" y1="155.0" y2="155.0" /><line stroke="#9CA3AF" stroke-width="1.5" x1="112.0" x2="126.0" y1="169.0" y2="169.0" /><line stroke="#9CA3AF" stroke-width="1.5" x1="112.0" x2="112.0" y1="155.0" y2="169.0" /><line stroke="#9CA3AF" stroke-width="1.5" x1="126.0" x2="126.0" y1="155.0" y2="169.0" /></g><text dy="0.35em" fill="#1F2937" font-family="Inter, Segoe UI, Helvetica, Arial, sans-serif" font-size="8px" text-anchor="middle" x="119.0" y="162.0"><tspan>Q(</tspan><tspan fill="#16A34A" font-style="italic">i</tspan><tspan>)</tspan></text><g><rect fill="#FFF8E1" height="14" stroke="none" width="14" x="134.0" y="155.0" /><line stroke="#9CA3AF" stroke-width="1.5" x1="134.0" x2="148.0" y1="155.0" y2="155.0" /><line stroke="#9CA3AF" stroke-width="1.5" x1="134.0" x2="148.0" y1="169.0" y2="169.0" /><line stroke="#9CA3AF" stroke-width="1.5" x1="134.0" x2="134.0" y1="155.0" y2="169.0" /><line stroke="#9CA3AF" stroke-width="1.5" x1="148.0" x2="148.0" y1="155.0" y2="169.0" /></g><text dy="0.35em" fill="#1F2937" font-family="Inter, Segoe UI, Helvetica, Arial, sans-serif" font-size="8px" text-anchor="middle" x="141.0" y="162.0"><tspan>K(</tspan><tspan fill="#B45309" font-style="italic">j</tspan><tspan>)</tspan></text><rect fill="#F9FAFB" height="20" rx="6" ry="6" stroke="#333333" stroke-width="1.5" width="120" x="70.0" y="187.0" /><text dy="0.35em" fill="#1F2937" font-family="Inter, Segoe UI, Helvetica, Arial, sans-serif" font-size="9px" text-anchor="middle" x="130.0" y="197.0"><tspan>S(</tspan><tspan fill="#16A34A" font-style="italic">i</tspan><tspan>, </tspan><tspan fill="#B45309" font-style="italic">j</tspan><tspan>) = Q(</tspan><tspan fill="#16A34A" font-style="italic">i</tspan><tspan>) @ K(</tspan><tspan fill="#B45309" font-style="italic">j</tspan><tspan>)</tspan><tspan baseline-shift="super" font-size="8px">T</tspan></text><line marker-end="url(#arrowhead_333333)" stroke="#333333" stroke-width="1.5" x1="130.0" x2="130.0" y1="169.0" y2="187.0" /><rect fill="#F9FAFB" height="20" rx="6" ry="6" stroke="#333333" stroke-width="1.5" width="110" x="75.0" y="225.0" /><text dy="0.35em" fill="#1F2937" font-family="Inter, Segoe UI, Helvetica, Arial, sans-serif" font-size="9px" text-anchor="middle" x="130.0" y="235.0">Online Softmax</text><line marker-end="url(#arrowhead_333333)" stroke="#333333" stroke-width="1.5" x1="130.0" x2="130.0" y1="207.0" y2="225.0" /><text dy="0.35em" fill="#6B7280" font-family="Inter, Segoe UI, Helvetica, Arial, sans-serif" font-size="7px" text-anchor="middle" x="130.0" y="254.0">update m, l</text><g><rect fill="#FEE2E2" height="14" stroke="none" width="14" x="123.0" y="277.0" /><line stroke="#9CA3AF" stroke-width="1.5" x1="123.0" x2="137.0" y1="277.0" y2="277.0" /><line stroke="#9CA3AF" stroke-width="1.5" x1="123.0" x2="137.0" y1="291.0" y2="291.0" /><line stroke="#9CA3AF" stroke-width="1.5" x1="123.0" x2="123.0" y1="277.0" y2="291.0" /><line stroke="#9CA3AF" stroke-width="1.5" x1="137.0" x2="137.0" y1="277.0" y2="291.0" /></g><text dy="0.35em" fill="#1F2937" font-family="Inter, Segoe UI, Helvetica, Arial, sans-serif" font-size="8px" text-anchor="middle" x="130.0" y="284.0"><tspan>V(</tspan><tspan fill="#B45309" font-style="italic">j</tspan><tspan>)</tspan></text><line marker-end="url(#arrowhead_333333)" stroke="#333333" stroke-width="1.5" x1="130.0" x2="130.0" y1="261.0" y2="277.0" /><rect fill="#F9FAFB" height="20" rx="6" ry="6" stroke="#333333" stroke-width="1.5" width="120" x="70.0" y="309.0" /><text dy="0.35em" fill="#1F2937" font-family="Inter, Segoe UI, Helvetica, Arial, sans-serif" font-size="9px" text-anchor="middle" x="130.0" y="319.0"><tspan>O(</tspan><tspan fill="#16A34A" font-style="italic">i</tspan><tspan>) += A(</tspan><tspan fill="#16A34A" font-style="italic">i</tspan><tspan>, </tspan><tspan fill="#B45309" font-style="italic">j</tspan><tspan>) @ V(</tspan><tspan fill="#B45309" font-style="italic">j</tspan><tspan>)</tspan></text><line marker-end="url(#arrowhead_333333)" stroke="#333333" stroke-width="1.5" x1="130.0" x2="130.0" y1="291.0" y2="309.0" /><g><rect fill="#E8DCCF" height="14" stroke="none" width="14" x="123.0" y="347.0" /><line stroke="#9CA3AF" stroke-width="1.5" x1="123.0" x2="137.0" y1="347.0" y2="347.0" /><line stroke="#9CA3AF" stroke-width="1.5" x1="123.0" x2="137.0" y1="361.0" y2="361.0" /><line stroke="#9CA3AF" stroke-width="1.5" x1="123.0" x2="123.0" y1="347.0" y2="361.0" /><line stroke="#9CA3AF" stroke-width="1.5" x1="137.0" x2="137.0" y1="347.0" y2="361.0" /></g><text dy="0.35em" fill="#1F2937" font-family="Inter, Segoe UI, Helvetica, Arial, sans-serif" font-size="8px" text-anchor="middle" x="130.0" y="354.0"><tspan>O(</tspan><tspan fill="#16A34A" font-style="italic">i</tspan><tspan>)</tspan></text><line marker-end="url(#arrowhead_333333)" stroke="#333333" stroke-width="1.5" x1="130.0" x2="130.0" y1="329.0" y2="347.0" /><line marker-end="url(#arrowhead_3B82F6)" stroke="#3B82F6" stroke-width="2" x1="326" x2="214" y1="125.0" y2="125.0" /><circle cx="270.0" cy="125.0" fill="#3B82F6" r="12" stroke="white" stroke-width="1.5" /><text dy="0.35em" fill="white" font-family="Inter, Segoe UI, Helvetica, Arial, sans-serif" font-size="11px" font-weight="bold" text-anchor="middle" x="270.0" y="125.0">1</text><text dy="0.35em" fill="#3B82F6" font-family="Inter, Segoe UI, Helvetica, Arial, sans-serif" font-size="9px" text-anchor="middle" x="270.0" y="107.0">read blocks</text><line marker-end="url(#arrowhead_EF4444)" stroke="#EF4444" stroke-width="2" x1="214" x2="326" y1="358.0" y2="358.0" /><circle cx="270.0" cy="358.0" fill="#EF4444" r="12" stroke="white" stroke-width="1.5" /><text dy="0.35em" fill="white" font-family="Inter, Segoe UI, Helvetica, Arial, sans-serif" font-size="11px" font-weight="bold" text-anchor="middle" x="270.0" y="358.0">2</text><text dy="0.35em" fill="#EF4444" font-family="Inter, Segoe UI, Helvetica, Arial, sans-serif" font-size="9px" text-anchor="middle" x="270.0" y="340.0">write final O</text><text dy="0.35em" fill="#6B7280" font-family="Inter, Segoe UI, Helvetica, Arial, sans-serif" font-size="10px" text-anchor="middle" x="410.0" y="242.0">No S x S</text><text dy="0.35em" fill="#6B7280" font-family="Inter, Segoe UI, Helvetica, Arial, sans-serif" font-size="10px" text-anchor="middle" x="410.0" y="256.0">intermediates</text><text dy="0.35em" fill="#3B82F6" font-family="Inter, Segoe UI, Helvetica, Arial, sans-serif" font-size="10px" text-anchor="middle" x="270.0" y="428">HBM traffic: O(S * d) per head -- no O(S^2) intermediates</text><line stroke="#3B82F6" stroke-width="2" x1="60" x2="80" y1="446" y2="446" /><text dy="0.35em" fill="#6B7280" font-family="Inter, Segoe UI, Helvetica, Arial, sans-serif" font-size="9px" text-anchor="start" x="86" y="446">= Read from HBM</text><line stroke="#EF4444" stroke-width="2" x1="200" x2="220" y1="446" y2="446" /><text dy="0.35em" fill="#6B7280" font-family="Inter, Segoe UI, Helvetica, Arial, sans-serif" font-size="9px" text-anchor="start" x="226" y="446">= Write to HBM</text><line marker-end="url(#arrowhead_6B7280)" stroke="#6B7280" stroke-width="1.5" x1="38" x2="38" y1="60" y2="402" /><text dy="0.35em" fill="#6B7280" font-family="Inter, Segoe UI, Helvetica, Arial, sans-serif" font-size="9px" text-anchor="middle" x="38" y="52">time</text></svg>