<?xml version="1.0" encoding="utf-8" ?>
<svg baseProfile="full" height="657px" version="1.1" viewBox="0 0 716 657" width="716px" xmlns="http://www.w3.org/2000/svg" xmlns:ev="http://www.w3.org/2001/xml-events" xmlns:xlink="http://www.w3.org/1999/xlink"><defs><marker id="arrowhead" markerHeight="4" markerWidth="4" orient="auto" refX="4" refY="2.0"><polygon fill="#374151" points="0,0 4,2.0 0,4" /></marker><marker id="arrowhead_333333" markerHeight="4" markerWidth="4" orient="auto" refX="4" refY="2.0"><polygon fill="#333333" points="0,0 4,2.0 0,4" /></marker></defs><line stroke="#333333" stroke-width="1.5" x1="678.0" x2="678.0" y1="0" y2="30" /><line stroke="#333333" stroke-width="1.5" x1="678.0" x2="678.0" y1="46" y2="657" /><line stroke="#333333" stroke-width="1.5" x1="240.0" x2="678.0" y1="627.0" y2="627.0" /><line marker-end="url(#arrowhead_333333)" stroke="#333333" stroke-width="1.5" x1="240.0" x2="240.0" y1="627.0" y2="611.0" /><g><rect fill="#F3F4F6" height="40" stroke="none" width="80" x="200.0" y="571.0" /><line stroke="#1E40AF" stroke-width="1.5" x1="200.0" x2="280.0" y1="571.0" y2="571.0" /><line stroke="#1E40AF" stroke-width="1.5" x1="200.0" x2="280.0" y1="611.0" y2="611.0" /><line stroke="#DC2626" stroke-width="1.5" x1="200.0" x2="200.0" y1="571.0" y2="611.0" /><line stroke="#DC2626" stroke-width="1.5" x1="280.0" x2="280.0" y1="571.0" y2="611.0" /><text dominant-baseline="central" fill="#1F2937" font-family="Inter, Segoe UI, Helvetica, Arial, sans-serif" font-size="11px" text-anchor="middle" x="240.0" y="591.0">x</text></g><text dominant-baseline="central" fill="#6B7280" font-family="Inter, Segoe UI, Helvetica, Arial, sans-serif" font-size="11px" font-style="italic" text-anchor="start" x="286.0" y="591.0">(S, D)</text><line marker-end="url(#arrowhead_333333)" stroke="#333333" stroke-width="1.5" x1="240.0" x2="240.0" y1="571.0" y2="555.0" /><rect fill="#F9FAFB" height="22" rx="6" ry="6" stroke="#333333" stroke-width="1.5" width="48" x="216.0" y="533.0" /><text dominant-baseline="central" fill="#1F2937" font-family="Inter, Segoe UI, Helvetica, Arial, sans-serif" font-size="9px" text-anchor="middle" x="240.0" y="544.0">Norm</text><line marker-end="url(#arrowhead_333333)" stroke="#333333" stroke-width="1.5" x1="240.0" x2="240.0" y1="533.0" y2="517.0" /><g><rect fill="#F3F4F6" height="40" stroke="none" width="80" x="200.0" y="477.0" /><line stroke="#1E40AF" stroke-width="1.5" x1="200.0" x2="280.0" y1="477.0" y2="477.0" /><line stroke="#1E40AF" stroke-width="1.5" x1="200.0" x2="280.0" y1="517.0" y2="517.0" /><line stroke="#DC2626" stroke-width="1.5" x1="200.0" x2="200.0" y1="477.0" y2="517.0" /><line stroke="#DC2626" stroke-width="1.5" x1="280.0" x2="280.0" y1="477.0" y2="517.0" /><text dominant-baseline="central" fill="#1F2937" font-family="Inter, Segoe UI, Helvetica, Arial, sans-serif" font-size="11px" text-anchor="middle" x="240.0" y="497.0">x_norm</text></g><text dominant-baseline="central" fill="#6B7280" font-family="Inter, Segoe UI, Helvetica, Arial, sans-serif" font-size="11px" font-style="italic" text-anchor="start" x="286.0" y="497.0">(S, D)</text><line stroke="#333333" stroke-width="1.5" x1="240.0" x2="240.0" y1="477.0" y2="461.0" /><line stroke="#333333" stroke-width="1.5" x1="90.0" x2="390.0" y1="461.0" y2="461.0" /><line marker-end="url(#arrowhead_333333)" stroke="#333333" stroke-width="1.5" x1="90.0" x2="90.0" y1="461.0" y2="416.0" /><line marker-end="url(#arrowhead_333333)" stroke="#333333" stroke-width="1.5" x1="390.0" x2="390.0" y1="461.0" y2="416.0" /><rect fill="#F9FAFB" height="22" rx="6" ry="6" stroke="#333333" stroke-width="1.5" width="48" x="66.0" y="394.0" /><text dominant-baseline="central" fill="#1F2937" font-family="Inter, Segoe UI, Helvetica, Arial, sans-serif" font-size="9px" text-anchor="middle" x="90.0" y="405.0">MatMul</text><rect fill="#F9FAFB" height="22" rx="6" ry="6" stroke="#333333" stroke-width="1.5" width="48" x="366.0" y="394.0" /><text dominant-baseline="central" fill="#1F2937" font-family="Inter, Segoe UI, Helvetica, Arial, sans-serif" font-size="9px" text-anchor="middle" x="390.0" y="405.0">MatMul</text><g><rect fill="#F3E8FF" height="80" stroke="none" width="120" x="190.0" y="365.0" /><line stroke="#059669" stroke-width="1.5" x1="190.0" x2="310.0" y1="365.0" y2="365.0" /><line stroke="#059669" stroke-width="1.5" x1="190.0" x2="310.0" y1="445.0" y2="445.0" /><line stroke="#1E40AF" stroke-width="1.5" x1="190.0" x2="190.0" y1="365.0" y2="445.0" /><line stroke="#1E40AF" stroke-width="1.5" x1="310.0" x2="310.0" y1="365.0" y2="445.0" /></g><text dominant-baseline="central" fill="#1F2937" font-family="Inter, Segoe UI, Helvetica, Arial, sans-serif" font-size="11px" text-anchor="middle" x="250.0" y="405.0">W<tspan baseline-shift="sub" font-size="8px">Up</tspan></text><text dominant-baseline="central" fill="#6B7280" font-family="Inter, Segoe UI, Helvetica, Arial, sans-serif" font-size="11px" font-style="italic" text-anchor="start" x="316.0" y="405.0">(D, F)</text><line marker-end="url(#arrowhead_333333)" stroke="#333333" stroke-width="1.5" x1="190.0" x2="114.0" y1="405.0" y2="405.0" /><g><rect fill="#F3E8FF" height="80" stroke="none" width="120" x="490.0" y="365.0" /><line stroke="#059669" stroke-width="1.5" x1="490.0" x2="610.0" y1="365.0" y2="365.0" /><line stroke="#059669" stroke-width="1.5" x1="490.0" x2="610.0" y1="445.0" y2="445.0" /><line stroke="#1E40AF" stroke-width="1.5" x1="490.0" x2="490.0" y1="365.0" y2="445.0" /><line stroke="#1E40AF" stroke-width="1.5" x1="610.0" x2="610.0" y1="365.0" y2="445.0" /></g><text dominant-baseline="central" fill="#1F2937" font-family="Inter, Segoe UI, Helvetica, Arial, sans-serif" font-size="11px" text-anchor="middle" x="550.0" y="405.0">W<tspan baseline-shift="sub" font-size="8px">Gate</tspan></text><text dominant-baseline="central" fill="#6B7280" font-family="Inter, Segoe UI, Helvetica, Arial, sans-serif" font-size="11px" font-style="italic" text-anchor="start" x="616.0" y="405.0">(D, F)</text><line marker-end="url(#arrowhead_333333)" stroke="#333333" stroke-width="1.5" x1="490.0" x2="414.0" y1="405.0" y2="405.0" /><line marker-end="url(#arrowhead_333333)" stroke="#333333" stroke-width="1.5" x1="90.0" x2="90.0" y1="394.0" y2="378.0" /><g><rect fill="#DBEAFE" height="40" stroke="none" width="120" x="30.0" y="338.0" /><line stroke="#059669" stroke-width="1.5" x1="30.0" x2="150.0" y1="338.0" y2="338.0" /><line stroke="#059669" stroke-width="1.5" x1="30.0" x2="150.0" y1="378.0" y2="378.0" /><line stroke="#DC2626" stroke-width="1.5" x1="30.0" x2="30.0" y1="338.0" y2="378.0" /><line stroke="#DC2626" stroke-width="1.5" x1="150.0" x2="150.0" y1="338.0" y2="378.0" /><text dominant-baseline="central" fill="#1F2937" font-family="Inter, Segoe UI, Helvetica, Arial, sans-serif" font-size="11px" text-anchor="middle" x="90.0" y="358.0">Up proj</text></g><text dominant-baseline="central" fill="#6B7280" font-family="Inter, Segoe UI, Helvetica, Arial, sans-serif" font-size="11px" font-style="italic" text-anchor="start" x="156.0" y="358.0">(S, F)</text><line stroke="#333333" stroke-width="1.5" x1="90.0" x2="90.0" y1="338.0" y2="220.0" /><line marker-end="url(#arrowhead_333333)" stroke="#333333" stroke-width="1.5" x1="390.0" x2="390.0" y1="394.0" y2="378.0" /><g><rect fill="#D1FAE5" height="40" stroke="none" width="120" x="330.0" y="338.0" /><line stroke="#059669" stroke-width="1.5" x1="330.0" x2="450.0" y1="338.0" y2="338.0" /><line stroke="#059669" stroke-width="1.5" x1="330.0" x2="450.0" y1="378.0" y2="378.0" /><line stroke="#DC2626" stroke-width="1.5" x1="330.0" x2="330.0" y1="338.0" y2="378.0" /><line stroke="#DC2626" stroke-width="1.5" x1="450.0" x2="450.0" y1="338.0" y2="378.0" /><text dominant-baseline="central" fill="#1F2937" font-family="Inter, Segoe UI, Helvetica, Arial, sans-serif" font-size="11px" text-anchor="middle" x="390.0" y="358.0">Gate proj</text></g><text dominant-baseline="central" fill="#6B7280" font-family="Inter, Segoe UI, Helvetica, Arial, sans-serif" font-size="11px" font-style="italic" text-anchor="start" x="456.0" y="358.0">(S, F)</text><line marker-end="url(#arrowhead_333333)" stroke="#333333" stroke-width="1.5" x1="390.0" x2="390.0" y1="338.0" y2="322.0" /><rect fill="#F9FAFB" height="22" rx="6" ry="6" stroke="#333333" stroke-width="1.5" width="48" x="366.0" y="300.0" /><text dominant-baseline="central" fill="#1F2937" font-family="Inter, Segoe UI, Helvetica, Arial, sans-serif" font-size="9px" text-anchor="middle" x="390.0" y="311.0">SiLU</text><line marker-end="url(#arrowhead_333333)" stroke="#333333" stroke-width="1.5" x1="390.0" x2="390.0" y1="300.0" y2="284.0" /><g><rect fill="#D1FAE5" height="40" stroke="none" width="120" x="330.0" y="244.0" /><line stroke="#059669" stroke-width="1.5" x1="330.0" x2="450.0" y1="244.0" y2="244.0" /><line stroke="#059669" stroke-width="1.5" x1="330.0" x2="450.0" y1="284.0" y2="284.0" /><line stroke="#DC2626" stroke-width="1.5" x1="330.0" x2="330.0" y1="244.0" y2="284.0" /><line stroke="#DC2626" stroke-width="1.5" x1="450.0" x2="450.0" y1="244.0" y2="284.0" /><text dominant-baseline="central" fill="#1F2937" font-family="Inter, Segoe UI, Helvetica, Arial, sans-serif" font-size="11px" text-anchor="middle" x="390.0" y="264.0">Gate val</text></g><text dominant-baseline="central" fill="#6B7280" font-family="Inter, Segoe UI, Helvetica, Arial, sans-serif" font-size="11px" font-style="italic" text-anchor="start" x="456.0" y="264.0">(S, F)</text><circle cx="90.0" cy="220.0" fill="white" r="8" stroke="#333333" stroke-width="1.5" /><text dominant-baseline="central" fill="#333333" font-family="Inter, Segoe UI, Helvetica, Arial, sans-serif" font-size="18px" text-anchor="middle" x="90.0" y="219.0">·</text><line stroke="#333333" stroke-width="1.5" x1="390.0" x2="390.0" y1="244.0" y2="220.0" /><line marker-end="url(#arrowhead_333333)" stroke="#333333" stroke-width="1.5" x1="390.0" x2="98.0" y1="220.0" y2="220.0" /><line marker-end="url(#arrowhead_333333)" stroke="#333333" stroke-width="1.5" x1="90.0" x2="90.0" y1="212.0" y2="196.0" /><g><rect fill="#DBEAFE" height="40" stroke="none" width="120" x="30.0" y="156.0" /><line stroke="#059669" stroke-width="1.5" x1="30.0" x2="150.0" y1="156.0" y2="156.0" /><line stroke="#059669" stroke-width="1.5" x1="30.0" x2="150.0" y1="196.0" y2="196.0" /><line stroke="#DC2626" stroke-width="1.5" x1="30.0" x2="30.0" y1="156.0" y2="196.0" /><line stroke="#DC2626" stroke-width="1.5" x1="150.0" x2="150.0" y1="156.0" y2="196.0" /><text dominant-baseline="central" fill="#1F2937" font-family="Inter, Segoe UI, Helvetica, Arial, sans-serif" font-size="11px" text-anchor="middle" x="90.0" y="176.0">Gated up proj</text></g><text dominant-baseline="central" fill="#6B7280" font-family="Inter, Segoe UI, Helvetica, Arial, sans-serif" font-size="11px" font-style="italic" text-anchor="start" x="156.0" y="176.0">(S, F)</text><line marker-end="url(#arrowhead_333333)" stroke="#333333" stroke-width="1.5" x1="90.0" x2="90.0" y1="156.0" y2="140.0" /><rect fill="#F9FAFB" height="22" rx="6" ry="6" stroke="#333333" stroke-width="1.5" width="48" x="66.0" y="118.0" /><text dominant-baseline="central" fill="#1F2937" font-family="Inter, Segoe UI, Helvetica, Arial, sans-serif" font-size="9px" text-anchor="middle" x="90.0" y="129.0">MatMul</text><g><rect fill="#F3E8FF" height="120" stroke="none" width="80" x="190.0" y="69.0" /><line stroke="#1E40AF" stroke-width="1.5" x1="190.0" x2="270.0" y1="69.0" y2="69.0" /><line stroke="#1E40AF" stroke-width="1.5" x1="190.0" x2="270.0" y1="189.0" y2="189.0" /><line stroke="#059669" stroke-width="1.5" x1="190.0" x2="190.0" y1="69.0" y2="189.0" /><line stroke="#059669" stroke-width="1.5" x1="270.0" x2="270.0" y1="69.0" y2="189.0" /></g><text dominant-baseline="central" fill="#1F2937" font-family="Inter, Segoe UI, Helvetica, Arial, sans-serif" font-size="11px" text-anchor="middle" x="230.0" y="129.0">W<tspan baseline-shift="sub" font-size="8px">Down</tspan></text><text dominant-baseline="central" fill="#6B7280" font-family="Inter, Segoe UI, Helvetica, Arial, sans-serif" font-size="11px" font-style="italic" text-anchor="start" x="276.0" y="129.0">(F, D)</text><line marker-end="url(#arrowhead_333333)" stroke="#333333" stroke-width="1.5" x1="190.0" x2="114.0" y1="129.0" y2="129.0" /><line marker-end="url(#arrowhead_333333)" stroke="#333333" stroke-width="1.5" x1="90.0" x2="90.0" y1="118.0" y2="102.0" /><g><rect fill="#F3F4F6" height="40" stroke="none" width="80" x="50.0" y="62.0" /><line stroke="#1E40AF" stroke-width="1.5" x1="50.0" x2="130.0" y1="62.0" y2="62.0" /><line stroke="#1E40AF" stroke-width="1.5" x1="50.0" x2="130.0" y1="102.0" y2="102.0" /><line stroke="#DC2626" stroke-width="1.5" x1="50.0" x2="50.0" y1="62.0" y2="102.0" /><line stroke="#DC2626" stroke-width="1.5" x1="130.0" x2="130.0" y1="62.0" y2="102.0" /><text dominant-baseline="central" fill="#1F2937" font-family="Inter, Segoe UI, Helvetica, Arial, sans-serif" font-size="11px" text-anchor="middle" x="90.0" y="82.0">Output</text></g><text dominant-baseline="central" fill="#6B7280" font-family="Inter, Segoe UI, Helvetica, Arial, sans-serif" font-size="11px" font-style="italic" text-anchor="start" x="136.0" y="82.0">(S, D)</text><line stroke="#333333" stroke-width="1.5" x1="90.0" x2="90.0" y1="62.0" y2="38" /><line marker-end="url(#arrowhead_333333)" stroke="#333333" stroke-width="1.5" x1="90.0" x2="670.0" y1="38" y2="38" /><circle cx="678.0" cy="38" fill="white" r="8" stroke="#333333" stroke-width="1.5" /><text dominant-baseline="central" fill="#333333" font-family="Inter, Segoe UI, Helvetica, Arial, sans-serif" font-size="14px" text-anchor="middle" x="678.0" y="37">+</text></svg>