<?xml version="1.0" encoding="utf-8" ?>
<svg baseProfile="full" height="424px" version="1.1" viewBox="0 0 718 424" width="718px" xmlns="http://www.w3.org/2000/svg" xmlns:ev="http://www.w3.org/2001/xml-events" xmlns:xlink="http://www.w3.org/1999/xlink"><defs><marker id="arrowhead" markerHeight="4" markerWidth="4" orient="auto" refX="4" refY="2.0"><polygon fill="#374151" points="0,0 4,2.0 0,4" /></marker><marker id="arrowhead_3B82F6" markerHeight="4" markerWidth="4" orient="auto" refX="4" refY="2.0"><polygon fill="#3B82F6" points="0,0 4,2.0 0,4" /></marker><linearGradient id="arrow_gradient" x1="0%" x2="0%" y1="0%" y2="100%"><stop offset="0%" stop-color="#228B22" stop-opacity="0.7" /><stop offset="100%" stop-color="#8B4513" stop-opacity="0.7" /></linearGradient></defs><rect fill="#FFFFFF" height="384" rx="18" ry="18" stroke="#6B7280" stroke-dasharray="8,4" stroke-width="2" width="566" x="20" y="20" /><text dominant-baseline="central" fill="#6B7280" font-family="Inter, Segoe UI, Helvetica, Arial, sans-serif" font-size="16px" text-anchor="middle" x="303.0" y="34">GPU Card</text><rect fill="#F8FAFC" height="270" rx="12" ry="12" stroke="#1E3A5F" stroke-width="2" width="538" x="34" y="48" /><text dominant-baseline="central" fill="#1F2937" font-family="Inter, Segoe UI, Helvetica, Arial, sans-serif" font-size="16px" text-anchor="middle" x="303.0" y="64">GPU Chip</text><rect fill="#F3F4F6" height="154" rx="6" ry="6" stroke="#6B7280" stroke-width="1" width="130" x="54" y="78" /><text dominant-baseline="central" fill="#1F2937" font-family="Inter, Segoe UI, Helvetica, Arial, sans-serif" font-size="11px" text-anchor="middle" x="119.0" y="91.0">SM 0</text><rect fill="#FECACA" height="28" rx="6" ry="6" stroke="#6B7280" stroke-width="1.5" width="110" x="64.0" y="110" /><text dominant-baseline="central" fill="#1F2937" font-family="Inter, Segoe UI, Helvetica, Arial, sans-serif" font-size="11px" text-anchor="middle" x="119.0" y="124.0">Compute Cores</text><rect fill="#DBEAFE" height="28" rx="6" ry="6" stroke="#6B7280" stroke-width="1.5" width="110" x="64.0" y="144" /><text dominant-baseline="central" fill="#1F2937" font-family="Inter, Segoe UI, Helvetica, Arial, sans-serif" font-size="11px" text-anchor="middle" x="119.0" y="158.0">Registers  256 KB</text><line marker-end="url(#arrowhead_3B82F6)" stroke="#3B82F6" stroke-width="1.5" x1="115.0" x2="115.0" y1="175" y2="191" /><line marker-end="url(#arrowhead_3B82F6)" stroke="#3B82F6" stroke-width="1.5" x1="123.0" x2="123.0" y1="191" y2="175" /><rect fill="#FEF3C7" height="28" rx="6" ry="6" stroke="#6B7280" stroke-width="1.5" width="110" x="64.0" y="194" /><text dominant-baseline="central" fill="#1F2937" font-family="Inter, Segoe UI, Helvetica, Arial, sans-serif" font-size="11px" text-anchor="middle" x="119.0" y="208.0">SRAM  228 KB</text><rect fill="#F3F4F6" height="154" rx="6" ry="6" stroke="#6B7280" stroke-width="1" width="130" x="200" y="78" /><text dominant-baseline="central" fill="#1F2937" font-family="Inter, Segoe UI, Helvetica, Arial, sans-serif" font-size="11px" text-anchor="middle" x="265.0" y="91.0">SM 1</text><rect fill="#FECACA" height="28" rx="6" ry="6" stroke="#6B7280" stroke-width="1.5" width="110" x="210.0" y="110" /><text dominant-baseline="central" fill="#1F2937" font-family="Inter, Segoe UI, Helvetica, Arial, sans-serif" font-size="11px" text-anchor="middle" x="265.0" y="124.0">Compute Cores</text><rect fill="#DBEAFE" height="28" rx="6" ry="6" stroke="#6B7280" stroke-width="1.5" width="110" x="210.0" y="144" /><text dominant-baseline="central" fill="#1F2937" font-family="Inter, Segoe UI, Helvetica, Arial, sans-serif" font-size="11px" text-anchor="middle" x="265.0" y="158.0">Registers  256 KB</text><line marker-end="url(#arrowhead_3B82F6)" stroke="#3B82F6" stroke-width="1.5" x1="261.0" x2="261.0" y1="175" y2="191" /><line marker-end="url(#arrowhead_3B82F6)" stroke="#3B82F6" stroke-width="1.5" x1="269.0" x2="269.0" y1="191" y2="175" /><rect fill="#FEF3C7" height="28" rx="6" ry="6" stroke="#6B7280" stroke-width="1.5" width="110" x="210.0" y="194" /><text dominant-baseline="central" fill="#1F2937" font-family="Inter, Segoe UI, Helvetica, Arial, sans-serif" font-size="11px" text-anchor="middle" x="265.0" y="208.0">SRAM  228 KB</text><text dominant-baseline="central" fill="#6B7280" font-family="Inter, Segoe UI, Helvetica, Arial, sans-serif" font-size="20px" text-anchor="middle" x="376.0" y="91.0">. . .</text><text dominant-baseline="central" fill="#6B7280" font-family="Inter, Segoe UI, Helvetica, Arial, sans-serif" font-size="11px" text-anchor="middle" x="376.0" y="158.0">~33 MB total</text><text dominant-baseline="central" fill="#3B82F6" font-family="Inter, Segoe UI, Helvetica, Arial, sans-serif" font-size="11px" text-anchor="middle" x="376.0" y="183.0">~33 TB/s</text><text dominant-baseline="central" fill="#6B7280" font-family="Inter, Segoe UI, Helvetica, Arial, sans-serif" font-size="11px" text-anchor="middle" x="376.0" y="208.0">~30 MB total</text><rect fill="#F3F4F6" height="154" rx="6" ry="6" stroke="#6B7280" stroke-width="1" width="130" x="422" y="78" /><text dominant-baseline="central" fill="#1F2937" font-family="Inter, Segoe UI, Helvetica, Arial, sans-serif" font-size="11px" text-anchor="middle" x="487.0" y="91.0">SM 131</text><rect fill="#FECACA" height="28" rx="6" ry="6" stroke="#6B7280" stroke-width="1.5" width="110" x="432.0" y="110" /><text dominant-baseline="central" fill="#1F2937" font-family="Inter, Segoe UI, Helvetica, Arial, sans-serif" font-size="11px" text-anchor="middle" x="487.0" y="124.0">Compute Cores</text><rect fill="#DBEAFE" height="28" rx="6" ry="6" stroke="#6B7280" stroke-width="1.5" width="110" x="432.0" y="144" /><text dominant-baseline="central" fill="#1F2937" font-family="Inter, Segoe UI, Helvetica, Arial, sans-serif" font-size="11px" text-anchor="middle" x="487.0" y="158.0">Registers  256 KB</text><line marker-end="url(#arrowhead_3B82F6)" stroke="#3B82F6" stroke-width="1.5" x1="483.0" x2="483.0" y1="175" y2="191" /><line marker-end="url(#arrowhead_3B82F6)" stroke="#3B82F6" stroke-width="1.5" x1="491.0" x2="491.0" y1="191" y2="175" /><rect fill="#FEF3C7" height="28" rx="6" ry="6" stroke="#6B7280" stroke-width="1.5" width="110" x="432.0" y="194" /><text dominant-baseline="central" fill="#1F2937" font-family="Inter, Segoe UI, Helvetica, Arial, sans-serif" font-size="11px" text-anchor="middle" x="487.0" y="208.0">SRAM  228 KB</text><line marker-end="url(#arrowhead_3B82F6)" stroke="#3B82F6" stroke-width="1.5" x1="299.0" x2="299.0" y1="236" y2="264" /><line marker-end="url(#arrowhead_3B82F6)" stroke="#3B82F6" stroke-width="1.5" x1="307.0" x2="307.0" y1="264" y2="236" /><text dominant-baseline="central" fill="#3B82F6" font-family="Inter, Segoe UI, Helvetica, Arial, sans-serif" font-size="11px" text-anchor="start" x="317.0" y="250.0">~33 TB/s</text><rect fill="#D1FAE5" height="36" rx="6" ry="6" stroke="#6B7280" stroke-width="1.5" width="498" x="54" y="268" /><text dominant-baseline="central" fill="#1F2937" font-family="Inter, Segoe UI, Helvetica, Arial, sans-serif" font-size="14px" text-anchor="middle" x="303.0" y="286.0">L2 Cache  ·  50 MB</text><line marker-end="url(#arrowhead_3B82F6)" stroke="#3B82F6" stroke-width="1.5" x1="299.0" x2="299.0" y1="322" y2="350" /><line marker-end="url(#arrowhead_3B82F6)" stroke="#3B82F6" stroke-width="1.5" x1="307.0" x2="307.0" y1="350" y2="322" /><text dominant-baseline="central" fill="#3B82F6" font-family="Inter, Segoe UI, Helvetica, Arial, sans-serif" font-size="11px" text-anchor="start" x="317.0" y="336.0">3.35 TB/s</text><rect fill="#E9D5FF" height="36" rx="6" ry="6" stroke="#6B7280" stroke-width="1.5" width="498" x="54" y="354" /><text dominant-baseline="central" fill="#1F2937" font-family="Inter, Segoe UI, Helvetica, Arial, sans-serif" font-size="14px" text-anchor="middle" x="303.0" y="372.0">HBM3  ·  80 GB</text><polygon fill="#228B22" points="614,144 600,160 628,160" /><rect fill="url(#arrow_gradient)" height="214" width="14" x="607.0" y="160" /><polygon fill="#8B4513" points="614,390 600,374 628,374" /><text dominant-baseline="central" fill="#6B7280" font-family="Inter, Segoe UI, Helvetica, Arial, sans-serif" font-size="14px" text-anchor="start" x="636" y="151.0">Faster</text><text dominant-baseline="central" fill="#6B7280" font-family="Inter, Segoe UI, Helvetica, Arial, sans-serif" font-size="14px" text-anchor="start" x="636" y="165.0">Smaller</text><text dominant-baseline="central" fill="#6B7280" font-family="Inter, Segoe UI, Helvetica, Arial, sans-serif" font-size="14px" text-anchor="start" x="636" y="365.0">Slower</text><text dominant-baseline="central" fill="#6B7280" font-family="Inter, Segoe UI, Helvetica, Arial, sans-serif" font-size="14px" text-anchor="start" x="636" y="379.0">Larger</text></svg>