<?xml version="1.0" encoding="utf-8" ?>
<svg baseProfile="full" height="393.0px" version="1.1" viewBox="0 0 790 393.0" width="790px" xmlns="http://www.w3.org/2000/svg" xmlns:ev="http://www.w3.org/2001/xml-events" xmlns:xlink="http://www.w3.org/1999/xlink"><defs><marker id="arrowhead" markerHeight="4" markerWidth="4" orient="auto" refX="4" refY="2.0"><polygon fill="#374151" points="0,0 4,2.0 0,4" /></marker><marker id="arrowhead_333333" markerHeight="4" markerWidth="4" orient="auto" refX="4" refY="2.0"><polygon fill="#333333" points="0,0 4,2.0 0,4" /></marker></defs><text dominant-baseline="central" fill="#1F2937" font-family="Inter, Segoe UI, Helvetica, Arial, sans-serif" font-size="14px" text-anchor="middle" x="140" y="20">Output</text><text dominant-baseline="central" fill="#1F2937" font-family="Inter, Segoe UI, Helvetica, Arial, sans-serif" font-size="14px" text-anchor="middle" x="140" y="35">Probabilities</text><line marker-end="url(#arrowhead_333333)" stroke="#333333" stroke-width="1.5" x1="140" x2="140" y1="62" y2="50" /><rect fill="#cce7cf" height="18" rx="5" ry="5" stroke="#333333" stroke-width="1.5" width="100" x="90.0" y="62" /><text dominant-baseline="central" fill="#1F2937" font-family="Inter, Segoe UI, Helvetica, Arial, sans-serif" font-size="11px" text-anchor="middle" x="140.0" y="71.0">Softmax</text><line marker-end="url(#arrowhead_333333)" stroke="#333333" stroke-width="1.5" x1="140" x2="140" y1="92" y2="80" /><rect fill="#dbdfef" height="18" rx="5" ry="5" stroke="#333333" stroke-width="1.5" width="100" x="90.0" y="92" /><text dominant-baseline="central" fill="#1F2937" font-family="Inter, Segoe UI, Helvetica, Arial, sans-serif" font-size="11px" text-anchor="middle" x="140.0" y="101.0">Linear</text><line marker-end="url(#arrowhead_333333)" stroke="#333333" stroke-width="1.5" x1="140" x2="140" y1="120" y2="110" /><circle cx="140" cy="128" fill="white" r="8" stroke="#333333" stroke-width="1.5" /><text dominant-baseline="central" fill="#333333" font-family="Inter, Segoe UI, Helvetica, Arial, sans-serif" font-size="14px" text-anchor="middle" x="140" y="127">+</text><rect fill="#c2e8f7" height="26" rx="6" ry="6" stroke="#333333" stroke-width="1.5" width="100" x="20.0" y="134" /><text dominant-baseline="central" fill="#1F2937" font-family="Inter, Segoe UI, Helvetica, Arial, sans-serif" font-size="11px" text-anchor="middle" x="70" y="140.5">Feed</text><text dominant-baseline="central" fill="#1F2937" font-family="Inter, Segoe UI, Helvetica, Arial, sans-serif" font-size="11px" text-anchor="middle" x="70" y="153.5">Forward</text><line stroke="#333333" stroke-width="1.5" x1="70" x2="70" y1="134" y2="128" /><line marker-end="url(#arrowhead_333333)" stroke="#333333" stroke-width="1.5" x1="70" x2="132" y1="128" y2="128" /><rect fill="#f2f4c1" height="18" rx="5" ry="5" stroke="#333333" stroke-width="1.5" width="100" x="20.0" y="166" /><text dominant-baseline="central" fill="#1F2937" font-family="Inter, Segoe UI, Helvetica, Arial, sans-serif" font-size="11px" text-anchor="middle" x="70.0" y="175.0">Pre-Norm</text><line marker-end="url(#arrowhead_333333)" stroke="#333333" stroke-width="1.5" x1="70" x2="70" y1="166" y2="160" /><line stroke="#333333" stroke-width="1.5" x1="140" x2="140" y1="136" y2="190" /><line stroke="#333333" stroke-width="1.5" x1="70" x2="140" y1="190" y2="190" /><line stroke="#333333" stroke-width="1.5" x1="70" x2="70" y1="190" y2="184" /><line stroke="#333333" stroke-width="1.5" x1="140" x2="140" y1="190" y2="200" /><circle cx="140" cy="208" fill="white" r="8" stroke="#333333" stroke-width="1.5" /><text dominant-baseline="central" fill="#333333" font-family="Inter, Segoe UI, Helvetica, Arial, sans-serif" font-size="14px" text-anchor="middle" x="140" y="207">+</text><rect fill="#ffe2bb" height="38" rx="6" ry="6" stroke="#333333" stroke-width="1.5" width="100" x="20.0" y="214" /><text dominant-baseline="central" fill="#1F2937" font-family="Inter, Segoe UI, Helvetica, Arial, sans-serif" font-size="11px" text-anchor="middle" x="70" y="220.0">Masked</text><text dominant-baseline="central" fill="#1F2937" font-family="Inter, Segoe UI, Helvetica, Arial, sans-serif" font-size="11px" text-anchor="middle" x="70" y="233.0">Multi-Head</text><text dominant-baseline="central" fill="#1F2937" font-family="Inter, Segoe UI, Helvetica, Arial, sans-serif" font-size="11px" text-anchor="middle" x="70" y="246.0">Attention</text><line stroke="#333333" stroke-width="1.5" x1="70" x2="70" y1="214" y2="208" /><line marker-end="url(#arrowhead_333333)" stroke="#333333" stroke-width="1.5" x1="70" x2="132" y1="208" y2="208" /><line stroke="#333333" stroke-width="1.5" x1="70" x2="32.5" y1="261.0" y2="261.0" /><line stroke="#333333" stroke-width="1.5" x1="70" x2="107.5" y1="261.0" y2="261.0" /><line marker-end="url(#arrowhead_333333)" stroke="#333333" stroke-width="1.5" x1="32.5" x2="32.5" y1="261.0" y2="252" /><line marker-end="url(#arrowhead_333333)" stroke="#333333" stroke-width="1.5" x1="107.5" x2="107.5" y1="261.0" y2="252" /><rect fill="#f2f4c1" height="18" rx="5" ry="5" stroke="#333333" stroke-width="1.5" width="100" x="20.0" y="267.0" /><text dominant-baseline="central" fill="#1F2937" font-family="Inter, Segoe UI, Helvetica, Arial, sans-serif" font-size="11px" text-anchor="middle" x="70.0" y="276.0">Pre-Norm</text><line marker-end="url(#arrowhead_333333)" stroke="#333333" stroke-width="1.5" x1="70" x2="70" y1="267.0" y2="252" /><line stroke="#333333" stroke-width="1.5" x1="140" x2="140" y1="216" y2="291.0" /><line stroke="#333333" stroke-width="1.5" x1="70" x2="140" y1="291.0" y2="291.0" /><line stroke="#333333" stroke-width="1.5" x1="70" x2="70" y1="291.0" y2="285.0" /><line stroke="#333333" stroke-width="1.5" x1="140" x2="140" y1="291.0" y2="309.0" /><circle cx="140" cy="309.0" fill="white" r="8" stroke="#333333" stroke-width="1.5" /><text dominant-baseline="central" fill="#333333" font-family="Inter, Segoe UI, Helvetica, Arial, sans-serif" font-size="14px" text-anchor="middle" x="140" y="308.0">+</text><text dominant-baseline="central" fill="#333333" font-family="Inter, Segoe UI, Helvetica, Arial, sans-serif" font-size="11px" text-anchor="middle" x="70" y="303.0">Positional</text><text dominant-baseline="central" fill="#333333" font-family="Inter, Segoe UI, Helvetica, Arial, sans-serif" font-size="11px" text-anchor="middle" x="70" y="319.0">Encoding</text><path d="M110,309.0 q8,-8 16,0 q8,8 16,0" fill="none" stroke="#333333" stroke-width="1.2" /><line marker-end="url(#arrowhead_333333)" stroke="#333333" stroke-width="1.5" x1="146" x2="130" y1="309.0" y2="309.0" /><line marker-end="url(#arrowhead_333333)" stroke="#333333" stroke-width="1.5" x1="140" x2="140" y1="329.0" y2="317.0" /><rect fill="#fce0e1" height="26" rx="5" ry="5" stroke="#333333" stroke-width="1.5" width="100" x="90.0" y="329.0" /><text dominant-baseline="central" fill="#1F2937" font-family="Inter, Segoe UI, Helvetica, Arial, sans-serif" font-size="11px" text-anchor="middle" x="140.0" y="342.0">Output Embedding</text><line marker-end="url(#arrowhead_333333)" stroke="#333333" stroke-width="1.5" x1="140" x2="140" y1="367.0" y2="355.0" /><text dominant-baseline="central" fill="#1F2937" font-family="Inter, Segoe UI, Helvetica, Arial, sans-serif" font-size="14px" text-anchor="middle" x="140" y="373.0">Inputs</text><text dominant-baseline="central" fill="#1F2937" font-family="Inter, Segoe UI, Helvetica, Arial, sans-serif" font-size="14px" text-anchor="middle" x="300" y="20">Output</text><text dominant-baseline="central" fill="#1F2937" font-family="Inter, Segoe UI, Helvetica, Arial, sans-serif" font-size="14px" text-anchor="middle" x="300" y="35">Probabilities</text><line marker-end="url(#arrowhead_333333)" stroke="#333333" stroke-width="1.5" x1="300" x2="300" y1="62" y2="50" /><rect fill="#cce7cf" height="18" rx="5" ry="5" stroke="#333333" stroke-width="1.5" width="100" x="250.0" y="62" /><text dominant-baseline="central" fill="#1F2937" font-family="Inter, Segoe UI, Helvetica, Arial, sans-serif" font-size="11px" text-anchor="middle" x="300.0" y="71.0">Softmax</text><line marker-end="url(#arrowhead_333333)" stroke="#333333" stroke-width="1.5" x1="300" x2="300" y1="92" y2="80" /><rect fill="#dbdfef" height="18" rx="5" ry="5" stroke="#333333" stroke-width="1.5" width="100" x="250.0" y="92" /><text dominant-baseline="central" fill="#1F2937" font-family="Inter, Segoe UI, Helvetica, Arial, sans-serif" font-size="11px" text-anchor="middle" x="300.0" y="101.0">Linear</text><line marker-end="url(#arrowhead_333333)" stroke="#333333" stroke-width="1.5" x1="300" x2="300" y1="120" y2="110" /><circle cx="300" cy="128" fill="white" r="8" stroke="#333333" stroke-width="1.5" /><text dominant-baseline="central" fill="#333333" font-family="Inter, Segoe UI, Helvetica, Arial, sans-serif" font-size="14px" text-anchor="middle" x="300" y="127">+</text><rect fill="#c2e8f7" height="26" rx="6" ry="6" stroke="#333333" stroke-width="1.5" width="100" x="180.0" y="134" /><text dominant-baseline="central" fill="#1F2937" font-family="Inter, Segoe UI, Helvetica, Arial, sans-serif" font-size="11px" text-anchor="middle" x="230" y="140.5">Feed</text><text dominant-baseline="central" fill="#1F2937" font-family="Inter, Segoe UI, Helvetica, Arial, sans-serif" font-size="11px" text-anchor="middle" x="230" y="153.5">Forward</text><line stroke="#333333" stroke-width="1.5" x1="230" x2="230" y1="134" y2="128" /><line marker-end="url(#arrowhead_333333)" stroke="#333333" stroke-width="1.5" x1="230" x2="292" y1="128" y2="128" /><rect fill="#f2f4c1" height="18" rx="5" ry="5" stroke="#333333" stroke-width="1.5" width="100" x="180.0" y="166" /><text dominant-baseline="central" fill="#1F2937" font-family="Inter, Segoe UI, Helvetica, Arial, sans-serif" font-size="11px" text-anchor="middle" x="230.0" y="175.0">Pre-Norm</text><line marker-end="url(#arrowhead_333333)" stroke="#333333" stroke-width="1.5" x1="230" x2="230" y1="166" y2="160" /><line stroke="#333333" stroke-width="1.5" x1="300" x2="300" y1="136" y2="190" /><line stroke="#333333" stroke-width="1.5" x1="230" x2="300" y1="190" y2="190" /><line stroke="#333333" stroke-width="1.5" x1="230" x2="230" y1="190" y2="184" /><line stroke="#333333" stroke-width="1.5" x1="300" x2="300" y1="190" y2="200" /><circle cx="300" cy="208" fill="white" r="8" stroke="#333333" stroke-width="1.5" /><text dominant-baseline="central" fill="#333333" font-family="Inter, Segoe UI, Helvetica, Arial, sans-serif" font-size="14px" text-anchor="middle" x="300" y="207">+</text><rect fill="#ffe2bb" height="38" rx="6" ry="6" stroke="#333333" stroke-width="1.5" width="100" x="180.0" y="214" /><text dominant-baseline="central" fill="#1F2937" font-family="Inter, Segoe UI, Helvetica, Arial, sans-serif" font-size="11px" text-anchor="middle" x="230" y="220.0">Masked</text><text dominant-baseline="central" fill="#1F2937" font-family="Inter, Segoe UI, Helvetica, Arial, sans-serif" font-size="11px" text-anchor="middle" x="230" y="233.0">Multi-Head</text><text dominant-baseline="central" fill="#1F2937" font-family="Inter, Segoe UI, Helvetica, Arial, sans-serif" font-size="11px" text-anchor="middle" x="230" y="246.0">Attention</text><line stroke="#333333" stroke-width="1.5" x1="230" x2="230" y1="214" y2="208" /><line marker-end="url(#arrowhead_333333)" stroke="#333333" stroke-width="1.5" x1="230" x2="292" y1="208" y2="208" /><line stroke="#333333" stroke-width="1.5" x1="230" x2="192.5" y1="261.0" y2="261.0" /><line stroke="#333333" stroke-width="1.5" x1="230" x2="267.5" y1="261.0" y2="261.0" /><line marker-end="url(#arrowhead_333333)" stroke="#333333" stroke-width="1.5" x1="192.5" x2="192.5" y1="261.0" y2="252" /><line marker-end="url(#arrowhead_333333)" stroke="#333333" stroke-width="1.5" x1="267.5" x2="267.5" y1="261.0" y2="252" /><rect fill="#f2f4c1" height="18" rx="5" ry="5" stroke="#333333" stroke-width="1.5" width="100" x="180.0" y="267.0" /><text dominant-baseline="central" fill="#1F2937" font-family="Inter, Segoe UI, Helvetica, Arial, sans-serif" font-size="11px" text-anchor="middle" x="230.0" y="276.0">Pre-Norm</text><line marker-end="url(#arrowhead_333333)" stroke="#333333" stroke-width="1.5" x1="230" x2="230" y1="267.0" y2="252" /><line stroke="#333333" stroke-width="1.5" x1="300" x2="300" y1="216" y2="291.0" /><line stroke="#333333" stroke-width="1.5" x1="230" x2="300" y1="291.0" y2="291.0" /><line stroke="#333333" stroke-width="1.5" x1="230" x2="230" y1="291.0" y2="285.0" /><line stroke="#333333" stroke-width="1.5" x1="300" x2="300" y1="291.0" y2="309.0" /><circle cx="300" cy="309.0" fill="white" r="8" stroke="#333333" stroke-width="1.5" /><text dominant-baseline="central" fill="#333333" font-family="Inter, Segoe UI, Helvetica, Arial, sans-serif" font-size="14px" text-anchor="middle" x="300" y="308.0">+</text><text dominant-baseline="central" fill="#333333" font-family="Inter, Segoe UI, Helvetica, Arial, sans-serif" font-size="11px" text-anchor="middle" x="230" y="303.0">Positional</text><text dominant-baseline="central" fill="#333333" font-family="Inter, Segoe UI, Helvetica, Arial, sans-serif" font-size="11px" text-anchor="middle" x="230" y="319.0">Encoding</text><path d="M270,309.0 q8,-8 16,0 q8,8 16,0" fill="none" stroke="#333333" stroke-width="1.2" /><line marker-end="url(#arrowhead_333333)" stroke="#333333" stroke-width="1.5" x1="306" x2="290" y1="309.0" y2="309.0" /><line marker-end="url(#arrowhead_333333)" stroke="#333333" stroke-width="1.5" x1="300" x2="300" y1="329.0" y2="317.0" /><rect fill="#fce0e1" height="26" rx="5" ry="5" stroke="#333333" stroke-width="1.5" width="100" x="250.0" y="329.0" /><text dominant-baseline="central" fill="#1F2937" font-family="Inter, Segoe UI, Helvetica, Arial, sans-serif" font-size="11px" text-anchor="middle" x="300.0" y="342.0">Output Embedding</text><line marker-end="url(#arrowhead_333333)" stroke="#333333" stroke-width="1.5" x1="300" x2="300" y1="367.0" y2="355.0" /><text dominant-baseline="central" fill="#1F2937" font-family="Inter, Segoe UI, Helvetica, Arial, sans-serif" font-size="14px" text-anchor="middle" x="300" y="373.0">Inputs</text><text dominant-baseline="central" fill="#1F2937" font-family="Inter, Segoe UI, Helvetica, Arial, sans-serif" font-size="14px" text-anchor="middle" x="460" y="20">Output</text><text dominant-baseline="central" fill="#1F2937" font-family="Inter, Segoe UI, Helvetica, Arial, sans-serif" font-size="14px" text-anchor="middle" x="460" y="35">Probabilities</text><line marker-end="url(#arrowhead_333333)" stroke="#333333" stroke-width="1.5" x1="460" x2="460" y1="62" y2="50" /><rect fill="#cce7cf" height="18" rx="5" ry="5" stroke="#333333" stroke-width="1.5" width="100" x="410.0" y="62" /><text dominant-baseline="central" fill="#1F2937" font-family="Inter, Segoe UI, Helvetica, Arial, sans-serif" font-size="11px" text-anchor="middle" x="460.0" y="71.0">Softmax</text><line marker-end="url(#arrowhead_333333)" stroke="#333333" stroke-width="1.5" x1="460" x2="460" y1="92" y2="80" /><rect fill="#dbdfef" height="18" rx="5" ry="5" stroke="#333333" stroke-width="1.5" width="100" x="410.0" y="92" /><text dominant-baseline="central" fill="#1F2937" font-family="Inter, Segoe UI, Helvetica, Arial, sans-serif" font-size="11px" text-anchor="middle" x="460.0" y="101.0">Linear</text><line marker-end="url(#arrowhead_333333)" stroke="#333333" stroke-width="1.5" x1="460" x2="460" y1="120" y2="110" /><circle cx="460" cy="128" fill="white" r="8" stroke="#333333" stroke-width="1.5" /><text dominant-baseline="central" fill="#333333" font-family="Inter, Segoe UI, Helvetica, Arial, sans-serif" font-size="14px" text-anchor="middle" x="460" y="127">+</text><rect fill="#c2e8f7" height="26" rx="6" ry="6" stroke="#333333" stroke-width="1.5" width="100" x="340.0" y="134" /><text dominant-baseline="central" fill="#1F2937" font-family="Inter, Segoe UI, Helvetica, Arial, sans-serif" font-size="11px" text-anchor="middle" x="390" y="140.5">Feed</text><text dominant-baseline="central" fill="#1F2937" font-family="Inter, Segoe UI, Helvetica, Arial, sans-serif" font-size="11px" text-anchor="middle" x="390" y="153.5">Forward</text><line stroke="#333333" stroke-width="1.5" x1="390" x2="390" y1="134" y2="128" /><line marker-end="url(#arrowhead_333333)" stroke="#333333" stroke-width="1.5" x1="390" x2="452" y1="128" y2="128" /><rect fill="#f2f4c1" height="18" rx="5" ry="5" stroke="#333333" stroke-width="1.5" width="100" x="340.0" y="166" /><text dominant-baseline="central" fill="#1F2937" font-family="Inter, Segoe UI, Helvetica, Arial, sans-serif" font-size="11px" text-anchor="middle" x="390.0" y="175.0">Pre-Norm</text><line marker-end="url(#arrowhead_333333)" stroke="#333333" stroke-width="1.5" x1="390" x2="390" y1="166" y2="160" /><line stroke="#333333" stroke-width="1.5" x1="460" x2="460" y1="136" y2="190" /><line stroke="#333333" stroke-width="1.5" x1="390" x2="460" y1="190" y2="190" /><line stroke="#333333" stroke-width="1.5" x1="390" x2="390" y1="190" y2="184" /><line stroke="#333333" stroke-width="1.5" x1="460" x2="460" y1="190" y2="200" /><circle cx="460" cy="208" fill="white" r="8" stroke="#333333" stroke-width="1.5" /><text dominant-baseline="central" fill="#333333" font-family="Inter, Segoe UI, Helvetica, Arial, sans-serif" font-size="14px" text-anchor="middle" x="460" y="207">+</text><rect fill="#ffe2bb" height="38" rx="6" ry="6" stroke="#333333" stroke-width="1.5" width="100" x="340.0" y="214" /><text dominant-baseline="central" fill="#1F2937" font-family="Inter, Segoe UI, Helvetica, Arial, sans-serif" font-size="11px" text-anchor="middle" x="390" y="220.0">Masked</text><text dominant-baseline="central" fill="#1F2937" font-family="Inter, Segoe UI, Helvetica, Arial, sans-serif" font-size="11px" text-anchor="middle" x="390" y="233.0">Multi-Head</text><text dominant-baseline="central" fill="#1F2937" font-family="Inter, Segoe UI, Helvetica, Arial, sans-serif" font-size="11px" text-anchor="middle" x="390" y="246.0">Attention</text><line stroke="#333333" stroke-width="1.5" x1="390" x2="390" y1="214" y2="208" /><line marker-end="url(#arrowhead_333333)" stroke="#333333" stroke-width="1.5" x1="390" x2="452" y1="208" y2="208" /><line stroke="#333333" stroke-width="1.5" x1="390" x2="352.5" y1="261.0" y2="261.0" /><line stroke="#333333" stroke-width="1.5" x1="390" x2="427.5" y1="261.0" y2="261.0" /><line marker-end="url(#arrowhead_333333)" stroke="#333333" stroke-width="1.5" x1="352.5" x2="352.5" y1="261.0" y2="252" /><line marker-end="url(#arrowhead_333333)" stroke="#333333" stroke-width="1.5" x1="427.5" x2="427.5" y1="261.0" y2="252" /><rect fill="#f2f4c1" height="18" rx="5" ry="5" stroke="#333333" stroke-width="1.5" width="100" x="340.0" y="267.0" /><text dominant-baseline="central" fill="#1F2937" font-family="Inter, Segoe UI, Helvetica, Arial, sans-serif" font-size="11px" text-anchor="middle" x="390.0" y="276.0">Pre-Norm</text><line marker-end="url(#arrowhead_333333)" stroke="#333333" stroke-width="1.5" x1="390" x2="390" y1="267.0" y2="252" /><line stroke="#333333" stroke-width="1.5" x1="460" x2="460" y1="216" y2="291.0" /><line stroke="#333333" stroke-width="1.5" x1="390" x2="460" y1="291.0" y2="291.0" /><line stroke="#333333" stroke-width="1.5" x1="390" x2="390" y1="291.0" y2="285.0" /><line stroke="#333333" stroke-width="1.5" x1="460" x2="460" y1="291.0" y2="309.0" /><circle cx="460" cy="309.0" fill="white" r="8" stroke="#333333" stroke-width="1.5" /><text dominant-baseline="central" fill="#333333" font-family="Inter, Segoe UI, Helvetica, Arial, sans-serif" font-size="14px" text-anchor="middle" x="460" y="308.0">+</text><text dominant-baseline="central" fill="#333333" font-family="Inter, Segoe UI, Helvetica, Arial, sans-serif" font-size="11px" text-anchor="middle" x="390" y="303.0">Positional</text><text dominant-baseline="central" fill="#333333" font-family="Inter, Segoe UI, Helvetica, Arial, sans-serif" font-size="11px" text-anchor="middle" x="390" y="319.0">Encoding</text><path d="M430,309.0 q8,-8 16,0 q8,8 16,0" fill="none" stroke="#333333" stroke-width="1.2" /><line marker-end="url(#arrowhead_333333)" stroke="#333333" stroke-width="1.5" x1="466" x2="450" y1="309.0" y2="309.0" /><line marker-end="url(#arrowhead_333333)" stroke="#333333" stroke-width="1.5" x1="460" x2="460" y1="329.0" y2="317.0" /><rect fill="#fce0e1" height="26" rx="5" ry="5" stroke="#333333" stroke-width="1.5" width="100" x="410.0" y="329.0" /><text dominant-baseline="central" fill="#1F2937" font-family="Inter, Segoe UI, Helvetica, Arial, sans-serif" font-size="11px" text-anchor="middle" x="460.0" y="342.0">Output Embedding</text><line marker-end="url(#arrowhead_333333)" stroke="#333333" stroke-width="1.5" x1="460" x2="460" y1="367.0" y2="355.0" /><text dominant-baseline="central" fill="#1F2937" font-family="Inter, Segoe UI, Helvetica, Arial, sans-serif" font-size="14px" text-anchor="middle" x="460" y="373.0">Inputs</text><text dominant-baseline="central" fill="#1F2937" font-family="Inter, Segoe UI, Helvetica, Arial, sans-serif" font-size="14px" text-anchor="middle" x="680" y="20">Output</text><text dominant-baseline="central" fill="#1F2937" font-family="Inter, Segoe UI, Helvetica, Arial, sans-serif" font-size="14px" text-anchor="middle" x="680" y="35">Probabilities</text><line marker-end="url(#arrowhead_333333)" stroke="#333333" stroke-width="1.5" x1="680" x2="680" y1="62" y2="50" /><rect fill="#cce7cf" height="18" rx="5" ry="5" stroke="#333333" stroke-width="1.5" width="100" x="630.0" y="62" /><text dominant-baseline="central" fill="#1F2937" font-family="Inter, Segoe UI, Helvetica, Arial, sans-serif" font-size="11px" text-anchor="middle" x="680.0" y="71.0">Softmax</text><line marker-end="url(#arrowhead_333333)" stroke="#333333" stroke-width="1.5" x1="680" x2="680" y1="92" y2="80" /><rect fill="#dbdfef" height="18" rx="5" ry="5" stroke="#333333" stroke-width="1.5" width="100" x="630.0" y="92" /><text dominant-baseline="central" fill="#1F2937" font-family="Inter, Segoe UI, Helvetica, Arial, sans-serif" font-size="11px" text-anchor="middle" x="680.0" y="101.0">Linear</text><line marker-end="url(#arrowhead_333333)" stroke="#333333" stroke-width="1.5" x1="680" x2="680" y1="120" y2="110" /><circle cx="680" cy="128" fill="white" r="8" stroke="#333333" stroke-width="1.5" /><text dominant-baseline="central" fill="#333333" font-family="Inter, Segoe UI, Helvetica, Arial, sans-serif" font-size="14px" text-anchor="middle" x="680" y="127">+</text><rect fill="#c2e8f7" height="26" rx="6" ry="6" stroke="#333333" stroke-width="1.5" width="100" x="560.0" y="134" /><text dominant-baseline="central" fill="#1F2937" font-family="Inter, Segoe UI, Helvetica, Arial, sans-serif" font-size="11px" text-anchor="middle" x="610" y="140.5">Feed</text><text dominant-baseline="central" fill="#1F2937" font-family="Inter, Segoe UI, Helvetica, Arial, sans-serif" font-size="11px" text-anchor="middle" x="610" y="153.5">Forward</text><line stroke="#333333" stroke-width="1.5" x1="610" x2="610" y1="134" y2="128" /><line marker-end="url(#arrowhead_333333)" stroke="#333333" stroke-width="1.5" x1="610" x2="672" y1="128" y2="128" /><rect fill="#f2f4c1" height="18" rx="5" ry="5" stroke="#333333" stroke-width="1.5" width="100" x="560.0" y="166" /><text dominant-baseline="central" fill="#1F2937" font-family="Inter, Segoe UI, Helvetica, Arial, sans-serif" font-size="11px" text-anchor="middle" x="610.0" y="175.0">Pre-Norm</text><line marker-end="url(#arrowhead_333333)" stroke="#333333" stroke-width="1.5" x1="610" x2="610" y1="166" y2="160" /><line stroke="#333333" stroke-width="1.5" x1="680" x2="680" y1="136" y2="190" /><line stroke="#333333" stroke-width="1.5" x1="610" x2="680" y1="190" y2="190" /><line stroke="#333333" stroke-width="1.5" x1="610" x2="610" y1="190" y2="184" /><line stroke="#333333" stroke-width="1.5" x1="680" x2="680" y1="190" y2="200" /><circle cx="680" cy="208" fill="white" r="8" stroke="#333333" stroke-width="1.5" /><text dominant-baseline="central" fill="#333333" font-family="Inter, Segoe UI, Helvetica, Arial, sans-serif" font-size="14px" text-anchor="middle" x="680" y="207">+</text><rect fill="#ffe2bb" height="38" rx="6" ry="6" stroke="#333333" stroke-width="1.5" width="100" x="560.0" y="214" /><text dominant-baseline="central" fill="#1F2937" font-family="Inter, Segoe UI, Helvetica, Arial, sans-serif" font-size="11px" text-anchor="middle" x="610" y="220.0">Masked</text><text dominant-baseline="central" fill="#1F2937" font-family="Inter, Segoe UI, Helvetica, Arial, sans-serif" font-size="11px" text-anchor="middle" x="610" y="233.0">Multi-Head</text><text dominant-baseline="central" fill="#1F2937" font-family="Inter, Segoe UI, Helvetica, Arial, sans-serif" font-size="11px" text-anchor="middle" x="610" y="246.0">Attention</text><line stroke="#333333" stroke-width="1.5" x1="610" x2="610" y1="214" y2="208" /><line marker-end="url(#arrowhead_333333)" stroke="#333333" stroke-width="1.5" x1="610" x2="672" y1="208" y2="208" /><line stroke="#333333" stroke-width="1.5" x1="610" x2="572.5" y1="261.0" y2="261.0" /><line stroke="#333333" stroke-width="1.5" x1="610" x2="647.5" y1="261.0" y2="261.0" /><line marker-end="url(#arrowhead_333333)" stroke="#333333" stroke-width="1.5" x1="572.5" x2="572.5" y1="261.0" y2="252" /><line marker-end="url(#arrowhead_333333)" stroke="#333333" stroke-width="1.5" x1="647.5" x2="647.5" y1="261.0" y2="252" /><rect fill="#f2f4c1" height="18" rx="5" ry="5" stroke="#333333" stroke-width="1.5" width="100" x="560.0" y="267.0" /><text dominant-baseline="central" fill="#1F2937" font-family="Inter, Segoe UI, Helvetica, Arial, sans-serif" font-size="11px" text-anchor="middle" x="610.0" y="276.0">Pre-Norm</text><line marker-end="url(#arrowhead_333333)" stroke="#333333" stroke-width="1.5" x1="610" x2="610" y1="267.0" y2="252" /><line stroke="#333333" stroke-width="1.5" x1="680" x2="680" y1="216" y2="291.0" /><line stroke="#333333" stroke-width="1.5" x1="610" x2="680" y1="291.0" y2="291.0" /><line stroke="#333333" stroke-width="1.5" x1="610" x2="610" y1="291.0" y2="285.0" /><line stroke="#333333" stroke-width="1.5" x1="680" x2="680" y1="291.0" y2="309.0" /><circle cx="680" cy="309.0" fill="white" r="8" stroke="#333333" stroke-width="1.5" /><text dominant-baseline="central" fill="#333333" font-family="Inter, Segoe UI, Helvetica, Arial, sans-serif" font-size="14px" text-anchor="middle" x="680" y="308.0">+</text><text dominant-baseline="central" fill="#333333" font-family="Inter, Segoe UI, Helvetica, Arial, sans-serif" font-size="11px" text-anchor="middle" x="610" y="303.0">Positional</text><text dominant-baseline="central" fill="#333333" font-family="Inter, Segoe UI, Helvetica, Arial, sans-serif" font-size="11px" text-anchor="middle" x="610" y="319.0">Encoding</text><path d="M650,309.0 q8,-8 16,0 q8,8 16,0" fill="none" stroke="#333333" stroke-width="1.2" /><line marker-end="url(#arrowhead_333333)" stroke="#333333" stroke-width="1.5" x1="686" x2="670" y1="309.0" y2="309.0" /><line marker-end="url(#arrowhead_333333)" stroke="#333333" stroke-width="1.5" x1="680" x2="680" y1="329.0" y2="317.0" /><rect fill="#fce0e1" height="26" rx="5" ry="5" stroke="#333333" stroke-width="1.5" width="100" x="630.0" y="329.0" /><text dominant-baseline="central" fill="#1F2937" font-family="Inter, Segoe UI, Helvetica, Arial, sans-serif" font-size="11px" text-anchor="middle" x="680.0" y="342.0">Output Embedding</text><line marker-end="url(#arrowhead_333333)" stroke="#333333" stroke-width="1.5" x1="680" x2="680" y1="367.0" y2="355.0" /><text dominant-baseline="central" fill="#1F2937" font-family="Inter, Segoe UI, Helvetica, Arial, sans-serif" font-size="14px" text-anchor="middle" x="680" y="373.0">Inputs</text><circle cx="556.0" cy="90.60000000000001" fill="#333333" r="3" stroke="none" /><circle cx="570.0" cy="90.60000000000001" fill="#333333" r="3" stroke="none" /><circle cx="584.0" cy="90.60000000000001" fill="#333333" r="3" stroke="none" /><circle cx="556.0" cy="196.5" fill="#333333" r="3" stroke="none" /><circle cx="570.0" cy="196.5" fill="#333333" r="3" stroke="none" /><circle cx="584.0" cy="196.5" fill="#333333" r="3" stroke="none" /><circle cx="556.0" cy="302.40000000000003" fill="#333333" r="3" stroke="none" /><circle cx="570.0" cy="302.40000000000003" fill="#333333" r="3" stroke="none" /><circle cx="584.0" cy="302.40000000000003" fill="#333333" r="3" stroke="none" /></svg>