<?xml version="1.0" encoding="utf-8" ?>
<svg baseProfile="full" height="670px" version="1.1" viewBox="0 0 656 670" width="656px" xmlns="http://www.w3.org/2000/svg" xmlns:ev="http://www.w3.org/2001/xml-events" xmlns:xlink="http://www.w3.org/1999/xlink"><defs><marker id="arrowhead" markerHeight="4" markerWidth="4" orient="auto" refX="4" refY="2.0"><polygon fill="#374151" points="0,0 4,2.0 0,4" /></marker></defs><line stroke="#EF4444" stroke-width="1.5" x1="61" x2="61" y1="5" y2="121" /><line stroke="#EF4444" stroke-width="1.5" x1="61" x2="66" y1="5" y2="5" /><line stroke="#EF4444" stroke-width="1.5" x1="61" x2="66" y1="121" y2="121" /><text dy="0.35em" fill="#EF4444" font-family="Inter, Segoe UI, Helvetica, Arial, sans-serif" font-size="11px" text-anchor="end" x="50" y="63.0">Prefill</text><line stroke="#3B82F6" stroke-width="1.5" x1="61" x2="61" y1="133" y2="621" /><line stroke="#3B82F6" stroke-width="1.5" x1="61" x2="66" y1="133" y2="133" /><line stroke="#3B82F6" stroke-width="1.5" x1="61" x2="66" y1="621" y2="621" /><text dy="0.35em" fill="#3B82F6" font-family="Inter, Segoe UI, Helvetica, Arial, sans-serif" font-size="11px" text-anchor="end" x="50" y="377.0">Decode</text><text dy="0.35em" fill="#1F2937" font-family="Inter, Segoe UI, Helvetica, Arial, sans-serif" font-size="11px" text-anchor="end" x="115" y="63.0">Step 0</text><rect fill="#FECACA" height="28" rx="4" ry="4" stroke="#EF4444" stroke-width="1.5" width="50" x="123" y="93" /><text dy="0.35em" fill="#1F2937" font-family="Inter, Segoe UI, Helvetica, Arial, sans-serif" font-size="11px" text-anchor="middle" x="148.0" y="107.0">The</text><rect fill="#FECACA" height="28" rx="4" ry="4" stroke="#EF4444" stroke-width="1.5" width="50" x="177" y="93" /><text dy="0.35em" fill="#1F2937" font-family="Inter, Segoe UI, Helvetica, Arial, sans-serif" font-size="11px" text-anchor="middle" x="202.0" y="107.0">quick</text><rect fill="#FECACA" height="28" rx="4" ry="4" stroke="#EF4444" stroke-width="1.5" width="50" x="231" y="93" /><text dy="0.35em" fill="#1F2937" font-family="Inter, Segoe UI, Helvetica, Arial, sans-serif" font-size="11px" text-anchor="middle" x="256.0" y="107.0">brown</text><rect fill="#FECACA" height="28" rx="4" ry="4" stroke="#EF4444" stroke-width="1.5" width="50" x="285" y="93" /><text dy="0.35em" fill="#1F2937" font-family="Inter, Segoe UI, Helvetica, Arial, sans-serif" font-size="11px" text-anchor="middle" x="310.0" y="107.0">fox</text><rect fill="#FECACA" height="28" rx="4" ry="4" stroke="#EF4444" stroke-width="1.5" width="50" x="339" y="93" /><text dy="0.35em" fill="#1F2937" font-family="Inter, Segoe UI, Helvetica, Arial, sans-serif" font-size="11px" text-anchor="middle" x="364.0" y="107.0">jumps</text><rect fill="#F3F4F6" height="28" rx="6" ry="6" stroke="#374151" stroke-width="1.5" width="266" x="123" y="49" /><text dy="0.35em" fill="#1F2937" font-family="Inter, Segoe UI, Helvetica, Arial, sans-serif" font-size="14px" text-anchor="middle" x="256.0" y="63.0">LLM</text><line marker-end="url(#arrowhead)" stroke="#374151" stroke-width="1.5" x1="148.0" x2="148.0" y1="91" y2="79" /><line marker-end="url(#arrowhead)" stroke="#374151" stroke-width="1.5" x1="202.0" x2="202.0" y1="91" y2="79" /><line marker-end="url(#arrowhead)" stroke="#374151" stroke-width="1.5" x1="256.0" x2="256.0" y1="91" y2="79" /><line marker-end="url(#arrowhead)" stroke="#374151" stroke-width="1.5" x1="310.0" x2="310.0" y1="91" y2="79" /><line marker-end="url(#arrowhead)" stroke="#374151" stroke-width="1.5" x1="364.0" x2="364.0" y1="91" y2="79" /><line marker-end="url(#arrowhead)" stroke="#374151" stroke-width="1.5" x1="364.0" x2="364.0" y1="47" y2="35" /><rect fill="#DBEAFE" height="28" rx="4" ry="4" stroke="#3B82F6" stroke-width="1.5" width="50" x="339.0" y="5" /><text dy="0.35em" fill="#1F2937" font-family="Inter, Segoe UI, Helvetica, Arial, sans-serif" font-size="11px" text-anchor="middle" x="364.0" y="19.0">over</text><text dy="0.35em" fill="#1F2937" font-family="Inter, Segoe UI, Helvetica, Arial, sans-serif" font-size="11px" text-anchor="end" x="115" y="191.0">Step 1</text><rect fill="#FECACA" height="28" rx="4" ry="4" stroke="#EF4444" stroke-width="1.5" width="50" x="123" y="221" /><text dy="0.35em" fill="#1F2937" font-family="Inter, Segoe UI, Helvetica, Arial, sans-serif" font-size="11px" text-anchor="middle" x="148.0" y="235.0">The</text><rect fill="#FECACA" height="28" rx="4" ry="4" stroke="#EF4444" stroke-width="1.5" width="50" x="177" y="221" /><text dy="0.35em" fill="#1F2937" font-family="Inter, Segoe UI, Helvetica, Arial, sans-serif" font-size="11px" text-anchor="middle" x="202.0" y="235.0">quick</text><rect fill="#FECACA" height="28" rx="4" ry="4" stroke="#EF4444" stroke-width="1.5" width="50" x="231" y="221" /><text dy="0.35em" fill="#1F2937" font-family="Inter, Segoe UI, Helvetica, Arial, sans-serif" font-size="11px" text-anchor="middle" x="256.0" y="235.0">brown</text><rect fill="#FECACA" height="28" rx="4" ry="4" stroke="#EF4444" stroke-width="1.5" width="50" x="285" y="221" /><text dy="0.35em" fill="#1F2937" font-family="Inter, Segoe UI, Helvetica, Arial, sans-serif" font-size="11px" text-anchor="middle" x="310.0" y="235.0">fox</text><rect fill="#FECACA" height="28" rx="4" ry="4" stroke="#EF4444" stroke-width="1.5" width="50" x="339" y="221" /><text dy="0.35em" fill="#1F2937" font-family="Inter, Segoe UI, Helvetica, Arial, sans-serif" font-size="11px" text-anchor="middle" x="364.0" y="235.0">jumps</text><rect fill="#DBEAFE" height="28" rx="4" ry="4" stroke="#3B82F6" stroke-width="1.5" width="50" x="393" y="221" /><text dy="0.35em" fill="#1F2937" font-family="Inter, Segoe UI, Helvetica, Arial, sans-serif" font-size="11px" text-anchor="middle" x="418.0" y="235.0">over</text><rect fill="#F3F4F6" height="28" rx="6" ry="6" stroke="#374151" stroke-width="1.5" width="320" x="123" y="177" /><text dy="0.35em" fill="#1F2937" font-family="Inter, Segoe UI, Helvetica, Arial, sans-serif" font-size="14px" text-anchor="middle" x="283.0" y="191.0">LLM</text><line marker-end="url(#arrowhead)" stroke="#374151" stroke-width="1.5" x1="148.0" x2="148.0" y1="219" y2="207" /><line marker-end="url(#arrowhead)" stroke="#374151" stroke-width="1.5" x1="202.0" x2="202.0" y1="219" y2="207" /><line marker-end="url(#arrowhead)" stroke="#374151" stroke-width="1.5" x1="256.0" x2="256.0" y1="219" y2="207" /><line marker-end="url(#arrowhead)" stroke="#374151" stroke-width="1.5" x1="310.0" x2="310.0" y1="219" y2="207" /><line marker-end="url(#arrowhead)" stroke="#374151" stroke-width="1.5" x1="364.0" x2="364.0" y1="219" y2="207" /><line marker-end="url(#arrowhead)" stroke="#374151" stroke-width="1.5" x1="418.0" x2="418.0" y1="219" y2="207" /><line marker-end="url(#arrowhead)" stroke="#374151" stroke-width="1.5" x1="418.0" x2="418.0" y1="175" y2="163" /><rect fill="#DBEAFE" height="28" rx="4" ry="4" stroke="#3B82F6" stroke-width="1.5" width="50" x="393.0" y="133" /><text dy="0.35em" fill="#1F2937" font-family="Inter, Segoe UI, Helvetica, Arial, sans-serif" font-size="11px" text-anchor="middle" x="418.0" y="147.0">the</text><text dy="0.35em" fill="#1F2937" font-family="Inter, Segoe UI, Helvetica, Arial, sans-serif" font-size="11px" text-anchor="end" x="115" y="315.0">Step 2</text><rect fill="#FECACA" height="28" rx="4" ry="4" stroke="#EF4444" stroke-width="1.5" width="50" x="123" y="345" /><text dy="0.35em" fill="#1F2937" font-family="Inter, Segoe UI, Helvetica, Arial, sans-serif" font-size="11px" text-anchor="middle" x="148.0" y="359.0">The</text><rect fill="#FECACA" height="28" rx="4" ry="4" stroke="#EF4444" stroke-width="1.5" width="50" x="177" y="345" /><text dy="0.35em" fill="#1F2937" font-family="Inter, Segoe UI, Helvetica, Arial, sans-serif" font-size="11px" text-anchor="middle" x="202.0" y="359.0">quick</text><rect fill="#FECACA" height="28" rx="4" ry="4" stroke="#EF4444" stroke-width="1.5" width="50" x="231" y="345" /><text dy="0.35em" fill="#1F2937" font-family="Inter, Segoe UI, Helvetica, Arial, sans-serif" font-size="11px" text-anchor="middle" x="256.0" y="359.0">brown</text><rect fill="#FECACA" height="28" rx="4" ry="4" stroke="#EF4444" stroke-width="1.5" width="50" x="285" y="345" /><text dy="0.35em" fill="#1F2937" font-family="Inter, Segoe UI, Helvetica, Arial, sans-serif" font-size="11px" text-anchor="middle" x="310.0" y="359.0">fox</text><rect fill="#FECACA" height="28" rx="4" ry="4" stroke="#EF4444" stroke-width="1.5" width="50" x="339" y="345" /><text dy="0.35em" fill="#1F2937" font-family="Inter, Segoe UI, Helvetica, Arial, sans-serif" font-size="11px" text-anchor="middle" x="364.0" y="359.0">jumps</text><rect fill="#DBEAFE" height="28" rx="4" ry="4" stroke="#3B82F6" stroke-width="1.5" width="50" x="393" y="345" /><text dy="0.35em" fill="#1F2937" font-family="Inter, Segoe UI, Helvetica, Arial, sans-serif" font-size="11px" text-anchor="middle" x="418.0" y="359.0">over</text><rect fill="#DBEAFE" height="28" rx="4" ry="4" stroke="#3B82F6" stroke-width="1.5" width="50" x="447" y="345" /><text dy="0.35em" fill="#1F2937" font-family="Inter, Segoe UI, Helvetica, Arial, sans-serif" font-size="11px" text-anchor="middle" x="472.0" y="359.0">the</text><rect fill="#F3F4F6" height="28" rx="6" ry="6" stroke="#374151" stroke-width="1.5" width="374" x="123" y="301" /><text dy="0.35em" fill="#1F2937" font-family="Inter, Segoe UI, Helvetica, Arial, sans-serif" font-size="14px" text-anchor="middle" x="310.0" y="315.0">LLM</text><line marker-end="url(#arrowhead)" stroke="#374151" stroke-width="1.5" x1="148.0" x2="148.0" y1="343" y2="331" /><line marker-end="url(#arrowhead)" stroke="#374151" stroke-width="1.5" x1="202.0" x2="202.0" y1="343" y2="331" /><line marker-end="url(#arrowhead)" stroke="#374151" stroke-width="1.5" x1="256.0" x2="256.0" y1="343" y2="331" /><line marker-end="url(#arrowhead)" stroke="#374151" stroke-width="1.5" x1="310.0" x2="310.0" y1="343" y2="331" /><line marker-end="url(#arrowhead)" stroke="#374151" stroke-width="1.5" x1="364.0" x2="364.0" y1="343" y2="331" /><line marker-end="url(#arrowhead)" stroke="#374151" stroke-width="1.5" x1="418.0" x2="418.0" y1="343" y2="331" /><line marker-end="url(#arrowhead)" stroke="#374151" stroke-width="1.5" x1="472.0" x2="472.0" y1="343" y2="331" /><line marker-end="url(#arrowhead)" stroke="#374151" stroke-width="1.5" x1="472.0" x2="472.0" y1="299" y2="287" /><rect fill="#DBEAFE" height="28" rx="4" ry="4" stroke="#3B82F6" stroke-width="1.5" width="50" x="447.0" y="257" /><text dy="0.35em" fill="#1F2937" font-family="Inter, Segoe UI, Helvetica, Arial, sans-serif" font-size="11px" text-anchor="middle" x="472.0" y="271.0">lazy</text><text dy="0.35em" fill="#1F2937" font-family="Inter, Segoe UI, Helvetica, Arial, sans-serif" font-size="11px" text-anchor="end" x="115" y="439.0">Step 3</text><rect fill="#FECACA" height="28" rx="4" ry="4" stroke="#EF4444" stroke-width="1.5" width="50" x="123" y="469" /><text dy="0.35em" fill="#1F2937" font-family="Inter, Segoe UI, Helvetica, Arial, sans-serif" font-size="11px" text-anchor="middle" x="148.0" y="483.0">The</text><rect fill="#FECACA" height="28" rx="4" ry="4" stroke="#EF4444" stroke-width="1.5" width="50" x="177" y="469" /><text dy="0.35em" fill="#1F2937" font-family="Inter, Segoe UI, Helvetica, Arial, sans-serif" font-size="11px" text-anchor="middle" x="202.0" y="483.0">quick</text><rect fill="#FECACA" height="28" rx="4" ry="4" stroke="#EF4444" stroke-width="1.5" width="50" x="231" y="469" /><text dy="0.35em" fill="#1F2937" font-family="Inter, Segoe UI, Helvetica, Arial, sans-serif" font-size="11px" text-anchor="middle" x="256.0" y="483.0">brown</text><rect fill="#FECACA" height="28" rx="4" ry="4" stroke="#EF4444" stroke-width="1.5" width="50" x="285" y="469" /><text dy="0.35em" fill="#1F2937" font-family="Inter, Segoe UI, Helvetica, Arial, sans-serif" font-size="11px" text-anchor="middle" x="310.0" y="483.0">fox</text><rect fill="#FECACA" height="28" rx="4" ry="4" stroke="#EF4444" stroke-width="1.5" width="50" x="339" y="469" /><text dy="0.35em" fill="#1F2937" font-family="Inter, Segoe UI, Helvetica, Arial, sans-serif" font-size="11px" text-anchor="middle" x="364.0" y="483.0">jumps</text><rect fill="#DBEAFE" height="28" rx="4" ry="4" stroke="#3B82F6" stroke-width="1.5" width="50" x="393" y="469" /><text dy="0.35em" fill="#1F2937" font-family="Inter, Segoe UI, Helvetica, Arial, sans-serif" font-size="11px" text-anchor="middle" x="418.0" y="483.0">over</text><rect fill="#DBEAFE" height="28" rx="4" ry="4" stroke="#3B82F6" stroke-width="1.5" width="50" x="447" y="469" /><text dy="0.35em" fill="#1F2937" font-family="Inter, Segoe UI, Helvetica, Arial, sans-serif" font-size="11px" text-anchor="middle" x="472.0" y="483.0">the</text><rect fill="#DBEAFE" height="28" rx="4" ry="4" stroke="#3B82F6" stroke-width="1.5" width="50" x="501" y="469" /><text dy="0.35em" fill="#1F2937" font-family="Inter, Segoe UI, Helvetica, Arial, sans-serif" font-size="11px" text-anchor="middle" x="526.0" y="483.0">lazy</text><rect fill="#F3F4F6" height="28" rx="6" ry="6" stroke="#374151" stroke-width="1.5" width="428" x="123" y="425" /><text dy="0.35em" fill="#1F2937" font-family="Inter, Segoe UI, Helvetica, Arial, sans-serif" font-size="14px" text-anchor="middle" x="337.0" y="439.0">LLM</text><line marker-end="url(#arrowhead)" stroke="#374151" stroke-width="1.5" x1="148.0" x2="148.0" y1="467" y2="455" /><line marker-end="url(#arrowhead)" stroke="#374151" stroke-width="1.5" x1="202.0" x2="202.0" y1="467" y2="455" /><line marker-end="url(#arrowhead)" stroke="#374151" stroke-width="1.5" x1="256.0" x2="256.0" y1="467" y2="455" /><line marker-end="url(#arrowhead)" stroke="#374151" stroke-width="1.5" x1="310.0" x2="310.0" y1="467" y2="455" /><line marker-end="url(#arrowhead)" stroke="#374151" stroke-width="1.5" x1="364.0" x2="364.0" y1="467" y2="455" /><line marker-end="url(#arrowhead)" stroke="#374151" stroke-width="1.5" x1="418.0" x2="418.0" y1="467" y2="455" /><line marker-end="url(#arrowhead)" stroke="#374151" stroke-width="1.5" x1="472.0" x2="472.0" y1="467" y2="455" /><line marker-end="url(#arrowhead)" stroke="#374151" stroke-width="1.5" x1="526.0" x2="526.0" y1="467" y2="455" /><line marker-end="url(#arrowhead)" stroke="#374151" stroke-width="1.5" x1="526.0" x2="526.0" y1="423" y2="411" /><rect fill="#DBEAFE" height="28" rx="4" ry="4" stroke="#3B82F6" stroke-width="1.5" width="50" x="501.0" y="381" /><text dy="0.35em" fill="#1F2937" font-family="Inter, Segoe UI, Helvetica, Arial, sans-serif" font-size="11px" text-anchor="middle" x="526.0" y="395.0">dog</text><text dy="0.35em" fill="#1F2937" font-family="Inter, Segoe UI, Helvetica, Arial, sans-serif" font-size="11px" text-anchor="end" x="115" y="563.0">Step 4</text><rect fill="#FECACA" height="28" rx="4" ry="4" stroke="#EF4444" stroke-width="1.5" width="50" x="123" y="593" /><text dy="0.35em" fill="#1F2937" font-family="Inter, Segoe UI, Helvetica, Arial, sans-serif" font-size="11px" text-anchor="middle" x="148.0" y="607.0">The</text><rect fill="#FECACA" height="28" rx="4" ry="4" stroke="#EF4444" stroke-width="1.5" width="50" x="177" y="593" /><text dy="0.35em" fill="#1F2937" font-family="Inter, Segoe UI, Helvetica, Arial, sans-serif" font-size="11px" text-anchor="middle" x="202.0" y="607.0">quick</text><rect fill="#FECACA" height="28" rx="4" ry="4" stroke="#EF4444" stroke-width="1.5" width="50" x="231" y="593" /><text dy="0.35em" fill="#1F2937" font-family="Inter, Segoe UI, Helvetica, Arial, sans-serif" font-size="11px" text-anchor="middle" x="256.0" y="607.0">brown</text><rect fill="#FECACA" height="28" rx="4" ry="4" stroke="#EF4444" stroke-width="1.5" width="50" x="285" y="593" /><text dy="0.35em" fill="#1F2937" font-family="Inter, Segoe UI, Helvetica, Arial, sans-serif" font-size="11px" text-anchor="middle" x="310.0" y="607.0">fox</text><rect fill="#FECACA" height="28" rx="4" ry="4" stroke="#EF4444" stroke-width="1.5" width="50" x="339" y="593" /><text dy="0.35em" fill="#1F2937" font-family="Inter, Segoe UI, Helvetica, Arial, sans-serif" font-size="11px" text-anchor="middle" x="364.0" y="607.0">jumps</text><rect fill="#DBEAFE" height="28" rx="4" ry="4" stroke="#3B82F6" stroke-width="1.5" width="50" x="393" y="593" /><text dy="0.35em" fill="#1F2937" font-family="Inter, Segoe UI, Helvetica, Arial, sans-serif" font-size="11px" text-anchor="middle" x="418.0" y="607.0">over</text><rect fill="#DBEAFE" height="28" rx="4" ry="4" stroke="#3B82F6" stroke-width="1.5" width="50" x="447" y="593" /><text dy="0.35em" fill="#1F2937" font-family="Inter, Segoe UI, Helvetica, Arial, sans-serif" font-size="11px" text-anchor="middle" x="472.0" y="607.0">the</text><rect fill="#DBEAFE" height="28" rx="4" ry="4" stroke="#3B82F6" stroke-width="1.5" width="50" x="501" y="593" /><text dy="0.35em" fill="#1F2937" font-family="Inter, Segoe UI, Helvetica, Arial, sans-serif" font-size="11px" text-anchor="middle" x="526.0" y="607.0">lazy</text><rect fill="#DBEAFE" height="28" rx="4" ry="4" stroke="#3B82F6" stroke-width="1.5" width="50" x="555" y="593" /><text dy="0.35em" fill="#1F2937" font-family="Inter, Segoe UI, Helvetica, Arial, sans-serif" font-size="11px" text-anchor="middle" x="580.0" y="607.0">dog</text><rect fill="#F3F4F6" height="28" rx="6" ry="6" stroke="#374151" stroke-width="1.5" width="482" x="123" y="549" /><text dy="0.35em" fill="#1F2937" font-family="Inter, Segoe UI, Helvetica, Arial, sans-serif" font-size="14px" text-anchor="middle" x="364.0" y="563.0">LLM</text><line marker-end="url(#arrowhead)" stroke="#374151" stroke-width="1.5" x1="148.0" x2="148.0" y1="591" y2="579" /><line marker-end="url(#arrowhead)" stroke="#374151" stroke-width="1.5" x1="202.0" x2="202.0" y1="591" y2="579" /><line marker-end="url(#arrowhead)" stroke="#374151" stroke-width="1.5" x1="256.0" x2="256.0" y1="591" y2="579" /><line marker-end="url(#arrowhead)" stroke="#374151" stroke-width="1.5" x1="310.0" x2="310.0" y1="591" y2="579" /><line marker-end="url(#arrowhead)" stroke="#374151" stroke-width="1.5" x1="364.0" x2="364.0" y1="591" y2="579" /><line marker-end="url(#arrowhead)" stroke="#374151" stroke-width="1.5" x1="418.0" x2="418.0" y1="591" y2="579" /><line marker-end="url(#arrowhead)" stroke="#374151" stroke-width="1.5" x1="472.0" x2="472.0" y1="591" y2="579" /><line marker-end="url(#arrowhead)" stroke="#374151" stroke-width="1.5" x1="526.0" x2="526.0" y1="591" y2="579" /><line marker-end="url(#arrowhead)" stroke="#374151" stroke-width="1.5" x1="580.0" x2="580.0" y1="591" y2="579" /><line marker-end="url(#arrowhead)" stroke="#374151" stroke-width="1.5" x1="580.0" x2="580.0" y1="547" y2="535" /><rect fill="#DBEAFE" height="28" rx="4" ry="4" stroke="#3B82F6" stroke-width="1.5" width="50" x="555.0" y="505" /><text dy="0.35em" fill="#1F2937" font-family="Inter, Segoe UI, Helvetica, Arial, sans-serif" font-size="11px" text-anchor="middle" x="580.0" y="519.0">&lt;EOS&gt;</text><rect fill="#FECACA" height="12" rx="2" ry="2" stroke="#EF4444" stroke-width="1.5" width="12" x="123" y="637" /><text dy="0.35em" fill="#6B7280" font-family="Inter, Segoe UI, Helvetica, Arial, sans-serif" font-size="9px" text-anchor="start" x="141" y="643.0">Input token</text><rect fill="#DBEAFE" height="12" rx="2" ry="2" stroke="#3B82F6" stroke-width="1.5" width="12" x="223" y="637" /><text dy="0.35em" fill="#6B7280" font-family="Inter, Segoe UI, Helvetica, Arial, sans-serif" font-size="9px" text-anchor="start" x="241" y="643.0">Generated token</text></svg>