<?xml version="1.0" encoding="utf-8" ?>
<svg baseProfile="full" height="142px" version="1.1" viewBox="0 0 388 142" width="388px" xmlns="http://www.w3.org/2000/svg" xmlns:ev="http://www.w3.org/2001/xml-events" xmlns:xlink="http://www.w3.org/1999/xlink"><defs><marker id="arrowhead" markerHeight="4" markerWidth="4" orient="auto" refX="4" refY="2.0"><polygon fill="#374151" points="0,0 4,2.0 0,4" /></marker></defs><rect fill="#FECACA" height="28" rx="4" ry="4" stroke="#EF4444" stroke-width="1.5" width="50" x="20" y="66" /><text dy="0.35em" fill="#1F2937" font-family="Inter, Segoe UI, Helvetica, Arial, sans-serif" font-size="11px" text-anchor="middle" x="45.0" y="80.0">The</text><rect fill="#FECACA" height="28" rx="4" ry="4" stroke="#EF4444" stroke-width="1.5" width="50" x="74" y="66" /><text dy="0.35em" fill="#1F2937" font-family="Inter, Segoe UI, Helvetica, Arial, sans-serif" font-size="11px" text-anchor="middle" x="99.0" y="80.0">quick</text><rect fill="#FECACA" height="28" rx="4" ry="4" stroke="#EF4444" stroke-width="1.5" width="50" x="128" y="66" /><text dy="0.35em" fill="#1F2937" font-family="Inter, Segoe UI, Helvetica, Arial, sans-serif" font-size="11px" text-anchor="middle" x="153.0" y="80.0">brown</text><rect fill="#FECACA" height="28" rx="4" ry="4" stroke="#EF4444" stroke-width="1.5" width="50" x="182" y="66" /><text dy="0.35em" fill="#1F2937" font-family="Inter, Segoe UI, Helvetica, Arial, sans-serif" font-size="11px" text-anchor="middle" x="207.0" y="80.0">fox</text><rect fill="#FECACA" height="28" rx="4" ry="4" stroke="#EF4444" stroke-width="1.5" width="50" x="236" y="66" /><text dy="0.35em" fill="#1F2937" font-family="Inter, Segoe UI, Helvetica, Arial, sans-serif" font-size="11px" text-anchor="middle" x="261.0" y="80.0">jumps</text><rect fill="#F3F4F6" height="30" rx="6" ry="6" stroke="#374151" stroke-width="1.5" width="266" x="20" y="20" /><text dy="0.35em" fill="#1F2937" font-family="Inter, Segoe UI, Helvetica, Arial, sans-serif" font-size="14px" text-anchor="middle" x="153.0" y="35.0">LLM</text><line marker-end="url(#arrowhead)" stroke="#374151" stroke-width="1.5" x1="45.0" x2="45.0" y1="64" y2="52" /><line marker-end="url(#arrowhead)" stroke="#374151" stroke-width="1.5" x1="99.0" x2="99.0" y1="64" y2="52" /><line marker-end="url(#arrowhead)" stroke="#374151" stroke-width="1.5" x1="153.0" x2="153.0" y1="64" y2="52" /><line marker-end="url(#arrowhead)" stroke="#374151" stroke-width="1.5" x1="207.0" x2="207.0" y1="64" y2="52" /><line marker-end="url(#arrowhead)" stroke="#374151" stroke-width="1.5" x1="261.0" x2="261.0" y1="64" y2="52" /><line marker-end="url(#arrowhead)" stroke="#374151" stroke-width="1.5" x1="292" x2="312" y1="35.0" y2="35.0" /><rect fill="#DBEAFE" height="28" rx="4" ry="4" stroke="#3B82F6" stroke-width="1.5" width="50" x="318" y="21.0" /><text dy="0.35em" fill="#1F2937" font-family="Inter, Segoe UI, Helvetica, Arial, sans-serif" font-size="11px" text-anchor="middle" x="343.0" y="35.0">over</text><rect fill="#FECACA" height="12" rx="2" ry="2" stroke="#EF4444" stroke-width="1.5" width="12" x="20" y="110" /><text dy="0.35em" fill="#6B7280" font-family="Inter, Segoe UI, Helvetica, Arial, sans-serif" font-size="9px" text-anchor="start" x="38" y="116.0">Input token</text><rect fill="#DBEAFE" height="12" rx="2" ry="2" stroke="#3B82F6" stroke-width="1.5" width="12" x="120" y="110" /><text dy="0.35em" fill="#6B7280" font-family="Inter, Segoe UI, Helvetica, Arial, sans-serif" font-size="9px" text-anchor="start" x="138" y="116.0">Generated token</text></svg>