<?xml version="1.0" encoding="utf-8" ?>
<svg baseProfile="full" height="518px" version="1.1" viewBox="0 0 768 518" width="768px" xmlns="http://www.w3.org/2000/svg" xmlns:ev="http://www.w3.org/2001/xml-events" xmlns:xlink="http://www.w3.org/1999/xlink"><defs><marker id="arrowhead" markerHeight="4" markerWidth="4" orient="auto" refX="4" refY="2.0"><polygon fill="#374151" points="0,0 4,2.0 0,4" /></marker></defs><line stroke="#EF4444" stroke-width="1.5" x1="76" x2="76" y1="20" y2="94" /><line stroke="#EF4444" stroke-width="1.5" x1="76" x2="81" y1="20" y2="20" /><line stroke="#EF4444" stroke-width="1.5" x1="76" x2="81" y1="94" y2="94" /><text dy="0.35em" fill="#EF4444" font-family="Inter, Segoe UI, Helvetica, Arial, sans-serif" font-size="11px" text-anchor="end" x="65" y="57.0">Prefill</text><line stroke="#3B82F6" stroke-width="1.5" x1="76" x2="76" y1="120" y2="470" /><line stroke="#3B82F6" stroke-width="1.5" x1="76" x2="81" y1="120" y2="120" /><line stroke="#3B82F6" stroke-width="1.5" x1="76" x2="81" y1="470" y2="470" /><text dy="0.35em" fill="#3B82F6" font-family="Inter, Segoe UI, Helvetica, Arial, sans-serif" font-size="11px" text-anchor="end" x="65" y="295.0">Decode</text><text dy="0.35em" fill="#1F2937" font-family="Inter, Segoe UI, Helvetica, Arial, sans-serif" font-size="11px" text-anchor="end" x="130" y="57.0">Step 0</text><rect fill="#FECACA" height="28" rx="4" ry="4" stroke="#EF4444" stroke-width="1.5" width="50" x="138" y="66" /><text dy="0.35em" fill="#1F2937" font-family="Inter, Segoe UI, Helvetica, Arial, sans-serif" font-size="11px" text-anchor="middle" x="163.0" y="80.0">The</text><rect fill="#FECACA" height="28" rx="4" ry="4" stroke="#EF4444" stroke-width="1.5" width="50" x="192" y="66" /><text dy="0.35em" fill="#1F2937" font-family="Inter, Segoe UI, Helvetica, Arial, sans-serif" font-size="11px" text-anchor="middle" x="217.0" y="80.0">quick</text><rect fill="#FECACA" height="28" rx="4" ry="4" stroke="#EF4444" stroke-width="1.5" width="50" x="246" y="66" /><text dy="0.35em" fill="#1F2937" font-family="Inter, Segoe UI, Helvetica, Arial, sans-serif" font-size="11px" text-anchor="middle" x="271.0" y="80.0">brown</text><rect fill="#FECACA" height="28" rx="4" ry="4" stroke="#EF4444" stroke-width="1.5" width="50" x="300" y="66" /><text dy="0.35em" fill="#1F2937" font-family="Inter, Segoe UI, Helvetica, Arial, sans-serif" font-size="11px" text-anchor="middle" x="325.0" y="80.0">fox</text><rect fill="#FECACA" height="28" rx="4" ry="4" stroke="#EF4444" stroke-width="1.5" width="50" x="354" y="66" /><text dy="0.35em" fill="#1F2937" font-family="Inter, Segoe UI, Helvetica, Arial, sans-serif" font-size="11px" text-anchor="middle" x="379.0" y="80.0">jumps</text><rect fill="#F3F4F6" height="30" rx="6" ry="6" stroke="#374151" stroke-width="1.5" width="266" x="138" y="20" /><text dy="0.35em" fill="#1F2937" font-family="Inter, Segoe UI, Helvetica, Arial, sans-serif" font-size="14px" text-anchor="middle" x="271.0" y="35.0">LLM</text><line marker-end="url(#arrowhead)" stroke="#374151" stroke-width="1.5" x1="163.0" x2="163.0" y1="64" y2="52" /><line marker-end="url(#arrowhead)" stroke="#374151" stroke-width="1.5" x1="217.0" x2="217.0" y1="64" y2="52" /><line marker-end="url(#arrowhead)" stroke="#374151" stroke-width="1.5" x1="271.0" x2="271.0" y1="64" y2="52" /><line marker-end="url(#arrowhead)" stroke="#374151" stroke-width="1.5" x1="325.0" x2="325.0" y1="64" y2="52" /><line marker-end="url(#arrowhead)" stroke="#374151" stroke-width="1.5" x1="379.0" x2="379.0" y1="64" y2="52" /><line marker-end="url(#arrowhead)" stroke="#374151" stroke-width="1.5" x1="410" x2="430" y1="35.0" y2="35.0" /><rect fill="#DBEAFE" height="28" rx="4" ry="4" stroke="#3B82F6" stroke-width="1.5" width="50" x="436" y="21.0" /><text dy="0.35em" fill="#1F2937" font-family="Inter, Segoe UI, Helvetica, Arial, sans-serif" font-size="11px" text-anchor="middle" x="461.0" y="35.0">over</text><text dy="0.35em" fill="#1F2937" font-family="Inter, Segoe UI, Helvetica, Arial, sans-serif" font-size="11px" text-anchor="end" x="130" y="157.0">Step 1</text><rect fill="#FECACA" height="28" rx="4" ry="4" stroke="#EF4444" stroke-width="1.5" width="50" x="138" y="166" /><text dy="0.35em" fill="#1F2937" font-family="Inter, Segoe UI, Helvetica, Arial, sans-serif" font-size="11px" text-anchor="middle" x="163.0" y="180.0">The</text><rect fill="#FECACA" height="28" rx="4" ry="4" stroke="#EF4444" stroke-width="1.5" width="50" x="192" y="166" /><text dy="0.35em" fill="#1F2937" font-family="Inter, Segoe UI, Helvetica, Arial, sans-serif" font-size="11px" text-anchor="middle" x="217.0" y="180.0">quick</text><rect fill="#FECACA" height="28" rx="4" ry="4" stroke="#EF4444" stroke-width="1.5" width="50" x="246" y="166" /><text dy="0.35em" fill="#1F2937" font-family="Inter, Segoe UI, Helvetica, Arial, sans-serif" font-size="11px" text-anchor="middle" x="271.0" y="180.0">brown</text><rect fill="#FECACA" height="28" rx="4" ry="4" stroke="#EF4444" stroke-width="1.5" width="50" x="300" y="166" /><text dy="0.35em" fill="#1F2937" font-family="Inter, Segoe UI, Helvetica, Arial, sans-serif" font-size="11px" text-anchor="middle" x="325.0" y="180.0">fox</text><rect fill="#FECACA" height="28" rx="4" ry="4" stroke="#EF4444" stroke-width="1.5" width="50" x="354" y="166" /><text dy="0.35em" fill="#1F2937" font-family="Inter, Segoe UI, Helvetica, Arial, sans-serif" font-size="11px" text-anchor="middle" x="379.0" y="180.0">jumps</text><rect fill="#DBEAFE" height="28" rx="4" ry="4" stroke="#3B82F6" stroke-width="1.5" width="50" x="408" y="166" /><text dy="0.35em" fill="#1F2937" font-family="Inter, Segoe UI, Helvetica, Arial, sans-serif" font-size="11px" text-anchor="middle" x="433.0" y="180.0">over</text><rect fill="#F3F4F6" height="30" rx="6" ry="6" stroke="#374151" stroke-width="1.5" width="320" x="138" y="120" /><text dy="0.35em" fill="#1F2937" font-family="Inter, Segoe UI, Helvetica, Arial, sans-serif" font-size="14px" text-anchor="middle" x="298.0" y="135.0">LLM</text><line marker-end="url(#arrowhead)" stroke="#374151" stroke-width="1.5" x1="163.0" x2="163.0" y1="164" y2="152" /><line marker-end="url(#arrowhead)" stroke="#374151" stroke-width="1.5" x1="217.0" x2="217.0" y1="164" y2="152" /><line marker-end="url(#arrowhead)" stroke="#374151" stroke-width="1.5" x1="271.0" x2="271.0" y1="164" y2="152" /><line marker-end="url(#arrowhead)" stroke="#374151" stroke-width="1.5" x1="325.0" x2="325.0" y1="164" y2="152" /><line marker-end="url(#arrowhead)" stroke="#374151" stroke-width="1.5" x1="379.0" x2="379.0" y1="164" y2="152" /><line marker-end="url(#arrowhead)" stroke="#374151" stroke-width="1.5" x1="433.0" x2="433.0" y1="164" y2="152" /><line marker-end="url(#arrowhead)" stroke="#374151" stroke-width="1.5" x1="464" x2="484" y1="135.0" y2="135.0" /><rect fill="#DBEAFE" height="28" rx="4" ry="4" stroke="#3B82F6" stroke-width="1.5" width="50" x="490" y="121.0" /><text dy="0.35em" fill="#1F2937" font-family="Inter, Segoe UI, Helvetica, Arial, sans-serif" font-size="11px" text-anchor="middle" x="515.0" y="135.0">the</text><text dy="0.35em" fill="#1F2937" font-family="Inter, Segoe UI, Helvetica, Arial, sans-serif" font-size="11px" text-anchor="end" x="130" y="249.0">Step 2</text><rect fill="#FECACA" height="28" rx="4" ry="4" stroke="#EF4444" stroke-width="1.5" width="50" x="138" y="258" /><text dy="0.35em" fill="#1F2937" font-family="Inter, Segoe UI, Helvetica, Arial, sans-serif" font-size="11px" text-anchor="middle" x="163.0" y="272.0">The</text><rect fill="#FECACA" height="28" rx="4" ry="4" stroke="#EF4444" stroke-width="1.5" width="50" x="192" y="258" /><text dy="0.35em" fill="#1F2937" font-family="Inter, Segoe UI, Helvetica, Arial, sans-serif" font-size="11px" text-anchor="middle" x="217.0" y="272.0">quick</text><rect fill="#FECACA" height="28" rx="4" ry="4" stroke="#EF4444" stroke-width="1.5" width="50" x="246" y="258" /><text dy="0.35em" fill="#1F2937" font-family="Inter, Segoe UI, Helvetica, Arial, sans-serif" font-size="11px" text-anchor="middle" x="271.0" y="272.0">brown</text><rect fill="#FECACA" height="28" rx="4" ry="4" stroke="#EF4444" stroke-width="1.5" width="50" x="300" y="258" /><text dy="0.35em" fill="#1F2937" font-family="Inter, Segoe UI, Helvetica, Arial, sans-serif" font-size="11px" text-anchor="middle" x="325.0" y="272.0">fox</text><rect fill="#FECACA" height="28" rx="4" ry="4" stroke="#EF4444" stroke-width="1.5" width="50" x="354" y="258" /><text dy="0.35em" fill="#1F2937" font-family="Inter, Segoe UI, Helvetica, Arial, sans-serif" font-size="11px" text-anchor="middle" x="379.0" y="272.0">jumps</text><rect fill="#DBEAFE" height="28" rx="4" ry="4" stroke="#3B82F6" stroke-width="1.5" width="50" x="408" y="258" /><text dy="0.35em" fill="#1F2937" font-family="Inter, Segoe UI, Helvetica, Arial, sans-serif" font-size="11px" text-anchor="middle" x="433.0" y="272.0">over</text><rect fill="#DBEAFE" height="28" rx="4" ry="4" stroke="#3B82F6" stroke-width="1.5" width="50" x="462" y="258" /><text dy="0.35em" fill="#1F2937" font-family="Inter, Segoe UI, Helvetica, Arial, sans-serif" font-size="11px" text-anchor="middle" x="487.0" y="272.0">the</text><rect fill="#F3F4F6" height="30" rx="6" ry="6" stroke="#374151" stroke-width="1.5" width="374" x="138" y="212" /><text dy="0.35em" fill="#1F2937" font-family="Inter, Segoe UI, Helvetica, Arial, sans-serif" font-size="14px" text-anchor="middle" x="325.0" y="227.0">LLM</text><line marker-end="url(#arrowhead)" stroke="#374151" stroke-width="1.5" x1="163.0" x2="163.0" y1="256" y2="244" /><line marker-end="url(#arrowhead)" stroke="#374151" stroke-width="1.5" x1="217.0" x2="217.0" y1="256" y2="244" /><line marker-end="url(#arrowhead)" stroke="#374151" stroke-width="1.5" x1="271.0" x2="271.0" y1="256" y2="244" /><line marker-end="url(#arrowhead)" stroke="#374151" stroke-width="1.5" x1="325.0" x2="325.0" y1="256" y2="244" /><line marker-end="url(#arrowhead)" stroke="#374151" stroke-width="1.5" x1="379.0" x2="379.0" y1="256" y2="244" /><line marker-end="url(#arrowhead)" stroke="#374151" stroke-width="1.5" x1="433.0" x2="433.0" y1="256" y2="244" /><line marker-end="url(#arrowhead)" stroke="#374151" stroke-width="1.5" x1="487.0" x2="487.0" y1="256" y2="244" /><line marker-end="url(#arrowhead)" stroke="#374151" stroke-width="1.5" x1="518" x2="538" y1="227.0" y2="227.0" /><rect fill="#DBEAFE" height="28" rx="4" ry="4" stroke="#3B82F6" stroke-width="1.5" width="50" x="544" y="213.0" /><text dy="0.35em" fill="#1F2937" font-family="Inter, Segoe UI, Helvetica, Arial, sans-serif" font-size="11px" text-anchor="middle" x="569.0" y="227.0">lazy</text><text dy="0.35em" fill="#1F2937" font-family="Inter, Segoe UI, Helvetica, Arial, sans-serif" font-size="11px" text-anchor="end" x="130" y="341.0">Step 3</text><rect fill="#FECACA" height="28" rx="4" ry="4" stroke="#EF4444" stroke-width="1.5" width="50" x="138" y="350" /><text dy="0.35em" fill="#1F2937" font-family="Inter, Segoe UI, Helvetica, Arial, sans-serif" font-size="11px" text-anchor="middle" x="163.0" y="364.0">The</text><rect fill="#FECACA" height="28" rx="4" ry="4" stroke="#EF4444" stroke-width="1.5" width="50" x="192" y="350" /><text dy="0.35em" fill="#1F2937" font-family="Inter, Segoe UI, Helvetica, Arial, sans-serif" font-size="11px" text-anchor="middle" x="217.0" y="364.0">quick</text><rect fill="#FECACA" height="28" rx="4" ry="4" stroke="#EF4444" stroke-width="1.5" width="50" x="246" y="350" /><text dy="0.35em" fill="#1F2937" font-family="Inter, Segoe UI, Helvetica, Arial, sans-serif" font-size="11px" text-anchor="middle" x="271.0" y="364.0">brown</text><rect fill="#FECACA" height="28" rx="4" ry="4" stroke="#EF4444" stroke-width="1.5" width="50" x="300" y="350" /><text dy="0.35em" fill="#1F2937" font-family="Inter, Segoe UI, Helvetica, Arial, sans-serif" font-size="11px" text-anchor="middle" x="325.0" y="364.0">fox</text><rect fill="#FECACA" height="28" rx="4" ry="4" stroke="#EF4444" stroke-width="1.5" width="50" x="354" y="350" /><text dy="0.35em" fill="#1F2937" font-family="Inter, Segoe UI, Helvetica, Arial, sans-serif" font-size="11px" text-anchor="middle" x="379.0" y="364.0">jumps</text><rect fill="#DBEAFE" height="28" rx="4" ry="4" stroke="#3B82F6" stroke-width="1.5" width="50" x="408" y="350" /><text dy="0.35em" fill="#1F2937" font-family="Inter, Segoe UI, Helvetica, Arial, sans-serif" font-size="11px" text-anchor="middle" x="433.0" y="364.0">over</text><rect fill="#DBEAFE" height="28" rx="4" ry="4" stroke="#3B82F6" stroke-width="1.5" width="50" x="462" y="350" /><text dy="0.35em" fill="#1F2937" font-family="Inter, Segoe UI, Helvetica, Arial, sans-serif" font-size="11px" text-anchor="middle" x="487.0" y="364.0">the</text><rect fill="#DBEAFE" height="28" rx="4" ry="4" stroke="#3B82F6" stroke-width="1.5" width="50" x="516" y="350" /><text dy="0.35em" fill="#1F2937" font-family="Inter, Segoe UI, Helvetica, Arial, sans-serif" font-size="11px" text-anchor="middle" x="541.0" y="364.0">lazy</text><rect fill="#F3F4F6" height="30" rx="6" ry="6" stroke="#374151" stroke-width="1.5" width="428" x="138" y="304" /><text dy="0.35em" fill="#1F2937" font-family="Inter, Segoe UI, Helvetica, Arial, sans-serif" font-size="14px" text-anchor="middle" x="352.0" y="319.0">LLM</text><line marker-end="url(#arrowhead)" stroke="#374151" stroke-width="1.5" x1="163.0" x2="163.0" y1="348" y2="336" /><line marker-end="url(#arrowhead)" stroke="#374151" stroke-width="1.5" x1="217.0" x2="217.0" y1="348" y2="336" /><line marker-end="url(#arrowhead)" stroke="#374151" stroke-width="1.5" x1="271.0" x2="271.0" y1="348" y2="336" /><line marker-end="url(#arrowhead)" stroke="#374151" stroke-width="1.5" x1="325.0" x2="325.0" y1="348" y2="336" /><line marker-end="url(#arrowhead)" stroke="#374151" stroke-width="1.5" x1="379.0" x2="379.0" y1="348" y2="336" /><line marker-end="url(#arrowhead)" stroke="#374151" stroke-width="1.5" x1="433.0" x2="433.0" y1="348" y2="336" /><line marker-end="url(#arrowhead)" stroke="#374151" stroke-width="1.5" x1="487.0" x2="487.0" y1="348" y2="336" /><line marker-end="url(#arrowhead)" stroke="#374151" stroke-width="1.5" x1="541.0" x2="541.0" y1="348" y2="336" /><line marker-end="url(#arrowhead)" stroke="#374151" stroke-width="1.5" x1="572" x2="592" y1="319.0" y2="319.0" /><rect fill="#DBEAFE" height="28" rx="4" ry="4" stroke="#3B82F6" stroke-width="1.5" width="50" x="598" y="305.0" /><text dy="0.35em" fill="#1F2937" font-family="Inter, Segoe UI, Helvetica, Arial, sans-serif" font-size="11px" text-anchor="middle" x="623.0" y="319.0">dog</text><text dy="0.35em" fill="#1F2937" font-family="Inter, Segoe UI, Helvetica, Arial, sans-serif" font-size="11px" text-anchor="end" x="130" y="433.0">Step 4</text><rect fill="#FECACA" height="28" rx="4" ry="4" stroke="#EF4444" stroke-width="1.5" width="50" x="138" y="442" /><text dy="0.35em" fill="#1F2937" font-family="Inter, Segoe UI, Helvetica, Arial, sans-serif" font-size="11px" text-anchor="middle" x="163.0" y="456.0">The</text><rect fill="#FECACA" height="28" rx="4" ry="4" stroke="#EF4444" stroke-width="1.5" width="50" x="192" y="442" /><text dy="0.35em" fill="#1F2937" font-family="Inter, Segoe UI, Helvetica, Arial, sans-serif" font-size="11px" text-anchor="middle" x="217.0" y="456.0">quick</text><rect fill="#FECACA" height="28" rx="4" ry="4" stroke="#EF4444" stroke-width="1.5" width="50" x="246" y="442" /><text dy="0.35em" fill="#1F2937" font-family="Inter, Segoe UI, Helvetica, Arial, sans-serif" font-size="11px" text-anchor="middle" x="271.0" y="456.0">brown</text><rect fill="#FECACA" height="28" rx="4" ry="4" stroke="#EF4444" stroke-width="1.5" width="50" x="300" y="442" /><text dy="0.35em" fill="#1F2937" font-family="Inter, Segoe UI, Helvetica, Arial, sans-serif" font-size="11px" text-anchor="middle" x="325.0" y="456.0">fox</text><rect fill="#FECACA" height="28" rx="4" ry="4" stroke="#EF4444" stroke-width="1.5" width="50" x="354" y="442" /><text dy="0.35em" fill="#1F2937" font-family="Inter, Segoe UI, Helvetica, Arial, sans-serif" font-size="11px" text-anchor="middle" x="379.0" y="456.0">jumps</text><rect fill="#DBEAFE" height="28" rx="4" ry="4" stroke="#3B82F6" stroke-width="1.5" width="50" x="408" y="442" /><text dy="0.35em" fill="#1F2937" font-family="Inter, Segoe UI, Helvetica, Arial, sans-serif" font-size="11px" text-anchor="middle" x="433.0" y="456.0">over</text><rect fill="#DBEAFE" height="28" rx="4" ry="4" stroke="#3B82F6" stroke-width="1.5" width="50" x="462" y="442" /><text dy="0.35em" fill="#1F2937" font-family="Inter, Segoe UI, Helvetica, Arial, sans-serif" font-size="11px" text-anchor="middle" x="487.0" y="456.0">the</text><rect fill="#DBEAFE" height="28" rx="4" ry="4" stroke="#3B82F6" stroke-width="1.5" width="50" x="516" y="442" /><text dy="0.35em" fill="#1F2937" font-family="Inter, Segoe UI, Helvetica, Arial, sans-serif" font-size="11px" text-anchor="middle" x="541.0" y="456.0">lazy</text><rect fill="#DBEAFE" height="28" rx="4" ry="4" stroke="#3B82F6" stroke-width="1.5" width="50" x="570" y="442" /><text dy="0.35em" fill="#1F2937" font-family="Inter, Segoe UI, Helvetica, Arial, sans-serif" font-size="11px" text-anchor="middle" x="595.0" y="456.0">dog</text><rect fill="#F3F4F6" height="30" rx="6" ry="6" stroke="#374151" stroke-width="1.5" width="482" x="138" y="396" /><text dy="0.35em" fill="#1F2937" font-family="Inter, Segoe UI, Helvetica, Arial, sans-serif" font-size="14px" text-anchor="middle" x="379.0" y="411.0">LLM</text><line marker-end="url(#arrowhead)" stroke="#374151" stroke-width="1.5" x1="163.0" x2="163.0" y1="440" y2="428" /><line marker-end="url(#arrowhead)" stroke="#374151" stroke-width="1.5" x1="217.0" x2="217.0" y1="440" y2="428" /><line marker-end="url(#arrowhead)" stroke="#374151" stroke-width="1.5" x1="271.0" x2="271.0" y1="440" y2="428" /><line marker-end="url(#arrowhead)" stroke="#374151" stroke-width="1.5" x1="325.0" x2="325.0" y1="440" y2="428" /><line marker-end="url(#arrowhead)" stroke="#374151" stroke-width="1.5" x1="379.0" x2="379.0" y1="440" y2="428" /><line marker-end="url(#arrowhead)" stroke="#374151" stroke-width="1.5" x1="433.0" x2="433.0" y1="440" y2="428" /><line marker-end="url(#arrowhead)" stroke="#374151" stroke-width="1.5" x1="487.0" x2="487.0" y1="440" y2="428" /><line marker-end="url(#arrowhead)" stroke="#374151" stroke-width="1.5" x1="541.0" x2="541.0" y1="440" y2="428" /><line marker-end="url(#arrowhead)" stroke="#374151" stroke-width="1.5" x1="595.0" x2="595.0" y1="440" y2="428" /><line marker-end="url(#arrowhead)" stroke="#374151" stroke-width="1.5" x1="626" x2="646" y1="411.0" y2="411.0" /><rect fill="#DBEAFE" height="28" rx="4" ry="4" stroke="#3B82F6" stroke-width="1.5" width="50" x="652" y="397.0" /><text dy="0.35em" fill="#1F2937" font-family="Inter, Segoe UI, Helvetica, Arial, sans-serif" font-size="11px" text-anchor="middle" x="677.0" y="411.0">&lt;EOS&gt;</text><rect fill="#FECACA" height="12" rx="2" ry="2" stroke="#EF4444" stroke-width="1.5" width="12" x="138" y="486" /><text dy="0.35em" fill="#6B7280" font-family="Inter, Segoe UI, Helvetica, Arial, sans-serif" font-size="9px" text-anchor="start" x="156" y="492.0">Input token</text><rect fill="#DBEAFE" height="12" rx="2" ry="2" stroke="#3B82F6" stroke-width="1.5" width="12" x="238" y="486" /><text dy="0.35em" fill="#6B7280" font-family="Inter, Segoe UI, Helvetica, Arial, sans-serif" font-size="9px" text-anchor="start" x="256" y="492.0">Generated token</text></svg>