<?xml version="1.0" encoding="utf-8" ?>
<svg baseProfile="full" height="370px" version="1.1" viewBox="0 0 1096 370" width="1096px" xmlns="http://www.w3.org/2000/svg" xmlns:ev="http://www.w3.org/2001/xml-events" xmlns:xlink="http://www.w3.org/1999/xlink"><defs><marker id="arrowhead" markerHeight="4" markerWidth="4" orient="auto" refX="4" refY="2.0"><polygon fill="#374151" points="0,0 4,2.0 0,4" /></marker></defs><rect fill="#F8F9FA" height="248" rx="12" ry="12" stroke="#6B7280" stroke-width="2" width="498" x="20" y="20" /><text dy="0.35em" fill="#1F2937" font-family="Inter, Segoe UI, Helvetica, Arial, sans-serif" font-size="16px" text-anchor="middle" x="269.0" y="36">Node 1 (DGX H100)</text><rect fill="#E9D5FF" height="30" rx="6" ry="6" stroke="#6B7280" stroke-width="1.5" width="40" x="81.0" y="48" /><text dy="0.35em" fill="#1F2937" font-family="Inter, Segoe UI, Helvetica, Arial, sans-serif" font-size="11px" text-anchor="middle" x="101.0" y="63.0">G0</text><rect fill="#E9D5FF" height="30" rx="6" ry="6" stroke="#6B7280" stroke-width="1.5" width="40" x="129.0" y="48" /><text dy="0.35em" fill="#1F2937" font-family="Inter, Segoe UI, Helvetica, Arial, sans-serif" font-size="11px" text-anchor="middle" x="149.0" y="63.0">G1</text><rect fill="#E9D5FF" height="30" rx="6" ry="6" stroke="#6B7280" stroke-width="1.5" width="40" x="177.0" y="48" /><text dy="0.35em" fill="#1F2937" font-family="Inter, Segoe UI, Helvetica, Arial, sans-serif" font-size="11px" text-anchor="middle" x="197.0" y="63.0">G2</text><rect fill="#E9D5FF" height="30" rx="6" ry="6" stroke="#6B7280" stroke-width="1.5" width="40" x="225.0" y="48" /><text dy="0.35em" fill="#1F2937" font-family="Inter, Segoe UI, Helvetica, Arial, sans-serif" font-size="11px" text-anchor="middle" x="245.0" y="63.0">G3</text><rect fill="#E9D5FF" height="30" rx="6" ry="6" stroke="#6B7280" stroke-width="1.5" width="40" x="273.0" y="48" /><text dy="0.35em" fill="#1F2937" font-family="Inter, Segoe UI, Helvetica, Arial, sans-serif" font-size="11px" text-anchor="middle" x="293.0" y="63.0">G4</text><rect fill="#E9D5FF" height="30" rx="6" ry="6" stroke="#6B7280" stroke-width="1.5" width="40" x="321.0" y="48" /><text dy="0.35em" fill="#1F2937" font-family="Inter, Segoe UI, Helvetica, Arial, sans-serif" font-size="11px" text-anchor="middle" x="341.0" y="63.0">G5</text><rect fill="#E9D5FF" height="30" rx="6" ry="6" stroke="#6B7280" stroke-width="1.5" width="40" x="369.0" y="48" /><text dy="0.35em" fill="#1F2937" font-family="Inter, Segoe UI, Helvetica, Arial, sans-serif" font-size="11px" text-anchor="middle" x="389.0" y="63.0">G6</text><rect fill="#E9D5FF" height="30" rx="6" ry="6" stroke="#6B7280" stroke-width="1.5" width="40" x="417.0" y="48" /><text dy="0.35em" fill="#1F2937" font-family="Inter, Segoe UI, Helvetica, Arial, sans-serif" font-size="11px" text-anchor="middle" x="437.0" y="63.0">G7</text><line stroke="#1E3A5F" stroke-width="1.0" x1="101.0" x2="101.0" y1="78" y2="108" /><line stroke="#1E3A5F" stroke-width="1.0" x1="149.0" x2="149.0" y1="78" y2="108" /><line stroke="#1E3A5F" stroke-width="1.0" x1="197.0" x2="197.0" y1="78" y2="108" /><line stroke="#1E3A5F" stroke-width="1.0" x1="245.0" x2="245.0" y1="78" y2="108" /><line stroke="#1E3A5F" stroke-width="1.0" x1="293.0" x2="293.0" y1="78" y2="108" /><line stroke="#1E3A5F" stroke-width="1.0" x1="341.0" x2="341.0" y1="78" y2="108" /><line stroke="#1E3A5F" stroke-width="1.0" x1="389.0" x2="389.0" y1="78" y2="108" /><line stroke="#1E3A5F" stroke-width="1.0" x1="437.0" x2="437.0" y1="78" y2="108" /><rect fill="#DBEAFE" height="28" rx="6" ry="6" stroke="#1E3A5F" stroke-width="1.5" width="396" x="71.0" y="108" /><text dy="0.35em" fill="#1F2937" font-family="Inter, Segoe UI, Helvetica, Arial, sans-serif" font-size="14px" text-anchor="middle" x="269.0" y="122.0">NVSwitch</text><text dy="0.35em" fill="#3B82F6" font-family="Inter, Segoe UI, Helvetica, Arial, sans-serif" font-size="11px" text-anchor="start" x="463.0" y="86.0">NVLink</text><text dy="0.35em" fill="#3B82F6" font-family="Inter, Segoe UI, Helvetica, Arial, sans-serif" font-size="11px" text-anchor="start" x="463.0" y="100.0">900 GB/s</text><rect fill="#F3F4F6" height="28" rx="6" ry="6" stroke="#6B7280" stroke-width="1.5" width="80" x="229.0" y="166" /><text dy="0.35em" fill="#1F2937" font-family="Inter, Segoe UI, Helvetica, Arial, sans-serif" font-size="14px" text-anchor="middle" x="269.0" y="180.0">CPU</text><line stroke="#6B7280" stroke-width="1.5" x1="269.0" x2="269.0" y1="136" y2="166" /><text dy="0.35em" fill="#6B7280" font-family="Inter, Segoe UI, Helvetica, Arial, sans-serif" font-size="11px" text-anchor="start" x="277.0" y="144.0">PCIe</text><text dy="0.35em" fill="#6B7280" font-family="Inter, Segoe UI, Helvetica, Arial, sans-serif" font-size="11px" text-anchor="start" x="277.0" y="158.0">128 GB/s</text><rect fill="#FFEDD5" height="28" rx="6" ry="6" stroke="#F97316" stroke-width="1.5" width="80" x="229.0" y="224" /><text dy="0.35em" fill="#1F2937" font-family="Inter, Segoe UI, Helvetica, Arial, sans-serif" font-size="14px" text-anchor="middle" x="269.0" y="238.0">NIC</text><line stroke="#6B7280" stroke-width="1.5" x1="269.0" x2="269.0" y1="194" y2="224" /><text dy="0.35em" fill="#6B7280" font-family="Inter, Segoe UI, Helvetica, Arial, sans-serif" font-size="11px" text-anchor="start" x="277.0" y="202.0">PCIe</text><text dy="0.35em" fill="#6B7280" font-family="Inter, Segoe UI, Helvetica, Arial, sans-serif" font-size="11px" text-anchor="start" x="277.0" y="216.0">128 GB/s</text><rect fill="#F8F9FA" height="248" rx="12" ry="12" stroke="#6B7280" stroke-width="2" width="498" x="578" y="20" /><text dy="0.35em" fill="#1F2937" font-family="Inter, Segoe UI, Helvetica, Arial, sans-serif" font-size="16px" text-anchor="middle" x="827.0" y="36">Node 2 (DGX H100)</text><rect fill="#E9D5FF" height="30" rx="6" ry="6" stroke="#6B7280" stroke-width="1.5" width="40" x="639.0" y="48" /><text dy="0.35em" fill="#1F2937" font-family="Inter, Segoe UI, Helvetica, Arial, sans-serif" font-size="11px" text-anchor="middle" x="659.0" y="63.0">G0</text><rect fill="#E9D5FF" height="30" rx="6" ry="6" stroke="#6B7280" stroke-width="1.5" width="40" x="687.0" y="48" /><text dy="0.35em" fill="#1F2937" font-family="Inter, Segoe UI, Helvetica, Arial, sans-serif" font-size="11px" text-anchor="middle" x="707.0" y="63.0">G1</text><rect fill="#E9D5FF" height="30" rx="6" ry="6" stroke="#6B7280" stroke-width="1.5" width="40" x="735.0" y="48" /><text dy="0.35em" fill="#1F2937" font-family="Inter, Segoe UI, Helvetica, Arial, sans-serif" font-size="11px" text-anchor="middle" x="755.0" y="63.0">G2</text><rect fill="#E9D5FF" height="30" rx="6" ry="6" stroke="#6B7280" stroke-width="1.5" width="40" x="783.0" y="48" /><text dy="0.35em" fill="#1F2937" font-family="Inter, Segoe UI, Helvetica, Arial, sans-serif" font-size="11px" text-anchor="middle" x="803.0" y="63.0">G3</text><rect fill="#E9D5FF" height="30" rx="6" ry="6" stroke="#6B7280" stroke-width="1.5" width="40" x="831.0" y="48" /><text dy="0.35em" fill="#1F2937" font-family="Inter, Segoe UI, Helvetica, Arial, sans-serif" font-size="11px" text-anchor="middle" x="851.0" y="63.0">G4</text><rect fill="#E9D5FF" height="30" rx="6" ry="6" stroke="#6B7280" stroke-width="1.5" width="40" x="879.0" y="48" /><text dy="0.35em" fill="#1F2937" font-family="Inter, Segoe UI, Helvetica, Arial, sans-serif" font-size="11px" text-anchor="middle" x="899.0" y="63.0">G5</text><rect fill="#E9D5FF" height="30" rx="6" ry="6" stroke="#6B7280" stroke-width="1.5" width="40" x="927.0" y="48" /><text dy="0.35em" fill="#1F2937" font-family="Inter, Segoe UI, Helvetica, Arial, sans-serif" font-size="11px" text-anchor="middle" x="947.0" y="63.0">G6</text><rect fill="#E9D5FF" height="30" rx="6" ry="6" stroke="#6B7280" stroke-width="1.5" width="40" x="975.0" y="48" /><text dy="0.35em" fill="#1F2937" font-family="Inter, Segoe UI, Helvetica, Arial, sans-serif" font-size="11px" text-anchor="middle" x="995.0" y="63.0">G7</text><line stroke="#1E3A5F" stroke-width="1.0" x1="659.0" x2="659.0" y1="78" y2="108" /><line stroke="#1E3A5F" stroke-width="1.0" x1="707.0" x2="707.0" y1="78" y2="108" /><line stroke="#1E3A5F" stroke-width="1.0" x1="755.0" x2="755.0" y1="78" y2="108" /><line stroke="#1E3A5F" stroke-width="1.0" x1="803.0" x2="803.0" y1="78" y2="108" /><line stroke="#1E3A5F" stroke-width="1.0" x1="851.0" x2="851.0" y1="78" y2="108" /><line stroke="#1E3A5F" stroke-width="1.0" x1="899.0" x2="899.0" y1="78" y2="108" /><line stroke="#1E3A5F" stroke-width="1.0" x1="947.0" x2="947.0" y1="78" y2="108" /><line stroke="#1E3A5F" stroke-width="1.0" x1="995.0" x2="995.0" y1="78" y2="108" /><rect fill="#DBEAFE" height="28" rx="6" ry="6" stroke="#1E3A5F" stroke-width="1.5" width="396" x="629.0" y="108" /><text dy="0.35em" fill="#1F2937" font-family="Inter, Segoe UI, Helvetica, Arial, sans-serif" font-size="14px" text-anchor="middle" x="827.0" y="122.0">NVSwitch</text><text dy="0.35em" fill="#3B82F6" font-family="Inter, Segoe UI, Helvetica, Arial, sans-serif" font-size="11px" text-anchor="start" x="1021.0" y="86.0">NVLink</text><text dy="0.35em" fill="#3B82F6" font-family="Inter, Segoe UI, Helvetica, Arial, sans-serif" font-size="11px" text-anchor="start" x="1021.0" y="100.0">900 GB/s</text><rect fill="#F3F4F6" height="28" rx="6" ry="6" stroke="#6B7280" stroke-width="1.5" width="80" x="787.0" y="166" /><text dy="0.35em" fill="#1F2937" font-family="Inter, Segoe UI, Helvetica, Arial, sans-serif" font-size="14px" text-anchor="middle" x="827.0" y="180.0">CPU</text><line stroke="#6B7280" stroke-width="1.5" x1="827.0" x2="827.0" y1="136" y2="166" /><text dy="0.35em" fill="#6B7280" font-family="Inter, Segoe UI, Helvetica, Arial, sans-serif" font-size="11px" text-anchor="start" x="835.0" y="144.0">PCIe</text><text dy="0.35em" fill="#6B7280" font-family="Inter, Segoe UI, Helvetica, Arial, sans-serif" font-size="11px" text-anchor="start" x="835.0" y="158.0">128 GB/s</text><rect fill="#FFEDD5" height="28" rx="6" ry="6" stroke="#F97316" stroke-width="1.5" width="80" x="787.0" y="224" /><text dy="0.35em" fill="#1F2937" font-family="Inter, Segoe UI, Helvetica, Arial, sans-serif" font-size="14px" text-anchor="middle" x="827.0" y="238.0">NIC</text><line stroke="#6B7280" stroke-width="1.5" x1="827.0" x2="827.0" y1="194" y2="224" /><text dy="0.35em" fill="#6B7280" font-family="Inter, Segoe UI, Helvetica, Arial, sans-serif" font-size="11px" text-anchor="start" x="835.0" y="202.0">PCIe</text><text dy="0.35em" fill="#6B7280" font-family="Inter, Segoe UI, Helvetica, Arial, sans-serif" font-size="11px" text-anchor="start" x="835.0" y="216.0">128 GB/s</text><rect fill="#FFEDD5" height="32" rx="6" ry="6" stroke="#F97316" stroke-width="1.5" width="140" x="478.0" y="318" /><text dy="0.35em" fill="#1F2937" font-family="Inter, Segoe UI, Helvetica, Arial, sans-serif" font-size="14px" text-anchor="middle" x="548.0" y="334.0">Network Switch</text><polyline fill="none" points="269.0,252 269.0,334.0 478.0,334.0" stroke="#F97316" stroke-width="2.5" /><polyline fill="none" points="827.0,252 827.0,334.0 618.0,334.0" stroke="#F97316" stroke-width="2.5" /><text dy="0.35em" fill="#F97316" font-family="Inter, Segoe UI, Helvetica, Arial, sans-serif" font-size="11px" text-anchor="middle" x="548.0" y="279.0">InfiniBand / RoCE</text><text dy="0.35em" fill="#F97316" font-family="Inter, Segoe UI, Helvetica, Arial, sans-serif" font-size="11px" text-anchor="middle" x="548.0" y="293.0">25-50 GB/s</text><text dy="0.35em" fill="#6B7280" font-family="Inter, Segoe UI, Helvetica, Arial, sans-serif" font-size="11px" text-anchor="middle" x="548.0" y="307.0">(~18x slower than NVLink)</text></svg>