<?xml version="1.0" encoding="utf-8" ?>
<svg baseProfile="full" height="441px" version="1.1" viewBox="0 0 768 441" width="768px" xmlns="http://www.w3.org/2000/svg" xmlns:ev="http://www.w3.org/2001/xml-events" xmlns:xlink="http://www.w3.org/1999/xlink"><defs><marker id="arrowhead" markerHeight="4" markerWidth="4" orient="auto" refX="4" refY="2.0"><polygon fill="#374151" points="0,0 4,2.0 0,4" /></marker></defs><rect fill="#F8F9FA" height="359" rx="6" ry="6" stroke="#333333" stroke-width="0.8" width="350" x="20" y="20" /><text dy="0.35em" fill="#1F2937" font-family="Inter, Segoe UI, Helvetica, Arial, sans-serif" font-size="12px" font-weight="bold" text-anchor="middle" x="195.0" y="36">Without KV cache</text><rect fill="#F8F9FA" height="359" rx="6" ry="6" stroke="#333333" stroke-width="0.8" width="350" x="398" y="20" /><text dy="0.35em" fill="#1F2937" font-family="Inter, Segoe UI, Helvetica, Arial, sans-serif" font-size="12px" font-weight="bold" text-anchor="middle" x="573.0" y="36">With KV cache</text><text dy="0.35em" fill="#6B7280" font-family="Inter, Segoe UI, Helvetica, Arial, sans-serif" font-size="9px" text-anchor="end" x="80" y="61.0">Prefill</text><text dy="0.35em" fill="#6B7280" font-family="Inter, Segoe UI, Helvetica, Arial, sans-serif" font-size="9px" text-anchor="end" x="458" y="61.0">Prefill</text><rect fill="#FFF8E1" height="26" rx="3" ry="3" stroke="#333333" stroke-width="1.0" width="40" x="86" y="48" /><text dy="0.35em" fill="#1F2937" font-family="Inter, Segoe UI, Helvetica, Arial, sans-serif" font-size="9px" text-anchor="middle" x="106.0" y="61.0">Once</text><rect fill="#FFF8E1" height="26" rx="3" ry="3" stroke="#333333" stroke-width="1.0" width="40" x="132" y="48" /><text dy="0.35em" fill="#1F2937" font-family="Inter, Segoe UI, Helvetica, Arial, sans-serif" font-size="9px" text-anchor="middle" x="152.0" y="61.0">upon</text><text dy="0.35em" fill="#6B7280" font-family="Inter, Segoe UI, Helvetica, Arial, sans-serif" font-size="8px" text-anchor="middle" x="129.0" y="93">compute</text><rect fill="#FFF8E1" height="26" rx="3" ry="3" stroke="#333333" stroke-width="1.0" width="40" x="464" y="48" /><text dy="0.35em" fill="#1F2937" font-family="Inter, Segoe UI, Helvetica, Arial, sans-serif" font-size="9px" text-anchor="middle" x="484.0" y="61.0">Once</text><rect fill="#FFF8E1" height="26" rx="3" ry="3" stroke="#333333" stroke-width="1.0" width="40" x="510" y="48" /><text dy="0.35em" fill="#1F2937" font-family="Inter, Segoe UI, Helvetica, Arial, sans-serif" font-size="9px" text-anchor="middle" x="530.0" y="61.0">upon</text><text dy="0.35em" fill="#6B7280" font-family="Inter, Segoe UI, Helvetica, Arial, sans-serif" font-size="8px" text-anchor="middle" x="507.0" y="93">compute + cache</text><text dy="0.35em" fill="#6B7280" font-family="Inter, Segoe UI, Helvetica, Arial, sans-serif" font-size="9px" text-anchor="end" x="80" y="127.0">Decode 1</text><text dy="0.35em" fill="#6B7280" font-family="Inter, Segoe UI, Helvetica, Arial, sans-serif" font-size="9px" text-anchor="end" x="458" y="127.0">Decode 1</text><rect fill="#991B1B" height="26" opacity="0.55" rx="3" ry="3" width="40" x="90" y="118" /><rect fill="#FFF8E1" height="26" rx="3" ry="3" stroke="#333333" stroke-width="1.0" width="40" x="86" y="114" /><text dy="0.35em" fill="#1F2937" font-family="Inter, Segoe UI, Helvetica, Arial, sans-serif" font-size="9px" text-anchor="middle" x="106.0" y="127.0">Once</text><rect fill="#991B1B" height="26" opacity="0.55" rx="3" ry="3" width="40" x="136" y="118" /><rect fill="#FFF8E1" height="26" rx="3" ry="3" stroke="#333333" stroke-width="1.0" width="40" x="132" y="114" /><text dy="0.35em" fill="#1F2937" font-family="Inter, Segoe UI, Helvetica, Arial, sans-serif" font-size="9px" text-anchor="middle" x="152.0" y="127.0">upon</text><rect fill="#FFF8E1" height="26" rx="3" ry="3" stroke="#333333" stroke-width="1.0" width="40" x="178" y="114" /><text dy="0.35em" fill="#1F2937" font-family="Inter, Segoe UI, Helvetica, Arial, sans-serif" font-size="9px" text-anchor="middle" x="198.0" y="127.0">a</text><line stroke="#EF4444" stroke-width="1.0" x1="86" x2="86" y1="142" y2="149" /><line stroke="#EF4444" stroke-width="1.0" x1="86" x2="172" y1="149" y2="149" /><line stroke="#EF4444" stroke-width="1.0" x1="172" x2="172" y1="142" y2="149" /><text dy="0.35em" fill="#EF4444" font-family="Inter, Segoe UI, Helvetica, Arial, sans-serif" font-size="8px" text-anchor="middle" x="129.0" y="159">recomputed (same values!)</text><text dy="0.35em" fill="#6B7280" font-family="Inter, Segoe UI, Helvetica, Arial, sans-serif" font-size="8px" text-anchor="middle" x="198.0" y="159">compute</text><rect fill="#FFE082" height="26" rx="3" ry="3" stroke="#333333" stroke-width="1.0" width="40" x="464" y="114" /><text dy="0.35em" fill="#1F2937" font-family="Inter, Segoe UI, Helvetica, Arial, sans-serif" font-size="9px" text-anchor="middle" x="484.0" y="127.0">Once</text><rect fill="#FFE082" height="26" rx="3" ry="3" stroke="#333333" stroke-width="1.0" width="40" x="510" y="114" /><text dy="0.35em" fill="#1F2937" font-family="Inter, Segoe UI, Helvetica, Arial, sans-serif" font-size="9px" text-anchor="middle" x="530.0" y="127.0">upon</text><rect fill="#FFF8E1" height="26" rx="3" ry="3" stroke="#333333" stroke-width="1.0" width="40" x="556" y="114" /><text dy="0.35em" fill="#1F2937" font-family="Inter, Segoe UI, Helvetica, Arial, sans-serif" font-size="9px" text-anchor="middle" x="576.0" y="127.0">a</text><line stroke="#6B7280" stroke-width="1.0" x1="464" x2="464" y1="142" y2="149" /><line stroke="#6B7280" stroke-width="1.0" x1="464" x2="550" y1="149" y2="149" /><line stroke="#6B7280" stroke-width="1.0" x1="550" x2="550" y1="142" y2="149" /><text dy="0.35em" fill="#6B7280" font-family="Inter, Segoe UI, Helvetica, Arial, sans-serif" font-size="8px" text-anchor="middle" x="507.0" y="159">from cache</text><text dy="0.35em" fill="#6B7280" font-family="Inter, Segoe UI, Helvetica, Arial, sans-serif" font-size="8px" text-anchor="middle" x="576.0" y="159">compute + cache</text><text dy="0.35em" fill="#6B7280" font-family="Inter, Segoe UI, Helvetica, Arial, sans-serif" font-size="9px" text-anchor="end" x="80" y="193.0">Decode 2</text><text dy="0.35em" fill="#6B7280" font-family="Inter, Segoe UI, Helvetica, Arial, sans-serif" font-size="9px" text-anchor="end" x="458" y="193.0">Decode 2</text><rect fill="#991B1B" height="26" opacity="0.55" rx="3" ry="3" width="40" x="90" y="184" /><rect fill="#FFF8E1" height="26" rx="3" ry="3" stroke="#333333" stroke-width="1.0" width="40" x="86" y="180" /><text dy="0.35em" fill="#1F2937" font-family="Inter, Segoe UI, Helvetica, Arial, sans-serif" font-size="9px" text-anchor="middle" x="106.0" y="193.0">Once</text><rect fill="#991B1B" height="26" opacity="0.55" rx="3" ry="3" width="40" x="136" y="184" /><rect fill="#FFF8E1" height="26" rx="3" ry="3" stroke="#333333" stroke-width="1.0" width="40" x="132" y="180" /><text dy="0.35em" fill="#1F2937" font-family="Inter, Segoe UI, Helvetica, Arial, sans-serif" font-size="9px" text-anchor="middle" x="152.0" y="193.0">upon</text><rect fill="#991B1B" height="26" opacity="0.55" rx="3" ry="3" width="40" x="182" y="184" /><rect fill="#FFF8E1" height="26" rx="3" ry="3" stroke="#333333" stroke-width="1.0" width="40" x="178" y="180" /><text dy="0.35em" fill="#1F2937" font-family="Inter, Segoe UI, Helvetica, Arial, sans-serif" font-size="9px" text-anchor="middle" x="198.0" y="193.0">a</text><rect fill="#FFF8E1" height="26" rx="3" ry="3" stroke="#333333" stroke-width="1.0" width="40" x="224" y="180" /><text dy="0.35em" fill="#1F2937" font-family="Inter, Segoe UI, Helvetica, Arial, sans-serif" font-size="9px" text-anchor="middle" x="244.0" y="193.0">time</text><line stroke="#EF4444" stroke-width="1.0" x1="86" x2="86" y1="208" y2="215" /><line stroke="#EF4444" stroke-width="1.0" x1="86" x2="218" y1="215" y2="215" /><line stroke="#EF4444" stroke-width="1.0" x1="218" x2="218" y1="208" y2="215" /><text dy="0.35em" fill="#EF4444" font-family="Inter, Segoe UI, Helvetica, Arial, sans-serif" font-size="8px" text-anchor="middle" x="152.0" y="225">recomputed (same values!)</text><text dy="0.35em" fill="#6B7280" font-family="Inter, Segoe UI, Helvetica, Arial, sans-serif" font-size="8px" text-anchor="middle" x="244.0" y="225">compute</text><rect fill="#FFE082" height="26" rx="3" ry="3" stroke="#333333" stroke-width="1.0" width="40" x="464" y="180" /><text dy="0.35em" fill="#1F2937" font-family="Inter, Segoe UI, Helvetica, Arial, sans-serif" font-size="9px" text-anchor="middle" x="484.0" y="193.0">Once</text><rect fill="#FFE082" height="26" rx="3" ry="3" stroke="#333333" stroke-width="1.0" width="40" x="510" y="180" /><text dy="0.35em" fill="#1F2937" font-family="Inter, Segoe UI, Helvetica, Arial, sans-serif" font-size="9px" text-anchor="middle" x="530.0" y="193.0">upon</text><rect fill="#FFE082" height="26" rx="3" ry="3" stroke="#333333" stroke-width="1.0" width="40" x="556" y="180" /><text dy="0.35em" fill="#1F2937" font-family="Inter, Segoe UI, Helvetica, Arial, sans-serif" font-size="9px" text-anchor="middle" x="576.0" y="193.0">a</text><rect fill="#FFF8E1" height="26" rx="3" ry="3" stroke="#333333" stroke-width="1.0" width="40" x="602" y="180" /><text dy="0.35em" fill="#1F2937" font-family="Inter, Segoe UI, Helvetica, Arial, sans-serif" font-size="9px" text-anchor="middle" x="622.0" y="193.0">time</text><line stroke="#6B7280" stroke-width="1.0" x1="464" x2="464" y1="208" y2="215" /><line stroke="#6B7280" stroke-width="1.0" x1="464" x2="596" y1="215" y2="215" /><line stroke="#6B7280" stroke-width="1.0" x1="596" x2="596" y1="208" y2="215" /><text dy="0.35em" fill="#6B7280" font-family="Inter, Segoe UI, Helvetica, Arial, sans-serif" font-size="8px" text-anchor="middle" x="530.0" y="225">from cache</text><text dy="0.35em" fill="#6B7280" font-family="Inter, Segoe UI, Helvetica, Arial, sans-serif" font-size="8px" text-anchor="middle" x="622.0" y="225">compute + cache</text><text dy="0.35em" fill="#6B7280" font-family="Inter, Segoe UI, Helvetica, Arial, sans-serif" font-size="9px" text-anchor="end" x="80" y="259.0">Decode 3</text><text dy="0.35em" fill="#6B7280" font-family="Inter, Segoe UI, Helvetica, Arial, sans-serif" font-size="9px" text-anchor="end" x="458" y="259.0">Decode 3</text><rect fill="#991B1B" height="26" opacity="0.55" rx="3" ry="3" width="40" x="90" y="250" /><rect fill="#FFF8E1" height="26" rx="3" ry="3" stroke="#333333" stroke-width="1.0" width="40" x="86" y="246" /><text dy="0.35em" fill="#1F2937" font-family="Inter, Segoe UI, Helvetica, Arial, sans-serif" font-size="9px" text-anchor="middle" x="106.0" y="259.0">Once</text><rect fill="#991B1B" height="26" opacity="0.55" rx="3" ry="3" width="40" x="136" y="250" /><rect fill="#FFF8E1" height="26" rx="3" ry="3" stroke="#333333" stroke-width="1.0" width="40" x="132" y="246" /><text dy="0.35em" fill="#1F2937" font-family="Inter, Segoe UI, Helvetica, Arial, sans-serif" font-size="9px" text-anchor="middle" x="152.0" y="259.0">upon</text><rect fill="#991B1B" height="26" opacity="0.55" rx="3" ry="3" width="40" x="182" y="250" /><rect fill="#FFF8E1" height="26" rx="3" ry="3" stroke="#333333" stroke-width="1.0" width="40" x="178" y="246" /><text dy="0.35em" fill="#1F2937" font-family="Inter, Segoe UI, Helvetica, Arial, sans-serif" font-size="9px" text-anchor="middle" x="198.0" y="259.0">a</text><rect fill="#991B1B" height="26" opacity="0.55" rx="3" ry="3" width="40" x="228" y="250" /><rect fill="#FFF8E1" height="26" rx="3" ry="3" stroke="#333333" stroke-width="1.0" width="40" x="224" y="246" /><text dy="0.35em" fill="#1F2937" font-family="Inter, Segoe UI, Helvetica, Arial, sans-serif" font-size="9px" text-anchor="middle" x="244.0" y="259.0">time</text><rect fill="#FFF8E1" height="26" rx="3" ry="3" stroke="#333333" stroke-width="1.0" width="40" x="270" y="246" /><text dy="0.35em" fill="#1F2937" font-family="Inter, Segoe UI, Helvetica, Arial, sans-serif" font-size="9px" text-anchor="middle" x="290.0" y="259.0">there</text><line stroke="#EF4444" stroke-width="1.0" x1="86" x2="86" y1="274" y2="281" /><line stroke="#EF4444" stroke-width="1.0" x1="86" x2="264" y1="281" y2="281" /><line stroke="#EF4444" stroke-width="1.0" x1="264" x2="264" y1="274" y2="281" /><text dy="0.35em" fill="#EF4444" font-family="Inter, Segoe UI, Helvetica, Arial, sans-serif" font-size="8px" text-anchor="middle" x="175.0" y="291">recomputed (same values!)</text><text dy="0.35em" fill="#6B7280" font-family="Inter, Segoe UI, Helvetica, Arial, sans-serif" font-size="8px" text-anchor="middle" x="290.0" y="291">compute</text><rect fill="#FFE082" height="26" rx="3" ry="3" stroke="#333333" stroke-width="1.0" width="40" x="464" y="246" /><text dy="0.35em" fill="#1F2937" font-family="Inter, Segoe UI, Helvetica, Arial, sans-serif" font-size="9px" text-anchor="middle" x="484.0" y="259.0">Once</text><rect fill="#FFE082" height="26" rx="3" ry="3" stroke="#333333" stroke-width="1.0" width="40" x="510" y="246" /><text dy="0.35em" fill="#1F2937" font-family="Inter, Segoe UI, Helvetica, Arial, sans-serif" font-size="9px" text-anchor="middle" x="530.0" y="259.0">upon</text><rect fill="#FFE082" height="26" rx="3" ry="3" stroke="#333333" stroke-width="1.0" width="40" x="556" y="246" /><text dy="0.35em" fill="#1F2937" font-family="Inter, Segoe UI, Helvetica, Arial, sans-serif" font-size="9px" text-anchor="middle" x="576.0" y="259.0">a</text><rect fill="#FFE082" height="26" rx="3" ry="3" stroke="#333333" stroke-width="1.0" width="40" x="602" y="246" /><text dy="0.35em" fill="#1F2937" font-family="Inter, Segoe UI, Helvetica, Arial, sans-serif" font-size="9px" text-anchor="middle" x="622.0" y="259.0">time</text><rect fill="#FFF8E1" height="26" rx="3" ry="3" stroke="#333333" stroke-width="1.0" width="40" x="648" y="246" /><text dy="0.35em" fill="#1F2937" font-family="Inter, Segoe UI, Helvetica, Arial, sans-serif" font-size="9px" text-anchor="middle" x="668.0" y="259.0">there</text><line stroke="#6B7280" stroke-width="1.0" x1="464" x2="464" y1="274" y2="281" /><line stroke="#6B7280" stroke-width="1.0" x1="464" x2="642" y1="281" y2="281" /><line stroke="#6B7280" stroke-width="1.0" x1="642" x2="642" y1="274" y2="281" /><text dy="0.35em" fill="#6B7280" font-family="Inter, Segoe UI, Helvetica, Arial, sans-serif" font-size="8px" text-anchor="middle" x="553.0" y="291">from cache</text><text dy="0.35em" fill="#6B7280" font-family="Inter, Segoe UI, Helvetica, Arial, sans-serif" font-size="8px" text-anchor="middle" x="668.0" y="291">compute + cache</text><text dy="0.35em" fill="#6B7280" font-family="Inter, Segoe UI, Helvetica, Arial, sans-serif" font-size="9px" text-anchor="end" x="80" y="325.0">Decode 4</text><text dy="0.35em" fill="#6B7280" font-family="Inter, Segoe UI, Helvetica, Arial, sans-serif" font-size="9px" text-anchor="end" x="458" y="325.0">Decode 4</text><rect fill="#991B1B" height="26" opacity="0.55" rx="3" ry="3" width="40" x="90" y="316" /><rect fill="#FFF8E1" height="26" rx="3" ry="3" stroke="#333333" stroke-width="1.0" width="40" x="86" y="312" /><text dy="0.35em" fill="#1F2937" font-family="Inter, Segoe UI, Helvetica, Arial, sans-serif" font-size="9px" text-anchor="middle" x="106.0" y="325.0">Once</text><rect fill="#991B1B" height="26" opacity="0.55" rx="3" ry="3" width="40" x="136" y="316" /><rect fill="#FFF8E1" height="26" rx="3" ry="3" stroke="#333333" stroke-width="1.0" width="40" x="132" y="312" /><text dy="0.35em" fill="#1F2937" font-family="Inter, Segoe UI, Helvetica, Arial, sans-serif" font-size="9px" text-anchor="middle" x="152.0" y="325.0">upon</text><rect fill="#991B1B" height="26" opacity="0.55" rx="3" ry="3" width="40" x="182" y="316" /><rect fill="#FFF8E1" height="26" rx="3" ry="3" stroke="#333333" stroke-width="1.0" width="40" x="178" y="312" /><text dy="0.35em" fill="#1F2937" font-family="Inter, Segoe UI, Helvetica, Arial, sans-serif" font-size="9px" text-anchor="middle" x="198.0" y="325.0">a</text><rect fill="#991B1B" height="26" opacity="0.55" rx="3" ry="3" width="40" x="228" y="316" /><rect fill="#FFF8E1" height="26" rx="3" ry="3" stroke="#333333" stroke-width="1.0" width="40" x="224" y="312" /><text dy="0.35em" fill="#1F2937" font-family="Inter, Segoe UI, Helvetica, Arial, sans-serif" font-size="9px" text-anchor="middle" x="244.0" y="325.0">time</text><rect fill="#991B1B" height="26" opacity="0.55" rx="3" ry="3" width="40" x="274" y="316" /><rect fill="#FFF8E1" height="26" rx="3" ry="3" stroke="#333333" stroke-width="1.0" width="40" x="270" y="312" /><text dy="0.35em" fill="#1F2937" font-family="Inter, Segoe UI, Helvetica, Arial, sans-serif" font-size="9px" text-anchor="middle" x="290.0" y="325.0">there</text><rect fill="#FFF8E1" height="26" rx="3" ry="3" stroke="#333333" stroke-width="1.0" width="40" x="316" y="312" /><text dy="0.35em" fill="#1F2937" font-family="Inter, Segoe UI, Helvetica, Arial, sans-serif" font-size="9px" text-anchor="middle" x="336.0" y="325.0">was</text><line stroke="#EF4444" stroke-width="1.0" x1="86" x2="86" y1="340" y2="347" /><line stroke="#EF4444" stroke-width="1.0" x1="86" x2="310" y1="347" y2="347" /><line stroke="#EF4444" stroke-width="1.0" x1="310" x2="310" y1="340" y2="347" /><text dy="0.35em" fill="#EF4444" font-family="Inter, Segoe UI, Helvetica, Arial, sans-serif" font-size="8px" text-anchor="middle" x="198.0" y="357">recomputed (same values!)</text><text dy="0.35em" fill="#6B7280" font-family="Inter, Segoe UI, Helvetica, Arial, sans-serif" font-size="8px" text-anchor="middle" x="336.0" y="357">compute</text><rect fill="#FFE082" height="26" rx="3" ry="3" stroke="#333333" stroke-width="1.0" width="40" x="464" y="312" /><text dy="0.35em" fill="#1F2937" font-family="Inter, Segoe UI, Helvetica, Arial, sans-serif" font-size="9px" text-anchor="middle" x="484.0" y="325.0">Once</text><rect fill="#FFE082" height="26" rx="3" ry="3" stroke="#333333" stroke-width="1.0" width="40" x="510" y="312" /><text dy="0.35em" fill="#1F2937" font-family="Inter, Segoe UI, Helvetica, Arial, sans-serif" font-size="9px" text-anchor="middle" x="530.0" y="325.0">upon</text><rect fill="#FFE082" height="26" rx="3" ry="3" stroke="#333333" stroke-width="1.0" width="40" x="556" y="312" /><text dy="0.35em" fill="#1F2937" font-family="Inter, Segoe UI, Helvetica, Arial, sans-serif" font-size="9px" text-anchor="middle" x="576.0" y="325.0">a</text><rect fill="#FFE082" height="26" rx="3" ry="3" stroke="#333333" stroke-width="1.0" width="40" x="602" y="312" /><text dy="0.35em" fill="#1F2937" font-family="Inter, Segoe UI, Helvetica, Arial, sans-serif" font-size="9px" text-anchor="middle" x="622.0" y="325.0">time</text><rect fill="#FFE082" height="26" rx="3" ry="3" stroke="#333333" stroke-width="1.0" width="40" x="648" y="312" /><text dy="0.35em" fill="#1F2937" font-family="Inter, Segoe UI, Helvetica, Arial, sans-serif" font-size="9px" text-anchor="middle" x="668.0" y="325.0">there</text><rect fill="#FFF8E1" height="26" rx="3" ry="3" stroke="#333333" stroke-width="1.0" width="40" x="694" y="312" /><text dy="0.35em" fill="#1F2937" font-family="Inter, Segoe UI, Helvetica, Arial, sans-serif" font-size="9px" text-anchor="middle" x="714.0" y="325.0">was</text><line stroke="#6B7280" stroke-width="1.0" x1="464" x2="464" y1="340" y2="347" /><line stroke="#6B7280" stroke-width="1.0" x1="464" x2="688" y1="347" y2="347" /><line stroke="#6B7280" stroke-width="1.0" x1="688" x2="688" y1="340" y2="347" /><text dy="0.35em" fill="#6B7280" font-family="Inter, Segoe UI, Helvetica, Arial, sans-serif" font-size="8px" text-anchor="middle" x="576.0" y="357">from cache</text><text dy="0.35em" fill="#6B7280" font-family="Inter, Segoe UI, Helvetica, Arial, sans-serif" font-size="8px" text-anchor="middle" x="714.0" y="357">compute + cache</text><rect fill="#FFF8E1" height="14" rx="2" stroke="#333333" stroke-width="0.8" width="14" x="36" y="391" /><text dy="0.35em" fill="#1F2937" font-family="Inter, Segoe UI, Helvetica, Arial, sans-serif" font-size="9px" text-anchor="start" x="56" y="398">Computed</text><rect fill="#991B1B" height="14" opacity="0.55" rx="2" width="14" x="140" y="395" /><rect fill="#FFF8E1" height="14" rx="2" stroke="#333333" stroke-width="0.8" width="14" x="136" y="391" /><text dy="0.35em" fill="#1F2937" font-family="Inter, Segoe UI, Helvetica, Arial, sans-serif" font-size="9px" text-anchor="start" x="156" y="398">Redundant recomputation</text><rect fill="#FFE082" height="14" rx="2" stroke="#333333" stroke-width="0.8" width="14" x="326" y="391" /><text dy="0.35em" fill="#1F2937" font-family="Inter, Segoe UI, Helvetica, Arial, sans-serif" font-size="9px" text-anchor="start" x="346" y="398">From cache</text><text dy="0.35em" fill="#6B7280" font-family="Inter, Segoe UI, Helvetica, Arial, sans-serif" font-size="9px" text-anchor="middle" x="384.0" y="415">V (value) vectors are handled identically to K vectors</text></svg>