<?xml version="1.0" encoding="utf-8" ?>
<svg baseProfile="full" height="411px" version="1.1" viewBox="0 0 738 411" width="738px" xmlns="http://www.w3.org/2000/svg" xmlns:ev="http://www.w3.org/2001/xml-events" xmlns:xlink="http://www.w3.org/1999/xlink"><defs><marker id="arrowhead" markerHeight="4" markerWidth="4" orient="auto" refX="4" refY="2.0"><polygon fill="#374151" points="0,0 4,2.0 0,4" /></marker></defs><rect fill="#F8F9FA" height="359" rx="6" ry="6" stroke="#333333" stroke-width="0.8" width="350" x="5" y="5" /><text dy="0.35em" fill="#1F2937" font-family="Inter, Segoe UI, Helvetica, Arial, sans-serif" font-size="12px" font-weight="bold" text-anchor="middle" x="180.0" y="21">Without KV cache</text><rect fill="#F8F9FA" height="359" rx="6" ry="6" stroke="#333333" stroke-width="0.8" width="350" x="383" y="5" /><text dy="0.35em" fill="#1F2937" font-family="Inter, Segoe UI, Helvetica, Arial, sans-serif" font-size="12px" font-weight="bold" text-anchor="middle" x="558.0" y="21">With KV cache</text><text dy="0.35em" fill="#6B7280" font-family="Inter, Segoe UI, Helvetica, Arial, sans-serif" font-size="9px" text-anchor="end" x="65" y="46.0">Prefill</text><text dy="0.35em" fill="#6B7280" font-family="Inter, Segoe UI, Helvetica, Arial, sans-serif" font-size="9px" text-anchor="end" x="443" y="46.0">Prefill</text><rect fill="#FFF8E1" height="26" rx="3" ry="3" stroke="#333333" stroke-width="1.0" width="40" x="71" y="33" /><text dy="0.35em" fill="#1F2937" font-family="Inter, Segoe UI, Helvetica, Arial, sans-serif" font-size="9px" text-anchor="middle" x="91.0" y="46.0">Once</text><rect fill="#FFF8E1" height="26" rx="3" ry="3" stroke="#333333" stroke-width="1.0" width="40" x="117" y="33" /><text dy="0.35em" fill="#1F2937" font-family="Inter, Segoe UI, Helvetica, Arial, sans-serif" font-size="9px" text-anchor="middle" x="137.0" y="46.0">upon</text><text dy="0.35em" fill="#6B7280" font-family="Inter, Segoe UI, Helvetica, Arial, sans-serif" font-size="8px" text-anchor="middle" x="114.0" y="78">compute</text><rect fill="#FFF8E1" height="26" rx="3" ry="3" stroke="#333333" stroke-width="1.0" width="40" x="449" y="33" /><text dy="0.35em" fill="#1F2937" font-family="Inter, Segoe UI, Helvetica, Arial, sans-serif" font-size="9px" text-anchor="middle" x="469.0" y="46.0">Once</text><rect fill="#FFF8E1" height="26" rx="3" ry="3" stroke="#333333" stroke-width="1.0" width="40" x="495" y="33" /><text dy="0.35em" fill="#1F2937" font-family="Inter, Segoe UI, Helvetica, Arial, sans-serif" font-size="9px" text-anchor="middle" x="515.0" y="46.0">upon</text><text dy="0.35em" fill="#6B7280" font-family="Inter, Segoe UI, Helvetica, Arial, sans-serif" font-size="8px" text-anchor="middle" x="492.0" y="78">compute + cache</text><text dy="0.35em" fill="#6B7280" font-family="Inter, Segoe UI, Helvetica, Arial, sans-serif" font-size="9px" text-anchor="end" x="65" y="112.0">Decode 1</text><text dy="0.35em" fill="#6B7280" font-family="Inter, Segoe UI, Helvetica, Arial, sans-serif" font-size="9px" text-anchor="end" x="443" y="112.0">Decode 1</text><rect fill="#991B1B" height="26" opacity="0.55" rx="3" ry="3" width="40" x="75" y="103" /><rect fill="#FFF8E1" height="26" rx="3" ry="3" stroke="#333333" stroke-width="1.0" width="40" x="71" y="99" /><text dy="0.35em" fill="#1F2937" font-family="Inter, Segoe UI, Helvetica, Arial, sans-serif" font-size="9px" text-anchor="middle" x="91.0" y="112.0">Once</text><rect fill="#991B1B" height="26" opacity="0.55" rx="3" ry="3" width="40" x="121" y="103" /><rect fill="#FFF8E1" height="26" rx="3" ry="3" stroke="#333333" stroke-width="1.0" width="40" x="117" y="99" /><text dy="0.35em" fill="#1F2937" font-family="Inter, Segoe UI, Helvetica, Arial, sans-serif" font-size="9px" text-anchor="middle" x="137.0" y="112.0">upon</text><rect fill="#FFF8E1" height="26" rx="3" ry="3" stroke="#333333" stroke-width="1.0" width="40" x="163" y="99" /><text dy="0.35em" fill="#1F2937" font-family="Inter, Segoe UI, Helvetica, Arial, sans-serif" font-size="9px" text-anchor="middle" x="183.0" y="112.0">a</text><line stroke="#EF4444" stroke-width="1.0" x1="71" x2="71" y1="127" y2="134" /><line stroke="#EF4444" stroke-width="1.0" x1="71" x2="157" y1="134" y2="134" /><line stroke="#EF4444" stroke-width="1.0" x1="157" x2="157" y1="127" y2="134" /><text dy="0.35em" fill="#EF4444" font-family="Inter, Segoe UI, Helvetica, Arial, sans-serif" font-size="8px" text-anchor="middle" x="114.0" y="144">recomputed (same values!)</text><text dy="0.35em" fill="#6B7280" font-family="Inter, Segoe UI, Helvetica, Arial, sans-serif" font-size="8px" text-anchor="middle" x="183.0" y="144">compute</text><rect fill="#FFE082" height="26" rx="3" ry="3" stroke="#333333" stroke-width="1.0" width="40" x="449" y="99" /><text dy="0.35em" fill="#1F2937" font-family="Inter, Segoe UI, Helvetica, Arial, sans-serif" font-size="9px" text-anchor="middle" x="469.0" y="112.0">Once</text><rect fill="#FFE082" height="26" rx="3" ry="3" stroke="#333333" stroke-width="1.0" width="40" x="495" y="99" /><text dy="0.35em" fill="#1F2937" font-family="Inter, Segoe UI, Helvetica, Arial, sans-serif" font-size="9px" text-anchor="middle" x="515.0" y="112.0">upon</text><rect fill="#FFF8E1" height="26" rx="3" ry="3" stroke="#333333" stroke-width="1.0" width="40" x="541" y="99" /><text dy="0.35em" fill="#1F2937" font-family="Inter, Segoe UI, Helvetica, Arial, sans-serif" font-size="9px" text-anchor="middle" x="561.0" y="112.0">a</text><line stroke="#6B7280" stroke-width="1.0" x1="449" x2="449" y1="127" y2="134" /><line stroke="#6B7280" stroke-width="1.0" x1="449" x2="535" y1="134" y2="134" /><line stroke="#6B7280" stroke-width="1.0" x1="535" x2="535" y1="127" y2="134" /><text dy="0.35em" fill="#6B7280" font-family="Inter, Segoe UI, Helvetica, Arial, sans-serif" font-size="8px" text-anchor="middle" x="492.0" y="144">from cache</text><text dy="0.35em" fill="#6B7280" font-family="Inter, Segoe UI, Helvetica, Arial, sans-serif" font-size="8px" text-anchor="middle" x="561.0" y="144">compute + cache</text><text dy="0.35em" fill="#6B7280" font-family="Inter, Segoe UI, Helvetica, Arial, sans-serif" font-size="9px" text-anchor="end" x="65" y="178.0">Decode 2</text><text dy="0.35em" fill="#6B7280" font-family="Inter, Segoe UI, Helvetica, Arial, sans-serif" font-size="9px" text-anchor="end" x="443" y="178.0">Decode 2</text><rect fill="#991B1B" height="26" opacity="0.55" rx="3" ry="3" width="40" x="75" y="169" /><rect fill="#FFF8E1" height="26" rx="3" ry="3" stroke="#333333" stroke-width="1.0" width="40" x="71" y="165" /><text dy="0.35em" fill="#1F2937" font-family="Inter, Segoe UI, Helvetica, Arial, sans-serif" font-size="9px" text-anchor="middle" x="91.0" y="178.0">Once</text><rect fill="#991B1B" height="26" opacity="0.55" rx="3" ry="3" width="40" x="121" y="169" /><rect fill="#FFF8E1" height="26" rx="3" ry="3" stroke="#333333" stroke-width="1.0" width="40" x="117" y="165" /><text dy="0.35em" fill="#1F2937" font-family="Inter, Segoe UI, Helvetica, Arial, sans-serif" font-size="9px" text-anchor="middle" x="137.0" y="178.0">upon</text><rect fill="#991B1B" height="26" opacity="0.55" rx="3" ry="3" width="40" x="167" y="169" /><rect fill="#FFF8E1" height="26" rx="3" ry="3" stroke="#333333" stroke-width="1.0" width="40" x="163" y="165" /><text dy="0.35em" fill="#1F2937" font-family="Inter, Segoe UI, Helvetica, Arial, sans-serif" font-size="9px" text-anchor="middle" x="183.0" y="178.0">a</text><rect fill="#FFF8E1" height="26" rx="3" ry="3" stroke="#333333" stroke-width="1.0" width="40" x="209" y="165" /><text dy="0.35em" fill="#1F2937" font-family="Inter, Segoe UI, Helvetica, Arial, sans-serif" font-size="9px" text-anchor="middle" x="229.0" y="178.0">time</text><line stroke="#EF4444" stroke-width="1.0" x1="71" x2="71" y1="193" y2="200" /><line stroke="#EF4444" stroke-width="1.0" x1="71" x2="203" y1="200" y2="200" /><line stroke="#EF4444" stroke-width="1.0" x1="203" x2="203" y1="193" y2="200" /><text dy="0.35em" fill="#EF4444" font-family="Inter, Segoe UI, Helvetica, Arial, sans-serif" font-size="8px" text-anchor="middle" x="137.0" y="210">recomputed (same values!)</text><text dy="0.35em" fill="#6B7280" font-family="Inter, Segoe UI, Helvetica, Arial, sans-serif" font-size="8px" text-anchor="middle" x="229.0" y="210">compute</text><rect fill="#FFE082" height="26" rx="3" ry="3" stroke="#333333" stroke-width="1.0" width="40" x="449" y="165" /><text dy="0.35em" fill="#1F2937" font-family="Inter, Segoe UI, Helvetica, Arial, sans-serif" font-size="9px" text-anchor="middle" x="469.0" y="178.0">Once</text><rect fill="#FFE082" height="26" rx="3" ry="3" stroke="#333333" stroke-width="1.0" width="40" x="495" y="165" /><text dy="0.35em" fill="#1F2937" font-family="Inter, Segoe UI, Helvetica, Arial, sans-serif" font-size="9px" text-anchor="middle" x="515.0" y="178.0">upon</text><rect fill="#FFE082" height="26" rx="3" ry="3" stroke="#333333" stroke-width="1.0" width="40" x="541" y="165" /><text dy="0.35em" fill="#1F2937" font-family="Inter, Segoe UI, Helvetica, Arial, sans-serif" font-size="9px" text-anchor="middle" x="561.0" y="178.0">a</text><rect fill="#FFF8E1" height="26" rx="3" ry="3" stroke="#333333" stroke-width="1.0" width="40" x="587" y="165" /><text dy="0.35em" fill="#1F2937" font-family="Inter, Segoe UI, Helvetica, Arial, sans-serif" font-size="9px" text-anchor="middle" x="607.0" y="178.0">time</text><line stroke="#6B7280" stroke-width="1.0" x1="449" x2="449" y1="193" y2="200" /><line stroke="#6B7280" stroke-width="1.0" x1="449" x2="581" y1="200" y2="200" /><line stroke="#6B7280" stroke-width="1.0" x1="581" x2="581" y1="193" y2="200" /><text dy="0.35em" fill="#6B7280" font-family="Inter, Segoe UI, Helvetica, Arial, sans-serif" font-size="8px" text-anchor="middle" x="515.0" y="210">from cache</text><text dy="0.35em" fill="#6B7280" font-family="Inter, Segoe UI, Helvetica, Arial, sans-serif" font-size="8px" text-anchor="middle" x="607.0" y="210">compute + cache</text><text dy="0.35em" fill="#6B7280" font-family="Inter, Segoe UI, Helvetica, Arial, sans-serif" font-size="9px" text-anchor="end" x="65" y="244.0">Decode 3</text><text dy="0.35em" fill="#6B7280" font-family="Inter, Segoe UI, Helvetica, Arial, sans-serif" font-size="9px" text-anchor="end" x="443" y="244.0">Decode 3</text><rect fill="#991B1B" height="26" opacity="0.55" rx="3" ry="3" width="40" x="75" y="235" /><rect fill="#FFF8E1" height="26" rx="3" ry="3" stroke="#333333" stroke-width="1.0" width="40" x="71" y="231" /><text dy="0.35em" fill="#1F2937" font-family="Inter, Segoe UI, Helvetica, Arial, sans-serif" font-size="9px" text-anchor="middle" x="91.0" y="244.0">Once</text><rect fill="#991B1B" height="26" opacity="0.55" rx="3" ry="3" width="40" x="121" y="235" /><rect fill="#FFF8E1" height="26" rx="3" ry="3" stroke="#333333" stroke-width="1.0" width="40" x="117" y="231" /><text dy="0.35em" fill="#1F2937" font-family="Inter, Segoe UI, Helvetica, Arial, sans-serif" font-size="9px" text-anchor="middle" x="137.0" y="244.0">upon</text><rect fill="#991B1B" height="26" opacity="0.55" rx="3" ry="3" width="40" x="167" y="235" /><rect fill="#FFF8E1" height="26" rx="3" ry="3" stroke="#333333" stroke-width="1.0" width="40" x="163" y="231" /><text dy="0.35em" fill="#1F2937" font-family="Inter, Segoe UI, Helvetica, Arial, sans-serif" font-size="9px" text-anchor="middle" x="183.0" y="244.0">a</text><rect fill="#991B1B" height="26" opacity="0.55" rx="3" ry="3" width="40" x="213" y="235" /><rect fill="#FFF8E1" height="26" rx="3" ry="3" stroke="#333333" stroke-width="1.0" width="40" x="209" y="231" /><text dy="0.35em" fill="#1F2937" font-family="Inter, Segoe UI, Helvetica, Arial, sans-serif" font-size="9px" text-anchor="middle" x="229.0" y="244.0">time</text><rect fill="#FFF8E1" height="26" rx="3" ry="3" stroke="#333333" stroke-width="1.0" width="40" x="255" y="231" /><text dy="0.35em" fill="#1F2937" font-family="Inter, Segoe UI, Helvetica, Arial, sans-serif" font-size="9px" text-anchor="middle" x="275.0" y="244.0">there</text><line stroke="#EF4444" stroke-width="1.0" x1="71" x2="71" y1="259" y2="266" /><line stroke="#EF4444" stroke-width="1.0" x1="71" x2="249" y1="266" y2="266" /><line stroke="#EF4444" stroke-width="1.0" x1="249" x2="249" y1="259" y2="266" /><text dy="0.35em" fill="#EF4444" font-family="Inter, Segoe UI, Helvetica, Arial, sans-serif" font-size="8px" text-anchor="middle" x="160.0" y="276">recomputed (same values!)</text><text dy="0.35em" fill="#6B7280" font-family="Inter, Segoe UI, Helvetica, Arial, sans-serif" font-size="8px" text-anchor="middle" x="275.0" y="276">compute</text><rect fill="#FFE082" height="26" rx="3" ry="3" stroke="#333333" stroke-width="1.0" width="40" x="449" y="231" /><text dy="0.35em" fill="#1F2937" font-family="Inter, Segoe UI, Helvetica, Arial, sans-serif" font-size="9px" text-anchor="middle" x="469.0" y="244.0">Once</text><rect fill="#FFE082" height="26" rx="3" ry="3" stroke="#333333" stroke-width="1.0" width="40" x="495" y="231" /><text dy="0.35em" fill="#1F2937" font-family="Inter, Segoe UI, Helvetica, Arial, sans-serif" font-size="9px" text-anchor="middle" x="515.0" y="244.0">upon</text><rect fill="#FFE082" height="26" rx="3" ry="3" stroke="#333333" stroke-width="1.0" width="40" x="541" y="231" /><text dy="0.35em" fill="#1F2937" font-family="Inter, Segoe UI, Helvetica, Arial, sans-serif" font-size="9px" text-anchor="middle" x="561.0" y="244.0">a</text><rect fill="#FFE082" height="26" rx="3" ry="3" stroke="#333333" stroke-width="1.0" width="40" x="587" y="231" /><text dy="0.35em" fill="#1F2937" font-family="Inter, Segoe UI, Helvetica, Arial, sans-serif" font-size="9px" text-anchor="middle" x="607.0" y="244.0">time</text><rect fill="#FFF8E1" height="26" rx="3" ry="3" stroke="#333333" stroke-width="1.0" width="40" x="633" y="231" /><text dy="0.35em" fill="#1F2937" font-family="Inter, Segoe UI, Helvetica, Arial, sans-serif" font-size="9px" text-anchor="middle" x="653.0" y="244.0">there</text><line stroke="#6B7280" stroke-width="1.0" x1="449" x2="449" y1="259" y2="266" /><line stroke="#6B7280" stroke-width="1.0" x1="449" x2="627" y1="266" y2="266" /><line stroke="#6B7280" stroke-width="1.0" x1="627" x2="627" y1="259" y2="266" /><text dy="0.35em" fill="#6B7280" font-family="Inter, Segoe UI, Helvetica, Arial, sans-serif" font-size="8px" text-anchor="middle" x="538.0" y="276">from cache</text><text dy="0.35em" fill="#6B7280" font-family="Inter, Segoe UI, Helvetica, Arial, sans-serif" font-size="8px" text-anchor="middle" x="653.0" y="276">compute + cache</text><text dy="0.35em" fill="#6B7280" font-family="Inter, Segoe UI, Helvetica, Arial, sans-serif" font-size="9px" text-anchor="end" x="65" y="310.0">Decode 4</text><text dy="0.35em" fill="#6B7280" font-family="Inter, Segoe UI, Helvetica, Arial, sans-serif" font-size="9px" text-anchor="end" x="443" y="310.0">Decode 4</text><rect fill="#991B1B" height="26" opacity="0.55" rx="3" ry="3" width="40" x="75" y="301" /><rect fill="#FFF8E1" height="26" rx="3" ry="3" stroke="#333333" stroke-width="1.0" width="40" x="71" y="297" /><text dy="0.35em" fill="#1F2937" font-family="Inter, Segoe UI, Helvetica, Arial, sans-serif" font-size="9px" text-anchor="middle" x="91.0" y="310.0">Once</text><rect fill="#991B1B" height="26" opacity="0.55" rx="3" ry="3" width="40" x="121" y="301" /><rect fill="#FFF8E1" height="26" rx="3" ry="3" stroke="#333333" stroke-width="1.0" width="40" x="117" y="297" /><text dy="0.35em" fill="#1F2937" font-family="Inter, Segoe UI, Helvetica, Arial, sans-serif" font-size="9px" text-anchor="middle" x="137.0" y="310.0">upon</text><rect fill="#991B1B" height="26" opacity="0.55" rx="3" ry="3" width="40" x="167" y="301" /><rect fill="#FFF8E1" height="26" rx="3" ry="3" stroke="#333333" stroke-width="1.0" width="40" x="163" y="297" /><text dy="0.35em" fill="#1F2937" font-family="Inter, Segoe UI, Helvetica, Arial, sans-serif" font-size="9px" text-anchor="middle" x="183.0" y="310.0">a</text><rect fill="#991B1B" height="26" opacity="0.55" rx="3" ry="3" width="40" x="213" y="301" /><rect fill="#FFF8E1" height="26" rx="3" ry="3" stroke="#333333" stroke-width="1.0" width="40" x="209" y="297" /><text dy="0.35em" fill="#1F2937" font-family="Inter, Segoe UI, Helvetica, Arial, sans-serif" font-size="9px" text-anchor="middle" x="229.0" y="310.0">time</text><rect fill="#991B1B" height="26" opacity="0.55" rx="3" ry="3" width="40" x="259" y="301" /><rect fill="#FFF8E1" height="26" rx="3" ry="3" stroke="#333333" stroke-width="1.0" width="40" x="255" y="297" /><text dy="0.35em" fill="#1F2937" font-family="Inter, Segoe UI, Helvetica, Arial, sans-serif" font-size="9px" text-anchor="middle" x="275.0" y="310.0">there</text><rect fill="#FFF8E1" height="26" rx="3" ry="3" stroke="#333333" stroke-width="1.0" width="40" x="301" y="297" /><text dy="0.35em" fill="#1F2937" font-family="Inter, Segoe UI, Helvetica, Arial, sans-serif" font-size="9px" text-anchor="middle" x="321.0" y="310.0">was</text><line stroke="#EF4444" stroke-width="1.0" x1="71" x2="71" y1="325" y2="332" /><line stroke="#EF4444" stroke-width="1.0" x1="71" x2="295" y1="332" y2="332" /><line stroke="#EF4444" stroke-width="1.0" x1="295" x2="295" y1="325" y2="332" /><text dy="0.35em" fill="#EF4444" font-family="Inter, Segoe UI, Helvetica, Arial, sans-serif" font-size="8px" text-anchor="middle" x="183.0" y="342">recomputed (same values!)</text><text dy="0.35em" fill="#6B7280" font-family="Inter, Segoe UI, Helvetica, Arial, sans-serif" font-size="8px" text-anchor="middle" x="321.0" y="342">compute</text><rect fill="#FFE082" height="26" rx="3" ry="3" stroke="#333333" stroke-width="1.0" width="40" x="449" y="297" /><text dy="0.35em" fill="#1F2937" font-family="Inter, Segoe UI, Helvetica, Arial, sans-serif" font-size="9px" text-anchor="middle" x="469.0" y="310.0">Once</text><rect fill="#FFE082" height="26" rx="3" ry="3" stroke="#333333" stroke-width="1.0" width="40" x="495" y="297" /><text dy="0.35em" fill="#1F2937" font-family="Inter, Segoe UI, Helvetica, Arial, sans-serif" font-size="9px" text-anchor="middle" x="515.0" y="310.0">upon</text><rect fill="#FFE082" height="26" rx="3" ry="3" stroke="#333333" stroke-width="1.0" width="40" x="541" y="297" /><text dy="0.35em" fill="#1F2937" font-family="Inter, Segoe UI, Helvetica, Arial, sans-serif" font-size="9px" text-anchor="middle" x="561.0" y="310.0">a</text><rect fill="#FFE082" height="26" rx="3" ry="3" stroke="#333333" stroke-width="1.0" width="40" x="587" y="297" /><text dy="0.35em" fill="#1F2937" font-family="Inter, Segoe UI, Helvetica, Arial, sans-serif" font-size="9px" text-anchor="middle" x="607.0" y="310.0">time</text><rect fill="#FFE082" height="26" rx="3" ry="3" stroke="#333333" stroke-width="1.0" width="40" x="633" y="297" /><text dy="0.35em" fill="#1F2937" font-family="Inter, Segoe UI, Helvetica, Arial, sans-serif" font-size="9px" text-anchor="middle" x="653.0" y="310.0">there</text><rect fill="#FFF8E1" height="26" rx="3" ry="3" stroke="#333333" stroke-width="1.0" width="40" x="679" y="297" /><text dy="0.35em" fill="#1F2937" font-family="Inter, Segoe UI, Helvetica, Arial, sans-serif" font-size="9px" text-anchor="middle" x="699.0" y="310.0">was</text><line stroke="#6B7280" stroke-width="1.0" x1="449" x2="449" y1="325" y2="332" /><line stroke="#6B7280" stroke-width="1.0" x1="449" x2="673" y1="332" y2="332" /><line stroke="#6B7280" stroke-width="1.0" x1="673" x2="673" y1="325" y2="332" /><text dy="0.35em" fill="#6B7280" font-family="Inter, Segoe UI, Helvetica, Arial, sans-serif" font-size="8px" text-anchor="middle" x="561.0" y="342">from cache</text><text dy="0.35em" fill="#6B7280" font-family="Inter, Segoe UI, Helvetica, Arial, sans-serif" font-size="8px" text-anchor="middle" x="699.0" y="342">compute + cache</text><rect fill="#FFF8E1" height="14" rx="2" stroke="#333333" stroke-width="0.8" width="14" x="21" y="376" /><text dy="0.35em" fill="#1F2937" font-family="Inter, Segoe UI, Helvetica, Arial, sans-serif" font-size="9px" text-anchor="start" x="41" y="383">Computed</text><rect fill="#991B1B" height="14" opacity="0.55" rx="2" width="14" x="125" y="380" /><rect fill="#FFF8E1" height="14" rx="2" stroke="#333333" stroke-width="0.8" width="14" x="121" y="376" /><text dy="0.35em" fill="#1F2937" font-family="Inter, Segoe UI, Helvetica, Arial, sans-serif" font-size="9px" text-anchor="start" x="141" y="383">Redundant recomputation</text><rect fill="#FFE082" height="14" rx="2" stroke="#333333" stroke-width="0.8" width="14" x="311" y="376" /><text dy="0.35em" fill="#1F2937" font-family="Inter, Segoe UI, Helvetica, Arial, sans-serif" font-size="9px" text-anchor="start" x="331" y="383">From cache</text><text dy="0.35em" fill="#6B7280" font-family="Inter, Segoe UI, Helvetica, Arial, sans-serif" font-size="9px" text-anchor="middle" x="369.0" y="400">V (value) vectors are handled identically to K vectors</text></svg>