<?xml version="1.0" encoding="utf-8" ?>
<svg baseProfile="full" height="137px" version="1.1" viewBox="0 0 932 137" width="932px" xmlns="http://www.w3.org/2000/svg" xmlns:ev="http://www.w3.org/2001/xml-events" xmlns:xlink="http://www.w3.org/1999/xlink"><defs><marker id="arrowhead" markerHeight="4" markerWidth="4" orient="auto" refX="4" refY="2.0"><polygon fill="#374151" points="0,0 4,2.0 0,4" /></marker><pattern height="5" id="frag_hatch" patternUnits="userSpaceOnUse" width="5"><line stroke="#6B7280" stroke-width="0.8" x1="0" x2="5" y1="5" y2="0" /></pattern></defs><rect fill="#F59E0B" height="26" rx="1" ry="1" width="4" x="5" y="55" /><rect fill="#FECACA" height="26" rx="3" ry="3" stroke="#333333" stroke-width="1.0" width="40" x="10" y="55" /><text dy="0.35em" fill="#1F2937" font-family="Inter, Segoe UI, Helvetica, Arial, sans-serif" font-size="8px" text-anchor="middle" x="30.0" y="68.0">The</text><rect fill="#FECACA" height="26" rx="3" ry="3" stroke="#333333" stroke-width="1.0" width="40" x="52" y="55" /><text dy="0.35em" fill="#1F2937" font-family="Inter, Segoe UI, Helvetica, Arial, sans-serif" font-size="8px" text-anchor="middle" x="72.0" y="68.0">quick</text><rect fill="#FECACA" height="26" rx="3" ry="3" stroke="#333333" stroke-width="1.0" width="40" x="94" y="55" /><text dy="0.35em" fill="#1F2937" font-family="Inter, Segoe UI, Helvetica, Arial, sans-serif" font-size="8px" text-anchor="middle" x="114.0" y="68.0">brown</text><rect fill="#FECACA" height="26" rx="3" ry="3" stroke="#333333" stroke-width="1.0" width="40" x="136" y="55" /><text dy="0.35em" fill="#1F2937" font-family="Inter, Segoe UI, Helvetica, Arial, sans-serif" font-size="8px" text-anchor="middle" x="156.0" y="68.0">fox</text><rect fill="#FECACA" height="26" rx="3" ry="3" stroke="#333333" stroke-width="1.0" width="40" x="178" y="55" /><text dy="0.35em" fill="#1F2937" font-family="Inter, Segoe UI, Helvetica, Arial, sans-serif" font-size="8px" text-anchor="middle" x="198.0" y="68.0">jumps</text><rect fill="#DBEAFE" height="26" rx="3" ry="3" stroke="#333333" stroke-width="1.0" width="40" x="220" y="55" /><text dy="0.35em" fill="#1F2937" font-family="Inter, Segoe UI, Helvetica, Arial, sans-serif" font-size="8px" text-anchor="middle" x="240.0" y="68.0">over</text><rect fill="#DBEAFE" height="26" rx="3" ry="3" stroke="#333333" stroke-width="1.0" width="40" x="262" y="55" /><text dy="0.35em" fill="#1F2937" font-family="Inter, Segoe UI, Helvetica, Arial, sans-serif" font-size="8px" text-anchor="middle" x="282.0" y="68.0">the</text><rect fill="#DBEAFE" height="26" rx="3" ry="3" stroke="#6B7280" stroke-dasharray="4,2" stroke-width="1.0" width="40" x="304" y="55" /><text dy="0.35em" fill="#1F2937" font-family="Inter, Segoe UI, Helvetica, Arial, sans-serif" font-size="7px" text-anchor="middle" x="324.0" y="68.0">resv</text><rect fill="#DBEAFE" height="26" rx="3" ry="3" stroke="#6B7280" stroke-dasharray="4,2" stroke-width="1.0" width="40" x="346" y="55" /><text dy="0.35em" fill="#1F2937" font-family="Inter, Segoe UI, Helvetica, Arial, sans-serif" font-size="7px" text-anchor="middle" x="366.0" y="68.0">resv</text><rect fill="#F3F4F6" height="26" rx="3" ry="3" stroke="#6B7280" stroke-dasharray="4,2" stroke-width="1.0" width="40" x="388" y="55" /><text dy="0.35em" fill="#6B7280" font-family="Inter, Segoe UI, Helvetica, Arial, sans-serif" font-size="10px" text-anchor="middle" x="439.0" y="68.0">...</text><rect fill="#F3F4F6" height="26" rx="3" ry="3" stroke="#6B7280" stroke-dasharray="4,2" stroke-width="1.0" width="40" x="450" y="55" /><rect fill="#FFFFFF" height="26" rx="3" ry="3" stroke="#6B7280" stroke-dasharray="4,2" stroke-width="1.0" width="40" x="498" y="55" /><rect fill="url(#frag_hatch)" height="26" rx="3" ry="3" width="40" x="498" y="55" /><text dy="0.35em" fill="#6B7280" font-family="Inter, Segoe UI, Helvetica, Arial, sans-serif" font-size="10px" text-anchor="middle" x="549.0" y="68.0">...</text><rect fill="#FFFFFF" height="26" rx="3" ry="3" stroke="#6B7280" stroke-dasharray="4,2" stroke-width="1.0" width="40" x="560" y="55" /><rect fill="url(#frag_hatch)" height="26" rx="3" ry="3" width="40" x="560" y="55" /><rect fill="#7C3AED" height="26" rx="1" ry="1" width="4" x="608" y="55" /><rect fill="#FECACA" height="26" rx="3" ry="3" stroke="#333333" stroke-width="1.0" width="40" x="613" y="55" /><text dy="0.35em" fill="#1F2937" font-family="Inter, Segoe UI, Helvetica, Arial, sans-serif" font-size="8px" text-anchor="middle" x="633.0" y="68.0">Only</text><rect fill="#FECACA" height="26" rx="3" ry="3" stroke="#333333" stroke-width="1.0" width="40" x="655" y="55" /><text dy="0.35em" fill="#1F2937" font-family="Inter, Segoe UI, Helvetica, Arial, sans-serif" font-size="8px" text-anchor="middle" x="675.0" y="68.0">the</text><rect fill="#DBEAFE" height="26" rx="3" ry="3" stroke="#333333" stroke-width="1.0" width="40" x="697" y="55" /><text dy="0.35em" fill="#1F2937" font-family="Inter, Segoe UI, Helvetica, Arial, sans-serif" font-size="8px" text-anchor="middle" x="717.0" y="68.0">good</text><rect fill="#DBEAFE" height="26" rx="3" ry="3" stroke="#333333" stroke-width="1.0" width="40" x="739" y="55" /><text dy="0.35em" fill="#1F2937" font-family="Inter, Segoe UI, Helvetica, Arial, sans-serif" font-size="8px" text-anchor="middle" x="759.0" y="68.0">die</text><rect fill="#DBEAFE" height="26" rx="3" ry="3" stroke="#6B7280" stroke-dasharray="4,2" stroke-width="1.0" width="40" x="781" y="55" /><text dy="0.35em" fill="#1F2937" font-family="Inter, Segoe UI, Helvetica, Arial, sans-serif" font-size="7px" text-anchor="middle" x="801.0" y="68.0">resv</text><rect fill="#F3F4F6" height="26" rx="3" ry="3" stroke="#6B7280" stroke-dasharray="4,2" stroke-width="1.0" width="40" x="823" y="55" /><text dy="0.35em" fill="#6B7280" font-family="Inter, Segoe UI, Helvetica, Arial, sans-serif" font-size="10px" text-anchor="middle" x="874.0" y="68.0">...</text><rect fill="#F3F4F6" height="26" rx="3" ry="3" stroke="#6B7280" stroke-dasharray="4,2" stroke-width="1.0" width="40" x="885" y="55" /><line stroke="#6B7280" stroke-width="0.8" x1="10" x2="10" y1="51" y2="43" /><line stroke="#6B7280" stroke-width="0.8" x1="260" x2="260" y1="51" y2="43" /><line stroke="#6B7280" stroke-width="0.8" x1="10" x2="260" y1="47" y2="47" /><text dy="0.35em" fill="#6B7280" font-family="Inter, Segoe UI, Helvetica, Arial, sans-serif" font-size="9px" text-anchor="middle" x="135.0" y="39">Prior KV cache</text><line stroke="#6B7280" stroke-width="0.8" x1="262" x2="262" y1="51" y2="43" /><line stroke="#6B7280" stroke-width="0.8" x1="302" x2="302" y1="51" y2="43" /><line stroke="#6B7280" stroke-width="0.8" x1="262" x2="302" y1="47" y2="47" /><text dy="0.35em" fill="#6B7280" font-family="Inter, Segoe UI, Helvetica, Arial, sans-serif" font-size="9px" text-anchor="middle" x="282.0" y="39">Current</text><line stroke="#6B7280" stroke-width="0.8" x1="304" x2="304" y1="51" y2="43" /><line stroke="#6B7280" stroke-width="0.8" x1="386" x2="386" y1="51" y2="43" /><line stroke="#6B7280" stroke-width="0.8" x1="304" x2="386" y1="47" y2="47" /><text dy="0.35em" fill="#6B7280" font-family="Inter, Segoe UI, Helvetica, Arial, sans-serif" font-size="9px" text-anchor="middle" x="345.0" y="39">Reserved</text><line stroke="#6B7280" stroke-width="0.8" x1="388" x2="388" y1="51" y2="43" /><line stroke="#6B7280" stroke-width="0.8" x1="490" x2="490" y1="51" y2="43" /><line stroke="#6B7280" stroke-width="0.8" x1="388" x2="490" y1="47" y2="47" /><text dy="0.35em" fill="#6B7280" font-family="Inter, Segoe UI, Helvetica, Arial, sans-serif" font-size="9px" text-anchor="middle" x="439.0" y="39">Internal fragmentation</text><line stroke="#6B7280" stroke-width="0.8" x1="613" x2="613" y1="51" y2="43" /><line stroke="#6B7280" stroke-width="0.8" x1="737" x2="737" y1="51" y2="43" /><line stroke="#6B7280" stroke-width="0.8" x1="613" x2="737" y1="47" y2="47" /><text dy="0.35em" fill="#6B7280" font-family="Inter, Segoe UI, Helvetica, Arial, sans-serif" font-size="9px" text-anchor="middle" x="675.0" y="39">Prior KV cache</text><line stroke="#6B7280" stroke-width="0.8" x1="739" x2="739" y1="51" y2="43" /><line stroke="#6B7280" stroke-width="0.8" x1="779" x2="779" y1="51" y2="43" /><line stroke="#6B7280" stroke-width="0.8" x1="739" x2="779" y1="47" y2="47" /><text dy="0.35em" fill="#6B7280" font-family="Inter, Segoe UI, Helvetica, Arial, sans-serif" font-size="9px" text-anchor="middle" x="759.0" y="39">Current</text><line stroke="#6B7280" stroke-width="0.8" x1="781" x2="781" y1="51" y2="43" /><line stroke="#6B7280" stroke-width="0.8" x1="821" x2="821" y1="51" y2="43" /><line stroke="#6B7280" stroke-width="0.8" x1="781" x2="821" y1="47" y2="47" /><text dy="0.35em" fill="#6B7280" font-family="Inter, Segoe UI, Helvetica, Arial, sans-serif" font-size="9px" text-anchor="middle" x="801.0" y="39">Reserved</text><line stroke="#6B7280" stroke-width="0.8" x1="823" x2="823" y1="51" y2="43" /><line stroke="#6B7280" stroke-width="0.8" x1="925" x2="925" y1="51" y2="43" /><line stroke="#6B7280" stroke-width="0.8" x1="823" x2="925" y1="47" y2="47" /><text dy="0.35em" fill="#6B7280" font-family="Inter, Segoe UI, Helvetica, Arial, sans-serif" font-size="9px" text-anchor="middle" x="874.0" y="39">Internal fragmentation</text><line stroke="#F59E0B" stroke-width="1.0" x1="5" x2="5" y1="87" y2="94" /><line stroke="#F59E0B" stroke-width="1.0" x1="5" x2="490" y1="94" y2="94" /><line stroke="#F59E0B" stroke-width="1.0" x1="490" x2="490" y1="87" y2="94" /><text dy="0.35em" fill="#F59E0B" font-family="Inter, Segoe UI, Helvetica, Arial, sans-serif" font-size="10px" text-anchor="middle" x="247.5" y="104">Request A's allocation</text><line stroke="#6B7280" stroke-width="1.0" x1="498" x2="498" y1="87" y2="94" /><line stroke="#6B7280" stroke-width="1.0" x1="498" x2="600" y1="94" y2="94" /><line stroke="#6B7280" stroke-width="1.0" x1="600" x2="600" y1="87" y2="94" /><text dy="0.35em" fill="#6B7280" font-family="Inter, Segoe UI, Helvetica, Arial, sans-serif" font-size="10px" text-anchor="middle" x="549.0" y="104">External fragmentation</text><line stroke="#7C3AED" stroke-width="1.0" x1="608" x2="608" y1="87" y2="94" /><line stroke="#7C3AED" stroke-width="1.0" x1="608" x2="925" y1="94" y2="94" /><line stroke="#7C3AED" stroke-width="1.0" x1="925" x2="925" y1="87" y2="94" /><text dy="0.35em" fill="#7C3AED" font-family="Inter, Segoe UI, Helvetica, Arial, sans-serif" font-size="10px" text-anchor="middle" x="766.5" y="104">Request B's allocation</text></svg>