<?xml version="1.0" encoding="utf-8" ?>
<svg baseProfile="full" height="832px" version="1.1" viewBox="0 0 591 832" width="591px" xmlns="http://www.w3.org/2000/svg" xmlns:ev="http://www.w3.org/2001/xml-events" xmlns:xlink="http://www.w3.org/1999/xlink"><defs><marker id="arrowhead" markerHeight="4" markerWidth="4" orient="auto" refX="4" refY="2.0"><polygon fill="#374151" points="0,0 4,2.0 0,4" /></marker><marker id="arrowhead_333333" markerHeight="4" markerWidth="4" orient="auto" refX="4" refY="2.0"><polygon fill="#333333" points="0,0 4,2.0 0,4" /></marker></defs><line stroke="#333333" stroke-width="1.5" x1="260" x2="260" y1="619.0" y2="553" /><line stroke="#333333" stroke-width="1.5" x1="260" x2="260" y1="537" y2="471" /><line stroke="#333333" stroke-width="1.5" x1="260" x2="260" y1="455" y2="413.0" /><line stroke="#333333" stroke-width="1.5" x1="260" x2="260" y1="439.0" y2="345" /><line stroke="#333333" stroke-width="1.5" x1="260" x2="260" y1="329" y2="315.0" /><text dy="0.35em" fill="#1F2937" font-family="Inter, Segoe UI, Helvetica, Arial, sans-serif" font-size="24px" text-anchor="middle" x="140" y="426.0">⋮</text><circle cx="260" cy="545" fill="white" r="8" stroke="#333333" stroke-width="1.5" /><text dy="0.3em" fill="#333333" font-family="Inter, Segoe UI, Helvetica, Arial, sans-serif" font-size="14px" text-anchor="middle" x="260" y="545">+</text><line stroke="#333333" stroke-width="1.5" x1="140" x2="140" y1="559.0" y2="545" /><line marker-end="url(#arrowhead_333333)" stroke="#333333" stroke-width="1.5" x1="140" x2="252" y1="545" y2="545" /><rect fill="#DBEAFE" height="32" rx="6" ry="6" stroke="#333333" stroke-width="1.5" width="120" x="80.0" y="559.0" /><text dy="0.35em" fill="#1F2937" font-family="Inter, Segoe UI, Helvetica, Arial, sans-serif" font-size="11px" text-anchor="middle" x="140.0" y="575.0">Layer 0</text><line marker-end="url(#arrowhead_333333)" stroke="#333333" stroke-width="1.5" x1="140" x2="140" y1="605" y2="591.0" /><line stroke="#333333" stroke-width="1.5" x1="140" x2="260" y1="605" y2="605" /><circle cx="260" cy="463" fill="white" r="8" stroke="#333333" stroke-width="1.5" /><text dy="0.3em" fill="#333333" font-family="Inter, Segoe UI, Helvetica, Arial, sans-serif" font-size="14px" text-anchor="middle" x="260" y="463">+</text><line stroke="#333333" stroke-width="1.5" x1="140" x2="140" y1="477.0" y2="463" /><line marker-end="url(#arrowhead_333333)" stroke="#333333" stroke-width="1.5" x1="140" x2="252" y1="463" y2="463" /><rect fill="#DBEAFE" height="32" rx="6" ry="6" stroke="#333333" stroke-width="1.5" width="120" x="80.0" y="477.0" /><text dy="0.35em" fill="#1F2937" font-family="Inter, Segoe UI, Helvetica, Arial, sans-serif" font-size="11px" text-anchor="middle" x="140.0" y="493.0">Layer 1</text><line marker-end="url(#arrowhead_333333)" stroke="#333333" stroke-width="1.5" x1="140" x2="140" y1="523" y2="509.0" /><line stroke="#333333" stroke-width="1.5" x1="140" x2="260" y1="523" y2="523" /><circle cx="260" cy="337" fill="white" r="8" stroke="#333333" stroke-width="1.5" /><text dy="0.3em" fill="#333333" font-family="Inter, Segoe UI, Helvetica, Arial, sans-serif" font-size="14px" text-anchor="middle" x="260" y="337">+</text><line stroke="#333333" stroke-width="1.5" x1="140" x2="140" y1="351.0" y2="337" /><line marker-end="url(#arrowhead_333333)" stroke="#333333" stroke-width="1.5" x1="140" x2="252" y1="337" y2="337" /><rect fill="#DBEAFE" height="32" rx="6" ry="6" stroke="#333333" stroke-width="1.5" width="120" x="80.0" y="351.0" /><text dy="0.35em" fill="#1F2937" font-family="Inter, Segoe UI, Helvetica, Arial, sans-serif" font-size="11px" text-anchor="middle" x="140.0" y="367.0">Layer L−1</text><line marker-end="url(#arrowhead_333333)" stroke="#333333" stroke-width="1.5" x1="140" x2="140" y1="397" y2="383.0" /><line stroke="#333333" stroke-width="1.5" x1="140" x2="260" y1="397" y2="397" /><g><rect fill="#F3F4F6" height="30" stroke="none" width="80" x="220.0" y="619.0" /><line stroke="#1E40AF" stroke-width="1.5" x1="220.0" x2="300.0" y1="619.0" y2="619.0" /><line stroke="#1E40AF" stroke-width="1.5" x1="220.0" x2="300.0" y1="649.0" y2="649.0" /><line stroke="#DC2626" stroke-width="1.5" x1="220.0" x2="220.0" y1="619.0" y2="649.0" /><line stroke="#DC2626" stroke-width="1.5" x1="300.0" x2="300.0" y1="619.0" y2="649.0" /><text dy="0.35em" fill="#1F2937" font-family="Inter, Segoe UI, Helvetica, Arial, sans-serif" font-size="8px" text-anchor="middle" x="260.0" y="634.0">Embeddings</text></g><text dy="0.35em" font-family="Inter, Segoe UI, Helvetica, Arial, sans-serif" font-size="11px" font-style="italic" text-anchor="start" x="306.0" y="634.0"><tspan fill="#6B7280">(</tspan><tspan fill="#DC2626">S</tspan><tspan fill="#6B7280">,</tspan><tspan fill="#6B7280"> </tspan><tspan fill="#1E40AF">D</tspan><tspan fill="#6B7280">)</tspan></text><g><rect fill="#F3F4F6" height="30" stroke="none" width="80" x="220.0" y="285.0" /><line stroke="#1E40AF" stroke-width="1.5" x1="220.0" x2="300.0" y1="285.0" y2="285.0" /><line stroke="#1E40AF" stroke-width="1.5" x1="220.0" x2="300.0" y1="315.0" y2="315.0" /><line stroke="#DC2626" stroke-width="1.5" x1="220.0" x2="220.0" y1="285.0" y2="315.0" /><line stroke="#DC2626" stroke-width="1.5" x1="300.0" x2="300.0" y1="285.0" y2="315.0" /><text dy="0.35em" fill="#1F2937" font-family="Inter, Segoe UI, Helvetica, Arial, sans-serif" font-size="8px" text-anchor="middle" x="260.0" y="300.0">Output L</text></g><text dy="0.35em" font-family="Inter, Segoe UI, Helvetica, Arial, sans-serif" font-size="11px" font-style="italic" text-anchor="start" x="306.0" y="300.0"><tspan fill="#6B7280">(</tspan><tspan fill="#DC2626">S</tspan><tspan fill="#6B7280">,</tspan><tspan fill="#6B7280"> </tspan><tspan fill="#1E40AF">D</tspan><tspan fill="#6B7280">)</tspan></text><line marker-end="url(#arrowhead_333333)" stroke="#333333" stroke-width="1.5" x1="260" x2="260" y1="285.0" y2="271.0" /><rect fill="#f2f4c1" height="22" rx="6" ry="6" stroke="#333333" stroke-width="1.5" width="56" x="232.0" y="249.0" /><text dy="0.35em" fill="#1F2937" font-family="Inter, Segoe UI, Helvetica, Arial, sans-serif" font-size="9px" text-anchor="middle" x="260.0" y="260.0">Norm</text><line marker-end="url(#arrowhead_333333)" stroke="#333333" stroke-width="1.5" x1="260" x2="260" y1="249.0" y2="235.0" /><g><rect fill="#F3F4F6" height="30" stroke="none" width="80" x="220.0" y="205.0" /><line stroke="#1E40AF" stroke-width="1.5" x1="220.0" x2="300.0" y1="205.0" y2="205.0" /><line stroke="#1E40AF" stroke-width="1.5" x1="220.0" x2="300.0" y1="235.0" y2="235.0" /><line stroke="#DC2626" stroke-width="1.5" x1="220.0" x2="220.0" y1="205.0" y2="235.0" /><line stroke="#DC2626" stroke-width="1.5" x1="300.0" x2="300.0" y1="205.0" y2="235.0" /><text dy="0.35em" fill="#1F2937" font-family="Inter, Segoe UI, Helvetica, Arial, sans-serif" font-size="8px" text-anchor="middle" x="260.0" y="220.0">Norm Output</text></g><text dy="0.35em" font-family="Inter, Segoe UI, Helvetica, Arial, sans-serif" font-size="11px" font-style="italic" text-anchor="start" x="306.0" y="220.0"><tspan fill="#6B7280">(</tspan><tspan fill="#DC2626">S</tspan><tspan fill="#6B7280">,</tspan><tspan fill="#6B7280"> </tspan><tspan fill="#1E40AF">D</tspan><tspan fill="#6B7280">)</tspan></text><line marker-end="url(#arrowhead_333333)" stroke="#333333" stroke-width="1.5" x1="260" x2="260" y1="205.0" y2="191.0" /><rect fill="#F9FAFB" height="22" rx="6" ry="6" stroke="#333333" stroke-width="1.5" width="52" x="234.0" y="169.0" /><text dy="0.35em" fill="#1F2937" font-family="Inter, Segoe UI, Helvetica, Arial, sans-serif" font-size="9px" text-anchor="middle" x="260.0" y="180.0">MatMul</text><g><rect fill="#F3E8FF" height="80" stroke="none" width="140" x="386.0" y="140.0" /><line stroke="#CA8A04" stroke-width="1.5" x1="386.0" x2="526.0" y1="140.0" y2="140.0" /><line stroke="#CA8A04" stroke-width="1.5" x1="386.0" x2="526.0" y1="220.0" y2="220.0" /><line stroke="#1E40AF" stroke-width="1.5" x1="386.0" x2="386.0" y1="140.0" y2="220.0" /><line stroke="#1E40AF" stroke-width="1.5" x1="526.0" x2="526.0" y1="140.0" y2="220.0" /><text dy="0.35em" fill="#1F2937" font-family="Inter, Segoe UI, Helvetica, Arial, sans-serif" font-size="11px" text-anchor="middle" x="456.0" y="180.0">LM Head</text></g><text dy="0.35em" font-family="Inter, Segoe UI, Helvetica, Arial, sans-serif" font-size="11px" font-style="italic" text-anchor="start" x="532.0" y="180.0"><tspan fill="#6B7280">(</tspan><tspan fill="#1E40AF">D</tspan><tspan fill="#6B7280">,</tspan><tspan fill="#6B7280"> </tspan><tspan fill="#CA8A04">V</tspan><tspan fill="#6B7280">)</tspan></text><line marker-end="url(#arrowhead_333333)" stroke="#333333" stroke-width="1.5" x1="386.0" x2="286.0" y1="180.0" y2="180.0" /><line marker-end="url(#arrowhead_333333)" stroke="#333333" stroke-width="1.5" x1="260" x2="260" y1="169.0" y2="155.0" /><g><rect fill="#F3F4F6" height="30" stroke="none" width="140" x="190.0" y="125.0" /><line stroke="#CA8A04" stroke-width="1.5" x1="190.0" x2="330.0" y1="125.0" y2="125.0" /><line stroke="#CA8A04" stroke-width="1.5" x1="190.0" x2="330.0" y1="155.0" y2="155.0" /><line stroke="#DC2626" stroke-width="1.5" x1="190.0" x2="190.0" y1="125.0" y2="155.0" /><line stroke="#DC2626" stroke-width="1.5" x1="330.0" x2="330.0" y1="125.0" y2="155.0" /><text dy="0.35em" fill="#1F2937" font-family="Inter, Segoe UI, Helvetica, Arial, sans-serif" font-size="11px" text-anchor="middle" x="260.0" y="140.0">Logits</text></g><text dy="0.35em" font-family="Inter, Segoe UI, Helvetica, Arial, sans-serif" font-size="11px" font-style="italic" text-anchor="start" x="336.0" y="140.0"><tspan fill="#6B7280">(</tspan><tspan fill="#DC2626">S</tspan><tspan fill="#6B7280">,</tspan><tspan fill="#6B7280"> </tspan><tspan fill="#CA8A04">V</tspan><tspan fill="#6B7280">)</tspan></text><line marker-end="url(#arrowhead_333333)" stroke="#333333" stroke-width="1.5" x1="260" x2="260" y1="125.0" y2="111.0" /><rect fill="#F9FAFB" height="22" rx="6" ry="6" stroke="#333333" stroke-width="1.5" width="52" x="234.0" y="89.0" /><text dy="0.35em" fill="#1F2937" font-family="Inter, Segoe UI, Helvetica, Arial, sans-serif" font-size="9px" text-anchor="middle" x="260.0" y="100.0">SoftMax</text><line marker-end="url(#arrowhead_333333)" stroke="#333333" stroke-width="1.5" x1="260" x2="260" y1="89.0" y2="75.0" /><g><rect fill="#F3F4F6" height="30" stroke="none" width="140" x="190.0" y="45.0" /><line stroke="#CA8A04" stroke-width="1.5" x1="190.0" x2="330.0" y1="45.0" y2="45.0" /><line stroke="#CA8A04" stroke-width="1.5" x1="190.0" x2="330.0" y1="75.0" y2="75.0" /><line stroke="#DC2626" stroke-width="1.5" x1="190.0" x2="190.0" y1="45.0" y2="75.0" /><line stroke="#DC2626" stroke-width="1.5" x1="330.0" x2="330.0" y1="45.0" y2="75.0" /><text dy="0.35em" fill="#1F2937" font-family="Inter, Segoe UI, Helvetica, Arial, sans-serif" font-size="11px" text-anchor="middle" x="260.0" y="60.0">Probabilities</text></g><text dy="0.35em" font-family="Inter, Segoe UI, Helvetica, Arial, sans-serif" font-size="11px" font-style="italic" text-anchor="start" x="336.0" y="60.0"><tspan fill="#6B7280">(</tspan><tspan fill="#DC2626">S</tspan><tspan fill="#6B7280">,</tspan><tspan fill="#6B7280"> </tspan><tspan fill="#CA8A04">V</tspan><tspan fill="#6B7280">)</tspan></text><line marker-end="url(#arrowhead_333333)" stroke="#333333" stroke-width="1.5" x1="260" x2="260" y1="45.0" y2="25" /><text dy="0.35em" fill="#1F2937" font-family="Inter, Segoe UI, Helvetica, Arial, sans-serif" font-size="11px" text-anchor="middle" x="260" y="13.0">Sample</text><line marker-end="url(#arrowhead_333333)" stroke="#333333" stroke-width="1.5" x1="260" x2="260" y1="663.0" y2="649.0" /><rect fill="#F9FAFB" height="22" rx="6" ry="6" stroke="#333333" stroke-width="1.5" width="52" x="234.0" y="663.0" /><text dy="0.35em" fill="#1F2937" font-family="Inter, Segoe UI, Helvetica, Arial, sans-serif" font-size="9px" text-anchor="middle" x="260.0" y="674.0">MatMul</text><g><rect fill="#F3E8FF" height="140" stroke="none" width="80" x="386.0" y="604.0" /><line stroke="#1E40AF" stroke-width="1.5" x1="386.0" x2="466.0" y1="604.0" y2="604.0" /><line stroke="#1E40AF" stroke-width="1.5" x1="386.0" x2="466.0" y1="744.0" y2="744.0" /><line stroke="#CA8A04" stroke-width="1.5" x1="386.0" x2="386.0" y1="604.0" y2="744.0" /><line stroke="#CA8A04" stroke-width="1.5" x1="466.0" x2="466.0" y1="604.0" y2="744.0" /><text dy="0.35em" fill="#1F2937" font-family="Inter, Segoe UI, Helvetica, Arial, sans-serif" font-size="11px" text-anchor="middle" x="426.0" y="674.0">Embed</text></g><text dy="0.35em" font-family="Inter, Segoe UI, Helvetica, Arial, sans-serif" font-size="11px" font-style="italic" text-anchor="start" x="472.0" y="674.0"><tspan fill="#6B7280">(</tspan><tspan fill="#CA8A04">V</tspan><tspan fill="#6B7280">,</tspan><tspan fill="#6B7280"> </tspan><tspan fill="#1E40AF">D</tspan><tspan fill="#6B7280">)</tspan></text><line marker-end="url(#arrowhead_333333)" stroke="#333333" stroke-width="1.5" x1="386.0" x2="286.0" y1="674.0" y2="674.0" /><line marker-end="url(#arrowhead_333333)" stroke="#333333" stroke-width="1.5" x1="260" x2="260" y1="699.0" y2="685.0" /><g><rect fill="#F3F4F6" height="30" stroke="none" width="140" x="190.0" y="699.0" /><line stroke="#CA8A04" stroke-width="1.5" x1="190.0" x2="330.0" y1="699.0" y2="699.0" /><line stroke="#CA8A04" stroke-width="1.5" x1="190.0" x2="330.0" y1="729.0" y2="729.0" /><line stroke="#DC2626" stroke-width="1.5" x1="190.0" x2="190.0" y1="699.0" y2="729.0" /><line stroke="#DC2626" stroke-width="1.5" x1="330.0" x2="330.0" y1="699.0" y2="729.0" /><text dy="0.35em" fill="#1F2937" font-family="Inter, Segoe UI, Helvetica, Arial, sans-serif" font-size="8px" text-anchor="middle" x="260.0" y="714.0">Token one-hot</text></g><text dy="0.35em" font-family="Inter, Segoe UI, Helvetica, Arial, sans-serif" font-size="11px" font-style="italic" text-anchor="start" x="336.0" y="714.0"><tspan fill="#6B7280">(</tspan><tspan fill="#DC2626">S</tspan><tspan fill="#6B7280">,</tspan><tspan fill="#6B7280"> </tspan><tspan fill="#CA8A04">V</tspan><tspan fill="#6B7280">)</tspan></text><line marker-end="url(#arrowhead_333333)" stroke="#333333" stroke-width="1.5" x1="260" x2="260" y1="743.0" y2="729.0" /><rect fill="#F9FAFB" height="22" rx="6" ry="6" stroke="#333333" stroke-width="1.5" width="52" x="234.0" y="743.0" /><text dy="0.35em" fill="#1F2937" font-family="Inter, Segoe UI, Helvetica, Arial, sans-serif" font-size="9px" text-anchor="middle" x="260.0" y="754.0">One-hot</text><line marker-end="url(#arrowhead_333333)" stroke="#333333" stroke-width="1.5" x1="260" x2="260" y1="779.0" y2="765.0" /><g><rect fill="#F3F4F6" height="30" stroke="none" width="10" x="255.0" y="779.0" /><line stroke="#F9A8D4" stroke-width="1.5" x1="255.0" x2="265.0" y1="779.0" y2="779.0" /><line stroke="#F9A8D4" stroke-width="1.5" x1="255.0" x2="265.0" y1="809.0" y2="809.0" /><line stroke="#DC2626" stroke-width="1.5" x1="255.0" x2="255.0" y1="779.0" y2="809.0" /><line stroke="#DC2626" stroke-width="1.5" x1="265.0" x2="265.0" y1="779.0" y2="809.0" /></g><text dy="0.35em" font-family="Inter, Segoe UI, Helvetica, Arial, sans-serif" font-size="11px" font-style="italic" text-anchor="start" x="271.0" y="794.0"><tspan fill="#6B7280">(</tspan><tspan fill="#DC2626">S</tspan><tspan fill="#6B7280">)</tspan></text><text dy="0.35em" fill="#1F2937" font-family="Inter, Segoe UI, Helvetica, Arial, sans-serif" font-size="11px" text-anchor="middle" x="260" y="820.0">Token IDs</text></svg>