<?xml version="1.0" encoding="utf-8" ?>
<svg baseProfile="full" height="782px" version="1.1" viewBox="0 0 606 782" width="606px" xmlns="http://www.w3.org/2000/svg" xmlns:ev="http://www.w3.org/2001/xml-events" xmlns:xlink="http://www.w3.org/1999/xlink"><defs><marker id="arrowhead" markerHeight="4" markerWidth="4" orient="auto" refX="4" refY="2.0"><polygon fill="#374151" points="0,0 4,2.0 0,4" /></marker><marker id="arrowhead_333333" markerHeight="4" markerWidth="4" orient="auto" refX="4" refY="2.0"><polygon fill="#333333" points="0,0 4,2.0 0,4" /></marker></defs><line stroke="#333333" stroke-width="1.5" x1="260" x2="260" y1="554.0" y2="488" /><line stroke="#333333" stroke-width="1.5" x1="260" x2="260" y1="472" y2="406" /><line stroke="#333333" stroke-width="1.5" x1="260" x2="260" y1="390" y2="348.0" /><line stroke="#333333" stroke-width="1.5" x1="260" x2="260" y1="374.0" y2="280" /><line stroke="#333333" stroke-width="1.5" x1="260" x2="260" y1="264" y2="250.0" /><text dominant-baseline="central" fill="#1F2937" font-family="Inter, Segoe UI, Helvetica, Arial, sans-serif" font-size="24px" text-anchor="middle" x="140" y="361.0">⋮</text><circle cx="260" cy="480" fill="white" r="8" stroke="#333333" stroke-width="1.5" /><text dominant-baseline="central" fill="#333333" font-family="Inter, Segoe UI, Helvetica, Arial, sans-serif" font-size="14px" text-anchor="middle" x="260" y="479">+</text><line stroke="#333333" stroke-width="1.5" x1="140" x2="140" y1="494.0" y2="480" /><line marker-end="url(#arrowhead_333333)" stroke="#333333" stroke-width="1.5" x1="140" x2="252" y1="480" y2="480" /><rect fill="#DBEAFE" height="32" rx="6" ry="6" stroke="#333333" stroke-width="1.5" width="120" x="80.0" y="494.0" /><text dominant-baseline="central" fill="#1F2937" font-family="Inter, Segoe UI, Helvetica, Arial, sans-serif" font-size="11px" text-anchor="middle" x="140.0" y="510.0">Layer 0</text><line marker-end="url(#arrowhead_333333)" stroke="#333333" stroke-width="1.5" x1="140" x2="140" y1="540" y2="526.0" /><line stroke="#333333" stroke-width="1.5" x1="140" x2="260" y1="540" y2="540" /><circle cx="260" cy="398" fill="white" r="8" stroke="#333333" stroke-width="1.5" /><text dominant-baseline="central" fill="#333333" font-family="Inter, Segoe UI, Helvetica, Arial, sans-serif" font-size="14px" text-anchor="middle" x="260" y="397">+</text><line stroke="#333333" stroke-width="1.5" x1="140" x2="140" y1="412.0" y2="398" /><line marker-end="url(#arrowhead_333333)" stroke="#333333" stroke-width="1.5" x1="140" x2="252" y1="398" y2="398" /><rect fill="#DBEAFE" height="32" rx="6" ry="6" stroke="#333333" stroke-width="1.5" width="120" x="80.0" y="412.0" /><text dominant-baseline="central" fill="#1F2937" font-family="Inter, Segoe UI, Helvetica, Arial, sans-serif" font-size="11px" text-anchor="middle" x="140.0" y="428.0">Layer 1</text><line marker-end="url(#arrowhead_333333)" stroke="#333333" stroke-width="1.5" x1="140" x2="140" y1="458" y2="444.0" /><line stroke="#333333" stroke-width="1.5" x1="140" x2="260" y1="458" y2="458" /><circle cx="260" cy="272" fill="white" r="8" stroke="#333333" stroke-width="1.5" /><text dominant-baseline="central" fill="#333333" font-family="Inter, Segoe UI, Helvetica, Arial, sans-serif" font-size="14px" text-anchor="middle" x="260" y="271">+</text><line stroke="#333333" stroke-width="1.5" x1="140" x2="140" y1="286.0" y2="272" /><line marker-end="url(#arrowhead_333333)" stroke="#333333" stroke-width="1.5" x1="140" x2="252" y1="272" y2="272" /><rect fill="#DBEAFE" height="32" rx="6" ry="6" stroke="#333333" stroke-width="1.5" width="120" x="80.0" y="286.0" /><text dominant-baseline="central" fill="#1F2937" font-family="Inter, Segoe UI, Helvetica, Arial, sans-serif" font-size="11px" text-anchor="middle" x="140.0" y="302.0">Layer L−1</text><line marker-end="url(#arrowhead_333333)" stroke="#333333" stroke-width="1.5" x1="140" x2="140" y1="332" y2="318.0" /><line stroke="#333333" stroke-width="1.5" x1="140" x2="260" y1="332" y2="332" /><g><rect fill="#F3F4F6" height="30" stroke="none" width="80" x="220.0" y="554.0" /><line stroke="#1E40AF" stroke-width="1.5" x1="220.0" x2="300.0" y1="554.0" y2="554.0" /><line stroke="#1E40AF" stroke-width="1.5" x1="220.0" x2="300.0" y1="584.0" y2="584.0" /><line stroke="#DC2626" stroke-width="1.5" x1="220.0" x2="220.0" y1="554.0" y2="584.0" /><line stroke="#DC2626" stroke-width="1.5" x1="300.0" x2="300.0" y1="554.0" y2="584.0" /><text dominant-baseline="central" fill="#1F2937" font-family="Inter, Segoe UI, Helvetica, Arial, sans-serif" font-size="8px" text-anchor="middle" x="260.0" y="569.0">Embeddings</text></g><text dominant-baseline="central" font-family="Inter, Segoe UI, Helvetica, Arial, sans-serif" font-size="11px" font-style="italic" text-anchor="start" x="306.0" y="569.0"><tspan fill="#6B7280">(</tspan><tspan fill="#DC2626">S</tspan><tspan fill="#6B7280">,</tspan><tspan fill="#6B7280"> </tspan><tspan fill="#1E40AF">D</tspan><tspan fill="#6B7280">)</tspan></text><g><rect fill="#F3F4F6" height="30" stroke="none" width="80" x="220.0" y="220.0" /><line stroke="#1E40AF" stroke-width="1.5" x1="220.0" x2="300.0" y1="220.0" y2="220.0" /><line stroke="#1E40AF" stroke-width="1.5" x1="220.0" x2="300.0" y1="250.0" y2="250.0" /><line stroke="#DC2626" stroke-width="1.5" x1="220.0" x2="220.0" y1="220.0" y2="250.0" /><line stroke="#DC2626" stroke-width="1.5" x1="300.0" x2="300.0" y1="220.0" y2="250.0" /><text dominant-baseline="central" fill="#1F2937" font-family="Inter, Segoe UI, Helvetica, Arial, sans-serif" font-size="8px" text-anchor="middle" x="260.0" y="235.0">Output L</text></g><text dominant-baseline="central" font-family="Inter, Segoe UI, Helvetica, Arial, sans-serif" font-size="11px" font-style="italic" text-anchor="start" x="306.0" y="235.0"><tspan fill="#6B7280">(</tspan><tspan fill="#DC2626">S</tspan><tspan fill="#6B7280">,</tspan><tspan fill="#6B7280"> </tspan><tspan fill="#1E40AF">D</tspan><tspan fill="#6B7280">)</tspan></text><line marker-end="url(#arrowhead_333333)" stroke="#333333" stroke-width="1.5" x1="260" x2="260" y1="220.0" y2="206.0" /><rect fill="#f2f4c1" height="22" rx="6" ry="6" stroke="#333333" stroke-width="1.5" width="56" x="232.0" y="184.0" /><text dominant-baseline="central" fill="#1F2937" font-family="Inter, Segoe UI, Helvetica, Arial, sans-serif" font-size="9px" text-anchor="middle" x="260.0" y="195.0">Norm</text><line marker-end="url(#arrowhead_333333)" stroke="#333333" stroke-width="1.5" x1="260" x2="260" y1="184.0" y2="170.0" /><g><rect fill="#F3F4F6" height="30" stroke="none" width="80" x="220.0" y="140.0" /><line stroke="#1E40AF" stroke-width="1.5" x1="220.0" x2="300.0" y1="140.0" y2="140.0" /><line stroke="#1E40AF" stroke-width="1.5" x1="220.0" x2="300.0" y1="170.0" y2="170.0" /><line stroke="#DC2626" stroke-width="1.5" x1="220.0" x2="220.0" y1="140.0" y2="170.0" /><line stroke="#DC2626" stroke-width="1.5" x1="300.0" x2="300.0" y1="140.0" y2="170.0" /><text dominant-baseline="central" fill="#1F2937" font-family="Inter, Segoe UI, Helvetica, Arial, sans-serif" font-size="8px" text-anchor="middle" x="260.0" y="155.0">Norm Output</text></g><text dominant-baseline="central" font-family="Inter, Segoe UI, Helvetica, Arial, sans-serif" font-size="11px" font-style="italic" text-anchor="start" x="306.0" y="155.0"><tspan fill="#6B7280">(</tspan><tspan fill="#DC2626">S</tspan><tspan fill="#6B7280">,</tspan><tspan fill="#6B7280"> </tspan><tspan fill="#1E40AF">D</tspan><tspan fill="#6B7280">)</tspan></text><line marker-end="url(#arrowhead_333333)" stroke="#333333" stroke-width="1.5" x1="260" x2="260" y1="140.0" y2="126.0" /><rect fill="#F9FAFB" height="22" rx="6" ry="6" stroke="#333333" stroke-width="1.5" width="52" x="234.0" y="104.0" /><text dominant-baseline="central" fill="#1F2937" font-family="Inter, Segoe UI, Helvetica, Arial, sans-serif" font-size="9px" text-anchor="middle" x="260.0" y="115.0">MatMul</text><g><rect fill="#F3E8FF" height="80" stroke="none" width="140" x="386.0" y="75.0" /><line stroke="#CA8A04" stroke-width="1.5" x1="386.0" x2="526.0" y1="75.0" y2="75.0" /><line stroke="#CA8A04" stroke-width="1.5" x1="386.0" x2="526.0" y1="155.0" y2="155.0" /><line stroke="#1E40AF" stroke-width="1.5" x1="386.0" x2="386.0" y1="75.0" y2="155.0" /><line stroke="#1E40AF" stroke-width="1.5" x1="526.0" x2="526.0" y1="75.0" y2="155.0" /><text dominant-baseline="central" fill="#1F2937" font-family="Inter, Segoe UI, Helvetica, Arial, sans-serif" font-size="11px" text-anchor="middle" x="456.0" y="115.0">LM Head</text></g><text dominant-baseline="central" font-family="Inter, Segoe UI, Helvetica, Arial, sans-serif" font-size="11px" font-style="italic" text-anchor="start" x="532.0" y="115.0"><tspan fill="#6B7280">(</tspan><tspan fill="#1E40AF">D</tspan><tspan fill="#6B7280">,</tspan><tspan fill="#6B7280"> </tspan><tspan fill="#CA8A04">V</tspan><tspan fill="#6B7280">)</tspan></text><line marker-end="url(#arrowhead_333333)" stroke="#333333" stroke-width="1.5" x1="386.0" x2="286.0" y1="115.0" y2="115.0" /><line marker-end="url(#arrowhead_333333)" stroke="#333333" stroke-width="1.5" x1="260" x2="260" y1="104.0" y2="90.0" /><g><rect fill="#F3F4F6" height="30" stroke="none" width="140" x="190.0" y="60.0" /><line stroke="#CA8A04" stroke-width="1.5" x1="190.0" x2="330.0" y1="60.0" y2="60.0" /><line stroke="#CA8A04" stroke-width="1.5" x1="190.0" x2="330.0" y1="90.0" y2="90.0" /><line stroke="#DC2626" stroke-width="1.5" x1="190.0" x2="190.0" y1="60.0" y2="90.0" /><line stroke="#DC2626" stroke-width="1.5" x1="330.0" x2="330.0" y1="60.0" y2="90.0" /><text dominant-baseline="central" fill="#1F2937" font-family="Inter, Segoe UI, Helvetica, Arial, sans-serif" font-size="11px" text-anchor="middle" x="260.0" y="75.0">Logits</text></g><text dominant-baseline="central" font-family="Inter, Segoe UI, Helvetica, Arial, sans-serif" font-size="11px" font-style="italic" text-anchor="start" x="336.0" y="75.0"><tspan fill="#6B7280">(</tspan><tspan fill="#DC2626">S</tspan><tspan fill="#6B7280">,</tspan><tspan fill="#6B7280"> </tspan><tspan fill="#CA8A04">V</tspan><tspan fill="#6B7280">)</tspan></text><line marker-end="url(#arrowhead_333333)" stroke="#333333" stroke-width="1.5" x1="260" x2="260" y1="60.0" y2="40" /><text dominant-baseline="central" fill="#1F2937" font-family="Inter, Segoe UI, Helvetica, Arial, sans-serif" font-size="11px" text-anchor="middle" x="260" y="28.0">Softmax &amp; Sample</text><line marker-end="url(#arrowhead_333333)" stroke="#333333" stroke-width="1.5" x1="260" x2="260" y1="598.0" y2="584.0" /><rect fill="#F9FAFB" height="22" rx="6" ry="6" stroke="#333333" stroke-width="1.5" width="52" x="234.0" y="598.0" /><text dominant-baseline="central" fill="#1F2937" font-family="Inter, Segoe UI, Helvetica, Arial, sans-serif" font-size="9px" text-anchor="middle" x="260.0" y="609.0">MatMul</text><g><rect fill="#F3E8FF" height="140" stroke="none" width="80" x="386.0" y="539.0" /><line stroke="#1E40AF" stroke-width="1.5" x1="386.0" x2="466.0" y1="539.0" y2="539.0" /><line stroke="#1E40AF" stroke-width="1.5" x1="386.0" x2="466.0" y1="679.0" y2="679.0" /><line stroke="#CA8A04" stroke-width="1.5" x1="386.0" x2="386.0" y1="539.0" y2="679.0" /><line stroke="#CA8A04" stroke-width="1.5" x1="466.0" x2="466.0" y1="539.0" y2="679.0" /><text dominant-baseline="central" fill="#1F2937" font-family="Inter, Segoe UI, Helvetica, Arial, sans-serif" font-size="11px" text-anchor="middle" x="426.0" y="609.0">Embed</text></g><text dominant-baseline="central" font-family="Inter, Segoe UI, Helvetica, Arial, sans-serif" font-size="11px" font-style="italic" text-anchor="start" x="472.0" y="609.0"><tspan fill="#6B7280">(</tspan><tspan fill="#CA8A04">V</tspan><tspan fill="#6B7280">,</tspan><tspan fill="#6B7280"> </tspan><tspan fill="#1E40AF">D</tspan><tspan fill="#6B7280">)</tspan></text><line marker-end="url(#arrowhead_333333)" stroke="#333333" stroke-width="1.5" x1="386.0" x2="286.0" y1="609.0" y2="609.0" /><line marker-end="url(#arrowhead_333333)" stroke="#333333" stroke-width="1.5" x1="260" x2="260" y1="634.0" y2="620.0" /><g><rect fill="#F3F4F6" height="30" stroke="none" width="140" x="190.0" y="634.0" /><line stroke="#CA8A04" stroke-width="1.5" x1="190.0" x2="330.0" y1="634.0" y2="634.0" /><line stroke="#CA8A04" stroke-width="1.5" x1="190.0" x2="330.0" y1="664.0" y2="664.0" /><line stroke="#DC2626" stroke-width="1.5" x1="190.0" x2="190.0" y1="634.0" y2="664.0" /><line stroke="#DC2626" stroke-width="1.5" x1="330.0" x2="330.0" y1="634.0" y2="664.0" /><text dominant-baseline="central" fill="#1F2937" font-family="Inter, Segoe UI, Helvetica, Arial, sans-serif" font-size="8px" text-anchor="middle" x="260.0" y="649.0">Token one-hot</text></g><text dominant-baseline="central" font-family="Inter, Segoe UI, Helvetica, Arial, sans-serif" font-size="11px" font-style="italic" text-anchor="start" x="336.0" y="649.0"><tspan fill="#6B7280">(</tspan><tspan fill="#DC2626">S</tspan><tspan fill="#6B7280">,</tspan><tspan fill="#6B7280"> </tspan><tspan fill="#CA8A04">V</tspan><tspan fill="#6B7280">)</tspan></text><line marker-end="url(#arrowhead_333333)" stroke="#333333" stroke-width="1.5" x1="260" x2="260" y1="678.0" y2="664.0" /><rect fill="#F9FAFB" height="22" rx="6" ry="6" stroke="#333333" stroke-width="1.5" width="52" x="234.0" y="678.0" /><text dominant-baseline="central" fill="#1F2937" font-family="Inter, Segoe UI, Helvetica, Arial, sans-serif" font-size="9px" text-anchor="middle" x="260.0" y="689.0">One-hot</text><line marker-end="url(#arrowhead_333333)" stroke="#333333" stroke-width="1.5" x1="260" x2="260" y1="714.0" y2="700.0" /><g><rect fill="#F3F4F6" height="30" stroke="none" width="10" x="255.0" y="714.0" /><line stroke="#F9A8D4" stroke-width="1.5" x1="255.0" x2="265.0" y1="714.0" y2="714.0" /><line stroke="#F9A8D4" stroke-width="1.5" x1="255.0" x2="265.0" y1="744.0" y2="744.0" /><line stroke="#DC2626" stroke-width="1.5" x1="255.0" x2="255.0" y1="714.0" y2="744.0" /><line stroke="#DC2626" stroke-width="1.5" x1="265.0" x2="265.0" y1="714.0" y2="744.0" /></g><text dominant-baseline="central" font-family="Inter, Segoe UI, Helvetica, Arial, sans-serif" font-size="11px" font-style="italic" text-anchor="start" x="271.0" y="729.0"><tspan fill="#6B7280">(</tspan><tspan fill="#DC2626">S</tspan><tspan fill="#6B7280">)</tspan></text><text dominant-baseline="central" fill="#1F2937" font-family="Inter, Segoe UI, Helvetica, Arial, sans-serif" font-size="11px" text-anchor="middle" x="260" y="755.0">Token IDs</text></svg>