<?xml version="1.0" encoding="utf-8" ?>
<svg baseProfile="full" height="752px" version="1.1" viewBox="0 0 591 752" width="591px" xmlns="http://www.w3.org/2000/svg" xmlns:ev="http://www.w3.org/2001/xml-events" xmlns:xlink="http://www.w3.org/1999/xlink"><defs><marker id="arrowhead" markerHeight="4" markerWidth="4" orient="auto" refX="4" refY="2.0"><polygon fill="#374151" points="0,0 4,2.0 0,4" /></marker><marker id="arrowhead_333333" markerHeight="4" markerWidth="4" orient="auto" refX="4" refY="2.0"><polygon fill="#333333" points="0,0 4,2.0 0,4" /></marker></defs><line stroke="#333333" stroke-width="1.5" x1="260" x2="260" y1="539.0" y2="473" /><line stroke="#333333" stroke-width="1.5" x1="260" x2="260" y1="457" y2="391" /><line stroke="#333333" stroke-width="1.5" x1="260" x2="260" y1="375" y2="333.0" /><line stroke="#333333" stroke-width="1.5" x1="260" x2="260" y1="359.0" y2="265" /><line stroke="#333333" stroke-width="1.5" x1="260" x2="260" y1="249" y2="235.0" /><text dy="0.35em" fill="#1F2937" font-family="Inter, Segoe UI, Helvetica, Arial, sans-serif" font-size="24px" text-anchor="middle" x="140" y="346.0">⋮</text><circle cx="260" cy="465" fill="white" r="8" stroke="#333333" stroke-width="1.5" /><text dy="0.3em" fill="#333333" font-family="Inter, Segoe UI, Helvetica, Arial, sans-serif" font-size="14px" text-anchor="middle" x="260" y="465">+</text><line stroke="#333333" stroke-width="1.5" x1="140" x2="140" y1="479.0" y2="465" /><line marker-end="url(#arrowhead_333333)" stroke="#333333" stroke-width="1.5" x1="140" x2="252" y1="465" y2="465" /><rect fill="#DBEAFE" height="32" rx="6" ry="6" stroke="#333333" stroke-width="1.5" width="120" x="80.0" y="479.0" /><text dy="0.35em" fill="#1F2937" font-family="Inter, Segoe UI, Helvetica, Arial, sans-serif" font-size="11px" text-anchor="middle" x="140.0" y="495.0">Layer 0</text><line marker-end="url(#arrowhead_333333)" stroke="#333333" stroke-width="1.5" x1="140" x2="140" y1="525" y2="511.0" /><line stroke="#333333" stroke-width="1.5" x1="140" x2="260" y1="525" y2="525" /><circle cx="260" cy="383" fill="white" r="8" stroke="#333333" stroke-width="1.5" /><text dy="0.3em" fill="#333333" font-family="Inter, Segoe UI, Helvetica, Arial, sans-serif" font-size="14px" text-anchor="middle" x="260" y="383">+</text><line stroke="#333333" stroke-width="1.5" x1="140" x2="140" y1="397.0" y2="383" /><line marker-end="url(#arrowhead_333333)" stroke="#333333" stroke-width="1.5" x1="140" x2="252" y1="383" y2="383" /><rect fill="#DBEAFE" height="32" rx="6" ry="6" stroke="#333333" stroke-width="1.5" width="120" x="80.0" y="397.0" /><text dy="0.35em" fill="#1F2937" font-family="Inter, Segoe UI, Helvetica, Arial, sans-serif" font-size="11px" text-anchor="middle" x="140.0" y="413.0">Layer 1</text><line marker-end="url(#arrowhead_333333)" stroke="#333333" stroke-width="1.5" x1="140" x2="140" y1="443" y2="429.0" /><line stroke="#333333" stroke-width="1.5" x1="140" x2="260" y1="443" y2="443" /><circle cx="260" cy="257" fill="white" r="8" stroke="#333333" stroke-width="1.5" /><text dy="0.3em" fill="#333333" font-family="Inter, Segoe UI, Helvetica, Arial, sans-serif" font-size="14px" text-anchor="middle" x="260" y="257">+</text><line stroke="#333333" stroke-width="1.5" x1="140" x2="140" y1="271.0" y2="257" /><line marker-end="url(#arrowhead_333333)" stroke="#333333" stroke-width="1.5" x1="140" x2="252" y1="257" y2="257" /><rect fill="#DBEAFE" height="32" rx="6" ry="6" stroke="#333333" stroke-width="1.5" width="120" x="80.0" y="271.0" /><text dy="0.35em" fill="#1F2937" font-family="Inter, Segoe UI, Helvetica, Arial, sans-serif" font-size="11px" text-anchor="middle" x="140.0" y="287.0">Layer L−1</text><line marker-end="url(#arrowhead_333333)" stroke="#333333" stroke-width="1.5" x1="140" x2="140" y1="317" y2="303.0" /><line stroke="#333333" stroke-width="1.5" x1="140" x2="260" y1="317" y2="317" /><g><rect fill="#F3F4F6" height="30" stroke="none" width="80" x="220.0" y="539.0" /><line stroke="#1E40AF" stroke-width="1.5" x1="220.0" x2="300.0" y1="539.0" y2="539.0" /><line stroke="#1E40AF" stroke-width="1.5" x1="220.0" x2="300.0" y1="569.0" y2="569.0" /><line stroke="#DC2626" stroke-width="1.5" x1="220.0" x2="220.0" y1="539.0" y2="569.0" /><line stroke="#DC2626" stroke-width="1.5" x1="300.0" x2="300.0" y1="539.0" y2="569.0" /><text dy="0.35em" fill="#1F2937" font-family="Inter, Segoe UI, Helvetica, Arial, sans-serif" font-size="8px" text-anchor="middle" x="260.0" y="554.0">Embeddings</text></g><text dy="0.35em" font-family="Inter, Segoe UI, Helvetica, Arial, sans-serif" font-size="11px" font-style="italic" text-anchor="start" x="306.0" y="554.0"><tspan fill="#6B7280">(</tspan><tspan fill="#DC2626">S</tspan><tspan fill="#6B7280">,</tspan><tspan fill="#6B7280"> </tspan><tspan fill="#1E40AF">D</tspan><tspan fill="#6B7280">)</tspan></text><g><rect fill="#F3F4F6" height="30" stroke="none" width="80" x="220.0" y="205.0" /><line stroke="#1E40AF" stroke-width="1.5" x1="220.0" x2="300.0" y1="205.0" y2="205.0" /><line stroke="#1E40AF" stroke-width="1.5" x1="220.0" x2="300.0" y1="235.0" y2="235.0" /><line stroke="#DC2626" stroke-width="1.5" x1="220.0" x2="220.0" y1="205.0" y2="235.0" /><line stroke="#DC2626" stroke-width="1.5" x1="300.0" x2="300.0" y1="205.0" y2="235.0" /><text dy="0.35em" fill="#1F2937" font-family="Inter, Segoe UI, Helvetica, Arial, sans-serif" font-size="8px" text-anchor="middle" x="260.0" y="220.0">Output L</text></g><text dy="0.35em" font-family="Inter, Segoe UI, Helvetica, Arial, sans-serif" font-size="11px" font-style="italic" text-anchor="start" x="306.0" y="220.0"><tspan fill="#6B7280">(</tspan><tspan fill="#DC2626">S</tspan><tspan fill="#6B7280">,</tspan><tspan fill="#6B7280"> </tspan><tspan fill="#1E40AF">D</tspan><tspan fill="#6B7280">)</tspan></text><line marker-end="url(#arrowhead_333333)" stroke="#333333" stroke-width="1.5" x1="260" x2="260" y1="205.0" y2="191.0" /><rect fill="#f2f4c1" height="22" rx="6" ry="6" stroke="#333333" stroke-width="1.5" width="56" x="232.0" y="169.0" /><text dy="0.35em" fill="#1F2937" font-family="Inter, Segoe UI, Helvetica, Arial, sans-serif" font-size="9px" text-anchor="middle" x="260.0" y="180.0">Norm</text><line marker-end="url(#arrowhead_333333)" stroke="#333333" stroke-width="1.5" x1="260" x2="260" y1="169.0" y2="155.0" /><g><rect fill="#F3F4F6" height="30" stroke="none" width="80" x="220.0" y="125.0" /><line stroke="#1E40AF" stroke-width="1.5" x1="220.0" x2="300.0" y1="125.0" y2="125.0" /><line stroke="#1E40AF" stroke-width="1.5" x1="220.0" x2="300.0" y1="155.0" y2="155.0" /><line stroke="#DC2626" stroke-width="1.5" x1="220.0" x2="220.0" y1="125.0" y2="155.0" /><line stroke="#DC2626" stroke-width="1.5" x1="300.0" x2="300.0" y1="125.0" y2="155.0" /><text dy="0.35em" fill="#1F2937" font-family="Inter, Segoe UI, Helvetica, Arial, sans-serif" font-size="8px" text-anchor="middle" x="260.0" y="140.0">Norm Output</text></g><text dy="0.35em" font-family="Inter, Segoe UI, Helvetica, Arial, sans-serif" font-size="11px" font-style="italic" text-anchor="start" x="306.0" y="140.0"><tspan fill="#6B7280">(</tspan><tspan fill="#DC2626">S</tspan><tspan fill="#6B7280">,</tspan><tspan fill="#6B7280"> </tspan><tspan fill="#1E40AF">D</tspan><tspan fill="#6B7280">)</tspan></text><line marker-end="url(#arrowhead_333333)" stroke="#333333" stroke-width="1.5" x1="260" x2="260" y1="125.0" y2="111.0" /><rect fill="#F9FAFB" height="22" rx="6" ry="6" stroke="#333333" stroke-width="1.5" width="52" x="234.0" y="89.0" /><text dy="0.35em" fill="#1F2937" font-family="Inter, Segoe UI, Helvetica, Arial, sans-serif" font-size="9px" text-anchor="middle" x="260.0" y="100.0">MatMul</text><g><rect fill="#F3E8FF" height="80" stroke="none" width="140" x="386.0" y="60.0" /><line stroke="#CA8A04" stroke-width="1.5" x1="386.0" x2="526.0" y1="60.0" y2="60.0" /><line stroke="#CA8A04" stroke-width="1.5" x1="386.0" x2="526.0" y1="140.0" y2="140.0" /><line stroke="#1E40AF" stroke-width="1.5" x1="386.0" x2="386.0" y1="60.0" y2="140.0" /><line stroke="#1E40AF" stroke-width="1.5" x1="526.0" x2="526.0" y1="60.0" y2="140.0" /><text dy="0.35em" fill="#1F2937" font-family="Inter, Segoe UI, Helvetica, Arial, sans-serif" font-size="11px" text-anchor="middle" x="456.0" y="100.0">LM Head</text></g><text dy="0.35em" font-family="Inter, Segoe UI, Helvetica, Arial, sans-serif" font-size="11px" font-style="italic" text-anchor="start" x="532.0" y="100.0"><tspan fill="#6B7280">(</tspan><tspan fill="#1E40AF">D</tspan><tspan fill="#6B7280">,</tspan><tspan fill="#6B7280"> </tspan><tspan fill="#CA8A04">V</tspan><tspan fill="#6B7280">)</tspan></text><line marker-end="url(#arrowhead_333333)" stroke="#333333" stroke-width="1.5" x1="386.0" x2="286.0" y1="100.0" y2="100.0" /><line marker-end="url(#arrowhead_333333)" stroke="#333333" stroke-width="1.5" x1="260" x2="260" y1="89.0" y2="75.0" /><g><rect fill="#F3F4F6" height="30" stroke="none" width="140" x="190.0" y="45.0" /><line stroke="#CA8A04" stroke-width="1.5" x1="190.0" x2="330.0" y1="45.0" y2="45.0" /><line stroke="#CA8A04" stroke-width="1.5" x1="190.0" x2="330.0" y1="75.0" y2="75.0" /><line stroke="#DC2626" stroke-width="1.5" x1="190.0" x2="190.0" y1="45.0" y2="75.0" /><line stroke="#DC2626" stroke-width="1.5" x1="330.0" x2="330.0" y1="45.0" y2="75.0" /><text dy="0.35em" fill="#1F2937" font-family="Inter, Segoe UI, Helvetica, Arial, sans-serif" font-size="11px" text-anchor="middle" x="260.0" y="60.0">Logits</text></g><text dy="0.35em" font-family="Inter, Segoe UI, Helvetica, Arial, sans-serif" font-size="11px" font-style="italic" text-anchor="start" x="336.0" y="60.0"><tspan fill="#6B7280">(</tspan><tspan fill="#DC2626">S</tspan><tspan fill="#6B7280">,</tspan><tspan fill="#6B7280"> </tspan><tspan fill="#CA8A04">V</tspan><tspan fill="#6B7280">)</tspan></text><line marker-end="url(#arrowhead_333333)" stroke="#333333" stroke-width="1.5" x1="260" x2="260" y1="45.0" y2="25" /><text dy="0.35em" fill="#1F2937" font-family="Inter, Segoe UI, Helvetica, Arial, sans-serif" font-size="11px" text-anchor="middle" x="260" y="13.0">Softmax &amp; Sample</text><line marker-end="url(#arrowhead_333333)" stroke="#333333" stroke-width="1.5" x1="260" x2="260" y1="583.0" y2="569.0" /><rect fill="#F9FAFB" height="22" rx="6" ry="6" stroke="#333333" stroke-width="1.5" width="52" x="234.0" y="583.0" /><text dy="0.35em" fill="#1F2937" font-family="Inter, Segoe UI, Helvetica, Arial, sans-serif" font-size="9px" text-anchor="middle" x="260.0" y="594.0">MatMul</text><g><rect fill="#F3E8FF" height="140" stroke="none" width="80" x="386.0" y="524.0" /><line stroke="#1E40AF" stroke-width="1.5" x1="386.0" x2="466.0" y1="524.0" y2="524.0" /><line stroke="#1E40AF" stroke-width="1.5" x1="386.0" x2="466.0" y1="664.0" y2="664.0" /><line stroke="#CA8A04" stroke-width="1.5" x1="386.0" x2="386.0" y1="524.0" y2="664.0" /><line stroke="#CA8A04" stroke-width="1.5" x1="466.0" x2="466.0" y1="524.0" y2="664.0" /><text dy="0.35em" fill="#1F2937" font-family="Inter, Segoe UI, Helvetica, Arial, sans-serif" font-size="11px" text-anchor="middle" x="426.0" y="594.0">Embed</text></g><text dy="0.35em" font-family="Inter, Segoe UI, Helvetica, Arial, sans-serif" font-size="11px" font-style="italic" text-anchor="start" x="472.0" y="594.0"><tspan fill="#6B7280">(</tspan><tspan fill="#CA8A04">V</tspan><tspan fill="#6B7280">,</tspan><tspan fill="#6B7280"> </tspan><tspan fill="#1E40AF">D</tspan><tspan fill="#6B7280">)</tspan></text><line marker-end="url(#arrowhead_333333)" stroke="#333333" stroke-width="1.5" x1="386.0" x2="286.0" y1="594.0" y2="594.0" /><line marker-end="url(#arrowhead_333333)" stroke="#333333" stroke-width="1.5" x1="260" x2="260" y1="619.0" y2="605.0" /><g><rect fill="#F3F4F6" height="30" stroke="none" width="140" x="190.0" y="619.0" /><line stroke="#CA8A04" stroke-width="1.5" x1="190.0" x2="330.0" y1="619.0" y2="619.0" /><line stroke="#CA8A04" stroke-width="1.5" x1="190.0" x2="330.0" y1="649.0" y2="649.0" /><line stroke="#DC2626" stroke-width="1.5" x1="190.0" x2="190.0" y1="619.0" y2="649.0" /><line stroke="#DC2626" stroke-width="1.5" x1="330.0" x2="330.0" y1="619.0" y2="649.0" /><text dy="0.35em" fill="#1F2937" font-family="Inter, Segoe UI, Helvetica, Arial, sans-serif" font-size="8px" text-anchor="middle" x="260.0" y="634.0">Token one-hot</text></g><text dy="0.35em" font-family="Inter, Segoe UI, Helvetica, Arial, sans-serif" font-size="11px" font-style="italic" text-anchor="start" x="336.0" y="634.0"><tspan fill="#6B7280">(</tspan><tspan fill="#DC2626">S</tspan><tspan fill="#6B7280">,</tspan><tspan fill="#6B7280"> </tspan><tspan fill="#CA8A04">V</tspan><tspan fill="#6B7280">)</tspan></text><line marker-end="url(#arrowhead_333333)" stroke="#333333" stroke-width="1.5" x1="260" x2="260" y1="663.0" y2="649.0" /><rect fill="#F9FAFB" height="22" rx="6" ry="6" stroke="#333333" stroke-width="1.5" width="52" x="234.0" y="663.0" /><text dy="0.35em" fill="#1F2937" font-family="Inter, Segoe UI, Helvetica, Arial, sans-serif" font-size="9px" text-anchor="middle" x="260.0" y="674.0">One-hot</text><line marker-end="url(#arrowhead_333333)" stroke="#333333" stroke-width="1.5" x1="260" x2="260" y1="699.0" y2="685.0" /><g><rect fill="#F3F4F6" height="30" stroke="none" width="10" x="255.0" y="699.0" /><line stroke="#F9A8D4" stroke-width="1.5" x1="255.0" x2="265.0" y1="699.0" y2="699.0" /><line stroke="#F9A8D4" stroke-width="1.5" x1="255.0" x2="265.0" y1="729.0" y2="729.0" /><line stroke="#DC2626" stroke-width="1.5" x1="255.0" x2="255.0" y1="699.0" y2="729.0" /><line stroke="#DC2626" stroke-width="1.5" x1="265.0" x2="265.0" y1="699.0" y2="729.0" /></g><text dy="0.35em" font-family="Inter, Segoe UI, Helvetica, Arial, sans-serif" font-size="11px" font-style="italic" text-anchor="start" x="271.0" y="714.0"><tspan fill="#6B7280">(</tspan><tspan fill="#DC2626">S</tspan><tspan fill="#6B7280">)</tspan></text><text dy="0.35em" fill="#1F2937" font-family="Inter, Segoe UI, Helvetica, Arial, sans-serif" font-size="11px" text-anchor="middle" x="260" y="740.0">Token IDs</text></svg>