<?xml version="1.0" encoding="utf-8" ?>
<svg baseProfile="full" height="410px" version="1.1" viewBox="0 0 450 410" width="450px" xmlns="http://www.w3.org/2000/svg" xmlns:ev="http://www.w3.org/2001/xml-events" xmlns:xlink="http://www.w3.org/1999/xlink"><defs><marker id="arrowhead" markerHeight="4" markerWidth="4" orient="auto" refX="4" refY="2.0"><polygon fill="#374151" points="0,0 4,2.0 0,4" /></marker><marker id="arrowhead_333333" markerHeight="4" markerWidth="4" orient="auto" refX="4" refY="2.0"><polygon fill="#333333" points="0,0 4,2.0 0,4" /></marker></defs><line stroke="#333333" stroke-width="1.5" x1="422.0" x2="422.0" y1="0" y2="20" /><line stroke="#333333" stroke-width="1.5" x1="422.0" x2="422.0" y1="36" y2="410" /><line stroke="#333333" stroke-width="1.5" x1="90.0" x2="422.0" y1="390.0" y2="390.0" /><line marker-end="url(#arrowhead_333333)" stroke="#333333" stroke-width="1.5" x1="90.0" x2="90.0" y1="390.0" y2="374.0" /><g><rect fill="#F3F4F6" height="40" stroke="none" width="80" x="50.0" y="334.0" /><line stroke="#1E40AF" stroke-width="1.5" x1="50.0" x2="130.0" y1="334.0" y2="334.0" /><line stroke="#1E40AF" stroke-width="1.5" x1="50.0" x2="130.0" y1="374.0" y2="374.0" /><line stroke="#DC2626" stroke-width="1.5" x1="50.0" x2="50.0" y1="334.0" y2="374.0" /><line stroke="#DC2626" stroke-width="1.5" x1="130.0" x2="130.0" y1="334.0" y2="374.0" /><text dy="0.35em" fill="#1F2937" font-family="Inter, Segoe UI, Helvetica, Arial, sans-serif" font-size="11px" text-anchor="middle" x="90.0" y="354.0">X</text></g><text dy="0.35em" font-family="Inter, Segoe UI, Helvetica, Arial, sans-serif" font-size="11px" font-style="italic" text-anchor="start" x="136.0" y="354.0"><tspan fill="#6B7280">(</tspan><tspan fill="#DC2626">S</tspan><tspan fill="#6B7280">,</tspan><tspan fill="#6B7280"> </tspan><tspan fill="#1E40AF">D</tspan><tspan fill="#6B7280">)</tspan></text><line marker-end="url(#arrowhead_333333)" stroke="#333333" stroke-width="1.5" x1="90.0" x2="90.0" y1="334.0" y2="318.0" /><rect fill="#F9FAFB" height="22" rx="6" ry="6" stroke="#333333" stroke-width="1.5" width="48" x="66.0" y="296.0" /><text dy="0.35em" fill="#1F2937" font-family="Inter, Segoe UI, Helvetica, Arial, sans-serif" font-size="9px" text-anchor="middle" x="90.0" y="307.0">MatMul</text><g><rect fill="#F3E8FF" height="80" stroke="none" width="140" x="214.0" y="267.0" /><line stroke="#059669" stroke-width="1.5" x1="214.0" x2="354.0" y1="267.0" y2="267.0" /><line stroke="#059669" stroke-width="1.5" x1="214.0" x2="354.0" y1="347.0" y2="347.0" /><line stroke="#1E40AF" stroke-width="1.5" x1="214.0" x2="214.0" y1="267.0" y2="347.0" /><line stroke="#1E40AF" stroke-width="1.5" x1="354.0" x2="354.0" y1="267.0" y2="347.0" /><text dy="0.35em" fill="#1F2937" font-family="Inter, Segoe UI, Helvetica, Arial, sans-serif" font-size="11px" text-anchor="middle" x="284.0" y="307.0">W₁</text></g><text dy="0.35em" font-family="Inter, Segoe UI, Helvetica, Arial, sans-serif" font-size="11px" font-style="italic" text-anchor="start" x="360.0" y="307.0"><tspan fill="#6B7280">(</tspan><tspan fill="#1E40AF">D</tspan><tspan fill="#6B7280">,</tspan><tspan fill="#6B7280"> </tspan><tspan fill="#059669">F</tspan><tspan fill="#6B7280">)</tspan></text><line marker-end="url(#arrowhead_333333)" stroke="#333333" stroke-width="1.5" x1="214.0" x2="114.0" y1="307.0" y2="307.0" /><line marker-end="url(#arrowhead_333333)" stroke="#333333" stroke-width="1.5" x1="90.0" x2="90.0" y1="296.0" y2="280.0" /><g><rect fill="#DBEAFE" height="40" stroke="none" width="140" x="20.0" y="240.0" /><line stroke="#059669" stroke-width="1.5" x1="20.0" x2="160.0" y1="240.0" y2="240.0" /><line stroke="#059669" stroke-width="1.5" x1="20.0" x2="160.0" y1="280.0" y2="280.0" /><line stroke="#DC2626" stroke-width="1.5" x1="20.0" x2="20.0" y1="240.0" y2="280.0" /><line stroke="#DC2626" stroke-width="1.5" x1="160.0" x2="160.0" y1="240.0" y2="280.0" /><text dy="0.35em" fill="#1F2937" font-family="Inter, Segoe UI, Helvetica, Arial, sans-serif" font-size="11px" text-anchor="middle" x="90.0" y="260.0">Up proj</text></g><text dy="0.35em" font-family="Inter, Segoe UI, Helvetica, Arial, sans-serif" font-size="11px" font-style="italic" text-anchor="start" x="166.0" y="260.0"><tspan fill="#6B7280">(</tspan><tspan fill="#DC2626">S</tspan><tspan fill="#6B7280">,</tspan><tspan fill="#6B7280"> </tspan><tspan fill="#059669">F</tspan><tspan fill="#6B7280">)</tspan></text><line marker-end="url(#arrowhead_333333)" stroke="#333333" stroke-width="1.5" x1="90.0" x2="90.0" y1="240.0" y2="224.0" /><rect fill="#F9FAFB" height="22" rx="6" ry="6" stroke="#333333" stroke-width="1.5" width="48" x="66.0" y="202.0" /><text dy="0.35em" fill="#1F2937" font-family="Inter, Segoe UI, Helvetica, Arial, sans-serif" font-size="9px" text-anchor="middle" x="90.0" y="213.0">ReLU</text><line marker-end="url(#arrowhead_333333)" stroke="#333333" stroke-width="1.5" x1="90.0" x2="90.0" y1="202.0" y2="186.0" /><g><rect fill="#DBEAFE" height="40" stroke="none" width="140" x="20.0" y="146.0" /><line stroke="#059669" stroke-width="1.5" x1="20.0" x2="160.0" y1="146.0" y2="146.0" /><line stroke="#059669" stroke-width="1.5" x1="20.0" x2="160.0" y1="186.0" y2="186.0" /><line stroke="#DC2626" stroke-width="1.5" x1="20.0" x2="20.0" y1="146.0" y2="186.0" /><line stroke="#DC2626" stroke-width="1.5" x1="160.0" x2="160.0" y1="146.0" y2="186.0" /><text dy="0.35em" fill="#1F2937" font-family="Inter, Segoe UI, Helvetica, Arial, sans-serif" font-size="11px" text-anchor="middle" x="90.0" y="166.0">Up val</text></g><text dy="0.35em" font-family="Inter, Segoe UI, Helvetica, Arial, sans-serif" font-size="11px" font-style="italic" text-anchor="start" x="166.0" y="166.0"><tspan fill="#6B7280">(</tspan><tspan fill="#DC2626">S</tspan><tspan fill="#6B7280">,</tspan><tspan fill="#6B7280"> </tspan><tspan fill="#059669">F</tspan><tspan fill="#6B7280">)</tspan></text><line marker-end="url(#arrowhead_333333)" stroke="#333333" stroke-width="1.5" x1="90.0" x2="90.0" y1="146.0" y2="130.0" /><rect fill="#F9FAFB" height="22" rx="6" ry="6" stroke="#333333" stroke-width="1.5" width="48" x="66.0" y="108.0" /><text dy="0.35em" fill="#1F2937" font-family="Inter, Segoe UI, Helvetica, Arial, sans-serif" font-size="9px" text-anchor="middle" x="90.0" y="119.0">MatMul</text><g><rect fill="#F3E8FF" height="140" stroke="none" width="80" x="214.0" y="49.0" /><line stroke="#1E40AF" stroke-width="1.5" x1="214.0" x2="294.0" y1="49.0" y2="49.0" /><line stroke="#1E40AF" stroke-width="1.5" x1="214.0" x2="294.0" y1="189.0" y2="189.0" /><line stroke="#059669" stroke-width="1.5" x1="214.0" x2="214.0" y1="49.0" y2="189.0" /><line stroke="#059669" stroke-width="1.5" x1="294.0" x2="294.0" y1="49.0" y2="189.0" /><text dy="0.35em" fill="#1F2937" font-family="Inter, Segoe UI, Helvetica, Arial, sans-serif" font-size="11px" text-anchor="middle" x="254.0" y="119.0">W₂</text></g><text dy="0.35em" font-family="Inter, Segoe UI, Helvetica, Arial, sans-serif" font-size="11px" font-style="italic" text-anchor="start" x="300.0" y="119.0"><tspan fill="#6B7280">(</tspan><tspan fill="#059669">F</tspan><tspan fill="#6B7280">,</tspan><tspan fill="#6B7280"> </tspan><tspan fill="#1E40AF">D</tspan><tspan fill="#6B7280">)</tspan></text><line marker-end="url(#arrowhead_333333)" stroke="#333333" stroke-width="1.5" x1="214.0" x2="114.0" y1="119.0" y2="119.0" /><line marker-end="url(#arrowhead_333333)" stroke="#333333" stroke-width="1.5" x1="90.0" x2="90.0" y1="108.0" y2="92.0" /><g><rect fill="#F3F4F6" height="40" stroke="none" width="80" x="50.0" y="52.0" /><line stroke="#1E40AF" stroke-width="1.5" x1="50.0" x2="130.0" y1="52.0" y2="52.0" /><line stroke="#1E40AF" stroke-width="1.5" x1="50.0" x2="130.0" y1="92.0" y2="92.0" /><line stroke="#DC2626" stroke-width="1.5" x1="50.0" x2="50.0" y1="52.0" y2="92.0" /><line stroke="#DC2626" stroke-width="1.5" x1="130.0" x2="130.0" y1="52.0" y2="92.0" /><text dy="0.35em" fill="#1F2937" font-family="Inter, Segoe UI, Helvetica, Arial, sans-serif" font-size="11px" text-anchor="middle" x="90.0" y="72.0">Output</text></g><text dy="0.35em" font-family="Inter, Segoe UI, Helvetica, Arial, sans-serif" font-size="11px" font-style="italic" text-anchor="start" x="136.0" y="72.0"><tspan fill="#6B7280">(</tspan><tspan fill="#DC2626">S</tspan><tspan fill="#6B7280">,</tspan><tspan fill="#6B7280"> </tspan><tspan fill="#1E40AF">D</tspan><tspan fill="#6B7280">)</tspan></text><line stroke="#333333" stroke-width="1.5" x1="90.0" x2="90.0" y1="52.0" y2="28" /><line marker-end="url(#arrowhead_333333)" stroke="#333333" stroke-width="1.5" x1="90.0" x2="414.0" y1="28" y2="28" /><circle cx="422.0" cy="28" fill="white" r="8" stroke="#333333" stroke-width="1.5" /><text dy="0.3em" fill="#333333" font-family="Inter, Segoe UI, Helvetica, Arial, sans-serif" font-size="14px" text-anchor="middle" x="422.0" y="28">+</text></svg>