<?xml version="1.0" encoding="utf-8" ?>
<svg baseProfile="full" height="430px" version="1.1" viewBox="0 0 470 430" width="470px" xmlns="http://www.w3.org/2000/svg" xmlns:ev="http://www.w3.org/2001/xml-events" xmlns:xlink="http://www.w3.org/1999/xlink"><defs><marker id="arrowhead" markerHeight="4" markerWidth="4" orient="auto" refX="4" refY="2.0"><polygon fill="#374151" points="0,0 4,2.0 0,4" /></marker><marker id="arrowhead_333333" markerHeight="4" markerWidth="4" orient="auto" refX="4" refY="2.0"><polygon fill="#333333" points="0,0 4,2.0 0,4" /></marker></defs><line stroke="#333333" stroke-width="1.5" x1="432.0" x2="432.0" y1="0" y2="30" /><line stroke="#333333" stroke-width="1.5" x1="432.0" x2="432.0" y1="46" y2="430" /><line stroke="#333333" stroke-width="1.5" x1="100.0" x2="432.0" y1="400.0" y2="400.0" /><line marker-end="url(#arrowhead_333333)" stroke="#333333" stroke-width="1.5" x1="100.0" x2="100.0" y1="400.0" y2="384.0" /><g><rect fill="#F3F4F6" height="40" stroke="none" width="80" x="60.0" y="344.0" /><line stroke="#1E40AF" stroke-width="1.5" x1="60.0" x2="140.0" y1="344.0" y2="344.0" /><line stroke="#1E40AF" stroke-width="1.5" x1="60.0" x2="140.0" y1="384.0" y2="384.0" /><line stroke="#DC2626" stroke-width="1.5" x1="60.0" x2="60.0" y1="344.0" y2="384.0" /><line stroke="#DC2626" stroke-width="1.5" x1="140.0" x2="140.0" y1="344.0" y2="384.0" /><text dominant-baseline="central" fill="#1F2937" font-family="Inter, Segoe UI, Helvetica, Arial, sans-serif" font-size="11px" text-anchor="middle" x="100.0" y="364.0">X</text></g><text dominant-baseline="central" font-family="Inter, Segoe UI, Helvetica, Arial, sans-serif" font-size="11px" font-style="italic" text-anchor="start" x="146.0" y="364.0"><tspan fill="#6B7280">(</tspan><tspan fill="#DC2626">S</tspan><tspan fill="#6B7280">,</tspan><tspan fill="#6B7280"> </tspan><tspan fill="#1E40AF">D</tspan><tspan fill="#6B7280">)</tspan></text><line marker-end="url(#arrowhead_333333)" stroke="#333333" stroke-width="1.5" x1="100.0" x2="100.0" y1="344.0" y2="328.0" /><rect fill="#F9FAFB" height="22" rx="6" ry="6" stroke="#333333" stroke-width="1.5" width="48" x="76.0" y="306.0" /><text dominant-baseline="central" fill="#1F2937" font-family="Inter, Segoe UI, Helvetica, Arial, sans-serif" font-size="9px" text-anchor="middle" x="100.0" y="317.0">MatMul</text><g><rect fill="#F3E8FF" height="80" stroke="none" width="140" x="224.0" y="277.0" /><line stroke="#059669" stroke-width="1.5" x1="224.0" x2="364.0" y1="277.0" y2="277.0" /><line stroke="#059669" stroke-width="1.5" x1="224.0" x2="364.0" y1="357.0" y2="357.0" /><line stroke="#1E40AF" stroke-width="1.5" x1="224.0" x2="224.0" y1="277.0" y2="357.0" /><line stroke="#1E40AF" stroke-width="1.5" x1="364.0" x2="364.0" y1="277.0" y2="357.0" /><text dominant-baseline="central" fill="#1F2937" font-family="Inter, Segoe UI, Helvetica, Arial, sans-serif" font-size="11px" text-anchor="middle" x="294.0" y="317.0">W₁</text></g><text dominant-baseline="central" font-family="Inter, Segoe UI, Helvetica, Arial, sans-serif" font-size="11px" font-style="italic" text-anchor="start" x="370.0" y="317.0"><tspan fill="#6B7280">(</tspan><tspan fill="#1E40AF">D</tspan><tspan fill="#6B7280">,</tspan><tspan fill="#6B7280"> </tspan><tspan fill="#059669">F</tspan><tspan fill="#6B7280">)</tspan></text><line marker-end="url(#arrowhead_333333)" stroke="#333333" stroke-width="1.5" x1="224.0" x2="124.0" y1="317.0" y2="317.0" /><line marker-end="url(#arrowhead_333333)" stroke="#333333" stroke-width="1.5" x1="100.0" x2="100.0" y1="306.0" y2="290.0" /><g><rect fill="#DBEAFE" height="40" stroke="none" width="140" x="30.0" y="250.0" /><line stroke="#059669" stroke-width="1.5" x1="30.0" x2="170.0" y1="250.0" y2="250.0" /><line stroke="#059669" stroke-width="1.5" x1="30.0" x2="170.0" y1="290.0" y2="290.0" /><line stroke="#DC2626" stroke-width="1.5" x1="30.0" x2="30.0" y1="250.0" y2="290.0" /><line stroke="#DC2626" stroke-width="1.5" x1="170.0" x2="170.0" y1="250.0" y2="290.0" /><text dominant-baseline="central" fill="#1F2937" font-family="Inter, Segoe UI, Helvetica, Arial, sans-serif" font-size="11px" text-anchor="middle" x="100.0" y="270.0">Up proj</text></g><text dominant-baseline="central" font-family="Inter, Segoe UI, Helvetica, Arial, sans-serif" font-size="11px" font-style="italic" text-anchor="start" x="176.0" y="270.0"><tspan fill="#6B7280">(</tspan><tspan fill="#DC2626">S</tspan><tspan fill="#6B7280">,</tspan><tspan fill="#6B7280"> </tspan><tspan fill="#059669">F</tspan><tspan fill="#6B7280">)</tspan></text><line marker-end="url(#arrowhead_333333)" stroke="#333333" stroke-width="1.5" x1="100.0" x2="100.0" y1="250.0" y2="234.0" /><rect fill="#F9FAFB" height="22" rx="6" ry="6" stroke="#333333" stroke-width="1.5" width="48" x="76.0" y="212.0" /><text dominant-baseline="central" fill="#1F2937" font-family="Inter, Segoe UI, Helvetica, Arial, sans-serif" font-size="9px" text-anchor="middle" x="100.0" y="223.0">GELU</text><line marker-end="url(#arrowhead_333333)" stroke="#333333" stroke-width="1.5" x1="100.0" x2="100.0" y1="212.0" y2="196.0" /><g><rect fill="#DBEAFE" height="40" stroke="none" width="140" x="30.0" y="156.0" /><line stroke="#059669" stroke-width="1.5" x1="30.0" x2="170.0" y1="156.0" y2="156.0" /><line stroke="#059669" stroke-width="1.5" x1="30.0" x2="170.0" y1="196.0" y2="196.0" /><line stroke="#DC2626" stroke-width="1.5" x1="30.0" x2="30.0" y1="156.0" y2="196.0" /><line stroke="#DC2626" stroke-width="1.5" x1="170.0" x2="170.0" y1="156.0" y2="196.0" /><text dominant-baseline="central" fill="#1F2937" font-family="Inter, Segoe UI, Helvetica, Arial, sans-serif" font-size="11px" text-anchor="middle" x="100.0" y="176.0">Up val</text></g><text dominant-baseline="central" font-family="Inter, Segoe UI, Helvetica, Arial, sans-serif" font-size="11px" font-style="italic" text-anchor="start" x="176.0" y="176.0"><tspan fill="#6B7280">(</tspan><tspan fill="#DC2626">S</tspan><tspan fill="#6B7280">,</tspan><tspan fill="#6B7280"> </tspan><tspan fill="#059669">F</tspan><tspan fill="#6B7280">)</tspan></text><line marker-end="url(#arrowhead_333333)" stroke="#333333" stroke-width="1.5" x1="100.0" x2="100.0" y1="156.0" y2="140.0" /><rect fill="#F9FAFB" height="22" rx="6" ry="6" stroke="#333333" stroke-width="1.5" width="48" x="76.0" y="118.0" /><text dominant-baseline="central" fill="#1F2937" font-family="Inter, Segoe UI, Helvetica, Arial, sans-serif" font-size="9px" text-anchor="middle" x="100.0" y="129.0">MatMul</text><g><rect fill="#F3E8FF" height="140" stroke="none" width="80" x="224.0" y="59.0" /><line stroke="#1E40AF" stroke-width="1.5" x1="224.0" x2="304.0" y1="59.0" y2="59.0" /><line stroke="#1E40AF" stroke-width="1.5" x1="224.0" x2="304.0" y1="199.0" y2="199.0" /><line stroke="#059669" stroke-width="1.5" x1="224.0" x2="224.0" y1="59.0" y2="199.0" /><line stroke="#059669" stroke-width="1.5" x1="304.0" x2="304.0" y1="59.0" y2="199.0" /><text dominant-baseline="central" fill="#1F2937" font-family="Inter, Segoe UI, Helvetica, Arial, sans-serif" font-size="11px" text-anchor="middle" x="264.0" y="129.0">W₂</text></g><text dominant-baseline="central" font-family="Inter, Segoe UI, Helvetica, Arial, sans-serif" font-size="11px" font-style="italic" text-anchor="start" x="310.0" y="129.0"><tspan fill="#6B7280">(</tspan><tspan fill="#059669">F</tspan><tspan fill="#6B7280">,</tspan><tspan fill="#6B7280"> </tspan><tspan fill="#1E40AF">D</tspan><tspan fill="#6B7280">)</tspan></text><line marker-end="url(#arrowhead_333333)" stroke="#333333" stroke-width="1.5" x1="224.0" x2="124.0" y1="129.0" y2="129.0" /><line marker-end="url(#arrowhead_333333)" stroke="#333333" stroke-width="1.5" x1="100.0" x2="100.0" y1="118.0" y2="102.0" /><g><rect fill="#F3F4F6" height="40" stroke="none" width="80" x="60.0" y="62.0" /><line stroke="#1E40AF" stroke-width="1.5" x1="60.0" x2="140.0" y1="62.0" y2="62.0" /><line stroke="#1E40AF" stroke-width="1.5" x1="60.0" x2="140.0" y1="102.0" y2="102.0" /><line stroke="#DC2626" stroke-width="1.5" x1="60.0" x2="60.0" y1="62.0" y2="102.0" /><line stroke="#DC2626" stroke-width="1.5" x1="140.0" x2="140.0" y1="62.0" y2="102.0" /><text dominant-baseline="central" fill="#1F2937" font-family="Inter, Segoe UI, Helvetica, Arial, sans-serif" font-size="11px" text-anchor="middle" x="100.0" y="82.0">Output</text></g><text dominant-baseline="central" font-family="Inter, Segoe UI, Helvetica, Arial, sans-serif" font-size="11px" font-style="italic" text-anchor="start" x="146.0" y="82.0"><tspan fill="#6B7280">(</tspan><tspan fill="#DC2626">S</tspan><tspan fill="#6B7280">,</tspan><tspan fill="#6B7280"> </tspan><tspan fill="#1E40AF">D</tspan><tspan fill="#6B7280">)</tspan></text><line stroke="#333333" stroke-width="1.5" x1="100.0" x2="100.0" y1="62.0" y2="38" /><line marker-end="url(#arrowhead_333333)" stroke="#333333" stroke-width="1.5" x1="100.0" x2="424.0" y1="38" y2="38" /><circle cx="432.0" cy="38" fill="white" r="8" stroke="#333333" stroke-width="1.5" /><text dominant-baseline="central" fill="#333333" font-family="Inter, Segoe UI, Helvetica, Arial, sans-serif" font-size="14px" text-anchor="middle" x="432.0" y="37">+</text></svg>