<?xml version="1.0" encoding="utf-8" ?>
<svg baseProfile="full" height="634px" version="1.1" viewBox="0 0 818 634" width="818px" xmlns="http://www.w3.org/2000/svg" xmlns:ev="http://www.w3.org/2001/xml-events" xmlns:xlink="http://www.w3.org/1999/xlink"><defs><marker id="arrowhead" markerHeight="4" markerWidth="4" orient="auto" refX="4" refY="2.0"><polygon fill="#374151" points="0,0 4,2.0 0,4" /></marker><marker id="arrowhead_333333" markerHeight="4" markerWidth="4" orient="auto" refX="4" refY="2.0"><polygon fill="#333333" points="0,0 4,2.0 0,4" /></marker><marker id="arrowhead_C8C8C8" markerHeight="4" markerWidth="4" orient="auto" refX="4" refY="2.0"><polygon fill="#C8C8C8" points="0,0 4,2.0 0,4" /></marker></defs><line stroke="#333333" stroke-width="1.5" x1="790" x2="790" y1="0" y2="20" /><line stroke="#333333" stroke-width="1.5" x1="790" x2="790" y1="36" y2="634" /><line stroke="#333333" stroke-width="1.5" x1="457.5" x2="790" y1="614" y2="614" /><line marker-end="url(#arrowhead_333333)" stroke="#333333" stroke-width="1.5" x1="457.5" x2="457.5" y1="614" y2="598.0" /><g><rect fill="#F3F4F6" height="40" stroke="none" width="80" x="417.5" y="558.0" /><line stroke="#1E40AF" stroke-width="1.5" x1="417.5" x2="497.5" y1="558.0" y2="558.0" /><line stroke="#1E40AF" stroke-width="1.5" x1="417.5" x2="497.5" y1="598.0" y2="598.0" /><line stroke="#DC2626" stroke-width="1.5" x1="417.5" x2="417.5" y1="558.0" y2="598.0" /><line stroke="#DC2626" stroke-width="1.5" x1="497.5" x2="497.5" y1="558.0" y2="598.0" /><text dy="0.35em" fill="#1F2937" font-family="Inter, Segoe UI, Helvetica, Arial, sans-serif" font-size="11px" text-anchor="middle" x="457.5" y="578.0">X</text></g><text dy="0.35em" font-family="Inter, Segoe UI, Helvetica, Arial, sans-serif" font-size="11px" font-style="italic" text-anchor="start" x="503.5" y="578.0"><tspan fill="#6B7280">(</tspan><tspan fill="#DC2626">S</tspan><tspan fill="#6B7280">,</tspan><tspan fill="#6B7280"> </tspan><tspan fill="#1E40AF">D</tspan><tspan fill="#6B7280">)</tspan></text><line stroke="#333333" stroke-width="1.5" x1="457.5" x2="457.5" y1="558.0" y2="542" /><line stroke="#333333" stroke-width="1.5" x1="90" x2="457.5" y1="542" y2="542" /><line marker-end="url(#arrowhead_333333)" stroke="#333333" stroke-width="1.5" x1="457.5" x2="457.5" y1="542" y2="371.0" /><line marker-end="url(#arrowhead_333333)" stroke="#333333" stroke-width="1.5" x1="90" x2="90" y1="542" y2="510.0" /><rect fill="#F9FAFB" height="22" rx="6" ry="6" stroke="#333333" stroke-width="1.5" width="48" x="66.0" y="488.0" /><text dy="0.35em" fill="#1F2937" font-family="Inter, Segoe UI, Helvetica, Arial, sans-serif" font-size="9px" text-anchor="middle" x="90.0" y="499.0">MatMul</text><g><rect fill="#F3E8FF" height="50" stroke="none" width="35" x="130.0" y="474.0" /><line stroke="#A855F7" stroke-width="1.5" x1="130.0" x2="165.0" y1="474.0" y2="474.0" /><line stroke="#A855F7" stroke-width="1.5" x1="130.0" x2="165.0" y1="524.0" y2="524.0" /><line stroke="#1E40AF" stroke-width="1.5" x1="130.0" x2="130.0" y1="474.0" y2="524.0" /><line stroke="#1E40AF" stroke-width="1.5" x1="165.0" x2="165.0" y1="474.0" y2="524.0" /></g><text dy="0.35em" fill="#1F2937" font-family="Inter, Segoe UI, Helvetica, Arial, sans-serif" font-size="11px" text-anchor="middle" x="147.5" y="499.0">W<tspan baseline-shift="sub" font-size="9px">R</tspan></text><text dy="0.35em" font-family="Inter, Segoe UI, Helvetica, Arial, sans-serif" font-size="11px" font-style="italic" text-anchor="start" x="171.0" y="499.0"><tspan fill="#6B7280">(</tspan><tspan fill="#1E40AF">D</tspan><tspan fill="#6B7280">,</tspan><tspan fill="#6B7280"> </tspan><tspan fill="#A855F7">E</tspan><tspan fill="#6B7280">)</tspan></text><line marker-end="url(#arrowhead_333333)" stroke="#333333" stroke-width="1.5" x1="130.0" x2="114.0" y1="499.0" y2="499.0" /><line marker-end="url(#arrowhead_333333)" stroke="#333333" stroke-width="1.5" x1="90" x2="90" y1="488.0" y2="472.0" /><g><rect fill="#DBEAFE" height="40" stroke="none" width="50" x="65.0" y="432.0" /><line stroke="#A855F7" stroke-width="1.5" x1="65.0" x2="115.0" y1="432.0" y2="432.0" /><line stroke="#A855F7" stroke-width="1.5" x1="65.0" x2="115.0" y1="472.0" y2="472.0" /><line stroke="#DC2626" stroke-width="1.5" x1="65.0" x2="65.0" y1="432.0" y2="472.0" /><line stroke="#DC2626" stroke-width="1.5" x1="115.0" x2="115.0" y1="432.0" y2="472.0" /><text dy="0.35em" fill="#1F2937" font-family="Inter, Segoe UI, Helvetica, Arial, sans-serif" font-size="11px" text-anchor="middle" x="90.0" y="452.0">Scores</text></g><text dy="0.35em" font-family="Inter, Segoe UI, Helvetica, Arial, sans-serif" font-size="11px" font-style="italic" text-anchor="start" x="121.0" y="452.0"><tspan fill="#6B7280">(</tspan><tspan fill="#DC2626">S</tspan><tspan fill="#6B7280">,</tspan><tspan fill="#6B7280"> </tspan><tspan fill="#A855F7">E</tspan><tspan fill="#6B7280">)</tspan></text><line marker-end="url(#arrowhead_333333)" stroke="#333333" stroke-width="1.5" x1="90" x2="90" y1="432.0" y2="416.0" /><rect fill="#F9FAFB" height="22" rx="6" ry="6" stroke="#333333" stroke-width="1.5" width="48" x="66.0" y="394.0" /><text dy="0.35em" fill="#1F2937" font-family="Inter, Segoe UI, Helvetica, Arial, sans-serif" font-size="9px" text-anchor="middle" x="90.0" y="405.0">Select</text><line marker-end="url(#arrowhead_333333)" stroke="#333333" stroke-width="1.5" x1="90" x2="90" y1="394.0" y2="378.0" /><g><rect fill="#DBEAFE" height="40" stroke="none" width="50" x="65.0" y="338.0" /><line stroke="#A855F7" stroke-width="1.5" x1="65.0" x2="115.0" y1="338.0" y2="338.0" /><line stroke="#A855F7" stroke-width="1.5" x1="65.0" x2="115.0" y1="378.0" y2="378.0" /><line stroke="#DC2626" stroke-width="1.5" x1="65.0" x2="65.0" y1="338.0" y2="378.0" /><line stroke="#DC2626" stroke-width="1.5" x1="115.0" x2="115.0" y1="338.0" y2="378.0" /><text dy="0.35em" fill="#1F2937" font-family="Inter, Segoe UI, Helvetica, Arial, sans-serif" font-size="11px" text-anchor="middle" x="90.0" y="358.0">Select</text></g><text dy="0.35em" font-family="Inter, Segoe UI, Helvetica, Arial, sans-serif" font-size="11px" font-style="italic" text-anchor="end" x="59.0" y="358.0"><tspan fill="#6B7280">(</tspan><tspan fill="#DC2626">S</tspan><tspan fill="#6B7280">,</tspan><tspan fill="#6B7280"> </tspan><tspan fill="#A855F7">E</tspan><tspan fill="#6B7280">)</tspan></text><line marker-end="url(#arrowhead_333333)" stroke="#333333" stroke-width="1.5" x1="115.0" x2="190" y1="358.0" y2="358.0" /><line marker-end="url(#arrowhead_333333)" stroke="#333333" stroke-width="1.5" x1="90" x2="90" y1="338.0" y2="261.0" /><rect fill="#F9FAFB" height="22" rx="6" ry="6" stroke="#333333" stroke-width="1.5" width="48" x="66.0" y="239.0" /><text dy="0.35em" fill="#1F2937" font-family="Inter, Segoe UI, Helvetica, Arial, sans-serif" font-size="9px" text-anchor="middle" x="90.0" y="250.0">SoftMax</text><line marker-end="url(#arrowhead_333333)" stroke="#333333" stroke-width="1.5" x1="90" x2="90" y1="239.0" y2="218.0" /><g><rect fill="#D1FAE5" height="40" stroke="none" width="50" x="65.0" y="178.0" /><line stroke="#A855F7" stroke-width="1.5" x1="65.0" x2="115.0" y1="178.0" y2="178.0" /><line stroke="#A855F7" stroke-width="1.5" x1="65.0" x2="115.0" y1="218.0" y2="218.0" /><line stroke="#DC2626" stroke-width="1.5" x1="65.0" x2="65.0" y1="178.0" y2="218.0" /><line stroke="#DC2626" stroke-width="1.5" x1="115.0" x2="115.0" y1="178.0" y2="218.0" /><text dy="0.35em" fill="#1F2937" font-family="Inter, Segoe UI, Helvetica, Arial, sans-serif" font-size="11px" text-anchor="middle" x="90.0" y="198.0">Weights</text></g><text dy="0.35em" font-family="Inter, Segoe UI, Helvetica, Arial, sans-serif" font-size="11px" font-style="italic" text-anchor="start" x="121.0" y="198.0"><tspan fill="#6B7280">(</tspan><tspan fill="#DC2626">S</tspan><tspan fill="#6B7280">,</tspan><tspan fill="#6B7280"> </tspan><tspan fill="#A855F7">E</tspan><tspan fill="#6B7280">)</tspan></text><line stroke="#333333" stroke-width="1.5" x1="90" x2="90" y1="178.0" y2="119.0" /><line marker-end="url(#arrowhead_333333)" stroke="#333333" stroke-width="1.5" x1="90" x2="412.5" y1="119.0" y2="119.0" /><rect fill="#F9FAFB" height="26" rx="6" ry="6" stroke="#333333" stroke-width="1.5" width="535" x="190" y="345.0" /><text dy="0.35em" fill="#1F2937" font-family="Inter, Segoe UI, Helvetica, Arial, sans-serif" font-size="11px" text-anchor="middle" x="457.5" y="358.0">Dispatch</text><line marker-end="url(#arrowhead_333333)" stroke="#333333" stroke-width="1.5" x1="220" x2="220" y1="345.0" y2="322.0" /><line marker-end="url(#arrowhead_C8C8C8)" stroke="#C8C8C8" stroke-dasharray="4,3" stroke-width="1.5" x1="315" x2="315" y1="345.0" y2="322.0" /><line marker-end="url(#arrowhead_C8C8C8)" stroke="#C8C8C8" stroke-dasharray="4,3" stroke-width="1.5" x1="410" x2="410" y1="345.0" y2="322.0" /><line marker-end="url(#arrowhead_C8C8C8)" stroke="#C8C8C8" stroke-dasharray="4,3" stroke-width="1.5" x1="505" x2="505" y1="345.0" y2="322.0" /><line marker-end="url(#arrowhead_333333)" stroke="#333333" stroke-width="1.5" x1="600" x2="600" y1="345.0" y2="322.0" /><line marker-end="url(#arrowhead_C8C8C8)" stroke="#C8C8C8" stroke-dasharray="4,3" stroke-width="1.5" x1="695" x2="695" y1="345.0" y2="322.0" /><g><rect fill="#F3F4F6" height="40" stroke="none" width="80" x="180.0" y="282.0" /><line stroke="#1E40AF" stroke-width="1.5" x1="180.0" x2="260.0" y1="282.0" y2="282.0" /><line stroke="#1E40AF" stroke-width="1.5" x1="180.0" x2="260.0" y1="322.0" y2="322.0" /><line stroke="#DC2626" stroke-width="1.5" x1="180.0" x2="180.0" y1="282.0" y2="322.0" /><line stroke="#DC2626" stroke-width="1.5" x1="260.0" x2="260.0" y1="282.0" y2="322.0" /></g><g><rect fill="#F3F4F6" height="40" stroke="none" width="80" x="275.0" y="282.0" /><line stroke="#1E40AF" stroke-width="1.5" x1="275.0" x2="355.0" y1="282.0" y2="282.0" /><line stroke="#1E40AF" stroke-width="1.5" x1="275.0" x2="355.0" y1="322.0" y2="322.0" /><line stroke="#DC2626" stroke-width="1.5" x1="275.0" x2="275.0" y1="282.0" y2="322.0" /><line stroke="#DC2626" stroke-width="1.5" x1="355.0" x2="355.0" y1="282.0" y2="322.0" /></g><rect fill="white" fill-opacity="0.7" height="40" width="80" x="275.0" y="282.0" /><g><rect fill="#F3F4F6" height="40" stroke="none" width="80" x="370.0" y="282.0" /><line stroke="#1E40AF" stroke-width="1.5" x1="370.0" x2="450.0" y1="282.0" y2="282.0" /><line stroke="#1E40AF" stroke-width="1.5" x1="370.0" x2="450.0" y1="322.0" y2="322.0" /><line stroke="#DC2626" stroke-width="1.5" x1="370.0" x2="370.0" y1="282.0" y2="322.0" /><line stroke="#DC2626" stroke-width="1.5" x1="450.0" x2="450.0" y1="282.0" y2="322.0" /></g><rect fill="white" fill-opacity="0.7" height="40" width="80" x="370.0" y="282.0" /><g><rect fill="#F3F4F6" height="40" stroke="none" width="80" x="465.0" y="282.0" /><line stroke="#1E40AF" stroke-width="1.5" x1="465.0" x2="545.0" y1="282.0" y2="282.0" /><line stroke="#1E40AF" stroke-width="1.5" x1="465.0" x2="545.0" y1="322.0" y2="322.0" /><line stroke="#DC2626" stroke-width="1.5" x1="465.0" x2="465.0" y1="282.0" y2="322.0" /><line stroke="#DC2626" stroke-width="1.5" x1="545.0" x2="545.0" y1="282.0" y2="322.0" /></g><rect fill="white" fill-opacity="0.7" height="40" width="80" x="465.0" y="282.0" /><g><rect fill="#F3F4F6" height="40" stroke="none" width="80" x="560.0" y="282.0" /><line stroke="#1E40AF" stroke-width="1.5" x1="560.0" x2="640.0" y1="282.0" y2="282.0" /><line stroke="#1E40AF" stroke-width="1.5" x1="560.0" x2="640.0" y1="322.0" y2="322.0" /><line stroke="#DC2626" stroke-width="1.5" x1="560.0" x2="560.0" y1="282.0" y2="322.0" /><line stroke="#DC2626" stroke-width="1.5" x1="640.0" x2="640.0" y1="282.0" y2="322.0" /></g><g><rect fill="#F3F4F6" height="40" stroke="none" width="80" x="655.0" y="282.0" /><line stroke="#1E40AF" stroke-width="1.5" x1="655.0" x2="735.0" y1="282.0" y2="282.0" /><line stroke="#1E40AF" stroke-width="1.5" x1="655.0" x2="735.0" y1="322.0" y2="322.0" /><line stroke="#DC2626" stroke-width="1.5" x1="655.0" x2="655.0" y1="282.0" y2="322.0" /><line stroke="#DC2626" stroke-width="1.5" x1="735.0" x2="735.0" y1="282.0" y2="322.0" /></g><rect fill="white" fill-opacity="0.7" height="40" width="80" x="655.0" y="282.0" /><text dy="0.35em" font-family="Inter, Segoe UI, Helvetica, Arial, sans-serif" font-size="11px" font-style="italic" text-anchor="start" x="741.0" y="302.0"><tspan fill="#6B7280">(</tspan><tspan fill="#DC2626">S</tspan><tspan fill="#6B7280">,</tspan><tspan fill="#6B7280"> </tspan><tspan fill="#1E40AF">D</tspan><tspan fill="#6B7280">)</tspan></text><line marker-end="url(#arrowhead_333333)" stroke="#333333" stroke-width="1.5" x1="220" x2="220" y1="282.0" y2="266.0" /><line marker-end="url(#arrowhead_C8C8C8)" stroke="#C8C8C8" stroke-dasharray="4,3" stroke-width="1.5" x1="315" x2="315" y1="282.0" y2="266.0" /><line marker-end="url(#arrowhead_C8C8C8)" stroke="#C8C8C8" stroke-dasharray="4,3" stroke-width="1.5" x1="410" x2="410" y1="282.0" y2="266.0" /><line marker-end="url(#arrowhead_C8C8C8)" stroke="#C8C8C8" stroke-dasharray="4,3" stroke-width="1.5" x1="505" x2="505" y1="282.0" y2="266.0" /><line marker-end="url(#arrowhead_333333)" stroke="#333333" stroke-width="1.5" x1="600" x2="600" y1="282.0" y2="266.0" /><line marker-end="url(#arrowhead_C8C8C8)" stroke="#C8C8C8" stroke-dasharray="4,3" stroke-width="1.5" x1="695" x2="695" y1="282.0" y2="266.0" /><rect fill="#c2e8f7" height="32" rx="6" ry="6" stroke="#333333" stroke-width="1.5" width="80" x="180.0" y="234.0" /><text dy="0.35em" fill="#1F2937" font-family="Inter, Segoe UI, Helvetica, Arial, sans-serif" font-size="11px" text-anchor="middle" x="220.0" y="250.0">Expert 0</text><rect fill="#c2e8f7" height="32" rx="6" ry="6" stroke="#333333" stroke-width="1.5" width="80" x="275.0" y="234.0" /><text dy="0.35em" fill="#1F2937" font-family="Inter, Segoe UI, Helvetica, Arial, sans-serif" font-size="11px" text-anchor="middle" x="315.0" y="250.0">Expert 1</text><rect fill="white" fill-opacity="0.7" height="32" width="80" x="275.0" y="234.0" /><rect fill="#c2e8f7" height="32" rx="6" ry="6" stroke="#333333" stroke-width="1.5" width="80" x="370.0" y="234.0" /><text dy="0.35em" fill="#1F2937" font-family="Inter, Segoe UI, Helvetica, Arial, sans-serif" font-size="11px" text-anchor="middle" x="410.0" y="250.0">Expert 2</text><rect fill="white" fill-opacity="0.7" height="32" width="80" x="370.0" y="234.0" /><rect fill="#c2e8f7" height="32" rx="6" ry="6" stroke="#333333" stroke-width="1.5" width="80" x="465.0" y="234.0" /><text dy="0.35em" fill="#1F2937" font-family="Inter, Segoe UI, Helvetica, Arial, sans-serif" font-size="11px" text-anchor="middle" x="505.0" y="250.0">Expert 3</text><rect fill="white" fill-opacity="0.7" height="32" width="80" x="465.0" y="234.0" /><rect fill="#c2e8f7" height="32" rx="6" ry="6" stroke="#333333" stroke-width="1.5" width="80" x="560.0" y="234.0" /><text dy="0.35em" fill="#1F2937" font-family="Inter, Segoe UI, Helvetica, Arial, sans-serif" font-size="11px" text-anchor="middle" x="600.0" y="250.0">Expert 4</text><rect fill="#c2e8f7" height="32" rx="6" ry="6" stroke="#333333" stroke-width="1.5" width="80" x="655.0" y="234.0" /><text dy="0.35em" fill="#1F2937" font-family="Inter, Segoe UI, Helvetica, Arial, sans-serif" font-size="11px" text-anchor="middle" x="695.0" y="250.0">Expert 5</text><rect fill="white" fill-opacity="0.7" height="32" width="80" x="655.0" y="234.0" /><line marker-end="url(#arrowhead_333333)" stroke="#333333" stroke-width="1.5" x1="220" x2="220" y1="234.0" y2="218.0" /><g><rect fill="#F3F4F6" height="40" stroke="none" width="80" x="180.0" y="178.0" /><line stroke="#1E40AF" stroke-width="1.5" x1="180.0" x2="260.0" y1="178.0" y2="178.0" /><line stroke="#1E40AF" stroke-width="1.5" x1="180.0" x2="260.0" y1="218.0" y2="218.0" /><line stroke="#DC2626" stroke-width="1.5" x1="180.0" x2="180.0" y1="178.0" y2="218.0" /><line stroke="#DC2626" stroke-width="1.5" x1="260.0" x2="260.0" y1="178.0" y2="218.0" /></g><line marker-end="url(#arrowhead_333333)" stroke="#333333" stroke-width="1.5" x1="315" x2="315" y1="234.0" y2="218.0" /><g><rect fill="#F3F4F6" height="40" stroke="none" width="80" x="275.0" y="178.0" /><line stroke="#1E40AF" stroke-width="1.5" x1="275.0" x2="355.0" y1="178.0" y2="178.0" /><line stroke="#1E40AF" stroke-width="1.5" x1="275.0" x2="355.0" y1="218.0" y2="218.0" /><line stroke="#DC2626" stroke-width="1.5" x1="275.0" x2="275.0" y1="178.0" y2="218.0" /><line stroke="#DC2626" stroke-width="1.5" x1="355.0" x2="355.0" y1="178.0" y2="218.0" /></g><rect fill="white" fill-opacity="0.7" height="40" width="80" x="275.0" y="178.0" /><line marker-end="url(#arrowhead_333333)" stroke="#333333" stroke-width="1.5" x1="410" x2="410" y1="234.0" y2="218.0" /><g><rect fill="#F3F4F6" height="40" stroke="none" width="80" x="370.0" y="178.0" /><line stroke="#1E40AF" stroke-width="1.5" x1="370.0" x2="450.0" y1="178.0" y2="178.0" /><line stroke="#1E40AF" stroke-width="1.5" x1="370.0" x2="450.0" y1="218.0" y2="218.0" /><line stroke="#DC2626" stroke-width="1.5" x1="370.0" x2="370.0" y1="178.0" y2="218.0" /><line stroke="#DC2626" stroke-width="1.5" x1="450.0" x2="450.0" y1="178.0" y2="218.0" /></g><rect fill="white" fill-opacity="0.7" height="40" width="80" x="370.0" y="178.0" /><line marker-end="url(#arrowhead_333333)" stroke="#333333" stroke-width="1.5" x1="505" x2="505" y1="234.0" y2="218.0" /><g><rect fill="#F3F4F6" height="40" stroke="none" width="80" x="465.0" y="178.0" /><line stroke="#1E40AF" stroke-width="1.5" x1="465.0" x2="545.0" y1="178.0" y2="178.0" /><line stroke="#1E40AF" stroke-width="1.5" x1="465.0" x2="545.0" y1="218.0" y2="218.0" /><line stroke="#DC2626" stroke-width="1.5" x1="465.0" x2="465.0" y1="178.0" y2="218.0" /><line stroke="#DC2626" stroke-width="1.5" x1="545.0" x2="545.0" y1="178.0" y2="218.0" /></g><rect fill="white" fill-opacity="0.7" height="40" width="80" x="465.0" y="178.0" /><line marker-end="url(#arrowhead_333333)" stroke="#333333" stroke-width="1.5" x1="600" x2="600" y1="234.0" y2="218.0" /><g><rect fill="#F3F4F6" height="40" stroke="none" width="80" x="560.0" y="178.0" /><line stroke="#1E40AF" stroke-width="1.5" x1="560.0" x2="640.0" y1="178.0" y2="178.0" /><line stroke="#1E40AF" stroke-width="1.5" x1="560.0" x2="640.0" y1="218.0" y2="218.0" /><line stroke="#DC2626" stroke-width="1.5" x1="560.0" x2="560.0" y1="178.0" y2="218.0" /><line stroke="#DC2626" stroke-width="1.5" x1="640.0" x2="640.0" y1="178.0" y2="218.0" /></g><line marker-end="url(#arrowhead_333333)" stroke="#333333" stroke-width="1.5" x1="695" x2="695" y1="234.0" y2="218.0" /><g><rect fill="#F3F4F6" height="40" stroke="none" width="80" x="655.0" y="178.0" /><line stroke="#1E40AF" stroke-width="1.5" x1="655.0" x2="735.0" y1="178.0" y2="178.0" /><line stroke="#1E40AF" stroke-width="1.5" x1="655.0" x2="735.0" y1="218.0" y2="218.0" /><line stroke="#DC2626" stroke-width="1.5" x1="655.0" x2="655.0" y1="178.0" y2="218.0" /><line stroke="#DC2626" stroke-width="1.5" x1="735.0" x2="735.0" y1="178.0" y2="218.0" /></g><rect fill="white" fill-opacity="0.7" height="40" width="80" x="655.0" y="178.0" /><text dy="0.35em" font-family="Inter, Segoe UI, Helvetica, Arial, sans-serif" font-size="11px" font-style="italic" text-anchor="start" x="741.0" y="198.0"><tspan fill="#6B7280">(</tspan><tspan fill="#DC2626">S</tspan><tspan fill="#6B7280">,</tspan><tspan fill="#6B7280"> </tspan><tspan fill="#1E40AF">D</tspan><tspan fill="#6B7280">)</tspan></text><line stroke="#333333" stroke-width="1.5" x1="220" x2="220" y1="178.0" y2="146.0" /><line stroke="#333333" stroke-width="1.5" x1="315" x2="315" y1="178.0" y2="146.0" /><line stroke="#333333" stroke-width="1.5" x1="410" x2="410" y1="178.0" y2="146.0" /><line stroke="#333333" stroke-width="1.5" x1="505" x2="505" y1="178.0" y2="146.0" /><line stroke="#333333" stroke-width="1.5" x1="600" x2="600" y1="178.0" y2="146.0" /><line stroke="#333333" stroke-width="1.5" x1="695" x2="695" y1="178.0" y2="146.0" /><line stroke="#333333" stroke-width="1.5" x1="220" x2="695" y1="146.0" y2="146.0" /><line marker-end="url(#arrowhead_333333)" stroke="#333333" stroke-width="1.5" x1="457.5" x2="457.5" y1="146.0" y2="130.0" /><rect fill="#F9FAFB" height="22" rx="6" ry="6" stroke="#333333" stroke-width="1.5" width="90" x="412.5" y="108.0" /><text dy="0.35em" fill="#1F2937" font-family="Inter, Segoe UI, Helvetica, Arial, sans-serif" font-size="9px" text-anchor="middle" x="457.5" y="119.0">Weighted Sum</text><line marker-end="url(#arrowhead_333333)" stroke="#333333" stroke-width="1.5" x1="457.5" x2="457.5" y1="108.0" y2="92.0" /><g><rect fill="#F3F4F6" height="40" stroke="none" width="80" x="417.5" y="52.0" /><line stroke="#1E40AF" stroke-width="1.5" x1="417.5" x2="497.5" y1="52.0" y2="52.0" /><line stroke="#1E40AF" stroke-width="1.5" x1="417.5" x2="497.5" y1="92.0" y2="92.0" /><line stroke="#DC2626" stroke-width="1.5" x1="417.5" x2="417.5" y1="52.0" y2="92.0" /><line stroke="#DC2626" stroke-width="1.5" x1="497.5" x2="497.5" y1="52.0" y2="92.0" /><text dy="0.35em" fill="#1F2937" font-family="Inter, Segoe UI, Helvetica, Arial, sans-serif" font-size="11px" text-anchor="middle" x="457.5" y="72.0">Output</text></g><text dy="0.35em" font-family="Inter, Segoe UI, Helvetica, Arial, sans-serif" font-size="11px" font-style="italic" text-anchor="start" x="503.5" y="72.0"><tspan fill="#6B7280">(</tspan><tspan fill="#DC2626">S</tspan><tspan fill="#6B7280">,</tspan><tspan fill="#6B7280"> </tspan><tspan fill="#1E40AF">D</tspan><tspan fill="#6B7280">)</tspan></text><line stroke="#333333" stroke-width="1.5" x1="457.5" x2="457.5" y1="52.0" y2="28" /><line marker-end="url(#arrowhead_333333)" stroke="#333333" stroke-width="1.5" x1="457.5" x2="782" y1="28" y2="28" /><circle cx="790" cy="28" fill="white" r="8" stroke="#333333" stroke-width="1.5" /><text dy="0.3em" fill="#333333" font-family="Inter, Segoe UI, Helvetica, Arial, sans-serif" font-size="14px" text-anchor="middle" x="790" y="28">+</text></svg>