<?xml version="1.0" encoding="utf-8" ?>
<svg baseProfile="full" height="654px" version="1.1" viewBox="0 0 828 654" width="828px" xmlns="http://www.w3.org/2000/svg" xmlns:ev="http://www.w3.org/2001/xml-events" xmlns:xlink="http://www.w3.org/1999/xlink"><defs><marker id="arrowhead" markerHeight="4" markerWidth="4" orient="auto" refX="4" refY="2.0"><polygon fill="#374151" points="0,0 4,2.0 0,4" /></marker><marker id="arrowhead_333333" markerHeight="4" markerWidth="4" orient="auto" refX="4" refY="2.0"><polygon fill="#333333" points="0,0 4,2.0 0,4" /></marker><marker id="arrowhead_C8C8C8" markerHeight="4" markerWidth="4" orient="auto" refX="4" refY="2.0"><polygon fill="#C8C8C8" points="0,0 4,2.0 0,4" /></marker></defs><line stroke="#333333" stroke-width="1.5" x1="790" x2="790" y1="0" y2="30" /><line stroke="#333333" stroke-width="1.5" x1="790" x2="790" y1="46" y2="654" /><line stroke="#333333" stroke-width="1.5" x1="457.5" x2="790" y1="624" y2="624" /><line marker-end="url(#arrowhead_333333)" stroke="#333333" stroke-width="1.5" x1="457.5" x2="457.5" y1="624" y2="608.0" /><g><rect fill="#F3F4F6" height="40" stroke="none" width="80" x="417.5" y="568.0" /><line stroke="#1E40AF" stroke-width="1.5" x1="417.5" x2="497.5" y1="568.0" y2="568.0" /><line stroke="#1E40AF" stroke-width="1.5" x1="417.5" x2="497.5" y1="608.0" y2="608.0" /><line stroke="#DC2626" stroke-width="1.5" x1="417.5" x2="417.5" y1="568.0" y2="608.0" /><line stroke="#DC2626" stroke-width="1.5" x1="497.5" x2="497.5" y1="568.0" y2="608.0" /><text dy="0.35em" fill="#1F2937" font-family="Inter, Segoe UI, Helvetica, Arial, sans-serif" font-size="11px" text-anchor="middle" x="457.5" y="588.0">X</text></g><text dy="0.35em" font-family="Inter, Segoe UI, Helvetica, Arial, sans-serif" font-size="11px" font-style="italic" text-anchor="start" x="503.5" y="588.0"><tspan fill="#6B7280">(</tspan><tspan fill="#DC2626">S</tspan><tspan fill="#6B7280">,</tspan><tspan fill="#6B7280"> </tspan><tspan fill="#1E40AF">D</tspan><tspan fill="#6B7280">)</tspan></text><line stroke="#333333" stroke-width="1.5" x1="457.5" x2="457.5" y1="568.0" y2="552" /><line stroke="#333333" stroke-width="1.5" x1="90" x2="457.5" y1="552" y2="552" /><line marker-end="url(#arrowhead_333333)" stroke="#333333" stroke-width="1.5" x1="457.5" x2="457.5" y1="552" y2="381.0" /><line marker-end="url(#arrowhead_333333)" stroke="#333333" stroke-width="1.5" x1="90" x2="90" y1="552" y2="520.0" /><rect fill="#F9FAFB" height="22" rx="6" ry="6" stroke="#333333" stroke-width="1.5" width="48" x="66.0" y="498.0" /><text dy="0.35em" fill="#1F2937" font-family="Inter, Segoe UI, Helvetica, Arial, sans-serif" font-size="9px" text-anchor="middle" x="90.0" y="509.0">MatMul</text><g><rect fill="#F3E8FF" height="50" stroke="none" width="35" x="130.0" y="484.0" /><line stroke="#A855F7" stroke-width="1.5" x1="130.0" x2="165.0" y1="484.0" y2="484.0" /><line stroke="#A855F7" stroke-width="1.5" x1="130.0" x2="165.0" y1="534.0" y2="534.0" /><line stroke="#1E40AF" stroke-width="1.5" x1="130.0" x2="130.0" y1="484.0" y2="534.0" /><line stroke="#1E40AF" stroke-width="1.5" x1="165.0" x2="165.0" y1="484.0" y2="534.0" /></g><text dy="0.35em" fill="#1F2937" font-family="Inter, Segoe UI, Helvetica, Arial, sans-serif" font-size="11px" text-anchor="middle" x="147.5" y="509.0">W<tspan baseline-shift="sub" font-size="8px">R</tspan></text><text dy="0.35em" font-family="Inter, Segoe UI, Helvetica, Arial, sans-serif" font-size="11px" font-style="italic" text-anchor="start" x="171.0" y="509.0"><tspan fill="#6B7280">(</tspan><tspan fill="#1E40AF">D</tspan><tspan fill="#6B7280">,</tspan><tspan fill="#6B7280"> </tspan><tspan fill="#A855F7">E</tspan><tspan fill="#6B7280">)</tspan></text><line marker-end="url(#arrowhead_333333)" stroke="#333333" stroke-width="1.5" x1="130.0" x2="114.0" y1="509.0" y2="509.0" /><line marker-end="url(#arrowhead_333333)" stroke="#333333" stroke-width="1.5" x1="90" x2="90" y1="498.0" y2="482.0" /><g><rect fill="#DBEAFE" height="40" stroke="none" width="50" x="65.0" y="442.0" /><line stroke="#A855F7" stroke-width="1.5" x1="65.0" x2="115.0" y1="442.0" y2="442.0" /><line stroke="#A855F7" stroke-width="1.5" x1="65.0" x2="115.0" y1="482.0" y2="482.0" /><line stroke="#DC2626" stroke-width="1.5" x1="65.0" x2="65.0" y1="442.0" y2="482.0" /><line stroke="#DC2626" stroke-width="1.5" x1="115.0" x2="115.0" y1="442.0" y2="482.0" /><text dy="0.35em" fill="#1F2937" font-family="Inter, Segoe UI, Helvetica, Arial, sans-serif" font-size="11px" text-anchor="middle" x="90.0" y="462.0">Scores</text></g><text dy="0.35em" font-family="Inter, Segoe UI, Helvetica, Arial, sans-serif" font-size="11px" font-style="italic" text-anchor="start" x="121.0" y="462.0"><tspan fill="#6B7280">(</tspan><tspan fill="#DC2626">S</tspan><tspan fill="#6B7280">,</tspan><tspan fill="#6B7280"> </tspan><tspan fill="#A855F7">E</tspan><tspan fill="#6B7280">)</tspan></text><line marker-end="url(#arrowhead_333333)" stroke="#333333" stroke-width="1.5" x1="90" x2="90" y1="442.0" y2="426.0" /><rect fill="#F9FAFB" height="22" rx="6" ry="6" stroke="#333333" stroke-width="1.5" width="48" x="66.0" y="404.0" /><text dy="0.35em" fill="#1F2937" font-family="Inter, Segoe UI, Helvetica, Arial, sans-serif" font-size="9px" text-anchor="middle" x="90.0" y="415.0">Select</text><line marker-end="url(#arrowhead_333333)" stroke="#333333" stroke-width="1.5" x1="90" x2="90" y1="404.0" y2="388.0" /><g><rect fill="#DBEAFE" height="40" stroke="none" width="50" x="65.0" y="348.0" /><line stroke="#A855F7" stroke-width="1.5" x1="65.0" x2="115.0" y1="348.0" y2="348.0" /><line stroke="#A855F7" stroke-width="1.5" x1="65.0" x2="115.0" y1="388.0" y2="388.0" /><line stroke="#DC2626" stroke-width="1.5" x1="65.0" x2="65.0" y1="348.0" y2="388.0" /><line stroke="#DC2626" stroke-width="1.5" x1="115.0" x2="115.0" y1="348.0" y2="388.0" /><text dy="0.35em" fill="#1F2937" font-family="Inter, Segoe UI, Helvetica, Arial, sans-serif" font-size="11px" text-anchor="middle" x="90.0" y="368.0">Select</text></g><text dy="0.35em" font-family="Inter, Segoe UI, Helvetica, Arial, sans-serif" font-size="11px" font-style="italic" text-anchor="end" x="59.0" y="368.0"><tspan fill="#6B7280">(</tspan><tspan fill="#DC2626">S</tspan><tspan fill="#6B7280">,</tspan><tspan fill="#6B7280"> </tspan><tspan fill="#A855F7">E</tspan><tspan fill="#6B7280">)</tspan></text><line marker-end="url(#arrowhead_333333)" stroke="#333333" stroke-width="1.5" x1="115.0" x2="190" y1="368.0" y2="368.0" /><line marker-end="url(#arrowhead_333333)" stroke="#333333" stroke-width="1.5" x1="90" x2="90" y1="348.0" y2="271.0" /><rect fill="#F9FAFB" height="22" rx="6" ry="6" stroke="#333333" stroke-width="1.5" width="48" x="66.0" y="249.0" /><text dy="0.35em" fill="#1F2937" font-family="Inter, Segoe UI, Helvetica, Arial, sans-serif" font-size="9px" text-anchor="middle" x="90.0" y="260.0">SoftMax</text><line marker-end="url(#arrowhead_333333)" stroke="#333333" stroke-width="1.5" x1="90" x2="90" y1="249.0" y2="228.0" /><g><rect fill="#D1FAE5" height="40" stroke="none" width="50" x="65.0" y="188.0" /><line stroke="#A855F7" stroke-width="1.5" x1="65.0" x2="115.0" y1="188.0" y2="188.0" /><line stroke="#A855F7" stroke-width="1.5" x1="65.0" x2="115.0" y1="228.0" y2="228.0" /><line stroke="#DC2626" stroke-width="1.5" x1="65.0" x2="65.0" y1="188.0" y2="228.0" /><line stroke="#DC2626" stroke-width="1.5" x1="115.0" x2="115.0" y1="188.0" y2="228.0" /><text dy="0.35em" fill="#1F2937" font-family="Inter, Segoe UI, Helvetica, Arial, sans-serif" font-size="11px" text-anchor="middle" x="90.0" y="208.0">Weights</text></g><text dy="0.35em" font-family="Inter, Segoe UI, Helvetica, Arial, sans-serif" font-size="11px" font-style="italic" text-anchor="start" x="121.0" y="208.0"><tspan fill="#6B7280">(</tspan><tspan fill="#DC2626">S</tspan><tspan fill="#6B7280">,</tspan><tspan fill="#6B7280"> </tspan><tspan fill="#A855F7">E</tspan><tspan fill="#6B7280">)</tspan></text><line stroke="#333333" stroke-width="1.5" x1="90" x2="90" y1="188.0" y2="129.0" /><line marker-end="url(#arrowhead_333333)" stroke="#333333" stroke-width="1.5" x1="90" x2="412.5" y1="129.0" y2="129.0" /><rect fill="#F9FAFB" height="26" rx="6" ry="6" stroke="#333333" stroke-width="1.5" width="535" x="190" y="355.0" /><text dy="0.35em" fill="#1F2937" font-family="Inter, Segoe UI, Helvetica, Arial, sans-serif" font-size="11px" text-anchor="middle" x="457.5" y="368.0">Dispatch</text><line marker-end="url(#arrowhead_333333)" stroke="#333333" stroke-width="1.5" x1="220" x2="220" y1="355.0" y2="332.0" /><line marker-end="url(#arrowhead_C8C8C8)" stroke="#C8C8C8" stroke-dasharray="4,3" stroke-width="1.5" x1="315" x2="315" y1="355.0" y2="332.0" /><line marker-end="url(#arrowhead_C8C8C8)" stroke="#C8C8C8" stroke-dasharray="4,3" stroke-width="1.5" x1="410" x2="410" y1="355.0" y2="332.0" /><line marker-end="url(#arrowhead_C8C8C8)" stroke="#C8C8C8" stroke-dasharray="4,3" stroke-width="1.5" x1="505" x2="505" y1="355.0" y2="332.0" /><line marker-end="url(#arrowhead_333333)" stroke="#333333" stroke-width="1.5" x1="600" x2="600" y1="355.0" y2="332.0" /><line marker-end="url(#arrowhead_C8C8C8)" stroke="#C8C8C8" stroke-dasharray="4,3" stroke-width="1.5" x1="695" x2="695" y1="355.0" y2="332.0" /><g><rect fill="#F3F4F6" height="40" stroke="none" width="80" x="180.0" y="292.0" /><line stroke="#1E40AF" stroke-width="1.5" x1="180.0" x2="260.0" y1="292.0" y2="292.0" /><line stroke="#1E40AF" stroke-width="1.5" x1="180.0" x2="260.0" y1="332.0" y2="332.0" /><line stroke="#DC2626" stroke-width="1.5" x1="180.0" x2="180.0" y1="292.0" y2="332.0" /><line stroke="#DC2626" stroke-width="1.5" x1="260.0" x2="260.0" y1="292.0" y2="332.0" /></g><g><rect fill="#F3F4F6" height="40" stroke="none" width="80" x="275.0" y="292.0" /><line stroke="#1E40AF" stroke-width="1.5" x1="275.0" x2="355.0" y1="292.0" y2="292.0" /><line stroke="#1E40AF" stroke-width="1.5" x1="275.0" x2="355.0" y1="332.0" y2="332.0" /><line stroke="#DC2626" stroke-width="1.5" x1="275.0" x2="275.0" y1="292.0" y2="332.0" /><line stroke="#DC2626" stroke-width="1.5" x1="355.0" x2="355.0" y1="292.0" y2="332.0" /></g><rect fill="white" fill-opacity="0.7" height="40" width="80" x="275.0" y="292.0" /><g><rect fill="#F3F4F6" height="40" stroke="none" width="80" x="370.0" y="292.0" /><line stroke="#1E40AF" stroke-width="1.5" x1="370.0" x2="450.0" y1="292.0" y2="292.0" /><line stroke="#1E40AF" stroke-width="1.5" x1="370.0" x2="450.0" y1="332.0" y2="332.0" /><line stroke="#DC2626" stroke-width="1.5" x1="370.0" x2="370.0" y1="292.0" y2="332.0" /><line stroke="#DC2626" stroke-width="1.5" x1="450.0" x2="450.0" y1="292.0" y2="332.0" /></g><rect fill="white" fill-opacity="0.7" height="40" width="80" x="370.0" y="292.0" /><g><rect fill="#F3F4F6" height="40" stroke="none" width="80" x="465.0" y="292.0" /><line stroke="#1E40AF" stroke-width="1.5" x1="465.0" x2="545.0" y1="292.0" y2="292.0" /><line stroke="#1E40AF" stroke-width="1.5" x1="465.0" x2="545.0" y1="332.0" y2="332.0" /><line stroke="#DC2626" stroke-width="1.5" x1="465.0" x2="465.0" y1="292.0" y2="332.0" /><line stroke="#DC2626" stroke-width="1.5" x1="545.0" x2="545.0" y1="292.0" y2="332.0" /></g><rect fill="white" fill-opacity="0.7" height="40" width="80" x="465.0" y="292.0" /><g><rect fill="#F3F4F6" height="40" stroke="none" width="80" x="560.0" y="292.0" /><line stroke="#1E40AF" stroke-width="1.5" x1="560.0" x2="640.0" y1="292.0" y2="292.0" /><line stroke="#1E40AF" stroke-width="1.5" x1="560.0" x2="640.0" y1="332.0" y2="332.0" /><line stroke="#DC2626" stroke-width="1.5" x1="560.0" x2="560.0" y1="292.0" y2="332.0" /><line stroke="#DC2626" stroke-width="1.5" x1="640.0" x2="640.0" y1="292.0" y2="332.0" /></g><g><rect fill="#F3F4F6" height="40" stroke="none" width="80" x="655.0" y="292.0" /><line stroke="#1E40AF" stroke-width="1.5" x1="655.0" x2="735.0" y1="292.0" y2="292.0" /><line stroke="#1E40AF" stroke-width="1.5" x1="655.0" x2="735.0" y1="332.0" y2="332.0" /><line stroke="#DC2626" stroke-width="1.5" x1="655.0" x2="655.0" y1="292.0" y2="332.0" /><line stroke="#DC2626" stroke-width="1.5" x1="735.0" x2="735.0" y1="292.0" y2="332.0" /></g><rect fill="white" fill-opacity="0.7" height="40" width="80" x="655.0" y="292.0" /><text dy="0.35em" font-family="Inter, Segoe UI, Helvetica, Arial, sans-serif" font-size="11px" font-style="italic" text-anchor="start" x="741.0" y="312.0"><tspan fill="#6B7280">(</tspan><tspan fill="#DC2626">S</tspan><tspan fill="#6B7280">,</tspan><tspan fill="#6B7280"> </tspan><tspan fill="#1E40AF">D</tspan><tspan fill="#6B7280">)</tspan></text><line marker-end="url(#arrowhead_333333)" stroke="#333333" stroke-width="1.5" x1="220" x2="220" y1="292.0" y2="276.0" /><line marker-end="url(#arrowhead_C8C8C8)" stroke="#C8C8C8" stroke-dasharray="4,3" stroke-width="1.5" x1="315" x2="315" y1="292.0" y2="276.0" /><line marker-end="url(#arrowhead_C8C8C8)" stroke="#C8C8C8" stroke-dasharray="4,3" stroke-width="1.5" x1="410" x2="410" y1="292.0" y2="276.0" /><line marker-end="url(#arrowhead_C8C8C8)" stroke="#C8C8C8" stroke-dasharray="4,3" stroke-width="1.5" x1="505" x2="505" y1="292.0" y2="276.0" /><line marker-end="url(#arrowhead_333333)" stroke="#333333" stroke-width="1.5" x1="600" x2="600" y1="292.0" y2="276.0" /><line marker-end="url(#arrowhead_C8C8C8)" stroke="#C8C8C8" stroke-dasharray="4,3" stroke-width="1.5" x1="695" x2="695" y1="292.0" y2="276.0" /><rect fill="#c2e8f7" height="32" rx="6" ry="6" stroke="#333333" stroke-width="1.5" width="80" x="180.0" y="244.0" /><text dy="0.35em" fill="#1F2937" font-family="Inter, Segoe UI, Helvetica, Arial, sans-serif" font-size="11px" text-anchor="middle" x="220.0" y="260.0">Expert 0</text><rect fill="#c2e8f7" height="32" rx="6" ry="6" stroke="#333333" stroke-width="1.5" width="80" x="275.0" y="244.0" /><text dy="0.35em" fill="#1F2937" font-family="Inter, Segoe UI, Helvetica, Arial, sans-serif" font-size="11px" text-anchor="middle" x="315.0" y="260.0">Expert 1</text><rect fill="white" fill-opacity="0.7" height="32" width="80" x="275.0" y="244.0" /><rect fill="#c2e8f7" height="32" rx="6" ry="6" stroke="#333333" stroke-width="1.5" width="80" x="370.0" y="244.0" /><text dy="0.35em" fill="#1F2937" font-family="Inter, Segoe UI, Helvetica, Arial, sans-serif" font-size="11px" text-anchor="middle" x="410.0" y="260.0">Expert 2</text><rect fill="white" fill-opacity="0.7" height="32" width="80" x="370.0" y="244.0" /><rect fill="#c2e8f7" height="32" rx="6" ry="6" stroke="#333333" stroke-width="1.5" width="80" x="465.0" y="244.0" /><text dy="0.35em" fill="#1F2937" font-family="Inter, Segoe UI, Helvetica, Arial, sans-serif" font-size="11px" text-anchor="middle" x="505.0" y="260.0">Expert 3</text><rect fill="white" fill-opacity="0.7" height="32" width="80" x="465.0" y="244.0" /><rect fill="#c2e8f7" height="32" rx="6" ry="6" stroke="#333333" stroke-width="1.5" width="80" x="560.0" y="244.0" /><text dy="0.35em" fill="#1F2937" font-family="Inter, Segoe UI, Helvetica, Arial, sans-serif" font-size="11px" text-anchor="middle" x="600.0" y="260.0">Expert 4</text><rect fill="#c2e8f7" height="32" rx="6" ry="6" stroke="#333333" stroke-width="1.5" width="80" x="655.0" y="244.0" /><text dy="0.35em" fill="#1F2937" font-family="Inter, Segoe UI, Helvetica, Arial, sans-serif" font-size="11px" text-anchor="middle" x="695.0" y="260.0">Expert 5</text><rect fill="white" fill-opacity="0.7" height="32" width="80" x="655.0" y="244.0" /><line marker-end="url(#arrowhead_333333)" stroke="#333333" stroke-width="1.5" x1="220" x2="220" y1="244.0" y2="228.0" /><g><rect fill="#F3F4F6" height="40" stroke="none" width="80" x="180.0" y="188.0" /><line stroke="#1E40AF" stroke-width="1.5" x1="180.0" x2="260.0" y1="188.0" y2="188.0" /><line stroke="#1E40AF" stroke-width="1.5" x1="180.0" x2="260.0" y1="228.0" y2="228.0" /><line stroke="#DC2626" stroke-width="1.5" x1="180.0" x2="180.0" y1="188.0" y2="228.0" /><line stroke="#DC2626" stroke-width="1.5" x1="260.0" x2="260.0" y1="188.0" y2="228.0" /></g><line marker-end="url(#arrowhead_333333)" stroke="#333333" stroke-width="1.5" x1="315" x2="315" y1="244.0" y2="228.0" /><g><rect fill="#F3F4F6" height="40" stroke="none" width="80" x="275.0" y="188.0" /><line stroke="#1E40AF" stroke-width="1.5" x1="275.0" x2="355.0" y1="188.0" y2="188.0" /><line stroke="#1E40AF" stroke-width="1.5" x1="275.0" x2="355.0" y1="228.0" y2="228.0" /><line stroke="#DC2626" stroke-width="1.5" x1="275.0" x2="275.0" y1="188.0" y2="228.0" /><line stroke="#DC2626" stroke-width="1.5" x1="355.0" x2="355.0" y1="188.0" y2="228.0" /></g><rect fill="white" fill-opacity="0.7" height="40" width="80" x="275.0" y="188.0" /><line marker-end="url(#arrowhead_333333)" stroke="#333333" stroke-width="1.5" x1="410" x2="410" y1="244.0" y2="228.0" /><g><rect fill="#F3F4F6" height="40" stroke="none" width="80" x="370.0" y="188.0" /><line stroke="#1E40AF" stroke-width="1.5" x1="370.0" x2="450.0" y1="188.0" y2="188.0" /><line stroke="#1E40AF" stroke-width="1.5" x1="370.0" x2="450.0" y1="228.0" y2="228.0" /><line stroke="#DC2626" stroke-width="1.5" x1="370.0" x2="370.0" y1="188.0" y2="228.0" /><line stroke="#DC2626" stroke-width="1.5" x1="450.0" x2="450.0" y1="188.0" y2="228.0" /></g><rect fill="white" fill-opacity="0.7" height="40" width="80" x="370.0" y="188.0" /><line marker-end="url(#arrowhead_333333)" stroke="#333333" stroke-width="1.5" x1="505" x2="505" y1="244.0" y2="228.0" /><g><rect fill="#F3F4F6" height="40" stroke="none" width="80" x="465.0" y="188.0" /><line stroke="#1E40AF" stroke-width="1.5" x1="465.0" x2="545.0" y1="188.0" y2="188.0" /><line stroke="#1E40AF" stroke-width="1.5" x1="465.0" x2="545.0" y1="228.0" y2="228.0" /><line stroke="#DC2626" stroke-width="1.5" x1="465.0" x2="465.0" y1="188.0" y2="228.0" /><line stroke="#DC2626" stroke-width="1.5" x1="545.0" x2="545.0" y1="188.0" y2="228.0" /></g><rect fill="white" fill-opacity="0.7" height="40" width="80" x="465.0" y="188.0" /><line marker-end="url(#arrowhead_333333)" stroke="#333333" stroke-width="1.5" x1="600" x2="600" y1="244.0" y2="228.0" /><g><rect fill="#F3F4F6" height="40" stroke="none" width="80" x="560.0" y="188.0" /><line stroke="#1E40AF" stroke-width="1.5" x1="560.0" x2="640.0" y1="188.0" y2="188.0" /><line stroke="#1E40AF" stroke-width="1.5" x1="560.0" x2="640.0" y1="228.0" y2="228.0" /><line stroke="#DC2626" stroke-width="1.5" x1="560.0" x2="560.0" y1="188.0" y2="228.0" /><line stroke="#DC2626" stroke-width="1.5" x1="640.0" x2="640.0" y1="188.0" y2="228.0" /></g><line marker-end="url(#arrowhead_333333)" stroke="#333333" stroke-width="1.5" x1="695" x2="695" y1="244.0" y2="228.0" /><g><rect fill="#F3F4F6" height="40" stroke="none" width="80" x="655.0" y="188.0" /><line stroke="#1E40AF" stroke-width="1.5" x1="655.0" x2="735.0" y1="188.0" y2="188.0" /><line stroke="#1E40AF" stroke-width="1.5" x1="655.0" x2="735.0" y1="228.0" y2="228.0" /><line stroke="#DC2626" stroke-width="1.5" x1="655.0" x2="655.0" y1="188.0" y2="228.0" /><line stroke="#DC2626" stroke-width="1.5" x1="735.0" x2="735.0" y1="188.0" y2="228.0" /></g><rect fill="white" fill-opacity="0.7" height="40" width="80" x="655.0" y="188.0" /><text dy="0.35em" font-family="Inter, Segoe UI, Helvetica, Arial, sans-serif" font-size="11px" font-style="italic" text-anchor="start" x="741.0" y="208.0"><tspan fill="#6B7280">(</tspan><tspan fill="#DC2626">S</tspan><tspan fill="#6B7280">,</tspan><tspan fill="#6B7280"> </tspan><tspan fill="#1E40AF">D</tspan><tspan fill="#6B7280">)</tspan></text><line stroke="#333333" stroke-width="1.5" x1="220" x2="220" y1="188.0" y2="156.0" /><line stroke="#333333" stroke-width="1.5" x1="315" x2="315" y1="188.0" y2="156.0" /><line stroke="#333333" stroke-width="1.5" x1="410" x2="410" y1="188.0" y2="156.0" /><line stroke="#333333" stroke-width="1.5" x1="505" x2="505" y1="188.0" y2="156.0" /><line stroke="#333333" stroke-width="1.5" x1="600" x2="600" y1="188.0" y2="156.0" /><line stroke="#333333" stroke-width="1.5" x1="695" x2="695" y1="188.0" y2="156.0" /><line stroke="#333333" stroke-width="1.5" x1="220" x2="695" y1="156.0" y2="156.0" /><line marker-end="url(#arrowhead_333333)" stroke="#333333" stroke-width="1.5" x1="457.5" x2="457.5" y1="156.0" y2="140.0" /><rect fill="#F9FAFB" height="22" rx="6" ry="6" stroke="#333333" stroke-width="1.5" width="90" x="412.5" y="118.0" /><text dy="0.35em" fill="#1F2937" font-family="Inter, Segoe UI, Helvetica, Arial, sans-serif" font-size="9px" text-anchor="middle" x="457.5" y="129.0">Weighted Sum</text><line marker-end="url(#arrowhead_333333)" stroke="#333333" stroke-width="1.5" x1="457.5" x2="457.5" y1="118.0" y2="102.0" /><g><rect fill="#F3F4F6" height="40" stroke="none" width="80" x="417.5" y="62.0" /><line stroke="#1E40AF" stroke-width="1.5" x1="417.5" x2="497.5" y1="62.0" y2="62.0" /><line stroke="#1E40AF" stroke-width="1.5" x1="417.5" x2="497.5" y1="102.0" y2="102.0" /><line stroke="#DC2626" stroke-width="1.5" x1="417.5" x2="417.5" y1="62.0" y2="102.0" /><line stroke="#DC2626" stroke-width="1.5" x1="497.5" x2="497.5" y1="62.0" y2="102.0" /><text dy="0.35em" fill="#1F2937" font-family="Inter, Segoe UI, Helvetica, Arial, sans-serif" font-size="11px" text-anchor="middle" x="457.5" y="82.0">Output</text></g><text dy="0.35em" font-family="Inter, Segoe UI, Helvetica, Arial, sans-serif" font-size="11px" font-style="italic" text-anchor="start" x="503.5" y="82.0"><tspan fill="#6B7280">(</tspan><tspan fill="#DC2626">S</tspan><tspan fill="#6B7280">,</tspan><tspan fill="#6B7280"> </tspan><tspan fill="#1E40AF">D</tspan><tspan fill="#6B7280">)</tspan></text><line stroke="#333333" stroke-width="1.5" x1="457.5" x2="457.5" y1="62.0" y2="38" /><line marker-end="url(#arrowhead_333333)" stroke="#333333" stroke-width="1.5" x1="457.5" x2="782" y1="38" y2="38" /><circle cx="790" cy="38" fill="white" r="8" stroke="#333333" stroke-width="1.5" /><text dy="0.3em" fill="#333333" font-family="Inter, Segoe UI, Helvetica, Arial, sans-serif" font-size="14px" text-anchor="middle" x="790" y="38">+</text></svg>