<?xml version="1.0" encoding="utf-8" ?>
<svg baseProfile="full" height="454px" version="1.1" viewBox="0 0 312 454" width="312px" xmlns="http://www.w3.org/2000/svg" xmlns:ev="http://www.w3.org/2001/xml-events" xmlns:xlink="http://www.w3.org/1999/xlink"><defs><marker id="arrowhead" markerHeight="4" markerWidth="4" orient="auto" refX="4" refY="2.0"><polygon fill="#374151" points="0,0 4,2.0 0,4" /></marker></defs><rect fill="#F8F9FA" height="165" rx="6" ry="6" stroke="#333333" stroke-width="0.8" width="272" x="20" y="20" /><text dy="0.35em" fill="#1F2937" font-family="Inter, Segoe UI, Helvetica, Arial, sans-serif" font-size="11" font-weight="bold" text-anchor="middle" x="156.0" y="40.0">Standard next-token prediction</text><rect fill="#FECACA" height="26" rx="4" ry="4" stroke="#EF4444" stroke-width="1.5" width="46" x="55.0" y="143" /><text dy="0.35em" fill="#1F2937" font-family="Inter, Segoe UI, Helvetica, Arial, sans-serif" font-size="11px" text-anchor="middle" x="78.0" y="156.0">The</text><rect fill="#FECACA" height="26" rx="4" ry="4" stroke="#EF4444" stroke-width="1.5" width="46" x="107.0" y="143" /><text dy="0.35em" fill="#1F2937" font-family="Inter, Segoe UI, Helvetica, Arial, sans-serif" font-size="11px" text-anchor="middle" x="130.0" y="156.0">cat</text><rect fill="#FECACA" height="26" rx="4" ry="4" stroke="#EF4444" stroke-width="1.5" width="46" x="159.0" y="143" /><text dy="0.35em" fill="#1F2937" font-family="Inter, Segoe UI, Helvetica, Arial, sans-serif" font-size="11px" text-anchor="middle" x="182.0" y="156.0">sat</text><rect fill="#FECACA" height="26" rx="4" ry="4" stroke="#EF4444" stroke-width="1.5" width="46" x="211.0" y="143" /><text dy="0.35em" fill="#1F2937" font-family="Inter, Segoe UI, Helvetica, Arial, sans-serif" font-size="11px" text-anchor="middle" x="234.0" y="156.0">on</text><rect fill="#F3F4F6" height="30" rx="6" ry="6" stroke="#374151" stroke-width="1.5" width="202" x="55.0" y="97" /><text dy="0.35em" fill="#1F2937" font-family="Inter, Segoe UI, Helvetica, Arial, sans-serif" font-size="14px" text-anchor="middle" x="156.0" y="112.0">LLM</text><line marker-end="url(#arrowhead)" stroke="#374151" stroke-width="1.5" x1="78.0" x2="78.0" y1="141" y2="129" /><line marker-end="url(#arrowhead)" stroke="#374151" stroke-width="1.5" x1="130.0" x2="130.0" y1="141" y2="129" /><line marker-end="url(#arrowhead)" stroke="#374151" stroke-width="1.5" x1="182.0" x2="182.0" y1="141" y2="129" /><line marker-end="url(#arrowhead)" stroke="#374151" stroke-width="1.5" x1="234.0" x2="234.0" y1="141" y2="129" /><line marker-end="url(#arrowhead)" stroke="#374151" stroke-width="1.5" x1="78.0" x2="78.0" y1="95" y2="83" /><rect fill="#DBEAFE" height="26" rx="4" ry="4" stroke="#3B82F6" stroke-width="1.5" width="46" x="55.0" y="55" /><text dy="0.35em" fill="#1F2937" font-family="Inter, Segoe UI, Helvetica, Arial, sans-serif" font-size="11px" text-anchor="middle" x="78.0" y="68.0">cat</text><line marker-end="url(#arrowhead)" stroke="#374151" stroke-width="1.5" x1="130.0" x2="130.0" y1="95" y2="83" /><rect fill="#DBEAFE" height="26" rx="4" ry="4" stroke="#3B82F6" stroke-width="1.5" width="46" x="107.0" y="55" /><text dy="0.35em" fill="#1F2937" font-family="Inter, Segoe UI, Helvetica, Arial, sans-serif" font-size="11px" text-anchor="middle" x="130.0" y="68.0">sat</text><line marker-end="url(#arrowhead)" stroke="#374151" stroke-width="1.5" x1="182.0" x2="182.0" y1="95" y2="83" /><rect fill="#DBEAFE" height="26" rx="4" ry="4" stroke="#3B82F6" stroke-width="1.5" width="46" x="159.0" y="55" /><text dy="0.35em" fill="#1F2937" font-family="Inter, Segoe UI, Helvetica, Arial, sans-serif" font-size="11px" text-anchor="middle" x="182.0" y="68.0">on</text><line marker-end="url(#arrowhead)" stroke="#374151" stroke-width="1.5" x1="234.0" x2="234.0" y1="95" y2="83" /><rect fill="#DBEAFE" height="26" rx="4" ry="4" stroke="#3B82F6" stroke-width="1.5" width="46" x="211.0" y="55" /><text dy="0.35em" fill="#1F2937" font-family="Inter, Segoe UI, Helvetica, Arial, sans-serif" font-size="11px" text-anchor="middle" x="234.0" y="68.0">the</text><rect fill="#F8F9FA" height="229" rx="6" ry="6" stroke="#333333" stroke-width="0.8" width="272" x="20" y="205" /><text dy="0.35em" fill="#1F2937" font-family="Inter, Segoe UI, Helvetica, Arial, sans-serif" font-size="11" font-weight="bold" text-anchor="middle" x="156.0" y="225.0">Multi-token prediction (k=3)</text><rect fill="#FECACA" height="26" rx="4" ry="4" stroke="#EF4444" stroke-width="1.5" width="46" x="74" y="392" /><text dy="0.35em" fill="#1F2937" font-family="Inter, Segoe UI, Helvetica, Arial, sans-serif" font-size="11px" text-anchor="middle" x="97.0" y="405.0">The</text><rect fill="#FECACA" height="26" rx="4" ry="4" stroke="#EF4444" stroke-width="1.5" width="46" x="126" y="392" /><text dy="0.35em" fill="#1F2937" font-family="Inter, Segoe UI, Helvetica, Arial, sans-serif" font-size="11px" text-anchor="middle" x="149.0" y="405.0">cat</text><rect fill="#FECACA" height="26" rx="4" ry="4" stroke="#EF4444" stroke-width="1.5" width="46" x="178" y="392" /><text dy="0.35em" fill="#1F2937" font-family="Inter, Segoe UI, Helvetica, Arial, sans-serif" font-size="11px" text-anchor="middle" x="201.0" y="405.0">sat</text><rect fill="#FECACA" height="26" rx="4" ry="4" stroke="#EF4444" stroke-width="1.5" width="46" x="230" y="392" /><text dy="0.35em" fill="#1F2937" font-family="Inter, Segoe UI, Helvetica, Arial, sans-serif" font-size="11px" text-anchor="middle" x="253.0" y="405.0">on</text><rect fill="#F3F4F6" height="30" rx="6" ry="6" stroke="#374151" stroke-width="1.5" width="202" x="74" y="346" /><text dy="0.35em" fill="#1F2937" font-family="Inter, Segoe UI, Helvetica, Arial, sans-serif" font-size="14px" text-anchor="middle" x="175.0" y="361.0">LLM</text><line marker-end="url(#arrowhead)" stroke="#374151" stroke-width="1.5" x1="97.0" x2="97.0" y1="390" y2="378" /><line marker-end="url(#arrowhead)" stroke="#374151" stroke-width="1.5" x1="149.0" x2="149.0" y1="390" y2="378" /><line marker-end="url(#arrowhead)" stroke="#374151" stroke-width="1.5" x1="201.0" x2="201.0" y1="390" y2="378" /><line marker-end="url(#arrowhead)" stroke="#374151" stroke-width="1.5" x1="253.0" x2="253.0" y1="390" y2="378" /><text dy="0.35em" fill="#6B7280" font-family="Inter, Segoe UI, Helvetica, Arial, sans-serif" font-size="9" text-anchor="end" x="63" y="317.0">Head 1</text><rect fill="#DBEAFE" height="26" rx="4" ry="4" stroke="#3B82F6" stroke-width="1.5" width="46" x="74.0" y="304" /><text dy="0.35em" fill="#1F2937" font-family="Inter, Segoe UI, Helvetica, Arial, sans-serif" font-size="11px" text-anchor="middle" x="97.0" y="317.0">cat</text><rect fill="#DBEAFE" height="26" rx="4" ry="4" stroke="#3B82F6" stroke-width="1.5" width="46" x="126.0" y="304" /><text dy="0.35em" fill="#1F2937" font-family="Inter, Segoe UI, Helvetica, Arial, sans-serif" font-size="11px" text-anchor="middle" x="149.0" y="317.0">sat</text><rect fill="#DBEAFE" height="26" rx="4" ry="4" stroke="#3B82F6" stroke-width="1.5" width="46" x="178.0" y="304" /><text dy="0.35em" fill="#1F2937" font-family="Inter, Segoe UI, Helvetica, Arial, sans-serif" font-size="11px" text-anchor="middle" x="201.0" y="317.0">on</text><rect fill="#DBEAFE" height="26" rx="4" ry="4" stroke="#3B82F6" stroke-width="1.5" width="46" x="230.0" y="304" /><text dy="0.35em" fill="#1F2937" font-family="Inter, Segoe UI, Helvetica, Arial, sans-serif" font-size="11px" text-anchor="middle" x="253.0" y="317.0">the</text><text dy="0.35em" fill="#6B7280" font-family="Inter, Segoe UI, Helvetica, Arial, sans-serif" font-size="9" text-anchor="end" x="63" y="285.0">Head 2</text><rect fill="#FEF3C7" height="26" rx="4" ry="4" stroke="#F59E0B" stroke-width="1.5" width="46" x="74.0" y="272" /><text dy="0.35em" fill="#1F2937" font-family="Inter, Segoe UI, Helvetica, Arial, sans-serif" font-size="11px" text-anchor="middle" x="97.0" y="285.0">sat</text><rect fill="#FEF3C7" height="26" rx="4" ry="4" stroke="#F59E0B" stroke-width="1.5" width="46" x="126.0" y="272" /><text dy="0.35em" fill="#1F2937" font-family="Inter, Segoe UI, Helvetica, Arial, sans-serif" font-size="11px" text-anchor="middle" x="149.0" y="285.0">on</text><rect fill="#FEF3C7" height="26" rx="4" ry="4" stroke="#F59E0B" stroke-width="1.5" width="46" x="178.0" y="272" /><text dy="0.35em" fill="#1F2937" font-family="Inter, Segoe UI, Helvetica, Arial, sans-serif" font-size="11px" text-anchor="middle" x="201.0" y="285.0">the</text><rect fill="#FEF3C7" height="26" rx="4" ry="4" stroke="#F59E0B" stroke-width="1.5" width="46" x="230.0" y="272" /><text dy="0.35em" fill="#1F2937" font-family="Inter, Segoe UI, Helvetica, Arial, sans-serif" font-size="11px" text-anchor="middle" x="253.0" y="285.0">mat</text><text dy="0.35em" fill="#6B7280" font-family="Inter, Segoe UI, Helvetica, Arial, sans-serif" font-size="9" text-anchor="end" x="63" y="253.0">Head 3</text><rect fill="#D1FAE5" height="26" rx="4" ry="4" stroke="#059669" stroke-width="1.5" width="46" x="74.0" y="240" /><text dy="0.35em" fill="#1F2937" font-family="Inter, Segoe UI, Helvetica, Arial, sans-serif" font-size="11px" text-anchor="middle" x="97.0" y="253.0">on</text><rect fill="#D1FAE5" height="26" rx="4" ry="4" stroke="#059669" stroke-width="1.5" width="46" x="126.0" y="240" /><text dy="0.35em" fill="#1F2937" font-family="Inter, Segoe UI, Helvetica, Arial, sans-serif" font-size="11px" text-anchor="middle" x="149.0" y="253.0">the</text><rect fill="#D1FAE5" height="26" rx="4" ry="4" stroke="#059669" stroke-width="1.5" width="46" x="178.0" y="240" /><text dy="0.35em" fill="#1F2937" font-family="Inter, Segoe UI, Helvetica, Arial, sans-serif" font-size="11px" text-anchor="middle" x="201.0" y="253.0">mat</text><rect fill="#D1FAE5" height="26" rx="4" ry="4" stroke="#059669" stroke-width="1.5" width="46" x="230.0" y="240" /><text dy="0.35em" fill="#1F2937" font-family="Inter, Segoe UI, Helvetica, Arial, sans-serif" font-size="11px" text-anchor="middle" x="253.0" y="253.0">.</text><line marker-end="url(#arrowhead)" stroke="#374151" stroke-width="1.5" x1="97.0" x2="97.0" y1="344" y2="332" /><line marker-end="url(#arrowhead)" stroke="#374151" stroke-width="1.5" x1="149.0" x2="149.0" y1="344" y2="332" /><line marker-end="url(#arrowhead)" stroke="#374151" stroke-width="1.5" x1="201.0" x2="201.0" y1="344" y2="332" /><line marker-end="url(#arrowhead)" stroke="#374151" stroke-width="1.5" x1="253.0" x2="253.0" y1="344" y2="332" /></svg>