<?xml version="1.0" encoding="utf-8" ?>
<svg baseProfile="full" height="253px" version="1.1" viewBox="0 0 664 253" width="664px" xmlns="http://www.w3.org/2000/svg" xmlns:ev="http://www.w3.org/2001/xml-events" xmlns:xlink="http://www.w3.org/1999/xlink"><defs><marker id="arrowhead" markerHeight="4" markerWidth="4" orient="auto" refX="4" refY="2.0"><polygon fill="#374151" points="0,0 4,2.0 0,4" /></marker><marker id="arrowhead_F59E0B" markerHeight="4" markerWidth="4" orient="auto" refX="4" refY="2.0"><polygon fill="#F59E0B" points="0,0 4,2.0 0,4" /></marker><marker id="arrowhead_7C3AED" markerHeight="4" markerWidth="4" orient="auto" refX="4" refY="2.0"><polygon fill="#7C3AED" points="0,0 4,2.0 0,4" /></marker></defs><text dy="0.35em" fill="#1F2937" font-family="Inter, Segoe UI, Helvetica, Arial, sans-serif" font-size="10px" font-weight="bold" text-anchor="middle" x="332.0" y="11">Physical KV blocks</text><text dy="0.35em" fill="#6B7280" font-family="Inter, Segoe UI, Helvetica, Arial, sans-serif" font-size="7px" text-anchor="middle" x="332.0" y="23">(GPU HBM)</text><text dy="0.35em" fill="#F59E0B" font-family="Inter, Segoe UI, Helvetica, Arial, sans-serif" font-size="10px" font-weight="bold" text-anchor="middle" x="82.0" y="12">Request A</text><text dy="0.35em" fill="#6B7280" font-family="Inter, Segoe UI, Helvetica, Arial, sans-serif" font-size="7px" text-anchor="middle" x="82.0" y="26">Logical KV blocks</text><text dy="0.35em" fill="#7C3AED" font-family="Inter, Segoe UI, Helvetica, Arial, sans-serif" font-size="10px" font-weight="bold" text-anchor="middle" x="582.0" y="12">Request B</text><text dy="0.35em" fill="#6B7280" font-family="Inter, Segoe UI, Helvetica, Arial, sans-serif" font-size="7px" text-anchor="middle" x="582.0" y="26">Logical KV blocks</text><text dy="0.35em" fill="#6B7280" font-family="Inter, Segoe UI, Helvetica, Arial, sans-serif" font-size="7px" text-anchor="middle" x="262.0" y="48.0">0</text><rect fill="#F9FAFB" height="22" rx="3" ry="3" stroke="#6B7280" stroke-dasharray="3,2" stroke-width="0.8" width="134" x="275" y="37" /><text dy="0.35em" fill="#6B7280" font-family="Inter, Segoe UI, Helvetica, Arial, sans-serif" font-size="7px" text-anchor="middle" x="342.0" y="48.0">free</text><text dy="0.35em" fill="#6B7280" font-family="Inter, Segoe UI, Helvetica, Arial, sans-serif" font-size="7px" text-anchor="middle" x="262.0" y="75.0">1</text><rect fill="#7C3AED" height="22" rx="1" ry="1" width="4" x="269" y="64" /><rect fill="#DBEAFE" height="22" rx="3" ry="3" stroke="#333333" stroke-width="0.8" width="32" x="275" y="64" /><text dy="0.35em" fill="#1F2937" font-family="Inter, Segoe UI, Helvetica, Arial, sans-serif" font-size="7px" text-anchor="middle" x="291.0" y="75.0">young</text><rect fill="#FFFFFF" height="22" rx="3" ry="3" stroke="#6B7280" stroke-dasharray="3,2" stroke-width="0.8" width="32" x="309" y="64" /><rect fill="#FFFFFF" height="22" rx="3" ry="3" stroke="#6B7280" stroke-dasharray="3,2" stroke-width="0.8" width="32" x="343" y="64" /><rect fill="#FFFFFF" height="22" rx="3" ry="3" stroke="#6B7280" stroke-dasharray="3,2" stroke-width="0.8" width="32" x="377" y="64" /><text dy="0.35em" fill="#6B7280" font-family="Inter, Segoe UI, Helvetica, Arial, sans-serif" font-size="7px" text-anchor="middle" x="262.0" y="102.0">2</text><rect fill="#F59E0B" height="22" rx="1" ry="1" width="4" x="269" y="91" /><rect fill="#FECACA" height="22" rx="3" ry="3" stroke="#333333" stroke-width="0.8" width="32" x="275" y="91" /><text dy="0.35em" fill="#1F2937" font-family="Inter, Segoe UI, Helvetica, Arial, sans-serif" font-size="7px" text-anchor="middle" x="291.0" y="102.0">jumps</text><rect fill="#DBEAFE" height="22" rx="3" ry="3" stroke="#333333" stroke-width="0.8" width="32" x="309" y="91" /><text dy="0.35em" fill="#1F2937" font-family="Inter, Segoe UI, Helvetica, Arial, sans-serif" font-size="7px" text-anchor="middle" x="325.0" y="102.0">over</text><rect fill="#DBEAFE" height="22" rx="3" ry="3" stroke="#333333" stroke-width="0.8" width="32" x="343" y="91" /><text dy="0.35em" fill="#1F2937" font-family="Inter, Segoe UI, Helvetica, Arial, sans-serif" font-size="7px" text-anchor="middle" x="359.0" y="102.0">the</text><rect fill="#DBEAFE" height="22" rx="3" ry="3" stroke="#333333" stroke-width="0.8" width="32" x="377" y="91" /><text dy="0.35em" fill="#1F2937" font-family="Inter, Segoe UI, Helvetica, Arial, sans-serif" font-size="7px" text-anchor="middle" x="393.0" y="102.0">lazy</text><text dy="0.35em" fill="#6B7280" font-family="Inter, Segoe UI, Helvetica, Arial, sans-serif" font-size="7px" text-anchor="middle" x="262.0" y="129.0">3</text><rect fill="#7C3AED" height="22" rx="1" ry="1" width="4" x="269" y="118" /><rect fill="#FECACA" height="22" rx="3" ry="3" stroke="#333333" stroke-width="0.8" width="32" x="275" y="118" /><text dy="0.35em" fill="#1F2937" font-family="Inter, Segoe UI, Helvetica, Arial, sans-serif" font-size="7px" text-anchor="middle" x="291.0" y="129.0">Only</text><rect fill="#FECACA" height="22" rx="3" ry="3" stroke="#333333" stroke-width="0.8" width="32" x="309" y="118" /><text dy="0.35em" fill="#1F2937" font-family="Inter, Segoe UI, Helvetica, Arial, sans-serif" font-size="7px" text-anchor="middle" x="325.0" y="129.0">the</text><rect fill="#DBEAFE" height="22" rx="3" ry="3" stroke="#333333" stroke-width="0.8" width="32" x="343" y="118" /><text dy="0.35em" fill="#1F2937" font-family="Inter, Segoe UI, Helvetica, Arial, sans-serif" font-size="7px" text-anchor="middle" x="359.0" y="129.0">good</text><rect fill="#DBEAFE" height="22" rx="3" ry="3" stroke="#333333" stroke-width="0.8" width="32" x="377" y="118" /><text dy="0.35em" fill="#1F2937" font-family="Inter, Segoe UI, Helvetica, Arial, sans-serif" font-size="7px" text-anchor="middle" x="393.0" y="129.0">die</text><text dy="0.35em" fill="#6B7280" font-family="Inter, Segoe UI, Helvetica, Arial, sans-serif" font-size="7px" text-anchor="middle" x="262.0" y="156.0">4</text><rect fill="#F9FAFB" height="22" rx="3" ry="3" stroke="#6B7280" stroke-dasharray="3,2" stroke-width="0.8" width="134" x="275" y="145" /><text dy="0.35em" fill="#6B7280" font-family="Inter, Segoe UI, Helvetica, Arial, sans-serif" font-size="7px" text-anchor="middle" x="342.0" y="156.0">free</text><text dy="0.35em" fill="#6B7280" font-family="Inter, Segoe UI, Helvetica, Arial, sans-serif" font-size="7px" text-anchor="middle" x="262.0" y="183.0">5</text><rect fill="#F59E0B" height="22" rx="1" ry="1" width="4" x="269" y="172" /><rect fill="#FECACA" height="22" rx="3" ry="3" stroke="#333333" stroke-width="0.8" width="32" x="275" y="172" /><text dy="0.35em" fill="#1F2937" font-family="Inter, Segoe UI, Helvetica, Arial, sans-serif" font-size="7px" text-anchor="middle" x="291.0" y="183.0">The</text><rect fill="#FECACA" height="22" rx="3" ry="3" stroke="#333333" stroke-width="0.8" width="32" x="309" y="172" /><text dy="0.35em" fill="#1F2937" font-family="Inter, Segoe UI, Helvetica, Arial, sans-serif" font-size="7px" text-anchor="middle" x="325.0" y="183.0">quick</text><rect fill="#FECACA" height="22" rx="3" ry="3" stroke="#333333" stroke-width="0.8" width="32" x="343" y="172" /><text dy="0.35em" fill="#1F2937" font-family="Inter, Segoe UI, Helvetica, Arial, sans-serif" font-size="7px" text-anchor="middle" x="359.0" y="183.0">brown</text><rect fill="#FECACA" height="22" rx="3" ry="3" stroke="#333333" stroke-width="0.8" width="32" x="377" y="172" /><text dy="0.35em" fill="#1F2937" font-family="Inter, Segoe UI, Helvetica, Arial, sans-serif" font-size="7px" text-anchor="middle" x="393.0" y="183.0">fox</text><text dy="0.35em" fill="#6B7280" font-family="Inter, Segoe UI, Helvetica, Arial, sans-serif" font-size="7px" text-anchor="middle" x="262.0" y="210.0">6</text><rect fill="#F9FAFB" height="22" rx="3" ry="3" stroke="#6B7280" stroke-dasharray="3,2" stroke-width="0.8" width="134" x="275" y="199" /><text dy="0.35em" fill="#6B7280" font-family="Inter, Segoe UI, Helvetica, Arial, sans-serif" font-size="7px" text-anchor="middle" x="342.0" y="210.0">free</text><text dy="0.35em" fill="#6B7280" font-family="Inter, Segoe UI, Helvetica, Arial, sans-serif" font-size="7px" text-anchor="middle" x="262.0" y="237.0">7</text><rect fill="#F59E0B" height="22" rx="1" ry="1" width="4" x="269" y="226" /><rect fill="#DBEAFE" height="22" rx="3" ry="3" stroke="#333333" stroke-width="0.8" width="32" x="275" y="226" /><text dy="0.35em" fill="#1F2937" font-family="Inter, Segoe UI, Helvetica, Arial, sans-serif" font-size="7px" text-anchor="middle" x="291.0" y="237.0">dog</text><rect fill="#FFFFFF" height="22" rx="3" ry="3" stroke="#6B7280" stroke-dasharray="3,2" stroke-width="0.8" width="32" x="309" y="226" /><rect fill="#FFFFFF" height="22" rx="3" ry="3" stroke="#6B7280" stroke-dasharray="3,2" stroke-width="0.8" width="32" x="343" y="226" /><rect fill="#FFFFFF" height="22" rx="3" ry="3" stroke="#6B7280" stroke-dasharray="3,2" stroke-width="0.8" width="32" x="377" y="226" /><text dy="0.35em" fill="#6B7280" font-family="Inter, Segoe UI, Helvetica, Arial, sans-serif" font-size="7px" text-anchor="middle" x="12.0" y="48.0">0</text><rect fill="#F59E0B" height="22" rx="1" ry="1" width="4" x="19" y="37" /><rect fill="#FECACA" height="22" rx="3" ry="3" stroke="#333333" stroke-width="0.8" width="32" x="25" y="37" /><text dy="0.35em" fill="#1F2937" font-family="Inter, Segoe UI, Helvetica, Arial, sans-serif" font-size="7px" text-anchor="middle" x="41.0" y="48.0">The</text><rect fill="#FECACA" height="22" rx="3" ry="3" stroke="#333333" stroke-width="0.8" width="32" x="59" y="37" /><text dy="0.35em" fill="#1F2937" font-family="Inter, Segoe UI, Helvetica, Arial, sans-serif" font-size="7px" text-anchor="middle" x="75.0" y="48.0">quick</text><rect fill="#FECACA" height="22" rx="3" ry="3" stroke="#333333" stroke-width="0.8" width="32" x="93" y="37" /><text dy="0.35em" fill="#1F2937" font-family="Inter, Segoe UI, Helvetica, Arial, sans-serif" font-size="7px" text-anchor="middle" x="109.0" y="48.0">brown</text><rect fill="#FECACA" height="22" rx="3" ry="3" stroke="#333333" stroke-width="0.8" width="32" x="127" y="37" /><text dy="0.35em" fill="#1F2937" font-family="Inter, Segoe UI, Helvetica, Arial, sans-serif" font-size="7px" text-anchor="middle" x="143.0" y="48.0">fox</text><text dy="0.35em" fill="#6B7280" font-family="Inter, Segoe UI, Helvetica, Arial, sans-serif" font-size="7px" text-anchor="middle" x="12.0" y="75.0">1</text><rect fill="#F59E0B" height="22" rx="1" ry="1" width="4" x="19" y="64" /><rect fill="#FECACA" height="22" rx="3" ry="3" stroke="#333333" stroke-width="0.8" width="32" x="25" y="64" /><text dy="0.35em" fill="#1F2937" font-family="Inter, Segoe UI, Helvetica, Arial, sans-serif" font-size="7px" text-anchor="middle" x="41.0" y="75.0">jumps</text><rect fill="#DBEAFE" height="22" rx="3" ry="3" stroke="#333333" stroke-width="0.8" width="32" x="59" y="64" /><text dy="0.35em" fill="#1F2937" font-family="Inter, Segoe UI, Helvetica, Arial, sans-serif" font-size="7px" text-anchor="middle" x="75.0" y="75.0">over</text><rect fill="#DBEAFE" height="22" rx="3" ry="3" stroke="#333333" stroke-width="0.8" width="32" x="93" y="64" /><text dy="0.35em" fill="#1F2937" font-family="Inter, Segoe UI, Helvetica, Arial, sans-serif" font-size="7px" text-anchor="middle" x="109.0" y="75.0">the</text><rect fill="#DBEAFE" height="22" rx="3" ry="3" stroke="#333333" stroke-width="0.8" width="32" x="127" y="64" /><text dy="0.35em" fill="#1F2937" font-family="Inter, Segoe UI, Helvetica, Arial, sans-serif" font-size="7px" text-anchor="middle" x="143.0" y="75.0">lazy</text><text dy="0.35em" fill="#6B7280" font-family="Inter, Segoe UI, Helvetica, Arial, sans-serif" font-size="7px" text-anchor="middle" x="12.0" y="102.0">2</text><rect fill="#F59E0B" height="22" rx="1" ry="1" width="4" x="19" y="91" /><rect fill="#DBEAFE" height="22" rx="3" ry="3" stroke="#333333" stroke-width="0.8" width="32" x="25" y="91" /><text dy="0.35em" fill="#1F2937" font-family="Inter, Segoe UI, Helvetica, Arial, sans-serif" font-size="7px" text-anchor="middle" x="41.0" y="102.0">dog</text><rect fill="#FFFFFF" height="22" rx="3" ry="3" stroke="#6B7280" stroke-dasharray="3,2" stroke-width="0.8" width="32" x="59" y="91" /><rect fill="#FFFFFF" height="22" rx="3" ry="3" stroke="#6B7280" stroke-dasharray="3,2" stroke-width="0.8" width="32" x="93" y="91" /><rect fill="#FFFFFF" height="22" rx="3" ry="3" stroke="#6B7280" stroke-dasharray="3,2" stroke-width="0.8" width="32" x="127" y="91" /><rect fill="#FFFFFF" height="95" stroke="#333333" stroke-width="0.6" width="54" x="173" y="20.5" /><rect fill="#F3F4F6" height="14" stroke="none" width="54" x="173" y="20.5" /><text dy="0.35em" fill="#6B7280" font-family="Inter, Segoe UI, Helvetica, Arial, sans-serif" font-size="6px" text-anchor="middle" x="181.0" y="27.5">Log.</text><text dy="0.35em" fill="#6B7280" font-family="Inter, Segoe UI, Helvetica, Arial, sans-serif" font-size="6px" text-anchor="middle" x="200.0" y="27.5">Phys.</text><text dy="0.35em" fill="#6B7280" font-family="Inter, Segoe UI, Helvetica, Arial, sans-serif" font-size="6px" text-anchor="middle" x="219.0" y="27.5">#</text><line stroke="#333333" stroke-width="0.6" x1="173" x2="227" y1="34.5" y2="34.5" /><text dy="0.35em" fill="#1F2937" font-family="Inter, Segoe UI, Helvetica, Arial, sans-serif" font-size="7.5px" text-anchor="middle" x="181.0" y="48.0">0</text><text dy="0.35em" fill="#1F2937" font-family="Inter, Segoe UI, Helvetica, Arial, sans-serif" font-size="7.5px" text-anchor="middle" x="200.0" y="48.0">5</text><text dy="0.35em" fill="#1F2937" font-family="Inter, Segoe UI, Helvetica, Arial, sans-serif" font-size="7.5px" text-anchor="middle" x="219.0" y="48.0">4</text><line stroke="#6B7280" stroke-width="0.6" x1="173" x2="227" y1="61.5" y2="61.5" /><text dy="0.35em" fill="#1F2937" font-family="Inter, Segoe UI, Helvetica, Arial, sans-serif" font-size="7.5px" text-anchor="middle" x="181.0" y="75.0">1</text><text dy="0.35em" fill="#1F2937" font-family="Inter, Segoe UI, Helvetica, Arial, sans-serif" font-size="7.5px" text-anchor="middle" x="200.0" y="75.0">2</text><text dy="0.35em" fill="#1F2937" font-family="Inter, Segoe UI, Helvetica, Arial, sans-serif" font-size="7.5px" text-anchor="middle" x="219.0" y="75.0">4</text><line stroke="#6B7280" stroke-width="0.6" x1="173" x2="227" y1="88.5" y2="88.5" /><text dy="0.35em" fill="#1F2937" font-family="Inter, Segoe UI, Helvetica, Arial, sans-serif" font-size="7.5px" text-anchor="middle" x="181.0" y="102.0">2</text><text dy="0.35em" fill="#1F2937" font-family="Inter, Segoe UI, Helvetica, Arial, sans-serif" font-size="7.5px" text-anchor="middle" x="200.0" y="102.0">7</text><text dy="0.35em" fill="#1F2937" font-family="Inter, Segoe UI, Helvetica, Arial, sans-serif" font-size="7.5px" text-anchor="middle" x="219.0" y="102.0">1</text><line stroke="#6B7280" stroke-width="0.6" x1="189" x2="189" y1="20.5" y2="115.5" /><line stroke="#6B7280" stroke-width="0.6" x1="211" x2="211" y1="20.5" y2="115.5" /><text dy="0.35em" fill="#6B7280" font-family="Inter, Segoe UI, Helvetica, Arial, sans-serif" font-size="7px" text-anchor="middle" x="512.0" y="48.0">0</text><rect fill="#7C3AED" height="22" rx="1" ry="1" width="4" x="519" y="37" /><rect fill="#FECACA" height="22" rx="3" ry="3" stroke="#333333" stroke-width="0.8" width="32" x="525" y="37" /><text dy="0.35em" fill="#1F2937" font-family="Inter, Segoe UI, Helvetica, Arial, sans-serif" font-size="7px" text-anchor="middle" x="541.0" y="48.0">Only</text><rect fill="#FECACA" height="22" rx="3" ry="3" stroke="#333333" stroke-width="0.8" width="32" x="559" y="37" /><text dy="0.35em" fill="#1F2937" font-family="Inter, Segoe UI, Helvetica, Arial, sans-serif" font-size="7px" text-anchor="middle" x="575.0" y="48.0">the</text><rect fill="#DBEAFE" height="22" rx="3" ry="3" stroke="#333333" stroke-width="0.8" width="32" x="593" y="37" /><text dy="0.35em" fill="#1F2937" font-family="Inter, Segoe UI, Helvetica, Arial, sans-serif" font-size="7px" text-anchor="middle" x="609.0" y="48.0">good</text><rect fill="#DBEAFE" height="22" rx="3" ry="3" stroke="#333333" stroke-width="0.8" width="32" x="627" y="37" /><text dy="0.35em" fill="#1F2937" font-family="Inter, Segoe UI, Helvetica, Arial, sans-serif" font-size="7px" text-anchor="middle" x="643.0" y="48.0">die</text><text dy="0.35em" fill="#6B7280" font-family="Inter, Segoe UI, Helvetica, Arial, sans-serif" font-size="7px" text-anchor="middle" x="512.0" y="75.0">1</text><rect fill="#7C3AED" height="22" rx="1" ry="1" width="4" x="519" y="64" /><rect fill="#DBEAFE" height="22" rx="3" ry="3" stroke="#333333" stroke-width="0.8" width="32" x="525" y="64" /><text dy="0.35em" fill="#1F2937" font-family="Inter, Segoe UI, Helvetica, Arial, sans-serif" font-size="7px" text-anchor="middle" x="541.0" y="75.0">young</text><rect fill="#FFFFFF" height="22" rx="3" ry="3" stroke="#6B7280" stroke-dasharray="3,2" stroke-width="0.8" width="32" x="559" y="64" /><rect fill="#FFFFFF" height="22" rx="3" ry="3" stroke="#6B7280" stroke-dasharray="3,2" stroke-width="0.8" width="32" x="593" y="64" /><rect fill="#FFFFFF" height="22" rx="3" ry="3" stroke="#6B7280" stroke-dasharray="3,2" stroke-width="0.8" width="32" x="627" y="64" /><rect fill="#FFFFFF" height="68" stroke="#333333" stroke-width="0.6" width="54" x="437" y="20.5" /><rect fill="#F3F4F6" height="14" stroke="none" width="54" x="437" y="20.5" /><text dy="0.35em" fill="#6B7280" font-family="Inter, Segoe UI, Helvetica, Arial, sans-serif" font-size="6px" text-anchor="middle" x="445.0" y="27.5">Log.</text><text dy="0.35em" fill="#6B7280" font-family="Inter, Segoe UI, Helvetica, Arial, sans-serif" font-size="6px" text-anchor="middle" x="464.0" y="27.5">Phys.</text><text dy="0.35em" fill="#6B7280" font-family="Inter, Segoe UI, Helvetica, Arial, sans-serif" font-size="6px" text-anchor="middle" x="483.0" y="27.5">#</text><line stroke="#333333" stroke-width="0.6" x1="437" x2="491" y1="34.5" y2="34.5" /><text dy="0.35em" fill="#1F2937" font-family="Inter, Segoe UI, Helvetica, Arial, sans-serif" font-size="7.5px" text-anchor="middle" x="445.0" y="48.0">0</text><text dy="0.35em" fill="#1F2937" font-family="Inter, Segoe UI, Helvetica, Arial, sans-serif" font-size="7.5px" text-anchor="middle" x="464.0" y="48.0">3</text><text dy="0.35em" fill="#1F2937" font-family="Inter, Segoe UI, Helvetica, Arial, sans-serif" font-size="7.5px" text-anchor="middle" x="483.0" y="48.0">4</text><line stroke="#6B7280" stroke-width="0.6" x1="437" x2="491" y1="61.5" y2="61.5" /><text dy="0.35em" fill="#1F2937" font-family="Inter, Segoe UI, Helvetica, Arial, sans-serif" font-size="7.5px" text-anchor="middle" x="445.0" y="75.0">1</text><text dy="0.35em" fill="#1F2937" font-family="Inter, Segoe UI, Helvetica, Arial, sans-serif" font-size="7.5px" text-anchor="middle" x="464.0" y="75.0">1</text><text dy="0.35em" fill="#1F2937" font-family="Inter, Segoe UI, Helvetica, Arial, sans-serif" font-size="7.5px" text-anchor="middle" x="483.0" y="75.0">1</text><line stroke="#6B7280" stroke-width="0.6" x1="453" x2="453" y1="20.5" y2="88.5" /><line stroke="#6B7280" stroke-width="0.6" x1="475" x2="475" y1="20.5" y2="88.5" /><text dy="0.35em" fill="#6B7280" font-family="Inter, Segoe UI, Helvetica, Arial, sans-serif" font-size="7px" text-anchor="middle" x="200.0" y="15.5">Block table</text><text dy="0.35em" fill="#6B7280" font-family="Inter, Segoe UI, Helvetica, Arial, sans-serif" font-size="7px" text-anchor="middle" x="464.0" y="15.5">Block table</text><line marker-end="url(#arrowhead_F59E0B)" stroke="#F59E0B" stroke-width="1.0" x1="230" x2="266" y1="48.0" y2="183.0" /><line marker-end="url(#arrowhead_F59E0B)" stroke="#F59E0B" stroke-width="1.0" x1="230" x2="266" y1="75.0" y2="102.0" /><line marker-end="url(#arrowhead_F59E0B)" stroke="#F59E0B" stroke-width="1.0" x1="230" x2="266" y1="102.0" y2="237.0" /><line marker-end="url(#arrowhead_7C3AED)" stroke="#7C3AED" stroke-width="1.0" x1="434" x2="412" y1="48.0" y2="129.0" /><line marker-end="url(#arrowhead_7C3AED)" stroke="#7C3AED" stroke-width="1.0" x1="434" x2="412" y1="75.0" y2="75.0" /></svg>