<?xml version="1.0" encoding="utf-8" ?>
<svg baseProfile="full" height="310.0px" version="1.1" viewBox="0 0 400 310.0" width="400px" xmlns="http://www.w3.org/2000/svg" xmlns:ev="http://www.w3.org/2001/xml-events" xmlns:xlink="http://www.w3.org/1999/xlink"><defs><marker id="arrowhead" markerHeight="4" markerWidth="4" orient="auto" refX="4" refY="2.0"><polygon fill="#374151" points="0,0 4,2.0 0,4" /></marker><marker id="arrowhead_333333" markerHeight="4" markerWidth="4" orient="auto" refX="4" refY="2.0"><polygon fill="#333333" points="0,0 4,2.0 0,4" /></marker></defs><text dy="0.35em" fill="#1F2937" font-family="Inter, Segoe UI, Helvetica, Arial, sans-serif" font-size="14px" text-anchor="middle" x="280" y="20">Output</text><text dy="0.35em" fill="#1F2937" font-family="Inter, Segoe UI, Helvetica, Arial, sans-serif" font-size="14px" text-anchor="middle" x="280" y="35">Probabilities</text><line marker-end="url(#arrowhead_333333)" stroke="#333333" stroke-width="1.5" x1="280" x2="280" y1="62" y2="50" /><rect fill="#cce7cf" height="18" rx="5" ry="5" stroke="#333333" stroke-width="1.5" width="100" x="230.0" y="62" /><text dy="0.35em" fill="#1F2937" font-family="Inter, Segoe UI, Helvetica, Arial, sans-serif" font-size="11px" text-anchor="middle" x="280.0" y="71.0">Softmax</text><line marker-end="url(#arrowhead_333333)" stroke="#333333" stroke-width="1.5" x1="280" x2="280" y1="92" y2="80" /><rect fill="#dbdfef" height="18" rx="5" ry="5" stroke="#333333" stroke-width="1.5" width="100" x="230.0" y="92" /><text dy="0.35em" fill="#1F2937" font-family="Inter, Segoe UI, Helvetica, Arial, sans-serif" font-size="11px" text-anchor="middle" x="280.0" y="101.0">Linear</text><line marker-end="url(#arrowhead_333333)" stroke="#333333" stroke-width="1.5" x1="280" x2="280" y1="123" y2="110" /><circle cx="280" cy="128" fill="white" r="5" stroke="#333333" stroke-width="1.5" /><text dy="0.3em" fill="#333333" font-family="Inter, Segoe UI, Helvetica, Arial, sans-serif" font-size="14px" text-anchor="middle" x="280" y="128">+</text><line stroke="#333333" stroke-width="1.5" x1="65" x2="275" y1="128" y2="128" /><rect fill="#c2e8f7" height="26" rx="6" ry="6" stroke="#333333" stroke-width="1.5" width="100" x="15.0" y="134" /><text dy="0.35em" fill="#1F2937" font-family="Inter, Segoe UI, Helvetica, Arial, sans-serif" font-size="11px" text-anchor="middle" x="65" y="140.5">Feed</text><text dy="0.35em" fill="#1F2937" font-family="Inter, Segoe UI, Helvetica, Arial, sans-serif" font-size="11px" text-anchor="middle" x="65" y="153.5">Forward</text><rect fill="#ffe2bb" height="38" rx="6" ry="6" stroke="#333333" stroke-width="1.5" width="100" x="135.0" y="134" /><text dy="0.35em" fill="#1F2937" font-family="Inter, Segoe UI, Helvetica, Arial, sans-serif" font-size="11px" text-anchor="middle" x="185" y="140.0">Masked</text><text dy="0.35em" fill="#1F2937" font-family="Inter, Segoe UI, Helvetica, Arial, sans-serif" font-size="11px" text-anchor="middle" x="185" y="153.0">Multi-Head</text><text dy="0.35em" fill="#1F2937" font-family="Inter, Segoe UI, Helvetica, Arial, sans-serif" font-size="11px" text-anchor="middle" x="185" y="166.0">Attention</text><line stroke="#333333" stroke-width="1.5" x1="147.5" x2="222.5" y1="181.0" y2="181.0" /><line marker-end="url(#arrowhead_333333)" stroke="#333333" stroke-width="1.5" x1="147.5" x2="147.5" y1="181.0" y2="172" /><line marker-end="url(#arrowhead_333333)" stroke="#333333" stroke-width="1.5" x1="222.5" x2="222.5" y1="181.0" y2="172" /><line stroke="#333333" stroke-width="1.5" x1="65" x2="65" y1="134" y2="128" /><line stroke="#333333" stroke-width="1.5" x1="185" x2="185" y1="134" y2="128" /><rect fill="#f2f4c1" height="18" rx="5" ry="5" stroke="#333333" stroke-width="1.5" width="100" x="15.0" y="166" /><text dy="0.35em" fill="#1F2937" font-family="Inter, Segoe UI, Helvetica, Arial, sans-serif" font-size="11px" text-anchor="middle" x="65.0" y="175.0">Pre-Norm</text><line stroke="#333333" stroke-width="1.5" x1="65" x2="65" y1="166" y2="160" /><rect fill="#f2f4c1" height="18" rx="5" ry="5" stroke="#333333" stroke-width="1.5" width="100" x="135.0" y="187.0" /><text dy="0.35em" fill="#1F2937" font-family="Inter, Segoe UI, Helvetica, Arial, sans-serif" font-size="11px" text-anchor="middle" x="185.0" y="196.0">Pre-Norm</text><line marker-end="url(#arrowhead_333333)" stroke="#333333" stroke-width="1.5" x1="185" x2="185" y1="187.0" y2="172" /><line stroke="#333333" stroke-width="1.5" x1="280" x2="280" y1="133" y2="211.0" /><line stroke="#333333" stroke-width="1.5" x1="65" x2="280" y1="211.0" y2="211.0" /><line stroke="#333333" stroke-width="1.5" x1="65" x2="65" y1="211.0" y2="184" /><line stroke="#333333" stroke-width="1.5" x1="185" x2="185" y1="211.0" y2="205.0" /><rect fill="none" height="108.0" rx="6" stroke="#999" stroke-width="1.5" width="290.0" x="5.0" y="113" /><text dy="0.35em" fill="#666666" font-family="Inter, Segoe UI, Helvetica, Arial, sans-serif" font-size="14px" text-anchor="start" x="301.0" y="167.0">N×</text><line stroke="#333333" stroke-width="1.5" x1="280" x2="280" y1="211.0" y2="229.0" /><circle cx="280" cy="229.0" fill="white" r="5" stroke="#333333" stroke-width="1.5" /><text dy="0.3em" fill="#333333" font-family="Inter, Segoe UI, Helvetica, Arial, sans-serif" font-size="14px" text-anchor="middle" x="280" y="229.0">+</text><text dy="0.35em" fill="#333333" font-family="Inter, Segoe UI, Helvetica, Arial, sans-serif" font-size="11px" text-anchor="start" x="340" y="223.0">Positional</text><text dy="0.35em" fill="#333333" font-family="Inter, Segoe UI, Helvetica, Arial, sans-serif" font-size="11px" text-anchor="start" x="340" y="239.0">Encoding</text><path d="M336,229.0 q-8,-8 -16,0 q-8,8 -16,0" fill="none" stroke="#333333" stroke-width="1.2" /><line marker-end="url(#arrowhead_333333)" stroke="#333333" stroke-width="1.5" x1="300" x2="287" y1="229.0" y2="229.0" /><line marker-end="url(#arrowhead_333333)" stroke="#333333" stroke-width="1.5" x1="280" x2="280" y1="246.0" y2="234.0" /><rect fill="#fce0e1" height="26" rx="5" ry="5" stroke="#333333" stroke-width="1.5" width="100" x="230.0" y="246.0" /><text dy="0.35em" fill="#1F2937" font-family="Inter, Segoe UI, Helvetica, Arial, sans-serif" font-size="11px" text-anchor="middle" x="280.0" y="259.0">Input Embedding</text><line marker-end="url(#arrowhead_333333)" stroke="#333333" stroke-width="1.5" x1="280" x2="280" y1="284.0" y2="272.0" /><text dy="0.35em" fill="#1F2937" font-family="Inter, Segoe UI, Helvetica, Arial, sans-serif" font-size="14px" text-anchor="middle" x="280" y="290.0">Inputs</text></svg>