<?xml version="1.0" encoding="utf-8" ?>
<svg baseProfile="full" height="714px" version="1.1" viewBox="0 0 366 714" width="366px" xmlns="http://www.w3.org/2000/svg" xmlns:ev="http://www.w3.org/2001/xml-events" xmlns:xlink="http://www.w3.org/1999/xlink"><defs><marker id="arrowhead" markerHeight="4" markerWidth="4" orient="auto" refX="4" refY="2.0"><polygon fill="#374151" points="0,0 4,2.0 0,4" /></marker><marker id="arrowhead_333333" markerHeight="4" markerWidth="4" orient="auto" refX="4" refY="2.0"><polygon fill="#333333" points="0,0 4,2.0 0,4" /></marker><marker id="arrowhead_F97316" markerHeight="4" markerWidth="4" orient="auto" refX="4" refY="2.0"><polygon fill="#F97316" points="0,0 4,2.0 0,4" /></marker></defs><line marker-end="url(#arrowhead_333333)" stroke="#333333" stroke-width="1.5" x1="181.0" x2="181.0" y1="34.0" y2="20" /><g><rect fill="#F3F4F6" height="24" stroke="none" width="80" x="141.0" y="34.0" /><line stroke="#1E40AF" stroke-width="1.5" x1="141.0" x2="221.0" y1="34.0" y2="34.0" /><line stroke="#1E40AF" stroke-width="1.5" x1="141.0" x2="221.0" y1="58.0" y2="58.0" /><line stroke="#DC2626" stroke-width="1.5" x1="141.0" x2="141.0" y1="34.0" y2="58.0" /><line stroke="#DC2626" stroke-width="1.5" x1="221.0" x2="221.0" y1="34.0" y2="58.0" /><text dy="0.35em" fill="#1F2937" font-family="Inter, Segoe UI, Helvetica, Arial, sans-serif" font-size="8px" text-anchor="middle" x="181.0" y="46.0">Output 79</text></g><text dy="0.35em" font-family="Inter, Segoe UI, Helvetica, Arial, sans-serif" font-size="11px" font-style="italic" text-anchor="start" x="227.0" y="46.0"><tspan fill="#6B7280">(</tspan><tspan fill="#DC2626">S</tspan><tspan fill="#6B7280">,</tspan><tspan fill="#6B7280"> </tspan><tspan fill="#1E40AF">D</tspan><tspan fill="#6B7280">)</tspan></text><line marker-end="url(#arrowhead_333333)" stroke="#333333" stroke-width="1.5" x1="181.0" x2="181.0" y1="72" y2="58.0" /><rect fill="#F8F9FA" height="100" rx="8" ry="8" stroke="#333333" stroke-width="1.5" width="230" x="66.0" y="528" /><text dy="0.35em" fill="#1F2937" font-family="Inter, Segoe UI, Helvetica, Arial, sans-serif" font-size="11px" text-anchor="end" x="58.0" y="578.0">GPU 0</text><rect fill="#DBEAFE" height="24" rx="4" ry="4" stroke="#333333" stroke-width="1.5" width="200" x="81.0" y="538.0" /><text dy="0.35em" fill="#1F2937" font-family="Inter, Segoe UI, Helvetica, Arial, sans-serif" font-size="11px" text-anchor="middle" x="181.0" y="550.0">Layer 19</text><text dy="0.35em" fill="#6B7280" font-family="Inter, Segoe UI, Helvetica, Arial, sans-serif" font-size="14px" text-anchor="middle" x="181.0" y="578.0">...</text><rect fill="#DBEAFE" height="24" rx="4" ry="4" stroke="#333333" stroke-width="1.5" width="200" x="81.0" y="594.0" /><text dy="0.35em" fill="#1F2937" font-family="Inter, Segoe UI, Helvetica, Arial, sans-serif" font-size="11px" text-anchor="middle" x="181.0" y="606.0">Layer 0</text><line marker-end="url(#arrowhead_F97316)" stroke="#F97316" stroke-width="1.5" x1="181.0" x2="181.0" y1="528" y2="514.0" /><rect fill="#F8F9FA" height="100" rx="8" ry="8" stroke="#333333" stroke-width="1.5" width="230" x="66.0" y="376" /><text dy="0.35em" fill="#1F2937" font-family="Inter, Segoe UI, Helvetica, Arial, sans-serif" font-size="11px" text-anchor="end" x="58.0" y="426.0">GPU 1</text><rect fill="#DBEAFE" height="24" rx="4" ry="4" stroke="#333333" stroke-width="1.5" width="200" x="81.0" y="386.0" /><text dy="0.35em" fill="#1F2937" font-family="Inter, Segoe UI, Helvetica, Arial, sans-serif" font-size="11px" text-anchor="middle" x="181.0" y="398.0">Layer 39</text><text dy="0.35em" fill="#6B7280" font-family="Inter, Segoe UI, Helvetica, Arial, sans-serif" font-size="14px" text-anchor="middle" x="181.0" y="426.0">...</text><rect fill="#DBEAFE" height="24" rx="4" ry="4" stroke="#333333" stroke-width="1.5" width="200" x="81.0" y="442.0" /><text dy="0.35em" fill="#1F2937" font-family="Inter, Segoe UI, Helvetica, Arial, sans-serif" font-size="11px" text-anchor="middle" x="181.0" y="454.0">Layer 20</text><line marker-end="url(#arrowhead_F97316)" stroke="#F97316" stroke-width="1.5" x1="181.0" x2="181.0" y1="490.0" y2="476" /><g><rect fill="#F3F4F6" height="24" stroke="none" width="80" x="141.0" y="490.0" /><line stroke="#1E40AF" stroke-width="1.5" x1="141.0" x2="221.0" y1="490.0" y2="490.0" /><line stroke="#1E40AF" stroke-width="1.5" x1="141.0" x2="221.0" y1="514.0" y2="514.0" /><line stroke="#DC2626" stroke-width="1.5" x1="141.0" x2="141.0" y1="490.0" y2="514.0" /><line stroke="#DC2626" stroke-width="1.5" x1="221.0" x2="221.0" y1="490.0" y2="514.0" /></g><text dy="0.35em" font-family="Inter, Segoe UI, Helvetica, Arial, sans-serif" font-size="11px" font-style="italic" text-anchor="start" x="227.0" y="502.0"><tspan fill="#6B7280">(</tspan><tspan fill="#DC2626">S</tspan><tspan fill="#6B7280">,</tspan><tspan fill="#6B7280"> </tspan><tspan fill="#1E40AF">D</tspan><tspan fill="#6B7280">)</tspan></text><line marker-end="url(#arrowhead_F97316)" stroke="#F97316" stroke-width="1.5" x1="181.0" x2="181.0" y1="376" y2="362.0" /><rect fill="#F8F9FA" height="100" rx="8" ry="8" stroke="#333333" stroke-width="1.5" width="230" x="66.0" y="224" /><text dy="0.35em" fill="#1F2937" font-family="Inter, Segoe UI, Helvetica, Arial, sans-serif" font-size="11px" text-anchor="end" x="58.0" y="274.0">GPU 2</text><rect fill="#DBEAFE" height="24" rx="4" ry="4" stroke="#333333" stroke-width="1.5" width="200" x="81.0" y="234.0" /><text dy="0.35em" fill="#1F2937" font-family="Inter, Segoe UI, Helvetica, Arial, sans-serif" font-size="11px" text-anchor="middle" x="181.0" y="246.0">Layer 59</text><text dy="0.35em" fill="#6B7280" font-family="Inter, Segoe UI, Helvetica, Arial, sans-serif" font-size="14px" text-anchor="middle" x="181.0" y="274.0">...</text><rect fill="#DBEAFE" height="24" rx="4" ry="4" stroke="#333333" stroke-width="1.5" width="200" x="81.0" y="290.0" /><text dy="0.35em" fill="#1F2937" font-family="Inter, Segoe UI, Helvetica, Arial, sans-serif" font-size="11px" text-anchor="middle" x="181.0" y="302.0">Layer 40</text><line marker-end="url(#arrowhead_F97316)" stroke="#F97316" stroke-width="1.5" x1="181.0" x2="181.0" y1="338.0" y2="324" /><g><rect fill="#F3F4F6" height="24" stroke="none" width="80" x="141.0" y="338.0" /><line stroke="#1E40AF" stroke-width="1.5" x1="141.0" x2="221.0" y1="338.0" y2="338.0" /><line stroke="#1E40AF" stroke-width="1.5" x1="141.0" x2="221.0" y1="362.0" y2="362.0" /><line stroke="#DC2626" stroke-width="1.5" x1="141.0" x2="141.0" y1="338.0" y2="362.0" /><line stroke="#DC2626" stroke-width="1.5" x1="221.0" x2="221.0" y1="338.0" y2="362.0" /></g><text dy="0.35em" font-family="Inter, Segoe UI, Helvetica, Arial, sans-serif" font-size="11px" font-style="italic" text-anchor="start" x="227.0" y="350.0"><tspan fill="#6B7280">(</tspan><tspan fill="#DC2626">S</tspan><tspan fill="#6B7280">,</tspan><tspan fill="#6B7280"> </tspan><tspan fill="#1E40AF">D</tspan><tspan fill="#6B7280">)</tspan></text><line marker-end="url(#arrowhead_F97316)" stroke="#F97316" stroke-width="1.5" x1="181.0" x2="181.0" y1="224" y2="210.0" /><rect fill="#F8F9FA" height="100" rx="8" ry="8" stroke="#333333" stroke-width="1.5" width="230" x="66.0" y="72" /><text dy="0.35em" fill="#1F2937" font-family="Inter, Segoe UI, Helvetica, Arial, sans-serif" font-size="11px" text-anchor="end" x="58.0" y="122.0">GPU 3</text><rect fill="#DBEAFE" height="24" rx="4" ry="4" stroke="#333333" stroke-width="1.5" width="200" x="81.0" y="82.0" /><text dy="0.35em" fill="#1F2937" font-family="Inter, Segoe UI, Helvetica, Arial, sans-serif" font-size="11px" text-anchor="middle" x="181.0" y="94.0">Layer 79</text><text dy="0.35em" fill="#6B7280" font-family="Inter, Segoe UI, Helvetica, Arial, sans-serif" font-size="14px" text-anchor="middle" x="181.0" y="122.0">...</text><rect fill="#DBEAFE" height="24" rx="4" ry="4" stroke="#333333" stroke-width="1.5" width="200" x="81.0" y="138.0" /><text dy="0.35em" fill="#1F2937" font-family="Inter, Segoe UI, Helvetica, Arial, sans-serif" font-size="11px" text-anchor="middle" x="181.0" y="150.0">Layer 60</text><line marker-end="url(#arrowhead_F97316)" stroke="#F97316" stroke-width="1.5" x1="181.0" x2="181.0" y1="186.0" y2="172" /><g><rect fill="#F3F4F6" height="24" stroke="none" width="80" x="141.0" y="186.0" /><line stroke="#1E40AF" stroke-width="1.5" x1="141.0" x2="221.0" y1="186.0" y2="186.0" /><line stroke="#1E40AF" stroke-width="1.5" x1="141.0" x2="221.0" y1="210.0" y2="210.0" /><line stroke="#DC2626" stroke-width="1.5" x1="141.0" x2="141.0" y1="186.0" y2="210.0" /><line stroke="#DC2626" stroke-width="1.5" x1="221.0" x2="221.0" y1="186.0" y2="210.0" /></g><text dy="0.35em" font-family="Inter, Segoe UI, Helvetica, Arial, sans-serif" font-size="11px" font-style="italic" text-anchor="start" x="227.0" y="198.0"><tspan fill="#6B7280">(</tspan><tspan fill="#DC2626">S</tspan><tspan fill="#6B7280">,</tspan><tspan fill="#6B7280"> </tspan><tspan fill="#1E40AF">D</tspan><tspan fill="#6B7280">)</tspan></text><line marker-end="url(#arrowhead_333333)" stroke="#333333" stroke-width="1.5" x1="181.0" x2="181.0" y1="642.0" y2="628" /><g><rect fill="#F3F4F6" height="24" stroke="none" width="80" x="141.0" y="642.0" /><line stroke="#1E40AF" stroke-width="1.5" x1="141.0" x2="221.0" y1="642.0" y2="642.0" /><line stroke="#1E40AF" stroke-width="1.5" x1="141.0" x2="221.0" y1="666.0" y2="666.0" /><line stroke="#DC2626" stroke-width="1.5" x1="141.0" x2="141.0" y1="642.0" y2="666.0" /><line stroke="#DC2626" stroke-width="1.5" x1="221.0" x2="221.0" y1="642.0" y2="666.0" /><text dy="0.35em" fill="#1F2937" font-family="Inter, Segoe UI, Helvetica, Arial, sans-serif" font-size="8px" text-anchor="middle" x="181.0" y="654.0">Embeddings</text></g><text dy="0.35em" font-family="Inter, Segoe UI, Helvetica, Arial, sans-serif" font-size="11px" font-style="italic" text-anchor="start" x="227.0" y="654.0"><tspan fill="#6B7280">(</tspan><tspan fill="#DC2626">S</tspan><tspan fill="#6B7280">,</tspan><tspan fill="#6B7280"> </tspan><tspan fill="#1E40AF">D</tspan><tspan fill="#6B7280">)</tspan></text><line marker-end="url(#arrowhead_333333)" stroke="#333333" stroke-width="1.5" x1="181.0" x2="181.0" y1="680" y2="666.0" /></svg>