<?xml version="1.0" encoding="utf-8" ?>
<svg baseProfile="full" height="684px" version="1.1" viewBox="0 0 336 684" width="336px" xmlns="http://www.w3.org/2000/svg" xmlns:ev="http://www.w3.org/2001/xml-events" xmlns:xlink="http://www.w3.org/1999/xlink"><defs><marker id="arrowhead" markerHeight="4" markerWidth="4" orient="auto" refX="4" refY="2.0"><polygon fill="#374151" points="0,0 4,2.0 0,4" /></marker><marker id="arrowhead_333333" markerHeight="4" markerWidth="4" orient="auto" refX="4" refY="2.0"><polygon fill="#333333" points="0,0 4,2.0 0,4" /></marker><marker id="arrowhead_F97316" markerHeight="4" markerWidth="4" orient="auto" refX="4" refY="2.0"><polygon fill="#F97316" points="0,0 4,2.0 0,4" /></marker></defs><line marker-end="url(#arrowhead_333333)" stroke="#333333" stroke-width="1.5" x1="166.0" x2="166.0" y1="19.0" y2="5" /><g><rect fill="#F3F4F6" height="24" stroke="none" width="80" x="126.0" y="19.0" /><line stroke="#1E40AF" stroke-width="1.5" x1="126.0" x2="206.0" y1="19.0" y2="19.0" /><line stroke="#1E40AF" stroke-width="1.5" x1="126.0" x2="206.0" y1="43.0" y2="43.0" /><line stroke="#DC2626" stroke-width="1.5" x1="126.0" x2="126.0" y1="19.0" y2="43.0" /><line stroke="#DC2626" stroke-width="1.5" x1="206.0" x2="206.0" y1="19.0" y2="43.0" /><text dy="0.35em" fill="#1F2937" font-family="Inter, Segoe UI, Helvetica, Arial, sans-serif" font-size="8px" text-anchor="middle" x="166.0" y="31.0">Output 79</text></g><text dy="0.35em" font-family="Inter, Segoe UI, Helvetica, Arial, sans-serif" font-size="11px" font-style="italic" text-anchor="start" x="212.0" y="31.0"><tspan fill="#6B7280">(</tspan><tspan fill="#DC2626">S</tspan><tspan fill="#6B7280">,</tspan><tspan fill="#6B7280"> </tspan><tspan fill="#1E40AF">D</tspan><tspan fill="#6B7280">)</tspan></text><line marker-end="url(#arrowhead_333333)" stroke="#333333" stroke-width="1.5" x1="166.0" x2="166.0" y1="57" y2="43.0" /><rect fill="#E5E7EB" height="100" rx="8" ry="8" stroke="#333333" stroke-width="1.5" width="230" x="51.0" y="513" /><text dy="0.35em" fill="#1F2937" font-family="Inter, Segoe UI, Helvetica, Arial, sans-serif" font-size="11px" text-anchor="end" x="43.0" y="563.0">GPU 0</text><rect fill="#DBEAFE" height="24" rx="4" ry="4" stroke="#333333" stroke-width="1.5" width="200" x="66.0" y="523.0" /><text dy="0.35em" fill="#1F2937" font-family="Inter, Segoe UI, Helvetica, Arial, sans-serif" font-size="11px" text-anchor="middle" x="166.0" y="535.0">Layer 19</text><text dy="0.35em" fill="#6B7280" font-family="Inter, Segoe UI, Helvetica, Arial, sans-serif" font-size="14px" text-anchor="middle" x="166.0" y="563.0">...</text><rect fill="#DBEAFE" height="24" rx="4" ry="4" stroke="#333333" stroke-width="1.5" width="200" x="66.0" y="579.0" /><text dy="0.35em" fill="#1F2937" font-family="Inter, Segoe UI, Helvetica, Arial, sans-serif" font-size="11px" text-anchor="middle" x="166.0" y="591.0">Layer 0</text><line marker-end="url(#arrowhead_F97316)" stroke="#F97316" stroke-width="1.5" x1="166.0" x2="166.0" y1="513" y2="499.0" /><rect fill="#E5E7EB" height="100" rx="8" ry="8" stroke="#333333" stroke-width="1.5" width="230" x="51.0" y="361" /><text dy="0.35em" fill="#1F2937" font-family="Inter, Segoe UI, Helvetica, Arial, sans-serif" font-size="11px" text-anchor="end" x="43.0" y="411.0">GPU 1</text><rect fill="#DBEAFE" height="24" rx="4" ry="4" stroke="#333333" stroke-width="1.5" width="200" x="66.0" y="371.0" /><text dy="0.35em" fill="#1F2937" font-family="Inter, Segoe UI, Helvetica, Arial, sans-serif" font-size="11px" text-anchor="middle" x="166.0" y="383.0">Layer 39</text><text dy="0.35em" fill="#6B7280" font-family="Inter, Segoe UI, Helvetica, Arial, sans-serif" font-size="14px" text-anchor="middle" x="166.0" y="411.0">...</text><rect fill="#DBEAFE" height="24" rx="4" ry="4" stroke="#333333" stroke-width="1.5" width="200" x="66.0" y="427.0" /><text dy="0.35em" fill="#1F2937" font-family="Inter, Segoe UI, Helvetica, Arial, sans-serif" font-size="11px" text-anchor="middle" x="166.0" y="439.0">Layer 20</text><line marker-end="url(#arrowhead_F97316)" stroke="#F97316" stroke-width="1.5" x1="166.0" x2="166.0" y1="475.0" y2="461" /><g><rect fill="#F3F4F6" height="24" stroke="none" width="80" x="126.0" y="475.0" /><line stroke="#1E40AF" stroke-width="1.5" x1="126.0" x2="206.0" y1="475.0" y2="475.0" /><line stroke="#1E40AF" stroke-width="1.5" x1="126.0" x2="206.0" y1="499.0" y2="499.0" /><line stroke="#DC2626" stroke-width="1.5" x1="126.0" x2="126.0" y1="475.0" y2="499.0" /><line stroke="#DC2626" stroke-width="1.5" x1="206.0" x2="206.0" y1="475.0" y2="499.0" /></g><text dy="0.35em" font-family="Inter, Segoe UI, Helvetica, Arial, sans-serif" font-size="11px" font-style="italic" text-anchor="start" x="212.0" y="487.0"><tspan fill="#6B7280">(</tspan><tspan fill="#DC2626">S</tspan><tspan fill="#6B7280">,</tspan><tspan fill="#6B7280"> </tspan><tspan fill="#1E40AF">D</tspan><tspan fill="#6B7280">)</tspan></text><line marker-end="url(#arrowhead_F97316)" stroke="#F97316" stroke-width="1.5" x1="166.0" x2="166.0" y1="361" y2="347.0" /><rect fill="#E5E7EB" height="100" rx="8" ry="8" stroke="#333333" stroke-width="1.5" width="230" x="51.0" y="209" /><text dy="0.35em" fill="#1F2937" font-family="Inter, Segoe UI, Helvetica, Arial, sans-serif" font-size="11px" text-anchor="end" x="43.0" y="259.0">GPU 2</text><rect fill="#DBEAFE" height="24" rx="4" ry="4" stroke="#333333" stroke-width="1.5" width="200" x="66.0" y="219.0" /><text dy="0.35em" fill="#1F2937" font-family="Inter, Segoe UI, Helvetica, Arial, sans-serif" font-size="11px" text-anchor="middle" x="166.0" y="231.0">Layer 59</text><text dy="0.35em" fill="#6B7280" font-family="Inter, Segoe UI, Helvetica, Arial, sans-serif" font-size="14px" text-anchor="middle" x="166.0" y="259.0">...</text><rect fill="#DBEAFE" height="24" rx="4" ry="4" stroke="#333333" stroke-width="1.5" width="200" x="66.0" y="275.0" /><text dy="0.35em" fill="#1F2937" font-family="Inter, Segoe UI, Helvetica, Arial, sans-serif" font-size="11px" text-anchor="middle" x="166.0" y="287.0">Layer 40</text><line marker-end="url(#arrowhead_F97316)" stroke="#F97316" stroke-width="1.5" x1="166.0" x2="166.0" y1="323.0" y2="309" /><g><rect fill="#F3F4F6" height="24" stroke="none" width="80" x="126.0" y="323.0" /><line stroke="#1E40AF" stroke-width="1.5" x1="126.0" x2="206.0" y1="323.0" y2="323.0" /><line stroke="#1E40AF" stroke-width="1.5" x1="126.0" x2="206.0" y1="347.0" y2="347.0" /><line stroke="#DC2626" stroke-width="1.5" x1="126.0" x2="126.0" y1="323.0" y2="347.0" /><line stroke="#DC2626" stroke-width="1.5" x1="206.0" x2="206.0" y1="323.0" y2="347.0" /></g><text dy="0.35em" font-family="Inter, Segoe UI, Helvetica, Arial, sans-serif" font-size="11px" font-style="italic" text-anchor="start" x="212.0" y="335.0"><tspan fill="#6B7280">(</tspan><tspan fill="#DC2626">S</tspan><tspan fill="#6B7280">,</tspan><tspan fill="#6B7280"> </tspan><tspan fill="#1E40AF">D</tspan><tspan fill="#6B7280">)</tspan></text><line marker-end="url(#arrowhead_F97316)" stroke="#F97316" stroke-width="1.5" x1="166.0" x2="166.0" y1="209" y2="195.0" /><rect fill="#E5E7EB" height="100" rx="8" ry="8" stroke="#333333" stroke-width="1.5" width="230" x="51.0" y="57" /><text dy="0.35em" fill="#1F2937" font-family="Inter, Segoe UI, Helvetica, Arial, sans-serif" font-size="11px" text-anchor="end" x="43.0" y="107.0">GPU 3</text><rect fill="#DBEAFE" height="24" rx="4" ry="4" stroke="#333333" stroke-width="1.5" width="200" x="66.0" y="67.0" /><text dy="0.35em" fill="#1F2937" font-family="Inter, Segoe UI, Helvetica, Arial, sans-serif" font-size="11px" text-anchor="middle" x="166.0" y="79.0">Layer 79</text><text dy="0.35em" fill="#6B7280" font-family="Inter, Segoe UI, Helvetica, Arial, sans-serif" font-size="14px" text-anchor="middle" x="166.0" y="107.0">...</text><rect fill="#DBEAFE" height="24" rx="4" ry="4" stroke="#333333" stroke-width="1.5" width="200" x="66.0" y="123.0" /><text dy="0.35em" fill="#1F2937" font-family="Inter, Segoe UI, Helvetica, Arial, sans-serif" font-size="11px" text-anchor="middle" x="166.0" y="135.0">Layer 60</text><line marker-end="url(#arrowhead_F97316)" stroke="#F97316" stroke-width="1.5" x1="166.0" x2="166.0" y1="171.0" y2="157" /><g><rect fill="#F3F4F6" height="24" stroke="none" width="80" x="126.0" y="171.0" /><line stroke="#1E40AF" stroke-width="1.5" x1="126.0" x2="206.0" y1="171.0" y2="171.0" /><line stroke="#1E40AF" stroke-width="1.5" x1="126.0" x2="206.0" y1="195.0" y2="195.0" /><line stroke="#DC2626" stroke-width="1.5" x1="126.0" x2="126.0" y1="171.0" y2="195.0" /><line stroke="#DC2626" stroke-width="1.5" x1="206.0" x2="206.0" y1="171.0" y2="195.0" /></g><text dy="0.35em" font-family="Inter, Segoe UI, Helvetica, Arial, sans-serif" font-size="11px" font-style="italic" text-anchor="start" x="212.0" y="183.0"><tspan fill="#6B7280">(</tspan><tspan fill="#DC2626">S</tspan><tspan fill="#6B7280">,</tspan><tspan fill="#6B7280"> </tspan><tspan fill="#1E40AF">D</tspan><tspan fill="#6B7280">)</tspan></text><line marker-end="url(#arrowhead_333333)" stroke="#333333" stroke-width="1.5" x1="166.0" x2="166.0" y1="627.0" y2="613" /><g><rect fill="#F3F4F6" height="24" stroke="none" width="80" x="126.0" y="627.0" /><line stroke="#1E40AF" stroke-width="1.5" x1="126.0" x2="206.0" y1="627.0" y2="627.0" /><line stroke="#1E40AF" stroke-width="1.5" x1="126.0" x2="206.0" y1="651.0" y2="651.0" /><line stroke="#DC2626" stroke-width="1.5" x1="126.0" x2="126.0" y1="627.0" y2="651.0" /><line stroke="#DC2626" stroke-width="1.5" x1="206.0" x2="206.0" y1="627.0" y2="651.0" /><text dy="0.35em" fill="#1F2937" font-family="Inter, Segoe UI, Helvetica, Arial, sans-serif" font-size="8px" text-anchor="middle" x="166.0" y="639.0">Embeddings</text></g><text dy="0.35em" font-family="Inter, Segoe UI, Helvetica, Arial, sans-serif" font-size="11px" font-style="italic" text-anchor="start" x="212.0" y="639.0"><tspan fill="#6B7280">(</tspan><tspan fill="#DC2626">S</tspan><tspan fill="#6B7280">,</tspan><tspan fill="#6B7280"> </tspan><tspan fill="#1E40AF">D</tspan><tspan fill="#6B7280">)</tspan></text><line marker-end="url(#arrowhead_333333)" stroke="#333333" stroke-width="1.5" x1="166.0" x2="166.0" y1="665" y2="651.0" /></svg>