<?xml version="1.0" encoding="utf-8" ?>
<svg baseProfile="full" height="288px" version="1.1" viewBox="0 0 509 288" width="509px" xmlns="http://www.w3.org/2000/svg" xmlns:ev="http://www.w3.org/2001/xml-events" xmlns:xlink="http://www.w3.org/1999/xlink"><defs><marker id="arrowhead" markerHeight="4" markerWidth="4" orient="auto" refX="4" refY="2.0"><polygon fill="#374151" points="0,0 4,2.0 0,4" /></marker></defs><rect fill="#FFFFFF" height="14" rx="2" ry="2" stroke="#333333" stroke-width="1.0" width="14" x="247.7" y="5" /><line stroke="#333333" stroke-width="1.2" x1="254.7" x2="254.7" y1="19" y2="31" /><line stroke="#333333" stroke-width="1.2" x1="254.7" x2="254.7" y1="72" y2="88.0" /><line stroke="#333333" stroke-width="1.2" x1="45.199999999999996" x2="369.79999999999995" y1="88.0" y2="88.0" /><rect fill="#333333" height="7" rx="1" ry="1" stroke="none" width="7" x="251.2" y="84.5" /><line stroke="#DC2626" stroke-width="1.2" x1="45.199999999999996" x2="45.199999999999996" y1="88.0" y2="104" /><line stroke="#2563EB" stroke-width="1.2" x1="160.29999999999998" x2="160.29999999999998" y1="88.0" y2="104" /><line stroke="#D97706" stroke-width="1.2" x1="369.79999999999995" x2="369.79999999999995" y1="88.0" y2="104" /><line stroke="#2563EB" stroke-width="1.2" x1="160.29999999999998" x2="160.29999999999998" y1="158" y2="174.0" /><rect fill="#2563EB" height="7" rx="1" ry="1" stroke="none" width="7" x="156.79999999999998" y="170.5" /><line stroke="#60A5FA" stroke-width="1.2" x1="160.29999999999998" x2="160.29999999999998" y1="174.0" y2="190" /><line stroke="#D97706" stroke-width="1.2" x1="369.79999999999995" x2="369.79999999999995" y1="197" y2="213.0" /><line stroke="#D97706" stroke-width="1.2" x1="275.4" x2="464.19999999999993" y1="213.0" y2="213.0" /><rect fill="#D97706" height="7" rx="1" ry="1" stroke="none" width="7" x="366.29999999999995" y="209.5" /><line stroke="#EAB308" stroke-width="1.2" x1="275.4" x2="275.4" y1="213.0" y2="229" /><line stroke="#EA580C" stroke-width="1.2" x1="369.79999999999995" x2="369.79999999999995" y1="213.0" y2="229" /><line stroke="#92400E" stroke-width="1.2" x1="464.19999999999993" x2="464.19999999999993" y1="213.0" y2="229" /><rect fill="#F3F4F6" height="41" rx="5" ry="5" stroke="#333333" stroke-width="1.0" width="158.6" x="175.39999999999998" y="31" /><text fill="#1F2937" font-family="Inter, Segoe UI, Helvetica, Arial, sans-serif" font-size="8.5px" x="183.39999999999998" y="45.1">You are a helpful assistant ...</text><rect fill="#FFFFFF" height="14" rx="2" ry="2" stroke="#333333" stroke-width="0.7" width="142.6" x="183.39999999999998" y="53" /><line stroke="#6B7280" stroke-width="0.5" x1="201.22499999999997" x2="201.22499999999997" y1="54" y2="66" /><line stroke="#6B7280" stroke-width="0.5" x1="219.04999999999998" x2="219.04999999999998" y1="54" y2="66" /><line stroke="#6B7280" stroke-width="0.5" x1="236.87499999999997" x2="236.87499999999997" y1="54" y2="66" /><line stroke="#6B7280" stroke-width="0.5" x1="254.7" x2="254.7" y1="54" y2="66" /><line stroke="#6B7280" stroke-width="0.5" x1="272.525" x2="272.525" y1="54" y2="66" /><line stroke="#6B7280" stroke-width="0.5" x1="290.34999999999997" x2="290.34999999999997" y1="54" y2="66" /><line stroke="#6B7280" stroke-width="0.5" x1="308.17499999999995" x2="308.17499999999995" y1="54" y2="66" /><text dy="0.35em" fill="#6B7280" font-family="Inter, Segoe UI, Helvetica, Arial, sans-serif" font-size="7px" text-anchor="middle" x="254.7" y="60.0">0 - 1999</text><rect fill="#FEE2E2" height="54" rx="5" ry="5" stroke="#DC2626" stroke-width="1.0" width="80.39999999999999" x="5.0" y="104" /><text fill="#1F2937" font-family="Inter, Segoe UI, Helvetica, Arial, sans-serif" font-size="8.5px" x="13.0" y="118.1">User: Hello!</text><text fill="#1F2937" font-family="Inter, Segoe UI, Helvetica, Arial, sans-serif" font-size="8.5px" x="13.0" y="131.1">Assistant: Hi!</text><rect fill="#FFFFFF" height="14" rx="2" ry="2" stroke="#DC2626" stroke-width="0.7" width="64.39999999999999" x="13.0" y="139" /><line stroke="#6B7280" stroke-width="0.5" x1="45.199999999999996" x2="45.199999999999996" y1="140" y2="152" /><text dy="0.35em" fill="#6B7280" font-family="Inter, Segoe UI, Helvetica, Arial, sans-serif" font-size="7px" text-anchor="middle" x="45.199999999999996" y="146.0">2000 - 2049</text><rect fill="#DBEAFE" height="54" rx="5" ry="5" stroke="#2563EB" stroke-width="1.0" width="117.19999999999999" x="101.69999999999999" y="104" /><text fill="#1F2937" font-family="Inter, Segoe UI, Helvetica, Arial, sans-serif" font-size="8.5px" x="109.69999999999999" y="118.1">User: What can you do?</text><text fill="#1F2937" font-family="Inter, Segoe UI, Helvetica, Arial, sans-serif" font-size="8.5px" x="109.69999999999999" y="131.1">Assistant: I can ...</text><rect fill="#FFFFFF" height="14" rx="2" ry="2" stroke="#2563EB" stroke-width="0.7" width="101.19999999999999" x="109.69999999999999" y="139" /><line stroke="#6B7280" stroke-width="0.5" x1="143.4333333333333" x2="143.4333333333333" y1="140" y2="152" /><line stroke="#6B7280" stroke-width="0.5" x1="177.16666666666663" x2="177.16666666666663" y1="140" y2="152" /><text dy="0.35em" fill="#6B7280" font-family="Inter, Segoe UI, Helvetica, Arial, sans-serif" font-size="7px" text-anchor="middle" x="160.29999999999998" y="146.0">2000 - 2119</text><rect fill="#EFF6FF" height="54" rx="5" ry="5" stroke="#60A5FA" stroke-width="1.0" width="121.8" x="99.39999999999999" y="190" /><text fill="#1F2937" font-family="Inter, Segoe UI, Helvetica, Arial, sans-serif" font-size="8.5px" x="107.39999999999999" y="204.1">User: Write a story ...</text><text fill="#1F2937" font-family="Inter, Segoe UI, Helvetica, Arial, sans-serif" font-size="8.5px" x="107.39999999999999" y="217.1">Assistant: Sure! ...</text><rect fill="#FFFFFF" height="14" rx="2" ry="2" stroke="#60A5FA" stroke-width="0.7" width="105.8" x="107.39999999999999" y="225" /><line stroke="#6B7280" stroke-width="0.5" x1="142.66666666666666" x2="142.66666666666666" y1="226" y2="238" /><line stroke="#6B7280" stroke-width="0.5" x1="177.93333333333334" x2="177.93333333333334" y1="226" y2="238" /><text dy="0.35em" fill="#6B7280" font-family="Inter, Segoe UI, Helvetica, Arial, sans-serif" font-size="7px" text-anchor="middle" x="160.29999999999998" y="232.0">2120 - 2259</text><rect fill="#FEF3C7" height="93" rx="5" ry="5" stroke="#D97706" stroke-width="1.0" width="85.0" x="327.29999999999995" y="104" /><text fill="#1F2937" font-family="Inter, Segoe UI, Helvetica, Arial, sans-serif" font-size="8.5px" x="335.29999999999995" y="118.1">Question 1: ...</text><text fill="#1F2937" font-family="Inter, Segoe UI, Helvetica, Arial, sans-serif" font-size="8.5px" x="335.29999999999995" y="131.1">Answer 1: ...</text><text fill="#1F2937" font-family="Inter, Segoe UI, Helvetica, Arial, sans-serif" font-size="8.5px" x="335.29999999999995" y="144.1">Question 2: ...</text><text fill="#1F2937" font-family="Inter, Segoe UI, Helvetica, Arial, sans-serif" font-size="8.5px" x="335.29999999999995" y="157.1">Answer 2: ...</text><text fill="#1F2937" font-family="Inter, Segoe UI, Helvetica, Arial, sans-serif" font-size="8.5px" x="335.29999999999995" y="170.1">Question 3:</text><rect fill="#FFFFFF" height="14" rx="2" ry="2" stroke="#D97706" stroke-width="0.7" width="69.0" x="335.29999999999995" y="178" /><line stroke="#6B7280" stroke-width="0.5" x1="349.09999999999997" x2="349.09999999999997" y1="179" y2="191" /><line stroke="#6B7280" stroke-width="0.5" x1="362.9" x2="362.9" y1="179" y2="191" /><line stroke="#6B7280" stroke-width="0.5" x1="376.69999999999993" x2="376.69999999999993" y1="179" y2="191" /><line stroke="#6B7280" stroke-width="0.5" x1="390.49999999999994" x2="390.49999999999994" y1="179" y2="191" /><text dy="0.35em" fill="#6B7280" font-family="Inter, Segoe UI, Helvetica, Arial, sans-serif" font-size="7px" text-anchor="middle" x="369.79999999999995" y="185.0">2000 - 2499</text><rect fill="#FEF9C3" height="54" rx="5" ry="5" stroke="#EAB308" stroke-width="1.0" width="80.39999999999999" x="235.2" y="229" /><text fill="#1F2937" font-family="Inter, Segoe UI, Helvetica, Arial, sans-serif" font-size="8.5px" x="243.2" y="243.1">What ...</text><text fill="#1F2937" font-family="Inter, Segoe UI, Helvetica, Arial, sans-serif" font-size="8.5px" x="243.2" y="256.1">Answer 4a: ...</text><rect fill="#FFFFFF" height="14" rx="2" ry="2" stroke="#EAB308" stroke-width="0.7" width="64.39999999999999" x="243.2" y="264" /><line stroke="#6B7280" stroke-width="0.5" x1="275.4" x2="275.4" y1="265" y2="277" /><text dy="0.35em" fill="#6B7280" font-family="Inter, Segoe UI, Helvetica, Arial, sans-serif" font-size="7px" text-anchor="middle" x="275.4" y="271.0">2500 - 2549</text><rect fill="#FFF7ED" height="54" rx="5" ry="5" stroke="#EA580C" stroke-width="1.0" width="80.39999999999999" x="329.59999999999997" y="229" /><text fill="#1F2937" font-family="Inter, Segoe UI, Helvetica, Arial, sans-serif" font-size="8.5px" x="337.59999999999997" y="243.1">When ...</text><text fill="#1F2937" font-family="Inter, Segoe UI, Helvetica, Arial, sans-serif" font-size="8.5px" x="337.59999999999997" y="256.1">Answer 4b: ...</text><rect fill="#FFFFFF" height="14" rx="2" ry="2" stroke="#EA580C" stroke-width="0.7" width="64.39999999999999" x="337.59999999999997" y="264" /><line stroke="#6B7280" stroke-width="0.5" x1="369.79999999999995" x2="369.79999999999995" y1="265" y2="277" /><text dy="0.35em" fill="#6B7280" font-family="Inter, Segoe UI, Helvetica, Arial, sans-serif" font-size="7px" text-anchor="middle" x="369.79999999999995" y="271.0">2500 - 2579</text><rect fill="#FDE68A" height="54" rx="5" ry="5" stroke="#92400E" stroke-width="1.0" width="80.39999999999999" x="423.99999999999994" y="229" /><text fill="#1F2937" font-family="Inter, Segoe UI, Helvetica, Arial, sans-serif" font-size="8.5px" x="431.99999999999994" y="243.1">How ...</text><text fill="#1F2937" font-family="Inter, Segoe UI, Helvetica, Arial, sans-serif" font-size="8.5px" x="431.99999999999994" y="256.1">Answer 4c: ...</text><rect fill="#FFFFFF" height="14" rx="2" ry="2" stroke="#92400E" stroke-width="0.7" width="64.39999999999999" x="431.99999999999994" y="264" /><line stroke="#6B7280" stroke-width="0.5" x1="464.19999999999993" x2="464.19999999999993" y1="265" y2="277" /><text dy="0.35em" fill="#6B7280" font-family="Inter, Segoe UI, Helvetica, Arial, sans-serif" font-size="7px" text-anchor="middle" x="464.19999999999993" y="271.0">2500 - 2559</text></svg>