<?xml version="1.0" encoding="utf-8" ?>
<svg baseProfile="full" height="292px" version="1.1" viewBox="0 0 578 292" width="578px" xmlns="http://www.w3.org/2000/svg" xmlns:ev="http://www.w3.org/2001/xml-events" xmlns:xlink="http://www.w3.org/1999/xlink"><defs><marker id="arrowhead" markerHeight="4" markerWidth="4" orient="auto" refX="4" refY="2.0"><polygon fill="#374151" points="0,0 4,2.0 0,4" /></marker></defs><rect fill="#F8F9FA" height="103" rx="6" ry="6" stroke="none" width="584" x="-3" y="184" /><rect fill="#F8F9FA" height="173" rx="6" ry="6" stroke="none" width="584" x="-3" y="-3" /><text dy="0.35em" fill="#1F2937" font-family="Inter, Segoe UI, Helvetica, Arial, sans-serif" font-size="13px" font-weight="bold" text-anchor="start" x="75" y="17.0">Padded batch</text><text dy="0.35em" fill="#1565A0" font-family="Inter, Segoe UI, Helvetica, Arial, sans-serif" font-size="11px" text-anchor="end" x="69" y="49.0">Request A</text><rect fill="#DBEAFE" height="32" rx="3" ry="3" stroke="#3B82F6" stroke-width="1.0" width="36" x="75" y="33" /><text dy="0.35em" fill="#1565A0" font-family="Inter, Segoe UI, Helvetica, Arial, sans-serif" font-size="11px" text-anchor="middle" x="93.0" y="49.0">A</text><rect fill="#DBEAFE" height="32" rx="3" ry="3" stroke="#3B82F6" stroke-width="1.0" width="36" x="117" y="33" /><text dy="0.35em" fill="#1565A0" font-family="Inter, Segoe UI, Helvetica, Arial, sans-serif" font-size="11px" text-anchor="middle" x="135.0" y="49.0">A</text><rect fill="#DBEAFE" height="32" rx="3" ry="3" stroke="#3B82F6" stroke-width="1.0" width="36" x="159" y="33" /><text dy="0.35em" fill="#1565A0" font-family="Inter, Segoe UI, Helvetica, Arial, sans-serif" font-size="11px" text-anchor="middle" x="177.0" y="49.0">A</text><rect fill="#F3F4F6" height="32" rx="3" ry="3" stroke="#6B7280" stroke-width="1.0" width="36" x="201" y="33" /><text dy="0.35em" fill="#9CA3AF" font-family="Inter, Segoe UI, Helvetica, Arial, sans-serif" font-size="11px" text-anchor="middle" x="219.0" y="49.0">Pad</text><rect fill="#F3F4F6" height="32" rx="3" ry="3" stroke="#6B7280" stroke-width="1.0" width="36" x="243" y="33" /><text dy="0.35em" fill="#9CA3AF" font-family="Inter, Segoe UI, Helvetica, Arial, sans-serif" font-size="11px" text-anchor="middle" x="261.0" y="49.0">Pad</text><rect fill="#F3F4F6" height="32" rx="3" ry="3" stroke="#6B7280" stroke-width="1.0" width="36" x="285" y="33" /><text dy="0.35em" fill="#9CA3AF" font-family="Inter, Segoe UI, Helvetica, Arial, sans-serif" font-size="11px" text-anchor="middle" x="303.0" y="49.0">Pad</text><rect fill="#F3F4F6" height="32" rx="3" ry="3" stroke="#6B7280" stroke-width="1.0" width="36" x="327" y="33" /><text dy="0.35em" fill="#9CA3AF" font-family="Inter, Segoe UI, Helvetica, Arial, sans-serif" font-size="11px" text-anchor="middle" x="345.0" y="49.0">Pad</text><text dy="0.35em" fill="#7C3AED" font-family="Inter, Segoe UI, Helvetica, Arial, sans-serif" font-size="11px" text-anchor="end" x="69" y="84.0">Request B</text><rect fill="#DBEAFE" height="32" rx="3" ry="3" stroke="#3B82F6" stroke-width="1.0" width="36" x="75" y="68" /><text dy="0.35em" fill="#7C3AED" font-family="Inter, Segoe UI, Helvetica, Arial, sans-serif" font-size="11px" text-anchor="middle" x="93.0" y="84.0">B</text><rect fill="#DBEAFE" height="32" rx="3" ry="3" stroke="#3B82F6" stroke-width="1.0" width="36" x="117" y="68" /><text dy="0.35em" fill="#7C3AED" font-family="Inter, Segoe UI, Helvetica, Arial, sans-serif" font-size="11px" text-anchor="middle" x="135.0" y="84.0">B</text><rect fill="#DBEAFE" height="32" rx="3" ry="3" stroke="#3B82F6" stroke-width="1.0" width="36" x="159" y="68" /><text dy="0.35em" fill="#7C3AED" font-family="Inter, Segoe UI, Helvetica, Arial, sans-serif" font-size="11px" text-anchor="middle" x="177.0" y="84.0">B</text><rect fill="#DBEAFE" height="32" rx="3" ry="3" stroke="#3B82F6" stroke-width="1.0" width="36" x="201" y="68" /><text dy="0.35em" fill="#7C3AED" font-family="Inter, Segoe UI, Helvetica, Arial, sans-serif" font-size="11px" text-anchor="middle" x="219.0" y="84.0">B</text><rect fill="#DBEAFE" height="32" rx="3" ry="3" stroke="#3B82F6" stroke-width="1.0" width="36" x="243" y="68" /><text dy="0.35em" fill="#7C3AED" font-family="Inter, Segoe UI, Helvetica, Arial, sans-serif" font-size="11px" text-anchor="middle" x="261.0" y="84.0">B</text><rect fill="#DBEAFE" height="32" rx="3" ry="3" stroke="#3B82F6" stroke-width="1.0" width="36" x="285" y="68" /><text dy="0.35em" fill="#7C3AED" font-family="Inter, Segoe UI, Helvetica, Arial, sans-serif" font-size="11px" text-anchor="middle" x="303.0" y="84.0">B</text><rect fill="#DBEAFE" height="32" rx="3" ry="3" stroke="#3B82F6" stroke-width="1.0" width="36" x="327" y="68" /><text dy="0.35em" fill="#7C3AED" font-family="Inter, Segoe UI, Helvetica, Arial, sans-serif" font-size="11px" text-anchor="middle" x="345.0" y="84.0">B</text><text dy="0.35em" fill="#D97706" font-family="Inter, Segoe UI, Helvetica, Arial, sans-serif" font-size="11px" text-anchor="end" x="69" y="119.0">Request C</text><rect fill="#DBEAFE" height="32" rx="3" ry="3" stroke="#3B82F6" stroke-width="1.0" width="36" x="75" y="103" /><text dy="0.35em" fill="#D97706" font-family="Inter, Segoe UI, Helvetica, Arial, sans-serif" font-size="11px" text-anchor="middle" x="93.0" y="119.0">C</text><rect fill="#DBEAFE" height="32" rx="3" ry="3" stroke="#3B82F6" stroke-width="1.0" width="36" x="117" y="103" /><text dy="0.35em" fill="#D97706" font-family="Inter, Segoe UI, Helvetica, Arial, sans-serif" font-size="11px" text-anchor="middle" x="135.0" y="119.0">C</text><rect fill="#F3F4F6" height="32" rx="3" ry="3" stroke="#6B7280" stroke-width="1.0" width="36" x="159" y="103" /><text dy="0.35em" fill="#9CA3AF" font-family="Inter, Segoe UI, Helvetica, Arial, sans-serif" font-size="11px" text-anchor="middle" x="177.0" y="119.0">Pad</text><rect fill="#F3F4F6" height="32" rx="3" ry="3" stroke="#6B7280" stroke-width="1.0" width="36" x="201" y="103" /><text dy="0.35em" fill="#9CA3AF" font-family="Inter, Segoe UI, Helvetica, Arial, sans-serif" font-size="11px" text-anchor="middle" x="219.0" y="119.0">Pad</text><rect fill="#F3F4F6" height="32" rx="3" ry="3" stroke="#6B7280" stroke-width="1.0" width="36" x="243" y="103" /><text dy="0.35em" fill="#9CA3AF" font-family="Inter, Segoe UI, Helvetica, Arial, sans-serif" font-size="11px" text-anchor="middle" x="261.0" y="119.0">Pad</text><rect fill="#F3F4F6" height="32" rx="3" ry="3" stroke="#6B7280" stroke-width="1.0" width="36" x="285" y="103" /><text dy="0.35em" fill="#9CA3AF" font-family="Inter, Segoe UI, Helvetica, Arial, sans-serif" font-size="11px" text-anchor="middle" x="303.0" y="119.0">Pad</text><rect fill="#F3F4F6" height="32" rx="3" ry="3" stroke="#6B7280" stroke-width="1.0" width="36" x="327" y="103" /><text dy="0.35em" fill="#9CA3AF" font-family="Inter, Segoe UI, Helvetica, Arial, sans-serif" font-size="11px" text-anchor="middle" x="345.0" y="119.0">Pad</text><text dy="0.35em" fill="#6B7280" font-family="Inter, Segoe UI, Helvetica, Arial, sans-serif" font-size="11px" font-style="italic" text-anchor="start" x="75" y="153">Shape: (3, 7, D)</text><text dy="0.35em" fill="#1F2937" font-family="Inter, Segoe UI, Helvetica, Arial, sans-serif" font-size="13px" font-weight="bold" text-anchor="start" x="75" y="204.0">Ragged batch (concatenated)</text><rect fill="#DBEAFE" height="32" rx="3" ry="3" stroke="#3B82F6" stroke-width="1.0" width="36" x="75" y="220" /><text dy="0.35em" fill="#1565A0" font-family="Inter, Segoe UI, Helvetica, Arial, sans-serif" font-size="11px" text-anchor="middle" x="93.0" y="236.0">A</text><rect fill="#DBEAFE" height="32" rx="3" ry="3" stroke="#3B82F6" stroke-width="1.0" width="36" x="117" y="220" /><text dy="0.35em" fill="#1565A0" font-family="Inter, Segoe UI, Helvetica, Arial, sans-serif" font-size="11px" text-anchor="middle" x="135.0" y="236.0">A</text><rect fill="#DBEAFE" height="32" rx="3" ry="3" stroke="#3B82F6" stroke-width="1.0" width="36" x="159" y="220" /><text dy="0.35em" fill="#1565A0" font-family="Inter, Segoe UI, Helvetica, Arial, sans-serif" font-size="11px" text-anchor="middle" x="177.0" y="236.0">A</text><rect fill="#DBEAFE" height="32" rx="3" ry="3" stroke="#3B82F6" stroke-width="1.0" width="36" x="201" y="220" /><text dy="0.35em" fill="#7C3AED" font-family="Inter, Segoe UI, Helvetica, Arial, sans-serif" font-size="11px" text-anchor="middle" x="219.0" y="236.0">B</text><rect fill="#DBEAFE" height="32" rx="3" ry="3" stroke="#3B82F6" stroke-width="1.0" width="36" x="243" y="220" /><text dy="0.35em" fill="#7C3AED" font-family="Inter, Segoe UI, Helvetica, Arial, sans-serif" font-size="11px" text-anchor="middle" x="261.0" y="236.0">B</text><rect fill="#DBEAFE" height="32" rx="3" ry="3" stroke="#3B82F6" stroke-width="1.0" width="36" x="285" y="220" /><text dy="0.35em" fill="#7C3AED" font-family="Inter, Segoe UI, Helvetica, Arial, sans-serif" font-size="11px" text-anchor="middle" x="303.0" y="236.0">B</text><rect fill="#DBEAFE" height="32" rx="3" ry="3" stroke="#3B82F6" stroke-width="1.0" width="36" x="327" y="220" /><text dy="0.35em" fill="#7C3AED" font-family="Inter, Segoe UI, Helvetica, Arial, sans-serif" font-size="11px" text-anchor="middle" x="345.0" y="236.0">B</text><rect fill="#DBEAFE" height="32" rx="3" ry="3" stroke="#3B82F6" stroke-width="1.0" width="36" x="369" y="220" /><text dy="0.35em" fill="#7C3AED" font-family="Inter, Segoe UI, Helvetica, Arial, sans-serif" font-size="11px" text-anchor="middle" x="387.0" y="236.0">B</text><rect fill="#DBEAFE" height="32" rx="3" ry="3" stroke="#3B82F6" stroke-width="1.0" width="36" x="411" y="220" /><text dy="0.35em" fill="#7C3AED" font-family="Inter, Segoe UI, Helvetica, Arial, sans-serif" font-size="11px" text-anchor="middle" x="429.0" y="236.0">B</text><rect fill="#DBEAFE" height="32" rx="3" ry="3" stroke="#3B82F6" stroke-width="1.0" width="36" x="453" y="220" /><text dy="0.35em" fill="#7C3AED" font-family="Inter, Segoe UI, Helvetica, Arial, sans-serif" font-size="11px" text-anchor="middle" x="471.0" y="236.0">B</text><rect fill="#DBEAFE" height="32" rx="3" ry="3" stroke="#3B82F6" stroke-width="1.0" width="36" x="495" y="220" /><text dy="0.35em" fill="#D97706" font-family="Inter, Segoe UI, Helvetica, Arial, sans-serif" font-size="11px" text-anchor="middle" x="513.0" y="236.0">C</text><rect fill="#DBEAFE" height="32" rx="3" ry="3" stroke="#3B82F6" stroke-width="1.0" width="36" x="537" y="220" /><text dy="0.35em" fill="#D97706" font-family="Inter, Segoe UI, Helvetica, Arial, sans-serif" font-size="11px" text-anchor="middle" x="555.0" y="236.0">C</text><line stroke="#6B7280" stroke-width="3.0" x1="198.0" x2="198.0" y1="219" y2="253" /><line stroke="#6B7280" stroke-width="3.0" x1="492.0" x2="492.0" y1="219" y2="253" /><text dy="0.35em" fill="#6B7280" font-family="Inter, Segoe UI, Helvetica, Arial, sans-serif" font-size="11px" font-style="italic" text-anchor="start" x="75" y="270">Shape: (1, 12, D)</text></svg>