<?xml version="1.0" encoding="utf-8" ?>
<svg baseProfile="full" height="336px" version="1.1" viewBox="0 0 900 336" width="900px" xmlns="http://www.w3.org/2000/svg" xmlns:ev="http://www.w3.org/2001/xml-events" xmlns:xlink="http://www.w3.org/1999/xlink"><defs><marker id="arrowhead" markerHeight="4" markerWidth="4" orient="auto" refX="4" refY="2.0"><polygon fill="#374151" points="0,0 4,2.0 0,4" /></marker><clipPath id="kv_clip_84_78"><rect height="36" rx="3" ry="3" width="36" x="84.0" y="78" /></clipPath><clipPath id="kv_clip_224_78"><rect height="36" rx="3" ry="3" width="36" x="224.0" y="78" /></clipPath><clipPath id="kv_clip_224_198"><rect height="36" rx="3" ry="3" width="36" x="224.0" y="198" /></clipPath><clipPath id="kv_clip_84_198"><rect height="36" rx="3" ry="3" width="36" x="84.0" y="198" /></clipPath><clipPath id="kv_clip_384_78"><rect height="36" rx="3" ry="3" width="36" x="384.0" y="78" /></clipPath><clipPath id="kv_clip_524_78"><rect height="36" rx="3" ry="3" width="36" x="524.0" y="78" /></clipPath><clipPath id="kv_clip_524_198"><rect height="36" rx="3" ry="3" width="36" x="524.0" y="198" /></clipPath><clipPath id="kv_clip_384_198"><rect height="36" rx="3" ry="3" width="36" x="384.0" y="198" /></clipPath><clipPath id="kv_clip_684_78"><rect height="36" rx="3" ry="3" width="36" x="684.0" y="78" /></clipPath><clipPath id="kv_clip_824_78"><rect height="36" rx="3" ry="3" width="36" x="824.0" y="78" /></clipPath><clipPath id="kv_clip_824_198"><rect height="36" rx="3" ry="3" width="36" x="824.0" y="198" /></clipPath><clipPath id="kv_clip_684_198"><rect height="36" rx="3" ry="3" width="36" x="684.0" y="198" /></clipPath></defs><rect fill="#F8F9FA" height="244" rx="6" ry="6" stroke="none" width="260" x="20" y="20" /><text dy="0.35em" fill="#1F2937" font-family="Inter, Segoe UI, Helvetica, Arial, sans-serif" font-size="12px" font-weight="bold" text-anchor="middle" x="150.0" y="42.0">Step 0 (initial)</text><rect fill="#E5E7EB" height="80" rx="4" ry="4" stroke="#6B7280" stroke-width="1.0" width="100" x="30" y="54" /><text dy="0.35em" fill="#1F2937" font-family="Inter, Segoe UI, Helvetica, Arial, sans-serif" font-size="10px" font-weight="bold" text-anchor="middle" x="80.0" y="63.0">GPU 0</text><rect fill="#EFF6FF" height="36" rx="3" ry="3" stroke="#6B7280" stroke-width="1.0" width="36" x="40.0" y="78" /><text dy="0.35em" fill="#1F2937" font-family="Inter, Segoe UI, Helvetica, Arial, sans-serif" font-size="9px" text-anchor="middle" x="58.0" y="124">Q0</text><g clip-path="url(#kv_clip_84_78)"><rect fill="#FFF8E1" height="18.0" width="36" x="84.0" y="78" /><rect fill="#FEE2E2" height="18.0" width="36" x="84.0" y="96.0" /></g><rect fill="none" height="36" rx="3" ry="3" stroke="#6B7280" stroke-width="1.0" width="36" x="84.0" y="78" /><text dy="0.35em" fill="#1F2937" font-family="Inter, Segoe UI, Helvetica, Arial, sans-serif" font-size="9px" text-anchor="middle" x="102.0" y="124">K0V0</text><rect fill="#E5E7EB" height="80" rx="4" ry="4" stroke="#6B7280" stroke-width="1.0" width="100" x="170" y="54" /><text dy="0.35em" fill="#1F2937" font-family="Inter, Segoe UI, Helvetica, Arial, sans-serif" font-size="10px" font-weight="bold" text-anchor="middle" x="220.0" y="63.0">GPU 1</text><rect fill="#EFF6FF" height="36" rx="3" ry="3" stroke="#6B7280" stroke-width="1.0" width="36" x="180.0" y="78" /><text dy="0.35em" fill="#1F2937" font-family="Inter, Segoe UI, Helvetica, Arial, sans-serif" font-size="9px" text-anchor="middle" x="198.0" y="124">Q1</text><g clip-path="url(#kv_clip_224_78)"><rect fill="#FFF8E1" height="18.0" width="36" x="224.0" y="78" /><rect fill="#FEE2E2" height="18.0" width="36" x="224.0" y="96.0" /></g><rect fill="none" height="36" rx="3" ry="3" stroke="#6B7280" stroke-width="1.0" width="36" x="224.0" y="78" /><text dy="0.35em" fill="#1F2937" font-family="Inter, Segoe UI, Helvetica, Arial, sans-serif" font-size="9px" text-anchor="middle" x="242.0" y="124">K1V1</text><rect fill="#E5E7EB" height="80" rx="4" ry="4" stroke="#6B7280" stroke-width="1.0" width="100" x="170" y="174" /><text dy="0.35em" fill="#1F2937" font-family="Inter, Segoe UI, Helvetica, Arial, sans-serif" font-size="10px" font-weight="bold" text-anchor="middle" x="220.0" y="183.0">GPU 2</text><rect fill="#EFF6FF" height="36" rx="3" ry="3" stroke="#6B7280" stroke-width="1.0" width="36" x="180.0" y="198" /><text dy="0.35em" fill="#1F2937" font-family="Inter, Segoe UI, Helvetica, Arial, sans-serif" font-size="9px" text-anchor="middle" x="198.0" y="244">Q2</text><g clip-path="url(#kv_clip_224_198)"><rect fill="#FFF8E1" height="18.0" width="36" x="224.0" y="198" /><rect fill="#FEE2E2" height="18.0" width="36" x="224.0" y="216.0" /></g><rect fill="none" height="36" rx="3" ry="3" stroke="#6B7280" stroke-width="1.0" width="36" x="224.0" y="198" /><text dy="0.35em" fill="#1F2937" font-family="Inter, Segoe UI, Helvetica, Arial, sans-serif" font-size="9px" text-anchor="middle" x="242.0" y="244">K2V2</text><rect fill="#E5E7EB" height="80" rx="4" ry="4" stroke="#6B7280" stroke-width="1.0" width="100" x="30" y="174" /><text dy="0.35em" fill="#1F2937" font-family="Inter, Segoe UI, Helvetica, Arial, sans-serif" font-size="10px" font-weight="bold" text-anchor="middle" x="80.0" y="183.0">GPU 3</text><rect fill="#EFF6FF" height="36" rx="3" ry="3" stroke="#6B7280" stroke-width="1.0" width="36" x="40.0" y="198" /><text dy="0.35em" fill="#1F2937" font-family="Inter, Segoe UI, Helvetica, Arial, sans-serif" font-size="9px" text-anchor="middle" x="58.0" y="244">Q3</text><g clip-path="url(#kv_clip_84_198)"><rect fill="#FFF8E1" height="18.0" width="36" x="84.0" y="198" /><rect fill="#FEE2E2" height="18.0" width="36" x="84.0" y="216.0" /></g><rect fill="none" height="36" rx="3" ry="3" stroke="#6B7280" stroke-width="1.0" width="36" x="84.0" y="198" /><text dy="0.35em" fill="#1F2937" font-family="Inter, Segoe UI, Helvetica, Arial, sans-serif" font-size="9px" text-anchor="middle" x="102.0" y="244">K3V3</text><path d="M 138.0,94.0 Q 150.0,84.0 162.0,94.0" fill="none" marker-end="url(#arrowhead)" stroke="#374151" stroke-width="1.5" /><path d="M 220.0,142.0 Q 230.0,154.0 220.0,166.0" fill="none" marker-end="url(#arrowhead)" stroke="#374151" stroke-width="1.5" /><path d="M 162.0,214.0 Q 150.0,224.0 138.0,214.0" fill="none" marker-end="url(#arrowhead)" stroke="#374151" stroke-width="1.5" /><path d="M 80.0,166.0 Q 70.0,154.0 80.0,142.0" fill="none" marker-end="url(#arrowhead)" stroke="#374151" stroke-width="1.5" /><text dy="0.35em" fill="#6B7280" font-family="Inter, Segoe UI, Helvetica, Arial, sans-serif" font-size="10px" text-anchor="middle" x="150.0" y="274">Q chunks pinned to each GPU,</text><text dy="0.35em" fill="#6B7280" font-family="Inter, Segoe UI, Helvetica, Arial, sans-serif" font-size="10px" text-anchor="middle" x="150.0" y="288">never move. Each GPU starts</text><text dy="0.35em" fill="#6B7280" font-family="Inter, Segoe UI, Helvetica, Arial, sans-serif" font-size="10px" text-anchor="middle" x="150.0" y="302">with its own KV chunk.</text><rect fill="#F8F9FA" height="244" rx="6" ry="6" stroke="none" width="260" x="320" y="20" /><text dy="0.35em" fill="#1F2937" font-family="Inter, Segoe UI, Helvetica, Arial, sans-serif" font-size="12px" font-weight="bold" text-anchor="middle" x="450.0" y="42.0">Step 1 (rotate KV)</text><rect fill="#E5E7EB" height="80" rx="4" ry="4" stroke="#6B7280" stroke-width="1.0" width="100" x="330" y="54" /><text dy="0.35em" fill="#1F2937" font-family="Inter, Segoe UI, Helvetica, Arial, sans-serif" font-size="10px" font-weight="bold" text-anchor="middle" x="380.0" y="63.0">GPU 0</text><rect fill="#EFF6FF" height="36" rx="3" ry="3" stroke="#6B7280" stroke-width="1.0" width="36" x="340.0" y="78" /><text dy="0.35em" fill="#1F2937" font-family="Inter, Segoe UI, Helvetica, Arial, sans-serif" font-size="9px" text-anchor="middle" x="358.0" y="124">Q0</text><g clip-path="url(#kv_clip_384_78)"><rect fill="#FFF8E1" height="18.0" width="36" x="384.0" y="78" /><rect fill="#FEE2E2" height="18.0" width="36" x="384.0" y="96.0" /></g><rect fill="none" height="36" rx="3" ry="3" stroke="#6B7280" stroke-width="1.0" width="36" x="384.0" y="78" /><text dy="0.35em" fill="#1F2937" font-family="Inter, Segoe UI, Helvetica, Arial, sans-serif" font-size="9px" text-anchor="middle" x="402.0" y="124">K3V3</text><rect fill="#E5E7EB" height="80" rx="4" ry="4" stroke="#6B7280" stroke-width="1.0" width="100" x="470" y="54" /><text dy="0.35em" fill="#1F2937" font-family="Inter, Segoe UI, Helvetica, Arial, sans-serif" font-size="10px" font-weight="bold" text-anchor="middle" x="520.0" y="63.0">GPU 1</text><rect fill="#EFF6FF" height="36" rx="3" ry="3" stroke="#6B7280" stroke-width="1.0" width="36" x="480.0" y="78" /><text dy="0.35em" fill="#1F2937" font-family="Inter, Segoe UI, Helvetica, Arial, sans-serif" font-size="9px" text-anchor="middle" x="498.0" y="124">Q1</text><g clip-path="url(#kv_clip_524_78)"><rect fill="#FFF8E1" height="18.0" width="36" x="524.0" y="78" /><rect fill="#FEE2E2" height="18.0" width="36" x="524.0" y="96.0" /></g><rect fill="none" height="36" rx="3" ry="3" stroke="#6B7280" stroke-width="1.0" width="36" x="524.0" y="78" /><text dy="0.35em" fill="#1F2937" font-family="Inter, Segoe UI, Helvetica, Arial, sans-serif" font-size="9px" text-anchor="middle" x="542.0" y="124">K0V0</text><rect fill="#E5E7EB" height="80" rx="4" ry="4" stroke="#6B7280" stroke-width="1.0" width="100" x="470" y="174" /><text dy="0.35em" fill="#1F2937" font-family="Inter, Segoe UI, Helvetica, Arial, sans-serif" font-size="10px" font-weight="bold" text-anchor="middle" x="520.0" y="183.0">GPU 2</text><rect fill="#EFF6FF" height="36" rx="3" ry="3" stroke="#6B7280" stroke-width="1.0" width="36" x="480.0" y="198" /><text dy="0.35em" fill="#1F2937" font-family="Inter, Segoe UI, Helvetica, Arial, sans-serif" font-size="9px" text-anchor="middle" x="498.0" y="244">Q2</text><g clip-path="url(#kv_clip_524_198)"><rect fill="#FFF8E1" height="18.0" width="36" x="524.0" y="198" /><rect fill="#FEE2E2" height="18.0" width="36" x="524.0" y="216.0" /></g><rect fill="none" height="36" rx="3" ry="3" stroke="#6B7280" stroke-width="1.0" width="36" x="524.0" y="198" /><text dy="0.35em" fill="#1F2937" font-family="Inter, Segoe UI, Helvetica, Arial, sans-serif" font-size="9px" text-anchor="middle" x="542.0" y="244">K1V1</text><rect fill="#E5E7EB" height="80" rx="4" ry="4" stroke="#6B7280" stroke-width="1.0" width="100" x="330" y="174" /><text dy="0.35em" fill="#1F2937" font-family="Inter, Segoe UI, Helvetica, Arial, sans-serif" font-size="10px" font-weight="bold" text-anchor="middle" x="380.0" y="183.0">GPU 3</text><rect fill="#EFF6FF" height="36" rx="3" ry="3" stroke="#6B7280" stroke-width="1.0" width="36" x="340.0" y="198" /><text dy="0.35em" fill="#1F2937" font-family="Inter, Segoe UI, Helvetica, Arial, sans-serif" font-size="9px" text-anchor="middle" x="358.0" y="244">Q3</text><g clip-path="url(#kv_clip_384_198)"><rect fill="#FFF8E1" height="18.0" width="36" x="384.0" y="198" /><rect fill="#FEE2E2" height="18.0" width="36" x="384.0" y="216.0" /></g><rect fill="none" height="36" rx="3" ry="3" stroke="#6B7280" stroke-width="1.0" width="36" x="384.0" y="198" /><text dy="0.35em" fill="#1F2937" font-family="Inter, Segoe UI, Helvetica, Arial, sans-serif" font-size="9px" text-anchor="middle" x="402.0" y="244">K2V2</text><path d="M 438.0,94.0 Q 450.0,84.0 462.0,94.0" fill="none" marker-end="url(#arrowhead)" stroke="#374151" stroke-width="1.5" /><path d="M 520.0,142.0 Q 530.0,154.0 520.0,166.0" fill="none" marker-end="url(#arrowhead)" stroke="#374151" stroke-width="1.5" /><path d="M 462.0,214.0 Q 450.0,224.0 438.0,214.0" fill="none" marker-end="url(#arrowhead)" stroke="#374151" stroke-width="1.5" /><path d="M 380.0,166.0 Q 370.0,154.0 380.0,142.0" fill="none" marker-end="url(#arrowhead)" stroke="#374151" stroke-width="1.5" /><text dy="0.35em" fill="#6B7280" font-family="Inter, Segoe UI, Helvetica, Arial, sans-serif" font-size="10px" text-anchor="middle" x="450.0" y="274">KV chunks rotate clockwise.</text><text dy="0.35em" fill="#6B7280" font-family="Inter, Segoe UI, Helvetica, Arial, sans-serif" font-size="10px" text-anchor="middle" x="450.0" y="288">Compute and communicate</text><text dy="0.35em" fill="#6B7280" font-family="Inter, Segoe UI, Helvetica, Arial, sans-serif" font-size="10px" text-anchor="middle" x="450.0" y="302">overlap hides latency.</text><text dy="0.35em" fill="#6B7280" font-family="Inter, Segoe UI, Helvetica, Arial, sans-serif" font-size="18px" font-weight="bold" text-anchor="middle" x="600.0" y="142.0">...</text><rect fill="#F8F9FA" height="244" rx="6" ry="6" stroke="none" width="260" x="620" y="20" /><text dy="0.35em" fill="#1F2937" font-family="Inter, Segoe UI, Helvetica, Arial, sans-serif" font-size="12px" font-weight="bold" text-anchor="middle" x="750.0" y="42.0">Step T–1 (final)</text><rect fill="#E5E7EB" height="80" rx="4" ry="4" stroke="#6B7280" stroke-width="1.0" width="100" x="630" y="54" /><text dy="0.35em" fill="#1F2937" font-family="Inter, Segoe UI, Helvetica, Arial, sans-serif" font-size="10px" font-weight="bold" text-anchor="middle" x="680.0" y="63.0">GPU 0</text><rect fill="#EFF6FF" height="36" rx="3" ry="3" stroke="#6B7280" stroke-width="1.0" width="36" x="640.0" y="78" /><text dy="0.35em" fill="#1F2937" font-family="Inter, Segoe UI, Helvetica, Arial, sans-serif" font-size="9px" text-anchor="middle" x="658.0" y="124">Q0</text><g clip-path="url(#kv_clip_684_78)"><rect fill="#FFF8E1" height="18.0" width="36" x="684.0" y="78" /><rect fill="#FEE2E2" height="18.0" width="36" x="684.0" y="96.0" /></g><rect fill="none" height="36" rx="3" ry="3" stroke="#6B7280" stroke-width="1.0" width="36" x="684.0" y="78" /><text dy="0.35em" fill="#1F2937" font-family="Inter, Segoe UI, Helvetica, Arial, sans-serif" font-size="9px" text-anchor="middle" x="702.0" y="124">K1V1</text><rect fill="#E5E7EB" height="80" rx="4" ry="4" stroke="#6B7280" stroke-width="1.0" width="100" x="770" y="54" /><text dy="0.35em" fill="#1F2937" font-family="Inter, Segoe UI, Helvetica, Arial, sans-serif" font-size="10px" font-weight="bold" text-anchor="middle" x="820.0" y="63.0">GPU 1</text><rect fill="#EFF6FF" height="36" rx="3" ry="3" stroke="#6B7280" stroke-width="1.0" width="36" x="780.0" y="78" /><text dy="0.35em" fill="#1F2937" font-family="Inter, Segoe UI, Helvetica, Arial, sans-serif" font-size="9px" text-anchor="middle" x="798.0" y="124">Q1</text><g clip-path="url(#kv_clip_824_78)"><rect fill="#FFF8E1" height="18.0" width="36" x="824.0" y="78" /><rect fill="#FEE2E2" height="18.0" width="36" x="824.0" y="96.0" /></g><rect fill="none" height="36" rx="3" ry="3" stroke="#6B7280" stroke-width="1.0" width="36" x="824.0" y="78" /><text dy="0.35em" fill="#1F2937" font-family="Inter, Segoe UI, Helvetica, Arial, sans-serif" font-size="9px" text-anchor="middle" x="842.0" y="124">K2V2</text><rect fill="#E5E7EB" height="80" rx="4" ry="4" stroke="#6B7280" stroke-width="1.0" width="100" x="770" y="174" /><text dy="0.35em" fill="#1F2937" font-family="Inter, Segoe UI, Helvetica, Arial, sans-serif" font-size="10px" font-weight="bold" text-anchor="middle" x="820.0" y="183.0">GPU 2</text><rect fill="#EFF6FF" height="36" rx="3" ry="3" stroke="#6B7280" stroke-width="1.0" width="36" x="780.0" y="198" /><text dy="0.35em" fill="#1F2937" font-family="Inter, Segoe UI, Helvetica, Arial, sans-serif" font-size="9px" text-anchor="middle" x="798.0" y="244">Q2</text><g clip-path="url(#kv_clip_824_198)"><rect fill="#FFF8E1" height="18.0" width="36" x="824.0" y="198" /><rect fill="#FEE2E2" height="18.0" width="36" x="824.0" y="216.0" /></g><rect fill="none" height="36" rx="3" ry="3" stroke="#6B7280" stroke-width="1.0" width="36" x="824.0" y="198" /><text dy="0.35em" fill="#1F2937" font-family="Inter, Segoe UI, Helvetica, Arial, sans-serif" font-size="9px" text-anchor="middle" x="842.0" y="244">K3V3</text><rect fill="#E5E7EB" height="80" rx="4" ry="4" stroke="#6B7280" stroke-width="1.0" width="100" x="630" y="174" /><text dy="0.35em" fill="#1F2937" font-family="Inter, Segoe UI, Helvetica, Arial, sans-serif" font-size="10px" font-weight="bold" text-anchor="middle" x="680.0" y="183.0">GPU 3</text><rect fill="#EFF6FF" height="36" rx="3" ry="3" stroke="#6B7280" stroke-width="1.0" width="36" x="640.0" y="198" /><text dy="0.35em" fill="#1F2937" font-family="Inter, Segoe UI, Helvetica, Arial, sans-serif" font-size="9px" text-anchor="middle" x="658.0" y="244">Q3</text><g clip-path="url(#kv_clip_684_198)"><rect fill="#FFF8E1" height="18.0" width="36" x="684.0" y="198" /><rect fill="#FEE2E2" height="18.0" width="36" x="684.0" y="216.0" /></g><rect fill="none" height="36" rx="3" ry="3" stroke="#6B7280" stroke-width="1.0" width="36" x="684.0" y="198" /><text dy="0.35em" fill="#1F2937" font-family="Inter, Segoe UI, Helvetica, Arial, sans-serif" font-size="9px" text-anchor="middle" x="702.0" y="244">K0V0</text><path d="M 738.0,94.0 Q 750.0,84.0 762.0,94.0" fill="none" marker-end="url(#arrowhead)" stroke="#374151" stroke-width="1.5" /><path d="M 820.0,142.0 Q 830.0,154.0 820.0,166.0" fill="none" marker-end="url(#arrowhead)" stroke="#374151" stroke-width="1.5" /><path d="M 762.0,214.0 Q 750.0,224.0 738.0,214.0" fill="none" marker-end="url(#arrowhead)" stroke="#374151" stroke-width="1.5" /><path d="M 680.0,166.0 Q 670.0,154.0 680.0,142.0" fill="none" marker-end="url(#arrowhead)" stroke="#374151" stroke-width="1.5" /><text dy="0.35em" fill="#6B7280" font-family="Inter, Segoe UI, Helvetica, Arial, sans-serif" font-size="10px" text-anchor="middle" x="750.0" y="274">Each GPU has now seen all</text><text dy="0.35em" fill="#6B7280" font-family="Inter, Segoe UI, Helvetica, Arial, sans-serif" font-size="10px" text-anchor="middle" x="750.0" y="288">KV chunks and accumulated</text><text dy="0.35em" fill="#6B7280" font-family="Inter, Segoe UI, Helvetica, Arial, sans-serif" font-size="10px" text-anchor="middle" x="750.0" y="302">full attention output.</text></svg>