<?xml version="1.0" encoding="utf-8" ?>
<svg baseProfile="full" height="400px" version="1.1" viewBox="0 0 698 400" width="698px" xmlns="http://www.w3.org/2000/svg" xmlns:ev="http://www.w3.org/2001/xml-events" xmlns:xlink="http://www.w3.org/1999/xlink"><defs><marker id="arrowhead" markerHeight="4" markerWidth="4" orient="auto" refX="4" refY="2.0"><polygon fill="#374151" points="0,0 4,2.0 0,4" /></marker><marker id="arrowhead_7C3AED" markerHeight="4" markerWidth="4" orient="auto" refX="4" refY="2.0"><polygon fill="#7C3AED" points="0,0 4,2.0 0,4" /></marker></defs><polygon fill="#DBEAFE" opacity="0.5" points="70.0,302.46623093295443 316.2092675328013,60.000703166008385 316.2092675328013,354 70.0,354" stroke="none" /><polygon fill="#FECACA" opacity="0.5" points="316.2092675328013,60.000703166008385 668,60.000703166008385 668,354 316.2092675328013,354" stroke="none" /><line stroke="#C9CDD3" stroke-width="0.75" x1="70" x2="668" y1="354.0" y2="354.0" /><line stroke="#C9CDD3" stroke-width="0.75" x1="70" x2="668" y1="255.84881675550199" y2="255.84881675550199" /><line stroke="#C9CDD3" stroke-width="0.75" x1="70" x2="668" y1="157.69763351100391" y2="157.69763351100391" /><line stroke="#C9CDD3" stroke-width="0.75" x1="70" x2="668" y1="59.546450266505886" y2="59.546450266505886" /><line stroke="#C9CDD3" stroke-width="0.75" x1="70.0" x2="70.0" y1="30" y2="354" /><line stroke="#C9CDD3" stroke-width="0.75" x1="169.66666666666669" x2="169.66666666666669" y1="30" y2="354" /><line stroke="#C9CDD3" stroke-width="0.75" x1="269.33333333333337" x2="269.33333333333337" y1="30" y2="354" /><line stroke="#C9CDD3" stroke-width="0.75" x1="369.0" x2="369.0" y1="30" y2="354" /><line stroke="#C9CDD3" stroke-width="0.75" x1="468.6666666666667" x2="468.6666666666667" y1="30" y2="354" /><line stroke="#C9CDD3" stroke-width="0.75" x1="568.3333333333333" x2="568.3333333333333" y1="30" y2="354" /><line stroke="#C9CDD3" stroke-width="0.75" x1="668.0" x2="668.0" y1="30" y2="354" /><line stroke="#6B7280" stroke-dasharray="4,3" stroke-width="1.2" x1="316.2092675328013" x2="316.2092675328013" y1="60.000703166008385" y2="354" /><text dy="0.35em" fill="#6B7280" font-family="Inter, Segoe UI, Helvetica, Arial, sans-serif" font-size="14px" text-anchor="middle" x="316.2092675328013" y="50.000703166008385">Ridge point</text><text fill="#6B7280" font-family="Inter, Segoe UI, Helvetica, Arial, sans-serif" font-size="11px" text-anchor="middle" transform="rotate(-90,328.2092675328013,207.0003515830042)" x="328.2092675328013" y="207.0003515830042">295 FLOP/byte</text><polyline fill="none" points="70.0,302.46623093295443 72.46209267532802,300.0415756552851 74.92418535065603,297.6169203776156 77.38627802598404,295.19226509994604 79.84837070131205,292.7676098222767 82.31046337664006,290.3429545446072 84.77255605196808,287.91829926693765 87.23464872729609,285.4936439892684 89.6967414026241,283.0689887115989 92.15883407795212,280.6443334339293 94.62092675328013,278.21967815626 97.08301942860814,275.79502287859043 99.54511210393615,273.37036760092093 102.00720477926416,270.9457123232516 104.46929745459218,268.5210570455821 106.9313901299202,266.09640176791254 109.39348280524821,263.6717464902432 111.85557548057622,261.24709121257365 114.31766815590422,258.8224359349042 116.77976083123224,256.3977806572348 119.24185350656026,253.9731253795653 121.70394618188826,251.54847010189576 124.16603885721628,249.12381482422646 126.6281315325443,246.69915954655693 129.0902242078723,244.27450426888743 131.55231688320032,241.84984899121804 134.0144095585283,239.42519371354857 136.47650223385637,237.00053843587904 138.93859490918436,234.5758831582095 141.40068758451235,232.15122788054018 143.86278025984038,229.72657260287065 146.3248729351684,227.3019173252013 148.7869656104964,224.8772620475318 151.24905828582445,222.45260676986229 153.71115096115244,220.02795149219293 156.17324363648044,217.6032962145234 158.63533631180843,215.17864093685387 161.09742898713648,212.75398565918456 163.55952166246448,210.32933038151504 166.02161433779253,207.9046751038455 168.48370701312052,205.480019826176 170.94579968844852,203.05536454850665 173.4078923637765,200.63070927083712 175.86998503910456,198.20605399316761 178.33207771443256,195.78139871549826 180.79417038976055,193.35674343782875 183.2562630650886,190.93208816015922 185.7183557404166,188.50743288248987 188.1804484157446,186.08277760482036 190.64254109107264,183.65812232715086 193.10463376640064,181.23346704948148 195.56672644172863,178.808811771812 198.02881911705666,176.38415649414247 200.49091179238468,173.95950121647314 202.9530044677127,171.5348459388036 205.4150971430407,169.11019066113408 207.87718981836875,166.68553538346475 210.33928249369671,164.26088010579522 212.80137516902474,161.8362248281259 215.26346784435273,159.41156955045636 217.72556051968076,156.98691427278683 220.18765319500878,154.5622589951173 222.64974587033677,152.13760371744797 225.1118385456648,149.71294843977847 227.57393122099282,147.2882931621091 230.0360238963208,144.86363788443964 232.49811657164886,142.43898260677008 234.96020924697686,140.01432732910058 237.42230192230488,137.58967205143125 239.88439459763285,135.1650167737617 242.34648727296087,132.74036149609236 244.8085799482889,130.31570621842286 247.2706726236169,127.89105094075333 249.73276529894494,125.4663956630838 252.19485797427294,123.04174038541446 254.65695064960096,120.61708510774494 257.11904332492895,118.19242983007541 259.58113600025695,115.76777455240607 262.04322867558506,113.34311927473658 264.50532135091305,110.91846399706706 266.96741402624104,108.49380871939772 269.42950670156904,106.0691534417282 271.89159937689703,103.64449816405867 274.353692052225,101.21984288638933 276.815784727553,98.79518760871981 279.27787740288113,96.37053233105028 281.7399700782091,93.94587705338094 284.2020627535371,91.52122177571142 286.6641554288651,89.09656649804191 289.1262481041931,86.67191122037255 291.5883407795211,84.24725594270303 294.0504334548492,81.82260066503352 296.5125261301772,79.39794538736416 298.9746188055052,76.97329010969469 301.4367114808332,74.54863483202516 303.8988041561612,72.12397955435583 306.3608968314892,69.6993242766863 308.8229895068172,67.27466899901677 311.2850821821453,64.85001372134744 313.7471748574733,62.42535844367791 316.2092675328013,60.000703166008385" stroke="#3B82F6" stroke-width="2.5" /><text fill="#3B82F6" font-family="Inter, Segoe UI, Helvetica, Arial, sans-serif" font-size="14px" text-anchor="start" transform="rotate(-44.56106536704073,98.00265623451013,262.91978066644856)" x="98.00265623451013" y="262.91978066644856">BW ceiling (3.35 TB/s)</text><line stroke="#EF4444" stroke-width="2.5" x1="316.2092675328013" x2="668" y1="60.000703166008385" y2="60.000703166008385" /><text dy="0.35em" fill="#EF4444" font-family="Inter, Segoe UI, Helvetica, Arial, sans-serif" font-size="14px" text-anchor="end" x="664" y="50.000703166008385">Compute ceiling (990 TFLOPS FP16)</text><text dy="0.35em" fill="#6B7280" font-family="Inter, Segoe UI, Helvetica, Arial, sans-serif" font-size="14px" text-anchor="middle" x="239.3306770988232" y="226.30236648899609">Bandwidth</text><text dy="0.35em" fill="#6B7280" font-family="Inter, Segoe UI, Helvetica, Arial, sans-serif" font-size="14px" text-anchor="middle" x="239.3306770988232" y="242.30236648899609">bound</text><text dy="0.35em" fill="#6B7280" font-family="Inter, Segoe UI, Helvetica, Arial, sans-serif" font-size="14px" text-anchor="middle" x="492.10463376640064" y="226.30236648899609">Compute bound</text><line stroke="#374151" stroke-width="1.5" x1="70" x2="668" y1="354" y2="354" /><line stroke="#374151" stroke-width="1.5" x1="70" x2="70" y1="30" y2="354" /><text dy="0.35em" fill="#1F2937" font-family="Inter, Segoe UI, Helvetica, Arial, sans-serif" font-size="14px" text-anchor="middle" x="369.0" y="390">Arithmetic intensity (FLOP/byte)</text><text fill="#1F2937" font-family="Inter, Segoe UI, Helvetica, Arial, sans-serif" font-size="14px" text-anchor="middle" transform="rotate(-90,16,192.0)" x="16" y="192.0">Attainable FLOP/s</text><text dy="0.35em" fill="#6B7280" font-family="Inter, Segoe UI, Helvetica, Arial, sans-serif" font-size="14px" text-anchor="middle" x="70.0" y="370">1</text><text dy="0.35em" fill="#6B7280" font-family="Inter, Segoe UI, Helvetica, Arial, sans-serif" font-size="14px" text-anchor="middle" x="169.66666666666669" y="370">10</text><text dy="0.35em" fill="#6B7280" font-family="Inter, Segoe UI, Helvetica, Arial, sans-serif" font-size="14px" text-anchor="middle" x="269.33333333333337" y="370">100</text><text dy="0.35em" fill="#6B7280" font-family="Inter, Segoe UI, Helvetica, Arial, sans-serif" font-size="14px" text-anchor="middle" x="369.0" y="370">1K</text><text dy="0.35em" fill="#6B7280" font-family="Inter, Segoe UI, Helvetica, Arial, sans-serif" font-size="14px" text-anchor="middle" x="468.6666666666667" y="370">10K</text><text dy="0.35em" fill="#6B7280" font-family="Inter, Segoe UI, Helvetica, Arial, sans-serif" font-size="14px" text-anchor="middle" x="568.3333333333333" y="370">100K</text><text dy="0.35em" fill="#6B7280" font-family="Inter, Segoe UI, Helvetica, Arial, sans-serif" font-size="14px" text-anchor="middle" x="668.0" y="370">1M</text><text dy="0.35em" fill="#6B7280" font-family="Inter, Segoe UI, Helvetica, Arial, sans-serif" font-size="14px" text-anchor="end" x="62" y="354.0">1T</text><text dy="0.35em" fill="#6B7280" font-family="Inter, Segoe UI, Helvetica, Arial, sans-serif" font-size="14px" text-anchor="end" x="62" y="255.84881675550199">10T</text><text dy="0.35em" fill="#6B7280" font-family="Inter, Segoe UI, Helvetica, Arial, sans-serif" font-size="14px" text-anchor="end" x="62" y="157.69763351100391">100T</text><text dy="0.35em" fill="#6B7280" font-family="Inter, Segoe UI, Helvetica, Arial, sans-serif" font-size="14px" text-anchor="end" x="62" y="59.546450266505886">1000T</text><circle cx="70.0" cy="302.46623093295443" fill="#7C3AED" r="5" stroke="#FFFFFF" stroke-width="1.5" /><text dy="0.35em" fill="#7C3AED" font-family="Inter, Segoe UI, Helvetica, Arial, sans-serif" font-size="14px" text-anchor="start" x="75.0" y="314.46623093295443">B=1</text><circle cx="160.00796870353037" cy="213.82688013343682" fill="#7C3AED" r="5" stroke="#FFFFFF" stroke-width="1.5" /><text dy="0.35em" fill="#7C3AED" font-family="Inter, Segoe UI, Helvetica, Arial, sans-serif" font-size="14px" text-anchor="start" x="165.00796870353037" y="225.82688013343682">B=8</text><circle cx="220.01328117255062" cy="154.73397960042507" fill="#7C3AED" r="5" stroke="#FFFFFF" stroke-width="1.5" /><text dy="0.35em" fill="#7C3AED" font-family="Inter, Segoe UI, Helvetica, Arial, sans-serif" font-size="14px" text-anchor="start" x="225.01328117255062" y="166.73397960042507">B=32</text><circle cx="280.0185936415709" cy="95.64107906741333" fill="#7C3AED" r="5" stroke="#FFFFFF" stroke-width="1.5" /><text dy="0.35em" fill="#7C3AED" font-family="Inter, Segoe UI, Helvetica, Arial, sans-serif" font-size="14px" text-anchor="start" x="285.0185936415709" y="107.64107906741333">B=128</text><circle cx="316.1589275924903" cy="60.05027766138617" fill="#7C3AED" r="5" stroke="#FFFFFF" stroke-width="1.5" /><text dy="0.35em" fill="#7C3AED" font-family="Inter, Segoe UI, Helvetica, Arial, sans-serif" font-size="14px" text-anchor="start" x="321.1589275924903" y="72.05027766138616">B=295</text><circle cx="370.02656234510124" cy="60.000703166008385" fill="#7C3AED" r="5" stroke="#FFFFFF" stroke-width="1.5" /><text dy="0.35em" fill="#7C3AED" font-family="Inter, Segoe UI, Helvetica, Arial, sans-serif" font-size="14px" text-anchor="start" x="375.02656234510124" y="72.00070316600838">B=1024</text><circle cx="490.03718728314175" cy="60.000703166008385" fill="#7C3AED" r="5" stroke="#FFFFFF" stroke-width="1.5" /><text dy="0.35em" fill="#7C3AED" font-family="Inter, Segoe UI, Helvetica, Arial, sans-serif" font-size="14px" text-anchor="start" x="495.03718728314175" y="72.00070316600838">B=16384</text><line marker-end="url(#arrowhead_7C3AED)" stroke="#7C3AED" stroke-width="1.5" x1="130.00531246902025" x2="585.8837621525496" y1="294.90709946698826" y2="294.90709946698826" /><text dy="0.35em" fill="#7C3AED" font-family="Inter, Segoe UI, Helvetica, Arial, sans-serif" font-size="14px" text-anchor="middle" x="357.94453731078494" y="310.90709946698826">Batching moves you rightward</text></svg>