<?xml version="1.0" encoding="utf-8" ?>
<svg baseProfile="full" height="400px" version="1.1" viewBox="0 0 720 400" width="720px" xmlns="http://www.w3.org/2000/svg" xmlns:ev="http://www.w3.org/2001/xml-events" xmlns:xlink="http://www.w3.org/1999/xlink"><defs><marker id="arrowhead" markerHeight="4" markerWidth="4" orient="auto" refX="4" refY="2.0"><polygon fill="#374151" points="0,0 4,2.0 0,4" /></marker><marker id="arrowhead_7C3AED" markerHeight="4" markerWidth="4" orient="auto" refX="4" refY="2.0"><polygon fill="#7C3AED" points="0,0 4,2.0 0,4" /></marker></defs><polygon fill="#DBEAFE" opacity="0.5" points="92.0,332.01268119946036 552.0899337028771,60.000703166008385 552.0899337028771,354 92.0,354" stroke="none" /><polygon fill="#FECACA" opacity="0.5" points="552.0899337028771,60.000703166008385 690,60.000703166008385 690,354 552.0899337028771,354" stroke="none" /><line stroke="#C9CDD3" stroke-width="0.75" x1="92" x2="690" y1="354.0" y2="354.0" /><line stroke="#C9CDD3" stroke-width="0.75" x1="92" x2="690" y1="255.84881675550199" y2="255.84881675550199" /><line stroke="#C9CDD3" stroke-width="0.75" x1="92" x2="690" y1="157.69763351100391" y2="157.69763351100391" /><line stroke="#C9CDD3" stroke-width="0.75" x1="92" x2="690" y1="59.546450266505886" y2="59.546450266505886" /><line stroke="#C9CDD3" stroke-width="0.75" x1="141.9758298974623" x2="141.9758298974623" y1="30" y2="354" /><line stroke="#C9CDD3" stroke-width="0.75" x1="307.9919432991541" x2="307.9919432991541" y1="30" y2="354" /><line stroke="#C9CDD3" stroke-width="0.75" x1="474.00805670084594" x2="474.00805670084594" y1="30" y2="354" /><line stroke="#C9CDD3" stroke-width="0.75" x1="640.0241701025377" x2="640.0241701025377" y1="30" y2="354" /><line stroke="#6B7280" stroke-dasharray="4,3" stroke-width="1.2" x1="552.0899337028771" x2="552.0899337028771" y1="60.000703166008385" y2="354" /><text dy="0.35em" fill="#6B7280" font-family="Inter, Segoe UI, Helvetica, Arial, sans-serif" font-size="14px" text-anchor="middle" x="552.0899337028771" y="50.000703166008385">Ridge point</text><text fill="#6B7280" font-family="Inter, Segoe UI, Helvetica, Arial, sans-serif" font-size="11px" text-anchor="middle" transform="rotate(-90,564.0899337028771,207.0003515830042)" x="564.0899337028771" y="207.0003515830042">295 FLOP/byte</text><polyline fill="none" points="92.0,332.01268119946036 96.60089933702876,329.29256141912583 101.20179867405754,326.57244163879136 105.80269801108632,323.8523218584569 110.40359734811508,321.13220207812225 115.00449668514386,318.4120822977878 119.60539602217261,315.69196251745325 124.20629535920139,312.9718427371188 128.80719469623017,310.25172295678414 133.40809403325895,307.53160317644966 138.00899337028773,304.8114833961152 142.60989270731648,302.0913636157807 147.21079204434525,299.371243835446 151.81169138137403,296.65112405511155 156.4125907184028,293.9310042747771 161.01349005543156,291.2108844944426 165.61438939246034,288.49076471410814 170.21528872948912,285.7706449337735 174.8161880665179,283.050525153439 179.41708740354665,280.3304053731045 184.01798674057542,277.6102855927701 188.6188860776042,274.8901658124354 193.21978541463295,272.1700460321009 197.82068475166176,269.44992625176644 202.4215840886905,266.72980647143197 207.0224834257193,264.0096866910975 211.62338276274807,261.2895669107628 216.22428209977681,258.56944713042833 220.82518143680562,255.84932735009386 225.42608077383437,253.12920756975936 230.02698011086315,250.40908778942475 234.62787944789193,247.68896800909025 239.2287787849207,244.96884822875575 243.82967812194948,242.2487284484213 248.43057745897823,239.52860866808663 253.031476796007,236.80848888775216 257.6323761330358,234.08836910741766 262.23327547006454,231.36824932708322 266.8341748070933,228.64812954674872 271.43507414412204,225.92800976641408 276.03597348115085,223.20788998607958 280.6368728181796,220.4877702057451 285.2377721552084,217.7676504254106 289.83867149223715,215.04753064507597 294.4395708292659,212.32741086474147 299.0404701662947,209.60729108440702 303.6413695033235,206.88717130407252 308.24226884035227,204.16705152373808 312.843168177381,201.4469317434034 317.44406751440977,198.72681196306894 322.0449668514386,196.00669218273444 326.6458661884673,193.28657240239997 331.24676552549613,190.56645262206533 335.8476648625249,187.84633284173083 340.44856419955363,185.12621306139633 345.04946353658244,182.40609328106189 349.65036287361124,179.68597350072721 354.25126221063994,176.96585372039274 358.8521615476687,174.24573394005827 363.4530608846975,171.52561415972377 368.05396022172624,168.8054943793893 372.65485955875505,166.08537459905463 377.2557588957838,163.3652548187202 381.85665823281255,160.6451350383857 386.45755756984136,157.9250152580512 391.05845690687016,155.20489547771655 395.6593562438989,152.48477569738208 400.2602555809277,149.7646559170476 404.86115491795647,147.04453613671313 409.46205425498516,144.3244163563786 414.06295359201397,141.604296576044 418.6638529290427,138.8841767957095 423.2647522660715,136.16405701537502 427.8656516031002,133.44393723504055 432.466550940129,130.7238174547059 437.0674502771578,128.00369767437144 441.6683496141866,125.28357789403692 446.26924895121533,122.56345811370247 450.87014828824414,119.8433383333678 455.4710476252729,117.12321855303334 460.0719469623017,114.40309877269885 464.6728462993305,111.68297899236435 469.2737456363592,108.9628592120299 473.87464497338794,106.24273943169523 478.47554431041675,103.52261965136077 483.0764436474455,100.80249987102627 487.6773429844743,98.08238009069179 492.27824232150306,95.36226031035714 496.87914165853186,92.64214053002266 501.48004099556067,89.9220207496882 506.0809403325894,87.20190096935372 510.6818396696182,84.48178118901903 515.282739006647,81.76166140868457 519.8836383436758,79.04154162835007 524.4845376807045,76.32142184801563 529.0854370177333,73.60130206768113 533.686336354762,70.88118228734646 538.2872356917908,68.161062507012 542.8881350288195,65.44094272667752 547.4890343658484,62.720822946343056 552.0899337028771,60.000703166008385" stroke="#3B82F6" stroke-width="2.5" /><text fill="#3B82F6" font-family="Inter, Segoe UI, Helvetica, Arial, sans-serif" font-size="14px" text-anchor="start" transform="rotate(-30.592207769261325,189.95165979492458,262.91978066644856)" x="189.95165979492458" y="262.91978066644856">BW ceiling (3.35 TB/s)</text><line stroke="#EF4444" stroke-width="2.5" x1="552.0899337028771" x2="690" y1="60.000703166008385" y2="60.000703166008385" /><text dy="0.35em" fill="#EF4444" font-family="Inter, Segoe UI, Helvetica, Arial, sans-serif" font-size="14px" text-anchor="end" x="686" y="50.000703166008385">Compute ceiling (990 TFLOPS FP16)</text><text dy="0.35em" fill="#6B7280" font-family="Inter, Segoe UI, Helvetica, Arial, sans-serif" font-size="14px" text-anchor="middle" x="307.9919432991541" y="265.3606492004824">Bandwidth</text><text dy="0.35em" fill="#6B7280" font-family="Inter, Segoe UI, Helvetica, Arial, sans-serif" font-size="14px" text-anchor="middle" x="307.9919432991541" y="281.3606492004824">bound</text><text dy="0.35em" fill="#6B7280" font-family="Inter, Segoe UI, Helvetica, Arial, sans-serif" font-size="14px" text-anchor="middle" x="621.0449668514386" y="265.3606492004824">Compute bound</text><line stroke="#374151" stroke-width="1.5" x1="92" x2="690" y1="354" y2="354" /><line stroke="#374151" stroke-width="1.5" x1="92" x2="92" y1="30" y2="354" /><text dy="0.35em" fill="#1F2937" font-family="Inter, Segoe UI, Helvetica, Arial, sans-serif" font-size="14px" text-anchor="middle" x="391.0" y="390">Arithmetic intensity (FLOP/byte)</text><text fill="#1F2937" font-family="Inter, Segoe UI, Helvetica, Arial, sans-serif" font-size="14px" text-anchor="middle" transform="rotate(-90,16,192.0)" x="16" y="192.0">Attainable FLOP/s</text><text dy="0.35em" fill="#6B7280" font-family="Inter, Segoe UI, Helvetica, Arial, sans-serif" font-size="14px" text-anchor="middle" x="141.9758298974623" y="370">1</text><text dy="0.35em" fill="#6B7280" font-family="Inter, Segoe UI, Helvetica, Arial, sans-serif" font-size="14px" text-anchor="middle" x="307.9919432991541" y="370">10</text><text dy="0.35em" fill="#6B7280" font-family="Inter, Segoe UI, Helvetica, Arial, sans-serif" font-size="14px" text-anchor="middle" x="474.00805670084594" y="370">100</text><text dy="0.35em" fill="#6B7280" font-family="Inter, Segoe UI, Helvetica, Arial, sans-serif" font-size="14px" text-anchor="middle" x="640.0241701025377" y="370">1K</text><text dy="0.35em" fill="#6B7280" font-family="Inter, Segoe UI, Helvetica, Arial, sans-serif" font-size="14px" text-anchor="end" x="84" y="354.0">1T</text><text dy="0.35em" fill="#6B7280" font-family="Inter, Segoe UI, Helvetica, Arial, sans-serif" font-size="14px" text-anchor="end" x="84" y="255.84881675550199">10T</text><text dy="0.35em" fill="#6B7280" font-family="Inter, Segoe UI, Helvetica, Arial, sans-serif" font-size="14px" text-anchor="end" x="84" y="157.69763351100391">100T</text><text dy="0.35em" fill="#6B7280" font-family="Inter, Segoe UI, Helvetica, Arial, sans-serif" font-size="14px" text-anchor="end" x="84" y="59.546450266505886">1000T</text><circle cx="141.9758298974623" cy="302.46623093295443" fill="#7C3AED" r="5" stroke="#FFFFFF" stroke-width="1.5" /><text dy="0.35em" fill="#7C3AED" font-family="Inter, Segoe UI, Helvetica, Arial, sans-serif" font-size="14px" text-anchor="start" x="151.9758298974623" y="292.46623093295443">B=1</text><circle cx="291.90331958984916" cy="213.82688013343682" fill="#7C3AED" r="5" stroke="#FFFFFF" stroke-width="1.5" /><text dy="0.35em" fill="#7C3AED" font-family="Inter, Segoe UI, Helvetica, Arial, sans-serif" font-size="14px" text-anchor="start" x="301.90331958984916" y="203.82688013343682">B=8</text><circle cx="391.8549793847738" cy="154.73397960042507" fill="#7C3AED" r="5" stroke="#FFFFFF" stroke-width="1.5" /><text dy="0.35em" fill="#7C3AED" font-family="Inter, Segoe UI, Helvetica, Arial, sans-serif" font-size="14px" text-anchor="start" x="401.8549793847738" y="144.73397960042507">B=32</text><circle cx="491.8066391796984" cy="95.64107906741333" fill="#7C3AED" r="5" stroke="#FFFFFF" stroke-width="1.5" /><text dy="0.35em" fill="#7C3AED" font-family="Inter, Segoe UI, Helvetica, Arial, sans-serif" font-size="14px" text-anchor="start" x="501.8066391796984" y="85.64107906741333">B=128</text><circle cx="552.0060817840881" cy="60.05027766138617" fill="#7C3AED" r="5" stroke="#FFFFFF" stroke-width="1.5" /><text dy="0.35em" fill="#7C3AED" font-family="Inter, Segoe UI, Helvetica, Arial, sans-serif" font-size="14px" text-anchor="start" x="562.0060817840881" y="78.05027766138616">B=295</text><circle cx="591.7582989746229" cy="60.000703166008385" fill="#7C3AED" r="5" stroke="#FFFFFF" stroke-width="1.5" /><text dy="0.35em" fill="#7C3AED" font-family="Inter, Segoe UI, Helvetica, Arial, sans-serif" font-size="14px" text-anchor="start" x="601.7582989746229" y="78.00070316600838">B=512</text><line marker-end="url(#arrowhead_7C3AED)" stroke="#7C3AED" stroke-width="1.5" x1="191.95165979492458" x2="573.9597164957704" y1="307.16998429816556" y2="307.16998429816556" /><text dy="0.35em" fill="#7C3AED" font-family="Inter, Segoe UI, Helvetica, Arial, sans-serif" font-size="14px" text-anchor="middle" x="382.9556881453475" y="295.16998429816556">Batching moves you rightward</text></svg>