<?xml version="1.0" encoding="utf-8" ?>
<svg baseProfile="full" height="440px" version="1.1" viewBox="0 0 854 440" width="854px" xmlns="http://www.w3.org/2000/svg" xmlns:ev="http://www.w3.org/2001/xml-events" xmlns:xlink="http://www.w3.org/1999/xlink"><defs><marker id="arrowhead" markerHeight="4" markerWidth="4" orient="auto" refX="4" refY="2.0"><polygon fill="#374151" points="0,0 4,2.0 0,4" /></marker></defs><rect fill="#DBEAFE" height="28" stroke="#6B7280" stroke-width="0.5" width="28" x="66" y="50" /><rect fill="#FFFFFF" height="28" stroke="#6B7280" stroke-width="0.5" width="28" x="94" y="50" /><rect fill="#FFFFFF" height="28" stroke="#6B7280" stroke-width="0.5" width="28" x="122" y="50" /><rect fill="#FFFFFF" height="28" stroke="#6B7280" stroke-width="0.5" width="28" x="150" y="50" /><rect fill="#FFFFFF" height="28" stroke="#6B7280" stroke-width="0.5" width="28" x="178" y="50" /><rect fill="#FFFFFF" height="28" stroke="#6B7280" stroke-width="0.5" width="28" x="206" y="50" /><rect fill="#FFFFFF" height="28" stroke="#6B7280" stroke-width="0.5" width="28" x="234" y="50" /><rect fill="#FFFFFF" height="28" stroke="#6B7280" stroke-width="0.5" width="28" x="262" y="50" /><rect fill="#FFFFFF" height="28" stroke="#6B7280" stroke-width="0.5" width="28" x="290" y="50" /><rect fill="#FFFFFF" height="28" stroke="#6B7280" stroke-width="0.5" width="28" x="318" y="50" /><rect fill="#FFFFFF" height="28" stroke="#6B7280" stroke-width="0.5" width="28" x="346" y="50" /><rect fill="#FFFFFF" height="28" stroke="#6B7280" stroke-width="0.5" width="28" x="374" y="50" /><rect fill="#DBEAFE" height="28" stroke="#6B7280" stroke-width="0.5" width="28" x="66" y="78" /><rect fill="#DBEAFE" height="28" stroke="#6B7280" stroke-width="0.5" width="28" x="94" y="78" /><rect fill="#FFFFFF" height="28" stroke="#6B7280" stroke-width="0.5" width="28" x="122" y="78" /><rect fill="#FFFFFF" height="28" stroke="#6B7280" stroke-width="0.5" width="28" x="150" y="78" /><rect fill="#FFFFFF" height="28" stroke="#6B7280" stroke-width="0.5" width="28" x="178" y="78" /><rect fill="#FFFFFF" height="28" stroke="#6B7280" stroke-width="0.5" width="28" x="206" y="78" /><rect fill="#FFFFFF" height="28" stroke="#6B7280" stroke-width="0.5" width="28" x="234" y="78" /><rect fill="#FFFFFF" height="28" stroke="#6B7280" stroke-width="0.5" width="28" x="262" y="78" /><rect fill="#FFFFFF" height="28" stroke="#6B7280" stroke-width="0.5" width="28" x="290" y="78" /><rect fill="#FFFFFF" height="28" stroke="#6B7280" stroke-width="0.5" width="28" x="318" y="78" /><rect fill="#FFFFFF" height="28" stroke="#6B7280" stroke-width="0.5" width="28" x="346" y="78" /><rect fill="#FFFFFF" height="28" stroke="#6B7280" stroke-width="0.5" width="28" x="374" y="78" /><rect fill="#DBEAFE" height="28" stroke="#6B7280" stroke-width="0.5" width="28" x="66" y="106" /><rect fill="#DBEAFE" height="28" stroke="#6B7280" stroke-width="0.5" width="28" x="94" y="106" /><rect fill="#DBEAFE" height="28" stroke="#6B7280" stroke-width="0.5" width="28" x="122" y="106" /><rect fill="#FFFFFF" height="28" stroke="#6B7280" stroke-width="0.5" width="28" x="150" y="106" /><rect fill="#FFFFFF" height="28" stroke="#6B7280" stroke-width="0.5" width="28" x="178" y="106" /><rect fill="#FFFFFF" height="28" stroke="#6B7280" stroke-width="0.5" width="28" x="206" y="106" /><rect fill="#FFFFFF" height="28" stroke="#6B7280" stroke-width="0.5" width="28" x="234" y="106" /><rect fill="#FFFFFF" height="28" stroke="#6B7280" stroke-width="0.5" width="28" x="262" y="106" /><rect fill="#FFFFFF" height="28" stroke="#6B7280" stroke-width="0.5" width="28" x="290" y="106" /><rect fill="#FFFFFF" height="28" stroke="#6B7280" stroke-width="0.5" width="28" x="318" y="106" /><rect fill="#FFFFFF" height="28" stroke="#6B7280" stroke-width="0.5" width="28" x="346" y="106" /><rect fill="#FFFFFF" height="28" stroke="#6B7280" stroke-width="0.5" width="28" x="374" y="106" /><rect fill="#DBEAFE" height="28" stroke="#6B7280" stroke-width="0.5" width="28" x="66" y="134" /><rect fill="#DBEAFE" height="28" stroke="#6B7280" stroke-width="0.5" width="28" x="94" y="134" /><rect fill="#DBEAFE" height="28" stroke="#6B7280" stroke-width="0.5" width="28" x="122" y="134" /><rect fill="#DBEAFE" height="28" stroke="#6B7280" stroke-width="0.5" width="28" x="150" y="134" /><rect fill="#FFFFFF" height="28" stroke="#6B7280" stroke-width="0.5" width="28" x="178" y="134" /><rect fill="#FFFFFF" height="28" stroke="#6B7280" stroke-width="0.5" width="28" x="206" y="134" /><rect fill="#FFFFFF" height="28" stroke="#6B7280" stroke-width="0.5" width="28" x="234" y="134" /><rect fill="#FFFFFF" height="28" stroke="#6B7280" stroke-width="0.5" width="28" x="262" y="134" /><rect fill="#FFFFFF" height="28" stroke="#6B7280" stroke-width="0.5" width="28" x="290" y="134" /><rect fill="#FFFFFF" height="28" stroke="#6B7280" stroke-width="0.5" width="28" x="318" y="134" /><rect fill="#FFFFFF" height="28" stroke="#6B7280" stroke-width="0.5" width="28" x="346" y="134" /><rect fill="#FFFFFF" height="28" stroke="#6B7280" stroke-width="0.5" width="28" x="374" y="134" /><rect fill="#DBEAFE" height="28" stroke="#6B7280" stroke-width="0.5" width="28" x="66" y="162" /><rect fill="#DBEAFE" height="28" stroke="#6B7280" stroke-width="0.5" width="28" x="94" y="162" /><rect fill="#DBEAFE" height="28" stroke="#6B7280" stroke-width="0.5" width="28" x="122" y="162" /><rect fill="#DBEAFE" height="28" stroke="#6B7280" stroke-width="0.5" width="28" x="150" y="162" /><rect fill="#DBEAFE" height="28" stroke="#6B7280" stroke-width="0.5" width="28" x="178" y="162" /><rect fill="#FFFFFF" height="28" stroke="#6B7280" stroke-width="0.5" width="28" x="206" y="162" /><rect fill="#FFFFFF" height="28" stroke="#6B7280" stroke-width="0.5" width="28" x="234" y="162" /><rect fill="#FFFFFF" height="28" stroke="#6B7280" stroke-width="0.5" width="28" x="262" y="162" /><rect fill="#FFFFFF" height="28" stroke="#6B7280" stroke-width="0.5" width="28" x="290" y="162" /><rect fill="#FFFFFF" height="28" stroke="#6B7280" stroke-width="0.5" width="28" x="318" y="162" /><rect fill="#FFFFFF" height="28" stroke="#6B7280" stroke-width="0.5" width="28" x="346" y="162" /><rect fill="#FFFFFF" height="28" stroke="#6B7280" stroke-width="0.5" width="28" x="374" y="162" /><rect fill="#DBEAFE" height="28" stroke="#6B7280" stroke-width="0.5" width="28" x="66" y="190" /><rect fill="#DBEAFE" height="28" stroke="#6B7280" stroke-width="0.5" width="28" x="94" y="190" /><rect fill="#DBEAFE" height="28" stroke="#6B7280" stroke-width="0.5" width="28" x="122" y="190" /><rect fill="#DBEAFE" height="28" stroke="#6B7280" stroke-width="0.5" width="28" x="150" y="190" /><rect fill="#DBEAFE" height="28" stroke="#6B7280" stroke-width="0.5" width="28" x="178" y="190" /><rect fill="#DBEAFE" height="28" stroke="#6B7280" stroke-width="0.5" width="28" x="206" y="190" /><rect fill="#FFFFFF" height="28" stroke="#6B7280" stroke-width="0.5" width="28" x="234" y="190" /><rect fill="#FFFFFF" height="28" stroke="#6B7280" stroke-width="0.5" width="28" x="262" y="190" /><rect fill="#FFFFFF" height="28" stroke="#6B7280" stroke-width="0.5" width="28" x="290" y="190" /><rect fill="#FFFFFF" height="28" stroke="#6B7280" stroke-width="0.5" width="28" x="318" y="190" /><rect fill="#FFFFFF" height="28" stroke="#6B7280" stroke-width="0.5" width="28" x="346" y="190" /><rect fill="#FFFFFF" height="28" stroke="#6B7280" stroke-width="0.5" width="28" x="374" y="190" /><rect fill="#DBEAFE" height="28" stroke="#6B7280" stroke-width="0.5" width="28" x="66" y="218" /><rect fill="#DBEAFE" height="28" stroke="#6B7280" stroke-width="0.5" width="28" x="94" y="218" /><rect fill="#DBEAFE" height="28" stroke="#6B7280" stroke-width="0.5" width="28" x="122" y="218" /><rect fill="#DBEAFE" height="28" stroke="#6B7280" stroke-width="0.5" width="28" x="150" y="218" /><rect fill="#DBEAFE" height="28" stroke="#6B7280" stroke-width="0.5" width="28" x="178" y="218" /><rect fill="#DBEAFE" height="28" stroke="#6B7280" stroke-width="0.5" width="28" x="206" y="218" /><rect fill="#DBEAFE" height="28" stroke="#6B7280" stroke-width="0.5" width="28" x="234" y="218" /><rect fill="#FFFFFF" height="28" stroke="#6B7280" stroke-width="0.5" width="28" x="262" y="218" /><rect fill="#FFFFFF" height="28" stroke="#6B7280" stroke-width="0.5" width="28" x="290" y="218" /><rect fill="#FFFFFF" height="28" stroke="#6B7280" stroke-width="0.5" width="28" x="318" y="218" /><rect fill="#FFFFFF" height="28" stroke="#6B7280" stroke-width="0.5" width="28" x="346" y="218" /><rect fill="#FFFFFF" height="28" stroke="#6B7280" stroke-width="0.5" width="28" x="374" y="218" /><rect fill="#DBEAFE" height="28" stroke="#6B7280" stroke-width="0.5" width="28" x="66" y="246" /><rect fill="#DBEAFE" height="28" stroke="#6B7280" stroke-width="0.5" width="28" x="94" y="246" /><rect fill="#DBEAFE" height="28" stroke="#6B7280" stroke-width="0.5" width="28" x="122" y="246" /><rect fill="#DBEAFE" height="28" stroke="#6B7280" stroke-width="0.5" width="28" x="150" y="246" /><rect fill="#DBEAFE" height="28" stroke="#6B7280" stroke-width="0.5" width="28" x="178" y="246" /><rect fill="#DBEAFE" height="28" stroke="#6B7280" stroke-width="0.5" width="28" x="206" y="246" /><rect fill="#DBEAFE" height="28" stroke="#6B7280" stroke-width="0.5" width="28" x="234" y="246" /><rect fill="#DBEAFE" height="28" stroke="#6B7280" stroke-width="0.5" width="28" x="262" y="246" /><rect fill="#FFFFFF" height="28" stroke="#6B7280" stroke-width="0.5" width="28" x="290" y="246" /><rect fill="#FFFFFF" height="28" stroke="#6B7280" stroke-width="0.5" width="28" x="318" y="246" /><rect fill="#FFFFFF" height="28" stroke="#6B7280" stroke-width="0.5" width="28" x="346" y="246" /><rect fill="#FFFFFF" height="28" stroke="#6B7280" stroke-width="0.5" width="28" x="374" y="246" /><rect fill="#DBEAFE" height="28" stroke="#6B7280" stroke-width="0.5" width="28" x="66" y="274" /><rect fill="#DBEAFE" height="28" stroke="#6B7280" stroke-width="0.5" width="28" x="94" y="274" /><rect fill="#DBEAFE" height="28" stroke="#6B7280" stroke-width="0.5" width="28" x="122" y="274" /><rect fill="#DBEAFE" height="28" stroke="#6B7280" stroke-width="0.5" width="28" x="150" y="274" /><rect fill="#DBEAFE" height="28" stroke="#6B7280" stroke-width="0.5" width="28" x="178" y="274" /><rect fill="#DBEAFE" height="28" stroke="#6B7280" stroke-width="0.5" width="28" x="206" y="274" /><rect fill="#DBEAFE" height="28" stroke="#6B7280" stroke-width="0.5" width="28" x="234" y="274" /><rect fill="#DBEAFE" height="28" stroke="#6B7280" stroke-width="0.5" width="28" x="262" y="274" /><rect fill="#DBEAFE" height="28" stroke="#6B7280" stroke-width="0.5" width="28" x="290" y="274" /><rect fill="#FFFFFF" height="28" stroke="#6B7280" stroke-width="0.5" width="28" x="318" y="274" /><rect fill="#FFFFFF" height="28" stroke="#6B7280" stroke-width="0.5" width="28" x="346" y="274" /><rect fill="#FFFFFF" height="28" stroke="#6B7280" stroke-width="0.5" width="28" x="374" y="274" /><rect fill="#DBEAFE" height="28" stroke="#6B7280" stroke-width="0.5" width="28" x="66" y="302" /><rect fill="#DBEAFE" height="28" stroke="#6B7280" stroke-width="0.5" width="28" x="94" y="302" /><rect fill="#DBEAFE" height="28" stroke="#6B7280" stroke-width="0.5" width="28" x="122" y="302" /><rect fill="#DBEAFE" height="28" stroke="#6B7280" stroke-width="0.5" width="28" x="150" y="302" /><rect fill="#DBEAFE" height="28" stroke="#6B7280" stroke-width="0.5" width="28" x="178" y="302" /><rect fill="#DBEAFE" height="28" stroke="#6B7280" stroke-width="0.5" width="28" x="206" y="302" /><rect fill="#DBEAFE" height="28" stroke="#6B7280" stroke-width="0.5" width="28" x="234" y="302" /><rect fill="#DBEAFE" height="28" stroke="#6B7280" stroke-width="0.5" width="28" x="262" y="302" /><rect fill="#DBEAFE" height="28" stroke="#6B7280" stroke-width="0.5" width="28" x="290" y="302" /><rect fill="#DBEAFE" height="28" stroke="#6B7280" stroke-width="0.5" width="28" x="318" y="302" /><rect fill="#FFFFFF" height="28" stroke="#6B7280" stroke-width="0.5" width="28" x="346" y="302" /><rect fill="#FFFFFF" height="28" stroke="#6B7280" stroke-width="0.5" width="28" x="374" y="302" /><rect fill="#DBEAFE" height="28" stroke="#6B7280" stroke-width="0.5" width="28" x="66" y="330" /><rect fill="#DBEAFE" height="28" stroke="#6B7280" stroke-width="0.5" width="28" x="94" y="330" /><rect fill="#DBEAFE" height="28" stroke="#6B7280" stroke-width="0.5" width="28" x="122" y="330" /><rect fill="#DBEAFE" height="28" stroke="#6B7280" stroke-width="0.5" width="28" x="150" y="330" /><rect fill="#DBEAFE" height="28" stroke="#6B7280" stroke-width="0.5" width="28" x="178" y="330" /><rect fill="#DBEAFE" height="28" stroke="#6B7280" stroke-width="0.5" width="28" x="206" y="330" /><rect fill="#DBEAFE" height="28" stroke="#6B7280" stroke-width="0.5" width="28" x="234" y="330" /><rect fill="#DBEAFE" height="28" stroke="#6B7280" stroke-width="0.5" width="28" x="262" y="330" /><rect fill="#DBEAFE" height="28" stroke="#6B7280" stroke-width="0.5" width="28" x="290" y="330" /><rect fill="#DBEAFE" height="28" stroke="#6B7280" stroke-width="0.5" width="28" x="318" y="330" /><rect fill="#DBEAFE" height="28" stroke="#6B7280" stroke-width="0.5" width="28" x="346" y="330" /><rect fill="#FFFFFF" height="28" stroke="#6B7280" stroke-width="0.5" width="28" x="374" y="330" /><rect fill="#DBEAFE" height="28" stroke="#6B7280" stroke-width="0.5" width="28" x="66" y="358" /><rect fill="#DBEAFE" height="28" stroke="#6B7280" stroke-width="0.5" width="28" x="94" y="358" /><rect fill="#DBEAFE" height="28" stroke="#6B7280" stroke-width="0.5" width="28" x="122" y="358" /><rect fill="#DBEAFE" height="28" stroke="#6B7280" stroke-width="0.5" width="28" x="150" y="358" /><rect fill="#DBEAFE" height="28" stroke="#6B7280" stroke-width="0.5" width="28" x="178" y="358" /><rect fill="#DBEAFE" height="28" stroke="#6B7280" stroke-width="0.5" width="28" x="206" y="358" /><rect fill="#DBEAFE" height="28" stroke="#6B7280" stroke-width="0.5" width="28" x="234" y="358" /><rect fill="#DBEAFE" height="28" stroke="#6B7280" stroke-width="0.5" width="28" x="262" y="358" /><rect fill="#DBEAFE" height="28" stroke="#6B7280" stroke-width="0.5" width="28" x="290" y="358" /><rect fill="#DBEAFE" height="28" stroke="#6B7280" stroke-width="0.5" width="28" x="318" y="358" /><rect fill="#DBEAFE" height="28" stroke="#6B7280" stroke-width="0.5" width="28" x="346" y="358" /><rect fill="#DBEAFE" height="28" stroke="#6B7280" stroke-width="0.5" width="28" x="374" y="358" /><rect fill="none" height="336" stroke="#6B7280" stroke-width="1.5" width="336" x="66" y="50" /><text dy="0.35em" fill="#1F2937" font-family="Inter, Segoe UI, Helvetica, Arial, sans-serif" font-size="13px" font-weight="bold" text-anchor="middle" x="234.0" y="35.0">Full Causal Attention</text><text fill="#1F2937" font-family="Inter, Segoe UI, Helvetica, Arial, sans-serif" font-size="11px" text-anchor="middle" transform="rotate(-90, 34, 218.0)" x="34" y="218.0">Queries</text><text dy="0.35em" fill="#6B7280" font-family="Inter, Segoe UI, Helvetica, Arial, sans-serif" font-size="9px" text-anchor="end" x="61" y="64.0">0</text><text dy="0.35em" fill="#6B7280" font-family="Inter, Segoe UI, Helvetica, Arial, sans-serif" font-size="9px" text-anchor="end" x="61" y="372.0">11</text><text dy="0.35em" fill="#1F2937" font-family="Inter, Segoe UI, Helvetica, Arial, sans-serif" font-size="11px" text-anchor="middle" x="234.0" y="414">Keys</text><text dy="0.8em" fill="#6B7280" font-family="Inter, Segoe UI, Helvetica, Arial, sans-serif" font-size="9px" text-anchor="middle" x="80.0" y="391">0</text><text dy="0.8em" fill="#6B7280" font-family="Inter, Segoe UI, Helvetica, Arial, sans-serif" font-size="9px" text-anchor="middle" x="388.0" y="391">11</text><rect fill="#DBEAFE" height="28" stroke="#6B7280" stroke-width="0.5" width="28" x="498" y="50" /><rect fill="#FFFFFF" height="28" stroke="#6B7280" stroke-width="0.5" width="28" x="526" y="50" /><rect fill="#FFFFFF" height="28" stroke="#6B7280" stroke-width="0.5" width="28" x="554" y="50" /><rect fill="#FFFFFF" height="28" stroke="#6B7280" stroke-width="0.5" width="28" x="582" y="50" /><rect fill="#FFFFFF" height="28" stroke="#6B7280" stroke-width="0.5" width="28" x="610" y="50" /><rect fill="#FFFFFF" height="28" stroke="#6B7280" stroke-width="0.5" width="28" x="638" y="50" /><rect fill="#FFFFFF" height="28" stroke="#6B7280" stroke-width="0.5" width="28" x="666" y="50" /><rect fill="#FFFFFF" height="28" stroke="#6B7280" stroke-width="0.5" width="28" x="694" y="50" /><rect fill="#FFFFFF" height="28" stroke="#6B7280" stroke-width="0.5" width="28" x="722" y="50" /><rect fill="#FFFFFF" height="28" stroke="#6B7280" stroke-width="0.5" width="28" x="750" y="50" /><rect fill="#FFFFFF" height="28" stroke="#6B7280" stroke-width="0.5" width="28" x="778" y="50" /><rect fill="#FFFFFF" height="28" stroke="#6B7280" stroke-width="0.5" width="28" x="806" y="50" /><rect fill="#DBEAFE" height="28" stroke="#6B7280" stroke-width="0.5" width="28" x="498" y="78" /><rect fill="#DBEAFE" height="28" stroke="#6B7280" stroke-width="0.5" width="28" x="526" y="78" /><rect fill="#FFFFFF" height="28" stroke="#6B7280" stroke-width="0.5" width="28" x="554" y="78" /><rect fill="#FFFFFF" height="28" stroke="#6B7280" stroke-width="0.5" width="28" x="582" y="78" /><rect fill="#FFFFFF" height="28" stroke="#6B7280" stroke-width="0.5" width="28" x="610" y="78" /><rect fill="#FFFFFF" height="28" stroke="#6B7280" stroke-width="0.5" width="28" x="638" y="78" /><rect fill="#FFFFFF" height="28" stroke="#6B7280" stroke-width="0.5" width="28" x="666" y="78" /><rect fill="#FFFFFF" height="28" stroke="#6B7280" stroke-width="0.5" width="28" x="694" y="78" /><rect fill="#FFFFFF" height="28" stroke="#6B7280" stroke-width="0.5" width="28" x="722" y="78" /><rect fill="#FFFFFF" height="28" stroke="#6B7280" stroke-width="0.5" width="28" x="750" y="78" /><rect fill="#FFFFFF" height="28" stroke="#6B7280" stroke-width="0.5" width="28" x="778" y="78" /><rect fill="#FFFFFF" height="28" stroke="#6B7280" stroke-width="0.5" width="28" x="806" y="78" /><rect fill="#DBEAFE" height="28" stroke="#6B7280" stroke-width="0.5" width="28" x="498" y="106" /><rect fill="#DBEAFE" height="28" stroke="#6B7280" stroke-width="0.5" width="28" x="526" y="106" /><rect fill="#DBEAFE" height="28" stroke="#6B7280" stroke-width="0.5" width="28" x="554" y="106" /><rect fill="#FFFFFF" height="28" stroke="#6B7280" stroke-width="0.5" width="28" x="582" y="106" /><rect fill="#FFFFFF" height="28" stroke="#6B7280" stroke-width="0.5" width="28" x="610" y="106" /><rect fill="#FFFFFF" height="28" stroke="#6B7280" stroke-width="0.5" width="28" x="638" y="106" /><rect fill="#FFFFFF" height="28" stroke="#6B7280" stroke-width="0.5" width="28" x="666" y="106" /><rect fill="#FFFFFF" height="28" stroke="#6B7280" stroke-width="0.5" width="28" x="694" y="106" /><rect fill="#FFFFFF" height="28" stroke="#6B7280" stroke-width="0.5" width="28" x="722" y="106" /><rect fill="#FFFFFF" height="28" stroke="#6B7280" stroke-width="0.5" width="28" x="750" y="106" /><rect fill="#FFFFFF" height="28" stroke="#6B7280" stroke-width="0.5" width="28" x="778" y="106" /><rect fill="#FFFFFF" height="28" stroke="#6B7280" stroke-width="0.5" width="28" x="806" y="106" /><rect fill="#DBEAFE" height="28" stroke="#6B7280" stroke-width="0.5" width="28" x="498" y="134" /><rect fill="#DBEAFE" height="28" stroke="#6B7280" stroke-width="0.5" width="28" x="526" y="134" /><rect fill="#DBEAFE" height="28" stroke="#6B7280" stroke-width="0.5" width="28" x="554" y="134" /><rect fill="#DBEAFE" height="28" stroke="#6B7280" stroke-width="0.5" width="28" x="582" y="134" /><rect fill="#FFFFFF" height="28" stroke="#6B7280" stroke-width="0.5" width="28" x="610" y="134" /><rect fill="#FFFFFF" height="28" stroke="#6B7280" stroke-width="0.5" width="28" x="638" y="134" /><rect fill="#FFFFFF" height="28" stroke="#6B7280" stroke-width="0.5" width="28" x="666" y="134" /><rect fill="#FFFFFF" height="28" stroke="#6B7280" stroke-width="0.5" width="28" x="694" y="134" /><rect fill="#FFFFFF" height="28" stroke="#6B7280" stroke-width="0.5" width="28" x="722" y="134" /><rect fill="#FFFFFF" height="28" stroke="#6B7280" stroke-width="0.5" width="28" x="750" y="134" /><rect fill="#FFFFFF" height="28" stroke="#6B7280" stroke-width="0.5" width="28" x="778" y="134" /><rect fill="#FFFFFF" height="28" stroke="#6B7280" stroke-width="0.5" width="28" x="806" y="134" /><rect fill="#FFFFFF" height="28" stroke="#6B7280" stroke-width="0.5" width="28" x="498" y="162" /><rect fill="#DBEAFE" height="28" stroke="#6B7280" stroke-width="0.5" width="28" x="526" y="162" /><rect fill="#DBEAFE" height="28" stroke="#6B7280" stroke-width="0.5" width="28" x="554" y="162" /><rect fill="#DBEAFE" height="28" stroke="#6B7280" stroke-width="0.5" width="28" x="582" y="162" /><rect fill="#DBEAFE" height="28" stroke="#6B7280" stroke-width="0.5" width="28" x="610" y="162" /><rect fill="#FFFFFF" height="28" stroke="#6B7280" stroke-width="0.5" width="28" x="638" y="162" /><rect fill="#FFFFFF" height="28" stroke="#6B7280" stroke-width="0.5" width="28" x="666" y="162" /><rect fill="#FFFFFF" height="28" stroke="#6B7280" stroke-width="0.5" width="28" x="694" y="162" /><rect fill="#FFFFFF" height="28" stroke="#6B7280" stroke-width="0.5" width="28" x="722" y="162" /><rect fill="#FFFFFF" height="28" stroke="#6B7280" stroke-width="0.5" width="28" x="750" y="162" /><rect fill="#FFFFFF" height="28" stroke="#6B7280" stroke-width="0.5" width="28" x="778" y="162" /><rect fill="#FFFFFF" height="28" stroke="#6B7280" stroke-width="0.5" width="28" x="806" y="162" /><rect fill="#FFFFFF" height="28" stroke="#6B7280" stroke-width="0.5" width="28" x="498" y="190" /><rect fill="#FFFFFF" height="28" stroke="#6B7280" stroke-width="0.5" width="28" x="526" y="190" /><rect fill="#DBEAFE" height="28" stroke="#6B7280" stroke-width="0.5" width="28" x="554" y="190" /><rect fill="#DBEAFE" height="28" stroke="#6B7280" stroke-width="0.5" width="28" x="582" y="190" /><rect fill="#DBEAFE" height="28" stroke="#6B7280" stroke-width="0.5" width="28" x="610" y="190" /><rect fill="#DBEAFE" height="28" stroke="#6B7280" stroke-width="0.5" width="28" x="638" y="190" /><rect fill="#FFFFFF" height="28" stroke="#6B7280" stroke-width="0.5" width="28" x="666" y="190" /><rect fill="#FFFFFF" height="28" stroke="#6B7280" stroke-width="0.5" width="28" x="694" y="190" /><rect fill="#FFFFFF" height="28" stroke="#6B7280" stroke-width="0.5" width="28" x="722" y="190" /><rect fill="#FFFFFF" height="28" stroke="#6B7280" stroke-width="0.5" width="28" x="750" y="190" /><rect fill="#FFFFFF" height="28" stroke="#6B7280" stroke-width="0.5" width="28" x="778" y="190" /><rect fill="#FFFFFF" height="28" stroke="#6B7280" stroke-width="0.5" width="28" x="806" y="190" /><rect fill="#FFFFFF" height="28" stroke="#6B7280" stroke-width="0.5" width="28" x="498" y="218" /><rect fill="#FFFFFF" height="28" stroke="#6B7280" stroke-width="0.5" width="28" x="526" y="218" /><rect fill="#FFFFFF" height="28" stroke="#6B7280" stroke-width="0.5" width="28" x="554" y="218" /><rect fill="#DBEAFE" height="28" stroke="#6B7280" stroke-width="0.5" width="28" x="582" y="218" /><rect fill="#DBEAFE" height="28" stroke="#6B7280" stroke-width="0.5" width="28" x="610" y="218" /><rect fill="#DBEAFE" height="28" stroke="#6B7280" stroke-width="0.5" width="28" x="638" y="218" /><rect fill="#DBEAFE" height="28" stroke="#6B7280" stroke-width="0.5" width="28" x="666" y="218" /><rect fill="#FFFFFF" height="28" stroke="#6B7280" stroke-width="0.5" width="28" x="694" y="218" /><rect fill="#FFFFFF" height="28" stroke="#6B7280" stroke-width="0.5" width="28" x="722" y="218" /><rect fill="#FFFFFF" height="28" stroke="#6B7280" stroke-width="0.5" width="28" x="750" y="218" /><rect fill="#FFFFFF" height="28" stroke="#6B7280" stroke-width="0.5" width="28" x="778" y="218" /><rect fill="#FFFFFF" height="28" stroke="#6B7280" stroke-width="0.5" width="28" x="806" y="218" /><rect fill="#FFFFFF" height="28" stroke="#6B7280" stroke-width="0.5" width="28" x="498" y="246" /><rect fill="#FFFFFF" height="28" stroke="#6B7280" stroke-width="0.5" width="28" x="526" y="246" /><rect fill="#FFFFFF" height="28" stroke="#6B7280" stroke-width="0.5" width="28" x="554" y="246" /><rect fill="#FFFFFF" height="28" stroke="#6B7280" stroke-width="0.5" width="28" x="582" y="246" /><rect fill="#DBEAFE" height="28" stroke="#6B7280" stroke-width="0.5" width="28" x="610" y="246" /><rect fill="#DBEAFE" height="28" stroke="#6B7280" stroke-width="0.5" width="28" x="638" y="246" /><rect fill="#DBEAFE" height="28" stroke="#6B7280" stroke-width="0.5" width="28" x="666" y="246" /><rect fill="#DBEAFE" height="28" stroke="#6B7280" stroke-width="0.5" width="28" x="694" y="246" /><rect fill="#FFFFFF" height="28" stroke="#6B7280" stroke-width="0.5" width="28" x="722" y="246" /><rect fill="#FFFFFF" height="28" stroke="#6B7280" stroke-width="0.5" width="28" x="750" y="246" /><rect fill="#FFFFFF" height="28" stroke="#6B7280" stroke-width="0.5" width="28" x="778" y="246" /><rect fill="#FFFFFF" height="28" stroke="#6B7280" stroke-width="0.5" width="28" x="806" y="246" /><rect fill="#FFFFFF" height="28" stroke="#6B7280" stroke-width="0.5" width="28" x="498" y="274" /><rect fill="#FFFFFF" height="28" stroke="#6B7280" stroke-width="0.5" width="28" x="526" y="274" /><rect fill="#FFFFFF" height="28" stroke="#6B7280" stroke-width="0.5" width="28" x="554" y="274" /><rect fill="#FFFFFF" height="28" stroke="#6B7280" stroke-width="0.5" width="28" x="582" y="274" /><rect fill="#FFFFFF" height="28" stroke="#6B7280" stroke-width="0.5" width="28" x="610" y="274" /><rect fill="#DBEAFE" height="28" stroke="#6B7280" stroke-width="0.5" width="28" x="638" y="274" /><rect fill="#DBEAFE" height="28" stroke="#6B7280" stroke-width="0.5" width="28" x="666" y="274" /><rect fill="#DBEAFE" height="28" stroke="#6B7280" stroke-width="0.5" width="28" x="694" y="274" /><rect fill="#DBEAFE" height="28" stroke="#6B7280" stroke-width="0.5" width="28" x="722" y="274" /><rect fill="#FFFFFF" height="28" stroke="#6B7280" stroke-width="0.5" width="28" x="750" y="274" /><rect fill="#FFFFFF" height="28" stroke="#6B7280" stroke-width="0.5" width="28" x="778" y="274" /><rect fill="#FFFFFF" height="28" stroke="#6B7280" stroke-width="0.5" width="28" x="806" y="274" /><rect fill="#FFFFFF" height="28" stroke="#6B7280" stroke-width="0.5" width="28" x="498" y="302" /><rect fill="#FFFFFF" height="28" stroke="#6B7280" stroke-width="0.5" width="28" x="526" y="302" /><rect fill="#FFFFFF" height="28" stroke="#6B7280" stroke-width="0.5" width="28" x="554" y="302" /><rect fill="#FFFFFF" height="28" stroke="#6B7280" stroke-width="0.5" width="28" x="582" y="302" /><rect fill="#FFFFFF" height="28" stroke="#6B7280" stroke-width="0.5" width="28" x="610" y="302" /><rect fill="#FFFFFF" height="28" stroke="#6B7280" stroke-width="0.5" width="28" x="638" y="302" /><rect fill="#DBEAFE" height="28" stroke="#6B7280" stroke-width="0.5" width="28" x="666" y="302" /><rect fill="#DBEAFE" height="28" stroke="#6B7280" stroke-width="0.5" width="28" x="694" y="302" /><rect fill="#DBEAFE" height="28" stroke="#6B7280" stroke-width="0.5" width="28" x="722" y="302" /><rect fill="#DBEAFE" height="28" stroke="#6B7280" stroke-width="0.5" width="28" x="750" y="302" /><rect fill="#FFFFFF" height="28" stroke="#6B7280" stroke-width="0.5" width="28" x="778" y="302" /><rect fill="#FFFFFF" height="28" stroke="#6B7280" stroke-width="0.5" width="28" x="806" y="302" /><rect fill="#FFFFFF" height="28" stroke="#6B7280" stroke-width="0.5" width="28" x="498" y="330" /><rect fill="#FFFFFF" height="28" stroke="#6B7280" stroke-width="0.5" width="28" x="526" y="330" /><rect fill="#FFFFFF" height="28" stroke="#6B7280" stroke-width="0.5" width="28" x="554" y="330" /><rect fill="#FFFFFF" height="28" stroke="#6B7280" stroke-width="0.5" width="28" x="582" y="330" /><rect fill="#FFFFFF" height="28" stroke="#6B7280" stroke-width="0.5" width="28" x="610" y="330" /><rect fill="#FFFFFF" height="28" stroke="#6B7280" stroke-width="0.5" width="28" x="638" y="330" /><rect fill="#FFFFFF" height="28" stroke="#6B7280" stroke-width="0.5" width="28" x="666" y="330" /><rect fill="#DBEAFE" height="28" stroke="#6B7280" stroke-width="0.5" width="28" x="694" y="330" /><rect fill="#DBEAFE" height="28" stroke="#6B7280" stroke-width="0.5" width="28" x="722" y="330" /><rect fill="#DBEAFE" height="28" stroke="#6B7280" stroke-width="0.5" width="28" x="750" y="330" /><rect fill="#DBEAFE" height="28" stroke="#6B7280" stroke-width="0.5" width="28" x="778" y="330" /><rect fill="#FFFFFF" height="28" stroke="#6B7280" stroke-width="0.5" width="28" x="806" y="330" /><rect fill="#FFFFFF" height="28" stroke="#6B7280" stroke-width="0.5" width="28" x="498" y="358" /><rect fill="#FFFFFF" height="28" stroke="#6B7280" stroke-width="0.5" width="28" x="526" y="358" /><rect fill="#FFFFFF" height="28" stroke="#6B7280" stroke-width="0.5" width="28" x="554" y="358" /><rect fill="#FFFFFF" height="28" stroke="#6B7280" stroke-width="0.5" width="28" x="582" y="358" /><rect fill="#FFFFFF" height="28" stroke="#6B7280" stroke-width="0.5" width="28" x="610" y="358" /><rect fill="#FFFFFF" height="28" stroke="#6B7280" stroke-width="0.5" width="28" x="638" y="358" /><rect fill="#FFFFFF" height="28" stroke="#6B7280" stroke-width="0.5" width="28" x="666" y="358" /><rect fill="#FFFFFF" height="28" stroke="#6B7280" stroke-width="0.5" width="28" x="694" y="358" /><rect fill="#DBEAFE" height="28" stroke="#6B7280" stroke-width="0.5" width="28" x="722" y="358" /><rect fill="#DBEAFE" height="28" stroke="#6B7280" stroke-width="0.5" width="28" x="750" y="358" /><rect fill="#DBEAFE" height="28" stroke="#6B7280" stroke-width="0.5" width="28" x="778" y="358" /><rect fill="#DBEAFE" height="28" stroke="#6B7280" stroke-width="0.5" width="28" x="806" y="358" /><rect fill="none" height="336" stroke="#6B7280" stroke-width="1.5" width="336" x="498" y="50" /><text dy="0.35em" fill="#1F2937" font-family="Inter, Segoe UI, Helvetica, Arial, sans-serif" font-size="13px" font-weight="bold" text-anchor="middle" x="666.0" y="35.0">Sliding Window (w = 4)</text><text fill="#1F2937" font-family="Inter, Segoe UI, Helvetica, Arial, sans-serif" font-size="11px" text-anchor="middle" transform="rotate(-90, 466, 218.0)" x="466" y="218.0">Queries</text><text dy="0.35em" fill="#6B7280" font-family="Inter, Segoe UI, Helvetica, Arial, sans-serif" font-size="9px" text-anchor="end" x="493" y="64.0">0</text><text dy="0.35em" fill="#6B7280" font-family="Inter, Segoe UI, Helvetica, Arial, sans-serif" font-size="9px" text-anchor="end" x="493" y="372.0">11</text><text dy="0.35em" fill="#1F2937" font-family="Inter, Segoe UI, Helvetica, Arial, sans-serif" font-size="11px" text-anchor="middle" x="666.0" y="414">Keys</text><text dy="0.8em" fill="#6B7280" font-family="Inter, Segoe UI, Helvetica, Arial, sans-serif" font-size="9px" text-anchor="middle" x="512.0" y="391">0</text><text dy="0.8em" fill="#6B7280" font-family="Inter, Segoe UI, Helvetica, Arial, sans-serif" font-size="9px" text-anchor="middle" x="820.0" y="391">11</text></svg>