<?xml version="1.0" encoding="utf-8" ?>
<svg baseProfile="full" height="288px" version="1.1" viewBox="0 0 292 288" width="292px" xmlns="http://www.w3.org/2000/svg" xmlns:ev="http://www.w3.org/2001/xml-events" xmlns:xlink="http://www.w3.org/1999/xlink"><defs><marker id="arrowhead" markerHeight="4" markerWidth="4" orient="auto" refX="4" refY="2.0"><polygon fill="#374151" points="0,0 4,2.0 0,4" /></marker><marker id="arrowhead_333333" markerHeight="4" markerWidth="4" orient="auto" refX="4" refY="2.0"><polygon fill="#333333" points="0,0 4,2.0 0,4" /></marker></defs><g><rect fill="#F3F4F6" height="40" stroke="none" width="80" x="20.0" y="228.0" /><line stroke="#1E40AF" stroke-width="1.5" x1="20.0" x2="100.0" y1="228.0" y2="228.0" /><line stroke="#1E40AF" stroke-width="1.5" x1="20.0" x2="100.0" y1="268.0" y2="268.0" /><line stroke="#DC2626" stroke-width="1.5" x1="20.0" x2="20.0" y1="228.0" y2="268.0" /><line stroke="#DC2626" stroke-width="1.5" x1="100.0" x2="100.0" y1="228.0" y2="268.0" /><text dy="0.35em" fill="#1F2937" font-family="Inter, Segoe UI, Helvetica, Arial, sans-serif" font-size="11px" text-anchor="middle" x="60.0" y="248.0">X</text></g><text dy="0.35em" font-family="Inter, Segoe UI, Helvetica, Arial, sans-serif" font-size="11px" font-style="italic" text-anchor="start" x="106.0" y="248.0"><tspan fill="#6B7280">(</tspan><tspan fill="#DC2626">S</tspan><tspan fill="#6B7280">,</tspan><tspan fill="#6B7280"> </tspan><tspan fill="#1E40AF">D</tspan><tspan fill="#6B7280">)</tspan></text><line marker-end="url(#arrowhead_333333)" stroke="#333333" stroke-width="1.5" x1="60.0" x2="60.0" y1="228.0" y2="196.0" /><rect fill="#F9FAFB" height="22" rx="6" ry="6" stroke="#333333" stroke-width="1.5" width="48" x="36.0" y="174.0" /><text dy="0.35em" fill="#1F2937" font-family="Inter, Segoe UI, Helvetica, Arial, sans-serif" font-size="9px" text-anchor="middle" x="60.0" y="185.0">MatMul</text><g><rect fill="#F3E8FF" height="80" stroke="none" width="80" x="144.0" y="145.0" /><line stroke="#1E40AF" stroke-width="1.5" x1="144.0" x2="224.0" y1="145.0" y2="145.0" /><line stroke="#1E40AF" stroke-width="1.5" x1="144.0" x2="224.0" y1="225.0" y2="225.0" /><line stroke="#1E40AF" stroke-width="1.5" x1="144.0" x2="144.0" y1="145.0" y2="225.0" /><line stroke="#1E40AF" stroke-width="1.5" x1="224.0" x2="224.0" y1="145.0" y2="225.0" /></g><text dy="0.35em" fill="#1F2937" font-family="Inter, Segoe UI, Helvetica, Arial, sans-serif" font-size="11px" text-anchor="middle" x="184.0" y="185.0">W<tspan baseline-shift="sub" font-size="9px">K</tspan></text><text dy="0.35em" font-family="Inter, Segoe UI, Helvetica, Arial, sans-serif" font-size="11px" font-style="italic" text-anchor="start" x="230.0" y="185.0"><tspan fill="#6B7280">(</tspan><tspan fill="#1E40AF">D</tspan><tspan fill="#6B7280">,</tspan><tspan fill="#6B7280"> </tspan><tspan fill="#1E40AF">D</tspan><tspan fill="#6B7280">)</tspan></text><line marker-end="url(#arrowhead_333333)" stroke="#333333" stroke-width="1.5" x1="144.0" x2="84.0" y1="185.0" y2="185.0" /><line stroke="#60A5FA" stroke-dasharray="3,2" stroke-width="1.0" x1="164.0" x2="164.0" y1="147.0" y2="223.0" /><line stroke="#60A5FA" stroke-dasharray="3,2" stroke-width="1.0" x1="184.0" x2="184.0" y1="147.0" y2="223.0" /><line stroke="#60A5FA" stroke-dasharray="3,2" stroke-width="1.0" x1="204.0" x2="204.0" y1="147.0" y2="223.0" /><line marker-end="url(#arrowhead_333333)" stroke="#333333" stroke-width="1.5" x1="60.0" x2="60.0" y1="174.0" y2="142.0" /><g><rect fill="#FFF8E1" height="40" stroke="none" width="80" x="20.0" y="102.0" /><line stroke="#1E40AF" stroke-width="1.5" x1="20.0" x2="100.0" y1="102.0" y2="102.0" /><line stroke="#1E40AF" stroke-width="1.5" x1="20.0" x2="100.0" y1="142.0" y2="142.0" /><line stroke="#DC2626" stroke-width="1.5" x1="20.0" x2="20.0" y1="102.0" y2="142.0" /><line stroke="#DC2626" stroke-width="1.5" x1="100.0" x2="100.0" y1="102.0" y2="142.0" /><text dy="0.35em" fill="#1F2937" font-family="Inter, Segoe UI, Helvetica, Arial, sans-serif" font-size="11px" text-anchor="middle" x="60.0" y="122.0">K</text></g><text dy="0.35em" font-family="Inter, Segoe UI, Helvetica, Arial, sans-serif" font-size="11px" font-style="italic" text-anchor="start" x="106.0" y="122.0"><tspan fill="#6B7280">(</tspan><tspan fill="#DC2626">S</tspan><tspan fill="#6B7280">,</tspan><tspan fill="#6B7280"> </tspan><tspan fill="#1E40AF">D</tspan><tspan fill="#6B7280">)</tspan></text><line stroke="#60A5FA" stroke-dasharray="3,2" stroke-width="1.0" x1="40.0" x2="40.0" y1="104.0" y2="140.0" /><line stroke="#60A5FA" stroke-dasharray="3,2" stroke-width="1.0" x1="60.0" x2="60.0" y1="104.0" y2="140.0" /><line stroke="#60A5FA" stroke-dasharray="3,2" stroke-width="1.0" x1="80.0" x2="80.0" y1="104.0" y2="140.0" /><line marker-end="url(#arrowhead_333333)" stroke="#333333" stroke-dasharray="2,1" stroke-width="1.5" x1="60.0" x2="60.0" y1="102.0" y2="70.0" /><g><rect fill="#FFF8E1" height="40" stroke="none" width="20" x="65.0" y="15.0" /><line stroke="#93C5FD" stroke-width="1.5" x1="65.0" x2="85.0" y1="15.0" y2="15.0" /><line stroke="#93C5FD" stroke-width="1.5" x1="65.0" x2="85.0" y1="55.0" y2="55.0" /><line stroke="#DC2626" stroke-width="1.5" x1="65.0" x2="65.0" y1="15.0" y2="55.0" /><line stroke="#DC2626" stroke-width="1.5" x1="85.0" x2="85.0" y1="15.0" y2="55.0" /></g><g><rect fill="#FFF8E1" height="40" stroke="none" width="20" x="60.0" y="20.0" /><line stroke="#93C5FD" stroke-width="1.5" x1="60.0" x2="80.0" y1="20.0" y2="20.0" /><line stroke="#93C5FD" stroke-width="1.5" x1="60.0" x2="80.0" y1="60.0" y2="60.0" /><line stroke="#DC2626" stroke-width="1.5" x1="60.0" x2="60.0" y1="20.0" y2="60.0" /><line stroke="#DC2626" stroke-width="1.5" x1="80.0" x2="80.0" y1="20.0" y2="60.0" /></g><g><rect fill="#FFF8E1" height="40" stroke="none" width="20" x="55.0" y="25.0" /><line stroke="#93C5FD" stroke-width="1.5" x1="55.0" x2="75.0" y1="25.0" y2="25.0" /><line stroke="#93C5FD" stroke-width="1.5" x1="55.0" x2="75.0" y1="65.0" y2="65.0" /><line stroke="#DC2626" stroke-width="1.5" x1="55.0" x2="55.0" y1="25.0" y2="65.0" /><line stroke="#DC2626" stroke-width="1.5" x1="75.0" x2="75.0" y1="25.0" y2="65.0" /></g><g><rect fill="#FFF8E1" height="40" stroke="none" width="20" x="50.0" y="30.0" /><line stroke="#93C5FD" stroke-width="1.5" x1="50.0" x2="70.0" y1="30.0" y2="30.0" /><line stroke="#93C5FD" stroke-width="1.5" x1="50.0" x2="70.0" y1="70.0" y2="70.0" /><line stroke="#DC2626" stroke-width="1.5" x1="50.0" x2="50.0" y1="30.0" y2="70.0" /><line stroke="#DC2626" stroke-width="1.5" x1="70.0" x2="70.0" y1="30.0" y2="70.0" /><text dy="0.35em" fill="#1F2937" font-family="Inter, Segoe UI, Helvetica, Arial, sans-serif" font-size="11px" text-anchor="middle" x="60.0" y="50.0">K</text></g><line stroke="#A855F7" stroke-width="1.5" x1="50.0" x2="65.0" y1="30.0" y2="15.0" /><line stroke="#A855F7" stroke-width="1.5" x1="70.0" x2="85.0" y1="30.0" y2="15.0" /><line stroke="#A855F7" stroke-width="1.5" x1="70.0" x2="85.0" y1="70.0" y2="55.0" /><text dy="0.35em" font-family="Inter, Segoe UI, Helvetica, Arial, sans-serif" font-size="11px" font-style="italic" text-anchor="start" x="86.0" y="50.0"><tspan fill="#6B7280">(</tspan><tspan fill="#A855F7">H</tspan><tspan fill="#6B7280">,</tspan><tspan fill="#6B7280"> </tspan><tspan fill="#DC2626">S</tspan><tspan fill="#6B7280">,</tspan><tspan fill="#6B7280"> </tspan><tspan fill="#60A5FA">d</tspan><tspan baseline-shift="sub" fill="#60A5FA" font-size="8px">K</tspan><tspan fill="#6B7280">)</tspan></text></svg>