<?xml version="1.0" encoding="utf-8" ?>
<svg baseProfile="full" height="258px" version="1.1" viewBox="0 0 262 258" width="262px" xmlns="http://www.w3.org/2000/svg" xmlns:ev="http://www.w3.org/2001/xml-events" xmlns:xlink="http://www.w3.org/1999/xlink"><defs><marker id="arrowhead" markerHeight="4" markerWidth="4" orient="auto" refX="4" refY="2.0"><polygon fill="#374151" points="0,0 4,2.0 0,4" /></marker><marker id="arrowhead_333333" markerHeight="4" markerWidth="4" orient="auto" refX="4" refY="2.0"><polygon fill="#333333" points="0,0 4,2.0 0,4" /></marker></defs><g><rect fill="#F3F4F6" height="40" stroke="none" width="80" x="5.0" y="213.0" /><line stroke="#1E40AF" stroke-width="1.5" x1="5.0" x2="85.0" y1="213.0" y2="213.0" /><line stroke="#1E40AF" stroke-width="1.5" x1="5.0" x2="85.0" y1="253.0" y2="253.0" /><line stroke="#DC2626" stroke-width="1.5" x1="5.0" x2="5.0" y1="213.0" y2="253.0" /><line stroke="#DC2626" stroke-width="1.5" x1="85.0" x2="85.0" y1="213.0" y2="253.0" /><text dy="0.35em" fill="#1F2937" font-family="Inter, Segoe UI, Helvetica, Arial, sans-serif" font-size="11px" text-anchor="middle" x="45.0" y="233.0">X</text></g><text dy="0.35em" font-family="Inter, Segoe UI, Helvetica, Arial, sans-serif" font-size="11px" font-style="italic" text-anchor="start" x="91.0" y="233.0"><tspan fill="#6B7280">(</tspan><tspan fill="#DC2626">S</tspan><tspan fill="#6B7280">,</tspan><tspan fill="#6B7280"> </tspan><tspan fill="#1E40AF">D</tspan><tspan fill="#6B7280">)</tspan></text><line marker-end="url(#arrowhead_333333)" stroke="#333333" stroke-width="1.5" x1="45.0" x2="45.0" y1="213.0" y2="181.0" /><rect fill="#F9FAFB" height="22" rx="6" ry="6" stroke="#333333" stroke-width="1.5" width="48" x="21.0" y="159.0" /><text dy="0.35em" fill="#1F2937" font-family="Inter, Segoe UI, Helvetica, Arial, sans-serif" font-size="9px" text-anchor="middle" x="45.0" y="170.0">MatMul</text><g><rect fill="#F3E8FF" height="80" stroke="none" width="80" x="129.0" y="130.0" /><line stroke="#1E40AF" stroke-width="1.5" x1="129.0" x2="209.0" y1="130.0" y2="130.0" /><line stroke="#1E40AF" stroke-width="1.5" x1="129.0" x2="209.0" y1="210.0" y2="210.0" /><line stroke="#1E40AF" stroke-width="1.5" x1="129.0" x2="129.0" y1="130.0" y2="210.0" /><line stroke="#1E40AF" stroke-width="1.5" x1="209.0" x2="209.0" y1="130.0" y2="210.0" /></g><text dy="0.35em" fill="#1F2937" font-family="Inter, Segoe UI, Helvetica, Arial, sans-serif" font-size="11px" text-anchor="middle" x="169.0" y="170.0">W<tspan baseline-shift="sub" font-size="9px">K</tspan></text><text dy="0.35em" font-family="Inter, Segoe UI, Helvetica, Arial, sans-serif" font-size="11px" font-style="italic" text-anchor="start" x="215.0" y="170.0"><tspan fill="#6B7280">(</tspan><tspan fill="#1E40AF">D</tspan><tspan fill="#6B7280">,</tspan><tspan fill="#6B7280"> </tspan><tspan fill="#1E40AF">D</tspan><tspan fill="#6B7280">)</tspan></text><line marker-end="url(#arrowhead_333333)" stroke="#333333" stroke-width="1.5" x1="129.0" x2="69.0" y1="170.0" y2="170.0" /><line stroke="#60A5FA" stroke-dasharray="3,2" stroke-width="1.0" x1="149.0" x2="149.0" y1="132.0" y2="208.0" /><line stroke="#60A5FA" stroke-dasharray="3,2" stroke-width="1.0" x1="169.0" x2="169.0" y1="132.0" y2="208.0" /><line stroke="#60A5FA" stroke-dasharray="3,2" stroke-width="1.0" x1="189.0" x2="189.0" y1="132.0" y2="208.0" /><line marker-end="url(#arrowhead_333333)" stroke="#333333" stroke-width="1.5" x1="45.0" x2="45.0" y1="159.0" y2="127.0" /><g><rect fill="#FFF8E1" height="40" stroke="none" width="80" x="5.0" y="87.0" /><line stroke="#1E40AF" stroke-width="1.5" x1="5.0" x2="85.0" y1="87.0" y2="87.0" /><line stroke="#1E40AF" stroke-width="1.5" x1="5.0" x2="85.0" y1="127.0" y2="127.0" /><line stroke="#DC2626" stroke-width="1.5" x1="5.0" x2="5.0" y1="87.0" y2="127.0" /><line stroke="#DC2626" stroke-width="1.5" x1="85.0" x2="85.0" y1="87.0" y2="127.0" /><text dy="0.35em" fill="#1F2937" font-family="Inter, Segoe UI, Helvetica, Arial, sans-serif" font-size="11px" text-anchor="middle" x="45.0" y="107.0">K</text></g><text dy="0.35em" font-family="Inter, Segoe UI, Helvetica, Arial, sans-serif" font-size="11px" font-style="italic" text-anchor="start" x="91.0" y="107.0"><tspan fill="#6B7280">(</tspan><tspan fill="#DC2626">S</tspan><tspan fill="#6B7280">,</tspan><tspan fill="#6B7280"> </tspan><tspan fill="#1E40AF">D</tspan><tspan fill="#6B7280">)</tspan></text><line stroke="#60A5FA" stroke-dasharray="3,2" stroke-width="1.0" x1="25.0" x2="25.0" y1="89.0" y2="125.0" /><line stroke="#60A5FA" stroke-dasharray="3,2" stroke-width="1.0" x1="45.0" x2="45.0" y1="89.0" y2="125.0" /><line stroke="#60A5FA" stroke-dasharray="3,2" stroke-width="1.0" x1="65.0" x2="65.0" y1="89.0" y2="125.0" /><line marker-end="url(#arrowhead_333333)" stroke="#333333" stroke-dasharray="2,1" stroke-width="1.5" x1="45.0" x2="45.0" y1="87.0" y2="55.0" /><g><rect fill="#FFF8E1" height="40" stroke="none" width="20" x="50.0" y="0.0" /><line stroke="#93C5FD" stroke-width="1.5" x1="50.0" x2="70.0" y1="0.0" y2="0.0" /><line stroke="#93C5FD" stroke-width="1.5" x1="50.0" x2="70.0" y1="40.0" y2="40.0" /><line stroke="#DC2626" stroke-width="1.5" x1="50.0" x2="50.0" y1="0.0" y2="40.0" /><line stroke="#DC2626" stroke-width="1.5" x1="70.0" x2="70.0" y1="0.0" y2="40.0" /></g><g><rect fill="#FFF8E1" height="40" stroke="none" width="20" x="45.0" y="5.0" /><line stroke="#93C5FD" stroke-width="1.5" x1="45.0" x2="65.0" y1="5.0" y2="5.0" /><line stroke="#93C5FD" stroke-width="1.5" x1="45.0" x2="65.0" y1="45.0" y2="45.0" /><line stroke="#DC2626" stroke-width="1.5" x1="45.0" x2="45.0" y1="5.0" y2="45.0" /><line stroke="#DC2626" stroke-width="1.5" x1="65.0" x2="65.0" y1="5.0" y2="45.0" /></g><g><rect fill="#FFF8E1" height="40" stroke="none" width="20" x="40.0" y="10.0" /><line stroke="#93C5FD" stroke-width="1.5" x1="40.0" x2="60.0" y1="10.0" y2="10.0" /><line stroke="#93C5FD" stroke-width="1.5" x1="40.0" x2="60.0" y1="50.0" y2="50.0" /><line stroke="#DC2626" stroke-width="1.5" x1="40.0" x2="40.0" y1="10.0" y2="50.0" /><line stroke="#DC2626" stroke-width="1.5" x1="60.0" x2="60.0" y1="10.0" y2="50.0" /></g><g><rect fill="#FFF8E1" height="40" stroke="none" width="20" x="35.0" y="15.0" /><line stroke="#93C5FD" stroke-width="1.5" x1="35.0" x2="55.0" y1="15.0" y2="15.0" /><line stroke="#93C5FD" stroke-width="1.5" x1="35.0" x2="55.0" y1="55.0" y2="55.0" /><line stroke="#DC2626" stroke-width="1.5" x1="35.0" x2="35.0" y1="15.0" y2="55.0" /><line stroke="#DC2626" stroke-width="1.5" x1="55.0" x2="55.0" y1="15.0" y2="55.0" /><text dy="0.35em" fill="#1F2937" font-family="Inter, Segoe UI, Helvetica, Arial, sans-serif" font-size="11px" text-anchor="middle" x="45.0" y="35.0">K</text></g><line stroke="#A855F7" stroke-width="1.5" x1="35.0" x2="50.0" y1="15.0" y2="0.0" /><line stroke="#A855F7" stroke-width="1.5" x1="55.0" x2="70.0" y1="15.0" y2="0.0" /><line stroke="#A855F7" stroke-width="1.5" x1="55.0" x2="70.0" y1="55.0" y2="40.0" /><text dy="0.35em" font-family="Inter, Segoe UI, Helvetica, Arial, sans-serif" font-size="11px" font-style="italic" text-anchor="start" x="71.0" y="35.0"><tspan fill="#6B7280">(</tspan><tspan fill="#A855F7">H</tspan><tspan fill="#6B7280">,</tspan><tspan fill="#6B7280"> </tspan><tspan fill="#DC2626">S</tspan><tspan fill="#6B7280">,</tspan><tspan fill="#6B7280"> </tspan><tspan fill="#60A5FA">d</tspan><tspan baseline-shift="sub" fill="#60A5FA" font-size="8px">K</tspan><tspan fill="#6B7280">)</tspan></text></svg>