<?xml version="1.0" encoding="utf-8" ?>
<svg baseProfile="full" height="268px" version="1.1" viewBox="0 0 272 268" width="272px" xmlns="http://www.w3.org/2000/svg" xmlns:ev="http://www.w3.org/2001/xml-events" xmlns:xlink="http://www.w3.org/1999/xlink"><defs><marker id="arrowhead" markerHeight="4" markerWidth="4" orient="auto" refX="4" refY="2.0"><polygon fill="#374151" points="0,0 4,2.0 0,4" /></marker><marker id="arrowhead_333333" markerHeight="4" markerWidth="4" orient="auto" refX="4" refY="2.0"><polygon fill="#333333" points="0,0 4,2.0 0,4" /></marker></defs><g><rect fill="#F3F4F6" height="40" stroke="none" width="80" x="10.0" y="218.0" /><line stroke="#1E40AF" stroke-width="1.5" x1="10.0" x2="90.0" y1="218.0" y2="218.0" /><line stroke="#1E40AF" stroke-width="1.5" x1="10.0" x2="90.0" y1="258.0" y2="258.0" /><line stroke="#DC2626" stroke-width="1.5" x1="10.0" x2="10.0" y1="218.0" y2="258.0" /><line stroke="#DC2626" stroke-width="1.5" x1="90.0" x2="90.0" y1="218.0" y2="258.0" /><text dy="0.35em" fill="#1F2937" font-family="Inter, Segoe UI, Helvetica, Arial, sans-serif" font-size="11px" text-anchor="middle" x="50.0" y="238.0">X</text></g><text dy="0.35em" font-family="Inter, Segoe UI, Helvetica, Arial, sans-serif" font-size="11px" font-style="italic" text-anchor="start" x="96.0" y="238.0"><tspan fill="#6B7280">(</tspan><tspan fill="#DC2626">S</tspan><tspan fill="#6B7280">,</tspan><tspan fill="#6B7280"> </tspan><tspan fill="#1E40AF">D</tspan><tspan fill="#6B7280">)</tspan></text><line marker-end="url(#arrowhead_333333)" stroke="#333333" stroke-width="1.5" x1="50.0" x2="50.0" y1="218.0" y2="186.0" /><rect fill="#F9FAFB" height="22" rx="6" ry="6" stroke="#333333" stroke-width="1.5" width="48" x="26.0" y="164.0" /><text dy="0.35em" fill="#1F2937" font-family="Inter, Segoe UI, Helvetica, Arial, sans-serif" font-size="9px" text-anchor="middle" x="50.0" y="175.0">MatMul</text><g><rect fill="#F3E8FF" height="80" stroke="none" width="80" x="134.0" y="135.0" /><line stroke="#1E40AF" stroke-width="1.5" x1="134.0" x2="214.0" y1="135.0" y2="135.0" /><line stroke="#1E40AF" stroke-width="1.5" x1="134.0" x2="214.0" y1="215.0" y2="215.0" /><line stroke="#1E40AF" stroke-width="1.5" x1="134.0" x2="134.0" y1="135.0" y2="215.0" /><line stroke="#1E40AF" stroke-width="1.5" x1="214.0" x2="214.0" y1="135.0" y2="215.0" /></g><text dy="0.35em" fill="#1F2937" font-family="Inter, Segoe UI, Helvetica, Arial, sans-serif" font-size="11px" text-anchor="middle" x="174.0" y="175.0">W<tspan baseline-shift="sub" font-size="9px">K</tspan></text><text dy="0.35em" font-family="Inter, Segoe UI, Helvetica, Arial, sans-serif" font-size="11px" font-style="italic" text-anchor="start" x="220.0" y="175.0"><tspan fill="#6B7280">(</tspan><tspan fill="#1E40AF">D</tspan><tspan fill="#6B7280">,</tspan><tspan fill="#6B7280"> </tspan><tspan fill="#1E40AF">D</tspan><tspan fill="#6B7280">)</tspan></text><line marker-end="url(#arrowhead_333333)" stroke="#333333" stroke-width="1.5" x1="134.0" x2="74.0" y1="175.0" y2="175.0" /><line stroke="#60A5FA" stroke-dasharray="3,2" stroke-width="1.0" x1="154.0" x2="154.0" y1="137.0" y2="213.0" /><line stroke="#60A5FA" stroke-dasharray="3,2" stroke-width="1.0" x1="174.0" x2="174.0" y1="137.0" y2="213.0" /><line stroke="#60A5FA" stroke-dasharray="3,2" stroke-width="1.0" x1="194.0" x2="194.0" y1="137.0" y2="213.0" /><line marker-end="url(#arrowhead_333333)" stroke="#333333" stroke-width="1.5" x1="50.0" x2="50.0" y1="164.0" y2="132.0" /><g><rect fill="#FFF8E1" height="40" stroke="none" width="80" x="10.0" y="92.0" /><line stroke="#1E40AF" stroke-width="1.5" x1="10.0" x2="90.0" y1="92.0" y2="92.0" /><line stroke="#1E40AF" stroke-width="1.5" x1="10.0" x2="90.0" y1="132.0" y2="132.0" /><line stroke="#DC2626" stroke-width="1.5" x1="10.0" x2="10.0" y1="92.0" y2="132.0" /><line stroke="#DC2626" stroke-width="1.5" x1="90.0" x2="90.0" y1="92.0" y2="132.0" /><text dy="0.35em" fill="#1F2937" font-family="Inter, Segoe UI, Helvetica, Arial, sans-serif" font-size="11px" text-anchor="middle" x="50.0" y="112.0">K</text></g><text dy="0.35em" font-family="Inter, Segoe UI, Helvetica, Arial, sans-serif" font-size="11px" font-style="italic" text-anchor="start" x="96.0" y="112.0"><tspan fill="#6B7280">(</tspan><tspan fill="#DC2626">S</tspan><tspan fill="#6B7280">,</tspan><tspan fill="#6B7280"> </tspan><tspan fill="#1E40AF">D</tspan><tspan fill="#6B7280">)</tspan></text><line stroke="#60A5FA" stroke-dasharray="3,2" stroke-width="1.0" x1="30.0" x2="30.0" y1="94.0" y2="130.0" /><line stroke="#60A5FA" stroke-dasharray="3,2" stroke-width="1.0" x1="50.0" x2="50.0" y1="94.0" y2="130.0" /><line stroke="#60A5FA" stroke-dasharray="3,2" stroke-width="1.0" x1="70.0" x2="70.0" y1="94.0" y2="130.0" /><line marker-end="url(#arrowhead_333333)" stroke="#333333" stroke-dasharray="2,1" stroke-width="1.5" x1="50.0" x2="50.0" y1="92.0" y2="60.0" /><g><rect fill="#FFF8E1" height="40" stroke="none" width="20" x="55.0" y="5.0" /><line stroke="#93C5FD" stroke-width="1.5" x1="55.0" x2="75.0" y1="5.0" y2="5.0" /><line stroke="#93C5FD" stroke-width="1.5" x1="55.0" x2="75.0" y1="45.0" y2="45.0" /><line stroke="#DC2626" stroke-width="1.5" x1="55.0" x2="55.0" y1="5.0" y2="45.0" /><line stroke="#DC2626" stroke-width="1.5" x1="75.0" x2="75.0" y1="5.0" y2="45.0" /></g><g><rect fill="#FFF8E1" height="40" stroke="none" width="20" x="50.0" y="10.0" /><line stroke="#93C5FD" stroke-width="1.5" x1="50.0" x2="70.0" y1="10.0" y2="10.0" /><line stroke="#93C5FD" stroke-width="1.5" x1="50.0" x2="70.0" y1="50.0" y2="50.0" /><line stroke="#DC2626" stroke-width="1.5" x1="50.0" x2="50.0" y1="10.0" y2="50.0" /><line stroke="#DC2626" stroke-width="1.5" x1="70.0" x2="70.0" y1="10.0" y2="50.0" /></g><g><rect fill="#FFF8E1" height="40" stroke="none" width="20" x="45.0" y="15.0" /><line stroke="#93C5FD" stroke-width="1.5" x1="45.0" x2="65.0" y1="15.0" y2="15.0" /><line stroke="#93C5FD" stroke-width="1.5" x1="45.0" x2="65.0" y1="55.0" y2="55.0" /><line stroke="#DC2626" stroke-width="1.5" x1="45.0" x2="45.0" y1="15.0" y2="55.0" /><line stroke="#DC2626" stroke-width="1.5" x1="65.0" x2="65.0" y1="15.0" y2="55.0" /></g><g><rect fill="#FFF8E1" height="40" stroke="none" width="20" x="40.0" y="20.0" /><line stroke="#93C5FD" stroke-width="1.5" x1="40.0" x2="60.0" y1="20.0" y2="20.0" /><line stroke="#93C5FD" stroke-width="1.5" x1="40.0" x2="60.0" y1="60.0" y2="60.0" /><line stroke="#DC2626" stroke-width="1.5" x1="40.0" x2="40.0" y1="20.0" y2="60.0" /><line stroke="#DC2626" stroke-width="1.5" x1="60.0" x2="60.0" y1="20.0" y2="60.0" /><text dy="0.35em" fill="#1F2937" font-family="Inter, Segoe UI, Helvetica, Arial, sans-serif" font-size="11px" text-anchor="middle" x="50.0" y="40.0">K</text></g><line stroke="#A855F7" stroke-width="1.5" x1="40.0" x2="55.0" y1="20.0" y2="5.0" /><line stroke="#A855F7" stroke-width="1.5" x1="60.0" x2="75.0" y1="20.0" y2="5.0" /><line stroke="#A855F7" stroke-width="1.5" x1="60.0" x2="75.0" y1="60.0" y2="45.0" /><text dy="0.35em" font-family="Inter, Segoe UI, Helvetica, Arial, sans-serif" font-size="11px" font-style="italic" text-anchor="start" x="76.0" y="40.0"><tspan fill="#6B7280">(</tspan><tspan fill="#A855F7">H</tspan><tspan fill="#6B7280">,</tspan><tspan fill="#6B7280"> </tspan><tspan fill="#DC2626">S</tspan><tspan fill="#6B7280">,</tspan><tspan fill="#6B7280"> </tspan><tspan fill="#60A5FA">d</tspan><tspan baseline-shift="sub" fill="#60A5FA" font-size="8px">K</tspan><tspan fill="#6B7280">)</tspan></text></svg>