<?xml version="1.0" encoding="utf-8" ?>
<svg baseProfile="full" height="683px" version="1.1" viewBox="0 0 1568 683" width="1568px" xmlns="http://www.w3.org/2000/svg" xmlns:ev="http://www.w3.org/2001/xml-events" xmlns:xlink="http://www.w3.org/1999/xlink"><defs><marker id="arrowhead" markerHeight="4" markerWidth="4" orient="auto" refX="4" refY="2.0"><polygon fill="#374151" points="0,0 4,2.0 0,4" /></marker><pattern height="6" id="partial_dots" patternUnits="userSpaceOnUse" width="6"><circle cx="3" cy="3" fill="white" opacity="0.8" r="1.5" /></pattern><marker id="arrowhead_333333" markerHeight="4" markerWidth="4" orient="auto" refX="4" refY="2.0"><polygon fill="#333333" points="0,0 4,2.0 0,4" /></marker><marker id="ar_fwd" markerHeight="4" markerWidth="4" orient="auto" refX="4" refY="2.0"><polygon fill="#F97316" points="0,0 4,2.0 0,4" /></marker><marker id="ar_rev" markerHeight="4" markerWidth="4" orient="auto" refX="0" refY="2.0"><polygon fill="#F97316" points="4,0 0,2.0 4,4" /></marker></defs><text dy="0.35em" fill="#6B7280" font-family="Inter, Segoe UI, Helvetica, Arial, sans-serif" font-size="14px" text-anchor="middle" x="405.0" y="15.0">GPU 0</text><text dy="0.35em" fill="#6B7280" font-family="Inter, Segoe UI, Helvetica, Arial, sans-serif" font-size="14px" text-anchor="middle" x="1163.0" y="15.0">GPU 1</text><line stroke="#333333" stroke-width="1.5" x1="38" x2="38" y1="0" y2="30" /><line stroke="#333333" stroke-width="1.5" x1="38" x2="38" y1="46" y2="683" /><line stroke="#333333" stroke-width="1.5" x1="1530.0" x2="1530.0" y1="0" y2="30" /><line stroke="#333333" stroke-width="1.5" x1="1530.0" x2="1530.0" y1="46" y2="683" /><g><rect fill="#F3F4F6" height="40" stroke="none" width="80" x="256.0" y="597.0" /><line stroke="#1E40AF" stroke-width="1.5" x1="256.0" x2="336.0" y1="597.0" y2="597.0" /><line stroke="#1E40AF" stroke-width="1.5" x1="256.0" x2="336.0" y1="637.0" y2="637.0" /><line stroke="#DC2626" stroke-width="1.5" x1="256.0" x2="256.0" y1="597.0" y2="637.0" /><line stroke="#DC2626" stroke-width="1.5" x1="336.0" x2="336.0" y1="597.0" y2="637.0" /><text dy="0.35em" fill="#1F2937" font-family="Inter, Segoe UI, Helvetica, Arial, sans-serif" font-size="11px" text-anchor="middle" x="296.0" y="617.0">X</text></g><text dy="0.35em" font-family="Inter, Segoe UI, Helvetica, Arial, sans-serif" font-size="11px" font-style="italic" text-anchor="start" x="342.0" y="617.0"><tspan fill="#6B7280">(</tspan><tspan fill="#DC2626">S</tspan><tspan fill="#6B7280">,</tspan><tspan fill="#6B7280"> </tspan><tspan fill="#1E40AF">D</tspan><tspan fill="#6B7280">)</tspan></text><line stroke="#333333" stroke-width="1.5" x1="296.0" x2="296.0" y1="597.0" y2="581.0" /><line stroke="#333333" stroke-width="1.5" x1="136.0" x2="456.0" y1="581.0" y2="581.0" /><line marker-end="url(#arrowhead_333333)" stroke="#333333" stroke-width="1.5" x1="136.0" x2="136.0" y1="581.0" y2="536.0" /><line marker-end="url(#arrowhead_333333)" stroke="#333333" stroke-width="1.5" x1="456.0" x2="456.0" y1="581.0" y2="536.0" /><rect fill="#F9FAFB" height="22" rx="6" ry="6" stroke="#333333" stroke-width="1.5" width="48" x="112.0" y="514.0" /><text dy="0.35em" fill="#1F2937" font-family="Inter, Segoe UI, Helvetica, Arial, sans-serif" font-size="9px" text-anchor="middle" x="136.0" y="525.0">MatMul</text><rect fill="#F9FAFB" height="22" rx="6" ry="6" stroke="#333333" stroke-width="1.5" width="48" x="432.0" y="514.0" /><text dy="0.35em" fill="#1F2937" font-family="Inter, Segoe UI, Helvetica, Arial, sans-serif" font-size="9px" text-anchor="middle" x="456.0" y="525.0">MatMul</text><g><rect fill="#F3E8FF" height="80" stroke="none" width="120" x="246.0" y="485.0" /><line stroke="#059669" stroke-width="1.5" x1="246.0" x2="366.0" y1="485.0" y2="485.0" /><line stroke="#059669" stroke-width="1.5" x1="246.0" x2="366.0" y1="565.0" y2="565.0" /><line stroke="#1E40AF" stroke-width="1.5" x1="246.0" x2="246.0" y1="485.0" y2="565.0" /><line stroke="#1E40AF" stroke-width="1.5" x1="366.0" x2="366.0" y1="485.0" y2="565.0" /></g><text dy="0.35em" fill="#1F2937" font-family="Inter, Segoe UI, Helvetica, Arial, sans-serif" font-size="11px" text-anchor="middle" x="306.0" y="525.0"><tspan baseline-shift="sub" font-size="9px" /></text><text dy="0.35em" font-family="Inter, Segoe UI, Helvetica, Arial, sans-serif" font-size="11px" font-style="italic" text-anchor="start" x="372.0" y="525.0"><tspan fill="#6B7280">(</tspan><tspan fill="#1E40AF">D</tspan><tspan fill="#6B7280">,</tspan><tspan fill="#6B7280"> </tspan><tspan fill="#059669">F</tspan><tspan fill="#6B7280">/</tspan><tspan fill="#6B7280">T</tspan><tspan fill="#6B7280">)</tspan></text><line marker-end="url(#arrowhead_333333)" stroke="#333333" stroke-width="1.5" x1="246.0" x2="160.0" y1="525.0" y2="525.0" /><rect fill="white" fill-opacity="0.7" height="80" width="60.0" x="306.0" y="485.0" /><text dy="0.35em" fill="#1F2937" font-family="Inter, Segoe UI, Helvetica, Arial, sans-serif" font-size="11px" text-anchor="middle" x="306.0" y="525.0">W<tspan baseline-shift="sub" font-size="9px">Up</tspan></text><g><rect fill="#F3E8FF" height="80" stroke="none" width="120" x="566.0" y="485.0" /><line stroke="#059669" stroke-width="1.5" x1="566.0" x2="686.0" y1="485.0" y2="485.0" /><line stroke="#059669" stroke-width="1.5" x1="566.0" x2="686.0" y1="565.0" y2="565.0" /><line stroke="#1E40AF" stroke-width="1.5" x1="566.0" x2="566.0" y1="485.0" y2="565.0" /><line stroke="#1E40AF" stroke-width="1.5" x1="686.0" x2="686.0" y1="485.0" y2="565.0" /></g><text dy="0.35em" fill="#1F2937" font-family="Inter, Segoe UI, Helvetica, Arial, sans-serif" font-size="11px" text-anchor="middle" x="626.0" y="525.0"><tspan baseline-shift="sub" font-size="9px" /></text><text dy="0.35em" font-family="Inter, Segoe UI, Helvetica, Arial, sans-serif" font-size="11px" font-style="italic" text-anchor="start" x="692.0" y="525.0"><tspan fill="#6B7280">(</tspan><tspan fill="#1E40AF">D</tspan><tspan fill="#6B7280">,</tspan><tspan fill="#6B7280"> </tspan><tspan fill="#059669">F</tspan><tspan fill="#6B7280">/</tspan><tspan fill="#6B7280">T</tspan><tspan fill="#6B7280">)</tspan></text><line marker-end="url(#arrowhead_333333)" stroke="#333333" stroke-width="1.5" x1="566.0" x2="480.0" y1="525.0" y2="525.0" /><rect fill="white" fill-opacity="0.7" height="80" width="60.0" x="626.0" y="485.0" /><text dy="0.35em" fill="#1F2937" font-family="Inter, Segoe UI, Helvetica, Arial, sans-serif" font-size="11px" text-anchor="middle" x="626.0" y="525.0">W<tspan baseline-shift="sub" font-size="9px">Gate</tspan></text><line marker-end="url(#arrowhead_333333)" stroke="#333333" stroke-width="1.5" x1="136.0" x2="136.0" y1="514.0" y2="498.0" /><g><rect fill="#DBEAFE" height="40" stroke="none" width="120" x="76.0" y="458.0" /><line stroke="#059669" stroke-width="1.5" x1="76.0" x2="196.0" y1="458.0" y2="458.0" /><line stroke="#059669" stroke-width="1.5" x1="76.0" x2="196.0" y1="498.0" y2="498.0" /><line stroke="#DC2626" stroke-width="1.5" x1="76.0" x2="76.0" y1="458.0" y2="498.0" /><line stroke="#DC2626" stroke-width="1.5" x1="196.0" x2="196.0" y1="458.0" y2="498.0" /></g><text dy="0.35em" font-family="Inter, Segoe UI, Helvetica, Arial, sans-serif" font-size="11px" font-style="italic" text-anchor="start" x="202.0" y="478.0"><tspan fill="#6B7280">(</tspan><tspan fill="#DC2626">S</tspan><tspan fill="#6B7280">,</tspan><tspan fill="#6B7280"> </tspan><tspan fill="#059669">F</tspan><tspan fill="#6B7280">/</tspan><tspan fill="#6B7280">T</tspan><tspan fill="#6B7280">)</tspan></text><rect fill="white" fill-opacity="0.7" height="40" width="60.0" x="136.0" y="458.0" /><text dy="0.35em" fill="#1F2937" font-family="Inter, Segoe UI, Helvetica, Arial, sans-serif" font-size="11px" text-anchor="middle" x="136.0" y="478.0">Up proj</text><line stroke="#333333" stroke-width="1.5" x1="136.0" x2="136.0" y1="458.0" y2="340.0" /><line marker-end="url(#arrowhead_333333)" stroke="#333333" stroke-width="1.5" x1="456.0" x2="456.0" y1="514.0" y2="498.0" /><g><rect fill="#D1FAE5" height="40" stroke="none" width="120" x="396.0" y="458.0" /><line stroke="#059669" stroke-width="1.5" x1="396.0" x2="516.0" y1="458.0" y2="458.0" /><line stroke="#059669" stroke-width="1.5" x1="396.0" x2="516.0" y1="498.0" y2="498.0" /><line stroke="#DC2626" stroke-width="1.5" x1="396.0" x2="396.0" y1="458.0" y2="498.0" /><line stroke="#DC2626" stroke-width="1.5" x1="516.0" x2="516.0" y1="458.0" y2="498.0" /></g><text dy="0.35em" font-family="Inter, Segoe UI, Helvetica, Arial, sans-serif" font-size="11px" font-style="italic" text-anchor="start" x="522.0" y="478.0"><tspan fill="#6B7280">(</tspan><tspan fill="#DC2626">S</tspan><tspan fill="#6B7280">,</tspan><tspan fill="#6B7280"> </tspan><tspan fill="#059669">F</tspan><tspan fill="#6B7280">/</tspan><tspan fill="#6B7280">T</tspan><tspan fill="#6B7280">)</tspan></text><rect fill="white" fill-opacity="0.7" height="40" width="60.0" x="456.0" y="458.0" /><text dy="0.35em" fill="#1F2937" font-family="Inter, Segoe UI, Helvetica, Arial, sans-serif" font-size="11px" text-anchor="middle" x="456.0" y="478.0">Gate proj</text><line marker-end="url(#arrowhead_333333)" stroke="#333333" stroke-width="1.5" x1="456.0" x2="456.0" y1="458.0" y2="442.0" /><rect fill="#F9FAFB" height="22" rx="6" ry="6" stroke="#333333" stroke-width="1.5" width="48" x="432.0" y="420.0" /><text dy="0.35em" fill="#1F2937" font-family="Inter, Segoe UI, Helvetica, Arial, sans-serif" font-size="9px" text-anchor="middle" x="456.0" y="431.0">SiLU</text><line marker-end="url(#arrowhead_333333)" stroke="#333333" stroke-width="1.5" x1="456.0" x2="456.0" y1="420.0" y2="404.0" /><g><rect fill="#D1FAE5" height="40" stroke="none" width="120" x="396.0" y="364.0" /><line stroke="#059669" stroke-width="1.5" x1="396.0" x2="516.0" y1="364.0" y2="364.0" /><line stroke="#059669" stroke-width="1.5" x1="396.0" x2="516.0" y1="404.0" y2="404.0" /><line stroke="#DC2626" stroke-width="1.5" x1="396.0" x2="396.0" y1="364.0" y2="404.0" /><line stroke="#DC2626" stroke-width="1.5" x1="516.0" x2="516.0" y1="364.0" y2="404.0" /></g><text dy="0.35em" font-family="Inter, Segoe UI, Helvetica, Arial, sans-serif" font-size="11px" font-style="italic" text-anchor="start" x="522.0" y="384.0"><tspan fill="#6B7280">(</tspan><tspan fill="#DC2626">S</tspan><tspan fill="#6B7280">,</tspan><tspan fill="#6B7280"> </tspan><tspan fill="#059669">F</tspan><tspan fill="#6B7280">/</tspan><tspan fill="#6B7280">T</tspan><tspan fill="#6B7280">)</tspan></text><rect fill="white" fill-opacity="0.7" height="40" width="60.0" x="456.0" y="364.0" /><text dy="0.35em" fill="#1F2937" font-family="Inter, Segoe UI, Helvetica, Arial, sans-serif" font-size="11px" text-anchor="middle" x="456.0" y="384.0">Gate val</text><circle cx="136.0" cy="340.0" fill="white" r="8" stroke="#333333" stroke-width="1.5" /><text dy="0.35em" fill="#333333" font-family="Inter, Segoe UI, Helvetica, Arial, sans-serif" font-size="18px" text-anchor="middle" x="136.0" y="340.0">·</text><line stroke="#333333" stroke-width="1.5" x1="456.0" x2="456.0" y1="364.0" y2="340.0" /><line marker-end="url(#arrowhead_333333)" stroke="#333333" stroke-width="1.5" x1="456.0" x2="144.0" y1="340.0" y2="340.0" /><line marker-end="url(#arrowhead_333333)" stroke="#333333" stroke-width="1.5" x1="136.0" x2="136.0" y1="332.0" y2="316.0" /><g><rect fill="#DBEAFE" height="40" stroke="none" width="120" x="76.0" y="276.0" /><line stroke="#059669" stroke-width="1.5" x1="76.0" x2="196.0" y1="276.0" y2="276.0" /><line stroke="#059669" stroke-width="1.5" x1="76.0" x2="196.0" y1="316.0" y2="316.0" /><line stroke="#DC2626" stroke-width="1.5" x1="76.0" x2="76.0" y1="276.0" y2="316.0" /><line stroke="#DC2626" stroke-width="1.5" x1="196.0" x2="196.0" y1="276.0" y2="316.0" /></g><text dy="0.35em" font-family="Inter, Segoe UI, Helvetica, Arial, sans-serif" font-size="11px" font-style="italic" text-anchor="start" x="202.0" y="296.0"><tspan fill="#6B7280">(</tspan><tspan fill="#DC2626">S</tspan><tspan fill="#6B7280">,</tspan><tspan fill="#6B7280"> </tspan><tspan fill="#059669">F</tspan><tspan fill="#6B7280">/</tspan><tspan fill="#6B7280">T</tspan><tspan fill="#6B7280">)</tspan></text><rect fill="white" fill-opacity="0.7" height="40" width="60.0" x="136.0" y="276.0" /><text dy="0.35em" fill="#1F2937" font-family="Inter, Segoe UI, Helvetica, Arial, sans-serif" font-size="11px" text-anchor="middle" x="136.0" y="296.0">Gated up proj</text><line marker-end="url(#arrowhead_333333)" stroke="#333333" stroke-width="1.5" x1="136.0" x2="136.0" y1="276.0" y2="260.0" /><rect fill="#F9FAFB" height="22" rx="6" ry="6" stroke="#333333" stroke-width="1.5" width="48" x="112.0" y="238.0" /><text dy="0.35em" fill="#1F2937" font-family="Inter, Segoe UI, Helvetica, Arial, sans-serif" font-size="9px" text-anchor="middle" x="136.0" y="249.0">MatMul</text><g><rect fill="#F3E8FF" height="120" stroke="none" width="80" x="246.0" y="189.0" /><line stroke="#1E40AF" stroke-width="1.5" x1="246.0" x2="326.0" y1="189.0" y2="189.0" /><line stroke="#1E40AF" stroke-width="1.5" x1="246.0" x2="326.0" y1="309.0" y2="309.0" /><line stroke="#059669" stroke-width="1.5" x1="246.0" x2="246.0" y1="189.0" y2="309.0" /><line stroke="#059669" stroke-width="1.5" x1="326.0" x2="326.0" y1="189.0" y2="309.0" /></g><text dy="0.35em" fill="#1F2937" font-family="Inter, Segoe UI, Helvetica, Arial, sans-serif" font-size="11px" text-anchor="middle" x="286.0" y="249.0"><tspan baseline-shift="sub" font-size="9px" /></text><text dy="0.35em" font-family="Inter, Segoe UI, Helvetica, Arial, sans-serif" font-size="11px" font-style="italic" text-anchor="start" x="332.0" y="249.0"><tspan fill="#6B7280">(</tspan><tspan fill="#059669">F</tspan><tspan fill="#6B7280">/</tspan><tspan fill="#6B7280">T</tspan><tspan fill="#6B7280">,</tspan><tspan fill="#6B7280"> </tspan><tspan fill="#1E40AF">D</tspan><tspan fill="#6B7280">)</tspan></text><line marker-end="url(#arrowhead_333333)" stroke="#333333" stroke-width="1.5" x1="246.0" x2="160.0" y1="249.0" y2="249.0" /><rect fill="white" fill-opacity="0.7" height="60.0" width="80" x="246.0" y="249.0" /><text dy="0.35em" fill="#1F2937" font-family="Inter, Segoe UI, Helvetica, Arial, sans-serif" font-size="11px" text-anchor="middle" x="286.0" y="249.0">W<tspan baseline-shift="sub" font-size="9px">Down</tspan></text><line marker-end="url(#arrowhead_333333)" stroke="#333333" stroke-width="1.5" x1="136.0" x2="136.0" y1="238.0" y2="222.0" /><g><rect fill="#F3F4F6" height="40" stroke="none" width="80" x="96.0" y="182.0" /><line stroke="#1E40AF" stroke-width="1.5" x1="96.0" x2="176.0" y1="182.0" y2="182.0" /><line stroke="#1E40AF" stroke-width="1.5" x1="96.0" x2="176.0" y1="222.0" y2="222.0" /><line stroke="#DC2626" stroke-width="1.5" x1="96.0" x2="96.0" y1="182.0" y2="222.0" /><line stroke="#DC2626" stroke-width="1.5" x1="176.0" x2="176.0" y1="182.0" y2="222.0" /></g><text dy="0.35em" font-family="Inter, Segoe UI, Helvetica, Arial, sans-serif" font-size="11px" font-style="italic" text-anchor="start" x="182.0" y="202.0"><tspan fill="#6B7280">(</tspan><tspan fill="#DC2626">S</tspan><tspan fill="#6B7280">,</tspan><tspan fill="#6B7280"> </tspan><tspan fill="#1E40AF">D</tspan><tspan fill="#6B7280">)</tspan></text><rect fill="url(#partial_dots)" height="40" width="80" x="96.0" y="182.0" /><text dy="0.35em" fill="#1F2937" font-family="Inter, Segoe UI, Helvetica, Arial, sans-serif" font-size="11px" text-anchor="middle" x="136.0" y="202.0">Partial Out</text><g><rect fill="#F3F4F6" height="40" stroke="none" width="80" x="1014.0" y="597.0" /><line stroke="#1E40AF" stroke-width="1.5" x1="1014.0" x2="1094.0" y1="597.0" y2="597.0" /><line stroke="#1E40AF" stroke-width="1.5" x1="1014.0" x2="1094.0" y1="637.0" y2="637.0" /><line stroke="#DC2626" stroke-width="1.5" x1="1014.0" x2="1014.0" y1="597.0" y2="637.0" /><line stroke="#DC2626" stroke-width="1.5" x1="1094.0" x2="1094.0" y1="597.0" y2="637.0" /><text dy="0.35em" fill="#1F2937" font-family="Inter, Segoe UI, Helvetica, Arial, sans-serif" font-size="11px" text-anchor="middle" x="1054.0" y="617.0">X</text></g><text dy="0.35em" font-family="Inter, Segoe UI, Helvetica, Arial, sans-serif" font-size="11px" font-style="italic" text-anchor="start" x="1100.0" y="617.0"><tspan fill="#6B7280">(</tspan><tspan fill="#DC2626">S</tspan><tspan fill="#6B7280">,</tspan><tspan fill="#6B7280"> </tspan><tspan fill="#1E40AF">D</tspan><tspan fill="#6B7280">)</tspan></text><line stroke="#333333" stroke-width="1.5" x1="1054.0" x2="1054.0" y1="597.0" y2="581.0" /><line stroke="#333333" stroke-width="1.5" x1="894.0" x2="1214.0" y1="581.0" y2="581.0" /><line marker-end="url(#arrowhead_333333)" stroke="#333333" stroke-width="1.5" x1="894.0" x2="894.0" y1="581.0" y2="536.0" /><line marker-end="url(#arrowhead_333333)" stroke="#333333" stroke-width="1.5" x1="1214.0" x2="1214.0" y1="581.0" y2="536.0" /><rect fill="#F9FAFB" height="22" rx="6" ry="6" stroke="#333333" stroke-width="1.5" width="48" x="870.0" y="514.0" /><text dy="0.35em" fill="#1F2937" font-family="Inter, Segoe UI, Helvetica, Arial, sans-serif" font-size="9px" text-anchor="middle" x="894.0" y="525.0">MatMul</text><rect fill="#F9FAFB" height="22" rx="6" ry="6" stroke="#333333" stroke-width="1.5" width="48" x="1190.0" y="514.0" /><text dy="0.35em" fill="#1F2937" font-family="Inter, Segoe UI, Helvetica, Arial, sans-serif" font-size="9px" text-anchor="middle" x="1214.0" y="525.0">MatMul</text><g><rect fill="#F3E8FF" height="80" stroke="none" width="120" x="1004.0" y="485.0" /><line stroke="#059669" stroke-width="1.5" x1="1004.0" x2="1124.0" y1="485.0" y2="485.0" /><line stroke="#059669" stroke-width="1.5" x1="1004.0" x2="1124.0" y1="565.0" y2="565.0" /><line stroke="#1E40AF" stroke-width="1.5" x1="1004.0" x2="1004.0" y1="485.0" y2="565.0" /><line stroke="#1E40AF" stroke-width="1.5" x1="1124.0" x2="1124.0" y1="485.0" y2="565.0" /></g><text dy="0.35em" fill="#1F2937" font-family="Inter, Segoe UI, Helvetica, Arial, sans-serif" font-size="11px" text-anchor="middle" x="1064.0" y="525.0"><tspan baseline-shift="sub" font-size="9px" /></text><text dy="0.35em" font-family="Inter, Segoe UI, Helvetica, Arial, sans-serif" font-size="11px" font-style="italic" text-anchor="start" x="1130.0" y="525.0"><tspan fill="#6B7280">(</tspan><tspan fill="#1E40AF">D</tspan><tspan fill="#6B7280">,</tspan><tspan fill="#6B7280"> </tspan><tspan fill="#059669">F</tspan><tspan fill="#6B7280">/</tspan><tspan fill="#6B7280">T</tspan><tspan fill="#6B7280">)</tspan></text><line marker-end="url(#arrowhead_333333)" stroke="#333333" stroke-width="1.5" x1="1004.0" x2="918.0" y1="525.0" y2="525.0" /><rect fill="white" fill-opacity="0.7" height="80" width="60.0" x="1004.0" y="485.0" /><text dy="0.35em" fill="#1F2937" font-family="Inter, Segoe UI, Helvetica, Arial, sans-serif" font-size="11px" text-anchor="middle" x="1064.0" y="525.0">W<tspan baseline-shift="sub" font-size="9px">Up</tspan></text><g><rect fill="#F3E8FF" height="80" stroke="none" width="120" x="1324.0" y="485.0" /><line stroke="#059669" stroke-width="1.5" x1="1324.0" x2="1444.0" y1="485.0" y2="485.0" /><line stroke="#059669" stroke-width="1.5" x1="1324.0" x2="1444.0" y1="565.0" y2="565.0" /><line stroke="#1E40AF" stroke-width="1.5" x1="1324.0" x2="1324.0" y1="485.0" y2="565.0" /><line stroke="#1E40AF" stroke-width="1.5" x1="1444.0" x2="1444.0" y1="485.0" y2="565.0" /></g><text dy="0.35em" fill="#1F2937" font-family="Inter, Segoe UI, Helvetica, Arial, sans-serif" font-size="11px" text-anchor="middle" x="1384.0" y="525.0"><tspan baseline-shift="sub" font-size="9px" /></text><text dy="0.35em" font-family="Inter, Segoe UI, Helvetica, Arial, sans-serif" font-size="11px" font-style="italic" text-anchor="start" x="1450.0" y="525.0"><tspan fill="#6B7280">(</tspan><tspan fill="#1E40AF">D</tspan><tspan fill="#6B7280">,</tspan><tspan fill="#6B7280"> </tspan><tspan fill="#059669">F</tspan><tspan fill="#6B7280">/</tspan><tspan fill="#6B7280">T</tspan><tspan fill="#6B7280">)</tspan></text><line marker-end="url(#arrowhead_333333)" stroke="#333333" stroke-width="1.5" x1="1324.0" x2="1238.0" y1="525.0" y2="525.0" /><rect fill="white" fill-opacity="0.7" height="80" width="60.0" x="1324.0" y="485.0" /><text dy="0.35em" fill="#1F2937" font-family="Inter, Segoe UI, Helvetica, Arial, sans-serif" font-size="11px" text-anchor="middle" x="1384.0" y="525.0">W<tspan baseline-shift="sub" font-size="9px">Gate</tspan></text><line marker-end="url(#arrowhead_333333)" stroke="#333333" stroke-width="1.5" x1="894.0" x2="894.0" y1="514.0" y2="498.0" /><g><rect fill="#DBEAFE" height="40" stroke="none" width="120" x="834.0" y="458.0" /><line stroke="#059669" stroke-width="1.5" x1="834.0" x2="954.0" y1="458.0" y2="458.0" /><line stroke="#059669" stroke-width="1.5" x1="834.0" x2="954.0" y1="498.0" y2="498.0" /><line stroke="#DC2626" stroke-width="1.5" x1="834.0" x2="834.0" y1="458.0" y2="498.0" /><line stroke="#DC2626" stroke-width="1.5" x1="954.0" x2="954.0" y1="458.0" y2="498.0" /></g><text dy="0.35em" font-family="Inter, Segoe UI, Helvetica, Arial, sans-serif" font-size="11px" font-style="italic" text-anchor="start" x="960.0" y="478.0"><tspan fill="#6B7280">(</tspan><tspan fill="#DC2626">S</tspan><tspan fill="#6B7280">,</tspan><tspan fill="#6B7280"> </tspan><tspan fill="#059669">F</tspan><tspan fill="#6B7280">/</tspan><tspan fill="#6B7280">T</tspan><tspan fill="#6B7280">)</tspan></text><rect fill="white" fill-opacity="0.7" height="40" width="60.0" x="834.0" y="458.0" /><text dy="0.35em" fill="#1F2937" font-family="Inter, Segoe UI, Helvetica, Arial, sans-serif" font-size="11px" text-anchor="middle" x="894.0" y="478.0">Up proj</text><line stroke="#333333" stroke-width="1.5" x1="894.0" x2="894.0" y1="458.0" y2="340.0" /><line marker-end="url(#arrowhead_333333)" stroke="#333333" stroke-width="1.5" x1="1214.0" x2="1214.0" y1="514.0" y2="498.0" /><g><rect fill="#D1FAE5" height="40" stroke="none" width="120" x="1154.0" y="458.0" /><line stroke="#059669" stroke-width="1.5" x1="1154.0" x2="1274.0" y1="458.0" y2="458.0" /><line stroke="#059669" stroke-width="1.5" x1="1154.0" x2="1274.0" y1="498.0" y2="498.0" /><line stroke="#DC2626" stroke-width="1.5" x1="1154.0" x2="1154.0" y1="458.0" y2="498.0" /><line stroke="#DC2626" stroke-width="1.5" x1="1274.0" x2="1274.0" y1="458.0" y2="498.0" /></g><text dy="0.35em" font-family="Inter, Segoe UI, Helvetica, Arial, sans-serif" font-size="11px" font-style="italic" text-anchor="start" x="1280.0" y="478.0"><tspan fill="#6B7280">(</tspan><tspan fill="#DC2626">S</tspan><tspan fill="#6B7280">,</tspan><tspan fill="#6B7280"> </tspan><tspan fill="#059669">F</tspan><tspan fill="#6B7280">/</tspan><tspan fill="#6B7280">T</tspan><tspan fill="#6B7280">)</tspan></text><rect fill="white" fill-opacity="0.7" height="40" width="60.0" x="1154.0" y="458.0" /><text dy="0.35em" fill="#1F2937" font-family="Inter, Segoe UI, Helvetica, Arial, sans-serif" font-size="11px" text-anchor="middle" x="1214.0" y="478.0">Gate proj</text><line marker-end="url(#arrowhead_333333)" stroke="#333333" stroke-width="1.5" x1="1214.0" x2="1214.0" y1="458.0" y2="442.0" /><rect fill="#F9FAFB" height="22" rx="6" ry="6" stroke="#333333" stroke-width="1.5" width="48" x="1190.0" y="420.0" /><text dy="0.35em" fill="#1F2937" font-family="Inter, Segoe UI, Helvetica, Arial, sans-serif" font-size="9px" text-anchor="middle" x="1214.0" y="431.0">SiLU</text><line marker-end="url(#arrowhead_333333)" stroke="#333333" stroke-width="1.5" x1="1214.0" x2="1214.0" y1="420.0" y2="404.0" /><g><rect fill="#D1FAE5" height="40" stroke="none" width="120" x="1154.0" y="364.0" /><line stroke="#059669" stroke-width="1.5" x1="1154.0" x2="1274.0" y1="364.0" y2="364.0" /><line stroke="#059669" stroke-width="1.5" x1="1154.0" x2="1274.0" y1="404.0" y2="404.0" /><line stroke="#DC2626" stroke-width="1.5" x1="1154.0" x2="1154.0" y1="364.0" y2="404.0" /><line stroke="#DC2626" stroke-width="1.5" x1="1274.0" x2="1274.0" y1="364.0" y2="404.0" /></g><text dy="0.35em" font-family="Inter, Segoe UI, Helvetica, Arial, sans-serif" font-size="11px" font-style="italic" text-anchor="start" x="1280.0" y="384.0"><tspan fill="#6B7280">(</tspan><tspan fill="#DC2626">S</tspan><tspan fill="#6B7280">,</tspan><tspan fill="#6B7280"> </tspan><tspan fill="#059669">F</tspan><tspan fill="#6B7280">/</tspan><tspan fill="#6B7280">T</tspan><tspan fill="#6B7280">)</tspan></text><rect fill="white" fill-opacity="0.7" height="40" width="60.0" x="1154.0" y="364.0" /><text dy="0.35em" fill="#1F2937" font-family="Inter, Segoe UI, Helvetica, Arial, sans-serif" font-size="11px" text-anchor="middle" x="1214.0" y="384.0">Gate val</text><circle cx="894.0" cy="340.0" fill="white" r="8" stroke="#333333" stroke-width="1.5" /><text dy="0.35em" fill="#333333" font-family="Inter, Segoe UI, Helvetica, Arial, sans-serif" font-size="18px" text-anchor="middle" x="894.0" y="340.0">·</text><line stroke="#333333" stroke-width="1.5" x1="1214.0" x2="1214.0" y1="364.0" y2="340.0" /><line marker-end="url(#arrowhead_333333)" stroke="#333333" stroke-width="1.5" x1="1214.0" x2="902.0" y1="340.0" y2="340.0" /><line marker-end="url(#arrowhead_333333)" stroke="#333333" stroke-width="1.5" x1="894.0" x2="894.0" y1="332.0" y2="316.0" /><g><rect fill="#DBEAFE" height="40" stroke="none" width="120" x="834.0" y="276.0" /><line stroke="#059669" stroke-width="1.5" x1="834.0" x2="954.0" y1="276.0" y2="276.0" /><line stroke="#059669" stroke-width="1.5" x1="834.0" x2="954.0" y1="316.0" y2="316.0" /><line stroke="#DC2626" stroke-width="1.5" x1="834.0" x2="834.0" y1="276.0" y2="316.0" /><line stroke="#DC2626" stroke-width="1.5" x1="954.0" x2="954.0" y1="276.0" y2="316.0" /></g><text dy="0.35em" font-family="Inter, Segoe UI, Helvetica, Arial, sans-serif" font-size="11px" font-style="italic" text-anchor="start" x="960.0" y="296.0"><tspan fill="#6B7280">(</tspan><tspan fill="#DC2626">S</tspan><tspan fill="#6B7280">,</tspan><tspan fill="#6B7280"> </tspan><tspan fill="#059669">F</tspan><tspan fill="#6B7280">/</tspan><tspan fill="#6B7280">T</tspan><tspan fill="#6B7280">)</tspan></text><rect fill="white" fill-opacity="0.7" height="40" width="60.0" x="834.0" y="276.0" /><text dy="0.35em" fill="#1F2937" font-family="Inter, Segoe UI, Helvetica, Arial, sans-serif" font-size="11px" text-anchor="middle" x="894.0" y="296.0">Gated up proj</text><line marker-end="url(#arrowhead_333333)" stroke="#333333" stroke-width="1.5" x1="894.0" x2="894.0" y1="276.0" y2="260.0" /><rect fill="#F9FAFB" height="22" rx="6" ry="6" stroke="#333333" stroke-width="1.5" width="48" x="870.0" y="238.0" /><text dy="0.35em" fill="#1F2937" font-family="Inter, Segoe UI, Helvetica, Arial, sans-serif" font-size="9px" text-anchor="middle" x="894.0" y="249.0">MatMul</text><g><rect fill="#F3E8FF" height="120" stroke="none" width="80" x="1004.0" y="189.0" /><line stroke="#1E40AF" stroke-width="1.5" x1="1004.0" x2="1084.0" y1="189.0" y2="189.0" /><line stroke="#1E40AF" stroke-width="1.5" x1="1004.0" x2="1084.0" y1="309.0" y2="309.0" /><line stroke="#059669" stroke-width="1.5" x1="1004.0" x2="1004.0" y1="189.0" y2="309.0" /><line stroke="#059669" stroke-width="1.5" x1="1084.0" x2="1084.0" y1="189.0" y2="309.0" /></g><text dy="0.35em" fill="#1F2937" font-family="Inter, Segoe UI, Helvetica, Arial, sans-serif" font-size="11px" text-anchor="middle" x="1044.0" y="249.0"><tspan baseline-shift="sub" font-size="9px" /></text><text dy="0.35em" font-family="Inter, Segoe UI, Helvetica, Arial, sans-serif" font-size="11px" font-style="italic" text-anchor="start" x="1090.0" y="249.0"><tspan fill="#6B7280">(</tspan><tspan fill="#059669">F</tspan><tspan fill="#6B7280">/</tspan><tspan fill="#6B7280">T</tspan><tspan fill="#6B7280">,</tspan><tspan fill="#6B7280"> </tspan><tspan fill="#1E40AF">D</tspan><tspan fill="#6B7280">)</tspan></text><line marker-end="url(#arrowhead_333333)" stroke="#333333" stroke-width="1.5" x1="1004.0" x2="918.0" y1="249.0" y2="249.0" /><rect fill="white" fill-opacity="0.7" height="60.0" width="80" x="1004.0" y="189.0" /><text dy="0.35em" fill="#1F2937" font-family="Inter, Segoe UI, Helvetica, Arial, sans-serif" font-size="11px" text-anchor="middle" x="1044.0" y="249.0">W<tspan baseline-shift="sub" font-size="9px">Down</tspan></text><line marker-end="url(#arrowhead_333333)" stroke="#333333" stroke-width="1.5" x1="894.0" x2="894.0" y1="238.0" y2="222.0" /><g><rect fill="#F3F4F6" height="40" stroke="none" width="80" x="854.0" y="182.0" /><line stroke="#1E40AF" stroke-width="1.5" x1="854.0" x2="934.0" y1="182.0" y2="182.0" /><line stroke="#1E40AF" stroke-width="1.5" x1="854.0" x2="934.0" y1="222.0" y2="222.0" /><line stroke="#DC2626" stroke-width="1.5" x1="854.0" x2="854.0" y1="182.0" y2="222.0" /><line stroke="#DC2626" stroke-width="1.5" x1="934.0" x2="934.0" y1="182.0" y2="222.0" /></g><text dy="0.35em" font-family="Inter, Segoe UI, Helvetica, Arial, sans-serif" font-size="11px" font-style="italic" text-anchor="start" x="940.0" y="202.0"><tspan fill="#6B7280">(</tspan><tspan fill="#DC2626">S</tspan><tspan fill="#6B7280">,</tspan><tspan fill="#6B7280"> </tspan><tspan fill="#1E40AF">D</tspan><tspan fill="#6B7280">)</tspan></text><rect fill="url(#partial_dots)" height="40" width="80" x="854.0" y="182.0" /><text dy="0.35em" fill="#1F2937" font-family="Inter, Segoe UI, Helvetica, Arial, sans-serif" font-size="11px" text-anchor="middle" x="894.0" y="202.0">Partial Out</text><line stroke="#333333" stroke-width="1.5" x1="38" x2="296.0" y1="653.0" y2="653.0" /><line marker-end="url(#arrowhead_333333)" stroke="#333333" stroke-width="1.5" x1="296.0" x2="296.0" y1="653.0" y2="637.0" /><line stroke="#333333" stroke-width="1.5" x1="1054.0" x2="1530.0" y1="653.0" y2="653.0" /><line marker-end="url(#arrowhead_333333)" stroke="#333333" stroke-width="1.5" x1="1054.0" x2="1054.0" y1="653.0" y2="637.0" /><line marker-end="url(#arrowhead_333333)" stroke="#333333" stroke-width="1.5" x1="136.0" x2="136.0" y1="182.0" y2="150.0" /><line marker-end="url(#arrowhead_333333)" stroke="#333333" stroke-width="1.5" x1="894.0" x2="894.0" y1="182.0" y2="150.0" /><circle cx="136.0" cy="142.0" fill="white" r="8" stroke="#333333" stroke-width="1.5" /><text dy="0.3em" fill="#333333" font-family="Inter, Segoe UI, Helvetica, Arial, sans-serif" font-size="14px" text-anchor="middle" x="136.0" y="142.0">+</text><circle cx="894.0" cy="142.0" fill="white" r="8" stroke="#333333" stroke-width="1.5" /><text dy="0.3em" fill="#333333" font-family="Inter, Segoe UI, Helvetica, Arial, sans-serif" font-size="14px" text-anchor="middle" x="894.0" y="142.0">+</text><line marker-end="url(#ar_fwd)" marker-start="url(#ar_rev)" stroke="#F97316" stroke-width="2" x1="144.0" x2="475.0" y1="142.0" y2="142.0" /><line marker-end="url(#ar_fwd)" marker-start="url(#ar_rev)" stroke="#F97316" stroke-width="2" x1="555.0" x2="886.0" y1="142.0" y2="142.0" /><rect fill="#FFEDD5" height="22" rx="6" ry="6" stroke="#F97316" stroke-width="1.5" width="80" x="475.0" y="131.0" /><text dy="0.35em" fill="#1F2937" font-family="Inter, Segoe UI, Helvetica, Arial, sans-serif" font-size="9px" text-anchor="middle" x="515.0" y="142.0">All-Reduce</text><line marker-end="url(#arrowhead_333333)" stroke="#333333" stroke-width="1.5" x1="136.0" x2="136.0" y1="134.0" y2="102.0" /><line marker-end="url(#arrowhead_333333)" stroke="#333333" stroke-width="1.5" x1="894.0" x2="894.0" y1="134.0" y2="102.0" /><g><rect fill="#F3F4F6" height="40" stroke="none" width="80" x="96.0" y="62.0" /><line stroke="#1E40AF" stroke-width="1.5" x1="96.0" x2="176.0" y1="62.0" y2="62.0" /><line stroke="#1E40AF" stroke-width="1.5" x1="96.0" x2="176.0" y1="102.0" y2="102.0" /><line stroke="#DC2626" stroke-width="1.5" x1="96.0" x2="96.0" y1="62.0" y2="102.0" /><line stroke="#DC2626" stroke-width="1.5" x1="176.0" x2="176.0" y1="62.0" y2="102.0" /><text dy="0.35em" fill="#1F2937" font-family="Inter, Segoe UI, Helvetica, Arial, sans-serif" font-size="11px" text-anchor="middle" x="136.0" y="82.0">Output</text></g><text dy="0.35em" font-family="Inter, Segoe UI, Helvetica, Arial, sans-serif" font-size="11px" font-style="italic" text-anchor="start" x="182.0" y="82.0"><tspan fill="#6B7280">(</tspan><tspan fill="#DC2626">S</tspan><tspan fill="#6B7280">,</tspan><tspan fill="#6B7280"> </tspan><tspan fill="#1E40AF">D</tspan><tspan fill="#6B7280">)</tspan></text><g><rect fill="#F3F4F6" height="40" stroke="none" width="80" x="854.0" y="62.0" /><line stroke="#1E40AF" stroke-width="1.5" x1="854.0" x2="934.0" y1="62.0" y2="62.0" /><line stroke="#1E40AF" stroke-width="1.5" x1="854.0" x2="934.0" y1="102.0" y2="102.0" /><line stroke="#DC2626" stroke-width="1.5" x1="854.0" x2="854.0" y1="62.0" y2="102.0" /><line stroke="#DC2626" stroke-width="1.5" x1="934.0" x2="934.0" y1="62.0" y2="102.0" /><text dy="0.35em" fill="#1F2937" font-family="Inter, Segoe UI, Helvetica, Arial, sans-serif" font-size="11px" text-anchor="middle" x="894.0" y="82.0">Output</text></g><text dy="0.35em" font-family="Inter, Segoe UI, Helvetica, Arial, sans-serif" font-size="11px" font-style="italic" text-anchor="start" x="940.0" y="82.0"><tspan fill="#6B7280">(</tspan><tspan fill="#DC2626">S</tspan><tspan fill="#6B7280">,</tspan><tspan fill="#6B7280"> </tspan><tspan fill="#1E40AF">D</tspan><tspan fill="#6B7280">)</tspan></text><line stroke="#333333" stroke-width="1.5" x1="136.0" x2="136.0" y1="62.0" y2="38" /><line marker-end="url(#arrowhead_333333)" stroke="#333333" stroke-width="1.5" x1="136.0" x2="46" y1="38" y2="38" /><circle cx="38" cy="38" fill="white" r="8" stroke="#333333" stroke-width="1.5" /><text dy="0.3em" fill="#333333" font-family="Inter, Segoe UI, Helvetica, Arial, sans-serif" font-size="14px" text-anchor="middle" x="38" y="38">+</text><line stroke="#333333" stroke-width="1.5" x1="894.0" x2="894.0" y1="62.0" y2="38" /><line marker-end="url(#arrowhead_333333)" stroke="#333333" stroke-width="1.5" x1="894.0" x2="1522.0" y1="38" y2="38" /><circle cx="1530.0" cy="38" fill="white" r="8" stroke="#333333" stroke-width="1.5" /><text dy="0.3em" fill="#333333" font-family="Inter, Segoe UI, Helvetica, Arial, sans-serif" font-size="14px" text-anchor="middle" x="1530.0" y="38">+</text></svg>