<?xml version="1.0" encoding="utf-8" ?>
<svg baseProfile="full" height="421.0px" version="1.1" viewBox="0 0 450 421.0" width="450px" xmlns="http://www.w3.org/2000/svg" xmlns:ev="http://www.w3.org/2001/xml-events" xmlns:xlink="http://www.w3.org/1999/xlink"><defs><marker id="arrowhead" markerHeight="4" markerWidth="4" orient="auto" refX="4" refY="2.0"><polygon fill="#374151" points="0,0 4,2.0 0,4" /></marker><marker id="arrowhead_333333" markerHeight="4" markerWidth="4" orient="auto" refX="4" refY="2.0"><polygon fill="#333333" points="0,0 4,2.0 0,4" /></marker></defs><text dy="0.35em" fill="#1F2937" font-family="Inter, Segoe UI, Helvetica, Arial, sans-serif" font-size="14px" text-anchor="middle" x="281.0" y="10">Output</text><text dy="0.35em" fill="#1F2937" font-family="Inter, Segoe UI, Helvetica, Arial, sans-serif" font-size="14px" text-anchor="middle" x="281.0" y="25">Probabilities</text><line marker-end="url(#arrowhead_333333)" stroke="#333333" stroke-width="1.5" x1="281.0" x2="281.0" y1="46" y2="34" /><rect fill="#cce7cf" height="16" rx="5" ry="5" stroke="#333333" stroke-width="1.5" width="100" x="231.0" y="46" /><text dy="0.35em" fill="#1F2937" font-family="Inter, Segoe UI, Helvetica, Arial, sans-serif" font-size="11px" text-anchor="middle" x="281.0" y="54.0">Softmax</text><line marker-end="url(#arrowhead_333333)" stroke="#333333" stroke-width="1.5" x1="281.0" x2="281.0" y1="74" y2="62" /><rect fill="#dbdfef" height="16" rx="5" ry="5" stroke="#333333" stroke-width="1.5" width="100" x="231.0" y="74" /><text dy="0.35em" fill="#1F2937" font-family="Inter, Segoe UI, Helvetica, Arial, sans-serif" font-size="11px" text-anchor="middle" x="281.0" y="82.0">Linear</text><line marker-end="url(#arrowhead_333333)" stroke="#333333" stroke-width="1.5" x1="281.0" x2="281.0" y1="105.0" y2="90" /><rect fill="#f2f4c1" height="16" rx="5" ry="5" stroke="#333333" stroke-width="1.5" width="100" x="231.0" y="105.0" /><text dy="0.35em" fill="#1F2937" font-family="Inter, Segoe UI, Helvetica, Arial, sans-serif" font-size="11px" text-anchor="middle" x="281.0" y="113.0">Add &amp; Norm</text><line stroke="#333333" stroke-width="1.5" x1="281.0" x2="281.0" y1="127.0" y2="121.0" /><rect fill="#c2e8f7" height="26" rx="6" ry="6" stroke="#333333" stroke-width="1.5" width="100" x="231.0" y="127.0" /><text dy="0.35em" fill="#1F2937" font-family="Inter, Segoe UI, Helvetica, Arial, sans-serif" font-size="11px" text-anchor="middle" x="281.0" y="133.5">Feed</text><text dy="0.35em" fill="#1F2937" font-family="Inter, Segoe UI, Helvetica, Arial, sans-serif" font-size="11px" text-anchor="middle" x="281.0" y="146.5">Forward</text><line stroke="#333333" stroke-width="1.2" x1="281.0" x2="351.0" y1="162.0" y2="162.0" /><line stroke="#333333" stroke-width="1.2" x1="351.0" x2="351.0" y1="162.0" y2="113.0" /><line marker-end="url(#arrowhead_333333)" stroke="#333333" stroke-width="1.5" x1="351.0" x2="331.0" y1="113.0" y2="113.0" /><line marker-end="url(#arrowhead_333333)" stroke="#333333" stroke-width="1.5" x1="281.0" x2="281.0" y1="168.0" y2="153.0" /><rect fill="#f2f4c1" height="16" rx="5" ry="5" stroke="#333333" stroke-width="1.5" width="100" x="231.0" y="168.0" /><text dy="0.35em" fill="#1F2937" font-family="Inter, Segoe UI, Helvetica, Arial, sans-serif" font-size="11px" text-anchor="middle" x="281.0" y="176.0">Add &amp; Norm</text><line stroke="#333333" stroke-width="1.5" x1="281.0" x2="281.0" y1="190.0" y2="184.0" /><rect fill="#ffe2bb" height="26" rx="6" ry="6" stroke="#333333" stroke-width="1.5" width="100" x="231.0" y="190.0" /><text dy="0.35em" fill="#1F2937" font-family="Inter, Segoe UI, Helvetica, Arial, sans-serif" font-size="11px" text-anchor="middle" x="281.0" y="196.5">Multi-Head</text><text dy="0.35em" fill="#1F2937" font-family="Inter, Segoe UI, Helvetica, Arial, sans-serif" font-size="11px" text-anchor="middle" x="281.0" y="209.5">Attention</text><line stroke="#333333" stroke-width="1.5" x1="281.0" x2="243.5" y1="225.0" y2="225.0" /><line stroke="#333333" stroke-width="1.5" x1="281.0" x2="318.5" y1="228.0" y2="228.0" /><line marker-end="url(#arrowhead_333333)" stroke="#333333" stroke-width="1.5" x1="243.5" x2="243.5" y1="225.0" y2="216.0" /><line marker-end="url(#arrowhead_333333)" stroke="#333333" stroke-width="1.5" x1="318.5" x2="318.5" y1="228.0" y2="216.0" /><line stroke="#333333" stroke-width="1.2" x1="281.0" x2="351.0" y1="234.0" y2="234.0" /><line stroke="#333333" stroke-width="1.2" x1="351.0" x2="351.0" y1="234.0" y2="176.0" /><line marker-end="url(#arrowhead_333333)" stroke="#333333" stroke-width="1.5" x1="351.0" x2="331.0" y1="176.0" y2="176.0" /><line marker-end="url(#arrowhead_333333)" stroke="#333333" stroke-width="1.5" x1="281.0" x2="281.0" y1="225.0" y2="216.0" /><line stroke="#333333" stroke-width="1.5" x1="281.0" x2="281.0" y1="240.0" y2="228.0" /><rect fill="#f2f4c1" height="16" rx="5" ry="5" stroke="#333333" stroke-width="1.5" width="100" x="231.0" y="240.0" /><text dy="0.35em" fill="#1F2937" font-family="Inter, Segoe UI, Helvetica, Arial, sans-serif" font-size="11px" text-anchor="middle" x="281.0" y="248.0">Add &amp; Norm</text><line stroke="#333333" stroke-width="1.5" x1="281.0" x2="281.0" y1="262.0" y2="256.0" /><rect fill="#ffe2bb" height="38" rx="6" ry="6" stroke="#333333" stroke-width="1.5" width="100" x="231.0" y="262.0" /><text dy="0.35em" fill="#1F2937" font-family="Inter, Segoe UI, Helvetica, Arial, sans-serif" font-size="11px" text-anchor="middle" x="281.0" y="268.0">Masked</text><text dy="0.35em" fill="#1F2937" font-family="Inter, Segoe UI, Helvetica, Arial, sans-serif" font-size="11px" text-anchor="middle" x="281.0" y="281.0">Multi-Head</text><text dy="0.35em" fill="#1F2937" font-family="Inter, Segoe UI, Helvetica, Arial, sans-serif" font-size="11px" text-anchor="middle" x="281.0" y="294.0">Attention</text><line stroke="#333333" stroke-width="1.5" x1="281.0" x2="243.5" y1="309.0" y2="309.0" /><line stroke="#333333" stroke-width="1.5" x1="281.0" x2="318.5" y1="309.0" y2="309.0" /><line marker-end="url(#arrowhead_333333)" stroke="#333333" stroke-width="1.5" x1="243.5" x2="243.5" y1="309.0" y2="300.0" /><line marker-end="url(#arrowhead_333333)" stroke="#333333" stroke-width="1.5" x1="318.5" x2="318.5" y1="309.0" y2="300.0" /><line stroke="#333333" stroke-width="1.2" x1="281.0" x2="351.0" y1="318.0" y2="318.0" /><line stroke="#333333" stroke-width="1.2" x1="351.0" x2="351.0" y1="318.0" y2="248.0" /><line marker-end="url(#arrowhead_333333)" stroke="#333333" stroke-width="1.5" x1="351.0" x2="331.0" y1="248.0" y2="248.0" /><rect fill="none" height="225.0" rx="6" stroke="#999" stroke-width="1.5" width="144" x="219.0" y="99.0" /><text dy="0.35em" fill="#666666" font-family="Inter, Segoe UI, Helvetica, Arial, sans-serif" font-size="14px" text-anchor="start" x="369.0" y="211.5">N×</text><line marker-end="url(#arrowhead_333333)" stroke="#333333" stroke-width="1.5" x1="281.0" x2="281.0" y1="330.0" y2="300.0" /><circle cx="281.0" cy="335.0" fill="white" r="5" stroke="#333333" stroke-width="1.5" /><text dy="0.3em" fill="#333333" font-family="Inter, Segoe UI, Helvetica, Arial, sans-serif" font-size="14px" text-anchor="middle" x="281.0" y="335.0">+</text><text dy="0.35em" fill="#333333" font-family="Inter, Segoe UI, Helvetica, Arial, sans-serif" font-size="11px" text-anchor="start" x="361.0" y="329.0">Positional</text><text dy="0.35em" fill="#333333" font-family="Inter, Segoe UI, Helvetica, Arial, sans-serif" font-size="11px" text-anchor="start" x="361.0" y="345.0">Encoding</text><path d="M357.0,335.0 q-8,-8 -16,0 q-8,8 -16,0" fill="none" stroke="#333333" stroke-width="1.2" /><line marker-end="url(#arrowhead_333333)" stroke="#333333" stroke-width="1.5" x1="321.0" x2="288.0" y1="335.0" y2="335.0" /><line marker-end="url(#arrowhead_333333)" stroke="#333333" stroke-width="1.5" x1="281.0" x2="281.0" y1="352.0" y2="340.0" /><rect fill="#fce0e1" height="26" rx="5" ry="5" stroke="#333333" stroke-width="1.5" width="100" x="231.0" y="352.0" /><text dy="0.35em" fill="#1F2937" font-family="Inter, Segoe UI, Helvetica, Arial, sans-serif" font-size="11px" text-anchor="middle" x="281.0" y="365.0">Output Embedding</text><line marker-end="url(#arrowhead_333333)" stroke="#333333" stroke-width="1.5" x1="281.0" x2="281.0" y1="390.0" y2="378.0" /><text dy="0.35em" fill="#1F2937" font-family="Inter, Segoe UI, Helvetica, Arial, sans-serif" font-size="14px" text-anchor="middle" x="281.0" y="396.0">Outputs</text><text dy="0.35em" fill="#666666" font-family="Inter, Segoe UI, Helvetica, Arial, sans-serif" font-size="11px" text-anchor="middle" x="281.0" y="411.0">(shifted right)</text><rect fill="#f2f4c1" height="16" rx="5" ry="5" stroke="#333333" stroke-width="1.5" width="100" x="83.0" y="189.0" /><text dy="0.35em" fill="#1F2937" font-family="Inter, Segoe UI, Helvetica, Arial, sans-serif" font-size="11px" text-anchor="middle" x="133.0" y="197.0">Add &amp; Norm</text><line stroke="#333333" stroke-width="1.5" x1="281.0" x2="281.0" y1="211.0" y2="205.0" /><rect fill="#c2e8f7" height="26" rx="6" ry="6" stroke="#333333" stroke-width="1.5" width="100" x="83.0" y="211.0" /><text dy="0.35em" fill="#1F2937" font-family="Inter, Segoe UI, Helvetica, Arial, sans-serif" font-size="11px" text-anchor="middle" x="133.0" y="217.5">Feed</text><text dy="0.35em" fill="#1F2937" font-family="Inter, Segoe UI, Helvetica, Arial, sans-serif" font-size="11px" text-anchor="middle" x="133.0" y="230.5">Forward</text><line stroke="#333333" stroke-width="1.2" x1="133.0" x2="63.0" y1="246.0" y2="246.0" /><line stroke="#333333" stroke-width="1.2" x1="63.0" x2="63.0" y1="246.0" y2="197.0" /><line marker-end="url(#arrowhead_333333)" stroke="#333333" stroke-width="1.5" x1="63.0" x2="83.0" y1="197.0" y2="197.0" /><line marker-end="url(#arrowhead_333333)" stroke="#333333" stroke-width="1.5" x1="133.0" x2="133.0" y1="252.0" y2="237.0" /><rect fill="#f2f4c1" height="16" rx="5" ry="5" stroke="#333333" stroke-width="1.5" width="100" x="83.0" y="252.0" /><text dy="0.35em" fill="#1F2937" font-family="Inter, Segoe UI, Helvetica, Arial, sans-serif" font-size="11px" text-anchor="middle" x="133.0" y="260.0">Add &amp; Norm</text><line stroke="#333333" stroke-width="1.5" x1="133.0" x2="133.0" y1="274.0" y2="268.0" /><rect fill="#ffe2bb" height="26" rx="6" ry="6" stroke="#333333" stroke-width="1.5" width="100" x="83.0" y="274.0" /><text dy="0.35em" fill="#1F2937" font-family="Inter, Segoe UI, Helvetica, Arial, sans-serif" font-size="11px" text-anchor="middle" x="133.0" y="280.5">Multi-Head</text><text dy="0.35em" fill="#1F2937" font-family="Inter, Segoe UI, Helvetica, Arial, sans-serif" font-size="11px" text-anchor="middle" x="133.0" y="293.5">Attention</text><line stroke="#333333" stroke-width="1.5" x1="133.0" x2="95.5" y1="309.0" y2="309.0" /><line stroke="#333333" stroke-width="1.5" x1="133.0" x2="170.5" y1="309.0" y2="309.0" /><line marker-end="url(#arrowhead_333333)" stroke="#333333" stroke-width="1.5" x1="95.5" x2="95.5" y1="309.0" y2="300.0" /><line marker-end="url(#arrowhead_333333)" stroke="#333333" stroke-width="1.5" x1="170.5" x2="170.5" y1="309.0" y2="300.0" /><line stroke="#333333" stroke-width="1.2" x1="133.0" x2="63.0" y1="318.0" y2="318.0" /><line stroke="#333333" stroke-width="1.2" x1="63.0" x2="63.0" y1="318.0" y2="260.0" /><line marker-end="url(#arrowhead_333333)" stroke="#333333" stroke-width="1.5" x1="63.0" x2="83.0" y1="260.0" y2="260.0" /><rect fill="none" height="141.0" rx="6" stroke="#999" stroke-width="1.5" width="144" x="51.0" y="183.0" /><text dy="0.35em" fill="#666666" font-family="Inter, Segoe UI, Helvetica, Arial, sans-serif" font-size="14px" text-anchor="end" x="45.0" y="253.5">N×</text><line marker-end="url(#arrowhead_333333)" stroke="#333333" stroke-width="1.5" x1="133.0" x2="133.0" y1="330.0" y2="300.0" /><circle cx="133.0" cy="335.0" fill="white" r="5" stroke="#333333" stroke-width="1.5" /><text dy="0.3em" fill="#333333" font-family="Inter, Segoe UI, Helvetica, Arial, sans-serif" font-size="14px" text-anchor="middle" x="133.0" y="335.0">+</text><text dy="0.35em" fill="#333333" font-family="Inter, Segoe UI, Helvetica, Arial, sans-serif" font-size="11px" text-anchor="end" x="53.0" y="329.0">Positional</text><text dy="0.35em" fill="#333333" font-family="Inter, Segoe UI, Helvetica, Arial, sans-serif" font-size="11px" text-anchor="end" x="53.0" y="345.0">Encoding</text><path d="M57.0,335.0 q8,-8 16,0 q8,8 16,0" fill="none" stroke="#333333" stroke-width="1.2" /><line marker-end="url(#arrowhead_333333)" stroke="#333333" stroke-width="1.5" x1="93.0" x2="126.0" y1="335.0" y2="335.0" /><line marker-end="url(#arrowhead_333333)" stroke="#333333" stroke-width="1.5" x1="133.0" x2="133.0" y1="352.0" y2="340.0" /><rect fill="#fce0e1" height="26" rx="5" ry="5" stroke="#333333" stroke-width="1.5" width="100" x="83.0" y="352.0" /><text dy="0.35em" fill="#1F2937" font-family="Inter, Segoe UI, Helvetica, Arial, sans-serif" font-size="11px" text-anchor="middle" x="133.0" y="365.0">Input Embedding</text><line marker-end="url(#arrowhead_333333)" stroke="#333333" stroke-width="1.5" x1="133.0" x2="133.0" y1="390.0" y2="378.0" /><text dy="0.35em" fill="#1F2937" font-family="Inter, Segoe UI, Helvetica, Arial, sans-serif" font-size="14px" text-anchor="middle" x="133.0" y="396.0">Inputs</text><line stroke="#333333" stroke-width="1.5" x1="133.0" x2="133.0" y1="189.0" y2="177.0" /><line stroke="#333333" stroke-width="1.5" x1="133.0" x2="207.0" y1="177.0" y2="177.0" /><line stroke="#333333" stroke-width="1.5" x1="207.0" x2="207.0" y1="177.0" y2="225.0" /><line stroke="#333333" stroke-width="1.5" x1="207.0" x2="256.0" y1="225.0" y2="225.0" /></svg>