<?xml version="1.0" encoding="utf-8" ?>
<svg baseProfile="full" height="441.0px" version="1.1" viewBox="0 0 450 441.0" width="450px" xmlns="http://www.w3.org/2000/svg" xmlns:ev="http://www.w3.org/2001/xml-events" xmlns:xlink="http://www.w3.org/1999/xlink"><defs><marker id="arrowhead" markerHeight="4" markerWidth="4" orient="auto" refX="4" refY="2.0"><polygon fill="#374151" points="0,0 4,2.0 0,4" /></marker><marker id="arrowhead_333333" markerHeight="4" markerWidth="4" orient="auto" refX="4" refY="2.0"><polygon fill="#333333" points="0,0 4,2.0 0,4" /></marker></defs><text dy="0.35em" fill="#1F2937" font-family="Inter, Segoe UI, Helvetica, Arial, sans-serif" font-size="14px" text-anchor="middle" x="286.0" y="20">Output</text><text dy="0.35em" fill="#1F2937" font-family="Inter, Segoe UI, Helvetica, Arial, sans-serif" font-size="14px" text-anchor="middle" x="286.0" y="35">Probabilities</text><line marker-end="url(#arrowhead_333333)" stroke="#333333" stroke-width="1.5" x1="286.0" x2="286.0" y1="56" y2="44" /><rect fill="#cce7cf" height="16" rx="5" ry="5" stroke="#333333" stroke-width="1.5" width="100" x="236.0" y="56" /><text dy="0.35em" fill="#1F2937" font-family="Inter, Segoe UI, Helvetica, Arial, sans-serif" font-size="11px" text-anchor="middle" x="286.0" y="64.0">Softmax</text><line marker-end="url(#arrowhead_333333)" stroke="#333333" stroke-width="1.5" x1="286.0" x2="286.0" y1="84" y2="72" /><rect fill="#dbdfef" height="16" rx="5" ry="5" stroke="#333333" stroke-width="1.5" width="100" x="236.0" y="84" /><text dy="0.35em" fill="#1F2937" font-family="Inter, Segoe UI, Helvetica, Arial, sans-serif" font-size="11px" text-anchor="middle" x="286.0" y="92.0">Linear</text><line marker-end="url(#arrowhead_333333)" stroke="#333333" stroke-width="1.5" x1="286.0" x2="286.0" y1="115.0" y2="100" /><rect fill="#f2f4c1" height="16" rx="5" ry="5" stroke="#333333" stroke-width="1.5" width="100" x="236.0" y="115.0" /><text dy="0.35em" fill="#1F2937" font-family="Inter, Segoe UI, Helvetica, Arial, sans-serif" font-size="11px" text-anchor="middle" x="286.0" y="123.0">Add &amp; Norm</text><line stroke="#333333" stroke-width="1.5" x1="286.0" x2="286.0" y1="137.0" y2="131.0" /><rect fill="#c2e8f7" height="26" rx="6" ry="6" stroke="#333333" stroke-width="1.5" width="100" x="236.0" y="137.0" /><text dy="0.35em" fill="#1F2937" font-family="Inter, Segoe UI, Helvetica, Arial, sans-serif" font-size="11px" text-anchor="middle" x="286.0" y="143.5">Feed</text><text dy="0.35em" fill="#1F2937" font-family="Inter, Segoe UI, Helvetica, Arial, sans-serif" font-size="11px" text-anchor="middle" x="286.0" y="156.5">Forward</text><line stroke="#333333" stroke-width="1.2" x1="286.0" x2="356.0" y1="172.0" y2="172.0" /><line stroke="#333333" stroke-width="1.2" x1="356.0" x2="356.0" y1="172.0" y2="123.0" /><line marker-end="url(#arrowhead_333333)" stroke="#333333" stroke-width="1.5" x1="356.0" x2="336.0" y1="123.0" y2="123.0" /><line marker-end="url(#arrowhead_333333)" stroke="#333333" stroke-width="1.5" x1="286.0" x2="286.0" y1="178.0" y2="163.0" /><rect fill="#f2f4c1" height="16" rx="5" ry="5" stroke="#333333" stroke-width="1.5" width="100" x="236.0" y="178.0" /><text dy="0.35em" fill="#1F2937" font-family="Inter, Segoe UI, Helvetica, Arial, sans-serif" font-size="11px" text-anchor="middle" x="286.0" y="186.0">Add &amp; Norm</text><line stroke="#333333" stroke-width="1.5" x1="286.0" x2="286.0" y1="200.0" y2="194.0" /><rect fill="#ffe2bb" height="26" rx="6" ry="6" stroke="#333333" stroke-width="1.5" width="100" x="236.0" y="200.0" /><text dy="0.35em" fill="#1F2937" font-family="Inter, Segoe UI, Helvetica, Arial, sans-serif" font-size="11px" text-anchor="middle" x="286.0" y="206.5">Multi-Head</text><text dy="0.35em" fill="#1F2937" font-family="Inter, Segoe UI, Helvetica, Arial, sans-serif" font-size="11px" text-anchor="middle" x="286.0" y="219.5">Attention</text><line stroke="#333333" stroke-width="1.5" x1="286.0" x2="248.5" y1="235.0" y2="235.0" /><line stroke="#333333" stroke-width="1.5" x1="286.0" x2="323.5" y1="238.0" y2="238.0" /><line marker-end="url(#arrowhead_333333)" stroke="#333333" stroke-width="1.5" x1="248.5" x2="248.5" y1="235.0" y2="226.0" /><line marker-end="url(#arrowhead_333333)" stroke="#333333" stroke-width="1.5" x1="323.5" x2="323.5" y1="238.0" y2="226.0" /><line stroke="#333333" stroke-width="1.2" x1="286.0" x2="356.0" y1="244.0" y2="244.0" /><line stroke="#333333" stroke-width="1.2" x1="356.0" x2="356.0" y1="244.0" y2="186.0" /><line marker-end="url(#arrowhead_333333)" stroke="#333333" stroke-width="1.5" x1="356.0" x2="336.0" y1="186.0" y2="186.0" /><line marker-end="url(#arrowhead_333333)" stroke="#333333" stroke-width="1.5" x1="286.0" x2="286.0" y1="235.0" y2="226.0" /><line stroke="#333333" stroke-width="1.5" x1="286.0" x2="286.0" y1="250.0" y2="238.0" /><rect fill="#f2f4c1" height="16" rx="5" ry="5" stroke="#333333" stroke-width="1.5" width="100" x="236.0" y="250.0" /><text dy="0.35em" fill="#1F2937" font-family="Inter, Segoe UI, Helvetica, Arial, sans-serif" font-size="11px" text-anchor="middle" x="286.0" y="258.0">Add &amp; Norm</text><line stroke="#333333" stroke-width="1.5" x1="286.0" x2="286.0" y1="272.0" y2="266.0" /><rect fill="#ffe2bb" height="38" rx="6" ry="6" stroke="#333333" stroke-width="1.5" width="100" x="236.0" y="272.0" /><text dy="0.35em" fill="#1F2937" font-family="Inter, Segoe UI, Helvetica, Arial, sans-serif" font-size="11px" text-anchor="middle" x="286.0" y="278.0">Masked</text><text dy="0.35em" fill="#1F2937" font-family="Inter, Segoe UI, Helvetica, Arial, sans-serif" font-size="11px" text-anchor="middle" x="286.0" y="291.0">Multi-Head</text><text dy="0.35em" fill="#1F2937" font-family="Inter, Segoe UI, Helvetica, Arial, sans-serif" font-size="11px" text-anchor="middle" x="286.0" y="304.0">Attention</text><line stroke="#333333" stroke-width="1.5" x1="286.0" x2="248.5" y1="319.0" y2="319.0" /><line stroke="#333333" stroke-width="1.5" x1="286.0" x2="323.5" y1="319.0" y2="319.0" /><line marker-end="url(#arrowhead_333333)" stroke="#333333" stroke-width="1.5" x1="248.5" x2="248.5" y1="319.0" y2="310.0" /><line marker-end="url(#arrowhead_333333)" stroke="#333333" stroke-width="1.5" x1="323.5" x2="323.5" y1="319.0" y2="310.0" /><line stroke="#333333" stroke-width="1.2" x1="286.0" x2="356.0" y1="328.0" y2="328.0" /><line stroke="#333333" stroke-width="1.2" x1="356.0" x2="356.0" y1="328.0" y2="258.0" /><line marker-end="url(#arrowhead_333333)" stroke="#333333" stroke-width="1.5" x1="356.0" x2="336.0" y1="258.0" y2="258.0" /><rect fill="none" height="225.0" rx="6" stroke="#999" stroke-width="1.5" width="144" x="224.0" y="109.0" /><text dy="0.35em" fill="#666666" font-family="Inter, Segoe UI, Helvetica, Arial, sans-serif" font-size="14px" text-anchor="start" x="374.0" y="221.5">N×</text><line marker-end="url(#arrowhead_333333)" stroke="#333333" stroke-width="1.5" x1="286.0" x2="286.0" y1="340.0" y2="310.0" /><circle cx="286.0" cy="345.0" fill="white" r="5" stroke="#333333" stroke-width="1.5" /><text dy="0.3em" fill="#333333" font-family="Inter, Segoe UI, Helvetica, Arial, sans-serif" font-size="14px" text-anchor="middle" x="286.0" y="345.0">+</text><text dy="0.35em" fill="#333333" font-family="Inter, Segoe UI, Helvetica, Arial, sans-serif" font-size="11px" text-anchor="start" x="366.0" y="339.0">Positional</text><text dy="0.35em" fill="#333333" font-family="Inter, Segoe UI, Helvetica, Arial, sans-serif" font-size="11px" text-anchor="start" x="366.0" y="355.0">Encoding</text><path d="M362.0,345.0 q-8,-8 -16,0 q-8,8 -16,0" fill="none" stroke="#333333" stroke-width="1.2" /><line marker-end="url(#arrowhead_333333)" stroke="#333333" stroke-width="1.5" x1="326.0" x2="293.0" y1="345.0" y2="345.0" /><line marker-end="url(#arrowhead_333333)" stroke="#333333" stroke-width="1.5" x1="286.0" x2="286.0" y1="362.0" y2="350.0" /><rect fill="#fce0e1" height="26" rx="5" ry="5" stroke="#333333" stroke-width="1.5" width="100" x="236.0" y="362.0" /><text dy="0.35em" fill="#1F2937" font-family="Inter, Segoe UI, Helvetica, Arial, sans-serif" font-size="11px" text-anchor="middle" x="286.0" y="375.0">Output Embedding</text><line marker-end="url(#arrowhead_333333)" stroke="#333333" stroke-width="1.5" x1="286.0" x2="286.0" y1="400.0" y2="388.0" /><text dy="0.35em" fill="#1F2937" font-family="Inter, Segoe UI, Helvetica, Arial, sans-serif" font-size="14px" text-anchor="middle" x="286.0" y="406.0">Outputs</text><text dy="0.35em" fill="#666666" font-family="Inter, Segoe UI, Helvetica, Arial, sans-serif" font-size="11px" text-anchor="middle" x="286.0" y="421.0">(shifted right)</text><rect fill="#f2f4c1" height="16" rx="5" ry="5" stroke="#333333" stroke-width="1.5" width="100" x="88.0" y="199.0" /><text dy="0.35em" fill="#1F2937" font-family="Inter, Segoe UI, Helvetica, Arial, sans-serif" font-size="11px" text-anchor="middle" x="138.0" y="207.0">Add &amp; Norm</text><line stroke="#333333" stroke-width="1.5" x1="286.0" x2="286.0" y1="221.0" y2="215.0" /><rect fill="#c2e8f7" height="26" rx="6" ry="6" stroke="#333333" stroke-width="1.5" width="100" x="88.0" y="221.0" /><text dy="0.35em" fill="#1F2937" font-family="Inter, Segoe UI, Helvetica, Arial, sans-serif" font-size="11px" text-anchor="middle" x="138.0" y="227.5">Feed</text><text dy="0.35em" fill="#1F2937" font-family="Inter, Segoe UI, Helvetica, Arial, sans-serif" font-size="11px" text-anchor="middle" x="138.0" y="240.5">Forward</text><line stroke="#333333" stroke-width="1.2" x1="138.0" x2="68.0" y1="256.0" y2="256.0" /><line stroke="#333333" stroke-width="1.2" x1="68.0" x2="68.0" y1="256.0" y2="207.0" /><line marker-end="url(#arrowhead_333333)" stroke="#333333" stroke-width="1.5" x1="68.0" x2="88.0" y1="207.0" y2="207.0" /><line marker-end="url(#arrowhead_333333)" stroke="#333333" stroke-width="1.5" x1="138.0" x2="138.0" y1="262.0" y2="247.0" /><rect fill="#f2f4c1" height="16" rx="5" ry="5" stroke="#333333" stroke-width="1.5" width="100" x="88.0" y="262.0" /><text dy="0.35em" fill="#1F2937" font-family="Inter, Segoe UI, Helvetica, Arial, sans-serif" font-size="11px" text-anchor="middle" x="138.0" y="270.0">Add &amp; Norm</text><line stroke="#333333" stroke-width="1.5" x1="138.0" x2="138.0" y1="284.0" y2="278.0" /><rect fill="#ffe2bb" height="26" rx="6" ry="6" stroke="#333333" stroke-width="1.5" width="100" x="88.0" y="284.0" /><text dy="0.35em" fill="#1F2937" font-family="Inter, Segoe UI, Helvetica, Arial, sans-serif" font-size="11px" text-anchor="middle" x="138.0" y="290.5">Multi-Head</text><text dy="0.35em" fill="#1F2937" font-family="Inter, Segoe UI, Helvetica, Arial, sans-serif" font-size="11px" text-anchor="middle" x="138.0" y="303.5">Attention</text><line stroke="#333333" stroke-width="1.5" x1="138.0" x2="100.5" y1="319.0" y2="319.0" /><line stroke="#333333" stroke-width="1.5" x1="138.0" x2="175.5" y1="319.0" y2="319.0" /><line marker-end="url(#arrowhead_333333)" stroke="#333333" stroke-width="1.5" x1="100.5" x2="100.5" y1="319.0" y2="310.0" /><line marker-end="url(#arrowhead_333333)" stroke="#333333" stroke-width="1.5" x1="175.5" x2="175.5" y1="319.0" y2="310.0" /><line stroke="#333333" stroke-width="1.2" x1="138.0" x2="68.0" y1="328.0" y2="328.0" /><line stroke="#333333" stroke-width="1.2" x1="68.0" x2="68.0" y1="328.0" y2="270.0" /><line marker-end="url(#arrowhead_333333)" stroke="#333333" stroke-width="1.5" x1="68.0" x2="88.0" y1="270.0" y2="270.0" /><rect fill="none" height="141.0" rx="6" stroke="#999" stroke-width="1.5" width="144" x="56.0" y="193.0" /><text dy="0.35em" fill="#666666" font-family="Inter, Segoe UI, Helvetica, Arial, sans-serif" font-size="14px" text-anchor="end" x="50.0" y="263.5">N×</text><line marker-end="url(#arrowhead_333333)" stroke="#333333" stroke-width="1.5" x1="138.0" x2="138.0" y1="340.0" y2="310.0" /><circle cx="138.0" cy="345.0" fill="white" r="5" stroke="#333333" stroke-width="1.5" /><text dy="0.3em" fill="#333333" font-family="Inter, Segoe UI, Helvetica, Arial, sans-serif" font-size="14px" text-anchor="middle" x="138.0" y="345.0">+</text><text dy="0.35em" fill="#333333" font-family="Inter, Segoe UI, Helvetica, Arial, sans-serif" font-size="11px" text-anchor="end" x="58.0" y="339.0">Positional</text><text dy="0.35em" fill="#333333" font-family="Inter, Segoe UI, Helvetica, Arial, sans-serif" font-size="11px" text-anchor="end" x="58.0" y="355.0">Encoding</text><path d="M62.0,345.0 q8,-8 16,0 q8,8 16,0" fill="none" stroke="#333333" stroke-width="1.2" /><line marker-end="url(#arrowhead_333333)" stroke="#333333" stroke-width="1.5" x1="98.0" x2="131.0" y1="345.0" y2="345.0" /><line marker-end="url(#arrowhead_333333)" stroke="#333333" stroke-width="1.5" x1="138.0" x2="138.0" y1="362.0" y2="350.0" /><rect fill="#fce0e1" height="26" rx="5" ry="5" stroke="#333333" stroke-width="1.5" width="100" x="88.0" y="362.0" /><text dy="0.35em" fill="#1F2937" font-family="Inter, Segoe UI, Helvetica, Arial, sans-serif" font-size="11px" text-anchor="middle" x="138.0" y="375.0">Input Embedding</text><line marker-end="url(#arrowhead_333333)" stroke="#333333" stroke-width="1.5" x1="138.0" x2="138.0" y1="400.0" y2="388.0" /><text dy="0.35em" fill="#1F2937" font-family="Inter, Segoe UI, Helvetica, Arial, sans-serif" font-size="14px" text-anchor="middle" x="138.0" y="406.0">Inputs</text><line stroke="#333333" stroke-width="1.5" x1="138.0" x2="138.0" y1="199.0" y2="187.0" /><line stroke="#333333" stroke-width="1.5" x1="138.0" x2="212.0" y1="187.0" y2="187.0" /><line stroke="#333333" stroke-width="1.5" x1="212.0" x2="212.0" y1="187.0" y2="235.0" /><line stroke="#333333" stroke-width="1.5" x1="212.0" x2="261.0" y1="235.0" y2="235.0" /></svg>