<?xml version="1.0" encoding="utf-8" ?>
<svg baseProfile="full" height="1003.0px" version="1.1" viewBox="0 0 320 1003.0" width="320px" xmlns="http://www.w3.org/2000/svg" xmlns:ev="http://www.w3.org/2001/xml-events" xmlns:xlink="http://www.w3.org/1999/xlink"><defs><marker id="arrowhead" markerHeight="4" markerWidth="4" orient="auto" refX="4" refY="2.0"><polygon fill="#374151" points="0,0 4,2.0 0,4" /></marker><marker id="arrowhead_333333" markerHeight="4" markerWidth="4" orient="auto" refX="4" refY="2.0"><polygon fill="#333333" points="0,0 4,2.0 0,4" /></marker></defs><text dominant-baseline="central" fill="#1F2937" font-family="Inter, Segoe UI, Helvetica, Arial, sans-serif" font-size="14px" text-anchor="middle" x="160" y="20">Output</text><text dominant-baseline="central" fill="#1F2937" font-family="Inter, Segoe UI, Helvetica, Arial, sans-serif" font-size="14px" text-anchor="middle" x="160" y="35">Probabilities</text><line marker-end="url(#arrowhead_333333)" stroke="#333333" stroke-width="1.5" x1="160" x2="160" y1="62" y2="50" /><rect fill="#cce7cf" height="18" rx="5" ry="5" stroke="#333333" stroke-width="1.5" width="100" x="110.0" y="62" /><text dominant-baseline="central" fill="#1F2937" font-family="Inter, Segoe UI, Helvetica, Arial, sans-serif" font-size="11px" text-anchor="middle" x="160.0" y="71.0">Softmax</text><line marker-end="url(#arrowhead_333333)" stroke="#333333" stroke-width="1.5" x1="160" x2="160" y1="92" y2="80" /><rect fill="#dbdfef" height="18" rx="5" ry="5" stroke="#333333" stroke-width="1.5" width="100" x="110.0" y="92" /><text dominant-baseline="central" fill="#1F2937" font-family="Inter, Segoe UI, Helvetica, Arial, sans-serif" font-size="11px" text-anchor="middle" x="160.0" y="101.0">Linear</text><line marker-end="url(#arrowhead_333333)" stroke="#333333" stroke-width="1.5" x1="160" x2="160" y1="122" y2="110" /><rect fill="#f2f4c1" height="18" rx="5" ry="5" stroke="#333333" stroke-width="1.5" width="100" x="110.0" y="122" /><text dominant-baseline="central" fill="#1F2937" font-family="Inter, Segoe UI, Helvetica, Arial, sans-serif" font-size="11px" text-anchor="middle" x="160.0" y="131.0">Pre-Norm</text><line marker-end="url(#arrowhead_333333)" stroke="#333333" stroke-width="1.5" x1="160" x2="160" y1="153" y2="140" /><circle cx="160" cy="158" fill="white" r="5" stroke="#333333" stroke-width="1.5" /><text dominant-baseline="central" fill="#333333" font-family="Inter, Segoe UI, Helvetica, Arial, sans-serif" font-size="14px" text-anchor="middle" x="160" y="157">+</text><rect fill="#c2e8f7" height="26" rx="6" ry="6" stroke="#333333" stroke-width="1.5" width="100" x="40.0" y="164" /><text dominant-baseline="central" fill="#1F2937" font-family="Inter, Segoe UI, Helvetica, Arial, sans-serif" font-size="11px" text-anchor="middle" x="90" y="170.5">Feed</text><text dominant-baseline="central" fill="#1F2937" font-family="Inter, Segoe UI, Helvetica, Arial, sans-serif" font-size="11px" text-anchor="middle" x="90" y="183.5">Forward</text><line stroke="#333333" stroke-width="1.5" x1="90" x2="90" y1="164" y2="158" /><line marker-end="url(#arrowhead_333333)" stroke="#333333" stroke-width="1.5" x1="90" x2="155" y1="158" y2="158" /><rect fill="#f2f4c1" height="18" rx="5" ry="5" stroke="#333333" stroke-width="1.5" width="100" x="40.0" y="196" /><text dominant-baseline="central" fill="#1F2937" font-family="Inter, Segoe UI, Helvetica, Arial, sans-serif" font-size="11px" text-anchor="middle" x="90.0" y="205.0">Pre-Norm</text><line stroke="#333333" stroke-width="1.5" x1="90" x2="90" y1="196" y2="190" /><line stroke="#333333" stroke-width="1.5" x1="160" x2="160" y1="163" y2="220" /><line stroke="#333333" stroke-width="1.5" x1="90" x2="160" y1="220" y2="220" /><line stroke="#333333" stroke-width="1.5" x1="90" x2="90" y1="220" y2="214" /><line stroke="#333333" stroke-width="1.5" x1="160" x2="160" y1="220" y2="233" /><circle cx="160" cy="238" fill="white" r="5" stroke="#333333" stroke-width="1.5" /><text dominant-baseline="central" fill="#333333" font-family="Inter, Segoe UI, Helvetica, Arial, sans-serif" font-size="14px" text-anchor="middle" x="160" y="237">+</text><rect fill="#ffe2bb" height="38" rx="6" ry="6" stroke="#333333" stroke-width="1.5" width="100" x="40.0" y="244" /><text dominant-baseline="central" fill="#1F2937" font-family="Inter, Segoe UI, Helvetica, Arial, sans-serif" font-size="11px" text-anchor="middle" x="90" y="250.0">Masked</text><text dominant-baseline="central" fill="#1F2937" font-family="Inter, Segoe UI, Helvetica, Arial, sans-serif" font-size="11px" text-anchor="middle" x="90" y="263.0">Multi-Head</text><text dominant-baseline="central" fill="#1F2937" font-family="Inter, Segoe UI, Helvetica, Arial, sans-serif" font-size="11px" text-anchor="middle" x="90" y="276.0">Attention</text><line stroke="#333333" stroke-width="1.5" x1="90" x2="90" y1="244" y2="238" /><line marker-end="url(#arrowhead_333333)" stroke="#333333" stroke-width="1.5" x1="90" x2="155" y1="238" y2="238" /><line stroke="#333333" stroke-width="1.5" x1="90" x2="52.5" y1="291.0" y2="291.0" /><line stroke="#333333" stroke-width="1.5" x1="90" x2="127.5" y1="291.0" y2="291.0" /><line marker-end="url(#arrowhead_333333)" stroke="#333333" stroke-width="1.5" x1="52.5" x2="52.5" y1="291.0" y2="282" /><line marker-end="url(#arrowhead_333333)" stroke="#333333" stroke-width="1.5" x1="127.5" x2="127.5" y1="291.0" y2="282" /><rect fill="#f2f4c1" height="18" rx="5" ry="5" stroke="#333333" stroke-width="1.5" width="100" x="40.0" y="297.0" /><text dominant-baseline="central" fill="#1F2937" font-family="Inter, Segoe UI, Helvetica, Arial, sans-serif" font-size="11px" text-anchor="middle" x="90.0" y="306.0">Pre-Norm</text><line marker-end="url(#arrowhead_333333)" stroke="#333333" stroke-width="1.5" x1="90" x2="90" y1="297.0" y2="282" /><line stroke="#333333" stroke-width="1.5" x1="160" x2="160" y1="243" y2="321.0" /><line stroke="#333333" stroke-width="1.5" x1="90" x2="160" y1="321.0" y2="321.0" /><line stroke="#333333" stroke-width="1.5" x1="90" x2="90" y1="321.0" y2="315.0" /><rect fill="none" height="176.0" rx="40" ry="40" stroke="#999999" stroke-dasharray="16,6" stroke-width="2" width="210.0" x="20.0" y="149" /><text dominant-baseline="central" fill="#666666" font-family="Inter, Segoe UI, Helvetica, Arial, sans-serif" font-size="11px" text-anchor="start" x="234.0" y="237.0">Layer N</text><circle cx="90" cy="338.0" fill="#333333" r="4" /><circle cx="90" cy="350.0" fill="#333333" r="4" /><circle cx="90" cy="362.0" fill="#333333" r="4" /><line stroke="#333333" stroke-width="1.5" x1="160" x2="160" y1="321.0" y2="361.0" /><line stroke="#333333" stroke-width="1.5" x1="160" x2="160" y1="361.0" y2="374.0" /><circle cx="160" cy="379.0" fill="white" r="5" stroke="#333333" stroke-width="1.5" /><text dominant-baseline="central" fill="#333333" font-family="Inter, Segoe UI, Helvetica, Arial, sans-serif" font-size="14px" text-anchor="middle" x="160" y="378.0">+</text><rect fill="#c2e8f7" height="26" rx="6" ry="6" stroke="#333333" stroke-width="1.5" width="100" x="40.0" y="385.0" /><text dominant-baseline="central" fill="#1F2937" font-family="Inter, Segoe UI, Helvetica, Arial, sans-serif" font-size="11px" text-anchor="middle" x="90" y="391.5">Feed</text><text dominant-baseline="central" fill="#1F2937" font-family="Inter, Segoe UI, Helvetica, Arial, sans-serif" font-size="11px" text-anchor="middle" x="90" y="404.5">Forward</text><line stroke="#333333" stroke-width="1.5" x1="90" x2="90" y1="385.0" y2="379.0" /><line marker-end="url(#arrowhead_333333)" stroke="#333333" stroke-width="1.5" x1="90" x2="155" y1="379.0" y2="379.0" /><rect fill="#f2f4c1" height="18" rx="5" ry="5" stroke="#333333" stroke-width="1.5" width="100" x="40.0" y="417.0" /><text dominant-baseline="central" fill="#1F2937" font-family="Inter, Segoe UI, Helvetica, Arial, sans-serif" font-size="11px" text-anchor="middle" x="90.0" y="426.0">Pre-Norm</text><line stroke="#333333" stroke-width="1.5" x1="90" x2="90" y1="417.0" y2="411.0" /><line stroke="#333333" stroke-width="1.5" x1="160" x2="160" y1="384.0" y2="441.0" /><line stroke="#333333" stroke-width="1.5" x1="90" x2="160" y1="441.0" y2="441.0" /><line stroke="#333333" stroke-width="1.5" x1="90" x2="90" y1="441.0" y2="435.0" /><line stroke="#333333" stroke-width="1.5" x1="160" x2="160" y1="441.0" y2="454.0" /><circle cx="160" cy="459.0" fill="white" r="5" stroke="#333333" stroke-width="1.5" /><text dominant-baseline="central" fill="#333333" font-family="Inter, Segoe UI, Helvetica, Arial, sans-serif" font-size="14px" text-anchor="middle" x="160" y="458.0">+</text><rect fill="#ffe2bb" height="38" rx="6" ry="6" stroke="#333333" stroke-width="1.5" width="100" x="40.0" y="465.0" /><text dominant-baseline="central" fill="#1F2937" font-family="Inter, Segoe UI, Helvetica, Arial, sans-serif" font-size="11px" text-anchor="middle" x="90" y="471.0">Masked</text><text dominant-baseline="central" fill="#1F2937" font-family="Inter, Segoe UI, Helvetica, Arial, sans-serif" font-size="11px" text-anchor="middle" x="90" y="484.0">Multi-Head</text><text dominant-baseline="central" fill="#1F2937" font-family="Inter, Segoe UI, Helvetica, Arial, sans-serif" font-size="11px" text-anchor="middle" x="90" y="497.0">Attention</text><line stroke="#333333" stroke-width="1.5" x1="90" x2="90" y1="465.0" y2="459.0" /><line marker-end="url(#arrowhead_333333)" stroke="#333333" stroke-width="1.5" x1="90" x2="155" y1="459.0" y2="459.0" /><line stroke="#333333" stroke-width="1.5" x1="90" x2="52.5" y1="512.0" y2="512.0" /><line stroke="#333333" stroke-width="1.5" x1="90" x2="127.5" y1="512.0" y2="512.0" /><line marker-end="url(#arrowhead_333333)" stroke="#333333" stroke-width="1.5" x1="52.5" x2="52.5" y1="512.0" y2="503.0" /><line marker-end="url(#arrowhead_333333)" stroke="#333333" stroke-width="1.5" x1="127.5" x2="127.5" y1="512.0" y2="503.0" /><rect fill="#f2f4c1" height="18" rx="5" ry="5" stroke="#333333" stroke-width="1.5" width="100" x="40.0" y="518.0" /><text dominant-baseline="central" fill="#1F2937" font-family="Inter, Segoe UI, Helvetica, Arial, sans-serif" font-size="11px" text-anchor="middle" x="90.0" y="527.0">Pre-Norm</text><line marker-end="url(#arrowhead_333333)" stroke="#333333" stroke-width="1.5" x1="90" x2="90" y1="518.0" y2="503.0" /><line stroke="#333333" stroke-width="1.5" x1="160" x2="160" y1="464.0" y2="542.0" /><line stroke="#333333" stroke-width="1.5" x1="90" x2="160" y1="542.0" y2="542.0" /><line stroke="#333333" stroke-width="1.5" x1="90" x2="90" y1="542.0" y2="536.0" /><rect fill="none" height="176.0" rx="40" ry="40" stroke="#999999" stroke-dasharray="16,6" stroke-width="2" width="210.0" x="20.0" y="370.0" /><text dominant-baseline="central" fill="#666666" font-family="Inter, Segoe UI, Helvetica, Arial, sans-serif" font-size="11px" text-anchor="start" x="234.0" y="458.0">Layer 3</text><line stroke="#333333" stroke-width="1.5" x1="160" x2="160" y1="542.0" y2="555.0" /><circle cx="160" cy="560.0" fill="white" r="5" stroke="#333333" stroke-width="1.5" /><text dominant-baseline="central" fill="#333333" font-family="Inter, Segoe UI, Helvetica, Arial, sans-serif" font-size="14px" text-anchor="middle" x="160" y="559.0">+</text><rect fill="#c2e8f7" height="26" rx="6" ry="6" stroke="#333333" stroke-width="1.5" width="100" x="40.0" y="566.0" /><text dominant-baseline="central" fill="#1F2937" font-family="Inter, Segoe UI, Helvetica, Arial, sans-serif" font-size="11px" text-anchor="middle" x="90" y="572.5">Feed</text><text dominant-baseline="central" fill="#1F2937" font-family="Inter, Segoe UI, Helvetica, Arial, sans-serif" font-size="11px" text-anchor="middle" x="90" y="585.5">Forward</text><line stroke="#333333" stroke-width="1.5" x1="90" x2="90" y1="566.0" y2="560.0" /><line marker-end="url(#arrowhead_333333)" stroke="#333333" stroke-width="1.5" x1="90" x2="155" y1="560.0" y2="560.0" /><rect fill="#f2f4c1" height="18" rx="5" ry="5" stroke="#333333" stroke-width="1.5" width="100" x="40.0" y="598.0" /><text dominant-baseline="central" fill="#1F2937" font-family="Inter, Segoe UI, Helvetica, Arial, sans-serif" font-size="11px" text-anchor="middle" x="90.0" y="607.0">Pre-Norm</text><line stroke="#333333" stroke-width="1.5" x1="90" x2="90" y1="598.0" y2="592.0" /><line stroke="#333333" stroke-width="1.5" x1="160" x2="160" y1="565.0" y2="622.0" /><line stroke="#333333" stroke-width="1.5" x1="90" x2="160" y1="622.0" y2="622.0" /><line stroke="#333333" stroke-width="1.5" x1="90" x2="90" y1="622.0" y2="616.0" /><line stroke="#333333" stroke-width="1.5" x1="160" x2="160" y1="622.0" y2="635.0" /><circle cx="160" cy="640.0" fill="white" r="5" stroke="#333333" stroke-width="1.5" /><text dominant-baseline="central" fill="#333333" font-family="Inter, Segoe UI, Helvetica, Arial, sans-serif" font-size="14px" text-anchor="middle" x="160" y="639.0">+</text><rect fill="#ffe2bb" height="38" rx="6" ry="6" stroke="#333333" stroke-width="1.5" width="100" x="40.0" y="646.0" /><text dominant-baseline="central" fill="#1F2937" font-family="Inter, Segoe UI, Helvetica, Arial, sans-serif" font-size="11px" text-anchor="middle" x="90" y="652.0">Masked</text><text dominant-baseline="central" fill="#1F2937" font-family="Inter, Segoe UI, Helvetica, Arial, sans-serif" font-size="11px" text-anchor="middle" x="90" y="665.0">Multi-Head</text><text dominant-baseline="central" fill="#1F2937" font-family="Inter, Segoe UI, Helvetica, Arial, sans-serif" font-size="11px" text-anchor="middle" x="90" y="678.0">Attention</text><line stroke="#333333" stroke-width="1.5" x1="90" x2="90" y1="646.0" y2="640.0" /><line marker-end="url(#arrowhead_333333)" stroke="#333333" stroke-width="1.5" x1="90" x2="155" y1="640.0" y2="640.0" /><line stroke="#333333" stroke-width="1.5" x1="90" x2="52.5" y1="693.0" y2="693.0" /><line stroke="#333333" stroke-width="1.5" x1="90" x2="127.5" y1="693.0" y2="693.0" /><line marker-end="url(#arrowhead_333333)" stroke="#333333" stroke-width="1.5" x1="52.5" x2="52.5" y1="693.0" y2="684.0" /><line marker-end="url(#arrowhead_333333)" stroke="#333333" stroke-width="1.5" x1="127.5" x2="127.5" y1="693.0" y2="684.0" /><rect fill="#f2f4c1" height="18" rx="5" ry="5" stroke="#333333" stroke-width="1.5" width="100" x="40.0" y="699.0" /><text dominant-baseline="central" fill="#1F2937" font-family="Inter, Segoe UI, Helvetica, Arial, sans-serif" font-size="11px" text-anchor="middle" x="90.0" y="708.0">Pre-Norm</text><line marker-end="url(#arrowhead_333333)" stroke="#333333" stroke-width="1.5" x1="90" x2="90" y1="699.0" y2="684.0" /><line stroke="#333333" stroke-width="1.5" x1="160" x2="160" y1="645.0" y2="723.0" /><line stroke="#333333" stroke-width="1.5" x1="90" x2="160" y1="723.0" y2="723.0" /><line stroke="#333333" stroke-width="1.5" x1="90" x2="90" y1="723.0" y2="717.0" /><rect fill="none" height="176.0" rx="40" ry="40" stroke="#999999" stroke-dasharray="16,6" stroke-width="2" width="210.0" x="20.0" y="551.0" /><text dominant-baseline="central" fill="#666666" font-family="Inter, Segoe UI, Helvetica, Arial, sans-serif" font-size="11px" text-anchor="start" x="234.0" y="639.0">Layer 2</text><line stroke="#333333" stroke-width="1.5" x1="160" x2="160" y1="723.0" y2="736.0" /><circle cx="160" cy="741.0" fill="white" r="5" stroke="#333333" stroke-width="1.5" /><text dominant-baseline="central" fill="#333333" font-family="Inter, Segoe UI, Helvetica, Arial, sans-serif" font-size="14px" text-anchor="middle" x="160" y="740.0">+</text><rect fill="#c2e8f7" height="26" rx="6" ry="6" stroke="#333333" stroke-width="1.5" width="100" x="40.0" y="747.0" /><text dominant-baseline="central" fill="#1F2937" font-family="Inter, Segoe UI, Helvetica, Arial, sans-serif" font-size="11px" text-anchor="middle" x="90" y="753.5">Feed</text><text dominant-baseline="central" fill="#1F2937" font-family="Inter, Segoe UI, Helvetica, Arial, sans-serif" font-size="11px" text-anchor="middle" x="90" y="766.5">Forward</text><line stroke="#333333" stroke-width="1.5" x1="90" x2="90" y1="747.0" y2="741.0" /><line marker-end="url(#arrowhead_333333)" stroke="#333333" stroke-width="1.5" x1="90" x2="155" y1="741.0" y2="741.0" /><rect fill="#f2f4c1" height="18" rx="5" ry="5" stroke="#333333" stroke-width="1.5" width="100" x="40.0" y="779.0" /><text dominant-baseline="central" fill="#1F2937" font-family="Inter, Segoe UI, Helvetica, Arial, sans-serif" font-size="11px" text-anchor="middle" x="90.0" y="788.0">Pre-Norm</text><line stroke="#333333" stroke-width="1.5" x1="90" x2="90" y1="779.0" y2="773.0" /><line stroke="#333333" stroke-width="1.5" x1="160" x2="160" y1="746.0" y2="803.0" /><line stroke="#333333" stroke-width="1.5" x1="90" x2="160" y1="803.0" y2="803.0" /><line stroke="#333333" stroke-width="1.5" x1="90" x2="90" y1="803.0" y2="797.0" /><line stroke="#333333" stroke-width="1.5" x1="160" x2="160" y1="803.0" y2="816.0" /><circle cx="160" cy="821.0" fill="white" r="5" stroke="#333333" stroke-width="1.5" /><text dominant-baseline="central" fill="#333333" font-family="Inter, Segoe UI, Helvetica, Arial, sans-serif" font-size="14px" text-anchor="middle" x="160" y="820.0">+</text><rect fill="#ffe2bb" height="38" rx="6" ry="6" stroke="#333333" stroke-width="1.5" width="100" x="40.0" y="827.0" /><text dominant-baseline="central" fill="#1F2937" font-family="Inter, Segoe UI, Helvetica, Arial, sans-serif" font-size="11px" text-anchor="middle" x="90" y="833.0">Masked</text><text dominant-baseline="central" fill="#1F2937" font-family="Inter, Segoe UI, Helvetica, Arial, sans-serif" font-size="11px" text-anchor="middle" x="90" y="846.0">Multi-Head</text><text dominant-baseline="central" fill="#1F2937" font-family="Inter, Segoe UI, Helvetica, Arial, sans-serif" font-size="11px" text-anchor="middle" x="90" y="859.0">Attention</text><line stroke="#333333" stroke-width="1.5" x1="90" x2="90" y1="827.0" y2="821.0" /><line marker-end="url(#arrowhead_333333)" stroke="#333333" stroke-width="1.5" x1="90" x2="155" y1="821.0" y2="821.0" /><line stroke="#333333" stroke-width="1.5" x1="90" x2="52.5" y1="874.0" y2="874.0" /><line stroke="#333333" stroke-width="1.5" x1="90" x2="127.5" y1="874.0" y2="874.0" /><line marker-end="url(#arrowhead_333333)" stroke="#333333" stroke-width="1.5" x1="52.5" x2="52.5" y1="874.0" y2="865.0" /><line marker-end="url(#arrowhead_333333)" stroke="#333333" stroke-width="1.5" x1="127.5" x2="127.5" y1="874.0" y2="865.0" /><rect fill="#f2f4c1" height="18" rx="5" ry="5" stroke="#333333" stroke-width="1.5" width="100" x="40.0" y="880.0" /><text dominant-baseline="central" fill="#1F2937" font-family="Inter, Segoe UI, Helvetica, Arial, sans-serif" font-size="11px" text-anchor="middle" x="90.0" y="889.0">Pre-Norm</text><line marker-end="url(#arrowhead_333333)" stroke="#333333" stroke-width="1.5" x1="90" x2="90" y1="880.0" y2="865.0" /><line stroke="#333333" stroke-width="1.5" x1="160" x2="160" y1="826.0" y2="904.0" /><line stroke="#333333" stroke-width="1.5" x1="90" x2="160" y1="904.0" y2="904.0" /><line stroke="#333333" stroke-width="1.5" x1="90" x2="90" y1="904.0" y2="898.0" /><rect fill="none" height="176.0" rx="40" ry="40" stroke="#999999" stroke-dasharray="16,6" stroke-width="2" width="210.0" x="20.0" y="732.0" /><text dominant-baseline="central" fill="#666666" font-family="Inter, Segoe UI, Helvetica, Arial, sans-serif" font-size="11px" text-anchor="start" x="234.0" y="820.0">Layer 1</text><line stroke="#333333" stroke-width="1.5" x1="160" x2="160" y1="904.0" y2="922.0" /><circle cx="160" cy="922.0" fill="white" r="5" stroke="#333333" stroke-width="1.5" /><text dominant-baseline="central" fill="#333333" font-family="Inter, Segoe UI, Helvetica, Arial, sans-serif" font-size="14px" text-anchor="middle" x="160" y="921.0">+</text><text dominant-baseline="central" fill="#333333" font-family="Inter, Segoe UI, Helvetica, Arial, sans-serif" font-size="11px" text-anchor="start" x="230" y="916.0">Positional</text><text dominant-baseline="central" fill="#333333" font-family="Inter, Segoe UI, Helvetica, Arial, sans-serif" font-size="11px" text-anchor="start" x="230" y="932.0">Encoding</text><path d="M226,922.0 q-8,-8 -16,0 q-8,8 -16,0" fill="none" stroke="#333333" stroke-width="1.2" /><line marker-end="url(#arrowhead_333333)" stroke="#333333" stroke-width="1.5" x1="190" x2="167" y1="922.0" y2="922.0" /><line marker-end="url(#arrowhead_333333)" stroke="#333333" stroke-width="1.5" x1="160" x2="160" y1="939.0" y2="927.0" /><rect fill="#fce0e1" height="26" rx="5" ry="5" stroke="#333333" stroke-width="1.5" width="100" x="110.0" y="939.0" /><text dominant-baseline="central" fill="#1F2937" font-family="Inter, Segoe UI, Helvetica, Arial, sans-serif" font-size="11px" text-anchor="middle" x="160.0" y="952.0">Input Embedding</text><line marker-end="url(#arrowhead_333333)" stroke="#333333" stroke-width="1.5" x1="160" x2="160" y1="977.0" y2="965.0" /><text dominant-baseline="central" fill="#1F2937" font-family="Inter, Segoe UI, Helvetica, Arial, sans-serif" font-size="14px" text-anchor="middle" x="160" y="983.0">Inputs</text></svg>