<?xml version="1.0" encoding="utf-8" ?>
<svg baseProfile="full" height="1006.0px" version="1.1" viewBox="0 0 280 1006.0" width="280px" xmlns="http://www.w3.org/2000/svg" xmlns:ev="http://www.w3.org/2001/xml-events" xmlns:xlink="http://www.w3.org/1999/xlink"><defs><marker id="arrowhead" markerHeight="4" markerWidth="4" orient="auto" refX="4" refY="2.0"><polygon fill="#374151" points="0,0 4,2.0 0,4" /></marker><marker id="arrowhead_333333" markerHeight="4" markerWidth="4" orient="auto" refX="4" refY="2.0"><polygon fill="#333333" points="0,0 4,2.0 0,4" /></marker></defs><text dominant-baseline="central" fill="#1F2937" font-family="Inter, Segoe UI, Helvetica, Arial, sans-serif" font-size="14px" text-anchor="middle" x="140" y="20">Output</text><text dominant-baseline="central" fill="#1F2937" font-family="Inter, Segoe UI, Helvetica, Arial, sans-serif" font-size="14px" text-anchor="middle" x="140" y="35">Probabilities</text><line marker-end="url(#arrowhead_333333)" stroke="#333333" stroke-width="1.5" x1="140" x2="140" y1="62" y2="50" /><rect fill="#cce7cf" height="18" rx="5" ry="5" stroke="#333333" stroke-width="1.5" width="100" x="90.0" y="62" /><text dominant-baseline="central" fill="#1F2937" font-family="Inter, Segoe UI, Helvetica, Arial, sans-serif" font-size="11px" text-anchor="middle" x="140.0" y="71.0">Softmax</text><line marker-end="url(#arrowhead_333333)" stroke="#333333" stroke-width="1.5" x1="140" x2="140" y1="92" y2="80" /><rect fill="#dbdfef" height="18" rx="5" ry="5" stroke="#333333" stroke-width="1.5" width="100" x="90.0" y="92" /><text dominant-baseline="central" fill="#1F2937" font-family="Inter, Segoe UI, Helvetica, Arial, sans-serif" font-size="11px" text-anchor="middle" x="140.0" y="101.0">Linear</text><line marker-end="url(#arrowhead_333333)" stroke="#333333" stroke-width="1.5" x1="140" x2="140" y1="122" y2="110" /><rect fill="#f2f4c1" height="18" rx="5" ry="5" stroke="#333333" stroke-width="1.5" width="100" x="90.0" y="122" /><text dominant-baseline="central" fill="#1F2937" font-family="Inter, Segoe UI, Helvetica, Arial, sans-serif" font-size="11px" text-anchor="middle" x="140.0" y="131.0">Pre-Norm</text><line marker-end="url(#arrowhead_333333)" stroke="#333333" stroke-width="1.5" x1="140" x2="140" y1="150" y2="140" /><circle cx="140" cy="158" fill="white" r="8" stroke="#333333" stroke-width="1.5" /><text dominant-baseline="central" fill="#333333" font-family="Inter, Segoe UI, Helvetica, Arial, sans-serif" font-size="14px" text-anchor="middle" x="140" y="157">+</text><rect fill="#c2e8f7" height="26" rx="6" ry="6" stroke="#333333" stroke-width="1.5" width="100" x="20.0" y="164" /><text dominant-baseline="central" fill="#1F2937" font-family="Inter, Segoe UI, Helvetica, Arial, sans-serif" font-size="11px" text-anchor="middle" x="70" y="170.5">Feed</text><text dominant-baseline="central" fill="#1F2937" font-family="Inter, Segoe UI, Helvetica, Arial, sans-serif" font-size="11px" text-anchor="middle" x="70" y="183.5">Forward</text><line stroke="#333333" stroke-width="1.5" x1="70" x2="70" y1="164" y2="158" /><line marker-end="url(#arrowhead_333333)" stroke="#333333" stroke-width="1.5" x1="70" x2="132" y1="158" y2="158" /><rect fill="#f2f4c1" height="18" rx="5" ry="5" stroke="#333333" stroke-width="1.5" width="100" x="20.0" y="196" /><text dominant-baseline="central" fill="#1F2937" font-family="Inter, Segoe UI, Helvetica, Arial, sans-serif" font-size="11px" text-anchor="middle" x="70.0" y="205.0">Pre-Norm</text><line marker-end="url(#arrowhead_333333)" stroke="#333333" stroke-width="1.5" x1="70" x2="70" y1="196" y2="190" /><line stroke="#333333" stroke-width="1.5" x1="140" x2="140" y1="166" y2="220" /><line stroke="#333333" stroke-width="1.5" x1="70" x2="140" y1="220" y2="220" /><line stroke="#333333" stroke-width="1.5" x1="70" x2="70" y1="220" y2="214" /><line stroke="#333333" stroke-width="1.5" x1="140" x2="140" y1="220" y2="230" /><circle cx="140" cy="238" fill="white" r="8" stroke="#333333" stroke-width="1.5" /><text dominant-baseline="central" fill="#333333" font-family="Inter, Segoe UI, Helvetica, Arial, sans-serif" font-size="14px" text-anchor="middle" x="140" y="237">+</text><rect fill="#ffe2bb" height="38" rx="6" ry="6" stroke="#333333" stroke-width="1.5" width="100" x="20.0" y="244" /><text dominant-baseline="central" fill="#1F2937" font-family="Inter, Segoe UI, Helvetica, Arial, sans-serif" font-size="11px" text-anchor="middle" x="70" y="250.0">Masked</text><text dominant-baseline="central" fill="#1F2937" font-family="Inter, Segoe UI, Helvetica, Arial, sans-serif" font-size="11px" text-anchor="middle" x="70" y="263.0">Multi-Head</text><text dominant-baseline="central" fill="#1F2937" font-family="Inter, Segoe UI, Helvetica, Arial, sans-serif" font-size="11px" text-anchor="middle" x="70" y="276.0">Attention</text><line stroke="#333333" stroke-width="1.5" x1="70" x2="70" y1="244" y2="238" /><line marker-end="url(#arrowhead_333333)" stroke="#333333" stroke-width="1.5" x1="70" x2="132" y1="238" y2="238" /><line stroke="#333333" stroke-width="1.5" x1="70" x2="32.5" y1="291.0" y2="291.0" /><line stroke="#333333" stroke-width="1.5" x1="70" x2="107.5" y1="291.0" y2="291.0" /><line marker-end="url(#arrowhead_333333)" stroke="#333333" stroke-width="1.5" x1="32.5" x2="32.5" y1="291.0" y2="282" /><line marker-end="url(#arrowhead_333333)" stroke="#333333" stroke-width="1.5" x1="107.5" x2="107.5" y1="291.0" y2="282" /><rect fill="#f2f4c1" height="18" rx="5" ry="5" stroke="#333333" stroke-width="1.5" width="100" x="20.0" y="297.0" /><text dominant-baseline="central" fill="#1F2937" font-family="Inter, Segoe UI, Helvetica, Arial, sans-serif" font-size="11px" text-anchor="middle" x="70.0" y="306.0">Pre-Norm</text><line marker-end="url(#arrowhead_333333)" stroke="#333333" stroke-width="1.5" x1="70" x2="70" y1="297.0" y2="282" /><line stroke="#333333" stroke-width="1.5" x1="140" x2="140" y1="246" y2="321.0" /><line stroke="#333333" stroke-width="1.5" x1="70" x2="140" y1="321.0" y2="321.0" /><line stroke="#333333" stroke-width="1.5" x1="70" x2="70" y1="321.0" y2="315.0" /><line stroke="#333333" stroke-width="1.5" x1="140" x2="140" y1="321.0" y2="329.0" /><circle cx="140" cy="333.0" fill="#333333" r="3" /><circle cx="140" cy="341.0" fill="#333333" r="3" /><circle cx="140" cy="349.0" fill="#333333" r="3" /><circle cx="70" cy="333.0" fill="#333333" r="3" /><circle cx="70" cy="341.0" fill="#333333" r="3" /><circle cx="70" cy="349.0" fill="#333333" r="3" /><line stroke="#333333" stroke-width="1.5" x1="140" x2="140" y1="353.0" y2="361.0" /><line stroke="#333333" stroke-width="1.5" x1="140" x2="140" y1="361.0" y2="371.0" /><circle cx="140" cy="379.0" fill="white" r="8" stroke="#333333" stroke-width="1.5" /><text dominant-baseline="central" fill="#333333" font-family="Inter, Segoe UI, Helvetica, Arial, sans-serif" font-size="14px" text-anchor="middle" x="140" y="378.0">+</text><rect fill="#c2e8f7" height="26" rx="6" ry="6" stroke="#333333" stroke-width="1.5" width="100" x="20.0" y="385.0" /><text dominant-baseline="central" fill="#1F2937" font-family="Inter, Segoe UI, Helvetica, Arial, sans-serif" font-size="11px" text-anchor="middle" x="70" y="391.5">Feed</text><text dominant-baseline="central" fill="#1F2937" font-family="Inter, Segoe UI, Helvetica, Arial, sans-serif" font-size="11px" text-anchor="middle" x="70" y="404.5">Forward</text><line stroke="#333333" stroke-width="1.5" x1="70" x2="70" y1="385.0" y2="379.0" /><line marker-end="url(#arrowhead_333333)" stroke="#333333" stroke-width="1.5" x1="70" x2="132" y1="379.0" y2="379.0" /><rect fill="#f2f4c1" height="18" rx="5" ry="5" stroke="#333333" stroke-width="1.5" width="100" x="20.0" y="417.0" /><text dominant-baseline="central" fill="#1F2937" font-family="Inter, Segoe UI, Helvetica, Arial, sans-serif" font-size="11px" text-anchor="middle" x="70.0" y="426.0">Pre-Norm</text><line marker-end="url(#arrowhead_333333)" stroke="#333333" stroke-width="1.5" x1="70" x2="70" y1="417.0" y2="411.0" /><line stroke="#333333" stroke-width="1.5" x1="140" x2="140" y1="387.0" y2="441.0" /><line stroke="#333333" stroke-width="1.5" x1="70" x2="140" y1="441.0" y2="441.0" /><line stroke="#333333" stroke-width="1.5" x1="70" x2="70" y1="441.0" y2="435.0" /><line stroke="#333333" stroke-width="1.5" x1="140" x2="140" y1="441.0" y2="451.0" /><circle cx="140" cy="459.0" fill="white" r="8" stroke="#333333" stroke-width="1.5" /><text dominant-baseline="central" fill="#333333" font-family="Inter, Segoe UI, Helvetica, Arial, sans-serif" font-size="14px" text-anchor="middle" x="140" y="458.0">+</text><rect fill="#ffe2bb" height="38" rx="6" ry="6" stroke="#333333" stroke-width="1.5" width="100" x="20.0" y="465.0" /><text dominant-baseline="central" fill="#1F2937" font-family="Inter, Segoe UI, Helvetica, Arial, sans-serif" font-size="11px" text-anchor="middle" x="70" y="471.0">Masked</text><text dominant-baseline="central" fill="#1F2937" font-family="Inter, Segoe UI, Helvetica, Arial, sans-serif" font-size="11px" text-anchor="middle" x="70" y="484.0">Multi-Head</text><text dominant-baseline="central" fill="#1F2937" font-family="Inter, Segoe UI, Helvetica, Arial, sans-serif" font-size="11px" text-anchor="middle" x="70" y="497.0">Attention</text><line stroke="#333333" stroke-width="1.5" x1="70" x2="70" y1="465.0" y2="459.0" /><line marker-end="url(#arrowhead_333333)" stroke="#333333" stroke-width="1.5" x1="70" x2="132" y1="459.0" y2="459.0" /><line stroke="#333333" stroke-width="1.5" x1="70" x2="32.5" y1="512.0" y2="512.0" /><line stroke="#333333" stroke-width="1.5" x1="70" x2="107.5" y1="512.0" y2="512.0" /><line marker-end="url(#arrowhead_333333)" stroke="#333333" stroke-width="1.5" x1="32.5" x2="32.5" y1="512.0" y2="503.0" /><line marker-end="url(#arrowhead_333333)" stroke="#333333" stroke-width="1.5" x1="107.5" x2="107.5" y1="512.0" y2="503.0" /><rect fill="#f2f4c1" height="18" rx="5" ry="5" stroke="#333333" stroke-width="1.5" width="100" x="20.0" y="518.0" /><text dominant-baseline="central" fill="#1F2937" font-family="Inter, Segoe UI, Helvetica, Arial, sans-serif" font-size="11px" text-anchor="middle" x="70.0" y="527.0">Pre-Norm</text><line marker-end="url(#arrowhead_333333)" stroke="#333333" stroke-width="1.5" x1="70" x2="70" y1="518.0" y2="503.0" /><line stroke="#333333" stroke-width="1.5" x1="140" x2="140" y1="467.0" y2="542.0" /><line stroke="#333333" stroke-width="1.5" x1="70" x2="140" y1="542.0" y2="542.0" /><line stroke="#333333" stroke-width="1.5" x1="70" x2="70" y1="542.0" y2="536.0" /><line stroke="#333333" stroke-width="1.5" x1="140" x2="140" y1="542.0" y2="552.0" /><circle cx="140" cy="560.0" fill="white" r="8" stroke="#333333" stroke-width="1.5" /><text dominant-baseline="central" fill="#333333" font-family="Inter, Segoe UI, Helvetica, Arial, sans-serif" font-size="14px" text-anchor="middle" x="140" y="559.0">+</text><rect fill="#c2e8f7" height="26" rx="6" ry="6" stroke="#333333" stroke-width="1.5" width="100" x="20.0" y="566.0" /><text dominant-baseline="central" fill="#1F2937" font-family="Inter, Segoe UI, Helvetica, Arial, sans-serif" font-size="11px" text-anchor="middle" x="70" y="572.5">Feed</text><text dominant-baseline="central" fill="#1F2937" font-family="Inter, Segoe UI, Helvetica, Arial, sans-serif" font-size="11px" text-anchor="middle" x="70" y="585.5">Forward</text><line stroke="#333333" stroke-width="1.5" x1="70" x2="70" y1="566.0" y2="560.0" /><line marker-end="url(#arrowhead_333333)" stroke="#333333" stroke-width="1.5" x1="70" x2="132" y1="560.0" y2="560.0" /><rect fill="#f2f4c1" height="18" rx="5" ry="5" stroke="#333333" stroke-width="1.5" width="100" x="20.0" y="598.0" /><text dominant-baseline="central" fill="#1F2937" font-family="Inter, Segoe UI, Helvetica, Arial, sans-serif" font-size="11px" text-anchor="middle" x="70.0" y="607.0">Pre-Norm</text><line marker-end="url(#arrowhead_333333)" stroke="#333333" stroke-width="1.5" x1="70" x2="70" y1="598.0" y2="592.0" /><line stroke="#333333" stroke-width="1.5" x1="140" x2="140" y1="568.0" y2="622.0" /><line stroke="#333333" stroke-width="1.5" x1="70" x2="140" y1="622.0" y2="622.0" /><line stroke="#333333" stroke-width="1.5" x1="70" x2="70" y1="622.0" y2="616.0" /><line stroke="#333333" stroke-width="1.5" x1="140" x2="140" y1="622.0" y2="632.0" /><circle cx="140" cy="640.0" fill="white" r="8" stroke="#333333" stroke-width="1.5" /><text dominant-baseline="central" fill="#333333" font-family="Inter, Segoe UI, Helvetica, Arial, sans-serif" font-size="14px" text-anchor="middle" x="140" y="639.0">+</text><rect fill="#ffe2bb" height="38" rx="6" ry="6" stroke="#333333" stroke-width="1.5" width="100" x="20.0" y="646.0" /><text dominant-baseline="central" fill="#1F2937" font-family="Inter, Segoe UI, Helvetica, Arial, sans-serif" font-size="11px" text-anchor="middle" x="70" y="652.0">Masked</text><text dominant-baseline="central" fill="#1F2937" font-family="Inter, Segoe UI, Helvetica, Arial, sans-serif" font-size="11px" text-anchor="middle" x="70" y="665.0">Multi-Head</text><text dominant-baseline="central" fill="#1F2937" font-family="Inter, Segoe UI, Helvetica, Arial, sans-serif" font-size="11px" text-anchor="middle" x="70" y="678.0">Attention</text><line stroke="#333333" stroke-width="1.5" x1="70" x2="70" y1="646.0" y2="640.0" /><line marker-end="url(#arrowhead_333333)" stroke="#333333" stroke-width="1.5" x1="70" x2="132" y1="640.0" y2="640.0" /><line stroke="#333333" stroke-width="1.5" x1="70" x2="32.5" y1="693.0" y2="693.0" /><line stroke="#333333" stroke-width="1.5" x1="70" x2="107.5" y1="693.0" y2="693.0" /><line marker-end="url(#arrowhead_333333)" stroke="#333333" stroke-width="1.5" x1="32.5" x2="32.5" y1="693.0" y2="684.0" /><line marker-end="url(#arrowhead_333333)" stroke="#333333" stroke-width="1.5" x1="107.5" x2="107.5" y1="693.0" y2="684.0" /><rect fill="#f2f4c1" height="18" rx="5" ry="5" stroke="#333333" stroke-width="1.5" width="100" x="20.0" y="699.0" /><text dominant-baseline="central" fill="#1F2937" font-family="Inter, Segoe UI, Helvetica, Arial, sans-serif" font-size="11px" text-anchor="middle" x="70.0" y="708.0">Pre-Norm</text><line marker-end="url(#arrowhead_333333)" stroke="#333333" stroke-width="1.5" x1="70" x2="70" y1="699.0" y2="684.0" /><line stroke="#333333" stroke-width="1.5" x1="140" x2="140" y1="648.0" y2="723.0" /><line stroke="#333333" stroke-width="1.5" x1="70" x2="140" y1="723.0" y2="723.0" /><line stroke="#333333" stroke-width="1.5" x1="70" x2="70" y1="723.0" y2="717.0" /><line stroke="#333333" stroke-width="1.5" x1="140" x2="140" y1="723.0" y2="733.0" /><circle cx="140" cy="741.0" fill="white" r="8" stroke="#333333" stroke-width="1.5" /><text dominant-baseline="central" fill="#333333" font-family="Inter, Segoe UI, Helvetica, Arial, sans-serif" font-size="14px" text-anchor="middle" x="140" y="740.0">+</text><rect fill="#c2e8f7" height="26" rx="6" ry="6" stroke="#333333" stroke-width="1.5" width="100" x="20.0" y="747.0" /><text dominant-baseline="central" fill="#1F2937" font-family="Inter, Segoe UI, Helvetica, Arial, sans-serif" font-size="11px" text-anchor="middle" x="70" y="753.5">Feed</text><text dominant-baseline="central" fill="#1F2937" font-family="Inter, Segoe UI, Helvetica, Arial, sans-serif" font-size="11px" text-anchor="middle" x="70" y="766.5">Forward</text><line stroke="#333333" stroke-width="1.5" x1="70" x2="70" y1="747.0" y2="741.0" /><line marker-end="url(#arrowhead_333333)" stroke="#333333" stroke-width="1.5" x1="70" x2="132" y1="741.0" y2="741.0" /><rect fill="#f2f4c1" height="18" rx="5" ry="5" stroke="#333333" stroke-width="1.5" width="100" x="20.0" y="779.0" /><text dominant-baseline="central" fill="#1F2937" font-family="Inter, Segoe UI, Helvetica, Arial, sans-serif" font-size="11px" text-anchor="middle" x="70.0" y="788.0">Pre-Norm</text><line marker-end="url(#arrowhead_333333)" stroke="#333333" stroke-width="1.5" x1="70" x2="70" y1="779.0" y2="773.0" /><line stroke="#333333" stroke-width="1.5" x1="140" x2="140" y1="749.0" y2="803.0" /><line stroke="#333333" stroke-width="1.5" x1="70" x2="140" y1="803.0" y2="803.0" /><line stroke="#333333" stroke-width="1.5" x1="70" x2="70" y1="803.0" y2="797.0" /><line stroke="#333333" stroke-width="1.5" x1="140" x2="140" y1="803.0" y2="813.0" /><circle cx="140" cy="821.0" fill="white" r="8" stroke="#333333" stroke-width="1.5" /><text dominant-baseline="central" fill="#333333" font-family="Inter, Segoe UI, Helvetica, Arial, sans-serif" font-size="14px" text-anchor="middle" x="140" y="820.0">+</text><rect fill="#ffe2bb" height="38" rx="6" ry="6" stroke="#333333" stroke-width="1.5" width="100" x="20.0" y="827.0" /><text dominant-baseline="central" fill="#1F2937" font-family="Inter, Segoe UI, Helvetica, Arial, sans-serif" font-size="11px" text-anchor="middle" x="70" y="833.0">Masked</text><text dominant-baseline="central" fill="#1F2937" font-family="Inter, Segoe UI, Helvetica, Arial, sans-serif" font-size="11px" text-anchor="middle" x="70" y="846.0">Multi-Head</text><text dominant-baseline="central" fill="#1F2937" font-family="Inter, Segoe UI, Helvetica, Arial, sans-serif" font-size="11px" text-anchor="middle" x="70" y="859.0">Attention</text><line stroke="#333333" stroke-width="1.5" x1="70" x2="70" y1="827.0" y2="821.0" /><line marker-end="url(#arrowhead_333333)" stroke="#333333" stroke-width="1.5" x1="70" x2="132" y1="821.0" y2="821.0" /><line stroke="#333333" stroke-width="1.5" x1="70" x2="32.5" y1="874.0" y2="874.0" /><line stroke="#333333" stroke-width="1.5" x1="70" x2="107.5" y1="874.0" y2="874.0" /><line marker-end="url(#arrowhead_333333)" stroke="#333333" stroke-width="1.5" x1="32.5" x2="32.5" y1="874.0" y2="865.0" /><line marker-end="url(#arrowhead_333333)" stroke="#333333" stroke-width="1.5" x1="107.5" x2="107.5" y1="874.0" y2="865.0" /><rect fill="#f2f4c1" height="18" rx="5" ry="5" stroke="#333333" stroke-width="1.5" width="100" x="20.0" y="880.0" /><text dominant-baseline="central" fill="#1F2937" font-family="Inter, Segoe UI, Helvetica, Arial, sans-serif" font-size="11px" text-anchor="middle" x="70.0" y="889.0">Pre-Norm</text><line marker-end="url(#arrowhead_333333)" stroke="#333333" stroke-width="1.5" x1="70" x2="70" y1="880.0" y2="865.0" /><line stroke="#333333" stroke-width="1.5" x1="140" x2="140" y1="829.0" y2="904.0" /><line stroke="#333333" stroke-width="1.5" x1="70" x2="140" y1="904.0" y2="904.0" /><line stroke="#333333" stroke-width="1.5" x1="70" x2="70" y1="904.0" y2="898.0" /><line stroke="#333333" stroke-width="1.5" x1="140" x2="140" y1="904.0" y2="922.0" /><circle cx="140" cy="922.0" fill="white" r="8" stroke="#333333" stroke-width="1.5" /><text dominant-baseline="central" fill="#333333" font-family="Inter, Segoe UI, Helvetica, Arial, sans-serif" font-size="14px" text-anchor="middle" x="140" y="921.0">+</text><text dominant-baseline="central" fill="#333333" font-family="Inter, Segoe UI, Helvetica, Arial, sans-serif" font-size="11px" text-anchor="start" x="210" y="916.0">Positional</text><text dominant-baseline="central" fill="#333333" font-family="Inter, Segoe UI, Helvetica, Arial, sans-serif" font-size="11px" text-anchor="start" x="210" y="932.0">Encoding</text><path d="M206,922.0 q-8,-8 -16,0 q-8,8 -16,0" fill="none" stroke="#333333" stroke-width="1.2" /><line marker-end="url(#arrowhead_333333)" stroke="#333333" stroke-width="1.5" x1="170" x2="150" y1="922.0" y2="922.0" /><line marker-end="url(#arrowhead_333333)" stroke="#333333" stroke-width="1.5" x1="140" x2="140" y1="942.0" y2="930.0" /><rect fill="#fce0e1" height="26" rx="5" ry="5" stroke="#333333" stroke-width="1.5" width="100" x="90.0" y="942.0" /><text dominant-baseline="central" fill="#1F2937" font-family="Inter, Segoe UI, Helvetica, Arial, sans-serif" font-size="11px" text-anchor="middle" x="140.0" y="955.0">Output Embedding</text><line marker-end="url(#arrowhead_333333)" stroke="#333333" stroke-width="1.5" x1="140" x2="140" y1="980.0" y2="968.0" /><text dominant-baseline="central" fill="#1F2937" font-family="Inter, Segoe UI, Helvetica, Arial, sans-serif" font-size="14px" text-anchor="middle" x="140" y="986.0">Inputs</text></svg>